M48
; DRILL file {KiCad (5.1.0)-1} date 27/04/2019 10:23:27
; FORMAT={-:-/ absolute / inch / decimal}
; #@! TF.CreationDate,2019-04-27T10:23:27+02:00
; #@! TF.GenerationSoftware,Kicad,Pcbnew,(5.1.0)-1
FMAT,2
INCH
T1C0.0079
T2C0.0118
T3C0.0200
T4C0.0236
T5C0.0276
T6C0.0335
T7C0.0354
T8C0.0394
T9C0.0512
T10C0.0591
T11C0.0433
T12C0.0512
T13C0.0709
T14C0.1181
T15C0.1260
%
G90
G05
T1
X3.4587Y-1.6594
X3.4587Y-1.7382
X3.4587Y-2.7224
X3.4587Y-2.7618
X3.4587Y-3.0768
X3.4587Y-3.1555
X3.4587Y-3.2343
X3.4587Y-3.313
X3.4587Y-3.5492
X3.4587Y-3.628
X3.4587Y-3.7461
X3.4587Y-3.8642
X3.4587Y-3.9823
X3.4587Y-4.1004
X3.4587Y-4.2185
X3.4587Y-4.3366
X3.4587Y-5.2815
X3.498Y-3.8642
X3.498Y-4.0217
X3.5374Y-3.1555
X3.5374Y-3.9429
X3.6004Y-4.6831
X3.6555Y-1.4626
X3.6555Y-3.0768
X3.6909Y-3.9075
X3.7343Y-1.4626
X3.7343Y-3.0768
X3.7343Y-5.2815
X3.8201Y-4.0192
X3.8524Y-3.0768
X3.8524Y-5.2815
X3.8917Y-1.4626
X3.8917Y-2.7618
X3.9106Y-4.5217
X3.9311Y-2.0138
X3.9311Y-2.0531
X3.9311Y-2.0925
X3.9587Y-4.1831
X3.9705Y-2.0138
X3.9705Y-2.0531
X3.9705Y-2.0925
X3.9705Y-2.4469
X3.9705Y-2.4862
X3.9705Y-2.5256
X3.9705Y-2.565
X3.9705Y-2.7618
X3.9823Y-4.7224
X4.0492Y-2.7618
X4.0728Y-3.6673
X4.0807Y-3.6398
X4.0807Y-3.7972
X4.0886Y-5.2421
X4.0886Y-5.2815
X4.0965Y-2.0768
X4.1004Y-3.628
X4.1043Y-1.5689
X4.124Y-2.1713
X4.128Y-2.7618
X4.128Y-4.4547
X4.1398Y-1.5689
X4.1772Y-1.5709
X4.187Y-3.3819
X4.187Y-3.5098
X4.2067Y-3.0768
X4.2067Y-3.628
X4.2461Y-3.628
X4.2461Y-5.2421
X4.2461Y-5.2815
X4.2539Y-3.2185
X4.2672Y-2.7686
X4.2776Y-3.5374
X4.2815Y-3.6713
X4.2953Y-2.9193
X4.3051Y-2.378
X4.313Y-3.7972
X4.3248Y-2.0138
X4.3248Y-2.0531
X4.3248Y-2.0925
X4.3248Y-3.313
X4.3248Y-3.3524
X4.3327Y-3.3996
X4.3374Y-3.5585
X4.3563Y-3.5217
X4.3642Y-2.0138
X4.3642Y-2.0531
X4.3642Y-2.0925
X4.3642Y-3.313
X4.3642Y-3.3524
X4.3839Y-1.5807
X4.4035Y-3.313
X4.4035Y-3.3524
X4.4823Y-5.2815
X4.4846Y-2.2146
X4.5059Y-1.6594
X4.5177Y-3.872
X4.5217Y-1.4626
X4.5217Y-3.0768
X4.5256Y-1.9587
X4.5807Y-2.8012
X4.6004Y-2.6437
X4.6004Y-3.0768
X4.6004Y-3.8799
X4.6004Y-5.2815
X4.6398Y-1.4626
X4.6398Y-2.4075
X4.6398Y-2.4469
X4.6398Y-2.4862
X4.6398Y-2.7224
X4.6791Y-3.0768
X4.6988Y-1.8484
X4.7185Y-1.8957
X4.7185Y-1.935
X4.7185Y-2.7224
X4.7264Y-1.9823
X4.7542Y-2.8941
X4.7579Y-2.1161
X4.7579Y-3.0768
X4.7776Y-1.9429
X4.7972Y-2.7224
X4.7972Y-5.2815
X4.8366Y-2.7224
X4.8661Y-3.8642
X4.876Y-3.0768
X4.876Y-4.7697
X4.876Y-4.8091
X4.876Y-5.2815
X4.8799Y-2.8217
X4.9114Y-2.0295
X4.9154Y-4.7697
X4.9154Y-4.8091
X4.9252Y-2.122
X4.935Y-1.6299
X4.935Y-1.7283
X4.935Y-1.7776
X4.935Y-2.6339
X4.939Y-2.25
X4.9546Y-1.887
X4.9547Y-1.9744
X4.9547Y-2.4744
X4.9547Y-2.9193
X4.9547Y-4.7697
X4.9547Y-4.8091
X4.9587Y-2.9469
X4.9843Y-2.7126
X4.9843Y-1.8858
X4.9941Y-1.4626
X4.9941Y-2.1319
X4.9941Y-2.9587
X4.9941Y-3.0768
X4.9941Y-3.1161
X4.9941Y-3.1555
X4.9941Y-3.5492
X5.0138Y-2.7315
X5.0335Y-1.935
X5.0433Y-2.8012
X5.0654Y-2.957
X5.0728Y-1.4626
X5.0728Y-2.5256
X5.0728Y-2.565
X5.0728Y-2.6043
X5.0728Y-5.2815
X5.0765Y-2.7754
X5.0827Y-2.3681
X5.1516Y-1.9744
X5.1516Y-3.0768
X5.1909Y-1.9744
X5.1909Y-2.0138
X5.25Y-2.2705
X5.2697Y-2.7224
X5.3091Y-1.4626
X5.3484Y-2.7224
X5.3484Y-3.0768
X5.3484Y-5.2815
X5.3864Y-1.8062
X5.3878Y-1.4626
X5.4272Y-2.7224
X5.439Y-1.9035
X5.4398Y-2.1713
X5.4398Y-2.2205
X5.4665Y-1.4626
X5.4665Y-3.0768
X5.4665Y-5.2815
X5.5059Y-2.7224
X5.5453Y-2.5256
X5.5453Y-2.565
X5.5846Y-2.5256
X5.5846Y-2.565
X5.5846Y-2.7224
X5.5846Y-3.5492
X5.5846Y-3.5886
X5.6043Y-2.0768
X5.624Y-1.6299
X5.624Y-1.6791
X5.624Y-3.5492
X5.624Y-3.5886
X5.6437Y-1.8642
X5.661Y-2.8594
X5.6634Y-1.4626
X5.6634Y-3.0768
X5.6634Y-3.5492
X5.6634Y-3.5886
X5.6713Y-2.3445
X5.6791Y-1.8169
X5.6988Y-1.8681
X5.6988Y-2.372
X5.7028Y-5.2815
X5.7067Y-2.8248
X5.7421Y-1.4626
X5.7717Y-1.4823
X5.7815Y-3.0768
X5.7815Y-4.7697
X5.7815Y-4.8091
X5.8209Y-4.7697
X5.8209Y-4.8091
X5.8209Y-5.2815
X5.8602Y-4.7697
X5.8602Y-4.8091
X5.8996Y-3.0768
X5.939Y-5.2815
X6.0059Y-4.0413
X6.0059Y-4.25
X6.0354Y-3.0748
X6.0747Y-3.0711
X6.0965Y-2.1713
X6.0965Y-2.2106
X6.0965Y-2.25
X6.1116Y-3.1167
X6.1124Y-3.0771
X6.126Y-2.4075
X6.1358Y-1.6945
X6.2146Y-1.4626
X6.2146Y-5.2815
X6.2244Y-2.4469
X6.2736Y-2.1122
X6.2933Y-1.4626
X6.2933Y-4.8091
X6.2933Y-4.8484
X6.3031Y-1.9744
X6.313Y-1.7874
X6.3192Y-1.6751
X6.3327Y-1.7677
X6.372Y-1.4626
X6.372Y-3.7854
X6.372Y-5.2815
X6.3917Y-1.7874
X6.4311Y-1.6554
X6.4508Y-1.4626
X6.4803Y-1.689
X6.4877Y-1.5045
X6.4902Y-3.7854
X6.5295Y-3.4705
X6.5295Y-3.5098
X6.5413Y-4.0453
X6.5591Y-2.0925
X6.5689Y-3.4705
X6.5689Y-3.5098
X6.5689Y-5.2815
X6.6083Y-3.4705
X6.6083Y-3.5098
X6.628Y-4.0846
X6.6319Y-3.9508
X6.6949Y-4.061
X6.7224Y-3.9272
X6.7224Y-4.1319
X6.7264Y-5.2815
X6.7453Y-1.6516
X6.7465Y-1.624
X6.8346Y-1.6004
X6.8346Y-1.6791
X6.8642Y-1.5315
X6.8845Y-1.5213
X6.9035Y-1.502
X6.9134Y-1.6004
X6.9134Y-1.6791
X6.9232Y-5.2815
X7.002Y-4.8091
X7.002Y-4.8484
X7.0177Y-1.7185
X7.0295Y-4.0965
X7.0374Y-1.7185
X7.0807Y-1.4626
X7.0807Y-5.2815
X7.1098Y-1.6673
X7.1112Y-1.6369
X7.1496Y-2.0433
X7.1594Y-1.4626
X7.2776Y-4.4547
X7.2776Y-4.7303
X7.2776Y-4.9665
X7.2776Y-5.2421
X7.3169Y-1.4626
X7.3169Y-3.5492
X7.3169Y-3.6673
X7.3169Y-3.8248
X7.3169Y-5.2815
T2
X5.0728Y-1.689
X5.0728Y-1.7283
X5.0728Y-1.7677
X5.0728Y-1.8071
X5.0728Y-1.8465
X5.1122Y-1.689
X5.1122Y-1.7283
X5.1122Y-1.7677
X5.1122Y-1.8071
X5.1122Y-1.8465
X5.1516Y-1.689
X5.1516Y-1.7283
X5.1516Y-1.8071
X5.1516Y-1.8465
X5.1909Y-1.689
X5.1909Y-1.7283
X5.1909Y-1.7677
X5.1909Y-1.8071
X5.1909Y-1.8465
X5.2303Y-1.689
X5.2303Y-1.7283
X5.2303Y-1.7677
X5.2303Y-1.8071
X5.2303Y-1.8465
T3
X3.5768Y-4.5335
X3.5768Y-4.6024
X3.7343Y-2.7224
X3.7638Y-2.4469
X3.7736Y-2.0138
X3.813Y-1.8169
X3.813Y-2.0138
X3.813Y-4.1004
X3.8327Y-1.4626
X3.8327Y-1.6594
X3.8327Y-1.6988
X3.8327Y-2.4469
X3.8524Y-1.8169
X3.872Y-1.6594
X3.872Y-1.6988
X3.872Y-2.4469
X3.9016Y-3.4803
X3.9114Y-1.6594
X3.9114Y-1.6988
X3.9311Y-3.6772
X3.9311Y-3.8248
X3.9311Y-4.064
X3.9705Y-4.4941
X3.9705Y-4.563
X4.0394Y-3.7559
X4.0492Y-3.3118
X4.0776Y-4.1233
X4.0787Y-2.6043
X4.0787Y-3.5197
X4.0886Y-2.4272
X4.0984Y-3.3819
X4.187Y-3.8543
X4.1905Y-4.0994
X4.1969Y-2.4961
X4.2067Y-4.2677
X4.2165Y-1.5709
X4.2264Y-2.122
X4.2461Y-3.3248
X4.2657Y-3.9232
X4.3248Y-1.561
X4.3248Y-2.7421
X4.3346Y-3.6772
X4.3346Y-4.2185
X4.3642Y-3.9232
X4.3937Y-2.5551
X4.4134Y-3.5197
X4.4528Y-3.7559
X4.502Y-3.3917
X4.5118Y-3.6969
X4.5217Y-1.8563
X4.5217Y-1.8894
X4.5807Y-2.7421
X4.6004Y-1.5709
X4.6004Y-1.6398
X4.6004Y-3.7165
X4.6004Y-1.4921
X4.6398Y-3.8051
X4.6594Y-3.5886
X4.689Y-2.6043
X4.7776Y-1.4823
X4.7776Y-2.1713
X4.9449Y-1.4823
X4.9547Y-1.5413
X4.9547Y-1.5807
X4.9941Y-1.5413
X4.9941Y-1.5807
X5.1319Y-3.6378
X5.1614Y-3.4508
X5.1713Y-3.8051
X5.1949Y-2.4902
X5.2093Y-4.0409
X5.2106Y-3.8051
X5.2106Y-4.002
X5.2232Y-3.0992
X5.2482Y-4.002
X5.2493Y-4.0409
X5.25Y-3.8051
X5.2882Y-4.002
X5.2893Y-4.0409
X5.3287Y-4.002
X5.3293Y-4.0409
X5.372Y-2.6358
X5.4193Y-3.7657
X5.4665Y-3.7657
X5.4902Y-2.5492
X5.4961Y-3.9134
X5.4961Y-3.9528
X5.5157Y-3.7657
X5.5256Y-3.9921
X5.5256Y-4.0315
X5.565Y-3.7657
X5.565Y-4.0118
X5.6043Y-1.4724
X5.6043Y-4.0118
X5.6122Y-3.7657
X5.624Y-4.2382
X5.6437Y-4.0118
X5.6535Y-4.3563
X5.7224Y-4.622
X5.8209Y-4.2087
X5.8898Y-4.5335
X5.9393Y-2.6909
X5.9941Y-3.9075
X6.1122Y-3.9154
X6.1331Y-4.0878
X6.1358Y-4.0315
X6.2047Y-3.3524
X6.2121Y-3.9601
X6.2293Y-3.0609
X6.2293Y-3.1009
X6.2343Y-4.061
X6.2539Y-3.2835
X6.2693Y-3.0609
X6.2693Y-3.1009
X6.3093Y-3.0609
X6.3093Y-3.1009
X6.313Y-3.2835
X6.3393Y-2.5909
X6.3393Y-2.6309
X6.3593Y-2.7909
X6.3593Y-2.8309
X6.372Y-3.2933
X6.3793Y-2.5909
X6.3793Y-2.6309
X6.3993Y-2.7909
X6.3993Y-2.8309
X6.4193Y-2.5909
X6.4193Y-2.6309
X6.4232Y-3.4429
X6.4393Y-2.7909
X6.4393Y-2.8309
X6.4902Y-2.624
X6.4921Y-2.6752
X6.5067Y-3.2975
X6.5098Y-1.4823
X6.5197Y-1.6004
X6.5787Y-4.2087
X6.5886Y-1.6988
X6.5886Y-1.7677
X6.5925Y-2.7441
X6.6393Y-2.8409
X6.687Y-2.624
X6.689Y-2.6752
X6.7264Y-3.3228
X6.7461Y-1.5902
X6.7559Y-1.7087
X6.7559Y-1.7677
X6.7559Y-1.8071
X6.7854Y-1.7382
X6.8445Y-1.4626
X6.8524Y-3.124
X6.8642Y-3.0177
X6.8839Y-1.8957
X6.8917Y-2.3799
X6.8917Y-2.4193
X6.8917Y-2.4587
X6.8917Y-2.498
X6.8917Y-2.5374
X6.9232Y-3.9035
X6.95Y-4.0335
X6.9528Y-4.0906
X7.0315Y-3.9626
X7.0335Y-2.6988
X7.0335Y-2.7303
X7.0413Y-2.0138
X7.0413Y-1.9744
X7.0413Y-2.9193
X7.0571Y-3.3642
X7.061Y-4.061
X7.0709Y-3.0965
X7.0709Y-3.1358
X7.0709Y-3.1752
X7.0807Y-2.0138
X7.0807Y-1.9744
X7.1043Y-3.3642
X7.1102Y-3.0965
X7.1102Y-3.1358
X7.1102Y-3.1752
X7.1299Y-3.0079
X7.1516Y-3.3642
X7.1693Y-3.0079
X7.1988Y-3.3642
X7.2283Y-4.2382
X7.248Y-1.9744
X7.248Y-2.0138
X7.2677Y-4.061
X7.2776Y-4.2087
X7.2874Y-1.9744
X7.2874Y-2.0138
X7.3258Y-1.9744
X7.3258Y-2.0138
T5
X6.2291Y-2.7087
X6.3291Y-2.7087
X6.4291Y-2.7087
T6
X7.1609Y-1.5413
X7.1609Y-1.7382
T7
X6.6654Y-2.7559
X6.7654Y-2.7559
T8
X3.5571Y-3.7067
X3.6555Y-3.7067
X3.7539Y-3.7067
X6.9232Y-2.6799
X6.9232Y-2.7799
X6.9232Y-2.8799
X3.498Y-1.8126
X3.498Y-1.9126
X3.498Y-2.0126
X3.498Y-2.1126
X3.498Y-2.2126
X3.498Y-2.3126
X3.498Y-2.4126
X3.498Y-2.5126
X3.498Y-2.6126
X3.6161Y-1.8126
X3.6161Y-1.9126
X3.6161Y-2.0126
X3.6161Y-2.1126
X3.6161Y-2.2126
X3.6161Y-2.3126
X3.6161Y-2.4126
X3.6161Y-2.5126
X3.6161Y-2.6126
X5.8602Y-2.0531
X5.8602Y-2.1531
X5.8602Y-2.2531
X5.8602Y-2.3531
X5.8602Y-2.4531
X5.9783Y-2.0531
X5.9783Y-2.1531
X5.9783Y-2.2531
X5.9783Y-2.3531
X4.4449Y-4.2126
X4.5157Y-4.1417
X7.1594Y-2.3224
X7.1594Y-2.4224
X7.1594Y-2.5224
X7.1594Y-2.6224
X7.1594Y-2.7224
X7.2594Y-2.3224
X7.2594Y-2.4224
X7.2594Y-2.5224
X7.2594Y-2.6224
X7.2594Y-2.7224
X7.0217Y-3.7067
X7.1201Y-3.7067
X7.2185Y-3.7067
X3.6752Y-4.6319
X3.6752Y-4.7303
X3.7736Y-4.6319
X3.7736Y-4.7303
X3.872Y-4.6319
X3.872Y-4.7303
X4.7119Y-3.7067
X4.8104Y-3.7067
X4.9088Y-3.7067
X5.1732Y-4.2126
X5.2441Y-4.1417
X6.6083Y-1.9547
X6.6083Y-2.5256
X6.7067Y-2.5256
X6.8051Y-1.9547
X6.8051Y-2.5256
X5.8668Y-3.7067
X5.9652Y-3.7067
X6.0636Y-3.7067
T9
X6.8248Y-4.8476
X3.9508Y-4.8492
X6.1161Y-4.8476
X4.6988Y-4.8492
X7.1791Y-4.8476
X6.4705Y-4.8476
X6.8248Y-4.8492
X4.6791Y-4.176
X4.6791Y-4.376
X4.3445Y-4.8492
X5.2303Y-4.8492
X6.4705Y-4.8492
X6.1161Y-4.8492
X5.5846Y-4.8492
X7.1791Y-4.8492
X5.4075Y-4.176
X5.4075Y-4.376
X3.5965Y-4.8492
T10
X5.2303Y-4.9713
X5.2303Y-5.298
X6.4705Y-4.9713
X6.4705Y-5.298
X6.1161Y-4.9713
X6.1161Y-5.298
X5.5846Y-4.9713
X5.5846Y-5.298
X7.1791Y-4.9713
X7.1791Y-5.298
X3.5965Y-4.9713
X3.5965Y-5.298
X6.8248Y-4.3988
X6.8248Y-4.7256
X3.9508Y-4.9713
X3.9508Y-5.298
X6.1161Y-4.3988
X6.1161Y-4.7256
X4.6988Y-4.9713
X4.6988Y-5.298
X7.1791Y-4.3988
X7.1791Y-4.7256
X6.4705Y-4.3988
X6.4705Y-4.7256
X6.8248Y-4.9713
X6.8248Y-5.298
X4.3445Y-4.9713
X4.3445Y-5.298
T11
X3.4665Y-3.4114
X3.8445Y-3.4114
X6.9311Y-3.4114
X7.3091Y-3.4114
X4.6214Y-3.4114
X4.9993Y-3.4114
X5.7762Y-3.4114
X6.1542Y-3.4114
T12
X4.4791Y-4.576
X4.8791Y-4.176
X5.2075Y-4.576
X5.6075Y-4.176
T13
X3.5846Y-4.3366
X3.9626Y-4.3366
T14
X5.2303Y-5.1043
X6.4705Y-5.1043
X6.1161Y-5.1043
X5.5846Y-5.1043
X7.1791Y-5.1043
X3.5965Y-5.1043
X6.8248Y-4.5925
X3.9508Y-5.1043
X6.1161Y-4.5925
X4.6988Y-5.1043
X7.1791Y-4.5925
X6.4705Y-4.5925
X6.8248Y-5.1043
X4.3445Y-5.1043
T15
X3.5374Y-1.5413
X3.5374Y-2.8839
X5.9469Y-1.5413
X5.9469Y-2.8839
T4
G00X7.2534Y-1.502
M15
G01X7.281Y-1.502
M16
G05
G00X7.281Y-1.7776
M15
G01X7.2534Y-1.7776
M16
G05
T10
G00X6.4862Y-2.2559
M15
G01X6.4862Y-2.2047
M16
G05
G00X6.9272Y-2.2559
M15
G01X6.9272Y-2.2047
M16
G05
T0
M30
