G04 #@! TF.GenerationSoftware,KiCad,Pcbnew,(5.1.2)-1*
G04 #@! TF.CreationDate,2019-05-17T09:26:27+02:00*
G04 #@! TF.ProjectId,ESP32-Eurorack-Audio,45535033-322d-4457-9572-6f7261636b2d,D*
G04 #@! TF.SameCoordinates,Original*
G04 #@! TF.FileFunction,Soldermask,Bot*
G04 #@! TF.FilePolarity,Negative*
%FSLAX46Y46*%
G04 Gerber Fmt 4.6, Leading zero omitted, Abs format (unit mm)*
G04 Created by KiCad (PCBNEW (5.1.2)-1) date 2019-05-17 09:26:27*
%MOMM*%
%LPD*%
G04 APERTURE LIST*
%ADD10C,2.000000*%
%ADD11C,5.200000*%
%ADD12C,1.800000*%
%ADD13R,1.800000X1.800000*%
%ADD14C,1.300000*%
%ADD15R,1.300000X1.300000*%
%ADD16C,1.450000*%
%ADD17O,1.900000X1.200000*%
%ADD18R,1.700000X1.700000*%
%ADD19O,1.700000X1.700000*%
%ADD20O,3.000000X2.300000*%
%ADD21C,3.000000*%
%ADD22O,3.000000X3.000000*%
%ADD23O,1.700000X2.500000*%
%ADD24R,2.000000X3.200000*%
%ADD25R,2.000000X2.000000*%
%ADD26C,2.600000*%
%ADD27R,1.000000X3.150000*%
%ADD28R,2.000000X3.800000*%
G04 APERTURE END LIST*
D10*
X91350000Y-66360000D03*
X91350000Y-63820000D03*
X91350000Y-61280000D03*
X91350000Y-58740000D03*
X91350000Y-56200000D03*
X91350000Y-53660000D03*
X91350000Y-51120000D03*
X91350000Y-48580000D03*
X91350000Y-46040000D03*
X88350000Y-66360000D03*
X88350000Y-63820000D03*
X88350000Y-61280000D03*
X88350000Y-58740000D03*
X88350000Y-56200000D03*
X88350000Y-53660000D03*
X88350000Y-51120000D03*
X88350000Y-48580000D03*
X88350000Y-46040000D03*
D11*
X151050000Y-39150000D03*
X151050000Y-73250000D03*
X89850000Y-73250000D03*
X89850000Y-39150000D03*
D12*
X171840000Y-70000000D03*
D13*
X169300000Y-70000000D03*
D14*
X160760000Y-68800000D03*
D15*
X158220000Y-68800000D03*
D14*
X163300000Y-68800000D03*
D16*
X181887500Y-44150000D03*
X181887500Y-39150000D03*
D17*
X184587500Y-45150000D03*
X184587500Y-38150000D03*
D18*
X181850000Y-69150000D03*
D19*
X184390000Y-69150000D03*
X181850000Y-66610000D03*
X184390000Y-66610000D03*
X181850000Y-64070000D03*
X184390000Y-64070000D03*
X181850000Y-61530000D03*
X184390000Y-61530000D03*
X181850000Y-58990000D03*
X184390000Y-58990000D03*
D20*
X100350000Y-134570000D03*
X100350000Y-126270000D03*
X100350000Y-123170000D03*
D21*
X100350000Y-129650000D03*
X91350000Y-129650000D03*
D20*
X91350000Y-123170000D03*
X91350000Y-126270000D03*
X91350000Y-134570000D03*
D21*
X119350000Y-129650000D03*
D20*
X119350000Y-123170000D03*
X119350000Y-126270000D03*
X119350000Y-134570000D03*
X110350000Y-134570000D03*
X110350000Y-126270000D03*
X110350000Y-123170000D03*
D21*
X110350000Y-129650000D03*
D20*
X132850000Y-134570000D03*
X132850000Y-126270000D03*
X132850000Y-123170000D03*
D21*
X132850000Y-129650000D03*
D20*
X155350000Y-111730000D03*
X155350000Y-120030000D03*
X155350000Y-123130000D03*
D21*
X155350000Y-116650000D03*
X164350000Y-116650000D03*
D20*
X164350000Y-123130000D03*
X164350000Y-120030000D03*
X164350000Y-111730000D03*
D21*
X155350000Y-129650000D03*
D20*
X155350000Y-123170000D03*
X155350000Y-126270000D03*
X155350000Y-134570000D03*
X164350000Y-134570000D03*
X164350000Y-126270000D03*
X164350000Y-123170000D03*
D21*
X164350000Y-129650000D03*
D20*
X141850000Y-134570000D03*
X141850000Y-126270000D03*
X141850000Y-123170000D03*
D21*
X141850000Y-129650000D03*
X173350000Y-116650000D03*
D20*
X173350000Y-123130000D03*
X173350000Y-120030000D03*
X173350000Y-111730000D03*
X182350000Y-111730000D03*
X182350000Y-120030000D03*
X182350000Y-123130000D03*
D21*
X182350000Y-116650000D03*
D20*
X173350000Y-134570000D03*
X173350000Y-126270000D03*
X173350000Y-123170000D03*
D21*
X173350000Y-129650000D03*
D20*
X182350000Y-134570000D03*
X182350000Y-126270000D03*
X182350000Y-123170000D03*
D21*
X182350000Y-129650000D03*
D10*
X95850000Y-117650000D03*
X93350000Y-117650000D03*
X98350000Y-117650000D03*
D22*
X100650000Y-110150000D03*
X91050000Y-110150000D03*
D10*
X93350000Y-120150000D03*
X95850000Y-120150000D03*
X98350000Y-120150000D03*
D23*
X88050000Y-86650000D03*
X97650000Y-86650000D03*
X95350000Y-94150000D03*
X90350000Y-94150000D03*
X92850000Y-94150000D03*
X122183333Y-94150000D03*
X119683333Y-94150000D03*
X124683333Y-94150000D03*
X126983333Y-86650000D03*
X117383333Y-86650000D03*
X146716666Y-86650000D03*
X156316666Y-86650000D03*
X154016666Y-94150000D03*
X149016666Y-94150000D03*
X151516666Y-94150000D03*
X180850000Y-94150000D03*
X178350000Y-94150000D03*
X183350000Y-94150000D03*
X185650000Y-86650000D03*
X176050000Y-86650000D03*
D10*
X172850000Y-49650000D03*
X167850000Y-49650000D03*
D24*
X175950000Y-56650000D03*
X164750000Y-56650000D03*
D10*
X172850000Y-64150000D03*
X170350000Y-64150000D03*
D25*
X167850000Y-64150000D03*
D14*
X113770000Y-116230000D03*
D10*
X114700000Y-105200000D03*
D26*
X118850000Y-106070000D03*
X118850000Y-111150000D03*
D10*
X112900000Y-107000000D03*
D14*
X123930000Y-106070000D03*
X132270000Y-116230000D03*
D10*
X133200000Y-105200000D03*
D26*
X137350000Y-106070000D03*
X137350000Y-111150000D03*
D10*
X131400000Y-107000000D03*
D14*
X142430000Y-106070000D03*
D27*
X132270000Y-81125000D03*
X132270000Y-86175000D03*
X134810000Y-81125000D03*
X134810000Y-86175000D03*
X137350000Y-81125000D03*
X137350000Y-86175000D03*
X139890000Y-81125000D03*
X139890000Y-86175000D03*
X142430000Y-81125000D03*
X142430000Y-86175000D03*
D28*
X97750000Y-73800000D03*
M02*
