G04 #@! TF.GenerationSoftware,KiCad,Pcbnew,(5.1.0)-1*
G04 #@! TF.CreationDate,2019-04-27T10:23:22+02:00*
G04 #@! TF.ProjectId,ESP32-Eurorack-Audio,45535033-322d-4457-9572-6f7261636b2d,C*
G04 #@! TF.SameCoordinates,Original*
G04 #@! TF.FileFunction,Soldermask,Bot*
G04 #@! TF.FilePolarity,Negative*
%FSLAX46Y46*%
G04 Gerber Fmt 4.6, Leading zero omitted, Abs format (unit mm)*
G04 Created by KiCad (PCBNEW (5.1.0)-1) date 2019-04-27 10:23:22*
%MOMM*%
%LPD*%
G04 APERTURE LIST*
%ADD10C,1.800000*%
%ADD11R,1.800000X1.800000*%
%ADD12R,3.800000X2.000000*%
%ADD13C,1.300000*%
%ADD14R,1.300000X1.300000*%
%ADD15R,2.000000X3.800000*%
%ADD16C,2.000000*%
%ADD17C,4.000000*%
%ADD18C,0.100000*%
%ADD19C,0.875000*%
%ADD20C,1.450000*%
%ADD21O,1.900000X1.200000*%
%ADD22R,1.700000X1.700000*%
%ADD23O,1.700000X1.700000*%
%ADD24O,3.000000X2.300000*%
%ADD25C,3.000000*%
%ADD26O,3.000000X3.000000*%
%ADD27O,1.700000X2.500000*%
%ADD28R,1.050000X0.650000*%
%ADD29R,2.000000X3.200000*%
%ADD30R,2.000000X2.000000*%
%ADD31C,2.600000*%
%ADD32R,1.000000X3.150000*%
%ADD33C,0.300000*%
%ADD34R,0.800000X0.900000*%
G04 APERTURE END LIST*
D10*
X171840000Y-70000000D03*
D11*
X169300000Y-70000000D03*
D12*
X148500000Y-66550000D03*
D13*
X160760000Y-68800000D03*
D14*
X158220000Y-68800000D03*
D13*
X163300000Y-68800000D03*
D15*
X143850000Y-116900000D03*
D16*
X148850000Y-62310000D03*
X148850000Y-59770000D03*
X148850000Y-57230000D03*
X148850000Y-54690000D03*
X148850000Y-52150000D03*
X91850000Y-66360000D03*
X91850000Y-63820000D03*
X91850000Y-61280000D03*
X91850000Y-58740000D03*
X91850000Y-56200000D03*
X91850000Y-53660000D03*
X91850000Y-51120000D03*
X91850000Y-48580000D03*
X91850000Y-46040000D03*
X151850000Y-59770000D03*
X151850000Y-57230000D03*
X151850000Y-54690000D03*
X151850000Y-52150000D03*
X88850000Y-66360000D03*
X88850000Y-63820000D03*
X88850000Y-61280000D03*
X88850000Y-58740000D03*
X88850000Y-56200000D03*
X88850000Y-53660000D03*
X88850000Y-51120000D03*
X88850000Y-48580000D03*
X88850000Y-46040000D03*
D17*
X151050000Y-39150000D03*
X151050000Y-73250000D03*
X89850000Y-73250000D03*
X89850000Y-39150000D03*
D18*
G36*
X182877691Y-56176053D02*
G01*
X182898926Y-56179203D01*
X182919750Y-56184419D01*
X182939962Y-56191651D01*
X182959368Y-56200830D01*
X182977781Y-56211866D01*
X182995024Y-56224654D01*
X183010930Y-56239070D01*
X183025346Y-56254976D01*
X183038134Y-56272219D01*
X183049170Y-56290632D01*
X183058349Y-56310038D01*
X183065581Y-56330250D01*
X183070797Y-56351074D01*
X183073947Y-56372309D01*
X183075000Y-56393750D01*
X183075000Y-56906250D01*
X183073947Y-56927691D01*
X183070797Y-56948926D01*
X183065581Y-56969750D01*
X183058349Y-56989962D01*
X183049170Y-57009368D01*
X183038134Y-57027781D01*
X183025346Y-57045024D01*
X183010930Y-57060930D01*
X182995024Y-57075346D01*
X182977781Y-57088134D01*
X182959368Y-57099170D01*
X182939962Y-57108349D01*
X182919750Y-57115581D01*
X182898926Y-57120797D01*
X182877691Y-57123947D01*
X182856250Y-57125000D01*
X182418750Y-57125000D01*
X182397309Y-57123947D01*
X182376074Y-57120797D01*
X182355250Y-57115581D01*
X182335038Y-57108349D01*
X182315632Y-57099170D01*
X182297219Y-57088134D01*
X182279976Y-57075346D01*
X182264070Y-57060930D01*
X182249654Y-57045024D01*
X182236866Y-57027781D01*
X182225830Y-57009368D01*
X182216651Y-56989962D01*
X182209419Y-56969750D01*
X182204203Y-56948926D01*
X182201053Y-56927691D01*
X182200000Y-56906250D01*
X182200000Y-56393750D01*
X182201053Y-56372309D01*
X182204203Y-56351074D01*
X182209419Y-56330250D01*
X182216651Y-56310038D01*
X182225830Y-56290632D01*
X182236866Y-56272219D01*
X182249654Y-56254976D01*
X182264070Y-56239070D01*
X182279976Y-56224654D01*
X182297219Y-56211866D01*
X182315632Y-56200830D01*
X182335038Y-56191651D01*
X182355250Y-56184419D01*
X182376074Y-56179203D01*
X182397309Y-56176053D01*
X182418750Y-56175000D01*
X182856250Y-56175000D01*
X182877691Y-56176053D01*
X182877691Y-56176053D01*
G37*
D19*
X182637500Y-56650000D03*
D18*
G36*
X181302691Y-56176053D02*
G01*
X181323926Y-56179203D01*
X181344750Y-56184419D01*
X181364962Y-56191651D01*
X181384368Y-56200830D01*
X181402781Y-56211866D01*
X181420024Y-56224654D01*
X181435930Y-56239070D01*
X181450346Y-56254976D01*
X181463134Y-56272219D01*
X181474170Y-56290632D01*
X181483349Y-56310038D01*
X181490581Y-56330250D01*
X181495797Y-56351074D01*
X181498947Y-56372309D01*
X181500000Y-56393750D01*
X181500000Y-56906250D01*
X181498947Y-56927691D01*
X181495797Y-56948926D01*
X181490581Y-56969750D01*
X181483349Y-56989962D01*
X181474170Y-57009368D01*
X181463134Y-57027781D01*
X181450346Y-57045024D01*
X181435930Y-57060930D01*
X181420024Y-57075346D01*
X181402781Y-57088134D01*
X181384368Y-57099170D01*
X181364962Y-57108349D01*
X181344750Y-57115581D01*
X181323926Y-57120797D01*
X181302691Y-57123947D01*
X181281250Y-57125000D01*
X180843750Y-57125000D01*
X180822309Y-57123947D01*
X180801074Y-57120797D01*
X180780250Y-57115581D01*
X180760038Y-57108349D01*
X180740632Y-57099170D01*
X180722219Y-57088134D01*
X180704976Y-57075346D01*
X180689070Y-57060930D01*
X180674654Y-57045024D01*
X180661866Y-57027781D01*
X180650830Y-57009368D01*
X180641651Y-56989962D01*
X180634419Y-56969750D01*
X180629203Y-56948926D01*
X180626053Y-56927691D01*
X180625000Y-56906250D01*
X180625000Y-56393750D01*
X180626053Y-56372309D01*
X180629203Y-56351074D01*
X180634419Y-56330250D01*
X180641651Y-56310038D01*
X180650830Y-56290632D01*
X180661866Y-56272219D01*
X180674654Y-56254976D01*
X180689070Y-56239070D01*
X180704976Y-56224654D01*
X180722219Y-56211866D01*
X180740632Y-56200830D01*
X180760038Y-56191651D01*
X180780250Y-56184419D01*
X180801074Y-56179203D01*
X180822309Y-56176053D01*
X180843750Y-56175000D01*
X181281250Y-56175000D01*
X181302691Y-56176053D01*
X181302691Y-56176053D01*
G37*
D19*
X181062500Y-56650000D03*
D20*
X181887500Y-44150000D03*
X181887500Y-39150000D03*
D21*
X184587500Y-45150000D03*
X184587500Y-38150000D03*
D22*
X181850000Y-69150000D03*
D23*
X184390000Y-69150000D03*
X181850000Y-66610000D03*
X184390000Y-66610000D03*
X181850000Y-64070000D03*
X184390000Y-64070000D03*
X181850000Y-61530000D03*
X184390000Y-61530000D03*
X181850000Y-58990000D03*
X184390000Y-58990000D03*
D24*
X100350000Y-134570000D03*
X100350000Y-126270000D03*
X100350000Y-123170000D03*
D25*
X100350000Y-129650000D03*
X91350000Y-129650000D03*
D24*
X91350000Y-123170000D03*
X91350000Y-126270000D03*
X91350000Y-134570000D03*
D25*
X119350000Y-129650000D03*
D24*
X119350000Y-123170000D03*
X119350000Y-126270000D03*
X119350000Y-134570000D03*
X110350000Y-134570000D03*
X110350000Y-126270000D03*
X110350000Y-123170000D03*
D25*
X110350000Y-129650000D03*
D24*
X132850000Y-134570000D03*
X132850000Y-126270000D03*
X132850000Y-123170000D03*
D25*
X132850000Y-129650000D03*
D24*
X155350000Y-111730000D03*
X155350000Y-120030000D03*
X155350000Y-123130000D03*
D25*
X155350000Y-116650000D03*
X164350000Y-116650000D03*
D24*
X164350000Y-123130000D03*
X164350000Y-120030000D03*
X164350000Y-111730000D03*
D25*
X155350000Y-129650000D03*
D24*
X155350000Y-123170000D03*
X155350000Y-126270000D03*
X155350000Y-134570000D03*
X164350000Y-134570000D03*
X164350000Y-126270000D03*
X164350000Y-123170000D03*
D25*
X164350000Y-129650000D03*
D24*
X141850000Y-134570000D03*
X141850000Y-126270000D03*
X141850000Y-123170000D03*
D25*
X141850000Y-129650000D03*
X173350000Y-116650000D03*
D24*
X173350000Y-123130000D03*
X173350000Y-120030000D03*
X173350000Y-111730000D03*
X182350000Y-111730000D03*
X182350000Y-120030000D03*
X182350000Y-123130000D03*
D25*
X182350000Y-116650000D03*
D24*
X173350000Y-134570000D03*
X173350000Y-126270000D03*
X173350000Y-123170000D03*
D25*
X173350000Y-129650000D03*
D24*
X182350000Y-134570000D03*
X182350000Y-126270000D03*
X182350000Y-123170000D03*
D25*
X182350000Y-129650000D03*
D22*
X175850000Y-73150000D03*
D23*
X175850000Y-70610000D03*
X175850000Y-68070000D03*
D16*
X95850000Y-117650000D03*
X93350000Y-117650000D03*
X98350000Y-117650000D03*
D26*
X100650000Y-110150000D03*
X91050000Y-110150000D03*
D16*
X93350000Y-120150000D03*
X95850000Y-120150000D03*
X98350000Y-120150000D03*
D27*
X88050000Y-86650000D03*
X97650000Y-86650000D03*
X95350000Y-94150000D03*
X90350000Y-94150000D03*
X92850000Y-94150000D03*
X122183333Y-94150000D03*
X119683333Y-94150000D03*
X124683333Y-94150000D03*
X126983333Y-86650000D03*
X117383333Y-86650000D03*
X146716666Y-86650000D03*
X156316666Y-86650000D03*
X154016666Y-94150000D03*
X149016666Y-94150000D03*
X151516666Y-94150000D03*
X180850000Y-94150000D03*
X178350000Y-94150000D03*
X183350000Y-94150000D03*
X185650000Y-86650000D03*
X176050000Y-86650000D03*
D28*
X181275000Y-48975000D03*
X185425000Y-48975000D03*
X181275000Y-46825000D03*
X185425000Y-46825000D03*
X185425000Y-52825000D03*
X181275000Y-52825000D03*
X185425000Y-54975000D03*
X181275000Y-54975000D03*
D16*
X172850000Y-49650000D03*
X167850000Y-49650000D03*
D29*
X175950000Y-56650000D03*
X164750000Y-56650000D03*
D16*
X172850000Y-64150000D03*
X170350000Y-64150000D03*
D30*
X167850000Y-64150000D03*
D13*
X113770000Y-116230000D03*
D16*
X114700000Y-105200000D03*
D31*
X118850000Y-106070000D03*
X118850000Y-111150000D03*
D16*
X112900000Y-107000000D03*
D13*
X123930000Y-106070000D03*
X132270000Y-116230000D03*
D16*
X133200000Y-105200000D03*
D31*
X137350000Y-106070000D03*
X137350000Y-111150000D03*
D16*
X131400000Y-107000000D03*
D13*
X142430000Y-106070000D03*
D32*
X132270000Y-81125000D03*
X132270000Y-86175000D03*
X134810000Y-81125000D03*
X134810000Y-86175000D03*
X137350000Y-81125000D03*
X137350000Y-86175000D03*
X139890000Y-81125000D03*
X139890000Y-86175000D03*
X142430000Y-81125000D03*
X142430000Y-86175000D03*
D33*
X162350000Y-51838000D03*
D18*
G36*
X161600000Y-52338000D02*
G01*
X161600000Y-51188000D01*
X162350000Y-51688000D01*
X163100000Y-51188000D01*
X163100000Y-52338000D01*
X161600000Y-52338000D01*
X161600000Y-52338000D01*
G37*
D33*
X162350000Y-50388000D03*
D18*
G36*
X162350000Y-51388000D02*
G01*
X161600000Y-50888000D01*
X161600000Y-49888000D01*
X163100000Y-49888000D01*
X163100000Y-50888000D01*
X162350000Y-51388000D01*
X162350000Y-51388000D01*
G37*
D33*
X158600000Y-51375000D03*
D18*
G36*
X157850000Y-51875000D02*
G01*
X157850000Y-50725000D01*
X158600000Y-51225000D01*
X159350000Y-50725000D01*
X159350000Y-51875000D01*
X157850000Y-51875000D01*
X157850000Y-51875000D01*
G37*
D33*
X158600000Y-49925000D03*
D18*
G36*
X158600000Y-50925000D02*
G01*
X157850000Y-50425000D01*
X157850000Y-49425000D01*
X159350000Y-49425000D01*
X159350000Y-50425000D01*
X158600000Y-50925000D01*
X158600000Y-50925000D01*
G37*
D34*
X161400000Y-46150000D03*
X163300000Y-46150000D03*
X162350000Y-48150000D03*
X158600000Y-48150000D03*
X159550000Y-46150000D03*
X157650000Y-46150000D03*
D18*
G36*
X164302691Y-48426053D02*
G01*
X164323926Y-48429203D01*
X164344750Y-48434419D01*
X164364962Y-48441651D01*
X164384368Y-48450830D01*
X164402781Y-48461866D01*
X164420024Y-48474654D01*
X164435930Y-48489070D01*
X164450346Y-48504976D01*
X164463134Y-48522219D01*
X164474170Y-48540632D01*
X164483349Y-48560038D01*
X164490581Y-48580250D01*
X164495797Y-48601074D01*
X164498947Y-48622309D01*
X164500000Y-48643750D01*
X164500000Y-49156250D01*
X164498947Y-49177691D01*
X164495797Y-49198926D01*
X164490581Y-49219750D01*
X164483349Y-49239962D01*
X164474170Y-49259368D01*
X164463134Y-49277781D01*
X164450346Y-49295024D01*
X164435930Y-49310930D01*
X164420024Y-49325346D01*
X164402781Y-49338134D01*
X164384368Y-49349170D01*
X164364962Y-49358349D01*
X164344750Y-49365581D01*
X164323926Y-49370797D01*
X164302691Y-49373947D01*
X164281250Y-49375000D01*
X163843750Y-49375000D01*
X163822309Y-49373947D01*
X163801074Y-49370797D01*
X163780250Y-49365581D01*
X163760038Y-49358349D01*
X163740632Y-49349170D01*
X163722219Y-49338134D01*
X163704976Y-49325346D01*
X163689070Y-49310930D01*
X163674654Y-49295024D01*
X163661866Y-49277781D01*
X163650830Y-49259368D01*
X163641651Y-49239962D01*
X163634419Y-49219750D01*
X163629203Y-49198926D01*
X163626053Y-49177691D01*
X163625000Y-49156250D01*
X163625000Y-48643750D01*
X163626053Y-48622309D01*
X163629203Y-48601074D01*
X163634419Y-48580250D01*
X163641651Y-48560038D01*
X163650830Y-48540632D01*
X163661866Y-48522219D01*
X163674654Y-48504976D01*
X163689070Y-48489070D01*
X163704976Y-48474654D01*
X163722219Y-48461866D01*
X163740632Y-48450830D01*
X163760038Y-48441651D01*
X163780250Y-48434419D01*
X163801074Y-48429203D01*
X163822309Y-48426053D01*
X163843750Y-48425000D01*
X164281250Y-48425000D01*
X164302691Y-48426053D01*
X164302691Y-48426053D01*
G37*
D19*
X164062500Y-48900000D03*
D18*
G36*
X165877691Y-48426053D02*
G01*
X165898926Y-48429203D01*
X165919750Y-48434419D01*
X165939962Y-48441651D01*
X165959368Y-48450830D01*
X165977781Y-48461866D01*
X165995024Y-48474654D01*
X166010930Y-48489070D01*
X166025346Y-48504976D01*
X166038134Y-48522219D01*
X166049170Y-48540632D01*
X166058349Y-48560038D01*
X166065581Y-48580250D01*
X166070797Y-48601074D01*
X166073947Y-48622309D01*
X166075000Y-48643750D01*
X166075000Y-49156250D01*
X166073947Y-49177691D01*
X166070797Y-49198926D01*
X166065581Y-49219750D01*
X166058349Y-49239962D01*
X166049170Y-49259368D01*
X166038134Y-49277781D01*
X166025346Y-49295024D01*
X166010930Y-49310930D01*
X165995024Y-49325346D01*
X165977781Y-49338134D01*
X165959368Y-49349170D01*
X165939962Y-49358349D01*
X165919750Y-49365581D01*
X165898926Y-49370797D01*
X165877691Y-49373947D01*
X165856250Y-49375000D01*
X165418750Y-49375000D01*
X165397309Y-49373947D01*
X165376074Y-49370797D01*
X165355250Y-49365581D01*
X165335038Y-49358349D01*
X165315632Y-49349170D01*
X165297219Y-49338134D01*
X165279976Y-49325346D01*
X165264070Y-49310930D01*
X165249654Y-49295024D01*
X165236866Y-49277781D01*
X165225830Y-49259368D01*
X165216651Y-49239962D01*
X165209419Y-49219750D01*
X165204203Y-49198926D01*
X165201053Y-49177691D01*
X165200000Y-49156250D01*
X165200000Y-48643750D01*
X165201053Y-48622309D01*
X165204203Y-48601074D01*
X165209419Y-48580250D01*
X165216651Y-48560038D01*
X165225830Y-48540632D01*
X165236866Y-48522219D01*
X165249654Y-48504976D01*
X165264070Y-48489070D01*
X165279976Y-48474654D01*
X165297219Y-48461866D01*
X165315632Y-48450830D01*
X165335038Y-48441651D01*
X165355250Y-48434419D01*
X165376074Y-48429203D01*
X165397309Y-48426053D01*
X165418750Y-48425000D01*
X165856250Y-48425000D01*
X165877691Y-48426053D01*
X165877691Y-48426053D01*
G37*
D19*
X165637500Y-48900000D03*
D18*
G36*
X164302691Y-52676053D02*
G01*
X164323926Y-52679203D01*
X164344750Y-52684419D01*
X164364962Y-52691651D01*
X164384368Y-52700830D01*
X164402781Y-52711866D01*
X164420024Y-52724654D01*
X164435930Y-52739070D01*
X164450346Y-52754976D01*
X164463134Y-52772219D01*
X164474170Y-52790632D01*
X164483349Y-52810038D01*
X164490581Y-52830250D01*
X164495797Y-52851074D01*
X164498947Y-52872309D01*
X164500000Y-52893750D01*
X164500000Y-53406250D01*
X164498947Y-53427691D01*
X164495797Y-53448926D01*
X164490581Y-53469750D01*
X164483349Y-53489962D01*
X164474170Y-53509368D01*
X164463134Y-53527781D01*
X164450346Y-53545024D01*
X164435930Y-53560930D01*
X164420024Y-53575346D01*
X164402781Y-53588134D01*
X164384368Y-53599170D01*
X164364962Y-53608349D01*
X164344750Y-53615581D01*
X164323926Y-53620797D01*
X164302691Y-53623947D01*
X164281250Y-53625000D01*
X163843750Y-53625000D01*
X163822309Y-53623947D01*
X163801074Y-53620797D01*
X163780250Y-53615581D01*
X163760038Y-53608349D01*
X163740632Y-53599170D01*
X163722219Y-53588134D01*
X163704976Y-53575346D01*
X163689070Y-53560930D01*
X163674654Y-53545024D01*
X163661866Y-53527781D01*
X163650830Y-53509368D01*
X163641651Y-53489962D01*
X163634419Y-53469750D01*
X163629203Y-53448926D01*
X163626053Y-53427691D01*
X163625000Y-53406250D01*
X163625000Y-52893750D01*
X163626053Y-52872309D01*
X163629203Y-52851074D01*
X163634419Y-52830250D01*
X163641651Y-52810038D01*
X163650830Y-52790632D01*
X163661866Y-52772219D01*
X163674654Y-52754976D01*
X163689070Y-52739070D01*
X163704976Y-52724654D01*
X163722219Y-52711866D01*
X163740632Y-52700830D01*
X163760038Y-52691651D01*
X163780250Y-52684419D01*
X163801074Y-52679203D01*
X163822309Y-52676053D01*
X163843750Y-52675000D01*
X164281250Y-52675000D01*
X164302691Y-52676053D01*
X164302691Y-52676053D01*
G37*
D19*
X164062500Y-53150000D03*
D18*
G36*
X165877691Y-52676053D02*
G01*
X165898926Y-52679203D01*
X165919750Y-52684419D01*
X165939962Y-52691651D01*
X165959368Y-52700830D01*
X165977781Y-52711866D01*
X165995024Y-52724654D01*
X166010930Y-52739070D01*
X166025346Y-52754976D01*
X166038134Y-52772219D01*
X166049170Y-52790632D01*
X166058349Y-52810038D01*
X166065581Y-52830250D01*
X166070797Y-52851074D01*
X166073947Y-52872309D01*
X166075000Y-52893750D01*
X166075000Y-53406250D01*
X166073947Y-53427691D01*
X166070797Y-53448926D01*
X166065581Y-53469750D01*
X166058349Y-53489962D01*
X166049170Y-53509368D01*
X166038134Y-53527781D01*
X166025346Y-53545024D01*
X166010930Y-53560930D01*
X165995024Y-53575346D01*
X165977781Y-53588134D01*
X165959368Y-53599170D01*
X165939962Y-53608349D01*
X165919750Y-53615581D01*
X165898926Y-53620797D01*
X165877691Y-53623947D01*
X165856250Y-53625000D01*
X165418750Y-53625000D01*
X165397309Y-53623947D01*
X165376074Y-53620797D01*
X165355250Y-53615581D01*
X165335038Y-53608349D01*
X165315632Y-53599170D01*
X165297219Y-53588134D01*
X165279976Y-53575346D01*
X165264070Y-53560930D01*
X165249654Y-53545024D01*
X165236866Y-53527781D01*
X165225830Y-53509368D01*
X165216651Y-53489962D01*
X165209419Y-53469750D01*
X165204203Y-53448926D01*
X165201053Y-53427691D01*
X165200000Y-53406250D01*
X165200000Y-52893750D01*
X165201053Y-52872309D01*
X165204203Y-52851074D01*
X165209419Y-52830250D01*
X165216651Y-52810038D01*
X165225830Y-52790632D01*
X165236866Y-52772219D01*
X165249654Y-52754976D01*
X165264070Y-52739070D01*
X165279976Y-52724654D01*
X165297219Y-52711866D01*
X165315632Y-52700830D01*
X165335038Y-52691651D01*
X165355250Y-52684419D01*
X165376074Y-52679203D01*
X165397309Y-52676053D01*
X165418750Y-52675000D01*
X165856250Y-52675000D01*
X165877691Y-52676053D01*
X165877691Y-52676053D01*
G37*
D19*
X165637500Y-53150000D03*
D18*
G36*
X154877691Y-45713553D02*
G01*
X154898926Y-45716703D01*
X154919750Y-45721919D01*
X154939962Y-45729151D01*
X154959368Y-45738330D01*
X154977781Y-45749366D01*
X154995024Y-45762154D01*
X155010930Y-45776570D01*
X155025346Y-45792476D01*
X155038134Y-45809719D01*
X155049170Y-45828132D01*
X155058349Y-45847538D01*
X155065581Y-45867750D01*
X155070797Y-45888574D01*
X155073947Y-45909809D01*
X155075000Y-45931250D01*
X155075000Y-46368750D01*
X155073947Y-46390191D01*
X155070797Y-46411426D01*
X155065581Y-46432250D01*
X155058349Y-46452462D01*
X155049170Y-46471868D01*
X155038134Y-46490281D01*
X155025346Y-46507524D01*
X155010930Y-46523430D01*
X154995024Y-46537846D01*
X154977781Y-46550634D01*
X154959368Y-46561670D01*
X154939962Y-46570849D01*
X154919750Y-46578081D01*
X154898926Y-46583297D01*
X154877691Y-46586447D01*
X154856250Y-46587500D01*
X154343750Y-46587500D01*
X154322309Y-46586447D01*
X154301074Y-46583297D01*
X154280250Y-46578081D01*
X154260038Y-46570849D01*
X154240632Y-46561670D01*
X154222219Y-46550634D01*
X154204976Y-46537846D01*
X154189070Y-46523430D01*
X154174654Y-46507524D01*
X154161866Y-46490281D01*
X154150830Y-46471868D01*
X154141651Y-46452462D01*
X154134419Y-46432250D01*
X154129203Y-46411426D01*
X154126053Y-46390191D01*
X154125000Y-46368750D01*
X154125000Y-45931250D01*
X154126053Y-45909809D01*
X154129203Y-45888574D01*
X154134419Y-45867750D01*
X154141651Y-45847538D01*
X154150830Y-45828132D01*
X154161866Y-45809719D01*
X154174654Y-45792476D01*
X154189070Y-45776570D01*
X154204976Y-45762154D01*
X154222219Y-45749366D01*
X154240632Y-45738330D01*
X154260038Y-45729151D01*
X154280250Y-45721919D01*
X154301074Y-45716703D01*
X154322309Y-45713553D01*
X154343750Y-45712500D01*
X154856250Y-45712500D01*
X154877691Y-45713553D01*
X154877691Y-45713553D01*
G37*
D19*
X154600000Y-46150000D03*
D18*
G36*
X154877691Y-47288553D02*
G01*
X154898926Y-47291703D01*
X154919750Y-47296919D01*
X154939962Y-47304151D01*
X154959368Y-47313330D01*
X154977781Y-47324366D01*
X154995024Y-47337154D01*
X155010930Y-47351570D01*
X155025346Y-47367476D01*
X155038134Y-47384719D01*
X155049170Y-47403132D01*
X155058349Y-47422538D01*
X155065581Y-47442750D01*
X155070797Y-47463574D01*
X155073947Y-47484809D01*
X155075000Y-47506250D01*
X155075000Y-47943750D01*
X155073947Y-47965191D01*
X155070797Y-47986426D01*
X155065581Y-48007250D01*
X155058349Y-48027462D01*
X155049170Y-48046868D01*
X155038134Y-48065281D01*
X155025346Y-48082524D01*
X155010930Y-48098430D01*
X154995024Y-48112846D01*
X154977781Y-48125634D01*
X154959368Y-48136670D01*
X154939962Y-48145849D01*
X154919750Y-48153081D01*
X154898926Y-48158297D01*
X154877691Y-48161447D01*
X154856250Y-48162500D01*
X154343750Y-48162500D01*
X154322309Y-48161447D01*
X154301074Y-48158297D01*
X154280250Y-48153081D01*
X154260038Y-48145849D01*
X154240632Y-48136670D01*
X154222219Y-48125634D01*
X154204976Y-48112846D01*
X154189070Y-48098430D01*
X154174654Y-48082524D01*
X154161866Y-48065281D01*
X154150830Y-48046868D01*
X154141651Y-48027462D01*
X154134419Y-48007250D01*
X154129203Y-47986426D01*
X154126053Y-47965191D01*
X154125000Y-47943750D01*
X154125000Y-47506250D01*
X154126053Y-47484809D01*
X154129203Y-47463574D01*
X154134419Y-47442750D01*
X154141651Y-47422538D01*
X154150830Y-47403132D01*
X154161866Y-47384719D01*
X154174654Y-47367476D01*
X154189070Y-47351570D01*
X154204976Y-47337154D01*
X154222219Y-47324366D01*
X154240632Y-47313330D01*
X154260038Y-47304151D01*
X154280250Y-47296919D01*
X154301074Y-47291703D01*
X154322309Y-47288553D01*
X154343750Y-47287500D01*
X154856250Y-47287500D01*
X154877691Y-47288553D01*
X154877691Y-47288553D01*
G37*
D19*
X154600000Y-47725000D03*
D15*
X95850000Y-71900000D03*
D12*
X131850000Y-38150000D03*
D15*
X153100000Y-64900000D03*
X134850000Y-51650000D03*
D12*
X139600000Y-39400000D03*
X157350000Y-39400000D03*
X151350000Y-45650000D03*
X145850000Y-39400000D03*
M02*
