G04 #@! TF.GenerationSoftware,KiCad,Pcbnew,(5.1.0)-1*
G04 #@! TF.CreationDate,2019-04-06T15:11:00+02:00*
G04 #@! TF.ProjectId,frontplate,66726f6e-7470-46c6-9174-652e6b696361,C*
G04 #@! TF.SameCoordinates,Original*
G04 #@! TF.FileFunction,Legend,Bot*
G04 #@! TF.FilePolarity,Positive*
%FSLAX46Y46*%
G04 Gerber Fmt 4.6, Leading zero omitted, Abs format (unit mm)*
G04 Created by KiCad (PCBNEW (5.1.0)-1) date 2019-04-06 15:11:00*
%MOMM*%
%LPD*%
G04 APERTURE LIST*
%ADD10C,0.150000*%
G04 APERTURE END LIST*
D10*
X149029047Y-147662857D02*
X149029047Y-148520000D01*
X149076666Y-148691428D01*
X149171904Y-148805714D01*
X149314761Y-148862857D01*
X149410000Y-148862857D01*
X148076666Y-148862857D02*
X148552857Y-148862857D01*
X148552857Y-147662857D01*
X147171904Y-148748571D02*
X147219523Y-148805714D01*
X147362380Y-148862857D01*
X147457619Y-148862857D01*
X147600476Y-148805714D01*
X147695714Y-148691428D01*
X147743333Y-148577142D01*
X147790952Y-148348571D01*
X147790952Y-148177142D01*
X147743333Y-147948571D01*
X147695714Y-147834285D01*
X147600476Y-147720000D01*
X147457619Y-147662857D01*
X147362380Y-147662857D01*
X147219523Y-147720000D01*
X147171904Y-147777142D01*
X146457619Y-147662857D02*
X146457619Y-148520000D01*
X146505238Y-148691428D01*
X146600476Y-148805714D01*
X146743333Y-148862857D01*
X146838571Y-148862857D01*
X145505238Y-148862857D02*
X145981428Y-148862857D01*
X145981428Y-147662857D01*
X144600476Y-148748571D02*
X144648095Y-148805714D01*
X144790952Y-148862857D01*
X144886190Y-148862857D01*
X145029047Y-148805714D01*
X145124285Y-148691428D01*
X145171904Y-148577142D01*
X145219523Y-148348571D01*
X145219523Y-148177142D01*
X145171904Y-147948571D01*
X145124285Y-147834285D01*
X145029047Y-147720000D01*
X144886190Y-147662857D01*
X144790952Y-147662857D01*
X144648095Y-147720000D01*
X144600476Y-147777142D01*
X143886190Y-147662857D02*
X143886190Y-148520000D01*
X143933809Y-148691428D01*
X144029047Y-148805714D01*
X144171904Y-148862857D01*
X144267142Y-148862857D01*
X142933809Y-148862857D02*
X143410000Y-148862857D01*
X143410000Y-147662857D01*
X142029047Y-148748571D02*
X142076666Y-148805714D01*
X142219523Y-148862857D01*
X142314761Y-148862857D01*
X142457619Y-148805714D01*
X142552857Y-148691428D01*
X142600476Y-148577142D01*
X142648095Y-148348571D01*
X142648095Y-148177142D01*
X142600476Y-147948571D01*
X142552857Y-147834285D01*
X142457619Y-147720000D01*
X142314761Y-147662857D01*
X142219523Y-147662857D01*
X142076666Y-147720000D01*
X142029047Y-147777142D01*
X141314761Y-147662857D02*
X141314761Y-148520000D01*
X141362380Y-148691428D01*
X141457619Y-148805714D01*
X141600476Y-148862857D01*
X141695714Y-148862857D01*
X140362380Y-148862857D02*
X140838571Y-148862857D01*
X140838571Y-147662857D01*
X139457619Y-148748571D02*
X139505238Y-148805714D01*
X139648095Y-148862857D01*
X139743333Y-148862857D01*
X139886190Y-148805714D01*
X139981428Y-148691428D01*
X140029047Y-148577142D01*
X140076666Y-148348571D01*
X140076666Y-148177142D01*
X140029047Y-147948571D01*
X139981428Y-147834285D01*
X139886190Y-147720000D01*
X139743333Y-147662857D01*
X139648095Y-147662857D01*
X139505238Y-147720000D01*
X139457619Y-147777142D01*
M02*
