G04 #@! TF.GenerationSoftware,KiCad,Pcbnew,(5.1.0)-1*
G04 #@! TF.CreationDate,2019-04-06T15:11:00+02:00*
G04 #@! TF.ProjectId,frontplate,66726f6e-7470-46c6-9174-652e6b696361,C*
G04 #@! TF.SameCoordinates,Original*
G04 #@! TF.FileFunction,Copper,L2,Inr*
G04 #@! TF.FilePolarity,Positive*
%FSLAX46Y46*%
G04 Gerber Fmt 4.6, Leading zero omitted, Abs format (unit mm)*
G04 Created by KiCad (PCBNEW (5.1.0)-1) date 2019-04-06 15:11:00*
%MOMM*%
%LPD*%
G04 APERTURE LIST*
%ADD10C,0.254000*%
G04 APERTURE END LIST*
D10*
G36*
X208618456Y-70516977D02*
G01*
X208719444Y-70819942D01*
X208897219Y-71363143D01*
X208925094Y-71493226D01*
X209014554Y-72059807D01*
X209014847Y-72061578D01*
X209114847Y-72641578D01*
X209121461Y-72665580D01*
X209132631Y-72687830D01*
X209150197Y-72709803D01*
X209220197Y-72779803D01*
X209239443Y-72795597D01*
X209261399Y-72807333D01*
X209297363Y-72816370D01*
X209397363Y-72826370D01*
X209422259Y-72826407D01*
X209446685Y-72821586D01*
X209477310Y-72807696D01*
X209557310Y-72757696D01*
X209577027Y-72742495D01*
X209593400Y-72723740D01*
X209605799Y-72702150D01*
X209612712Y-72682723D01*
X209747571Y-72177000D01*
X209993000Y-72177000D01*
X209993000Y-72227423D01*
X209799703Y-73193909D01*
X209545627Y-73623209D01*
X209344139Y-73685740D01*
X209139243Y-73608021D01*
X208971456Y-73297614D01*
X208895039Y-72867771D01*
X208894849Y-72866723D01*
X208785545Y-72280456D01*
X208696019Y-71564248D01*
X208688745Y-71534959D01*
X208578745Y-71244959D01*
X208567676Y-71222658D01*
X208552469Y-71202946D01*
X208539336Y-71190830D01*
X208489336Y-71150830D01*
X208468465Y-71137257D01*
X208445346Y-71128018D01*
X208410000Y-71123000D01*
X208300000Y-71123000D01*
X208275224Y-71125440D01*
X208251399Y-71132667D01*
X208229443Y-71144403D01*
X208217349Y-71153574D01*
X208147349Y-71213574D01*
X208130126Y-71231552D01*
X208116740Y-71252543D01*
X208106310Y-71281195D01*
X207766310Y-72741195D01*
X207765724Y-72743837D01*
X207613502Y-73466892D01*
X207377394Y-73703000D01*
X207092606Y-73703000D01*
X207054828Y-73665222D01*
X206871323Y-73289036D01*
X206764576Y-72755303D01*
X206644612Y-72145486D01*
X206643976Y-72142450D01*
X206483976Y-71422450D01*
X206476219Y-71398793D01*
X206461600Y-71373800D01*
X206401600Y-71293800D01*
X206384782Y-71275443D01*
X206364706Y-71260720D01*
X206330802Y-71246792D01*
X206250802Y-71226792D01*
X206226173Y-71223150D01*
X206201308Y-71224383D01*
X206177160Y-71230444D01*
X206145302Y-71247291D01*
X206035302Y-71327291D01*
X206016700Y-71343837D01*
X206001683Y-71363694D01*
X205990829Y-71386100D01*
X205987024Y-71398285D01*
X205499171Y-73289959D01*
X205323856Y-73719481D01*
X205137853Y-73785910D01*
X204949707Y-73725435D01*
X204780301Y-73386622D01*
X204585252Y-72547910D01*
X204506077Y-71894718D01*
X204503326Y-71879674D01*
X204353326Y-71269674D01*
X204345040Y-71246197D01*
X204332333Y-71224787D01*
X204315694Y-71206268D01*
X204295761Y-71191351D01*
X204273301Y-71180610D01*
X204244025Y-71173777D01*
X204154025Y-71163777D01*
X204140000Y-71163000D01*
X204070000Y-71163000D01*
X204045224Y-71165440D01*
X204021399Y-71172667D01*
X203999443Y-71184403D01*
X203980197Y-71200197D01*
X203964403Y-71219443D01*
X203949517Y-71249839D01*
X203799517Y-71699839D01*
X203793630Y-71727363D01*
X203705303Y-72610636D01*
X203413091Y-73380128D01*
X203248815Y-73725970D01*
X203010023Y-73803000D01*
X202894522Y-73803000D01*
X202754666Y-73655782D01*
X202571982Y-73299550D01*
X202400125Y-72277000D01*
X202723449Y-72277000D01*
X202734932Y-72342071D01*
X202735819Y-72346610D01*
X202825819Y-72766610D01*
X202833397Y-72790325D01*
X202845455Y-72812107D01*
X202861531Y-72831117D01*
X202881007Y-72846625D01*
X202912651Y-72861384D01*
X203042651Y-72901384D01*
X203067050Y-72906338D01*
X203091946Y-72906437D01*
X203116383Y-72901677D01*
X203130028Y-72896731D01*
X203200028Y-72866731D01*
X203221840Y-72854729D01*
X203240891Y-72838701D01*
X203256449Y-72819265D01*
X203265617Y-72802553D01*
X203315617Y-72692553D01*
X203323782Y-72668409D01*
X203463782Y-72058409D01*
X203464350Y-72055808D01*
X203574350Y-71525808D01*
X203574825Y-71523405D01*
X203634684Y-71204157D01*
X203642247Y-71166342D01*
X203656697Y-71130217D01*
X203715311Y-71003220D01*
X203716054Y-71001580D01*
X203935252Y-70508383D01*
X204165398Y-70414887D01*
X204280655Y-70451284D01*
X204446303Y-70624819D01*
X204616423Y-71229691D01*
X204755466Y-71924907D01*
X204755527Y-71925210D01*
X204915527Y-72715210D01*
X204922837Y-72739009D01*
X204929733Y-72753010D01*
X204969733Y-72823010D01*
X204984144Y-72843311D01*
X205002239Y-72860411D01*
X205028420Y-72876054D01*
X205118420Y-72916054D01*
X205142053Y-72923887D01*
X205166759Y-72926959D01*
X205191589Y-72925152D01*
X205204890Y-72922114D01*
X205274890Y-72902114D01*
X205298042Y-72892961D01*
X205318965Y-72879467D01*
X205329803Y-72869803D01*
X205389803Y-72809803D01*
X205405597Y-72790557D01*
X205417333Y-72768601D01*
X205425567Y-72739025D01*
X205475349Y-72410461D01*
X205544833Y-72013412D01*
X205604085Y-71717153D01*
X205653546Y-71509416D01*
X205653976Y-71507550D01*
X205769952Y-70985657D01*
X206032723Y-70514481D01*
X206255064Y-70395899D01*
X206439709Y-70446836D01*
X206484915Y-70543706D01*
X206485630Y-70545213D01*
X206618625Y-70820703D01*
X206975466Y-72604907D01*
X206978161Y-72615835D01*
X207028161Y-72785835D01*
X207037493Y-72808916D01*
X207051149Y-72829733D01*
X207068603Y-72847486D01*
X207093204Y-72863592D01*
X207213204Y-72923592D01*
X207236456Y-72932490D01*
X207260997Y-72936680D01*
X207285884Y-72936003D01*
X207310161Y-72930483D01*
X207330814Y-72921493D01*
X207440814Y-72861493D01*
X207461397Y-72847486D01*
X207478851Y-72829733D01*
X207492507Y-72808916D01*
X207502367Y-72783991D01*
X207552367Y-72603991D01*
X207554923Y-72592873D01*
X207684578Y-71884758D01*
X207772662Y-71473697D01*
X208060842Y-70618764D01*
X208302606Y-70377000D01*
X208485478Y-70377000D01*
X208618456Y-70516977D01*
X208618456Y-70516977D01*
G37*
X208618456Y-70516977D02*
X208719444Y-70819942D01*
X208897219Y-71363143D01*
X208925094Y-71493226D01*
X209014554Y-72059807D01*
X209014847Y-72061578D01*
X209114847Y-72641578D01*
X209121461Y-72665580D01*
X209132631Y-72687830D01*
X209150197Y-72709803D01*
X209220197Y-72779803D01*
X209239443Y-72795597D01*
X209261399Y-72807333D01*
X209297363Y-72816370D01*
X209397363Y-72826370D01*
X209422259Y-72826407D01*
X209446685Y-72821586D01*
X209477310Y-72807696D01*
X209557310Y-72757696D01*
X209577027Y-72742495D01*
X209593400Y-72723740D01*
X209605799Y-72702150D01*
X209612712Y-72682723D01*
X209747571Y-72177000D01*
X209993000Y-72177000D01*
X209993000Y-72227423D01*
X209799703Y-73193909D01*
X209545627Y-73623209D01*
X209344139Y-73685740D01*
X209139243Y-73608021D01*
X208971456Y-73297614D01*
X208895039Y-72867771D01*
X208894849Y-72866723D01*
X208785545Y-72280456D01*
X208696019Y-71564248D01*
X208688745Y-71534959D01*
X208578745Y-71244959D01*
X208567676Y-71222658D01*
X208552469Y-71202946D01*
X208539336Y-71190830D01*
X208489336Y-71150830D01*
X208468465Y-71137257D01*
X208445346Y-71128018D01*
X208410000Y-71123000D01*
X208300000Y-71123000D01*
X208275224Y-71125440D01*
X208251399Y-71132667D01*
X208229443Y-71144403D01*
X208217349Y-71153574D01*
X208147349Y-71213574D01*
X208130126Y-71231552D01*
X208116740Y-71252543D01*
X208106310Y-71281195D01*
X207766310Y-72741195D01*
X207765724Y-72743837D01*
X207613502Y-73466892D01*
X207377394Y-73703000D01*
X207092606Y-73703000D01*
X207054828Y-73665222D01*
X206871323Y-73289036D01*
X206764576Y-72755303D01*
X206644612Y-72145486D01*
X206643976Y-72142450D01*
X206483976Y-71422450D01*
X206476219Y-71398793D01*
X206461600Y-71373800D01*
X206401600Y-71293800D01*
X206384782Y-71275443D01*
X206364706Y-71260720D01*
X206330802Y-71246792D01*
X206250802Y-71226792D01*
X206226173Y-71223150D01*
X206201308Y-71224383D01*
X206177160Y-71230444D01*
X206145302Y-71247291D01*
X206035302Y-71327291D01*
X206016700Y-71343837D01*
X206001683Y-71363694D01*
X205990829Y-71386100D01*
X205987024Y-71398285D01*
X205499171Y-73289959D01*
X205323856Y-73719481D01*
X205137853Y-73785910D01*
X204949707Y-73725435D01*
X204780301Y-73386622D01*
X204585252Y-72547910D01*
X204506077Y-71894718D01*
X204503326Y-71879674D01*
X204353326Y-71269674D01*
X204345040Y-71246197D01*
X204332333Y-71224787D01*
X204315694Y-71206268D01*
X204295761Y-71191351D01*
X204273301Y-71180610D01*
X204244025Y-71173777D01*
X204154025Y-71163777D01*
X204140000Y-71163000D01*
X204070000Y-71163000D01*
X204045224Y-71165440D01*
X204021399Y-71172667D01*
X203999443Y-71184403D01*
X203980197Y-71200197D01*
X203964403Y-71219443D01*
X203949517Y-71249839D01*
X203799517Y-71699839D01*
X203793630Y-71727363D01*
X203705303Y-72610636D01*
X203413091Y-73380128D01*
X203248815Y-73725970D01*
X203010023Y-73803000D01*
X202894522Y-73803000D01*
X202754666Y-73655782D01*
X202571982Y-73299550D01*
X202400125Y-72277000D01*
X202723449Y-72277000D01*
X202734932Y-72342071D01*
X202735819Y-72346610D01*
X202825819Y-72766610D01*
X202833397Y-72790325D01*
X202845455Y-72812107D01*
X202861531Y-72831117D01*
X202881007Y-72846625D01*
X202912651Y-72861384D01*
X203042651Y-72901384D01*
X203067050Y-72906338D01*
X203091946Y-72906437D01*
X203116383Y-72901677D01*
X203130028Y-72896731D01*
X203200028Y-72866731D01*
X203221840Y-72854729D01*
X203240891Y-72838701D01*
X203256449Y-72819265D01*
X203265617Y-72802553D01*
X203315617Y-72692553D01*
X203323782Y-72668409D01*
X203463782Y-72058409D01*
X203464350Y-72055808D01*
X203574350Y-71525808D01*
X203574825Y-71523405D01*
X203634684Y-71204157D01*
X203642247Y-71166342D01*
X203656697Y-71130217D01*
X203715311Y-71003220D01*
X203716054Y-71001580D01*
X203935252Y-70508383D01*
X204165398Y-70414887D01*
X204280655Y-70451284D01*
X204446303Y-70624819D01*
X204616423Y-71229691D01*
X204755466Y-71924907D01*
X204755527Y-71925210D01*
X204915527Y-72715210D01*
X204922837Y-72739009D01*
X204929733Y-72753010D01*
X204969733Y-72823010D01*
X204984144Y-72843311D01*
X205002239Y-72860411D01*
X205028420Y-72876054D01*
X205118420Y-72916054D01*
X205142053Y-72923887D01*
X205166759Y-72926959D01*
X205191589Y-72925152D01*
X205204890Y-72922114D01*
X205274890Y-72902114D01*
X205298042Y-72892961D01*
X205318965Y-72879467D01*
X205329803Y-72869803D01*
X205389803Y-72809803D01*
X205405597Y-72790557D01*
X205417333Y-72768601D01*
X205425567Y-72739025D01*
X205475349Y-72410461D01*
X205544833Y-72013412D01*
X205604085Y-71717153D01*
X205653546Y-71509416D01*
X205653976Y-71507550D01*
X205769952Y-70985657D01*
X206032723Y-70514481D01*
X206255064Y-70395899D01*
X206439709Y-70446836D01*
X206484915Y-70543706D01*
X206485630Y-70545213D01*
X206618625Y-70820703D01*
X206975466Y-72604907D01*
X206978161Y-72615835D01*
X207028161Y-72785835D01*
X207037493Y-72808916D01*
X207051149Y-72829733D01*
X207068603Y-72847486D01*
X207093204Y-72863592D01*
X207213204Y-72923592D01*
X207236456Y-72932490D01*
X207260997Y-72936680D01*
X207285884Y-72936003D01*
X207310161Y-72930483D01*
X207330814Y-72921493D01*
X207440814Y-72861493D01*
X207461397Y-72847486D01*
X207478851Y-72829733D01*
X207492507Y-72808916D01*
X207502367Y-72783991D01*
X207552367Y-72603991D01*
X207554923Y-72592873D01*
X207684578Y-71884758D01*
X207772662Y-71473697D01*
X208060842Y-70618764D01*
X208302606Y-70377000D01*
X208485478Y-70377000D01*
X208618456Y-70516977D01*
M02*
