M48
; DRILL file {KiCad (5.1.2)-1} date 17/05/2019 09:45:14
; FORMAT={-:-/ absolute / inch / decimal}
; #@! TF.CreationDate,2019-05-17T09:45:14+02:00
; #@! TF.GenerationSoftware,Kicad,Pcbnew,(5.1.2)-1
FMAT,2
INCH
T1C0.1339
T2C0.2441
T3C0.2441
T4C0.2835
T5C0.2835
%
G90
G05
T1
X2.3696Y-6.4021
X6.1648Y-1.5793
X6.1648Y-6.4021
X2.3696Y-1.5793
T2
X2.4794Y-5.7428
X2.8319Y-5.7429
T3
X3.5799Y-5.7425
X6.0603Y-5.2312
X5.3514Y-5.231
X4.998Y-5.7425
X5.352Y-5.7427
X4.4655Y-5.7429
X5.7069Y-5.7428
X6.0609Y-5.7429
X3.2262Y-5.7428
X4.9973Y-5.2308
X5.7062Y-5.2311
X4.1117Y-5.7429
T4
X6.1648Y-2.0517
X6.0019Y-4.0497
T5
X2.5379Y-4.0488
X5.5891Y-2.8685
X2.6546Y-4.9745
X3.6928Y-4.0482
X4.8463Y-4.0501
T0
M30
