G04 #@! TF.GenerationSoftware,KiCad,Pcbnew,(5.1.2)-1*
G04 #@! TF.CreationDate,2019-05-17T09:45:12+02:00*
G04 #@! TF.ProjectId,frontplate-ctag,66726f6e-7470-46c6-9174-652d63746167,rev?*
G04 #@! TF.SameCoordinates,Original*
G04 #@! TF.FileFunction,Legend,Top*
G04 #@! TF.FilePolarity,Positive*
%FSLAX46Y46*%
G04 Gerber Fmt 4.6, Leading zero omitted, Abs format (unit mm)*
G04 Created by KiCad (PCBNEW (5.1.2)-1) date 2019-05-17 09:45:12*
%MOMM*%
%LPD*%
G04 APERTURE LIST*
%ADD10C,0.010000*%
G04 APERTURE END LIST*
D10*
G36*
X64402547Y-103571918D02*
G01*
X65536289Y-103572051D01*
X66588172Y-103572284D01*
X67561003Y-103572633D01*
X68457589Y-103573115D01*
X69280737Y-103573745D01*
X70033254Y-103574540D01*
X70717949Y-103575515D01*
X71337627Y-103576686D01*
X71895096Y-103578069D01*
X72393164Y-103579680D01*
X72834638Y-103581536D01*
X73222324Y-103583651D01*
X73559030Y-103586043D01*
X73847563Y-103588726D01*
X74090731Y-103591717D01*
X74291341Y-103595032D01*
X74452199Y-103598687D01*
X74576114Y-103602697D01*
X74665892Y-103607079D01*
X74724341Y-103611849D01*
X74754267Y-103617022D01*
X74758478Y-103622615D01*
X74739782Y-103628643D01*
X74729820Y-103630594D01*
X74260879Y-103746548D01*
X73759254Y-103928200D01*
X73237776Y-104169855D01*
X72709277Y-104465817D01*
X72393143Y-104667764D01*
X72159536Y-104827818D01*
X71920920Y-104999202D01*
X71669059Y-105188460D01*
X71395719Y-105402139D01*
X71092666Y-105646787D01*
X70751664Y-105928950D01*
X70364480Y-106255173D01*
X69929092Y-106626677D01*
X69645916Y-106868612D01*
X69362691Y-107109055D01*
X69091048Y-107338243D01*
X68842614Y-107546414D01*
X68629021Y-107723807D01*
X68461895Y-107860659D01*
X68397760Y-107912129D01*
X67759860Y-108388549D01*
X67140073Y-108791645D01*
X66540974Y-109120067D01*
X65965137Y-109372467D01*
X65415136Y-109547495D01*
X65175113Y-109600969D01*
X64942507Y-109632250D01*
X64658486Y-109650448D01*
X64350210Y-109655659D01*
X64044839Y-109647978D01*
X63769534Y-109627501D01*
X63555880Y-109595283D01*
X63227557Y-109514778D01*
X62903981Y-109413676D01*
X62579309Y-109288260D01*
X62247700Y-109134815D01*
X61903313Y-108949625D01*
X61540304Y-108728975D01*
X61152833Y-108469149D01*
X60735058Y-108166430D01*
X60281137Y-107817104D01*
X59785228Y-107417455D01*
X59241489Y-106963767D01*
X58726619Y-106523619D01*
X58298064Y-106155989D01*
X57923054Y-105839082D01*
X57593027Y-105566086D01*
X57299418Y-105330183D01*
X57033664Y-105124559D01*
X56787201Y-104942398D01*
X56551465Y-104776886D01*
X56422713Y-104690105D01*
X55899185Y-104361537D01*
X55411286Y-104097059D01*
X54946644Y-103891014D01*
X54492883Y-103737751D01*
X54157880Y-103655210D01*
X53755713Y-103571125D01*
X64402547Y-103571918D01*
X64402547Y-103571918D01*
G37*
X64402547Y-103571918D02*
X65536289Y-103572051D01*
X66588172Y-103572284D01*
X67561003Y-103572633D01*
X68457589Y-103573115D01*
X69280737Y-103573745D01*
X70033254Y-103574540D01*
X70717949Y-103575515D01*
X71337627Y-103576686D01*
X71895096Y-103578069D01*
X72393164Y-103579680D01*
X72834638Y-103581536D01*
X73222324Y-103583651D01*
X73559030Y-103586043D01*
X73847563Y-103588726D01*
X74090731Y-103591717D01*
X74291341Y-103595032D01*
X74452199Y-103598687D01*
X74576114Y-103602697D01*
X74665892Y-103607079D01*
X74724341Y-103611849D01*
X74754267Y-103617022D01*
X74758478Y-103622615D01*
X74739782Y-103628643D01*
X74729820Y-103630594D01*
X74260879Y-103746548D01*
X73759254Y-103928200D01*
X73237776Y-104169855D01*
X72709277Y-104465817D01*
X72393143Y-104667764D01*
X72159536Y-104827818D01*
X71920920Y-104999202D01*
X71669059Y-105188460D01*
X71395719Y-105402139D01*
X71092666Y-105646787D01*
X70751664Y-105928950D01*
X70364480Y-106255173D01*
X69929092Y-106626677D01*
X69645916Y-106868612D01*
X69362691Y-107109055D01*
X69091048Y-107338243D01*
X68842614Y-107546414D01*
X68629021Y-107723807D01*
X68461895Y-107860659D01*
X68397760Y-107912129D01*
X67759860Y-108388549D01*
X67140073Y-108791645D01*
X66540974Y-109120067D01*
X65965137Y-109372467D01*
X65415136Y-109547495D01*
X65175113Y-109600969D01*
X64942507Y-109632250D01*
X64658486Y-109650448D01*
X64350210Y-109655659D01*
X64044839Y-109647978D01*
X63769534Y-109627501D01*
X63555880Y-109595283D01*
X63227557Y-109514778D01*
X62903981Y-109413676D01*
X62579309Y-109288260D01*
X62247700Y-109134815D01*
X61903313Y-108949625D01*
X61540304Y-108728975D01*
X61152833Y-108469149D01*
X60735058Y-108166430D01*
X60281137Y-107817104D01*
X59785228Y-107417455D01*
X59241489Y-106963767D01*
X58726619Y-106523619D01*
X58298064Y-106155989D01*
X57923054Y-105839082D01*
X57593027Y-105566086D01*
X57299418Y-105330183D01*
X57033664Y-105124559D01*
X56787201Y-104942398D01*
X56551465Y-104776886D01*
X56422713Y-104690105D01*
X55899185Y-104361537D01*
X55411286Y-104097059D01*
X54946644Y-103891014D01*
X54492883Y-103737751D01*
X54157880Y-103655210D01*
X53755713Y-103571125D01*
X64402547Y-103571918D01*
G36*
X93522195Y-103573857D02*
G01*
X93866547Y-103573892D01*
X94807290Y-103574124D01*
X95724271Y-103574603D01*
X96614002Y-103575317D01*
X97472995Y-103576255D01*
X98297764Y-103577406D01*
X99084820Y-103578758D01*
X99830677Y-103580299D01*
X100531845Y-103582019D01*
X101184839Y-103583906D01*
X101786170Y-103585949D01*
X102332351Y-103588136D01*
X102819895Y-103590456D01*
X103245313Y-103592898D01*
X103605119Y-103595450D01*
X103895824Y-103598102D01*
X104113942Y-103600841D01*
X104255984Y-103603657D01*
X104318464Y-103606537D01*
X104319467Y-103607891D01*
X103872772Y-103710689D01*
X103393064Y-103870193D01*
X102901375Y-104077934D01*
X102418734Y-104325442D01*
X102163880Y-104475999D01*
X101861238Y-104673356D01*
X101526843Y-104909415D01*
X101155691Y-105188077D01*
X100742780Y-105513245D01*
X100283103Y-105888818D01*
X99771659Y-106318698D01*
X99475713Y-106571761D01*
X98974358Y-107000105D01*
X98527911Y-107375497D01*
X98129568Y-107702957D01*
X97772526Y-107987500D01*
X97449983Y-108234145D01*
X97155136Y-108447909D01*
X96881182Y-108633809D01*
X96621319Y-108796863D01*
X96368743Y-108942087D01*
X96116652Y-109074501D01*
X96013028Y-109125683D01*
X95566607Y-109327397D01*
X95159978Y-109476143D01*
X94771531Y-109577246D01*
X94379658Y-109636034D01*
X93962750Y-109657833D01*
X93853196Y-109658135D01*
X93487707Y-109644508D01*
X93153745Y-109609820D01*
X92973477Y-109578381D01*
X92448793Y-109431572D01*
X91894567Y-109206256D01*
X91310578Y-108902317D01*
X90696604Y-108519636D01*
X90052425Y-108058097D01*
X89938854Y-107970979D01*
X89814450Y-107871964D01*
X89636220Y-107726308D01*
X89414482Y-107542632D01*
X89159556Y-107329557D01*
X88881760Y-107095704D01*
X88591413Y-106849693D01*
X88330188Y-106626973D01*
X88035684Y-106376066D01*
X87743029Y-106128528D01*
X87462827Y-105893199D01*
X87205682Y-105678921D01*
X86982198Y-105494535D01*
X86802978Y-105348882D01*
X86691047Y-105260343D01*
X86045710Y-104789093D01*
X85431336Y-104395764D01*
X84846966Y-104079862D01*
X84291639Y-103840889D01*
X83764397Y-103678350D01*
X83539273Y-103630594D01*
X83514102Y-103624430D01*
X83511035Y-103618709D01*
X83532879Y-103613417D01*
X83582440Y-103608538D01*
X83662524Y-103604057D01*
X83775936Y-103599958D01*
X83925483Y-103596226D01*
X84113970Y-103592846D01*
X84344204Y-103589802D01*
X84618990Y-103587079D01*
X84941134Y-103584661D01*
X85313443Y-103582533D01*
X85738722Y-103580680D01*
X86219778Y-103579086D01*
X86759416Y-103577735D01*
X87360442Y-103576613D01*
X88025662Y-103575704D01*
X88757882Y-103574992D01*
X89559908Y-103574463D01*
X90434547Y-103574100D01*
X91384603Y-103573888D01*
X92412884Y-103573813D01*
X93522195Y-103573857D01*
X93522195Y-103573857D01*
G37*
X93522195Y-103573857D02*
X93866547Y-103573892D01*
X94807290Y-103574124D01*
X95724271Y-103574603D01*
X96614002Y-103575317D01*
X97472995Y-103576255D01*
X98297764Y-103577406D01*
X99084820Y-103578758D01*
X99830677Y-103580299D01*
X100531845Y-103582019D01*
X101184839Y-103583906D01*
X101786170Y-103585949D01*
X102332351Y-103588136D01*
X102819895Y-103590456D01*
X103245313Y-103592898D01*
X103605119Y-103595450D01*
X103895824Y-103598102D01*
X104113942Y-103600841D01*
X104255984Y-103603657D01*
X104318464Y-103606537D01*
X104319467Y-103607891D01*
X103872772Y-103710689D01*
X103393064Y-103870193D01*
X102901375Y-104077934D01*
X102418734Y-104325442D01*
X102163880Y-104475999D01*
X101861238Y-104673356D01*
X101526843Y-104909415D01*
X101155691Y-105188077D01*
X100742780Y-105513245D01*
X100283103Y-105888818D01*
X99771659Y-106318698D01*
X99475713Y-106571761D01*
X98974358Y-107000105D01*
X98527911Y-107375497D01*
X98129568Y-107702957D01*
X97772526Y-107987500D01*
X97449983Y-108234145D01*
X97155136Y-108447909D01*
X96881182Y-108633809D01*
X96621319Y-108796863D01*
X96368743Y-108942087D01*
X96116652Y-109074501D01*
X96013028Y-109125683D01*
X95566607Y-109327397D01*
X95159978Y-109476143D01*
X94771531Y-109577246D01*
X94379658Y-109636034D01*
X93962750Y-109657833D01*
X93853196Y-109658135D01*
X93487707Y-109644508D01*
X93153745Y-109609820D01*
X92973477Y-109578381D01*
X92448793Y-109431572D01*
X91894567Y-109206256D01*
X91310578Y-108902317D01*
X90696604Y-108519636D01*
X90052425Y-108058097D01*
X89938854Y-107970979D01*
X89814450Y-107871964D01*
X89636220Y-107726308D01*
X89414482Y-107542632D01*
X89159556Y-107329557D01*
X88881760Y-107095704D01*
X88591413Y-106849693D01*
X88330188Y-106626973D01*
X88035684Y-106376066D01*
X87743029Y-106128528D01*
X87462827Y-105893199D01*
X87205682Y-105678921D01*
X86982198Y-105494535D01*
X86802978Y-105348882D01*
X86691047Y-105260343D01*
X86045710Y-104789093D01*
X85431336Y-104395764D01*
X84846966Y-104079862D01*
X84291639Y-103840889D01*
X83764397Y-103678350D01*
X83539273Y-103630594D01*
X83514102Y-103624430D01*
X83511035Y-103618709D01*
X83532879Y-103613417D01*
X83582440Y-103608538D01*
X83662524Y-103604057D01*
X83775936Y-103599958D01*
X83925483Y-103596226D01*
X84113970Y-103592846D01*
X84344204Y-103589802D01*
X84618990Y-103587079D01*
X84941134Y-103584661D01*
X85313443Y-103582533D01*
X85738722Y-103580680D01*
X86219778Y-103579086D01*
X86759416Y-103577735D01*
X87360442Y-103576613D01*
X88025662Y-103575704D01*
X88757882Y-103574992D01*
X89559908Y-103574463D01*
X90434547Y-103574100D01*
X91384603Y-103573888D01*
X92412884Y-103573813D01*
X93522195Y-103573857D01*
G36*
X123034213Y-103571918D02*
G01*
X124167956Y-103572051D01*
X125219839Y-103572284D01*
X126192669Y-103572633D01*
X127089255Y-103573115D01*
X127912403Y-103573745D01*
X128664921Y-103574540D01*
X129349615Y-103575515D01*
X129969294Y-103576686D01*
X130526763Y-103578069D01*
X131024831Y-103579680D01*
X131466304Y-103581536D01*
X131853990Y-103583651D01*
X132190697Y-103586043D01*
X132479230Y-103588726D01*
X132722398Y-103591717D01*
X132923007Y-103595032D01*
X133083866Y-103598687D01*
X133207781Y-103602697D01*
X133297559Y-103607079D01*
X133356007Y-103611849D01*
X133385934Y-103617022D01*
X133390145Y-103622615D01*
X133371449Y-103628643D01*
X133361487Y-103630594D01*
X132887844Y-103747915D01*
X132381023Y-103932319D01*
X131852252Y-104178804D01*
X131312760Y-104482367D01*
X130996608Y-104684456D01*
X130774988Y-104836538D01*
X130541618Y-105005124D01*
X130289283Y-105195983D01*
X130010765Y-105414882D01*
X129698849Y-105667588D01*
X129346317Y-105959869D01*
X128945953Y-106297491D01*
X128490540Y-106686222D01*
X128472873Y-106701375D01*
X128196199Y-106937795D01*
X127920218Y-107171946D01*
X127656691Y-107393972D01*
X127417380Y-107594016D01*
X127214045Y-107762221D01*
X127058449Y-107888729D01*
X127013547Y-107924401D01*
X126352940Y-108413761D01*
X125718443Y-108822588D01*
X125110045Y-109150889D01*
X124527738Y-109398666D01*
X123971512Y-109565926D01*
X123806780Y-109600969D01*
X123574174Y-109632250D01*
X123290153Y-109650448D01*
X122981877Y-109655659D01*
X122676506Y-109647978D01*
X122401200Y-109627501D01*
X122187547Y-109595283D01*
X121859386Y-109514827D01*
X121535993Y-109413805D01*
X121211518Y-109288499D01*
X120880118Y-109135191D01*
X120535944Y-108950166D01*
X120173150Y-108729704D01*
X119785891Y-108470090D01*
X119368319Y-108167605D01*
X118914589Y-107818532D01*
X118418854Y-107419155D01*
X117875267Y-106965755D01*
X117361547Y-106526766D01*
X117101034Y-106303137D01*
X116838451Y-106079565D01*
X116587285Y-105867400D01*
X116361026Y-105677995D01*
X116173163Y-105522699D01*
X116049213Y-105422393D01*
X115429778Y-104952596D01*
X114844902Y-104555677D01*
X114290271Y-104229299D01*
X113761574Y-103971124D01*
X113254499Y-103778814D01*
X112789547Y-103655138D01*
X112387380Y-103571125D01*
X123034213Y-103571918D01*
X123034213Y-103571918D01*
G37*
X123034213Y-103571918D02*
X124167956Y-103572051D01*
X125219839Y-103572284D01*
X126192669Y-103572633D01*
X127089255Y-103573115D01*
X127912403Y-103573745D01*
X128664921Y-103574540D01*
X129349615Y-103575515D01*
X129969294Y-103576686D01*
X130526763Y-103578069D01*
X131024831Y-103579680D01*
X131466304Y-103581536D01*
X131853990Y-103583651D01*
X132190697Y-103586043D01*
X132479230Y-103588726D01*
X132722398Y-103591717D01*
X132923007Y-103595032D01*
X133083866Y-103598687D01*
X133207781Y-103602697D01*
X133297559Y-103607079D01*
X133356007Y-103611849D01*
X133385934Y-103617022D01*
X133390145Y-103622615D01*
X133371449Y-103628643D01*
X133361487Y-103630594D01*
X132887844Y-103747915D01*
X132381023Y-103932319D01*
X131852252Y-104178804D01*
X131312760Y-104482367D01*
X130996608Y-104684456D01*
X130774988Y-104836538D01*
X130541618Y-105005124D01*
X130289283Y-105195983D01*
X130010765Y-105414882D01*
X129698849Y-105667588D01*
X129346317Y-105959869D01*
X128945953Y-106297491D01*
X128490540Y-106686222D01*
X128472873Y-106701375D01*
X128196199Y-106937795D01*
X127920218Y-107171946D01*
X127656691Y-107393972D01*
X127417380Y-107594016D01*
X127214045Y-107762221D01*
X127058449Y-107888729D01*
X127013547Y-107924401D01*
X126352940Y-108413761D01*
X125718443Y-108822588D01*
X125110045Y-109150889D01*
X124527738Y-109398666D01*
X123971512Y-109565926D01*
X123806780Y-109600969D01*
X123574174Y-109632250D01*
X123290153Y-109650448D01*
X122981877Y-109655659D01*
X122676506Y-109647978D01*
X122401200Y-109627501D01*
X122187547Y-109595283D01*
X121859386Y-109514827D01*
X121535993Y-109413805D01*
X121211518Y-109288499D01*
X120880118Y-109135191D01*
X120535944Y-108950166D01*
X120173150Y-108729704D01*
X119785891Y-108470090D01*
X119368319Y-108167605D01*
X118914589Y-107818532D01*
X118418854Y-107419155D01*
X117875267Y-106965755D01*
X117361547Y-106526766D01*
X117101034Y-106303137D01*
X116838451Y-106079565D01*
X116587285Y-105867400D01*
X116361026Y-105677995D01*
X116173163Y-105522699D01*
X116049213Y-105422393D01*
X115429778Y-104952596D01*
X114844902Y-104555677D01*
X114290271Y-104229299D01*
X113761574Y-103971124D01*
X113254499Y-103778814D01*
X112789547Y-103655138D01*
X112387380Y-103571125D01*
X123034213Y-103571918D01*
G36*
X155551644Y-103571946D02*
G01*
X156435169Y-103572053D01*
X157245925Y-103572272D01*
X157986886Y-103572624D01*
X158661028Y-103573132D01*
X159271324Y-103573816D01*
X159820750Y-103574700D01*
X160312279Y-103575805D01*
X160748886Y-103577154D01*
X161133546Y-103578768D01*
X161469232Y-103580669D01*
X161758920Y-103582880D01*
X162005585Y-103585422D01*
X162212199Y-103588317D01*
X162381739Y-103591588D01*
X162517178Y-103595256D01*
X162621490Y-103599344D01*
X162697652Y-103603873D01*
X162748636Y-103608865D01*
X162777417Y-103614343D01*
X162786970Y-103620329D01*
X162780269Y-103626844D01*
X162760289Y-103633910D01*
X162730004Y-103641550D01*
X162700547Y-103648049D01*
X162364123Y-103729655D01*
X162052199Y-103828223D01*
X161735030Y-103954522D01*
X161382873Y-104119317D01*
X161340799Y-104140219D01*
X161078865Y-104276778D01*
X160817143Y-104425959D01*
X160548770Y-104592840D01*
X160266883Y-104782504D01*
X159964620Y-105000033D01*
X159635118Y-105250507D01*
X159271514Y-105539007D01*
X158866946Y-105870616D01*
X158414550Y-106250414D01*
X157916880Y-106675390D01*
X157414214Y-107104140D01*
X156965478Y-107479363D01*
X156563590Y-107806234D01*
X156201468Y-108089931D01*
X155872031Y-108335629D01*
X155568198Y-108548504D01*
X155282888Y-108733733D01*
X155009018Y-108896492D01*
X154739507Y-109041957D01*
X154551380Y-109135434D01*
X154121529Y-109328946D01*
X153733845Y-109472436D01*
X153366425Y-109571232D01*
X152997368Y-109630664D01*
X152604773Y-109656061D01*
X152404748Y-109657748D01*
X152170969Y-109651305D01*
X151937876Y-109636438D01*
X151735144Y-109615486D01*
X151611296Y-109595173D01*
X151281806Y-109513831D01*
X150969939Y-109413751D01*
X150647250Y-109284631D01*
X150285296Y-109116169D01*
X150275713Y-109111470D01*
X150016719Y-108979461D01*
X149764081Y-108839638D01*
X149510435Y-108686603D01*
X149248414Y-108514960D01*
X148970652Y-108319311D01*
X148669785Y-108094260D01*
X148338445Y-107834409D01*
X147969267Y-107534361D01*
X147554886Y-107188719D01*
X147087935Y-106792087D01*
X146955953Y-106679039D01*
X146539136Y-106322603D01*
X146177444Y-106015984D01*
X145862764Y-105752702D01*
X145586983Y-105526277D01*
X145341987Y-105330229D01*
X145119665Y-105158078D01*
X144911902Y-105003344D01*
X144710585Y-104859548D01*
X144507602Y-104720208D01*
X144481128Y-104702392D01*
X143868923Y-104323871D01*
X143269784Y-104018676D01*
X142688542Y-103788979D01*
X142130026Y-103636956D01*
X142100228Y-103630924D01*
X142078130Y-103624751D01*
X142078115Y-103619020D01*
X142102999Y-103613713D01*
X142155597Y-103608815D01*
X142238723Y-103604310D01*
X142355194Y-103600181D01*
X142507823Y-103596413D01*
X142699426Y-103592990D01*
X142932818Y-103589895D01*
X143210814Y-103587113D01*
X143536229Y-103584628D01*
X143911877Y-103582423D01*
X144340575Y-103580482D01*
X144825136Y-103578790D01*
X145368377Y-103577331D01*
X145973111Y-103576088D01*
X146642154Y-103575045D01*
X147378321Y-103574186D01*
X148184427Y-103573496D01*
X149063286Y-103572958D01*
X150017715Y-103572557D01*
X151050528Y-103572275D01*
X152164540Y-103572098D01*
X152434713Y-103572070D01*
X153554391Y-103571976D01*
X154592376Y-103571927D01*
X155551644Y-103571946D01*
X155551644Y-103571946D01*
G37*
X155551644Y-103571946D02*
X156435169Y-103572053D01*
X157245925Y-103572272D01*
X157986886Y-103572624D01*
X158661028Y-103573132D01*
X159271324Y-103573816D01*
X159820750Y-103574700D01*
X160312279Y-103575805D01*
X160748886Y-103577154D01*
X161133546Y-103578768D01*
X161469232Y-103580669D01*
X161758920Y-103582880D01*
X162005585Y-103585422D01*
X162212199Y-103588317D01*
X162381739Y-103591588D01*
X162517178Y-103595256D01*
X162621490Y-103599344D01*
X162697652Y-103603873D01*
X162748636Y-103608865D01*
X162777417Y-103614343D01*
X162786970Y-103620329D01*
X162780269Y-103626844D01*
X162760289Y-103633910D01*
X162730004Y-103641550D01*
X162700547Y-103648049D01*
X162364123Y-103729655D01*
X162052199Y-103828223D01*
X161735030Y-103954522D01*
X161382873Y-104119317D01*
X161340799Y-104140219D01*
X161078865Y-104276778D01*
X160817143Y-104425959D01*
X160548770Y-104592840D01*
X160266883Y-104782504D01*
X159964620Y-105000033D01*
X159635118Y-105250507D01*
X159271514Y-105539007D01*
X158866946Y-105870616D01*
X158414550Y-106250414D01*
X157916880Y-106675390D01*
X157414214Y-107104140D01*
X156965478Y-107479363D01*
X156563590Y-107806234D01*
X156201468Y-108089931D01*
X155872031Y-108335629D01*
X155568198Y-108548504D01*
X155282888Y-108733733D01*
X155009018Y-108896492D01*
X154739507Y-109041957D01*
X154551380Y-109135434D01*
X154121529Y-109328946D01*
X153733845Y-109472436D01*
X153366425Y-109571232D01*
X152997368Y-109630664D01*
X152604773Y-109656061D01*
X152404748Y-109657748D01*
X152170969Y-109651305D01*
X151937876Y-109636438D01*
X151735144Y-109615486D01*
X151611296Y-109595173D01*
X151281806Y-109513831D01*
X150969939Y-109413751D01*
X150647250Y-109284631D01*
X150285296Y-109116169D01*
X150275713Y-109111470D01*
X150016719Y-108979461D01*
X149764081Y-108839638D01*
X149510435Y-108686603D01*
X149248414Y-108514960D01*
X148970652Y-108319311D01*
X148669785Y-108094260D01*
X148338445Y-107834409D01*
X147969267Y-107534361D01*
X147554886Y-107188719D01*
X147087935Y-106792087D01*
X146955953Y-106679039D01*
X146539136Y-106322603D01*
X146177444Y-106015984D01*
X145862764Y-105752702D01*
X145586983Y-105526277D01*
X145341987Y-105330229D01*
X145119665Y-105158078D01*
X144911902Y-105003344D01*
X144710585Y-104859548D01*
X144507602Y-104720208D01*
X144481128Y-104702392D01*
X143868923Y-104323871D01*
X143269784Y-104018676D01*
X142688542Y-103788979D01*
X142130026Y-103636956D01*
X142100228Y-103630924D01*
X142078130Y-103624751D01*
X142078115Y-103619020D01*
X142102999Y-103613713D01*
X142155597Y-103608815D01*
X142238723Y-103604310D01*
X142355194Y-103600181D01*
X142507823Y-103596413D01*
X142699426Y-103592990D01*
X142932818Y-103589895D01*
X143210814Y-103587113D01*
X143536229Y-103584628D01*
X143911877Y-103582423D01*
X144340575Y-103580482D01*
X144825136Y-103578790D01*
X145368377Y-103577331D01*
X145973111Y-103576088D01*
X146642154Y-103575045D01*
X147378321Y-103574186D01*
X148184427Y-103573496D01*
X149063286Y-103572958D01*
X150017715Y-103572557D01*
X151050528Y-103572275D01*
X152164540Y-103572098D01*
X152434713Y-103572070D01*
X153554391Y-103571976D01*
X154592376Y-103571927D01*
X155551644Y-103571946D01*
G36*
X112662547Y-91260710D02*
G01*
X112659234Y-91408969D01*
X112650168Y-91602830D01*
X112636653Y-91825817D01*
X112619998Y-92061456D01*
X112601508Y-92293273D01*
X112582490Y-92504794D01*
X112564249Y-92679545D01*
X112548093Y-92801052D01*
X112536416Y-92851266D01*
X112511521Y-92855085D01*
X112488401Y-92777909D01*
X112477077Y-92703099D01*
X112463344Y-92577744D01*
X112445576Y-92393477D01*
X112426143Y-92175807D01*
X112408651Y-91965780D01*
X112389919Y-91743660D01*
X112370650Y-91534848D01*
X112353162Y-91363413D01*
X112340258Y-91256697D01*
X112314266Y-91076780D01*
X112662547Y-91076780D01*
X112662547Y-91260710D01*
X112662547Y-91260710D01*
G37*
X112662547Y-91260710D02*
X112659234Y-91408969D01*
X112650168Y-91602830D01*
X112636653Y-91825817D01*
X112619998Y-92061456D01*
X112601508Y-92293273D01*
X112582490Y-92504794D01*
X112564249Y-92679545D01*
X112548093Y-92801052D01*
X112536416Y-92851266D01*
X112511521Y-92855085D01*
X112488401Y-92777909D01*
X112477077Y-92703099D01*
X112463344Y-92577744D01*
X112445576Y-92393477D01*
X112426143Y-92175807D01*
X112408651Y-91965780D01*
X112389919Y-91743660D01*
X112370650Y-91534848D01*
X112353162Y-91363413D01*
X112340258Y-91256697D01*
X112314266Y-91076780D01*
X112662547Y-91076780D01*
X112662547Y-91260710D01*
G36*
X113240931Y-91235530D02*
G01*
X113228081Y-91332337D01*
X113209202Y-91494575D01*
X113186382Y-91703395D01*
X113161704Y-91939952D01*
X113148560Y-92070379D01*
X113124959Y-92299757D01*
X113103117Y-92497652D01*
X113084751Y-92649568D01*
X113071581Y-92741008D01*
X113066659Y-92761112D01*
X113035595Y-92747765D01*
X113028873Y-92738286D01*
X113017028Y-92682573D01*
X113000825Y-92552437D01*
X112981187Y-92357955D01*
X112959036Y-92109206D01*
X112935296Y-91816267D01*
X112910889Y-91489218D01*
X112899009Y-91320197D01*
X112882242Y-91076780D01*
X113266034Y-91076780D01*
X113240931Y-91235530D01*
X113240931Y-91235530D01*
G37*
X113240931Y-91235530D02*
X113228081Y-91332337D01*
X113209202Y-91494575D01*
X113186382Y-91703395D01*
X113161704Y-91939952D01*
X113148560Y-92070379D01*
X113124959Y-92299757D01*
X113103117Y-92497652D01*
X113084751Y-92649568D01*
X113071581Y-92741008D01*
X113066659Y-92761112D01*
X113035595Y-92747765D01*
X113028873Y-92738286D01*
X113017028Y-92682573D01*
X113000825Y-92552437D01*
X112981187Y-92357955D01*
X112959036Y-92109206D01*
X112935296Y-91816267D01*
X112910889Y-91489218D01*
X112899009Y-91320197D01*
X112882242Y-91076780D01*
X113266034Y-91076780D01*
X113240931Y-91235530D01*
G36*
X108709155Y-91447197D02*
G01*
X108687597Y-91715567D01*
X108668175Y-91909959D01*
X108648640Y-92040946D01*
X108626741Y-92119105D01*
X108600227Y-92155009D01*
X108566848Y-92159233D01*
X108558115Y-92156884D01*
X108517445Y-92157199D01*
X108486535Y-92198660D01*
X108458409Y-92296449D01*
X108432267Y-92430784D01*
X108401925Y-92576289D01*
X108371573Y-92682171D01*
X108347349Y-92727402D01*
X108345580Y-92727780D01*
X108322619Y-92689675D01*
X108299631Y-92591778D01*
X108287478Y-92505530D01*
X108274828Y-92367613D01*
X108260461Y-92174939D01*
X108246491Y-91957328D01*
X108238677Y-91817614D01*
X108226659Y-91612209D01*
X108213372Y-91424649D01*
X108200672Y-91279408D01*
X108192872Y-91214364D01*
X108171377Y-91076780D01*
X108737190Y-91076780D01*
X108709155Y-91447197D01*
X108709155Y-91447197D01*
G37*
X108709155Y-91447197D02*
X108687597Y-91715567D01*
X108668175Y-91909959D01*
X108648640Y-92040946D01*
X108626741Y-92119105D01*
X108600227Y-92155009D01*
X108566848Y-92159233D01*
X108558115Y-92156884D01*
X108517445Y-92157199D01*
X108486535Y-92198660D01*
X108458409Y-92296449D01*
X108432267Y-92430784D01*
X108401925Y-92576289D01*
X108371573Y-92682171D01*
X108347349Y-92727402D01*
X108345580Y-92727780D01*
X108322619Y-92689675D01*
X108299631Y-92591778D01*
X108287478Y-92505530D01*
X108274828Y-92367613D01*
X108260461Y-92174939D01*
X108246491Y-91957328D01*
X108238677Y-91817614D01*
X108226659Y-91612209D01*
X108213372Y-91424649D01*
X108200672Y-91279408D01*
X108192872Y-91214364D01*
X108171377Y-91076780D01*
X108737190Y-91076780D01*
X108709155Y-91447197D01*
G36*
X111458654Y-91214364D02*
G01*
X111415133Y-91475287D01*
X111381100Y-91662937D01*
X111354324Y-91787891D01*
X111332572Y-91860726D01*
X111316136Y-91889791D01*
X111271912Y-91879167D01*
X111186857Y-91819691D01*
X111078513Y-91723836D01*
X111066885Y-91712546D01*
X110951462Y-91603848D01*
X110877989Y-91549191D01*
X110831262Y-91540153D01*
X110799289Y-91564326D01*
X110711758Y-91622688D01*
X110622298Y-91597265D01*
X110588940Y-91564489D01*
X110507543Y-91520796D01*
X110403839Y-91512408D01*
X110341199Y-91521791D01*
X110293672Y-91547493D01*
X110254080Y-91603098D01*
X110215247Y-91702185D01*
X110169996Y-91858337D01*
X110120473Y-92048633D01*
X110088064Y-92151371D01*
X110058804Y-92186482D01*
X110030846Y-92150251D01*
X110002341Y-92038960D01*
X109971445Y-91848894D01*
X109953062Y-91711780D01*
X109920160Y-91479180D01*
X109888583Y-91321105D01*
X109854238Y-91227589D01*
X109813034Y-91188664D01*
X109760880Y-91194363D01*
X109744001Y-91202467D01*
X109674024Y-91220730D01*
X109641273Y-91181838D01*
X109595939Y-91123710D01*
X109547012Y-91143110D01*
X109516218Y-91214364D01*
X109504325Y-91290403D01*
X109487692Y-91432237D01*
X109468310Y-91621261D01*
X109448173Y-91838869D01*
X109443169Y-91896552D01*
X109414556Y-92204778D01*
X109388118Y-92432322D01*
X109363165Y-92583121D01*
X109339009Y-92661110D01*
X109314961Y-92670227D01*
X109309117Y-92662584D01*
X109294018Y-92605423D01*
X109273532Y-92484160D01*
X109250814Y-92318929D01*
X109236468Y-92198614D01*
X109208425Y-91957996D01*
X109185404Y-91789258D01*
X109164440Y-91679990D01*
X109142571Y-91617783D01*
X109116831Y-91590227D01*
X109089865Y-91584780D01*
X109042395Y-91545754D01*
X109004906Y-91441675D01*
X108982968Y-91292042D01*
X108979547Y-91198489D01*
X108979547Y-91076780D01*
X111481050Y-91076780D01*
X111458654Y-91214364D01*
X111458654Y-91214364D01*
G37*
X111458654Y-91214364D02*
X111415133Y-91475287D01*
X111381100Y-91662937D01*
X111354324Y-91787891D01*
X111332572Y-91860726D01*
X111316136Y-91889791D01*
X111271912Y-91879167D01*
X111186857Y-91819691D01*
X111078513Y-91723836D01*
X111066885Y-91712546D01*
X110951462Y-91603848D01*
X110877989Y-91549191D01*
X110831262Y-91540153D01*
X110799289Y-91564326D01*
X110711758Y-91622688D01*
X110622298Y-91597265D01*
X110588940Y-91564489D01*
X110507543Y-91520796D01*
X110403839Y-91512408D01*
X110341199Y-91521791D01*
X110293672Y-91547493D01*
X110254080Y-91603098D01*
X110215247Y-91702185D01*
X110169996Y-91858337D01*
X110120473Y-92048633D01*
X110088064Y-92151371D01*
X110058804Y-92186482D01*
X110030846Y-92150251D01*
X110002341Y-92038960D01*
X109971445Y-91848894D01*
X109953062Y-91711780D01*
X109920160Y-91479180D01*
X109888583Y-91321105D01*
X109854238Y-91227589D01*
X109813034Y-91188664D01*
X109760880Y-91194363D01*
X109744001Y-91202467D01*
X109674024Y-91220730D01*
X109641273Y-91181838D01*
X109595939Y-91123710D01*
X109547012Y-91143110D01*
X109516218Y-91214364D01*
X109504325Y-91290403D01*
X109487692Y-91432237D01*
X109468310Y-91621261D01*
X109448173Y-91838869D01*
X109443169Y-91896552D01*
X109414556Y-92204778D01*
X109388118Y-92432322D01*
X109363165Y-92583121D01*
X109339009Y-92661110D01*
X109314961Y-92670227D01*
X109309117Y-92662584D01*
X109294018Y-92605423D01*
X109273532Y-92484160D01*
X109250814Y-92318929D01*
X109236468Y-92198614D01*
X109208425Y-91957996D01*
X109185404Y-91789258D01*
X109164440Y-91679990D01*
X109142571Y-91617783D01*
X109116831Y-91590227D01*
X109089865Y-91584780D01*
X109042395Y-91545754D01*
X109004906Y-91441675D01*
X108982968Y-91292042D01*
X108979547Y-91198489D01*
X108979547Y-91076780D01*
X111481050Y-91076780D01*
X111458654Y-91214364D01*
G36*
X114378138Y-91447197D02*
G01*
X114356191Y-91726320D01*
X114333278Y-91992195D01*
X114310720Y-92231771D01*
X114289836Y-92431995D01*
X114271948Y-92579815D01*
X114258375Y-92662179D01*
X114253992Y-92674446D01*
X114221082Y-92663146D01*
X114214289Y-92653753D01*
X114203498Y-92600521D01*
X114188924Y-92478290D01*
X114172113Y-92302558D01*
X114154610Y-92088825D01*
X114145412Y-91963020D01*
X114128195Y-91727218D01*
X114111309Y-91513291D01*
X114096270Y-91339236D01*
X114084590Y-91223054D01*
X114080633Y-91193197D01*
X114074705Y-91119140D01*
X114103645Y-91085820D01*
X114188746Y-91077048D01*
X114233738Y-91076780D01*
X114405814Y-91076780D01*
X114378138Y-91447197D01*
X114378138Y-91447197D01*
G37*
X114378138Y-91447197D02*
X114356191Y-91726320D01*
X114333278Y-91992195D01*
X114310720Y-92231771D01*
X114289836Y-92431995D01*
X114271948Y-92579815D01*
X114258375Y-92662179D01*
X114253992Y-92674446D01*
X114221082Y-92663146D01*
X114214289Y-92653753D01*
X114203498Y-92600521D01*
X114188924Y-92478290D01*
X114172113Y-92302558D01*
X114154610Y-92088825D01*
X114145412Y-91963020D01*
X114128195Y-91727218D01*
X114111309Y-91513291D01*
X114096270Y-91339236D01*
X114084590Y-91223054D01*
X114080633Y-91193197D01*
X114074705Y-91119140D01*
X114103645Y-91085820D01*
X114188746Y-91077048D01*
X114233738Y-91076780D01*
X114405814Y-91076780D01*
X114378138Y-91447197D01*
G36*
X117082908Y-91362530D02*
G01*
X117059862Y-91658309D01*
X117036677Y-91935740D01*
X117014504Y-92182769D01*
X116994492Y-92387345D01*
X116977793Y-92537415D01*
X116965556Y-92620927D01*
X116961579Y-92633859D01*
X116938496Y-92613644D01*
X116921867Y-92572220D01*
X116910255Y-92503406D01*
X116894953Y-92368933D01*
X116877496Y-92187651D01*
X116859417Y-91978406D01*
X116842251Y-91760046D01*
X116827534Y-91551419D01*
X116816798Y-91371372D01*
X116811580Y-91238753D01*
X116811316Y-91214364D01*
X116818686Y-91121727D01*
X116858288Y-91083992D01*
X116956077Y-91076781D01*
X116957787Y-91076780D01*
X117104361Y-91076780D01*
X117082908Y-91362530D01*
X117082908Y-91362530D01*
G37*
X117082908Y-91362530D02*
X117059862Y-91658309D01*
X117036677Y-91935740D01*
X117014504Y-92182769D01*
X116994492Y-92387345D01*
X116977793Y-92537415D01*
X116965556Y-92620927D01*
X116961579Y-92633859D01*
X116938496Y-92613644D01*
X116921867Y-92572220D01*
X116910255Y-92503406D01*
X116894953Y-92368933D01*
X116877496Y-92187651D01*
X116859417Y-91978406D01*
X116842251Y-91760046D01*
X116827534Y-91551419D01*
X116816798Y-91371372D01*
X116811580Y-91238753D01*
X116811316Y-91214364D01*
X116818686Y-91121727D01*
X116858288Y-91083992D01*
X116956077Y-91076781D01*
X116957787Y-91076780D01*
X117104361Y-91076780D01*
X117082908Y-91362530D01*
G36*
X104803057Y-91214364D02*
G01*
X104769746Y-91341867D01*
X104732435Y-91385316D01*
X104689923Y-91345274D01*
X104661292Y-91281071D01*
X104608186Y-91140280D01*
X104574243Y-91309614D01*
X104552069Y-91442043D01*
X104528225Y-91617786D01*
X104510371Y-91775280D01*
X104480441Y-92071614D01*
X104417470Y-91923447D01*
X104374942Y-91832574D01*
X104347954Y-91812204D01*
X104322780Y-91853388D01*
X104320078Y-91859947D01*
X104296393Y-91948338D01*
X104272224Y-92085257D01*
X104258973Y-92187363D01*
X104232143Y-92353197D01*
X104197797Y-92440226D01*
X104157672Y-92446603D01*
X104113503Y-92370486D01*
X104105977Y-92349955D01*
X104056029Y-92247473D01*
X104009442Y-92228449D01*
X103970302Y-92292946D01*
X103956520Y-92347661D01*
X103923452Y-92460327D01*
X103889012Y-92490178D01*
X103857987Y-92436801D01*
X103841957Y-92357543D01*
X103824117Y-92222191D01*
X103803618Y-92051519D01*
X103792755Y-91954625D01*
X103769484Y-91806869D01*
X103741945Y-91743572D01*
X103711773Y-91764734D01*
X103680606Y-91870355D01*
X103665186Y-91954676D01*
X103632722Y-92156280D01*
X103601704Y-92008114D01*
X103584674Y-91898494D01*
X103565939Y-91733578D01*
X103548674Y-91542597D01*
X103543095Y-91468364D01*
X103515504Y-91076780D01*
X104828763Y-91076780D01*
X104803057Y-91214364D01*
X104803057Y-91214364D01*
G37*
X104803057Y-91214364D02*
X104769746Y-91341867D01*
X104732435Y-91385316D01*
X104689923Y-91345274D01*
X104661292Y-91281071D01*
X104608186Y-91140280D01*
X104574243Y-91309614D01*
X104552069Y-91442043D01*
X104528225Y-91617786D01*
X104510371Y-91775280D01*
X104480441Y-92071614D01*
X104417470Y-91923447D01*
X104374942Y-91832574D01*
X104347954Y-91812204D01*
X104322780Y-91853388D01*
X104320078Y-91859947D01*
X104296393Y-91948338D01*
X104272224Y-92085257D01*
X104258973Y-92187363D01*
X104232143Y-92353197D01*
X104197797Y-92440226D01*
X104157672Y-92446603D01*
X104113503Y-92370486D01*
X104105977Y-92349955D01*
X104056029Y-92247473D01*
X104009442Y-92228449D01*
X103970302Y-92292946D01*
X103956520Y-92347661D01*
X103923452Y-92460327D01*
X103889012Y-92490178D01*
X103857987Y-92436801D01*
X103841957Y-92357543D01*
X103824117Y-92222191D01*
X103803618Y-92051519D01*
X103792755Y-91954625D01*
X103769484Y-91806869D01*
X103741945Y-91743572D01*
X103711773Y-91764734D01*
X103680606Y-91870355D01*
X103665186Y-91954676D01*
X103632722Y-92156280D01*
X103601704Y-92008114D01*
X103584674Y-91898494D01*
X103565939Y-91733578D01*
X103548674Y-91542597D01*
X103543095Y-91468364D01*
X103515504Y-91076780D01*
X104828763Y-91076780D01*
X104803057Y-91214364D01*
G36*
X107729195Y-91553030D02*
G01*
X107714162Y-91764806D01*
X107696964Y-91962960D01*
X107680012Y-92121631D01*
X107669009Y-92198614D01*
X107638645Y-92367947D01*
X107583239Y-92252858D01*
X107530755Y-92171299D01*
X107488386Y-92170758D01*
X107453154Y-92252683D01*
X107437539Y-92323661D01*
X107403960Y-92444087D01*
X107366022Y-92491656D01*
X107330409Y-92462311D01*
X107311671Y-92400066D01*
X107298996Y-92313274D01*
X107282018Y-92163112D01*
X107262950Y-91970626D01*
X107244005Y-91756863D01*
X107243882Y-91755385D01*
X107217324Y-91485583D01*
X107189577Y-91299826D01*
X107160465Y-91197500D01*
X107129811Y-91177990D01*
X107097441Y-91240682D01*
X107096871Y-91242467D01*
X107058099Y-91304791D01*
X107017653Y-91294155D01*
X106992179Y-91220261D01*
X106989880Y-91180115D01*
X106993155Y-91131376D01*
X107013788Y-91101030D01*
X107067994Y-91084721D01*
X107171987Y-91078092D01*
X107341979Y-91076786D01*
X107374448Y-91076780D01*
X107759016Y-91076780D01*
X107729195Y-91553030D01*
X107729195Y-91553030D01*
G37*
X107729195Y-91553030D02*
X107714162Y-91764806D01*
X107696964Y-91962960D01*
X107680012Y-92121631D01*
X107669009Y-92198614D01*
X107638645Y-92367947D01*
X107583239Y-92252858D01*
X107530755Y-92171299D01*
X107488386Y-92170758D01*
X107453154Y-92252683D01*
X107437539Y-92323661D01*
X107403960Y-92444087D01*
X107366022Y-92491656D01*
X107330409Y-92462311D01*
X107311671Y-92400066D01*
X107298996Y-92313274D01*
X107282018Y-92163112D01*
X107262950Y-91970626D01*
X107244005Y-91756863D01*
X107243882Y-91755385D01*
X107217324Y-91485583D01*
X107189577Y-91299826D01*
X107160465Y-91197500D01*
X107129811Y-91177990D01*
X107097441Y-91240682D01*
X107096871Y-91242467D01*
X107058099Y-91304791D01*
X107017653Y-91294155D01*
X106992179Y-91220261D01*
X106989880Y-91180115D01*
X106993155Y-91131376D01*
X107013788Y-91101030D01*
X107067994Y-91084721D01*
X107171987Y-91078092D01*
X107341979Y-91076786D01*
X107374448Y-91076780D01*
X107759016Y-91076780D01*
X107729195Y-91553030D01*
G36*
X117555331Y-91256697D02*
G01*
X117541750Y-91373001D01*
X117522948Y-91547740D01*
X117501654Y-91755059D01*
X117485001Y-91923447D01*
X117456927Y-92182458D01*
X117431121Y-92357090D01*
X117407461Y-92447598D01*
X117385829Y-92454237D01*
X117366104Y-92377260D01*
X117348165Y-92216923D01*
X117347911Y-92213905D01*
X117332646Y-92023442D01*
X117315009Y-91790316D01*
X117298140Y-91556352D01*
X117293512Y-91489530D01*
X117265280Y-91076780D01*
X117578401Y-91076780D01*
X117555331Y-91256697D01*
X117555331Y-91256697D01*
G37*
X117555331Y-91256697D02*
X117541750Y-91373001D01*
X117522948Y-91547740D01*
X117501654Y-91755059D01*
X117485001Y-91923447D01*
X117456927Y-92182458D01*
X117431121Y-92357090D01*
X117407461Y-92447598D01*
X117385829Y-92454237D01*
X117366104Y-92377260D01*
X117348165Y-92216923D01*
X117347911Y-92213905D01*
X117332646Y-92023442D01*
X117315009Y-91790316D01*
X117298140Y-91556352D01*
X117293512Y-91489530D01*
X117265280Y-91076780D01*
X117578401Y-91076780D01*
X117555331Y-91256697D01*
G36*
X113868732Y-91341364D02*
G01*
X113831790Y-91706797D01*
X113799657Y-91991492D01*
X113771817Y-92199210D01*
X113747755Y-92333710D01*
X113726956Y-92398755D01*
X113723234Y-92403669D01*
X113700153Y-92383043D01*
X113671366Y-92296086D01*
X113642387Y-92160387D01*
X113636981Y-92128502D01*
X113599543Y-91908867D01*
X113558434Y-91684920D01*
X113517469Y-91475754D01*
X113480466Y-91300464D01*
X113451240Y-91178142D01*
X113439023Y-91138112D01*
X113441734Y-91102551D01*
X113494736Y-91083618D01*
X113613173Y-91077010D01*
X113654953Y-91076780D01*
X113894417Y-91076780D01*
X113868732Y-91341364D01*
X113868732Y-91341364D01*
G37*
X113868732Y-91341364D02*
X113831790Y-91706797D01*
X113799657Y-91991492D01*
X113771817Y-92199210D01*
X113747755Y-92333710D01*
X113726956Y-92398755D01*
X113723234Y-92403669D01*
X113700153Y-92383043D01*
X113671366Y-92296086D01*
X113642387Y-92160387D01*
X113636981Y-92128502D01*
X113599543Y-91908867D01*
X113558434Y-91684920D01*
X113517469Y-91475754D01*
X113480466Y-91300464D01*
X113451240Y-91178142D01*
X113439023Y-91138112D01*
X113441734Y-91102551D01*
X113494736Y-91083618D01*
X113613173Y-91077010D01*
X113654953Y-91076780D01*
X113894417Y-91076780D01*
X113868732Y-91341364D01*
G36*
X112020459Y-91081989D02*
G01*
X112119133Y-91095613D01*
X112154547Y-91113732D01*
X112138607Y-91171445D01*
X112098118Y-91276271D01*
X112071304Y-91338869D01*
X112035024Y-91446550D01*
X111991873Y-91611935D01*
X111947298Y-91808965D01*
X111906747Y-92011577D01*
X111875668Y-92193711D01*
X111859509Y-92329305D01*
X111858383Y-92357364D01*
X111842737Y-92396305D01*
X111808328Y-92375434D01*
X111772755Y-92311401D01*
X111758971Y-92263318D01*
X111744729Y-92170304D01*
X111725703Y-92016162D01*
X111704616Y-91824095D01*
X111688218Y-91660068D01*
X111668420Y-91464086D01*
X111649535Y-91297081D01*
X111633877Y-91178397D01*
X111624747Y-91129697D01*
X111639796Y-91099263D01*
X111717507Y-91082349D01*
X111868305Y-91076799D01*
X111880708Y-91076780D01*
X112020459Y-91081989D01*
X112020459Y-91081989D01*
G37*
X112020459Y-91081989D02*
X112119133Y-91095613D01*
X112154547Y-91113732D01*
X112138607Y-91171445D01*
X112098118Y-91276271D01*
X112071304Y-91338869D01*
X112035024Y-91446550D01*
X111991873Y-91611935D01*
X111947298Y-91808965D01*
X111906747Y-92011577D01*
X111875668Y-92193711D01*
X111859509Y-92329305D01*
X111858383Y-92357364D01*
X111842737Y-92396305D01*
X111808328Y-92375434D01*
X111772755Y-92311401D01*
X111758971Y-92263318D01*
X111744729Y-92170304D01*
X111725703Y-92016162D01*
X111704616Y-91824095D01*
X111688218Y-91660068D01*
X111668420Y-91464086D01*
X111649535Y-91297081D01*
X111633877Y-91178397D01*
X111624747Y-91129697D01*
X111639796Y-91099263D01*
X111717507Y-91082349D01*
X111868305Y-91076799D01*
X111880708Y-91076780D01*
X112020459Y-91081989D01*
G36*
X114878487Y-91081461D02*
G01*
X114930430Y-91100750D01*
X114934480Y-91142520D01*
X114932189Y-91150864D01*
X114918782Y-91222439D01*
X114900101Y-91356847D01*
X114878959Y-91532642D01*
X114864140Y-91669447D01*
X114834812Y-91940732D01*
X114810104Y-92137752D01*
X114788152Y-92270663D01*
X114767096Y-92349617D01*
X114745072Y-92384770D01*
X114732169Y-92389114D01*
X114695008Y-92359595D01*
X114694547Y-92354133D01*
X114690543Y-92289764D01*
X114679847Y-92161871D01*
X114664432Y-91991152D01*
X114646269Y-91798305D01*
X114627333Y-91604028D01*
X114609594Y-91429020D01*
X114595027Y-91293979D01*
X114587938Y-91235530D01*
X114566546Y-91076780D01*
X114760399Y-91076780D01*
X114878487Y-91081461D01*
X114878487Y-91081461D01*
G37*
X114878487Y-91081461D02*
X114930430Y-91100750D01*
X114934480Y-91142520D01*
X114932189Y-91150864D01*
X114918782Y-91222439D01*
X114900101Y-91356847D01*
X114878959Y-91532642D01*
X114864140Y-91669447D01*
X114834812Y-91940732D01*
X114810104Y-92137752D01*
X114788152Y-92270663D01*
X114767096Y-92349617D01*
X114745072Y-92384770D01*
X114732169Y-92389114D01*
X114695008Y-92359595D01*
X114694547Y-92354133D01*
X114690543Y-92289764D01*
X114679847Y-92161871D01*
X114664432Y-91991152D01*
X114646269Y-91798305D01*
X114627333Y-91604028D01*
X114609594Y-91429020D01*
X114595027Y-91293979D01*
X114587938Y-91235530D01*
X114566546Y-91076780D01*
X114760399Y-91076780D01*
X114878487Y-91081461D01*
G36*
X116624582Y-91214364D02*
G01*
X116610737Y-91325822D01*
X116594527Y-91487341D01*
X116579397Y-91664514D01*
X116579017Y-91669447D01*
X116554583Y-91951172D01*
X116530443Y-92153510D01*
X116505729Y-92281730D01*
X116479577Y-92341104D01*
X116467740Y-92346780D01*
X116430598Y-92332100D01*
X116430213Y-92329651D01*
X116425221Y-92256460D01*
X116411795Y-92124262D01*
X116392263Y-91951730D01*
X116368954Y-91757537D01*
X116344194Y-91560356D01*
X116320312Y-91378861D01*
X116299636Y-91231725D01*
X116284492Y-91137621D01*
X116278623Y-91113574D01*
X116302332Y-91092071D01*
X116388212Y-91078820D01*
X116450800Y-91076780D01*
X116645716Y-91076780D01*
X116624582Y-91214364D01*
X116624582Y-91214364D01*
G37*
X116624582Y-91214364D02*
X116610737Y-91325822D01*
X116594527Y-91487341D01*
X116579397Y-91664514D01*
X116579017Y-91669447D01*
X116554583Y-91951172D01*
X116530443Y-92153510D01*
X116505729Y-92281730D01*
X116479577Y-92341104D01*
X116467740Y-92346780D01*
X116430598Y-92332100D01*
X116430213Y-92329651D01*
X116425221Y-92256460D01*
X116411795Y-92124262D01*
X116392263Y-91951730D01*
X116368954Y-91757537D01*
X116344194Y-91560356D01*
X116320312Y-91378861D01*
X116299636Y-91231725D01*
X116284492Y-91137621D01*
X116278623Y-91113574D01*
X116302332Y-91092071D01*
X116388212Y-91078820D01*
X116450800Y-91076780D01*
X116645716Y-91076780D01*
X116624582Y-91214364D01*
G36*
X78479571Y-91604392D02*
G01*
X78427301Y-91805727D01*
X78379345Y-91977052D01*
X78340633Y-92101654D01*
X78316094Y-92162816D01*
X78314196Y-92165242D01*
X78266460Y-92167427D01*
X78211691Y-92092554D01*
X78153461Y-91947562D01*
X78095668Y-91740740D01*
X78027603Y-91482315D01*
X77965767Y-91303040D01*
X77907988Y-91197815D01*
X77852097Y-91161543D01*
X77849041Y-91161447D01*
X77820867Y-91168265D01*
X77792677Y-91196703D01*
X77758799Y-91258735D01*
X77713556Y-91366336D01*
X77651275Y-91531481D01*
X77578216Y-91732947D01*
X77509651Y-91880275D01*
X77437944Y-91943904D01*
X77359868Y-91923909D01*
X77272193Y-91820365D01*
X77225834Y-91741162D01*
X77150676Y-91612508D01*
X77079379Y-91507344D01*
X77047707Y-91469464D01*
X77000238Y-91432792D01*
X76948837Y-91434299D01*
X76867991Y-91479249D01*
X76810320Y-91518434D01*
X76696107Y-91588923D01*
X76598885Y-91616953D01*
X76475456Y-91612410D01*
X76426956Y-91606186D01*
X76293265Y-91593067D01*
X76203852Y-91607346D01*
X76119964Y-91659851D01*
X76063500Y-91707752D01*
X75954222Y-91795549D01*
X75866404Y-91837023D01*
X75787498Y-91826429D01*
X75704953Y-91758019D01*
X75606222Y-91626045D01*
X75491761Y-91445914D01*
X75389118Y-91297764D01*
X75304581Y-91225168D01*
X75227230Y-91224145D01*
X75146145Y-91290710D01*
X75127488Y-91313070D01*
X75062792Y-91402041D01*
X75029581Y-91463571D01*
X75028423Y-91470006D01*
X75009844Y-91538326D01*
X74961818Y-91654380D01*
X74895210Y-91796567D01*
X74820885Y-91943288D01*
X74749708Y-92072941D01*
X74692545Y-92163925D01*
X74664049Y-92194418D01*
X74594720Y-92183327D01*
X74527446Y-92133125D01*
X74479419Y-92059099D01*
X74412645Y-91926863D01*
X74337401Y-91757743D01*
X74288433Y-91637153D01*
X74218100Y-91461902D01*
X74155762Y-91315367D01*
X74109547Y-91216176D01*
X74091003Y-91184730D01*
X74056409Y-91123363D01*
X74054547Y-91110647D01*
X74095592Y-91104250D01*
X74213579Y-91098248D01*
X74400781Y-91092756D01*
X74649475Y-91087887D01*
X74951934Y-91083758D01*
X75300433Y-91080482D01*
X75687248Y-91078174D01*
X76104653Y-91076950D01*
X76333127Y-91076780D01*
X78611708Y-91076780D01*
X78479571Y-91604392D01*
X78479571Y-91604392D01*
G37*
X78479571Y-91604392D02*
X78427301Y-91805727D01*
X78379345Y-91977052D01*
X78340633Y-92101654D01*
X78316094Y-92162816D01*
X78314196Y-92165242D01*
X78266460Y-92167427D01*
X78211691Y-92092554D01*
X78153461Y-91947562D01*
X78095668Y-91740740D01*
X78027603Y-91482315D01*
X77965767Y-91303040D01*
X77907988Y-91197815D01*
X77852097Y-91161543D01*
X77849041Y-91161447D01*
X77820867Y-91168265D01*
X77792677Y-91196703D01*
X77758799Y-91258735D01*
X77713556Y-91366336D01*
X77651275Y-91531481D01*
X77578216Y-91732947D01*
X77509651Y-91880275D01*
X77437944Y-91943904D01*
X77359868Y-91923909D01*
X77272193Y-91820365D01*
X77225834Y-91741162D01*
X77150676Y-91612508D01*
X77079379Y-91507344D01*
X77047707Y-91469464D01*
X77000238Y-91432792D01*
X76948837Y-91434299D01*
X76867991Y-91479249D01*
X76810320Y-91518434D01*
X76696107Y-91588923D01*
X76598885Y-91616953D01*
X76475456Y-91612410D01*
X76426956Y-91606186D01*
X76293265Y-91593067D01*
X76203852Y-91607346D01*
X76119964Y-91659851D01*
X76063500Y-91707752D01*
X75954222Y-91795549D01*
X75866404Y-91837023D01*
X75787498Y-91826429D01*
X75704953Y-91758019D01*
X75606222Y-91626045D01*
X75491761Y-91445914D01*
X75389118Y-91297764D01*
X75304581Y-91225168D01*
X75227230Y-91224145D01*
X75146145Y-91290710D01*
X75127488Y-91313070D01*
X75062792Y-91402041D01*
X75029581Y-91463571D01*
X75028423Y-91470006D01*
X75009844Y-91538326D01*
X74961818Y-91654380D01*
X74895210Y-91796567D01*
X74820885Y-91943288D01*
X74749708Y-92072941D01*
X74692545Y-92163925D01*
X74664049Y-92194418D01*
X74594720Y-92183327D01*
X74527446Y-92133125D01*
X74479419Y-92059099D01*
X74412645Y-91926863D01*
X74337401Y-91757743D01*
X74288433Y-91637153D01*
X74218100Y-91461902D01*
X74155762Y-91315367D01*
X74109547Y-91216176D01*
X74091003Y-91184730D01*
X74056409Y-91123363D01*
X74054547Y-91110647D01*
X74095592Y-91104250D01*
X74213579Y-91098248D01*
X74400781Y-91092756D01*
X74649475Y-91087887D01*
X74951934Y-91083758D01*
X75300433Y-91080482D01*
X75687248Y-91078174D01*
X76104653Y-91076950D01*
X76333127Y-91076780D01*
X78611708Y-91076780D01*
X78479571Y-91604392D01*
G36*
X79233235Y-91078726D02*
G01*
X79328187Y-91087137D01*
X79369940Y-91105874D01*
X79374207Y-91138799D01*
X79370895Y-91150864D01*
X79352573Y-91221041D01*
X79321097Y-91353528D01*
X79281238Y-91527888D01*
X79246738Y-91682801D01*
X79190202Y-91923423D01*
X79142646Y-92086081D01*
X79101185Y-92176641D01*
X79062932Y-92200970D01*
X79025001Y-92164934D01*
X79016804Y-92150242D01*
X78991196Y-92077201D01*
X78954614Y-91942594D01*
X78912616Y-91767891D01*
X78883131Y-91633989D01*
X78842519Y-91446785D01*
X78806183Y-91287237D01*
X78778851Y-91175683D01*
X78767432Y-91136572D01*
X78770981Y-91105683D01*
X78820075Y-91087268D01*
X78928595Y-91078578D01*
X79069370Y-91076780D01*
X79233235Y-91078726D01*
X79233235Y-91078726D01*
G37*
X79233235Y-91078726D02*
X79328187Y-91087137D01*
X79369940Y-91105874D01*
X79374207Y-91138799D01*
X79370895Y-91150864D01*
X79352573Y-91221041D01*
X79321097Y-91353528D01*
X79281238Y-91527888D01*
X79246738Y-91682801D01*
X79190202Y-91923423D01*
X79142646Y-92086081D01*
X79101185Y-92176641D01*
X79062932Y-92200970D01*
X79025001Y-92164934D01*
X79016804Y-92150242D01*
X78991196Y-92077201D01*
X78954614Y-91942594D01*
X78912616Y-91767891D01*
X78883131Y-91633989D01*
X78842519Y-91446785D01*
X78806183Y-91287237D01*
X78778851Y-91175683D01*
X78767432Y-91136572D01*
X78770981Y-91105683D01*
X78820075Y-91087268D01*
X78928595Y-91078578D01*
X79069370Y-91076780D01*
X79233235Y-91078726D01*
G36*
X117940283Y-91277864D02*
G01*
X117923613Y-91425305D01*
X117904225Y-91614902D01*
X117887154Y-91796447D01*
X117868810Y-91959283D01*
X117846725Y-92093656D01*
X117825350Y-92173070D01*
X117823159Y-92177447D01*
X117794056Y-92219239D01*
X117786361Y-92184359D01*
X117786167Y-92176336D01*
X117780626Y-92104221D01*
X117767050Y-91970470D01*
X117747985Y-91797449D01*
X117725977Y-91607525D01*
X117703572Y-91423063D01*
X117683316Y-91266432D01*
X117679067Y-91235530D01*
X117668703Y-91132013D01*
X117690885Y-91087457D01*
X117766280Y-91076991D01*
X117811000Y-91076780D01*
X117965121Y-91076780D01*
X117940283Y-91277864D01*
X117940283Y-91277864D01*
G37*
X117940283Y-91277864D02*
X117923613Y-91425305D01*
X117904225Y-91614902D01*
X117887154Y-91796447D01*
X117868810Y-91959283D01*
X117846725Y-92093656D01*
X117825350Y-92173070D01*
X117823159Y-92177447D01*
X117794056Y-92219239D01*
X117786361Y-92184359D01*
X117786167Y-92176336D01*
X117780626Y-92104221D01*
X117767050Y-91970470D01*
X117747985Y-91797449D01*
X117725977Y-91607525D01*
X117703572Y-91423063D01*
X117683316Y-91266432D01*
X117679067Y-91235530D01*
X117668703Y-91132013D01*
X117690885Y-91087457D01*
X117766280Y-91076991D01*
X117811000Y-91076780D01*
X117965121Y-91076780D01*
X117940283Y-91277864D01*
G36*
X83393478Y-91193197D02*
G01*
X83376229Y-91285764D01*
X83349681Y-91436193D01*
X83318329Y-91618807D01*
X83302657Y-91711780D01*
X83259872Y-91941553D01*
X83222245Y-92087929D01*
X83189282Y-92151988D01*
X83160485Y-92134810D01*
X83140497Y-92065214D01*
X83122092Y-91969303D01*
X83093870Y-91817141D01*
X83060839Y-91635834D01*
X83047831Y-91563614D01*
X83004353Y-91338965D01*
X82966809Y-91194862D01*
X82931986Y-91131870D01*
X82896667Y-91150552D01*
X82857641Y-91251473D01*
X82811691Y-91435197D01*
X82774037Y-91611665D01*
X82734366Y-91791153D01*
X82696469Y-91939482D01*
X82665668Y-92036919D01*
X82652205Y-92063389D01*
X82627803Y-92040914D01*
X82591065Y-91950453D01*
X82547319Y-91806821D01*
X82515607Y-91683519D01*
X82469744Y-91509291D01*
X82425872Y-91370900D01*
X82389970Y-91285801D01*
X82373047Y-91267280D01*
X82340197Y-91304420D01*
X82291551Y-91402754D01*
X82236542Y-91542659D01*
X82225441Y-91574384D01*
X82170468Y-91718091D01*
X82119751Y-91821901D01*
X82082631Y-91867323D01*
X82077274Y-91867663D01*
X82034095Y-91823812D01*
X81976761Y-91730178D01*
X81955302Y-91687559D01*
X81882144Y-91553774D01*
X81817874Y-91495298D01*
X81747840Y-91506110D01*
X81668261Y-91569636D01*
X81571141Y-91643121D01*
X81476498Y-91657853D01*
X81426898Y-91649675D01*
X81294505Y-91645371D01*
X81204957Y-91671547D01*
X81141854Y-91694465D01*
X81083667Y-91677150D01*
X81005794Y-91608918D01*
X80966467Y-91567994D01*
X80875352Y-91484823D01*
X80802522Y-91441863D01*
X80777647Y-91441496D01*
X80737912Y-91492551D01*
X80680229Y-91596804D01*
X80631759Y-91699263D01*
X80566783Y-91825214D01*
X80508927Y-91900096D01*
X80477735Y-91912878D01*
X80441447Y-91867127D01*
X80390723Y-91760442D01*
X80334847Y-91613164D01*
X80318232Y-91563377D01*
X80263035Y-91407947D01*
X80210777Y-91287017D01*
X80170535Y-91220851D01*
X80162012Y-91214658D01*
X80131137Y-91244574D01*
X80085953Y-91332654D01*
X80035296Y-91455622D01*
X79988007Y-91590201D01*
X79952924Y-91713113D01*
X79938885Y-91801083D01*
X79938880Y-91802266D01*
X79923639Y-91863545D01*
X79885746Y-91967252D01*
X79872780Y-91998890D01*
X79828608Y-92094668D01*
X79798740Y-92121076D01*
X79768499Y-92088300D01*
X79761451Y-92076136D01*
X79739214Y-92013928D01*
X79703793Y-91890807D01*
X79660610Y-91728455D01*
X79615085Y-91548556D01*
X79572639Y-91372795D01*
X79538692Y-91222854D01*
X79518665Y-91120418D01*
X79515547Y-91092452D01*
X79556488Y-91089260D01*
X79673747Y-91086286D01*
X79858974Y-91083598D01*
X80103820Y-91081262D01*
X80399936Y-91079346D01*
X80738972Y-91077916D01*
X81112579Y-91077040D01*
X81466243Y-91076780D01*
X83416940Y-91076780D01*
X83393478Y-91193197D01*
X83393478Y-91193197D01*
G37*
X83393478Y-91193197D02*
X83376229Y-91285764D01*
X83349681Y-91436193D01*
X83318329Y-91618807D01*
X83302657Y-91711780D01*
X83259872Y-91941553D01*
X83222245Y-92087929D01*
X83189282Y-92151988D01*
X83160485Y-92134810D01*
X83140497Y-92065214D01*
X83122092Y-91969303D01*
X83093870Y-91817141D01*
X83060839Y-91635834D01*
X83047831Y-91563614D01*
X83004353Y-91338965D01*
X82966809Y-91194862D01*
X82931986Y-91131870D01*
X82896667Y-91150552D01*
X82857641Y-91251473D01*
X82811691Y-91435197D01*
X82774037Y-91611665D01*
X82734366Y-91791153D01*
X82696469Y-91939482D01*
X82665668Y-92036919D01*
X82652205Y-92063389D01*
X82627803Y-92040914D01*
X82591065Y-91950453D01*
X82547319Y-91806821D01*
X82515607Y-91683519D01*
X82469744Y-91509291D01*
X82425872Y-91370900D01*
X82389970Y-91285801D01*
X82373047Y-91267280D01*
X82340197Y-91304420D01*
X82291551Y-91402754D01*
X82236542Y-91542659D01*
X82225441Y-91574384D01*
X82170468Y-91718091D01*
X82119751Y-91821901D01*
X82082631Y-91867323D01*
X82077274Y-91867663D01*
X82034095Y-91823812D01*
X81976761Y-91730178D01*
X81955302Y-91687559D01*
X81882144Y-91553774D01*
X81817874Y-91495298D01*
X81747840Y-91506110D01*
X81668261Y-91569636D01*
X81571141Y-91643121D01*
X81476498Y-91657853D01*
X81426898Y-91649675D01*
X81294505Y-91645371D01*
X81204957Y-91671547D01*
X81141854Y-91694465D01*
X81083667Y-91677150D01*
X81005794Y-91608918D01*
X80966467Y-91567994D01*
X80875352Y-91484823D01*
X80802522Y-91441863D01*
X80777647Y-91441496D01*
X80737912Y-91492551D01*
X80680229Y-91596804D01*
X80631759Y-91699263D01*
X80566783Y-91825214D01*
X80508927Y-91900096D01*
X80477735Y-91912878D01*
X80441447Y-91867127D01*
X80390723Y-91760442D01*
X80334847Y-91613164D01*
X80318232Y-91563377D01*
X80263035Y-91407947D01*
X80210777Y-91287017D01*
X80170535Y-91220851D01*
X80162012Y-91214658D01*
X80131137Y-91244574D01*
X80085953Y-91332654D01*
X80035296Y-91455622D01*
X79988007Y-91590201D01*
X79952924Y-91713113D01*
X79938885Y-91801083D01*
X79938880Y-91802266D01*
X79923639Y-91863545D01*
X79885746Y-91967252D01*
X79872780Y-91998890D01*
X79828608Y-92094668D01*
X79798740Y-92121076D01*
X79768499Y-92088300D01*
X79761451Y-92076136D01*
X79739214Y-92013928D01*
X79703793Y-91890807D01*
X79660610Y-91728455D01*
X79615085Y-91548556D01*
X79572639Y-91372795D01*
X79538692Y-91222854D01*
X79518665Y-91120418D01*
X79515547Y-91092452D01*
X79556488Y-91089260D01*
X79673747Y-91086286D01*
X79858974Y-91083598D01*
X80103820Y-91081262D01*
X80399936Y-91079346D01*
X80738972Y-91077916D01*
X81112579Y-91077040D01*
X81466243Y-91076780D01*
X83416940Y-91076780D01*
X83393478Y-91193197D01*
G36*
X88221740Y-91172030D02*
G01*
X88206248Y-91254940D01*
X88184497Y-91397526D01*
X88160101Y-91575375D01*
X88148097Y-91669447D01*
X88114507Y-91910886D01*
X88083974Y-92068840D01*
X88056111Y-92144423D01*
X88030532Y-92138746D01*
X88009748Y-92068135D01*
X87992545Y-91968666D01*
X87968763Y-91814289D01*
X87942830Y-91634044D01*
X87936043Y-91584780D01*
X87902849Y-91364160D01*
X87873527Y-91224928D01*
X87846166Y-91164002D01*
X87818857Y-91178303D01*
X87789689Y-91264749D01*
X87775548Y-91325898D01*
X87748656Y-91460127D01*
X87731395Y-91563228D01*
X87727977Y-91597447D01*
X87717120Y-91668407D01*
X87690425Y-91781726D01*
X87681371Y-91815299D01*
X87644720Y-91913066D01*
X87610934Y-91929211D01*
X87579108Y-91862788D01*
X87548335Y-91712849D01*
X87541745Y-91669447D01*
X87509652Y-91512882D01*
X87469367Y-91410329D01*
X87426676Y-91374086D01*
X87407242Y-91383640D01*
X87382186Y-91438577D01*
X87349272Y-91548213D01*
X87327657Y-91636414D01*
X87293607Y-91760106D01*
X87259388Y-91841283D01*
X87240500Y-91859947D01*
X87210863Y-91822574D01*
X87168794Y-91724679D01*
X87124187Y-91589993D01*
X87079876Y-91460094D01*
X87039337Y-91376434D01*
X87011165Y-91356640D01*
X87010654Y-91357160D01*
X86979349Y-91415861D01*
X86935308Y-91527001D01*
X86904515Y-91616530D01*
X86859002Y-91738625D01*
X86817600Y-91819350D01*
X86796761Y-91838780D01*
X86761602Y-91802764D01*
X86720309Y-91713865D01*
X86712408Y-91691203D01*
X86658614Y-91564587D01*
X86600996Y-91516455D01*
X86529032Y-91540889D01*
X86494789Y-91568824D01*
X86381168Y-91632412D01*
X86242143Y-91658894D01*
X86109302Y-91647257D01*
X86014230Y-91596487D01*
X86004557Y-91584555D01*
X85939039Y-91514836D01*
X85878931Y-91515952D01*
X85810633Y-91591682D01*
X85775271Y-91648280D01*
X85714159Y-91741211D01*
X85668063Y-91792757D01*
X85659635Y-91796447D01*
X85630970Y-91760110D01*
X85587576Y-91666767D01*
X85556242Y-91584780D01*
X85507464Y-91466391D01*
X85462899Y-91389571D01*
X85441987Y-91373114D01*
X85411027Y-91410473D01*
X85368172Y-91508169D01*
X85324991Y-91637697D01*
X85279935Y-91772804D01*
X85238080Y-91868156D01*
X85209757Y-91902280D01*
X85181809Y-91864453D01*
X85143359Y-91764915D01*
X85102386Y-91624579D01*
X85099520Y-91613334D01*
X85059623Y-91466033D01*
X85023947Y-91353010D01*
X84999950Y-91297801D01*
X84999271Y-91297060D01*
X84958203Y-91299397D01*
X84914789Y-91383657D01*
X84870168Y-91547166D01*
X84849547Y-91648280D01*
X84807650Y-91835519D01*
X84765689Y-91959480D01*
X84726901Y-92011990D01*
X84707521Y-92006888D01*
X84691541Y-91959288D01*
X84664586Y-91847569D01*
X84631076Y-91690863D01*
X84609969Y-91584780D01*
X84572624Y-91413080D01*
X84535469Y-91277926D01*
X84503885Y-91197314D01*
X84489713Y-91182614D01*
X84461072Y-91220813D01*
X84427015Y-91320850D01*
X84395592Y-91457780D01*
X84350322Y-91696084D01*
X84316958Y-91863471D01*
X84292270Y-91972326D01*
X84273030Y-92035034D01*
X84256006Y-92063982D01*
X84237970Y-92071553D01*
X84235524Y-92071614D01*
X84211169Y-92032706D01*
X84179983Y-91928065D01*
X84146811Y-91775818D01*
X84128018Y-91669447D01*
X84082386Y-91410490D01*
X84042085Y-91235437D01*
X84005218Y-91143834D01*
X83969887Y-91135228D01*
X83934196Y-91209164D01*
X83896247Y-91365189D01*
X83854143Y-91602849D01*
X83853973Y-91603908D01*
X83810752Y-91849840D01*
X83772752Y-92015365D01*
X83738693Y-92104496D01*
X83707296Y-92121243D01*
X83693661Y-92106180D01*
X83676486Y-92049277D01*
X83650652Y-91929309D01*
X83620393Y-91766888D01*
X83603382Y-91666827D01*
X83571832Y-91481551D01*
X83542211Y-91319183D01*
X83519044Y-91204057D01*
X83511355Y-91172030D01*
X83485005Y-91076780D01*
X88245392Y-91076780D01*
X88221740Y-91172030D01*
X88221740Y-91172030D01*
G37*
X88221740Y-91172030D02*
X88206248Y-91254940D01*
X88184497Y-91397526D01*
X88160101Y-91575375D01*
X88148097Y-91669447D01*
X88114507Y-91910886D01*
X88083974Y-92068840D01*
X88056111Y-92144423D01*
X88030532Y-92138746D01*
X88009748Y-92068135D01*
X87992545Y-91968666D01*
X87968763Y-91814289D01*
X87942830Y-91634044D01*
X87936043Y-91584780D01*
X87902849Y-91364160D01*
X87873527Y-91224928D01*
X87846166Y-91164002D01*
X87818857Y-91178303D01*
X87789689Y-91264749D01*
X87775548Y-91325898D01*
X87748656Y-91460127D01*
X87731395Y-91563228D01*
X87727977Y-91597447D01*
X87717120Y-91668407D01*
X87690425Y-91781726D01*
X87681371Y-91815299D01*
X87644720Y-91913066D01*
X87610934Y-91929211D01*
X87579108Y-91862788D01*
X87548335Y-91712849D01*
X87541745Y-91669447D01*
X87509652Y-91512882D01*
X87469367Y-91410329D01*
X87426676Y-91374086D01*
X87407242Y-91383640D01*
X87382186Y-91438577D01*
X87349272Y-91548213D01*
X87327657Y-91636414D01*
X87293607Y-91760106D01*
X87259388Y-91841283D01*
X87240500Y-91859947D01*
X87210863Y-91822574D01*
X87168794Y-91724679D01*
X87124187Y-91589993D01*
X87079876Y-91460094D01*
X87039337Y-91376434D01*
X87011165Y-91356640D01*
X87010654Y-91357160D01*
X86979349Y-91415861D01*
X86935308Y-91527001D01*
X86904515Y-91616530D01*
X86859002Y-91738625D01*
X86817600Y-91819350D01*
X86796761Y-91838780D01*
X86761602Y-91802764D01*
X86720309Y-91713865D01*
X86712408Y-91691203D01*
X86658614Y-91564587D01*
X86600996Y-91516455D01*
X86529032Y-91540889D01*
X86494789Y-91568824D01*
X86381168Y-91632412D01*
X86242143Y-91658894D01*
X86109302Y-91647257D01*
X86014230Y-91596487D01*
X86004557Y-91584555D01*
X85939039Y-91514836D01*
X85878931Y-91515952D01*
X85810633Y-91591682D01*
X85775271Y-91648280D01*
X85714159Y-91741211D01*
X85668063Y-91792757D01*
X85659635Y-91796447D01*
X85630970Y-91760110D01*
X85587576Y-91666767D01*
X85556242Y-91584780D01*
X85507464Y-91466391D01*
X85462899Y-91389571D01*
X85441987Y-91373114D01*
X85411027Y-91410473D01*
X85368172Y-91508169D01*
X85324991Y-91637697D01*
X85279935Y-91772804D01*
X85238080Y-91868156D01*
X85209757Y-91902280D01*
X85181809Y-91864453D01*
X85143359Y-91764915D01*
X85102386Y-91624579D01*
X85099520Y-91613334D01*
X85059623Y-91466033D01*
X85023947Y-91353010D01*
X84999950Y-91297801D01*
X84999271Y-91297060D01*
X84958203Y-91299397D01*
X84914789Y-91383657D01*
X84870168Y-91547166D01*
X84849547Y-91648280D01*
X84807650Y-91835519D01*
X84765689Y-91959480D01*
X84726901Y-92011990D01*
X84707521Y-92006888D01*
X84691541Y-91959288D01*
X84664586Y-91847569D01*
X84631076Y-91690863D01*
X84609969Y-91584780D01*
X84572624Y-91413080D01*
X84535469Y-91277926D01*
X84503885Y-91197314D01*
X84489713Y-91182614D01*
X84461072Y-91220813D01*
X84427015Y-91320850D01*
X84395592Y-91457780D01*
X84350322Y-91696084D01*
X84316958Y-91863471D01*
X84292270Y-91972326D01*
X84273030Y-92035034D01*
X84256006Y-92063982D01*
X84237970Y-92071553D01*
X84235524Y-92071614D01*
X84211169Y-92032706D01*
X84179983Y-91928065D01*
X84146811Y-91775818D01*
X84128018Y-91669447D01*
X84082386Y-91410490D01*
X84042085Y-91235437D01*
X84005218Y-91143834D01*
X83969887Y-91135228D01*
X83934196Y-91209164D01*
X83896247Y-91365189D01*
X83854143Y-91602849D01*
X83853973Y-91603908D01*
X83810752Y-91849840D01*
X83772752Y-92015365D01*
X83738693Y-92104496D01*
X83707296Y-92121243D01*
X83693661Y-92106180D01*
X83676486Y-92049277D01*
X83650652Y-91929309D01*
X83620393Y-91766888D01*
X83603382Y-91666827D01*
X83571832Y-91481551D01*
X83542211Y-91319183D01*
X83519044Y-91204057D01*
X83511355Y-91172030D01*
X83485005Y-91076780D01*
X88245392Y-91076780D01*
X88221740Y-91172030D01*
G36*
X88812825Y-91077793D02*
G01*
X88918322Y-91083762D01*
X88970586Y-91099081D01*
X88985334Y-91128146D01*
X88979010Y-91172030D01*
X88965530Y-91253977D01*
X88946264Y-91396609D01*
X88924286Y-91576411D01*
X88911267Y-91690614D01*
X88888324Y-91872688D01*
X88864238Y-92022888D01*
X88842470Y-92121428D01*
X88831216Y-92148391D01*
X88810168Y-92128484D01*
X88787263Y-92042935D01*
X88768140Y-91915557D01*
X88738363Y-91688720D01*
X88704958Y-91498253D01*
X88670876Y-91356957D01*
X88639067Y-91277629D01*
X88618527Y-91266468D01*
X88593422Y-91317431D01*
X88567994Y-91423172D01*
X88557465Y-91489010D01*
X88527166Y-91709305D01*
X88504678Y-91856905D01*
X88487271Y-91943124D01*
X88472213Y-91979273D01*
X88456775Y-91976667D01*
X88444296Y-91957872D01*
X88420811Y-91885980D01*
X88392602Y-91756721D01*
X88365408Y-91596749D01*
X88363003Y-91580347D01*
X88337972Y-91413122D01*
X88314745Y-91268280D01*
X88298106Y-91175578D01*
X88297358Y-91172030D01*
X88291347Y-91126001D01*
X88308007Y-91097855D01*
X88363071Y-91083200D01*
X88472273Y-91077640D01*
X88638380Y-91076780D01*
X88812825Y-91077793D01*
X88812825Y-91077793D01*
G37*
X88812825Y-91077793D02*
X88918322Y-91083762D01*
X88970586Y-91099081D01*
X88985334Y-91128146D01*
X88979010Y-91172030D01*
X88965530Y-91253977D01*
X88946264Y-91396609D01*
X88924286Y-91576411D01*
X88911267Y-91690614D01*
X88888324Y-91872688D01*
X88864238Y-92022888D01*
X88842470Y-92121428D01*
X88831216Y-92148391D01*
X88810168Y-92128484D01*
X88787263Y-92042935D01*
X88768140Y-91915557D01*
X88738363Y-91688720D01*
X88704958Y-91498253D01*
X88670876Y-91356957D01*
X88639067Y-91277629D01*
X88618527Y-91266468D01*
X88593422Y-91317431D01*
X88567994Y-91423172D01*
X88557465Y-91489010D01*
X88527166Y-91709305D01*
X88504678Y-91856905D01*
X88487271Y-91943124D01*
X88472213Y-91979273D01*
X88456775Y-91976667D01*
X88444296Y-91957872D01*
X88420811Y-91885980D01*
X88392602Y-91756721D01*
X88365408Y-91596749D01*
X88363003Y-91580347D01*
X88337972Y-91413122D01*
X88314745Y-91268280D01*
X88298106Y-91175578D01*
X88297358Y-91172030D01*
X88291347Y-91126001D01*
X88308007Y-91097855D01*
X88363071Y-91083200D01*
X88472273Y-91077640D01*
X88638380Y-91076780D01*
X88812825Y-91077793D01*
G36*
X93583691Y-91078462D02*
G01*
X93759091Y-91084068D01*
X93868916Y-91094442D01*
X93922683Y-91110425D01*
X93931218Y-91129697D01*
X93914004Y-91198067D01*
X93887620Y-91319491D01*
X93865927Y-91426600D01*
X93828572Y-91569028D01*
X93791126Y-91635108D01*
X93759374Y-91623101D01*
X93739100Y-91531267D01*
X93735327Y-91465865D01*
X93723484Y-91328423D01*
X93700548Y-91208810D01*
X93699071Y-91203780D01*
X93667035Y-91097947D01*
X93640643Y-91203780D01*
X93624910Y-91290799D01*
X93604296Y-91437742D01*
X93582070Y-91620260D01*
X93569970Y-91730514D01*
X93549883Y-91909358D01*
X93531271Y-92053673D01*
X93516686Y-92144746D01*
X93510521Y-92166584D01*
X93496091Y-92136778D01*
X93473315Y-92044034D01*
X93449175Y-91919603D01*
X93411781Y-91737703D01*
X93377046Y-91639561D01*
X93342914Y-91625327D01*
X93307328Y-91695154D01*
X93268233Y-91849194D01*
X93251188Y-91934231D01*
X93222351Y-92058720D01*
X93195317Y-92130885D01*
X93175951Y-92135114D01*
X93161871Y-92070900D01*
X93141974Y-91946214D01*
X93119331Y-91784779D01*
X93097008Y-91610321D01*
X93078076Y-91446566D01*
X93065603Y-91317239D01*
X93062332Y-91256697D01*
X93038038Y-91207483D01*
X93024036Y-91203780D01*
X92999476Y-91242133D01*
X92974072Y-91341844D01*
X92956380Y-91457780D01*
X92936110Y-91591545D01*
X92913093Y-91683566D01*
X92895460Y-91711780D01*
X92870603Y-91673996D01*
X92838230Y-91576007D01*
X92811937Y-91468364D01*
X92779883Y-91322534D01*
X92752018Y-91202567D01*
X92738847Y-91150864D01*
X92736798Y-91121961D01*
X92757884Y-91101702D01*
X92814268Y-91088571D01*
X92918111Y-91081051D01*
X93081574Y-91077627D01*
X93316820Y-91076782D01*
X93333198Y-91076780D01*
X93583691Y-91078462D01*
X93583691Y-91078462D01*
G37*
X93583691Y-91078462D02*
X93759091Y-91084068D01*
X93868916Y-91094442D01*
X93922683Y-91110425D01*
X93931218Y-91129697D01*
X93914004Y-91198067D01*
X93887620Y-91319491D01*
X93865927Y-91426600D01*
X93828572Y-91569028D01*
X93791126Y-91635108D01*
X93759374Y-91623101D01*
X93739100Y-91531267D01*
X93735327Y-91465865D01*
X93723484Y-91328423D01*
X93700548Y-91208810D01*
X93699071Y-91203780D01*
X93667035Y-91097947D01*
X93640643Y-91203780D01*
X93624910Y-91290799D01*
X93604296Y-91437742D01*
X93582070Y-91620260D01*
X93569970Y-91730514D01*
X93549883Y-91909358D01*
X93531271Y-92053673D01*
X93516686Y-92144746D01*
X93510521Y-92166584D01*
X93496091Y-92136778D01*
X93473315Y-92044034D01*
X93449175Y-91919603D01*
X93411781Y-91737703D01*
X93377046Y-91639561D01*
X93342914Y-91625327D01*
X93307328Y-91695154D01*
X93268233Y-91849194D01*
X93251188Y-91934231D01*
X93222351Y-92058720D01*
X93195317Y-92130885D01*
X93175951Y-92135114D01*
X93161871Y-92070900D01*
X93141974Y-91946214D01*
X93119331Y-91784779D01*
X93097008Y-91610321D01*
X93078076Y-91446566D01*
X93065603Y-91317239D01*
X93062332Y-91256697D01*
X93038038Y-91207483D01*
X93024036Y-91203780D01*
X92999476Y-91242133D01*
X92974072Y-91341844D01*
X92956380Y-91457780D01*
X92936110Y-91591545D01*
X92913093Y-91683566D01*
X92895460Y-91711780D01*
X92870603Y-91673996D01*
X92838230Y-91576007D01*
X92811937Y-91468364D01*
X92779883Y-91322534D01*
X92752018Y-91202567D01*
X92738847Y-91150864D01*
X92736798Y-91121961D01*
X92757884Y-91101702D01*
X92814268Y-91088571D01*
X92918111Y-91081051D01*
X93081574Y-91077627D01*
X93316820Y-91076782D01*
X93333198Y-91076780D01*
X93583691Y-91078462D01*
G36*
X98298178Y-91172030D02*
G01*
X98282345Y-91262402D01*
X98263095Y-91405067D01*
X98245858Y-91557379D01*
X98222512Y-91712500D01*
X98195959Y-91785283D01*
X98170790Y-91777696D01*
X98151593Y-91691710D01*
X98142958Y-91529291D01*
X98142861Y-91513195D01*
X98135817Y-91384426D01*
X98118488Y-91294227D01*
X98104622Y-91270211D01*
X98086274Y-91270635D01*
X98069332Y-91304057D01*
X98051447Y-91381928D01*
X98030273Y-91515701D01*
X98003460Y-91716826D01*
X97988269Y-91837661D01*
X97965395Y-91958889D01*
X97940012Y-92000605D01*
X97916327Y-91967697D01*
X97898547Y-91865054D01*
X97891189Y-91724862D01*
X97878508Y-91588632D01*
X97851701Y-91530267D01*
X97818838Y-91551553D01*
X97787987Y-91654272D01*
X97780452Y-91700377D01*
X97755712Y-91859304D01*
X97728497Y-92011511D01*
X97720647Y-92050447D01*
X97689371Y-92198614D01*
X97656907Y-91997010D01*
X97631213Y-91874640D01*
X97602636Y-91791665D01*
X97589691Y-91773927D01*
X97559528Y-91797884D01*
X97520415Y-91882669D01*
X97497075Y-91954364D01*
X97439212Y-92156280D01*
X97377962Y-92032406D01*
X97307848Y-91923570D01*
X97245650Y-91898431D01*
X97189847Y-91956549D01*
X97180660Y-91975170D01*
X97136437Y-92071614D01*
X97093624Y-91965780D01*
X97042198Y-91838331D01*
X97008323Y-91754114D01*
X96975169Y-91685986D01*
X96952506Y-91692168D01*
X96940190Y-91722364D01*
X96902027Y-91830510D01*
X96887605Y-91870530D01*
X96864003Y-91888943D01*
X96830330Y-91833376D01*
X96787547Y-91711780D01*
X96744603Y-91584062D01*
X96713809Y-91536855D01*
X96683714Y-91569361D01*
X96642871Y-91680778D01*
X96636115Y-91701197D01*
X96613417Y-91738977D01*
X96581348Y-91711413D01*
X96545863Y-91648280D01*
X96487904Y-91541738D01*
X96452221Y-91501122D01*
X96423938Y-91516276D01*
X96402808Y-91550630D01*
X96346653Y-91599008D01*
X96243641Y-91601894D01*
X96221290Y-91598597D01*
X96092209Y-91597735D01*
X95981787Y-91627877D01*
X95901348Y-91657924D01*
X95849058Y-91630610D01*
X95833731Y-91611307D01*
X95759878Y-91548552D01*
X95696067Y-91567043D01*
X95666795Y-91616530D01*
X95641971Y-91648962D01*
X95607126Y-91621037D01*
X95551318Y-91523842D01*
X95550067Y-91521426D01*
X95495249Y-91420622D01*
X95462686Y-91386920D01*
X95437018Y-91411569D01*
X95420045Y-91447343D01*
X95361030Y-91528421D01*
X95298457Y-91527122D01*
X95239659Y-91445035D01*
X95223842Y-91404864D01*
X95181112Y-91322006D01*
X95140661Y-91322957D01*
X95103259Y-91406871D01*
X95069672Y-91572904D01*
X95069397Y-91574717D01*
X95040582Y-91712391D01*
X95009782Y-91767385D01*
X94979339Y-91739119D01*
X94951593Y-91627016D01*
X94948072Y-91604695D01*
X94924731Y-91496316D01*
X94897980Y-91437894D01*
X94885833Y-91434582D01*
X94863444Y-91483441D01*
X94834238Y-91594350D01*
X94803728Y-91745596D01*
X94796964Y-91784651D01*
X94741707Y-92113947D01*
X94682666Y-91912864D01*
X94641967Y-91797117D01*
X94603492Y-91724430D01*
X94587036Y-91711780D01*
X94551202Y-91749840D01*
X94508084Y-91849811D01*
X94465956Y-91990378D01*
X94447356Y-92071614D01*
X94429270Y-92120421D01*
X94408420Y-92098253D01*
X94383776Y-92001463D01*
X94354310Y-91826407D01*
X94330757Y-91659051D01*
X94300800Y-91479673D01*
X94269485Y-91364291D01*
X94240356Y-91317464D01*
X94216955Y-91343754D01*
X94202824Y-91447720D01*
X94200993Y-91492029D01*
X94192204Y-91597414D01*
X94174714Y-91701078D01*
X94153784Y-91782611D01*
X94134675Y-91821603D01*
X94122649Y-91797645D01*
X94122523Y-91796447D01*
X94112868Y-91726041D01*
X94093205Y-91597549D01*
X94067444Y-91436397D01*
X94062294Y-91404864D01*
X94008528Y-91076780D01*
X98320725Y-91076780D01*
X98298178Y-91172030D01*
X98298178Y-91172030D01*
G37*
X98298178Y-91172030D02*
X98282345Y-91262402D01*
X98263095Y-91405067D01*
X98245858Y-91557379D01*
X98222512Y-91712500D01*
X98195959Y-91785283D01*
X98170790Y-91777696D01*
X98151593Y-91691710D01*
X98142958Y-91529291D01*
X98142861Y-91513195D01*
X98135817Y-91384426D01*
X98118488Y-91294227D01*
X98104622Y-91270211D01*
X98086274Y-91270635D01*
X98069332Y-91304057D01*
X98051447Y-91381928D01*
X98030273Y-91515701D01*
X98003460Y-91716826D01*
X97988269Y-91837661D01*
X97965395Y-91958889D01*
X97940012Y-92000605D01*
X97916327Y-91967697D01*
X97898547Y-91865054D01*
X97891189Y-91724862D01*
X97878508Y-91588632D01*
X97851701Y-91530267D01*
X97818838Y-91551553D01*
X97787987Y-91654272D01*
X97780452Y-91700377D01*
X97755712Y-91859304D01*
X97728497Y-92011511D01*
X97720647Y-92050447D01*
X97689371Y-92198614D01*
X97656907Y-91997010D01*
X97631213Y-91874640D01*
X97602636Y-91791665D01*
X97589691Y-91773927D01*
X97559528Y-91797884D01*
X97520415Y-91882669D01*
X97497075Y-91954364D01*
X97439212Y-92156280D01*
X97377962Y-92032406D01*
X97307848Y-91923570D01*
X97245650Y-91898431D01*
X97189847Y-91956549D01*
X97180660Y-91975170D01*
X97136437Y-92071614D01*
X97093624Y-91965780D01*
X97042198Y-91838331D01*
X97008323Y-91754114D01*
X96975169Y-91685986D01*
X96952506Y-91692168D01*
X96940190Y-91722364D01*
X96902027Y-91830510D01*
X96887605Y-91870530D01*
X96864003Y-91888943D01*
X96830330Y-91833376D01*
X96787547Y-91711780D01*
X96744603Y-91584062D01*
X96713809Y-91536855D01*
X96683714Y-91569361D01*
X96642871Y-91680778D01*
X96636115Y-91701197D01*
X96613417Y-91738977D01*
X96581348Y-91711413D01*
X96545863Y-91648280D01*
X96487904Y-91541738D01*
X96452221Y-91501122D01*
X96423938Y-91516276D01*
X96402808Y-91550630D01*
X96346653Y-91599008D01*
X96243641Y-91601894D01*
X96221290Y-91598597D01*
X96092209Y-91597735D01*
X95981787Y-91627877D01*
X95901348Y-91657924D01*
X95849058Y-91630610D01*
X95833731Y-91611307D01*
X95759878Y-91548552D01*
X95696067Y-91567043D01*
X95666795Y-91616530D01*
X95641971Y-91648962D01*
X95607126Y-91621037D01*
X95551318Y-91523842D01*
X95550067Y-91521426D01*
X95495249Y-91420622D01*
X95462686Y-91386920D01*
X95437018Y-91411569D01*
X95420045Y-91447343D01*
X95361030Y-91528421D01*
X95298457Y-91527122D01*
X95239659Y-91445035D01*
X95223842Y-91404864D01*
X95181112Y-91322006D01*
X95140661Y-91322957D01*
X95103259Y-91406871D01*
X95069672Y-91572904D01*
X95069397Y-91574717D01*
X95040582Y-91712391D01*
X95009782Y-91767385D01*
X94979339Y-91739119D01*
X94951593Y-91627016D01*
X94948072Y-91604695D01*
X94924731Y-91496316D01*
X94897980Y-91437894D01*
X94885833Y-91434582D01*
X94863444Y-91483441D01*
X94834238Y-91594350D01*
X94803728Y-91745596D01*
X94796964Y-91784651D01*
X94741707Y-92113947D01*
X94682666Y-91912864D01*
X94641967Y-91797117D01*
X94603492Y-91724430D01*
X94587036Y-91711780D01*
X94551202Y-91749840D01*
X94508084Y-91849811D01*
X94465956Y-91990378D01*
X94447356Y-92071614D01*
X94429270Y-92120421D01*
X94408420Y-92098253D01*
X94383776Y-92001463D01*
X94354310Y-91826407D01*
X94330757Y-91659051D01*
X94300800Y-91479673D01*
X94269485Y-91364291D01*
X94240356Y-91317464D01*
X94216955Y-91343754D01*
X94202824Y-91447720D01*
X94200993Y-91492029D01*
X94192204Y-91597414D01*
X94174714Y-91701078D01*
X94153784Y-91782611D01*
X94134675Y-91821603D01*
X94122649Y-91797645D01*
X94122523Y-91796447D01*
X94112868Y-91726041D01*
X94093205Y-91597549D01*
X94067444Y-91436397D01*
X94062294Y-91404864D01*
X94008528Y-91076780D01*
X98320725Y-91076780D01*
X98298178Y-91172030D01*
G36*
X73524980Y-91520145D02*
G01*
X73394047Y-91780117D01*
X73286646Y-91965738D01*
X73192463Y-92080264D01*
X73101179Y-92126950D01*
X73002478Y-92109050D01*
X72886043Y-92029820D01*
X72741558Y-91892515D01*
X72649263Y-91796447D01*
X72505154Y-91646798D01*
X72402000Y-91549049D01*
X72323998Y-91492277D01*
X72255345Y-91465558D01*
X72180236Y-91457969D01*
X72159312Y-91457780D01*
X72032637Y-91473151D01*
X71865260Y-91513376D01*
X71699503Y-91567595D01*
X71500390Y-91630993D01*
X71324630Y-91654643D01*
X71150606Y-91635704D01*
X70956700Y-91571333D01*
X70721293Y-91458689D01*
X70671745Y-91432480D01*
X70488495Y-91337030D01*
X70309015Y-91247785D01*
X70162386Y-91179057D01*
X70117547Y-91159732D01*
X70073944Y-91141211D01*
X70045787Y-91125857D01*
X70039623Y-91113361D01*
X70062003Y-91103418D01*
X70119475Y-91095719D01*
X70218589Y-91089956D01*
X70365895Y-91085822D01*
X70567941Y-91083009D01*
X70831277Y-91081210D01*
X71162452Y-91080118D01*
X71568016Y-91079424D01*
X71834642Y-91079089D01*
X73742237Y-91076780D01*
X73524980Y-91520145D01*
X73524980Y-91520145D01*
G37*
X73524980Y-91520145D02*
X73394047Y-91780117D01*
X73286646Y-91965738D01*
X73192463Y-92080264D01*
X73101179Y-92126950D01*
X73002478Y-92109050D01*
X72886043Y-92029820D01*
X72741558Y-91892515D01*
X72649263Y-91796447D01*
X72505154Y-91646798D01*
X72402000Y-91549049D01*
X72323998Y-91492277D01*
X72255345Y-91465558D01*
X72180236Y-91457969D01*
X72159312Y-91457780D01*
X72032637Y-91473151D01*
X71865260Y-91513376D01*
X71699503Y-91567595D01*
X71500390Y-91630993D01*
X71324630Y-91654643D01*
X71150606Y-91635704D01*
X70956700Y-91571333D01*
X70721293Y-91458689D01*
X70671745Y-91432480D01*
X70488495Y-91337030D01*
X70309015Y-91247785D01*
X70162386Y-91179057D01*
X70117547Y-91159732D01*
X70073944Y-91141211D01*
X70045787Y-91125857D01*
X70039623Y-91113361D01*
X70062003Y-91103418D01*
X70119475Y-91095719D01*
X70218589Y-91089956D01*
X70365895Y-91085822D01*
X70567941Y-91083009D01*
X70831277Y-91081210D01*
X71162452Y-91080118D01*
X71568016Y-91079424D01*
X71834642Y-91079089D01*
X73742237Y-91076780D01*
X73524980Y-91520145D01*
G36*
X92665727Y-91193197D02*
G01*
X92647950Y-91292324D01*
X92622093Y-91443523D01*
X92593540Y-91615275D01*
X92591602Y-91627114D01*
X92564952Y-91779931D01*
X92543540Y-91858722D01*
X92522404Y-91861375D01*
X92496583Y-91785780D01*
X92461117Y-91629824D01*
X92447596Y-91565821D01*
X92419785Y-91490066D01*
X92386152Y-91498053D01*
X92347165Y-91589093D01*
X92303291Y-91762497D01*
X92298334Y-91785864D01*
X92266684Y-91909282D01*
X92234763Y-91989981D01*
X92217352Y-92008114D01*
X92191442Y-91970375D01*
X92164644Y-91874506D01*
X92153252Y-91810898D01*
X92125474Y-91664938D01*
X92091419Y-91536239D01*
X92080028Y-91503982D01*
X92036378Y-91394280D01*
X91988379Y-91528825D01*
X91938717Y-91648313D01*
X91897798Y-91687369D01*
X91856005Y-91648218D01*
X91818020Y-91568189D01*
X91758217Y-91454240D01*
X91706094Y-91423988D01*
X91657244Y-91477329D01*
X91622880Y-91563614D01*
X91576009Y-91674390D01*
X91528341Y-91706671D01*
X91468920Y-91666016D01*
X91454285Y-91649170D01*
X91386062Y-91609341D01*
X91324884Y-91628003D01*
X91206251Y-91663063D01*
X91069468Y-91665564D01*
X90951315Y-91637704D01*
X90900480Y-91602653D01*
X90854761Y-91562653D01*
X90811720Y-91583837D01*
X90773006Y-91631365D01*
X90700966Y-91726871D01*
X90607462Y-91543589D01*
X90548558Y-91442020D01*
X90503201Y-91407269D01*
X90464180Y-91443907D01*
X90424283Y-91556505D01*
X90392763Y-91679662D01*
X90358788Y-91796059D01*
X90325905Y-91868820D01*
X90311735Y-91881114D01*
X90285209Y-91843773D01*
X90258951Y-91750591D01*
X90252345Y-91714209D01*
X90215621Y-91571563D01*
X90168615Y-91509618D01*
X90117926Y-91526108D01*
X90070155Y-91618768D01*
X90031902Y-91785332D01*
X90031168Y-91790132D01*
X90007263Y-91898070D01*
X89980160Y-91924238D01*
X89949384Y-91867906D01*
X89914462Y-91728344D01*
X89884616Y-91564717D01*
X89844357Y-91352866D01*
X89807362Y-91220438D01*
X89774277Y-91169102D01*
X89745751Y-91200529D01*
X89744630Y-91203780D01*
X89728190Y-91274835D01*
X89704513Y-91403515D01*
X89678375Y-91563637D01*
X89675139Y-91584780D01*
X89640774Y-91799633D01*
X89613546Y-91933773D01*
X89590482Y-91990545D01*
X89568606Y-91973298D01*
X89544945Y-91885377D01*
X89521266Y-91757919D01*
X89489971Y-91600782D01*
X89457262Y-91475817D01*
X89429598Y-91407197D01*
X89426626Y-91403593D01*
X89392797Y-91412274D01*
X89355513Y-91483760D01*
X89321683Y-91596829D01*
X89298220Y-91730258D01*
X89291807Y-91817614D01*
X89282158Y-91904534D01*
X89261997Y-91994669D01*
X89238620Y-92064771D01*
X89219322Y-92091595D01*
X89212096Y-92071614D01*
X89204362Y-92013612D01*
X89186661Y-91892636D01*
X89162050Y-91729368D01*
X89146380Y-91627114D01*
X89119314Y-91444550D01*
X89098065Y-91288048D01*
X89085631Y-91180354D01*
X89083639Y-91150864D01*
X89087751Y-91132844D01*
X89105447Y-91117998D01*
X89144156Y-91106020D01*
X89211312Y-91096606D01*
X89314346Y-91089449D01*
X89460690Y-91084244D01*
X89657774Y-91080685D01*
X89913032Y-91078466D01*
X90233894Y-91077283D01*
X90627793Y-91076829D01*
X90885410Y-91076780D01*
X92687940Y-91076780D01*
X92665727Y-91193197D01*
X92665727Y-91193197D01*
G37*
X92665727Y-91193197D02*
X92647950Y-91292324D01*
X92622093Y-91443523D01*
X92593540Y-91615275D01*
X92591602Y-91627114D01*
X92564952Y-91779931D01*
X92543540Y-91858722D01*
X92522404Y-91861375D01*
X92496583Y-91785780D01*
X92461117Y-91629824D01*
X92447596Y-91565821D01*
X92419785Y-91490066D01*
X92386152Y-91498053D01*
X92347165Y-91589093D01*
X92303291Y-91762497D01*
X92298334Y-91785864D01*
X92266684Y-91909282D01*
X92234763Y-91989981D01*
X92217352Y-92008114D01*
X92191442Y-91970375D01*
X92164644Y-91874506D01*
X92153252Y-91810898D01*
X92125474Y-91664938D01*
X92091419Y-91536239D01*
X92080028Y-91503982D01*
X92036378Y-91394280D01*
X91988379Y-91528825D01*
X91938717Y-91648313D01*
X91897798Y-91687369D01*
X91856005Y-91648218D01*
X91818020Y-91568189D01*
X91758217Y-91454240D01*
X91706094Y-91423988D01*
X91657244Y-91477329D01*
X91622880Y-91563614D01*
X91576009Y-91674390D01*
X91528341Y-91706671D01*
X91468920Y-91666016D01*
X91454285Y-91649170D01*
X91386062Y-91609341D01*
X91324884Y-91628003D01*
X91206251Y-91663063D01*
X91069468Y-91665564D01*
X90951315Y-91637704D01*
X90900480Y-91602653D01*
X90854761Y-91562653D01*
X90811720Y-91583837D01*
X90773006Y-91631365D01*
X90700966Y-91726871D01*
X90607462Y-91543589D01*
X90548558Y-91442020D01*
X90503201Y-91407269D01*
X90464180Y-91443907D01*
X90424283Y-91556505D01*
X90392763Y-91679662D01*
X90358788Y-91796059D01*
X90325905Y-91868820D01*
X90311735Y-91881114D01*
X90285209Y-91843773D01*
X90258951Y-91750591D01*
X90252345Y-91714209D01*
X90215621Y-91571563D01*
X90168615Y-91509618D01*
X90117926Y-91526108D01*
X90070155Y-91618768D01*
X90031902Y-91785332D01*
X90031168Y-91790132D01*
X90007263Y-91898070D01*
X89980160Y-91924238D01*
X89949384Y-91867906D01*
X89914462Y-91728344D01*
X89884616Y-91564717D01*
X89844357Y-91352866D01*
X89807362Y-91220438D01*
X89774277Y-91169102D01*
X89745751Y-91200529D01*
X89744630Y-91203780D01*
X89728190Y-91274835D01*
X89704513Y-91403515D01*
X89678375Y-91563637D01*
X89675139Y-91584780D01*
X89640774Y-91799633D01*
X89613546Y-91933773D01*
X89590482Y-91990545D01*
X89568606Y-91973298D01*
X89544945Y-91885377D01*
X89521266Y-91757919D01*
X89489971Y-91600782D01*
X89457262Y-91475817D01*
X89429598Y-91407197D01*
X89426626Y-91403593D01*
X89392797Y-91412274D01*
X89355513Y-91483760D01*
X89321683Y-91596829D01*
X89298220Y-91730258D01*
X89291807Y-91817614D01*
X89282158Y-91904534D01*
X89261997Y-91994669D01*
X89238620Y-92064771D01*
X89219322Y-92091595D01*
X89212096Y-92071614D01*
X89204362Y-92013612D01*
X89186661Y-91892636D01*
X89162050Y-91729368D01*
X89146380Y-91627114D01*
X89119314Y-91444550D01*
X89098065Y-91288048D01*
X89085631Y-91180354D01*
X89083639Y-91150864D01*
X89087751Y-91132844D01*
X89105447Y-91117998D01*
X89144156Y-91106020D01*
X89211312Y-91096606D01*
X89314346Y-91089449D01*
X89460690Y-91084244D01*
X89657774Y-91080685D01*
X89913032Y-91078466D01*
X90233894Y-91077283D01*
X90627793Y-91076829D01*
X90885410Y-91076780D01*
X92687940Y-91076780D01*
X92665727Y-91193197D01*
G36*
X106756500Y-91341364D02*
G01*
X106727368Y-91541248D01*
X106694744Y-91660498D01*
X106659179Y-91697620D01*
X106633406Y-91674883D01*
X106581028Y-91628928D01*
X106535285Y-91664609D01*
X106503250Y-91764697D01*
X106463560Y-91938224D01*
X106427588Y-92030583D01*
X106390086Y-92044795D01*
X106345810Y-91983884D01*
X106301207Y-91881114D01*
X106238470Y-91761218D01*
X106168767Y-91713754D01*
X106148108Y-91711780D01*
X106060376Y-91677562D01*
X106016213Y-91627114D01*
X105962407Y-91559408D01*
X105896272Y-91553772D01*
X105803600Y-91612831D01*
X105729744Y-91680030D01*
X105641813Y-91760552D01*
X105591814Y-91786635D01*
X105559119Y-91764987D01*
X105543979Y-91740439D01*
X105506271Y-91688502D01*
X105464189Y-91698560D01*
X105420595Y-91735618D01*
X105373361Y-91774502D01*
X105341808Y-91777234D01*
X105316616Y-91730893D01*
X105288468Y-91622556D01*
X105266034Y-91521280D01*
X105233702Y-91411528D01*
X105191374Y-91366714D01*
X105140552Y-91364380D01*
X105068238Y-91350448D01*
X105016654Y-91272600D01*
X105004999Y-91241647D01*
X104973121Y-91146262D01*
X104958060Y-91093445D01*
X104957880Y-91091630D01*
X104998180Y-91087278D01*
X105110952Y-91083430D01*
X105283999Y-91080283D01*
X105505127Y-91078037D01*
X105762140Y-91076888D01*
X105872203Y-91076780D01*
X106786526Y-91076780D01*
X106756500Y-91341364D01*
X106756500Y-91341364D01*
G37*
X106756500Y-91341364D02*
X106727368Y-91541248D01*
X106694744Y-91660498D01*
X106659179Y-91697620D01*
X106633406Y-91674883D01*
X106581028Y-91628928D01*
X106535285Y-91664609D01*
X106503250Y-91764697D01*
X106463560Y-91938224D01*
X106427588Y-92030583D01*
X106390086Y-92044795D01*
X106345810Y-91983884D01*
X106301207Y-91881114D01*
X106238470Y-91761218D01*
X106168767Y-91713754D01*
X106148108Y-91711780D01*
X106060376Y-91677562D01*
X106016213Y-91627114D01*
X105962407Y-91559408D01*
X105896272Y-91553772D01*
X105803600Y-91612831D01*
X105729744Y-91680030D01*
X105641813Y-91760552D01*
X105591814Y-91786635D01*
X105559119Y-91764987D01*
X105543979Y-91740439D01*
X105506271Y-91688502D01*
X105464189Y-91698560D01*
X105420595Y-91735618D01*
X105373361Y-91774502D01*
X105341808Y-91777234D01*
X105316616Y-91730893D01*
X105288468Y-91622556D01*
X105266034Y-91521280D01*
X105233702Y-91411528D01*
X105191374Y-91366714D01*
X105140552Y-91364380D01*
X105068238Y-91350448D01*
X105016654Y-91272600D01*
X105004999Y-91241647D01*
X104973121Y-91146262D01*
X104958060Y-91093445D01*
X104957880Y-91091630D01*
X104998180Y-91087278D01*
X105110952Y-91083430D01*
X105283999Y-91080283D01*
X105505127Y-91078037D01*
X105762140Y-91076888D01*
X105872203Y-91076780D01*
X106786526Y-91076780D01*
X106756500Y-91341364D01*
G36*
X102561770Y-91299030D02*
G01*
X102543511Y-91426465D01*
X102527202Y-91514106D01*
X102519884Y-91537013D01*
X102502879Y-91509744D01*
X102474655Y-91422722D01*
X102457226Y-91357622D01*
X102422696Y-91248228D01*
X102389569Y-91187323D01*
X102375684Y-91182528D01*
X102356575Y-91231400D01*
X102335376Y-91342610D01*
X102316116Y-91494052D01*
X102312877Y-91526954D01*
X102291243Y-91695870D01*
X102266212Y-91780894D01*
X102238332Y-91781825D01*
X102208148Y-91698460D01*
X102183374Y-91574883D01*
X102154174Y-91469189D01*
X102121388Y-91442703D01*
X102092800Y-91490737D01*
X102076193Y-91608597D01*
X102074993Y-91640195D01*
X102064442Y-91781472D01*
X102043753Y-91904581D01*
X102038644Y-91923447D01*
X102017749Y-91978408D01*
X101998836Y-91974664D01*
X101973581Y-91902975D01*
X101953304Y-91828723D01*
X101909826Y-91706430D01*
X101868528Y-91657034D01*
X101837436Y-91683051D01*
X101824574Y-91786995D01*
X101824565Y-91788362D01*
X101811337Y-91914414D01*
X101776957Y-91964383D01*
X101726597Y-91935164D01*
X101687070Y-91870901D01*
X101640540Y-91784113D01*
X101614816Y-91766948D01*
X101594321Y-91812580D01*
X101589610Y-91828197D01*
X101547524Y-91909851D01*
X101495549Y-91907521D01*
X101442456Y-91835497D01*
X101386186Y-91775325D01*
X101340727Y-91768522D01*
X101278855Y-91761184D01*
X101163984Y-91722881D01*
X101018426Y-91661331D01*
X100983176Y-91644805D01*
X100835194Y-91576550D01*
X100715091Y-91525637D01*
X100644418Y-91501084D01*
X100637426Y-91500114D01*
X100573770Y-91478675D01*
X100488903Y-91430879D01*
X100406186Y-91389860D01*
X100356244Y-91388638D01*
X100308772Y-91384861D01*
X100253309Y-91346905D01*
X100171103Y-91302328D01*
X100115385Y-91301963D01*
X100039426Y-91293722D01*
X100003131Y-91265173D01*
X99919874Y-91224255D01*
X99856488Y-91228786D01*
X99770880Y-91230494D01*
X99731833Y-91207210D01*
X99672305Y-91172802D01*
X99589631Y-91160799D01*
X99479200Y-91145473D01*
X99412213Y-91119114D01*
X99434838Y-91107436D01*
X99540895Y-91097624D01*
X99729167Y-91089709D01*
X99998439Y-91083724D01*
X100347495Y-91079701D01*
X100775120Y-91077674D01*
X100969421Y-91077428D01*
X102590129Y-91076780D01*
X102561770Y-91299030D01*
X102561770Y-91299030D01*
G37*
X102561770Y-91299030D02*
X102543511Y-91426465D01*
X102527202Y-91514106D01*
X102519884Y-91537013D01*
X102502879Y-91509744D01*
X102474655Y-91422722D01*
X102457226Y-91357622D01*
X102422696Y-91248228D01*
X102389569Y-91187323D01*
X102375684Y-91182528D01*
X102356575Y-91231400D01*
X102335376Y-91342610D01*
X102316116Y-91494052D01*
X102312877Y-91526954D01*
X102291243Y-91695870D01*
X102266212Y-91780894D01*
X102238332Y-91781825D01*
X102208148Y-91698460D01*
X102183374Y-91574883D01*
X102154174Y-91469189D01*
X102121388Y-91442703D01*
X102092800Y-91490737D01*
X102076193Y-91608597D01*
X102074993Y-91640195D01*
X102064442Y-91781472D01*
X102043753Y-91904581D01*
X102038644Y-91923447D01*
X102017749Y-91978408D01*
X101998836Y-91974664D01*
X101973581Y-91902975D01*
X101953304Y-91828723D01*
X101909826Y-91706430D01*
X101868528Y-91657034D01*
X101837436Y-91683051D01*
X101824574Y-91786995D01*
X101824565Y-91788362D01*
X101811337Y-91914414D01*
X101776957Y-91964383D01*
X101726597Y-91935164D01*
X101687070Y-91870901D01*
X101640540Y-91784113D01*
X101614816Y-91766948D01*
X101594321Y-91812580D01*
X101589610Y-91828197D01*
X101547524Y-91909851D01*
X101495549Y-91907521D01*
X101442456Y-91835497D01*
X101386186Y-91775325D01*
X101340727Y-91768522D01*
X101278855Y-91761184D01*
X101163984Y-91722881D01*
X101018426Y-91661331D01*
X100983176Y-91644805D01*
X100835194Y-91576550D01*
X100715091Y-91525637D01*
X100644418Y-91501084D01*
X100637426Y-91500114D01*
X100573770Y-91478675D01*
X100488903Y-91430879D01*
X100406186Y-91389860D01*
X100356244Y-91388638D01*
X100308772Y-91384861D01*
X100253309Y-91346905D01*
X100171103Y-91302328D01*
X100115385Y-91301963D01*
X100039426Y-91293722D01*
X100003131Y-91265173D01*
X99919874Y-91224255D01*
X99856488Y-91228786D01*
X99770880Y-91230494D01*
X99731833Y-91207210D01*
X99672305Y-91172802D01*
X99589631Y-91160799D01*
X99479200Y-91145473D01*
X99412213Y-91119114D01*
X99434838Y-91107436D01*
X99540895Y-91097624D01*
X99729167Y-91089709D01*
X99998439Y-91083724D01*
X100347495Y-91079701D01*
X100775120Y-91077674D01*
X100969421Y-91077428D01*
X102590129Y-91076780D01*
X102561770Y-91299030D01*
G36*
X116176125Y-91214364D02*
G01*
X116151272Y-91326423D01*
X116120539Y-91487119D01*
X116091046Y-91658864D01*
X116062444Y-91807228D01*
X116032518Y-91916176D01*
X116007142Y-91964938D01*
X116004238Y-91965780D01*
X115973258Y-91928602D01*
X115931748Y-91832435D01*
X115899225Y-91732947D01*
X115840820Y-91579405D01*
X115779439Y-91507064D01*
X115716887Y-91517203D01*
X115673788Y-91573316D01*
X115638516Y-91621273D01*
X115597204Y-91611383D01*
X115547352Y-91569169D01*
X115470775Y-91517936D01*
X115414101Y-91531419D01*
X115367783Y-91616827D01*
X115334776Y-91729715D01*
X115288896Y-91872863D01*
X115243742Y-91941438D01*
X115202727Y-91931534D01*
X115186260Y-91899732D01*
X115166987Y-91825886D01*
X115141221Y-91696997D01*
X115116142Y-91550725D01*
X115089443Y-91390165D01*
X115064259Y-91251629D01*
X115047608Y-91172030D01*
X115024035Y-91076780D01*
X116211722Y-91076780D01*
X116176125Y-91214364D01*
X116176125Y-91214364D01*
G37*
X116176125Y-91214364D02*
X116151272Y-91326423D01*
X116120539Y-91487119D01*
X116091046Y-91658864D01*
X116062444Y-91807228D01*
X116032518Y-91916176D01*
X116007142Y-91964938D01*
X116004238Y-91965780D01*
X115973258Y-91928602D01*
X115931748Y-91832435D01*
X115899225Y-91732947D01*
X115840820Y-91579405D01*
X115779439Y-91507064D01*
X115716887Y-91517203D01*
X115673788Y-91573316D01*
X115638516Y-91621273D01*
X115597204Y-91611383D01*
X115547352Y-91569169D01*
X115470775Y-91517936D01*
X115414101Y-91531419D01*
X115367783Y-91616827D01*
X115334776Y-91729715D01*
X115288896Y-91872863D01*
X115243742Y-91941438D01*
X115202727Y-91931534D01*
X115186260Y-91899732D01*
X115166987Y-91825886D01*
X115141221Y-91696997D01*
X115116142Y-91550725D01*
X115089443Y-91390165D01*
X115064259Y-91251629D01*
X115047608Y-91172030D01*
X115024035Y-91076780D01*
X116211722Y-91076780D01*
X116176125Y-91214364D01*
G36*
X98499543Y-91095708D02*
G01*
X98518400Y-91166772D01*
X98518205Y-91214364D01*
X98506630Y-91351804D01*
X98485655Y-91466789D01*
X98460331Y-91541076D01*
X98435708Y-91556421D01*
X98427369Y-91542447D01*
X98408768Y-91463714D01*
X98390195Y-91338552D01*
X98383585Y-91277864D01*
X98376083Y-91155633D01*
X98388600Y-91095850D01*
X98427451Y-91077409D01*
X98443747Y-91076780D01*
X98499543Y-91095708D01*
X98499543Y-91095708D01*
G37*
X98499543Y-91095708D02*
X98518400Y-91166772D01*
X98518205Y-91214364D01*
X98506630Y-91351804D01*
X98485655Y-91466789D01*
X98460331Y-91541076D01*
X98435708Y-91556421D01*
X98427369Y-91542447D01*
X98408768Y-91463714D01*
X98390195Y-91338552D01*
X98383585Y-91277864D01*
X98376083Y-91155633D01*
X98388600Y-91095850D01*
X98427451Y-91077409D01*
X98443747Y-91076780D01*
X98499543Y-91095708D01*
G36*
X103435146Y-91085484D02*
G01*
X103449668Y-91126257D01*
X103435624Y-91221094D01*
X103428048Y-91256697D01*
X103395676Y-91400832D01*
X103374628Y-91472325D01*
X103358929Y-91481414D01*
X103342604Y-91438338D01*
X103336044Y-91414355D01*
X103306343Y-91246724D01*
X103317950Y-91131398D01*
X103369278Y-91078875D01*
X103387047Y-91076780D01*
X103435146Y-91085484D01*
X103435146Y-91085484D01*
G37*
X103435146Y-91085484D02*
X103449668Y-91126257D01*
X103435624Y-91221094D01*
X103428048Y-91256697D01*
X103395676Y-91400832D01*
X103374628Y-91472325D01*
X103358929Y-91481414D01*
X103342604Y-91438338D01*
X103336044Y-91414355D01*
X103306343Y-91246724D01*
X103317950Y-91131398D01*
X103369278Y-91078875D01*
X103387047Y-91076780D01*
X103435146Y-91085484D01*
G36*
X98763692Y-91094334D02*
G01*
X98764342Y-91161137D01*
X98761562Y-91172030D01*
X98740754Y-91270471D01*
X98735458Y-91320197D01*
X98721780Y-91375762D01*
X98692102Y-91366440D01*
X98660417Y-91306520D01*
X98642179Y-91224947D01*
X98638046Y-91124379D01*
X98664425Y-91082933D01*
X98705984Y-91076780D01*
X98763692Y-91094334D01*
X98763692Y-91094334D01*
G37*
X98763692Y-91094334D02*
X98764342Y-91161137D01*
X98761562Y-91172030D01*
X98740754Y-91270471D01*
X98735458Y-91320197D01*
X98721780Y-91375762D01*
X98692102Y-91366440D01*
X98660417Y-91306520D01*
X98642179Y-91224947D01*
X98638046Y-91124379D01*
X98664425Y-91082933D01*
X98705984Y-91076780D01*
X98763692Y-91094334D01*
G36*
X99020055Y-91102027D02*
G01*
X99014576Y-91143743D01*
X98992162Y-91211226D01*
X98988880Y-91228409D01*
X98956113Y-91245655D01*
X98946547Y-91246114D01*
X98912151Y-91210657D01*
X98904213Y-91161447D01*
X98932595Y-91091025D01*
X98972242Y-91076780D01*
X99020055Y-91102027D01*
X99020055Y-91102027D01*
G37*
X99020055Y-91102027D02*
X99014576Y-91143743D01*
X98992162Y-91211226D01*
X98988880Y-91228409D01*
X98956113Y-91245655D01*
X98946547Y-91246114D01*
X98912151Y-91210657D01*
X98904213Y-91161447D01*
X98932595Y-91091025D01*
X98972242Y-91076780D01*
X99020055Y-91102027D01*
G36*
X99268029Y-91097303D02*
G01*
X99264047Y-91119114D01*
X99209925Y-91159832D01*
X99198048Y-91161447D01*
X99159353Y-91129157D01*
X99158213Y-91119114D01*
X99192671Y-91081961D01*
X99224212Y-91076780D01*
X99268029Y-91097303D01*
X99268029Y-91097303D01*
G37*
X99268029Y-91097303D02*
X99264047Y-91119114D01*
X99209925Y-91159832D01*
X99198048Y-91161447D01*
X99159353Y-91129157D01*
X99158213Y-91119114D01*
X99192671Y-91081961D01*
X99224212Y-91076780D01*
X99268029Y-91097303D01*
G36*
X102784769Y-91090891D02*
G01*
X102789835Y-91141131D01*
X102784769Y-91147336D01*
X102759602Y-91141525D01*
X102756547Y-91119114D01*
X102772036Y-91084268D01*
X102784769Y-91090891D01*
X102784769Y-91090891D01*
G37*
X102784769Y-91090891D02*
X102789835Y-91141131D01*
X102784769Y-91147336D01*
X102759602Y-91141525D01*
X102756547Y-91119114D01*
X102772036Y-91084268D01*
X102784769Y-91090891D01*
G36*
X85058730Y-39660432D02*
G01*
X85503544Y-39693248D01*
X85911930Y-39756992D01*
X86056047Y-39790242D01*
X86436373Y-39919877D01*
X86764635Y-40097761D01*
X87034344Y-40317841D01*
X87239010Y-40574063D01*
X87372145Y-40860374D01*
X87417313Y-41060208D01*
X87443388Y-41250447D01*
X85844380Y-41249505D01*
X85759713Y-41028922D01*
X85670801Y-40855031D01*
X85547355Y-40722679D01*
X85377768Y-40625632D01*
X85150435Y-40557655D01*
X84853748Y-40512513D01*
X84785704Y-40505736D01*
X84455139Y-40500668D01*
X84170404Y-40548763D01*
X83938770Y-40647188D01*
X83767508Y-40793110D01*
X83681452Y-40935817D01*
X83647995Y-41106939D01*
X83681908Y-41270050D01*
X83775472Y-41400335D01*
X83839554Y-41444054D01*
X83913770Y-41468151D01*
X84059683Y-41503260D01*
X84265393Y-41546971D01*
X84519001Y-41596877D01*
X84808607Y-41650569D01*
X85122312Y-41705641D01*
X85183806Y-41716086D01*
X85613335Y-41790601D01*
X85968647Y-41857353D01*
X86259510Y-41919298D01*
X86495691Y-41979393D01*
X86686959Y-42040595D01*
X86843081Y-42105862D01*
X86973826Y-42178149D01*
X87088961Y-42260414D01*
X87149262Y-42311066D01*
X87331929Y-42510985D01*
X87453004Y-42741285D01*
X87518226Y-43016518D01*
X87534053Y-43287177D01*
X87530341Y-43479594D01*
X87514593Y-43621109D01*
X87479664Y-43745345D01*
X87418410Y-43885924D01*
X87397829Y-43928205D01*
X87229561Y-44197717D01*
X87010120Y-44419707D01*
X86731852Y-44599394D01*
X86387103Y-44741996D01*
X86077213Y-44828478D01*
X85899812Y-44858545D01*
X85657655Y-44883292D01*
X85370518Y-44902172D01*
X85058178Y-44914637D01*
X84740410Y-44920140D01*
X84436992Y-44918133D01*
X84167698Y-44908067D01*
X83952306Y-44889395D01*
X83939380Y-44887701D01*
X83472965Y-44796922D01*
X83075035Y-44660129D01*
X82746489Y-44478048D01*
X82488228Y-44251402D01*
X82301152Y-43980916D01*
X82186163Y-43667315D01*
X82151261Y-43449299D01*
X82128454Y-43197780D01*
X83654162Y-43197780D01*
X83703760Y-43394753D01*
X83800738Y-43617383D01*
X83966179Y-43791257D01*
X84197914Y-43914306D01*
X84274650Y-43939447D01*
X84466988Y-43977819D01*
X84703524Y-43998859D01*
X84961492Y-44003309D01*
X85218125Y-43991908D01*
X85450658Y-43965395D01*
X85636324Y-43924512D01*
X85717380Y-43892552D01*
X85897194Y-43763444D01*
X86014706Y-43605666D01*
X86068673Y-43434143D01*
X86057849Y-43263801D01*
X85980990Y-43109567D01*
X85836850Y-42986367D01*
X85794787Y-42964340D01*
X85702393Y-42934430D01*
X85539021Y-42896288D01*
X85317670Y-42852451D01*
X85051341Y-42805460D01*
X84753034Y-42757853D01*
X84685776Y-42747752D01*
X84297651Y-42688872D01*
X83981559Y-42637553D01*
X83725502Y-42591023D01*
X83517478Y-42546513D01*
X83345488Y-42501253D01*
X83197532Y-42452471D01*
X83061609Y-42397399D01*
X82956907Y-42348625D01*
X82680918Y-42173128D01*
X82474906Y-41950055D01*
X82339303Y-41680119D01*
X82274541Y-41364033D01*
X82268595Y-41211013D01*
X82308859Y-40866366D01*
X82423715Y-40559805D01*
X82610643Y-40294464D01*
X82867119Y-40073478D01*
X83190622Y-39899981D01*
X83378868Y-39831341D01*
X83737557Y-39744000D01*
X84152553Y-39686165D01*
X84600672Y-39658190D01*
X85058730Y-39660432D01*
X85058730Y-39660432D01*
G37*
X85058730Y-39660432D02*
X85503544Y-39693248D01*
X85911930Y-39756992D01*
X86056047Y-39790242D01*
X86436373Y-39919877D01*
X86764635Y-40097761D01*
X87034344Y-40317841D01*
X87239010Y-40574063D01*
X87372145Y-40860374D01*
X87417313Y-41060208D01*
X87443388Y-41250447D01*
X85844380Y-41249505D01*
X85759713Y-41028922D01*
X85670801Y-40855031D01*
X85547355Y-40722679D01*
X85377768Y-40625632D01*
X85150435Y-40557655D01*
X84853748Y-40512513D01*
X84785704Y-40505736D01*
X84455139Y-40500668D01*
X84170404Y-40548763D01*
X83938770Y-40647188D01*
X83767508Y-40793110D01*
X83681452Y-40935817D01*
X83647995Y-41106939D01*
X83681908Y-41270050D01*
X83775472Y-41400335D01*
X83839554Y-41444054D01*
X83913770Y-41468151D01*
X84059683Y-41503260D01*
X84265393Y-41546971D01*
X84519001Y-41596877D01*
X84808607Y-41650569D01*
X85122312Y-41705641D01*
X85183806Y-41716086D01*
X85613335Y-41790601D01*
X85968647Y-41857353D01*
X86259510Y-41919298D01*
X86495691Y-41979393D01*
X86686959Y-42040595D01*
X86843081Y-42105862D01*
X86973826Y-42178149D01*
X87088961Y-42260414D01*
X87149262Y-42311066D01*
X87331929Y-42510985D01*
X87453004Y-42741285D01*
X87518226Y-43016518D01*
X87534053Y-43287177D01*
X87530341Y-43479594D01*
X87514593Y-43621109D01*
X87479664Y-43745345D01*
X87418410Y-43885924D01*
X87397829Y-43928205D01*
X87229561Y-44197717D01*
X87010120Y-44419707D01*
X86731852Y-44599394D01*
X86387103Y-44741996D01*
X86077213Y-44828478D01*
X85899812Y-44858545D01*
X85657655Y-44883292D01*
X85370518Y-44902172D01*
X85058178Y-44914637D01*
X84740410Y-44920140D01*
X84436992Y-44918133D01*
X84167698Y-44908067D01*
X83952306Y-44889395D01*
X83939380Y-44887701D01*
X83472965Y-44796922D01*
X83075035Y-44660129D01*
X82746489Y-44478048D01*
X82488228Y-44251402D01*
X82301152Y-43980916D01*
X82186163Y-43667315D01*
X82151261Y-43449299D01*
X82128454Y-43197780D01*
X83654162Y-43197780D01*
X83703760Y-43394753D01*
X83800738Y-43617383D01*
X83966179Y-43791257D01*
X84197914Y-43914306D01*
X84274650Y-43939447D01*
X84466988Y-43977819D01*
X84703524Y-43998859D01*
X84961492Y-44003309D01*
X85218125Y-43991908D01*
X85450658Y-43965395D01*
X85636324Y-43924512D01*
X85717380Y-43892552D01*
X85897194Y-43763444D01*
X86014706Y-43605666D01*
X86068673Y-43434143D01*
X86057849Y-43263801D01*
X85980990Y-43109567D01*
X85836850Y-42986367D01*
X85794787Y-42964340D01*
X85702393Y-42934430D01*
X85539021Y-42896288D01*
X85317670Y-42852451D01*
X85051341Y-42805460D01*
X84753034Y-42757853D01*
X84685776Y-42747752D01*
X84297651Y-42688872D01*
X83981559Y-42637553D01*
X83725502Y-42591023D01*
X83517478Y-42546513D01*
X83345488Y-42501253D01*
X83197532Y-42452471D01*
X83061609Y-42397399D01*
X82956907Y-42348625D01*
X82680918Y-42173128D01*
X82474906Y-41950055D01*
X82339303Y-41680119D01*
X82274541Y-41364033D01*
X82268595Y-41211013D01*
X82308859Y-40866366D01*
X82423715Y-40559805D01*
X82610643Y-40294464D01*
X82867119Y-40073478D01*
X83190622Y-39899981D01*
X83378868Y-39831341D01*
X83737557Y-39744000D01*
X84152553Y-39686165D01*
X84600672Y-39658190D01*
X85058730Y-39660432D01*
G36*
X92765880Y-40742447D02*
G01*
X90903213Y-40742447D01*
X90903213Y-44848780D01*
X90232935Y-44848780D01*
X90002806Y-44847082D01*
X89803122Y-44842394D01*
X89648938Y-44835324D01*
X89555305Y-44826480D01*
X89534435Y-44820558D01*
X89528782Y-44773812D01*
X89523507Y-44650748D01*
X89518724Y-44459713D01*
X89514548Y-44209054D01*
X89511095Y-43907120D01*
X89508478Y-43562258D01*
X89506813Y-43182815D01*
X89506213Y-42777140D01*
X89506213Y-40742447D01*
X87643547Y-40742447D01*
X87643547Y-39811114D01*
X92765880Y-39811114D01*
X92765880Y-40742447D01*
X92765880Y-40742447D01*
G37*
X92765880Y-40742447D02*
X90903213Y-40742447D01*
X90903213Y-44848780D01*
X90232935Y-44848780D01*
X90002806Y-44847082D01*
X89803122Y-44842394D01*
X89648938Y-44835324D01*
X89555305Y-44826480D01*
X89534435Y-44820558D01*
X89528782Y-44773812D01*
X89523507Y-44650748D01*
X89518724Y-44459713D01*
X89514548Y-44209054D01*
X89511095Y-43907120D01*
X89508478Y-43562258D01*
X89506813Y-43182815D01*
X89506213Y-42777140D01*
X89506213Y-40742447D01*
X87643547Y-40742447D01*
X87643547Y-39811114D01*
X92765880Y-39811114D01*
X92765880Y-40742447D01*
G36*
X95712062Y-39811303D02*
G01*
X96108819Y-39812057D01*
X96436848Y-39813656D01*
X96704118Y-39816382D01*
X96918599Y-39820514D01*
X97088259Y-39826333D01*
X97221067Y-39834118D01*
X97324994Y-39844152D01*
X97408007Y-39856713D01*
X97478077Y-39872082D01*
X97543172Y-39890541D01*
X97549228Y-39892416D01*
X97855449Y-40018178D01*
X98092720Y-40187322D01*
X98269213Y-40408284D01*
X98393095Y-40689502D01*
X98423354Y-40795127D01*
X98470773Y-41117427D01*
X98450720Y-41429335D01*
X98368060Y-41717687D01*
X98227661Y-41969322D01*
X98034387Y-42171076D01*
X97877420Y-42271953D01*
X97706392Y-42359205D01*
X97870134Y-42451054D01*
X98059346Y-42603090D01*
X98205349Y-42815034D01*
X98271623Y-42981134D01*
X98292232Y-43081936D01*
X98315172Y-43245200D01*
X98337728Y-43448874D01*
X98357186Y-43670903D01*
X98358217Y-43684614D01*
X98385267Y-43996481D01*
X98416063Y-44239349D01*
X98453592Y-44428882D01*
X98500842Y-44580744D01*
X98549905Y-44690030D01*
X98610054Y-44806447D01*
X97139803Y-44806447D01*
X97084768Y-44690030D01*
X97061586Y-44604264D01*
X97038081Y-44454272D01*
X97016858Y-44260448D01*
X97000525Y-44043181D01*
X96999268Y-44021075D01*
X96977617Y-43726692D01*
X96946336Y-43503005D01*
X96900634Y-43336180D01*
X96835718Y-43212386D01*
X96746797Y-43117789D01*
X96666623Y-43060864D01*
X96613792Y-43030117D01*
X96559211Y-43006752D01*
X96490989Y-42989758D01*
X96397235Y-42978122D01*
X96266057Y-42970835D01*
X96085563Y-42966884D01*
X95843862Y-42965258D01*
X95538713Y-42964947D01*
X94565047Y-42964947D01*
X94553653Y-43906864D01*
X94542260Y-44848780D01*
X93189213Y-44848780D01*
X93189213Y-42012447D01*
X94543880Y-42012447D01*
X95528130Y-42011517D01*
X95848016Y-42010605D01*
X96095398Y-42007970D01*
X96282434Y-42002743D01*
X96421283Y-41994057D01*
X96524103Y-41981044D01*
X96603052Y-41962834D01*
X96670289Y-41938560D01*
X96693726Y-41928280D01*
X96836393Y-41841230D01*
X96931080Y-41718004D01*
X96957380Y-41664627D01*
X97007843Y-41534090D01*
X97037455Y-41420179D01*
X97040617Y-41388887D01*
X97006945Y-41205306D01*
X96915569Y-41024981D01*
X96786067Y-40883750D01*
X96751525Y-40859676D01*
X96699388Y-40829517D01*
X96644480Y-40806218D01*
X96575297Y-40788716D01*
X96480333Y-40775944D01*
X96348082Y-40766838D01*
X96167037Y-40760331D01*
X95925694Y-40755358D01*
X95612547Y-40750853D01*
X95570463Y-40750305D01*
X94543880Y-40736996D01*
X94543880Y-42012447D01*
X93189213Y-42012447D01*
X93189213Y-39811114D01*
X95238608Y-39811113D01*
X95712062Y-39811303D01*
X95712062Y-39811303D01*
G37*
X95712062Y-39811303D02*
X96108819Y-39812057D01*
X96436848Y-39813656D01*
X96704118Y-39816382D01*
X96918599Y-39820514D01*
X97088259Y-39826333D01*
X97221067Y-39834118D01*
X97324994Y-39844152D01*
X97408007Y-39856713D01*
X97478077Y-39872082D01*
X97543172Y-39890541D01*
X97549228Y-39892416D01*
X97855449Y-40018178D01*
X98092720Y-40187322D01*
X98269213Y-40408284D01*
X98393095Y-40689502D01*
X98423354Y-40795127D01*
X98470773Y-41117427D01*
X98450720Y-41429335D01*
X98368060Y-41717687D01*
X98227661Y-41969322D01*
X98034387Y-42171076D01*
X97877420Y-42271953D01*
X97706392Y-42359205D01*
X97870134Y-42451054D01*
X98059346Y-42603090D01*
X98205349Y-42815034D01*
X98271623Y-42981134D01*
X98292232Y-43081936D01*
X98315172Y-43245200D01*
X98337728Y-43448874D01*
X98357186Y-43670903D01*
X98358217Y-43684614D01*
X98385267Y-43996481D01*
X98416063Y-44239349D01*
X98453592Y-44428882D01*
X98500842Y-44580744D01*
X98549905Y-44690030D01*
X98610054Y-44806447D01*
X97139803Y-44806447D01*
X97084768Y-44690030D01*
X97061586Y-44604264D01*
X97038081Y-44454272D01*
X97016858Y-44260448D01*
X97000525Y-44043181D01*
X96999268Y-44021075D01*
X96977617Y-43726692D01*
X96946336Y-43503005D01*
X96900634Y-43336180D01*
X96835718Y-43212386D01*
X96746797Y-43117789D01*
X96666623Y-43060864D01*
X96613792Y-43030117D01*
X96559211Y-43006752D01*
X96490989Y-42989758D01*
X96397235Y-42978122D01*
X96266057Y-42970835D01*
X96085563Y-42966884D01*
X95843862Y-42965258D01*
X95538713Y-42964947D01*
X94565047Y-42964947D01*
X94553653Y-43906864D01*
X94542260Y-44848780D01*
X93189213Y-44848780D01*
X93189213Y-42012447D01*
X94543880Y-42012447D01*
X95528130Y-42011517D01*
X95848016Y-42010605D01*
X96095398Y-42007970D01*
X96282434Y-42002743D01*
X96421283Y-41994057D01*
X96524103Y-41981044D01*
X96603052Y-41962834D01*
X96670289Y-41938560D01*
X96693726Y-41928280D01*
X96836393Y-41841230D01*
X96931080Y-41718004D01*
X96957380Y-41664627D01*
X97007843Y-41534090D01*
X97037455Y-41420179D01*
X97040617Y-41388887D01*
X97006945Y-41205306D01*
X96915569Y-41024981D01*
X96786067Y-40883750D01*
X96751525Y-40859676D01*
X96699388Y-40829517D01*
X96644480Y-40806218D01*
X96575297Y-40788716D01*
X96480333Y-40775944D01*
X96348082Y-40766838D01*
X96167037Y-40760331D01*
X95925694Y-40755358D01*
X95612547Y-40750853D01*
X95570463Y-40750305D01*
X94543880Y-40736996D01*
X94543880Y-42012447D01*
X93189213Y-42012447D01*
X93189213Y-39811114D01*
X95238608Y-39811113D01*
X95712062Y-39811303D01*
G36*
X106257463Y-39820931D02*
G01*
X107260714Y-39832280D01*
X107980972Y-41599697D01*
X108129836Y-41963680D01*
X108269395Y-42302392D01*
X108396349Y-42608001D01*
X108507396Y-42872680D01*
X108599235Y-43088597D01*
X108668566Y-43247924D01*
X108712088Y-43342831D01*
X108726090Y-43367114D01*
X108746914Y-43329274D01*
X108796682Y-43220939D01*
X108872055Y-43049882D01*
X108969694Y-42823878D01*
X109086258Y-42550700D01*
X109218409Y-42238124D01*
X109362807Y-41893922D01*
X109489665Y-41589549D01*
X110228380Y-39811984D01*
X111233797Y-39811549D01*
X112239213Y-39811114D01*
X112239213Y-44848780D01*
X110927701Y-44848780D01*
X110916707Y-42827364D01*
X110905713Y-40805947D01*
X110099152Y-42816780D01*
X109292591Y-44827614D01*
X108160545Y-44827614D01*
X107382174Y-42837947D01*
X107229324Y-42448420D01*
X107084861Y-42082550D01*
X106951864Y-41747978D01*
X106833413Y-41452345D01*
X106732589Y-41203293D01*
X106652471Y-41008463D01*
X106596140Y-40875499D01*
X106566676Y-40812040D01*
X106564008Y-40808064D01*
X106554514Y-40839618D01*
X106546172Y-40952096D01*
X106539057Y-41141759D01*
X106533244Y-41404870D01*
X106528806Y-41737692D01*
X106525819Y-42136488D01*
X106524355Y-42597521D01*
X106524213Y-42808314D01*
X106524213Y-44848780D01*
X105254213Y-44848780D01*
X105254213Y-39809581D01*
X106257463Y-39820931D01*
X106257463Y-39820931D01*
G37*
X106257463Y-39820931D02*
X107260714Y-39832280D01*
X107980972Y-41599697D01*
X108129836Y-41963680D01*
X108269395Y-42302392D01*
X108396349Y-42608001D01*
X108507396Y-42872680D01*
X108599235Y-43088597D01*
X108668566Y-43247924D01*
X108712088Y-43342831D01*
X108726090Y-43367114D01*
X108746914Y-43329274D01*
X108796682Y-43220939D01*
X108872055Y-43049882D01*
X108969694Y-42823878D01*
X109086258Y-42550700D01*
X109218409Y-42238124D01*
X109362807Y-41893922D01*
X109489665Y-41589549D01*
X110228380Y-39811984D01*
X111233797Y-39811549D01*
X112239213Y-39811114D01*
X112239213Y-44848780D01*
X110927701Y-44848780D01*
X110916707Y-42827364D01*
X110905713Y-40805947D01*
X110099152Y-42816780D01*
X109292591Y-44827614D01*
X108160545Y-44827614D01*
X107382174Y-42837947D01*
X107229324Y-42448420D01*
X107084861Y-42082550D01*
X106951864Y-41747978D01*
X106833413Y-41452345D01*
X106732589Y-41203293D01*
X106652471Y-41008463D01*
X106596140Y-40875499D01*
X106566676Y-40812040D01*
X106564008Y-40808064D01*
X106554514Y-40839618D01*
X106546172Y-40952096D01*
X106539057Y-41141759D01*
X106533244Y-41404870D01*
X106528806Y-41737692D01*
X106525819Y-42136488D01*
X106524355Y-42597521D01*
X106524213Y-42808314D01*
X106524213Y-44848780D01*
X105254213Y-44848780D01*
X105254213Y-39809581D01*
X106257463Y-39820931D01*
G36*
X115170797Y-39819763D02*
G01*
X115634227Y-39822746D01*
X116020978Y-39825642D01*
X116339035Y-39828843D01*
X116596382Y-39832741D01*
X116801007Y-39837729D01*
X116960894Y-39844198D01*
X117084029Y-39852540D01*
X117178397Y-39863148D01*
X117251984Y-39876414D01*
X117312775Y-39892728D01*
X117368757Y-39912484D01*
X117412416Y-39929806D01*
X117673327Y-40069698D01*
X117905739Y-40259660D01*
X118088274Y-40480020D01*
X118167681Y-40624784D01*
X118239525Y-40857543D01*
X118280449Y-41140020D01*
X118288920Y-41442528D01*
X118263406Y-41735381D01*
X118232879Y-41887355D01*
X118138594Y-42148855D01*
X117998931Y-42395666D01*
X117830638Y-42601672D01*
X117708520Y-42705032D01*
X117607026Y-42772968D01*
X117512315Y-42827850D01*
X117413927Y-42871260D01*
X117301403Y-42904778D01*
X117164285Y-42929988D01*
X116992113Y-42948472D01*
X116774428Y-42961810D01*
X116500771Y-42971586D01*
X116160683Y-42979382D01*
X115858713Y-42984829D01*
X114546380Y-43007280D01*
X114523562Y-44848780D01*
X113170547Y-44848780D01*
X113170547Y-41388147D01*
X114567547Y-41388147D01*
X114569393Y-41623054D01*
X114574500Y-41828137D01*
X114582219Y-41988504D01*
X114591898Y-42089263D01*
X114599297Y-42116160D01*
X114649235Y-42125057D01*
X114771021Y-42131252D01*
X114951871Y-42134558D01*
X115179003Y-42134792D01*
X115439634Y-42131769D01*
X115542139Y-42129785D01*
X115855335Y-42122111D01*
X116096192Y-42113502D01*
X116277035Y-42102843D01*
X116410193Y-42089022D01*
X116507991Y-42070923D01*
X116582756Y-42047433D01*
X116616769Y-42032648D01*
X116777567Y-41911640D01*
X116882847Y-41731664D01*
X116929213Y-41500471D01*
X116926140Y-41326286D01*
X116885609Y-41100836D01*
X116804844Y-40935054D01*
X116673885Y-40809541D01*
X116653850Y-40795953D01*
X116607431Y-40771567D01*
X116544291Y-40752608D01*
X116453281Y-40738178D01*
X116323251Y-40727377D01*
X116143055Y-40719309D01*
X115901541Y-40713073D01*
X115587563Y-40707771D01*
X115553773Y-40707286D01*
X114567547Y-40693292D01*
X114567547Y-41388147D01*
X113170547Y-41388147D01*
X113170547Y-39807247D01*
X115170797Y-39819763D01*
X115170797Y-39819763D01*
G37*
X115170797Y-39819763D02*
X115634227Y-39822746D01*
X116020978Y-39825642D01*
X116339035Y-39828843D01*
X116596382Y-39832741D01*
X116801007Y-39837729D01*
X116960894Y-39844198D01*
X117084029Y-39852540D01*
X117178397Y-39863148D01*
X117251984Y-39876414D01*
X117312775Y-39892728D01*
X117368757Y-39912484D01*
X117412416Y-39929806D01*
X117673327Y-40069698D01*
X117905739Y-40259660D01*
X118088274Y-40480020D01*
X118167681Y-40624784D01*
X118239525Y-40857543D01*
X118280449Y-41140020D01*
X118288920Y-41442528D01*
X118263406Y-41735381D01*
X118232879Y-41887355D01*
X118138594Y-42148855D01*
X117998931Y-42395666D01*
X117830638Y-42601672D01*
X117708520Y-42705032D01*
X117607026Y-42772968D01*
X117512315Y-42827850D01*
X117413927Y-42871260D01*
X117301403Y-42904778D01*
X117164285Y-42929988D01*
X116992113Y-42948472D01*
X116774428Y-42961810D01*
X116500771Y-42971586D01*
X116160683Y-42979382D01*
X115858713Y-42984829D01*
X114546380Y-43007280D01*
X114523562Y-44848780D01*
X113170547Y-44848780D01*
X113170547Y-41388147D01*
X114567547Y-41388147D01*
X114569393Y-41623054D01*
X114574500Y-41828137D01*
X114582219Y-41988504D01*
X114591898Y-42089263D01*
X114599297Y-42116160D01*
X114649235Y-42125057D01*
X114771021Y-42131252D01*
X114951871Y-42134558D01*
X115179003Y-42134792D01*
X115439634Y-42131769D01*
X115542139Y-42129785D01*
X115855335Y-42122111D01*
X116096192Y-42113502D01*
X116277035Y-42102843D01*
X116410193Y-42089022D01*
X116507991Y-42070923D01*
X116582756Y-42047433D01*
X116616769Y-42032648D01*
X116777567Y-41911640D01*
X116882847Y-41731664D01*
X116929213Y-41500471D01*
X116926140Y-41326286D01*
X116885609Y-41100836D01*
X116804844Y-40935054D01*
X116673885Y-40809541D01*
X116653850Y-40795953D01*
X116607431Y-40771567D01*
X116544291Y-40752608D01*
X116453281Y-40738178D01*
X116323251Y-40727377D01*
X116143055Y-40719309D01*
X115901541Y-40713073D01*
X115587563Y-40707771D01*
X115553773Y-40707286D01*
X114567547Y-40693292D01*
X114567547Y-41388147D01*
X113170547Y-41388147D01*
X113170547Y-39807247D01*
X115170797Y-39819763D01*
G36*
X120197880Y-43789391D02*
G01*
X121732463Y-43800502D01*
X123267047Y-43811614D01*
X123267047Y-44827614D01*
X121055130Y-44838574D01*
X118843213Y-44849535D01*
X118843213Y-39811114D01*
X120197880Y-39811114D01*
X120197880Y-43789391D01*
X120197880Y-43789391D01*
G37*
X120197880Y-43789391D02*
X121732463Y-43800502D01*
X123267047Y-43811614D01*
X123267047Y-44827614D01*
X121055130Y-44838574D01*
X118843213Y-44849535D01*
X118843213Y-39811114D01*
X120197880Y-39811114D01*
X120197880Y-43789391D01*
G36*
X128495213Y-40742447D02*
G01*
X125150880Y-40742447D01*
X125150880Y-41800780D01*
X128328744Y-41800780D01*
X128316729Y-42255864D01*
X128304713Y-42710947D01*
X126727797Y-42722045D01*
X125150880Y-42733144D01*
X125150880Y-43831809D01*
X128516380Y-43853947D01*
X128516380Y-44827614D01*
X126184874Y-44838552D01*
X125748332Y-44840093D01*
X125337377Y-44840563D01*
X124959771Y-44840020D01*
X124623276Y-44838522D01*
X124335655Y-44836127D01*
X124104668Y-44832893D01*
X123938079Y-44828877D01*
X123843649Y-44824139D01*
X123824790Y-44820913D01*
X123819615Y-44774533D01*
X123814742Y-44650988D01*
X123810255Y-44457783D01*
X123806239Y-44202418D01*
X123802781Y-43892397D01*
X123799964Y-43535222D01*
X123797875Y-43138395D01*
X123796598Y-42709420D01*
X123796213Y-42301725D01*
X123796213Y-39811114D01*
X128495213Y-39811114D01*
X128495213Y-40742447D01*
X128495213Y-40742447D01*
G37*
X128495213Y-40742447D02*
X125150880Y-40742447D01*
X125150880Y-41800780D01*
X128328744Y-41800780D01*
X128316729Y-42255864D01*
X128304713Y-42710947D01*
X126727797Y-42722045D01*
X125150880Y-42733144D01*
X125150880Y-43831809D01*
X128516380Y-43853947D01*
X128516380Y-44827614D01*
X126184874Y-44838552D01*
X125748332Y-44840093D01*
X125337377Y-44840563D01*
X124959771Y-44840020D01*
X124623276Y-44838522D01*
X124335655Y-44836127D01*
X124104668Y-44832893D01*
X123938079Y-44828877D01*
X123843649Y-44824139D01*
X123824790Y-44820913D01*
X123819615Y-44774533D01*
X123814742Y-44650988D01*
X123810255Y-44457783D01*
X123806239Y-44202418D01*
X123802781Y-43892397D01*
X123799964Y-43535222D01*
X123797875Y-43138395D01*
X123796598Y-42709420D01*
X123796213Y-42301725D01*
X123796213Y-39811114D01*
X128495213Y-39811114D01*
X128495213Y-40742447D01*
G36*
X133554047Y-39832280D02*
G01*
X133786880Y-39941930D01*
X134031532Y-40077007D01*
X134212944Y-40228592D01*
X134352475Y-40416602D01*
X134409134Y-40522140D01*
X134466804Y-40649706D01*
X134502223Y-40764030D01*
X134520616Y-40893464D01*
X134527207Y-41066361D01*
X134527713Y-41165780D01*
X134523111Y-41384237D01*
X134506736Y-41544250D01*
X134474736Y-41671671D01*
X134439315Y-41758922D01*
X134285301Y-42003669D01*
X134079555Y-42198252D01*
X133931246Y-42286580D01*
X133773314Y-42361523D01*
X133899802Y-42414708D01*
X134078023Y-42531136D01*
X134220601Y-42716844D01*
X134328537Y-42974177D01*
X134402836Y-43305480D01*
X134442788Y-43684614D01*
X134475077Y-44059343D01*
X134520056Y-44362334D01*
X134576908Y-44588919D01*
X134618298Y-44690030D01*
X134678054Y-44806447D01*
X133207803Y-44806447D01*
X133153369Y-44690030D01*
X133130995Y-44605148D01*
X133108362Y-44455426D01*
X133087866Y-44260647D01*
X133071900Y-44040597D01*
X133069600Y-43998029D01*
X133050362Y-43711383D01*
X133022494Y-43495071D01*
X132980838Y-43334833D01*
X132920234Y-43216409D01*
X132835524Y-43125538D01*
X132727049Y-43051170D01*
X132672882Y-43023063D01*
X132610446Y-43001424D01*
X132527827Y-42985166D01*
X132413111Y-42973200D01*
X132254386Y-42964439D01*
X132039737Y-42957794D01*
X131757253Y-42952179D01*
X131618118Y-42949906D01*
X130655857Y-42934749D01*
X130644452Y-43881181D01*
X130633047Y-44827614D01*
X129974386Y-44839231D01*
X129746258Y-44841432D01*
X129548551Y-44839893D01*
X129396488Y-44835002D01*
X129305292Y-44827150D01*
X129286469Y-44821592D01*
X129281173Y-44775087D01*
X129276185Y-44651419D01*
X129271592Y-44458089D01*
X129267483Y-44202600D01*
X129263942Y-43892453D01*
X129261059Y-43535152D01*
X129258919Y-43138199D01*
X129257609Y-42709097D01*
X129257213Y-42299907D01*
X129257213Y-42012447D01*
X130654213Y-42012447D01*
X131618910Y-42012447D01*
X131931086Y-42012040D01*
X132170989Y-42010139D01*
X132351010Y-42005719D01*
X132483543Y-41997757D01*
X132580978Y-41985231D01*
X132655708Y-41967116D01*
X132720125Y-41942391D01*
X132772493Y-41917197D01*
X132944096Y-41789194D01*
X133055191Y-41620447D01*
X133105095Y-41428819D01*
X133093129Y-41232176D01*
X133018610Y-41048380D01*
X132880856Y-40895297D01*
X132813213Y-40849720D01*
X132759942Y-40822208D01*
X132698972Y-40800940D01*
X132618703Y-40784918D01*
X132507535Y-40773140D01*
X132353866Y-40764607D01*
X132146097Y-40758318D01*
X131872627Y-40753273D01*
X131659630Y-40750261D01*
X130654213Y-40736908D01*
X130654213Y-42012447D01*
X129257213Y-42012447D01*
X129257213Y-39807478D01*
X133554047Y-39832280D01*
X133554047Y-39832280D01*
G37*
X133554047Y-39832280D02*
X133786880Y-39941930D01*
X134031532Y-40077007D01*
X134212944Y-40228592D01*
X134352475Y-40416602D01*
X134409134Y-40522140D01*
X134466804Y-40649706D01*
X134502223Y-40764030D01*
X134520616Y-40893464D01*
X134527207Y-41066361D01*
X134527713Y-41165780D01*
X134523111Y-41384237D01*
X134506736Y-41544250D01*
X134474736Y-41671671D01*
X134439315Y-41758922D01*
X134285301Y-42003669D01*
X134079555Y-42198252D01*
X133931246Y-42286580D01*
X133773314Y-42361523D01*
X133899802Y-42414708D01*
X134078023Y-42531136D01*
X134220601Y-42716844D01*
X134328537Y-42974177D01*
X134402836Y-43305480D01*
X134442788Y-43684614D01*
X134475077Y-44059343D01*
X134520056Y-44362334D01*
X134576908Y-44588919D01*
X134618298Y-44690030D01*
X134678054Y-44806447D01*
X133207803Y-44806447D01*
X133153369Y-44690030D01*
X133130995Y-44605148D01*
X133108362Y-44455426D01*
X133087866Y-44260647D01*
X133071900Y-44040597D01*
X133069600Y-43998029D01*
X133050362Y-43711383D01*
X133022494Y-43495071D01*
X132980838Y-43334833D01*
X132920234Y-43216409D01*
X132835524Y-43125538D01*
X132727049Y-43051170D01*
X132672882Y-43023063D01*
X132610446Y-43001424D01*
X132527827Y-42985166D01*
X132413111Y-42973200D01*
X132254386Y-42964439D01*
X132039737Y-42957794D01*
X131757253Y-42952179D01*
X131618118Y-42949906D01*
X130655857Y-42934749D01*
X130644452Y-43881181D01*
X130633047Y-44827614D01*
X129974386Y-44839231D01*
X129746258Y-44841432D01*
X129548551Y-44839893D01*
X129396488Y-44835002D01*
X129305292Y-44827150D01*
X129286469Y-44821592D01*
X129281173Y-44775087D01*
X129276185Y-44651419D01*
X129271592Y-44458089D01*
X129267483Y-44202600D01*
X129263942Y-43892453D01*
X129261059Y-43535152D01*
X129258919Y-43138199D01*
X129257609Y-42709097D01*
X129257213Y-42299907D01*
X129257213Y-42012447D01*
X130654213Y-42012447D01*
X131618910Y-42012447D01*
X131931086Y-42012040D01*
X132170989Y-42010139D01*
X132351010Y-42005719D01*
X132483543Y-41997757D01*
X132580978Y-41985231D01*
X132655708Y-41967116D01*
X132720125Y-41942391D01*
X132772493Y-41917197D01*
X132944096Y-41789194D01*
X133055191Y-41620447D01*
X133105095Y-41428819D01*
X133093129Y-41232176D01*
X133018610Y-41048380D01*
X132880856Y-40895297D01*
X132813213Y-40849720D01*
X132759942Y-40822208D01*
X132698972Y-40800940D01*
X132618703Y-40784918D01*
X132507535Y-40773140D01*
X132353866Y-40764607D01*
X132146097Y-40758318D01*
X131872627Y-40753273D01*
X131659630Y-40750261D01*
X130654213Y-40736908D01*
X130654213Y-42012447D01*
X129257213Y-42012447D01*
X129257213Y-39807478D01*
X133554047Y-39832280D01*
G36*
X103716637Y-42224114D02*
G01*
X103905463Y-42653002D01*
X104084439Y-43060126D01*
X104250589Y-43438678D01*
X104400938Y-43781849D01*
X104532510Y-44082831D01*
X104642331Y-44334817D01*
X104727424Y-44530997D01*
X104784814Y-44664565D01*
X104811526Y-44728712D01*
X104812848Y-44732364D01*
X104815856Y-44759162D01*
X104797645Y-44778609D01*
X104747026Y-44791873D01*
X104652810Y-44800119D01*
X104503808Y-44804513D01*
X104288833Y-44806223D01*
X104102193Y-44806447D01*
X103367801Y-44806447D01*
X103179880Y-44298447D01*
X102991958Y-43790447D01*
X100651702Y-43790447D01*
X100443257Y-44287864D01*
X100234812Y-44785280D01*
X99506012Y-44796863D01*
X99268305Y-44798842D01*
X99063067Y-44797115D01*
X98903949Y-44792079D01*
X98804601Y-44784130D01*
X98777311Y-44775696D01*
X98793968Y-44732254D01*
X98841990Y-44617971D01*
X98918508Y-44439445D01*
X99020650Y-44203271D01*
X99145549Y-43916045D01*
X99290332Y-43584364D01*
X99452130Y-43214824D01*
X99603633Y-42869697D01*
X101063513Y-42869697D01*
X101103550Y-42879712D01*
X101215075Y-42888430D01*
X101384915Y-42895314D01*
X101599893Y-42899832D01*
X101845762Y-42901447D01*
X102628311Y-42901447D01*
X102548670Y-42700364D01*
X102428970Y-42398922D01*
X102309525Y-42099558D01*
X102194633Y-41812905D01*
X102088591Y-41549599D01*
X101995698Y-41320276D01*
X101920249Y-41135572D01*
X101866543Y-41006121D01*
X101838878Y-40942560D01*
X101836815Y-40938637D01*
X101817575Y-40968057D01*
X101773124Y-41063803D01*
X101708561Y-41213146D01*
X101628984Y-41403356D01*
X101539489Y-41621703D01*
X101445175Y-41855458D01*
X101351139Y-42091891D01*
X101262479Y-42318271D01*
X101184293Y-42521871D01*
X101121678Y-42689958D01*
X101079733Y-42809805D01*
X101063554Y-42868681D01*
X101063513Y-42869697D01*
X99603633Y-42869697D01*
X99628074Y-42814021D01*
X99815292Y-42388552D01*
X99869101Y-42266447D01*
X100960793Y-39789947D01*
X102644165Y-39789947D01*
X103716637Y-42224114D01*
X103716637Y-42224114D01*
G37*
X103716637Y-42224114D02*
X103905463Y-42653002D01*
X104084439Y-43060126D01*
X104250589Y-43438678D01*
X104400938Y-43781849D01*
X104532510Y-44082831D01*
X104642331Y-44334817D01*
X104727424Y-44530997D01*
X104784814Y-44664565D01*
X104811526Y-44728712D01*
X104812848Y-44732364D01*
X104815856Y-44759162D01*
X104797645Y-44778609D01*
X104747026Y-44791873D01*
X104652810Y-44800119D01*
X104503808Y-44804513D01*
X104288833Y-44806223D01*
X104102193Y-44806447D01*
X103367801Y-44806447D01*
X103179880Y-44298447D01*
X102991958Y-43790447D01*
X100651702Y-43790447D01*
X100443257Y-44287864D01*
X100234812Y-44785280D01*
X99506012Y-44796863D01*
X99268305Y-44798842D01*
X99063067Y-44797115D01*
X98903949Y-44792079D01*
X98804601Y-44784130D01*
X98777311Y-44775696D01*
X98793968Y-44732254D01*
X98841990Y-44617971D01*
X98918508Y-44439445D01*
X99020650Y-44203271D01*
X99145549Y-43916045D01*
X99290332Y-43584364D01*
X99452130Y-43214824D01*
X99603633Y-42869697D01*
X101063513Y-42869697D01*
X101103550Y-42879712D01*
X101215075Y-42888430D01*
X101384915Y-42895314D01*
X101599893Y-42899832D01*
X101845762Y-42901447D01*
X102628311Y-42901447D01*
X102548670Y-42700364D01*
X102428970Y-42398922D01*
X102309525Y-42099558D01*
X102194633Y-41812905D01*
X102088591Y-41549599D01*
X101995698Y-41320276D01*
X101920249Y-41135572D01*
X101866543Y-41006121D01*
X101838878Y-40942560D01*
X101836815Y-40938637D01*
X101817575Y-40968057D01*
X101773124Y-41063803D01*
X101708561Y-41213146D01*
X101628984Y-41403356D01*
X101539489Y-41621703D01*
X101445175Y-41855458D01*
X101351139Y-42091891D01*
X101262479Y-42318271D01*
X101184293Y-42521871D01*
X101121678Y-42689958D01*
X101079733Y-42809805D01*
X101063554Y-42868681D01*
X101063513Y-42869697D01*
X99603633Y-42869697D01*
X99628074Y-42814021D01*
X99815292Y-42388552D01*
X99869101Y-42266447D01*
X100960793Y-39789947D01*
X102644165Y-39789947D01*
X103716637Y-42224114D01*
G36*
X101444213Y-39472447D02*
G01*
X100216547Y-39472447D01*
X100216547Y-38625780D01*
X101444213Y-38625780D01*
X101444213Y-39472447D01*
X101444213Y-39472447D01*
G37*
X101444213Y-39472447D02*
X100216547Y-39472447D01*
X100216547Y-38625780D01*
X101444213Y-38625780D01*
X101444213Y-39472447D01*
G36*
X103433880Y-39472447D02*
G01*
X102206213Y-39472447D01*
X102206213Y-38625780D01*
X103433880Y-38625780D01*
X103433880Y-39472447D01*
X103433880Y-39472447D01*
G37*
X103433880Y-39472447D02*
X102206213Y-39472447D01*
X102206213Y-38625780D01*
X103433880Y-38625780D01*
X103433880Y-39472447D01*
M02*
