G04 #@! TF.GenerationSoftware,KiCad,Pcbnew,(5.1.2)-1*
G04 #@! TF.CreationDate,2019-05-17T09:45:12+02:00*
G04 #@! TF.ProjectId,frontplate-ctag,66726f6e-7470-46c6-9174-652d63746167,rev?*
G04 #@! TF.SameCoordinates,Original*
G04 #@! TF.FileFunction,Soldermask,Top*
G04 #@! TF.FilePolarity,Negative*
%FSLAX46Y46*%
G04 Gerber Fmt 4.6, Leading zero omitted, Abs format (unit mm)*
G04 Created by KiCad (PCBNEW (5.1.2)-1) date 2019-05-17 09:45:12*
%MOMM*%
%LPD*%
G04 APERTURE LIST*
%ADD10C,0.010000*%
%ADD11C,7.600000*%
%ADD12C,7.600001*%
%ADD13C,6.600000*%
%ADD14C,6.600001*%
%ADD15C,3.800000*%
G04 APERTURE END LIST*
D10*
G36*
X164097547Y-103649780D02*
G01*
X140052213Y-103649780D01*
X140052213Y-118466447D01*
X149693630Y-118467073D01*
X150774563Y-118467101D01*
X151774151Y-118467093D01*
X152695714Y-118467122D01*
X153542573Y-118467266D01*
X154318050Y-118467599D01*
X155025465Y-118468197D01*
X155668139Y-118469137D01*
X156249393Y-118470493D01*
X156772549Y-118472341D01*
X157240927Y-118474758D01*
X157657847Y-118477818D01*
X158026632Y-118481597D01*
X158350602Y-118486172D01*
X158633078Y-118491618D01*
X158877381Y-118498010D01*
X159086832Y-118505425D01*
X159264752Y-118513937D01*
X159414462Y-118523623D01*
X159539282Y-118534559D01*
X159642535Y-118546819D01*
X159727540Y-118560480D01*
X159797619Y-118575618D01*
X159856093Y-118592308D01*
X159906283Y-118610625D01*
X159951509Y-118630646D01*
X159995093Y-118652446D01*
X160040356Y-118676102D01*
X160090618Y-118701687D01*
X160095668Y-118704170D01*
X160422773Y-118909442D01*
X160713626Y-119181570D01*
X160956310Y-119506318D01*
X161138906Y-119869447D01*
X161188592Y-120009856D01*
X161282380Y-120307947D01*
X161282380Y-156206614D01*
X161188592Y-156504705D01*
X161021578Y-156900355D01*
X160787865Y-157248564D01*
X160494747Y-157542537D01*
X160149516Y-157775481D01*
X159759466Y-157940604D01*
X159600064Y-157984378D01*
X159535526Y-157989639D01*
X159389665Y-157994685D01*
X159165802Y-157999517D01*
X158867255Y-158004134D01*
X158497344Y-158008536D01*
X158059390Y-158012725D01*
X157556712Y-158016699D01*
X156992629Y-158020460D01*
X156370462Y-158024007D01*
X155693530Y-158027341D01*
X154965152Y-158030461D01*
X154188649Y-158033368D01*
X153367339Y-158036062D01*
X152504544Y-158038543D01*
X151603582Y-158040812D01*
X150667773Y-158042868D01*
X149700437Y-158044712D01*
X148704894Y-158046344D01*
X147684463Y-158047764D01*
X146642463Y-158048973D01*
X145582216Y-158049970D01*
X144507040Y-158050755D01*
X143420254Y-158051329D01*
X142325180Y-158051693D01*
X141225136Y-158051845D01*
X140123442Y-158051787D01*
X139023418Y-158051518D01*
X137928384Y-158051039D01*
X136841658Y-158050350D01*
X135766562Y-158049451D01*
X134706414Y-158048342D01*
X133664535Y-158047023D01*
X132644243Y-158045495D01*
X131648859Y-158043758D01*
X130681703Y-158041812D01*
X129746093Y-158039656D01*
X128845351Y-158037293D01*
X127982795Y-158034720D01*
X127161745Y-158031939D01*
X126385521Y-158028950D01*
X125657443Y-158025753D01*
X124980829Y-158022348D01*
X124359001Y-158018735D01*
X123795278Y-158014915D01*
X123292978Y-158010888D01*
X122855423Y-158006653D01*
X122485932Y-158002212D01*
X122187824Y-157997563D01*
X121964419Y-157992708D01*
X121819037Y-157987647D01*
X121754997Y-157982379D01*
X121754969Y-157982372D01*
X121356872Y-157843671D01*
X120998067Y-157633934D01*
X120686742Y-157360872D01*
X120431086Y-157032194D01*
X120239284Y-156655611D01*
X120185834Y-156504705D01*
X120092047Y-156206614D01*
X120092047Y-156086903D01*
X121425250Y-156086903D01*
X121522296Y-156270420D01*
X121603620Y-156398786D01*
X121693903Y-156505544D01*
X121725976Y-156533550D01*
X121745365Y-156549486D01*
X121761220Y-156564551D01*
X121775880Y-156578768D01*
X121791687Y-156592160D01*
X121810983Y-156604752D01*
X121836107Y-156616567D01*
X121869402Y-156627627D01*
X121913209Y-156637957D01*
X121969869Y-156647579D01*
X122041722Y-156656517D01*
X122131111Y-156664794D01*
X122240375Y-156672434D01*
X122371858Y-156679461D01*
X122527899Y-156685896D01*
X122710839Y-156691765D01*
X122923021Y-156697089D01*
X123166785Y-156701893D01*
X123444472Y-156706200D01*
X123758423Y-156710033D01*
X124110980Y-156713416D01*
X124504484Y-156716372D01*
X124941275Y-156718925D01*
X125423696Y-156721097D01*
X125954087Y-156722912D01*
X126534789Y-156724393D01*
X127168144Y-156725565D01*
X127856493Y-156726449D01*
X128602176Y-156727070D01*
X129407536Y-156727452D01*
X130274913Y-156727616D01*
X131206648Y-156727587D01*
X132205083Y-156727388D01*
X133272558Y-156727043D01*
X134411415Y-156726574D01*
X135623996Y-156726006D01*
X136912640Y-156725361D01*
X138279690Y-156724663D01*
X139727487Y-156723935D01*
X140750713Y-156723439D01*
X159335047Y-156714614D01*
X159514916Y-156618527D01*
X159652179Y-156520369D01*
X159778758Y-156390598D01*
X159811249Y-156346452D01*
X159927713Y-156170463D01*
X159927713Y-120344097D01*
X159811249Y-120168108D01*
X159699573Y-120037706D01*
X159560550Y-119923617D01*
X159514916Y-119896033D01*
X159335047Y-119799947D01*
X122039380Y-119799947D01*
X121859510Y-119896033D01*
X121722247Y-119994191D01*
X121595668Y-120123962D01*
X121563177Y-120168107D01*
X121446713Y-120344095D01*
X121435982Y-138215499D01*
X121425250Y-156086903D01*
X120092047Y-156086903D01*
X120092047Y-120307947D01*
X120185834Y-120009856D01*
X120350133Y-119620557D01*
X120581234Y-119273122D01*
X120870346Y-118978085D01*
X121208674Y-118745978D01*
X121266362Y-118715599D01*
X121321838Y-118686694D01*
X121371659Y-118660122D01*
X121419415Y-118635784D01*
X121468697Y-118613581D01*
X121523095Y-118593417D01*
X121586201Y-118575192D01*
X121661603Y-118558809D01*
X121752892Y-118544169D01*
X121863660Y-118531176D01*
X121997495Y-118519730D01*
X122157990Y-118509734D01*
X122348733Y-118501089D01*
X122573315Y-118493698D01*
X122835328Y-118487462D01*
X123138361Y-118482284D01*
X123486004Y-118478065D01*
X123881848Y-118474708D01*
X124329484Y-118472115D01*
X124832502Y-118470186D01*
X125394491Y-118468825D01*
X126019044Y-118467933D01*
X126709749Y-118467413D01*
X127470198Y-118467166D01*
X128303980Y-118467094D01*
X129214687Y-118467099D01*
X130205908Y-118467083D01*
X130368463Y-118467073D01*
X138697547Y-118466447D01*
X138697547Y-103649780D01*
X52718547Y-103649780D01*
X52718547Y-102083447D01*
X164097547Y-102083447D01*
X164097547Y-103649780D01*
X164097547Y-103649780D01*
G37*
X164097547Y-103649780D02*
X140052213Y-103649780D01*
X140052213Y-118466447D01*
X149693630Y-118467073D01*
X150774563Y-118467101D01*
X151774151Y-118467093D01*
X152695714Y-118467122D01*
X153542573Y-118467266D01*
X154318050Y-118467599D01*
X155025465Y-118468197D01*
X155668139Y-118469137D01*
X156249393Y-118470493D01*
X156772549Y-118472341D01*
X157240927Y-118474758D01*
X157657847Y-118477818D01*
X158026632Y-118481597D01*
X158350602Y-118486172D01*
X158633078Y-118491618D01*
X158877381Y-118498010D01*
X159086832Y-118505425D01*
X159264752Y-118513937D01*
X159414462Y-118523623D01*
X159539282Y-118534559D01*
X159642535Y-118546819D01*
X159727540Y-118560480D01*
X159797619Y-118575618D01*
X159856093Y-118592308D01*
X159906283Y-118610625D01*
X159951509Y-118630646D01*
X159995093Y-118652446D01*
X160040356Y-118676102D01*
X160090618Y-118701687D01*
X160095668Y-118704170D01*
X160422773Y-118909442D01*
X160713626Y-119181570D01*
X160956310Y-119506318D01*
X161138906Y-119869447D01*
X161188592Y-120009856D01*
X161282380Y-120307947D01*
X161282380Y-156206614D01*
X161188592Y-156504705D01*
X161021578Y-156900355D01*
X160787865Y-157248564D01*
X160494747Y-157542537D01*
X160149516Y-157775481D01*
X159759466Y-157940604D01*
X159600064Y-157984378D01*
X159535526Y-157989639D01*
X159389665Y-157994685D01*
X159165802Y-157999517D01*
X158867255Y-158004134D01*
X158497344Y-158008536D01*
X158059390Y-158012725D01*
X157556712Y-158016699D01*
X156992629Y-158020460D01*
X156370462Y-158024007D01*
X155693530Y-158027341D01*
X154965152Y-158030461D01*
X154188649Y-158033368D01*
X153367339Y-158036062D01*
X152504544Y-158038543D01*
X151603582Y-158040812D01*
X150667773Y-158042868D01*
X149700437Y-158044712D01*
X148704894Y-158046344D01*
X147684463Y-158047764D01*
X146642463Y-158048973D01*
X145582216Y-158049970D01*
X144507040Y-158050755D01*
X143420254Y-158051329D01*
X142325180Y-158051693D01*
X141225136Y-158051845D01*
X140123442Y-158051787D01*
X139023418Y-158051518D01*
X137928384Y-158051039D01*
X136841658Y-158050350D01*
X135766562Y-158049451D01*
X134706414Y-158048342D01*
X133664535Y-158047023D01*
X132644243Y-158045495D01*
X131648859Y-158043758D01*
X130681703Y-158041812D01*
X129746093Y-158039656D01*
X128845351Y-158037293D01*
X127982795Y-158034720D01*
X127161745Y-158031939D01*
X126385521Y-158028950D01*
X125657443Y-158025753D01*
X124980829Y-158022348D01*
X124359001Y-158018735D01*
X123795278Y-158014915D01*
X123292978Y-158010888D01*
X122855423Y-158006653D01*
X122485932Y-158002212D01*
X122187824Y-157997563D01*
X121964419Y-157992708D01*
X121819037Y-157987647D01*
X121754997Y-157982379D01*
X121754969Y-157982372D01*
X121356872Y-157843671D01*
X120998067Y-157633934D01*
X120686742Y-157360872D01*
X120431086Y-157032194D01*
X120239284Y-156655611D01*
X120185834Y-156504705D01*
X120092047Y-156206614D01*
X120092047Y-156086903D01*
X121425250Y-156086903D01*
X121522296Y-156270420D01*
X121603620Y-156398786D01*
X121693903Y-156505544D01*
X121725976Y-156533550D01*
X121745365Y-156549486D01*
X121761220Y-156564551D01*
X121775880Y-156578768D01*
X121791687Y-156592160D01*
X121810983Y-156604752D01*
X121836107Y-156616567D01*
X121869402Y-156627627D01*
X121913209Y-156637957D01*
X121969869Y-156647579D01*
X122041722Y-156656517D01*
X122131111Y-156664794D01*
X122240375Y-156672434D01*
X122371858Y-156679461D01*
X122527899Y-156685896D01*
X122710839Y-156691765D01*
X122923021Y-156697089D01*
X123166785Y-156701893D01*
X123444472Y-156706200D01*
X123758423Y-156710033D01*
X124110980Y-156713416D01*
X124504484Y-156716372D01*
X124941275Y-156718925D01*
X125423696Y-156721097D01*
X125954087Y-156722912D01*
X126534789Y-156724393D01*
X127168144Y-156725565D01*
X127856493Y-156726449D01*
X128602176Y-156727070D01*
X129407536Y-156727452D01*
X130274913Y-156727616D01*
X131206648Y-156727587D01*
X132205083Y-156727388D01*
X133272558Y-156727043D01*
X134411415Y-156726574D01*
X135623996Y-156726006D01*
X136912640Y-156725361D01*
X138279690Y-156724663D01*
X139727487Y-156723935D01*
X140750713Y-156723439D01*
X159335047Y-156714614D01*
X159514916Y-156618527D01*
X159652179Y-156520369D01*
X159778758Y-156390598D01*
X159811249Y-156346452D01*
X159927713Y-156170463D01*
X159927713Y-120344097D01*
X159811249Y-120168108D01*
X159699573Y-120037706D01*
X159560550Y-119923617D01*
X159514916Y-119896033D01*
X159335047Y-119799947D01*
X122039380Y-119799947D01*
X121859510Y-119896033D01*
X121722247Y-119994191D01*
X121595668Y-120123962D01*
X121563177Y-120168107D01*
X121446713Y-120344095D01*
X121435982Y-138215499D01*
X121425250Y-156086903D01*
X120092047Y-156086903D01*
X120092047Y-120307947D01*
X120185834Y-120009856D01*
X120350133Y-119620557D01*
X120581234Y-119273122D01*
X120870346Y-118978085D01*
X121208674Y-118745978D01*
X121266362Y-118715599D01*
X121321838Y-118686694D01*
X121371659Y-118660122D01*
X121419415Y-118635784D01*
X121468697Y-118613581D01*
X121523095Y-118593417D01*
X121586201Y-118575192D01*
X121661603Y-118558809D01*
X121752892Y-118544169D01*
X121863660Y-118531176D01*
X121997495Y-118519730D01*
X122157990Y-118509734D01*
X122348733Y-118501089D01*
X122573315Y-118493698D01*
X122835328Y-118487462D01*
X123138361Y-118482284D01*
X123486004Y-118478065D01*
X123881848Y-118474708D01*
X124329484Y-118472115D01*
X124832502Y-118470186D01*
X125394491Y-118468825D01*
X126019044Y-118467933D01*
X126709749Y-118467413D01*
X127470198Y-118467166D01*
X128303980Y-118467094D01*
X129214687Y-118467099D01*
X130205908Y-118467083D01*
X130368463Y-118467073D01*
X138697547Y-118466447D01*
X138697547Y-103649780D01*
X52718547Y-103649780D01*
X52718547Y-102083447D01*
X164097547Y-102083447D01*
X164097547Y-103649780D01*
G36*
X111749616Y-152652339D02*
G01*
X111968748Y-152771104D01*
X112038130Y-152830113D01*
X112154547Y-152941621D01*
X112153617Y-153790950D01*
X112150132Y-154148539D01*
X112138122Y-154432338D01*
X112113947Y-154653088D01*
X112073966Y-154821523D01*
X112014539Y-154948383D01*
X111932025Y-155044403D01*
X111822784Y-155120323D01*
X111683176Y-155186878D01*
X111679870Y-155188262D01*
X111466267Y-155247872D01*
X111207079Y-155274807D01*
X110935905Y-155266362D01*
X110848421Y-155255180D01*
X110681842Y-155222356D01*
X110589516Y-155179612D01*
X110561087Y-155113958D01*
X110586197Y-155012406D01*
X110610060Y-154956272D01*
X110667153Y-154847926D01*
X110718649Y-154804552D01*
X110775873Y-154807785D01*
X111039247Y-154860308D01*
X111269090Y-154860265D01*
X111454628Y-154809810D01*
X111585093Y-154711100D01*
X111629477Y-154637005D01*
X111668426Y-154540639D01*
X111688245Y-154485447D01*
X111688880Y-154482067D01*
X111650099Y-154477869D01*
X111547663Y-154478514D01*
X111402435Y-154483805D01*
X111378098Y-154484995D01*
X111192436Y-154488622D01*
X111058214Y-154473849D01*
X110943297Y-154435843D01*
X110893717Y-154412125D01*
X110694536Y-154265957D01*
X110548385Y-154067181D01*
X110458268Y-153831490D01*
X110430778Y-153604269D01*
X110936533Y-153604269D01*
X110938287Y-153634207D01*
X110985255Y-153848775D01*
X111084933Y-154000884D01*
X111230412Y-154085718D01*
X111414786Y-154098458D01*
X111555563Y-154064639D01*
X111688880Y-154018164D01*
X111688880Y-153099093D01*
X111536871Y-153057121D01*
X111336686Y-153037819D01*
X111167543Y-153091576D01*
X111038459Y-153209698D01*
X110958450Y-153383493D01*
X110936533Y-153604269D01*
X110430778Y-153604269D01*
X110427185Y-153574580D01*
X110458138Y-153312148D01*
X110554128Y-153059887D01*
X110615813Y-152958932D01*
X110785977Y-152783144D01*
X111002944Y-152662915D01*
X111248209Y-152599921D01*
X111503268Y-152595837D01*
X111749616Y-152652339D01*
X111749616Y-152652339D01*
G37*
X111749616Y-152652339D02*
X111968748Y-152771104D01*
X112038130Y-152830113D01*
X112154547Y-152941621D01*
X112153617Y-153790950D01*
X112150132Y-154148539D01*
X112138122Y-154432338D01*
X112113947Y-154653088D01*
X112073966Y-154821523D01*
X112014539Y-154948383D01*
X111932025Y-155044403D01*
X111822784Y-155120323D01*
X111683176Y-155186878D01*
X111679870Y-155188262D01*
X111466267Y-155247872D01*
X111207079Y-155274807D01*
X110935905Y-155266362D01*
X110848421Y-155255180D01*
X110681842Y-155222356D01*
X110589516Y-155179612D01*
X110561087Y-155113958D01*
X110586197Y-155012406D01*
X110610060Y-154956272D01*
X110667153Y-154847926D01*
X110718649Y-154804552D01*
X110775873Y-154807785D01*
X111039247Y-154860308D01*
X111269090Y-154860265D01*
X111454628Y-154809810D01*
X111585093Y-154711100D01*
X111629477Y-154637005D01*
X111668426Y-154540639D01*
X111688245Y-154485447D01*
X111688880Y-154482067D01*
X111650099Y-154477869D01*
X111547663Y-154478514D01*
X111402435Y-154483805D01*
X111378098Y-154484995D01*
X111192436Y-154488622D01*
X111058214Y-154473849D01*
X110943297Y-154435843D01*
X110893717Y-154412125D01*
X110694536Y-154265957D01*
X110548385Y-154067181D01*
X110458268Y-153831490D01*
X110430778Y-153604269D01*
X110936533Y-153604269D01*
X110938287Y-153634207D01*
X110985255Y-153848775D01*
X111084933Y-154000884D01*
X111230412Y-154085718D01*
X111414786Y-154098458D01*
X111555563Y-154064639D01*
X111688880Y-154018164D01*
X111688880Y-153099093D01*
X111536871Y-153057121D01*
X111336686Y-153037819D01*
X111167543Y-153091576D01*
X111038459Y-153209698D01*
X110958450Y-153383493D01*
X110936533Y-153604269D01*
X110430778Y-153604269D01*
X110427185Y-153574580D01*
X110458138Y-153312148D01*
X110554128Y-153059887D01*
X110615813Y-152958932D01*
X110785977Y-152783144D01*
X111002944Y-152662915D01*
X111248209Y-152599921D01*
X111503268Y-152595837D01*
X111749616Y-152652339D01*
G36*
X104225807Y-151981452D02*
G01*
X104437162Y-152094430D01*
X104612922Y-152274758D01*
X104748573Y-152515917D01*
X104839604Y-152811388D01*
X104881503Y-153154652D01*
X104883746Y-153243280D01*
X104860128Y-153627331D01*
X104784059Y-153953907D01*
X104657097Y-154219496D01*
X104480802Y-154420587D01*
X104313318Y-154528829D01*
X104080622Y-154605738D01*
X103855400Y-154602054D01*
X103663718Y-154538984D01*
X103445649Y-154394267D01*
X103273914Y-154181106D01*
X103150550Y-153903209D01*
X103077592Y-153564286D01*
X103065683Y-153449346D01*
X103064724Y-153246180D01*
X103562738Y-153246180D01*
X103577550Y-153558720D01*
X103623066Y-153814993D01*
X103695982Y-154010229D01*
X103792997Y-154139660D01*
X103910806Y-154198520D01*
X104046106Y-154182040D01*
X104163052Y-154112723D01*
X104263201Y-153983605D01*
X104333066Y-153780681D01*
X104371014Y-153509817D01*
X104377615Y-153341924D01*
X104365423Y-152996935D01*
X104320350Y-152729003D01*
X104241898Y-152536957D01*
X104129566Y-152419622D01*
X103982856Y-152375827D01*
X103965844Y-152375447D01*
X103815840Y-152413255D01*
X103700760Y-152526954D01*
X103620415Y-152716956D01*
X103574612Y-152983674D01*
X103562738Y-153246180D01*
X103064724Y-153246180D01*
X103063996Y-153092245D01*
X103115448Y-152769236D01*
X103215221Y-152488231D01*
X103358495Y-152257145D01*
X103540451Y-152083892D01*
X103756270Y-151976385D01*
X103983367Y-151942344D01*
X104225807Y-151981452D01*
X104225807Y-151981452D01*
G37*
X104225807Y-151981452D02*
X104437162Y-152094430D01*
X104612922Y-152274758D01*
X104748573Y-152515917D01*
X104839604Y-152811388D01*
X104881503Y-153154652D01*
X104883746Y-153243280D01*
X104860128Y-153627331D01*
X104784059Y-153953907D01*
X104657097Y-154219496D01*
X104480802Y-154420587D01*
X104313318Y-154528829D01*
X104080622Y-154605738D01*
X103855400Y-154602054D01*
X103663718Y-154538984D01*
X103445649Y-154394267D01*
X103273914Y-154181106D01*
X103150550Y-153903209D01*
X103077592Y-153564286D01*
X103065683Y-153449346D01*
X103064724Y-153246180D01*
X103562738Y-153246180D01*
X103577550Y-153558720D01*
X103623066Y-153814993D01*
X103695982Y-154010229D01*
X103792997Y-154139660D01*
X103910806Y-154198520D01*
X104046106Y-154182040D01*
X104163052Y-154112723D01*
X104263201Y-153983605D01*
X104333066Y-153780681D01*
X104371014Y-153509817D01*
X104377615Y-153341924D01*
X104365423Y-152996935D01*
X104320350Y-152729003D01*
X104241898Y-152536957D01*
X104129566Y-152419622D01*
X103982856Y-152375827D01*
X103965844Y-152375447D01*
X103815840Y-152413255D01*
X103700760Y-152526954D01*
X103620415Y-152716956D01*
X103574612Y-152983674D01*
X103562738Y-153246180D01*
X103064724Y-153246180D01*
X103063996Y-153092245D01*
X103115448Y-152769236D01*
X103215221Y-152488231D01*
X103358495Y-152257145D01*
X103540451Y-152083892D01*
X103756270Y-151976385D01*
X103983367Y-151942344D01*
X104225807Y-151981452D01*
G36*
X106854077Y-152322006D02*
G01*
X106866441Y-152629447D01*
X107624880Y-152629447D01*
X107624880Y-153052780D01*
X106862880Y-153052780D01*
X106862880Y-153518447D01*
X106864636Y-153728501D01*
X106871678Y-153871421D01*
X106886669Y-153964701D01*
X106912271Y-154025831D01*
X106946470Y-154067703D01*
X107071076Y-154154085D01*
X107220039Y-154177728D01*
X107412160Y-154141468D01*
X107420095Y-154139089D01*
X107617476Y-154079294D01*
X107665417Y-154269687D01*
X107691323Y-154384226D01*
X107702364Y-154457634D01*
X107700869Y-154470362D01*
X107579373Y-154532695D01*
X107405249Y-154577387D01*
X107209398Y-154600643D01*
X107022720Y-154598666D01*
X106884047Y-154570716D01*
X106764634Y-154508786D01*
X106644595Y-154420953D01*
X106635416Y-154412749D01*
X106563656Y-154342109D01*
X106507897Y-154269573D01*
X106466137Y-154183752D01*
X106436375Y-154073255D01*
X106416609Y-153926695D01*
X106404837Y-153732683D01*
X106399059Y-153479828D01*
X106397271Y-153156742D01*
X106397213Y-153057369D01*
X106397213Y-152085571D01*
X106619463Y-152050069D01*
X106841713Y-152014566D01*
X106854077Y-152322006D01*
X106854077Y-152322006D01*
G37*
X106854077Y-152322006D02*
X106866441Y-152629447D01*
X107624880Y-152629447D01*
X107624880Y-153052780D01*
X106862880Y-153052780D01*
X106862880Y-153518447D01*
X106864636Y-153728501D01*
X106871678Y-153871421D01*
X106886669Y-153964701D01*
X106912271Y-154025831D01*
X106946470Y-154067703D01*
X107071076Y-154154085D01*
X107220039Y-154177728D01*
X107412160Y-154141468D01*
X107420095Y-154139089D01*
X107617476Y-154079294D01*
X107665417Y-154269687D01*
X107691323Y-154384226D01*
X107702364Y-154457634D01*
X107700869Y-154470362D01*
X107579373Y-154532695D01*
X107405249Y-154577387D01*
X107209398Y-154600643D01*
X107022720Y-154598666D01*
X106884047Y-154570716D01*
X106764634Y-154508786D01*
X106644595Y-154420953D01*
X106635416Y-154412749D01*
X106563656Y-154342109D01*
X106507897Y-154269573D01*
X106466137Y-154183752D01*
X106436375Y-154073255D01*
X106416609Y-153926695D01*
X106404837Y-153732683D01*
X106399059Y-153479828D01*
X106397271Y-153156742D01*
X106397213Y-153057369D01*
X106397213Y-152085571D01*
X106619463Y-152050069D01*
X106841713Y-152014566D01*
X106854077Y-152322006D01*
G36*
X64148547Y-154108693D02*
G01*
X64275745Y-154141653D01*
X64357972Y-154168528D01*
X64397124Y-154209416D01*
X64402438Y-154287773D01*
X64384598Y-154418030D01*
X64358271Y-154515734D01*
X64307893Y-154565683D01*
X64217353Y-154572226D01*
X64070535Y-154539712D01*
X64004878Y-154520516D01*
X63872834Y-154457209D01*
X63763127Y-154366513D01*
X63750878Y-154351421D01*
X63725259Y-154313589D01*
X63704917Y-154269801D01*
X63689109Y-154210176D01*
X63677098Y-154124830D01*
X63668141Y-154003880D01*
X63661500Y-153837444D01*
X63656435Y-153615640D01*
X63652204Y-153328584D01*
X63648222Y-152980706D01*
X63645939Y-152663085D01*
X63646041Y-152372961D01*
X63648350Y-152121120D01*
X63652687Y-151918349D01*
X63658875Y-151775432D01*
X63666736Y-151703155D01*
X63669389Y-151696865D01*
X63728316Y-151673278D01*
X63841554Y-151648171D01*
X63926297Y-151634951D01*
X64148547Y-151605502D01*
X64148547Y-154108693D01*
X64148547Y-154108693D01*
G37*
X64148547Y-154108693D02*
X64275745Y-154141653D01*
X64357972Y-154168528D01*
X64397124Y-154209416D01*
X64402438Y-154287773D01*
X64384598Y-154418030D01*
X64358271Y-154515734D01*
X64307893Y-154565683D01*
X64217353Y-154572226D01*
X64070535Y-154539712D01*
X64004878Y-154520516D01*
X63872834Y-154457209D01*
X63763127Y-154366513D01*
X63750878Y-154351421D01*
X63725259Y-154313589D01*
X63704917Y-154269801D01*
X63689109Y-154210176D01*
X63677098Y-154124830D01*
X63668141Y-154003880D01*
X63661500Y-153837444D01*
X63656435Y-153615640D01*
X63652204Y-153328584D01*
X63648222Y-152980706D01*
X63645939Y-152663085D01*
X63646041Y-152372961D01*
X63648350Y-152121120D01*
X63652687Y-151918349D01*
X63658875Y-151775432D01*
X63666736Y-151703155D01*
X63669389Y-151696865D01*
X63728316Y-151673278D01*
X63841554Y-151648171D01*
X63926297Y-151634951D01*
X64148547Y-151605502D01*
X64148547Y-154108693D01*
G36*
X81886213Y-152827108D02*
G01*
X81886563Y-153196722D01*
X81888509Y-153490399D01*
X81893397Y-153716865D01*
X81902570Y-153884850D01*
X81917375Y-154003082D01*
X81939156Y-154080287D01*
X81969258Y-154125196D01*
X82009025Y-154146536D01*
X82059804Y-154153035D01*
X82090590Y-154153447D01*
X82154190Y-154160021D01*
X82178218Y-154195181D01*
X82172503Y-154282084D01*
X82165243Y-154329326D01*
X82138449Y-154469355D01*
X82100991Y-154546832D01*
X82033292Y-154572953D01*
X81915771Y-154558919D01*
X81806756Y-154534361D01*
X81675812Y-154479418D01*
X81556310Y-154393122D01*
X81552756Y-154389623D01*
X81441713Y-154278636D01*
X81429397Y-152967208D01*
X81426183Y-152599239D01*
X81424502Y-152307198D01*
X81424777Y-152082351D01*
X81427429Y-151915966D01*
X81432883Y-151799311D01*
X81441561Y-151723653D01*
X81453884Y-151680260D01*
X81470277Y-151660400D01*
X81491161Y-151655340D01*
X81492897Y-151655314D01*
X81584530Y-151648235D01*
X81709523Y-151631501D01*
X81727463Y-151628609D01*
X81886213Y-151602369D01*
X81886213Y-152827108D01*
X81886213Y-152827108D01*
G37*
X81886213Y-152827108D02*
X81886563Y-153196722D01*
X81888509Y-153490399D01*
X81893397Y-153716865D01*
X81902570Y-153884850D01*
X81917375Y-154003082D01*
X81939156Y-154080287D01*
X81969258Y-154125196D01*
X82009025Y-154146536D01*
X82059804Y-154153035D01*
X82090590Y-154153447D01*
X82154190Y-154160021D01*
X82178218Y-154195181D01*
X82172503Y-154282084D01*
X82165243Y-154329326D01*
X82138449Y-154469355D01*
X82100991Y-154546832D01*
X82033292Y-154572953D01*
X81915771Y-154558919D01*
X81806756Y-154534361D01*
X81675812Y-154479418D01*
X81556310Y-154393122D01*
X81552756Y-154389623D01*
X81441713Y-154278636D01*
X81429397Y-152967208D01*
X81426183Y-152599239D01*
X81424502Y-152307198D01*
X81424777Y-152082351D01*
X81427429Y-151915966D01*
X81432883Y-151799311D01*
X81441561Y-151723653D01*
X81453884Y-151680260D01*
X81470277Y-151660400D01*
X81491161Y-151655340D01*
X81492897Y-151655314D01*
X81584530Y-151648235D01*
X81709523Y-151631501D01*
X81727463Y-151628609D01*
X81886213Y-151602369D01*
X81886213Y-152827108D01*
G36*
X84739297Y-152570984D02*
G01*
X84921018Y-152627137D01*
X85119225Y-152760368D01*
X85269214Y-152948020D01*
X85370619Y-153174669D01*
X85423077Y-153424891D01*
X85426222Y-153683261D01*
X85379688Y-153934354D01*
X85283113Y-154162746D01*
X85136129Y-154353012D01*
X84964770Y-154476673D01*
X84821990Y-154523539D01*
X84630710Y-154551430D01*
X84425375Y-154558352D01*
X84240433Y-154542310D01*
X84160718Y-154523248D01*
X83969292Y-154432050D01*
X83796913Y-154299258D01*
X83670502Y-154147422D01*
X83638675Y-154086014D01*
X83606640Y-153957401D01*
X83587193Y-153773646D01*
X83580633Y-153563375D01*
X83582296Y-153511082D01*
X84062780Y-153511082D01*
X84065543Y-153714236D01*
X84098878Y-153899203D01*
X84137521Y-153997085D01*
X84224051Y-154080771D01*
X84362119Y-154134584D01*
X84522170Y-154152996D01*
X84674652Y-154130477D01*
X84728913Y-154107706D01*
X84822623Y-154014350D01*
X84892135Y-153858468D01*
X84929745Y-153660578D01*
X84934213Y-153560780D01*
X84913919Y-153350424D01*
X84858170Y-153172609D01*
X84774669Y-153047853D01*
X84728913Y-153013854D01*
X84594086Y-152974847D01*
X84433132Y-152972500D01*
X84285823Y-153004611D01*
X84217111Y-153042197D01*
X84140646Y-153150093D01*
X84088508Y-153314711D01*
X84062780Y-153511082D01*
X83582296Y-153511082D01*
X83587256Y-153355216D01*
X83607358Y-153177796D01*
X83628355Y-153090847D01*
X83740104Y-152860188D01*
X83899337Y-152695240D01*
X84111328Y-152592586D01*
X84381353Y-152548811D01*
X84468547Y-152546640D01*
X84739297Y-152570984D01*
X84739297Y-152570984D01*
G37*
X84739297Y-152570984D02*
X84921018Y-152627137D01*
X85119225Y-152760368D01*
X85269214Y-152948020D01*
X85370619Y-153174669D01*
X85423077Y-153424891D01*
X85426222Y-153683261D01*
X85379688Y-153934354D01*
X85283113Y-154162746D01*
X85136129Y-154353012D01*
X84964770Y-154476673D01*
X84821990Y-154523539D01*
X84630710Y-154551430D01*
X84425375Y-154558352D01*
X84240433Y-154542310D01*
X84160718Y-154523248D01*
X83969292Y-154432050D01*
X83796913Y-154299258D01*
X83670502Y-154147422D01*
X83638675Y-154086014D01*
X83606640Y-153957401D01*
X83587193Y-153773646D01*
X83580633Y-153563375D01*
X83582296Y-153511082D01*
X84062780Y-153511082D01*
X84065543Y-153714236D01*
X84098878Y-153899203D01*
X84137521Y-153997085D01*
X84224051Y-154080771D01*
X84362119Y-154134584D01*
X84522170Y-154152996D01*
X84674652Y-154130477D01*
X84728913Y-154107706D01*
X84822623Y-154014350D01*
X84892135Y-153858468D01*
X84929745Y-153660578D01*
X84934213Y-153560780D01*
X84913919Y-153350424D01*
X84858170Y-153172609D01*
X84774669Y-153047853D01*
X84728913Y-153013854D01*
X84594086Y-152974847D01*
X84433132Y-152972500D01*
X84285823Y-153004611D01*
X84217111Y-153042197D01*
X84140646Y-153150093D01*
X84088508Y-153314711D01*
X84062780Y-153511082D01*
X83582296Y-153511082D01*
X83587256Y-153355216D01*
X83607358Y-153177796D01*
X83628355Y-153090847D01*
X83740104Y-152860188D01*
X83899337Y-152695240D01*
X84111328Y-152592586D01*
X84381353Y-152548811D01*
X84468547Y-152546640D01*
X84739297Y-152570984D01*
G36*
X86296550Y-153260132D02*
G01*
X86302939Y-153520176D01*
X86311145Y-153709140D01*
X86322786Y-153840609D01*
X86339477Y-153928170D01*
X86362834Y-153985408D01*
X86386663Y-154017681D01*
X86522178Y-154105679D01*
X86709116Y-154133441D01*
X86827126Y-154122606D01*
X86966213Y-154100036D01*
X86966213Y-152587114D01*
X87474213Y-152587114D01*
X87473635Y-154301614D01*
X87336341Y-154393269D01*
X87096077Y-154508006D01*
X86819694Y-154566596D01*
X86537490Y-154565404D01*
X86317828Y-154515447D01*
X86161115Y-154447507D01*
X86040460Y-154362006D01*
X85951467Y-154247898D01*
X85889738Y-154094132D01*
X85850875Y-153889660D01*
X85830481Y-153623434D01*
X85824159Y-153284404D01*
X85824143Y-153275030D01*
X85823213Y-152587114D01*
X86283054Y-152587114D01*
X86296550Y-153260132D01*
X86296550Y-153260132D01*
G37*
X86296550Y-153260132D02*
X86302939Y-153520176D01*
X86311145Y-153709140D01*
X86322786Y-153840609D01*
X86339477Y-153928170D01*
X86362834Y-153985408D01*
X86386663Y-154017681D01*
X86522178Y-154105679D01*
X86709116Y-154133441D01*
X86827126Y-154122606D01*
X86966213Y-154100036D01*
X86966213Y-152587114D01*
X87474213Y-152587114D01*
X87473635Y-154301614D01*
X87336341Y-154393269D01*
X87096077Y-154508006D01*
X86819694Y-154566596D01*
X86537490Y-154565404D01*
X86317828Y-154515447D01*
X86161115Y-154447507D01*
X86040460Y-154362006D01*
X85951467Y-154247898D01*
X85889738Y-154094132D01*
X85850875Y-153889660D01*
X85830481Y-153623434D01*
X85824159Y-153284404D01*
X85824143Y-153275030D01*
X85823213Y-152587114D01*
X86283054Y-152587114D01*
X86296550Y-153260132D01*
G36*
X88429162Y-151976249D02*
G01*
X88442995Y-152035408D01*
X88447492Y-152152368D01*
X88447880Y-152265024D01*
X88447880Y-152587114D01*
X89209880Y-152587114D01*
X89209880Y-152968114D01*
X88445274Y-152968114D01*
X88457160Y-153484407D01*
X88469047Y-154000701D01*
X88605818Y-154080496D01*
X88694115Y-154125702D01*
X88770639Y-154138804D01*
X88870857Y-154121571D01*
X88955378Y-154097914D01*
X89078248Y-154068310D01*
X89164057Y-154059611D01*
X89187477Y-154066780D01*
X89205997Y-154125470D01*
X89228016Y-154232467D01*
X89233530Y-154265270D01*
X89244829Y-154376625D01*
X89223763Y-154437327D01*
X89158492Y-154478864D01*
X89152115Y-154481798D01*
X88999425Y-154527236D01*
X88807395Y-154552928D01*
X88619468Y-154554971D01*
X88510494Y-154539454D01*
X88284369Y-154439620D01*
X88103530Y-154269330D01*
X88057042Y-154201983D01*
X88026524Y-154149056D01*
X88003008Y-154093090D01*
X87985371Y-154022379D01*
X87972488Y-153925217D01*
X87963233Y-153789898D01*
X87956482Y-153604716D01*
X87951111Y-153357965D01*
X87946139Y-153047719D01*
X87931232Y-152047825D01*
X88094306Y-152018246D01*
X88228026Y-151992546D01*
X88341319Y-151968459D01*
X88352630Y-151965801D01*
X88400779Y-151958508D01*
X88429162Y-151976249D01*
X88429162Y-151976249D01*
G37*
X88429162Y-151976249D02*
X88442995Y-152035408D01*
X88447492Y-152152368D01*
X88447880Y-152265024D01*
X88447880Y-152587114D01*
X89209880Y-152587114D01*
X89209880Y-152968114D01*
X88445274Y-152968114D01*
X88457160Y-153484407D01*
X88469047Y-154000701D01*
X88605818Y-154080496D01*
X88694115Y-154125702D01*
X88770639Y-154138804D01*
X88870857Y-154121571D01*
X88955378Y-154097914D01*
X89078248Y-154068310D01*
X89164057Y-154059611D01*
X89187477Y-154066780D01*
X89205997Y-154125470D01*
X89228016Y-154232467D01*
X89233530Y-154265270D01*
X89244829Y-154376625D01*
X89223763Y-154437327D01*
X89158492Y-154478864D01*
X89152115Y-154481798D01*
X88999425Y-154527236D01*
X88807395Y-154552928D01*
X88619468Y-154554971D01*
X88510494Y-154539454D01*
X88284369Y-154439620D01*
X88103530Y-154269330D01*
X88057042Y-154201983D01*
X88026524Y-154149056D01*
X88003008Y-154093090D01*
X87985371Y-154022379D01*
X87972488Y-153925217D01*
X87963233Y-153789898D01*
X87956482Y-153604716D01*
X87951111Y-153357965D01*
X87946139Y-153047719D01*
X87931232Y-152047825D01*
X88094306Y-152018246D01*
X88228026Y-151992546D01*
X88341319Y-151968459D01*
X88352630Y-151965801D01*
X88400779Y-151958508D01*
X88429162Y-151976249D01*
G36*
X108925470Y-152600160D02*
G01*
X109088034Y-152607139D01*
X109206337Y-152620906D01*
X109256831Y-152638620D01*
X109264733Y-152692047D01*
X109254671Y-152796671D01*
X109245591Y-152847886D01*
X109208813Y-153031614D01*
X108928625Y-153016978D01*
X108771283Y-153008190D01*
X108654811Y-153007758D01*
X108573088Y-153026400D01*
X108519995Y-153074838D01*
X108489412Y-153163790D01*
X108475221Y-153303976D01*
X108471300Y-153506116D01*
X108471530Y-153780929D01*
X108471547Y-153817633D01*
X108471547Y-154576780D01*
X108004260Y-154576780D01*
X108015653Y-153635829D01*
X108027047Y-152694877D01*
X108259880Y-152639682D01*
X108385851Y-152619731D01*
X108553015Y-152606479D01*
X108740009Y-152599948D01*
X108925470Y-152600160D01*
X108925470Y-152600160D01*
G37*
X108925470Y-152600160D02*
X109088034Y-152607139D01*
X109206337Y-152620906D01*
X109256831Y-152638620D01*
X109264733Y-152692047D01*
X109254671Y-152796671D01*
X109245591Y-152847886D01*
X109208813Y-153031614D01*
X108928625Y-153016978D01*
X108771283Y-153008190D01*
X108654811Y-153007758D01*
X108573088Y-153026400D01*
X108519995Y-153074838D01*
X108489412Y-153163790D01*
X108475221Y-153303976D01*
X108471300Y-153506116D01*
X108471530Y-153780929D01*
X108471547Y-153817633D01*
X108471547Y-154576780D01*
X108004260Y-154576780D01*
X108015653Y-153635829D01*
X108027047Y-152694877D01*
X108259880Y-152639682D01*
X108385851Y-152619731D01*
X108553015Y-152606479D01*
X108740009Y-152599948D01*
X108925470Y-152600160D01*
G36*
X109995547Y-154576780D02*
G01*
X109487547Y-154576780D01*
X109487547Y-152629447D01*
X109995547Y-152629447D01*
X109995547Y-154576780D01*
X109995547Y-154576780D01*
G37*
X109995547Y-154576780D02*
X109487547Y-154576780D01*
X109487547Y-152629447D01*
X109995547Y-152629447D01*
X109995547Y-154576780D01*
G36*
X114906213Y-154576780D02*
G01*
X114398213Y-154576780D01*
X114398213Y-152506767D01*
X114251406Y-152568107D01*
X114129890Y-152614402D01*
X114059372Y-152615636D01*
X114013294Y-152560709D01*
X113969368Y-152450237D01*
X113904026Y-152271027D01*
X114182870Y-152134025D01*
X114393047Y-152044744D01*
X114574495Y-152002475D01*
X114683963Y-151995735D01*
X114906213Y-151994447D01*
X114906213Y-154576780D01*
X114906213Y-154576780D01*
G37*
X114906213Y-154576780D02*
X114398213Y-154576780D01*
X114398213Y-152506767D01*
X114251406Y-152568107D01*
X114129890Y-152614402D01*
X114059372Y-152615636D01*
X114013294Y-152560709D01*
X113969368Y-152450237D01*
X113904026Y-152271027D01*
X114182870Y-152134025D01*
X114393047Y-152044744D01*
X114574495Y-152002475D01*
X114683963Y-151995735D01*
X114906213Y-151994447D01*
X114906213Y-154576780D01*
G36*
X66349880Y-154534447D02*
G01*
X65884213Y-154534447D01*
X65884213Y-152587114D01*
X66349880Y-152587114D01*
X66349880Y-154534447D01*
X66349880Y-154534447D01*
G37*
X66349880Y-154534447D02*
X65884213Y-154534447D01*
X65884213Y-152587114D01*
X66349880Y-152587114D01*
X66349880Y-154534447D01*
G36*
X67906039Y-152564233D02*
G01*
X68110809Y-152614592D01*
X68169374Y-152640030D01*
X68285373Y-152707757D01*
X68373981Y-152785174D01*
X68439104Y-152884411D01*
X68484648Y-153017602D01*
X68514517Y-153196877D01*
X68532617Y-153434370D01*
X68542853Y-153742211D01*
X68544127Y-153804197D01*
X68558207Y-154534447D01*
X68085547Y-154534447D01*
X68085547Y-153919254D01*
X68081699Y-153605912D01*
X68066751Y-153367604D01*
X68035596Y-153194908D01*
X67983127Y-153078402D01*
X67904235Y-153008666D01*
X67793814Y-152976278D01*
X67646756Y-152971818D01*
X67574151Y-152975912D01*
X67387047Y-152989280D01*
X67375508Y-153761864D01*
X67363970Y-154534447D01*
X66900213Y-154534447D01*
X66900213Y-152636463D01*
X67113964Y-152590621D01*
X67382755Y-152551084D01*
X67655067Y-152542675D01*
X67906039Y-152564233D01*
X67906039Y-152564233D01*
G37*
X67906039Y-152564233D02*
X68110809Y-152614592D01*
X68169374Y-152640030D01*
X68285373Y-152707757D01*
X68373981Y-152785174D01*
X68439104Y-152884411D01*
X68484648Y-153017602D01*
X68514517Y-153196877D01*
X68532617Y-153434370D01*
X68542853Y-153742211D01*
X68544127Y-153804197D01*
X68558207Y-154534447D01*
X68085547Y-154534447D01*
X68085547Y-153919254D01*
X68081699Y-153605912D01*
X68066751Y-153367604D01*
X68035596Y-153194908D01*
X67983127Y-153078402D01*
X67904235Y-153008666D01*
X67793814Y-152976278D01*
X67646756Y-152971818D01*
X67574151Y-152975912D01*
X67387047Y-152989280D01*
X67375508Y-153761864D01*
X67363970Y-154534447D01*
X66900213Y-154534447D01*
X66900213Y-152636463D01*
X67113964Y-152590621D01*
X67382755Y-152551084D01*
X67655067Y-152542675D01*
X67906039Y-152564233D01*
G36*
X71263654Y-152561529D02*
G01*
X71389651Y-152575018D01*
X71452652Y-152595701D01*
X71452692Y-152595741D01*
X71464900Y-152652252D01*
X71460917Y-152759873D01*
X71454273Y-152813190D01*
X71426132Y-153000844D01*
X71068173Y-152978511D01*
X70710213Y-152956179D01*
X70710213Y-154534447D01*
X70200593Y-154534447D01*
X70211987Y-153595271D01*
X70223380Y-152656096D01*
X70435047Y-152599334D01*
X70556174Y-152577990D01*
X70720922Y-152563462D01*
X70907967Y-152555826D01*
X71095985Y-152555156D01*
X71263654Y-152561529D01*
X71263654Y-152561529D01*
G37*
X71263654Y-152561529D02*
X71389651Y-152575018D01*
X71452652Y-152595701D01*
X71452692Y-152595741D01*
X71464900Y-152652252D01*
X71460917Y-152759873D01*
X71454273Y-152813190D01*
X71426132Y-153000844D01*
X71068173Y-152978511D01*
X70710213Y-152956179D01*
X70710213Y-154534447D01*
X70200593Y-154534447D01*
X70211987Y-153595271D01*
X70223380Y-152656096D01*
X70435047Y-152599334D01*
X70556174Y-152577990D01*
X70720922Y-152563462D01*
X70907967Y-152555826D01*
X71095985Y-152555156D01*
X71263654Y-152561529D01*
G36*
X91796284Y-152570405D02*
G01*
X91920316Y-152578653D01*
X91981140Y-152592916D01*
X91982254Y-152593886D01*
X91991814Y-152648886D01*
X91982852Y-152754564D01*
X91974051Y-152805477D01*
X91937732Y-152989129D01*
X91579223Y-152989205D01*
X91220713Y-152989280D01*
X91209175Y-153761864D01*
X91197637Y-154534447D01*
X90733880Y-154534447D01*
X90733880Y-152669685D01*
X90850297Y-152620639D01*
X90931486Y-152602771D01*
X91070065Y-152588067D01*
X91245934Y-152577004D01*
X91438993Y-152570056D01*
X91629143Y-152567698D01*
X91796284Y-152570405D01*
X91796284Y-152570405D01*
G37*
X91796284Y-152570405D02*
X91920316Y-152578653D01*
X91981140Y-152592916D01*
X91982254Y-152593886D01*
X91991814Y-152648886D01*
X91982852Y-152754564D01*
X91974051Y-152805477D01*
X91937732Y-152989129D01*
X91579223Y-152989205D01*
X91220713Y-152989280D01*
X91209175Y-153761864D01*
X91197637Y-154534447D01*
X90733880Y-154534447D01*
X90733880Y-152669685D01*
X90850297Y-152620639D01*
X90931486Y-152602771D01*
X91070065Y-152588067D01*
X91245934Y-152577004D01*
X91438993Y-152570056D01*
X91629143Y-152567698D01*
X91796284Y-152570405D01*
G36*
X106100880Y-153687780D02*
G01*
X105042547Y-153687780D01*
X105042547Y-153222114D01*
X106100880Y-153222114D01*
X106100880Y-153687780D01*
X106100880Y-153687780D01*
G37*
X106100880Y-153687780D02*
X105042547Y-153687780D01*
X105042547Y-153222114D01*
X106100880Y-153222114D01*
X106100880Y-153687780D01*
G36*
X113509213Y-153687780D02*
G01*
X113008269Y-153687780D01*
X112810236Y-153685523D01*
X112644158Y-153679381D01*
X112527771Y-153670301D01*
X112479102Y-153659558D01*
X112462549Y-153603854D01*
X112452395Y-153494240D01*
X112450880Y-153426725D01*
X112450880Y-153222114D01*
X113509213Y-153222114D01*
X113509213Y-153687780D01*
X113509213Y-153687780D01*
G37*
X113509213Y-153687780D02*
X113008269Y-153687780D01*
X112810236Y-153685523D01*
X112644158Y-153679381D01*
X112527771Y-153670301D01*
X112479102Y-153659558D01*
X112462549Y-153603854D01*
X112452395Y-153494240D01*
X112450880Y-153426725D01*
X112450880Y-153222114D01*
X113509213Y-153222114D01*
X113509213Y-153687780D01*
G36*
X65587880Y-153603114D02*
G01*
X64529547Y-153603114D01*
X64529547Y-153179780D01*
X65587880Y-153179780D01*
X65587880Y-153603114D01*
X65587880Y-153603114D01*
G37*
X65587880Y-153603114D02*
X64529547Y-153603114D01*
X64529547Y-153179780D01*
X65587880Y-153179780D01*
X65587880Y-153603114D01*
G36*
X69905880Y-153603114D02*
G01*
X68847547Y-153603114D01*
X68847547Y-153179780D01*
X69905880Y-153179780D01*
X69905880Y-153603114D01*
X69905880Y-153603114D01*
G37*
X69905880Y-153603114D02*
X68847547Y-153603114D01*
X68847547Y-153179780D01*
X69905880Y-153179780D01*
X69905880Y-153603114D01*
G36*
X83367880Y-153603114D02*
G01*
X82309547Y-153603114D01*
X82309547Y-153179780D01*
X83367880Y-153179780D01*
X83367880Y-153603114D01*
X83367880Y-153603114D01*
G37*
X83367880Y-153603114D02*
X82309547Y-153603114D01*
X82309547Y-153179780D01*
X83367880Y-153179780D01*
X83367880Y-153603114D01*
G36*
X90395213Y-153603114D02*
G01*
X89379213Y-153603114D01*
X89379213Y-153179780D01*
X90395213Y-153179780D01*
X90395213Y-153603114D01*
X90395213Y-153603114D01*
G37*
X90395213Y-153603114D02*
X89379213Y-153603114D01*
X89379213Y-153179780D01*
X90395213Y-153179780D01*
X90395213Y-153603114D01*
G36*
X109995547Y-152333114D02*
G01*
X109487547Y-152333114D01*
X109487547Y-151867447D01*
X109995547Y-151867447D01*
X109995547Y-152333114D01*
X109995547Y-152333114D01*
G37*
X109995547Y-152333114D02*
X109487547Y-152333114D01*
X109487547Y-151867447D01*
X109995547Y-151867447D01*
X109995547Y-152333114D01*
G36*
X66349880Y-152290780D02*
G01*
X65884213Y-152290780D01*
X65884213Y-151782780D01*
X66349880Y-151782780D01*
X66349880Y-152290780D01*
X66349880Y-152290780D01*
G37*
X66349880Y-152290780D02*
X65884213Y-152290780D01*
X65884213Y-151782780D01*
X66349880Y-151782780D01*
X66349880Y-152290780D01*
G36*
X98743958Y-118479407D02*
G01*
X98915018Y-118583142D01*
X99080586Y-118715263D01*
X99153528Y-118788672D01*
X99189420Y-118827002D01*
X99222356Y-118859391D01*
X99252464Y-118889441D01*
X99279869Y-118920754D01*
X99304697Y-118956931D01*
X99327076Y-119001576D01*
X99347131Y-119058289D01*
X99364989Y-119130672D01*
X99380775Y-119222328D01*
X99394616Y-119336858D01*
X99406638Y-119477865D01*
X99416967Y-119648950D01*
X99425730Y-119853715D01*
X99433053Y-120095761D01*
X99439063Y-120378692D01*
X99443884Y-120706109D01*
X99447644Y-121081613D01*
X99450469Y-121508807D01*
X99452485Y-121991293D01*
X99453818Y-122532672D01*
X99454595Y-123136546D01*
X99454941Y-123806518D01*
X99454983Y-124546189D01*
X99454848Y-125359161D01*
X99454661Y-126249036D01*
X99454549Y-127219416D01*
X99454547Y-127377614D01*
X99454668Y-128363608D01*
X99454934Y-129268525D01*
X99455197Y-130095955D01*
X99455307Y-130849487D01*
X99455117Y-131532710D01*
X99454477Y-132149213D01*
X99453241Y-132702585D01*
X99451259Y-133196417D01*
X99448382Y-133634297D01*
X99444464Y-134019814D01*
X99439355Y-134356558D01*
X99432906Y-134648119D01*
X99424970Y-134898084D01*
X99415399Y-135110045D01*
X99404043Y-135287589D01*
X99390755Y-135434307D01*
X99375386Y-135553788D01*
X99357787Y-135649620D01*
X99337812Y-135725394D01*
X99315310Y-135784698D01*
X99290134Y-135831122D01*
X99262135Y-135868255D01*
X99231165Y-135899686D01*
X99197076Y-135929005D01*
X99159719Y-135959802D01*
X99118945Y-135995664D01*
X99097474Y-136016374D01*
X99033677Y-136081646D01*
X98977404Y-136138927D01*
X98922990Y-136188755D01*
X98864771Y-136231669D01*
X98797083Y-136268208D01*
X98714260Y-136298910D01*
X98610639Y-136324315D01*
X98480555Y-136344960D01*
X98318342Y-136361385D01*
X98118338Y-136374129D01*
X97874877Y-136383729D01*
X97582295Y-136390725D01*
X97234927Y-136395656D01*
X96827108Y-136399060D01*
X96353175Y-136401475D01*
X95807463Y-136403441D01*
X95184307Y-136405496D01*
X94998963Y-136406147D01*
X91538213Y-136418604D01*
X91538213Y-139209780D01*
X105127213Y-139209780D01*
X105127213Y-142935114D01*
X103857213Y-142935114D01*
X103857213Y-140479780D01*
X90268213Y-140479780D01*
X90268213Y-136418679D01*
X86320630Y-136406646D01*
X82373047Y-136394614D01*
X82140213Y-136284963D01*
X81900161Y-136153145D01*
X81720295Y-136005202D01*
X81576329Y-135819300D01*
X81524430Y-135731365D01*
X81399380Y-135505614D01*
X81399380Y-119249614D01*
X81494890Y-119070874D01*
X81677945Y-118796884D01*
X81902360Y-118590012D01*
X82090181Y-118478740D01*
X82330713Y-118360614D01*
X98502047Y-118360614D01*
X98743958Y-118479407D01*
X98743958Y-118479407D01*
G37*
X98743958Y-118479407D02*
X98915018Y-118583142D01*
X99080586Y-118715263D01*
X99153528Y-118788672D01*
X99189420Y-118827002D01*
X99222356Y-118859391D01*
X99252464Y-118889441D01*
X99279869Y-118920754D01*
X99304697Y-118956931D01*
X99327076Y-119001576D01*
X99347131Y-119058289D01*
X99364989Y-119130672D01*
X99380775Y-119222328D01*
X99394616Y-119336858D01*
X99406638Y-119477865D01*
X99416967Y-119648950D01*
X99425730Y-119853715D01*
X99433053Y-120095761D01*
X99439063Y-120378692D01*
X99443884Y-120706109D01*
X99447644Y-121081613D01*
X99450469Y-121508807D01*
X99452485Y-121991293D01*
X99453818Y-122532672D01*
X99454595Y-123136546D01*
X99454941Y-123806518D01*
X99454983Y-124546189D01*
X99454848Y-125359161D01*
X99454661Y-126249036D01*
X99454549Y-127219416D01*
X99454547Y-127377614D01*
X99454668Y-128363608D01*
X99454934Y-129268525D01*
X99455197Y-130095955D01*
X99455307Y-130849487D01*
X99455117Y-131532710D01*
X99454477Y-132149213D01*
X99453241Y-132702585D01*
X99451259Y-133196417D01*
X99448382Y-133634297D01*
X99444464Y-134019814D01*
X99439355Y-134356558D01*
X99432906Y-134648119D01*
X99424970Y-134898084D01*
X99415399Y-135110045D01*
X99404043Y-135287589D01*
X99390755Y-135434307D01*
X99375386Y-135553788D01*
X99357787Y-135649620D01*
X99337812Y-135725394D01*
X99315310Y-135784698D01*
X99290134Y-135831122D01*
X99262135Y-135868255D01*
X99231165Y-135899686D01*
X99197076Y-135929005D01*
X99159719Y-135959802D01*
X99118945Y-135995664D01*
X99097474Y-136016374D01*
X99033677Y-136081646D01*
X98977404Y-136138927D01*
X98922990Y-136188755D01*
X98864771Y-136231669D01*
X98797083Y-136268208D01*
X98714260Y-136298910D01*
X98610639Y-136324315D01*
X98480555Y-136344960D01*
X98318342Y-136361385D01*
X98118338Y-136374129D01*
X97874877Y-136383729D01*
X97582295Y-136390725D01*
X97234927Y-136395656D01*
X96827108Y-136399060D01*
X96353175Y-136401475D01*
X95807463Y-136403441D01*
X95184307Y-136405496D01*
X94998963Y-136406147D01*
X91538213Y-136418604D01*
X91538213Y-139209780D01*
X105127213Y-139209780D01*
X105127213Y-142935114D01*
X103857213Y-142935114D01*
X103857213Y-140479780D01*
X90268213Y-140479780D01*
X90268213Y-136418679D01*
X86320630Y-136406646D01*
X82373047Y-136394614D01*
X82140213Y-136284963D01*
X81900161Y-136153145D01*
X81720295Y-136005202D01*
X81576329Y-135819300D01*
X81524430Y-135731365D01*
X81399380Y-135505614D01*
X81399380Y-119249614D01*
X81494890Y-119070874D01*
X81677945Y-118796884D01*
X81902360Y-118590012D01*
X82090181Y-118478740D01*
X82330713Y-118360614D01*
X98502047Y-118360614D01*
X98743958Y-118479407D01*
G36*
X117267542Y-118503946D02*
G01*
X117495794Y-118645760D01*
X117701774Y-118844787D01*
X117861433Y-119075075D01*
X117922673Y-119210878D01*
X117931678Y-119239579D01*
X117939928Y-119275482D01*
X117947454Y-119322225D01*
X117954290Y-119383443D01*
X117960469Y-119462774D01*
X117966023Y-119563853D01*
X117970985Y-119690318D01*
X117975388Y-119845803D01*
X117979266Y-120033947D01*
X117982650Y-120258384D01*
X117985574Y-120522753D01*
X117988071Y-120830688D01*
X117990173Y-121185826D01*
X117991913Y-121591805D01*
X117993325Y-122052259D01*
X117994441Y-122570826D01*
X117995293Y-123151142D01*
X117995916Y-123796844D01*
X117996341Y-124511567D01*
X117996602Y-125298948D01*
X117996731Y-126162624D01*
X117996761Y-127106230D01*
X117996756Y-127407775D01*
X117996719Y-128373522D01*
X117996638Y-129258263D01*
X117996472Y-130065660D01*
X117996185Y-130799372D01*
X117995738Y-131463063D01*
X117995094Y-132060392D01*
X117994213Y-132595020D01*
X117993058Y-133070610D01*
X117991591Y-133490820D01*
X117989773Y-133859314D01*
X117987567Y-134179751D01*
X117984934Y-134455793D01*
X117981836Y-134691101D01*
X117978236Y-134889336D01*
X117974094Y-135054159D01*
X117969373Y-135189231D01*
X117964035Y-135298213D01*
X117958041Y-135384765D01*
X117951354Y-135452550D01*
X117943935Y-135505228D01*
X117935747Y-135546461D01*
X117926750Y-135579908D01*
X117916907Y-135609232D01*
X117911184Y-135624757D01*
X117775773Y-135876907D01*
X117578477Y-136098695D01*
X117340665Y-136268669D01*
X117209912Y-136328775D01*
X117166721Y-136344264D01*
X117121599Y-136357796D01*
X117068834Y-136369505D01*
X117002715Y-136379522D01*
X116917531Y-136387978D01*
X116807571Y-136395007D01*
X116667124Y-136400739D01*
X116490479Y-136405308D01*
X116271926Y-136408844D01*
X116005752Y-136411480D01*
X115686248Y-136413347D01*
X115307703Y-136414578D01*
X114864404Y-136415305D01*
X114350643Y-136415659D01*
X113760706Y-136415772D01*
X113444125Y-136415780D01*
X109910880Y-136415780D01*
X109910880Y-139082780D01*
X114144213Y-139082780D01*
X114144213Y-142850447D01*
X112831880Y-142850447D01*
X112831880Y-140438230D01*
X108577380Y-140416280D01*
X108566383Y-138416891D01*
X108555385Y-136417502D01*
X100788047Y-136394614D01*
X100562295Y-136269563D01*
X100343164Y-136122715D01*
X100176342Y-135945554D01*
X100038985Y-135712883D01*
X100018851Y-135670205D01*
X99919355Y-135453797D01*
X99930367Y-127351705D01*
X99941380Y-119249614D01*
X100033062Y-119078377D01*
X100154567Y-118904078D01*
X100324926Y-118725614D01*
X100514610Y-118570834D01*
X100668772Y-118478792D01*
X100691130Y-118469672D01*
X100720064Y-118461312D01*
X100759169Y-118453679D01*
X100812037Y-118446740D01*
X100882260Y-118440462D01*
X100973433Y-118434812D01*
X101089147Y-118429758D01*
X101232995Y-118425265D01*
X101408571Y-118421303D01*
X101619467Y-118417836D01*
X101869276Y-118414833D01*
X102161591Y-118412261D01*
X102500004Y-118410086D01*
X102888110Y-118408275D01*
X103329499Y-118406797D01*
X103827766Y-118405616D01*
X104386504Y-118404702D01*
X105009304Y-118404020D01*
X105699760Y-118403538D01*
X106461464Y-118403223D01*
X107298011Y-118403041D01*
X108212991Y-118402961D01*
X108937213Y-118402947D01*
X117044047Y-118402947D01*
X117267542Y-118503946D01*
X117267542Y-118503946D01*
G37*
X117267542Y-118503946D02*
X117495794Y-118645760D01*
X117701774Y-118844787D01*
X117861433Y-119075075D01*
X117922673Y-119210878D01*
X117931678Y-119239579D01*
X117939928Y-119275482D01*
X117947454Y-119322225D01*
X117954290Y-119383443D01*
X117960469Y-119462774D01*
X117966023Y-119563853D01*
X117970985Y-119690318D01*
X117975388Y-119845803D01*
X117979266Y-120033947D01*
X117982650Y-120258384D01*
X117985574Y-120522753D01*
X117988071Y-120830688D01*
X117990173Y-121185826D01*
X117991913Y-121591805D01*
X117993325Y-122052259D01*
X117994441Y-122570826D01*
X117995293Y-123151142D01*
X117995916Y-123796844D01*
X117996341Y-124511567D01*
X117996602Y-125298948D01*
X117996731Y-126162624D01*
X117996761Y-127106230D01*
X117996756Y-127407775D01*
X117996719Y-128373522D01*
X117996638Y-129258263D01*
X117996472Y-130065660D01*
X117996185Y-130799372D01*
X117995738Y-131463063D01*
X117995094Y-132060392D01*
X117994213Y-132595020D01*
X117993058Y-133070610D01*
X117991591Y-133490820D01*
X117989773Y-133859314D01*
X117987567Y-134179751D01*
X117984934Y-134455793D01*
X117981836Y-134691101D01*
X117978236Y-134889336D01*
X117974094Y-135054159D01*
X117969373Y-135189231D01*
X117964035Y-135298213D01*
X117958041Y-135384765D01*
X117951354Y-135452550D01*
X117943935Y-135505228D01*
X117935747Y-135546461D01*
X117926750Y-135579908D01*
X117916907Y-135609232D01*
X117911184Y-135624757D01*
X117775773Y-135876907D01*
X117578477Y-136098695D01*
X117340665Y-136268669D01*
X117209912Y-136328775D01*
X117166721Y-136344264D01*
X117121599Y-136357796D01*
X117068834Y-136369505D01*
X117002715Y-136379522D01*
X116917531Y-136387978D01*
X116807571Y-136395007D01*
X116667124Y-136400739D01*
X116490479Y-136405308D01*
X116271926Y-136408844D01*
X116005752Y-136411480D01*
X115686248Y-136413347D01*
X115307703Y-136414578D01*
X114864404Y-136415305D01*
X114350643Y-136415659D01*
X113760706Y-136415772D01*
X113444125Y-136415780D01*
X109910880Y-136415780D01*
X109910880Y-139082780D01*
X114144213Y-139082780D01*
X114144213Y-142850447D01*
X112831880Y-142850447D01*
X112831880Y-140438230D01*
X108577380Y-140416280D01*
X108566383Y-138416891D01*
X108555385Y-136417502D01*
X100788047Y-136394614D01*
X100562295Y-136269563D01*
X100343164Y-136122715D01*
X100176342Y-135945554D01*
X100038985Y-135712883D01*
X100018851Y-135670205D01*
X99919355Y-135453797D01*
X99930367Y-127351705D01*
X99941380Y-119249614D01*
X100033062Y-119078377D01*
X100154567Y-118904078D01*
X100324926Y-118725614D01*
X100514610Y-118570834D01*
X100668772Y-118478792D01*
X100691130Y-118469672D01*
X100720064Y-118461312D01*
X100759169Y-118453679D01*
X100812037Y-118446740D01*
X100882260Y-118440462D01*
X100973433Y-118434812D01*
X101089147Y-118429758D01*
X101232995Y-118425265D01*
X101408571Y-118421303D01*
X101619467Y-118417836D01*
X101869276Y-118414833D01*
X102161591Y-118412261D01*
X102500004Y-118410086D01*
X102888110Y-118408275D01*
X103329499Y-118406797D01*
X103827766Y-118405616D01*
X104386504Y-118404702D01*
X105009304Y-118404020D01*
X105699760Y-118403538D01*
X106461464Y-118403223D01*
X107298011Y-118403041D01*
X108212991Y-118402961D01*
X108937213Y-118402947D01*
X117044047Y-118402947D01*
X117267542Y-118503946D01*
G36*
X65466722Y-134328479D02*
G01*
X65696653Y-134419484D01*
X65878100Y-134567064D01*
X65912047Y-134605574D01*
X65936994Y-134646198D01*
X65954023Y-134701323D01*
X65964210Y-134783335D01*
X65968636Y-134904620D01*
X65968379Y-135077566D01*
X65964518Y-135314558D01*
X65960498Y-135513101D01*
X65951914Y-135842091D01*
X65939557Y-136098665D01*
X65920656Y-136295069D01*
X65892438Y-136443548D01*
X65852132Y-136556346D01*
X65796964Y-136645709D01*
X65724164Y-136723882D01*
X65676988Y-136765380D01*
X65546083Y-136852445D01*
X65402467Y-136916797D01*
X65385482Y-136921917D01*
X65225986Y-136949887D01*
X65026132Y-136962249D01*
X64815292Y-136959601D01*
X64622838Y-136942540D01*
X64478144Y-136911663D01*
X64455463Y-136903000D01*
X64364468Y-136858221D01*
X64319048Y-136825623D01*
X64317880Y-136822410D01*
X64336917Y-136777237D01*
X64382583Y-136693245D01*
X64437704Y-136599700D01*
X64485111Y-136525870D01*
X64506783Y-136500447D01*
X64551003Y-136507645D01*
X64652545Y-136526130D01*
X64738595Y-136542284D01*
X64961137Y-136561367D01*
X65158943Y-136535241D01*
X65317707Y-136469780D01*
X65423121Y-136370858D01*
X65460880Y-136245771D01*
X65451165Y-136203905D01*
X65409178Y-136184768D01*
X65315656Y-136184203D01*
X65213052Y-136192281D01*
X64921239Y-136183902D01*
X64673953Y-136105431D01*
X64476521Y-135961823D01*
X64334271Y-135758032D01*
X64252532Y-135499014D01*
X64238300Y-135331058D01*
X64714557Y-135331058D01*
X64768948Y-135527455D01*
X64854396Y-135654794D01*
X64990956Y-135754990D01*
X65173116Y-135784604D01*
X65365630Y-135754098D01*
X65407538Y-135738502D01*
X65434923Y-135708166D01*
X65450866Y-135647413D01*
X65458447Y-135540563D01*
X65460747Y-135371939D01*
X65460880Y-135269332D01*
X65459417Y-135064220D01*
X65453277Y-134927594D01*
X65439829Y-134843299D01*
X65416443Y-134795178D01*
X65380490Y-134767076D01*
X65378996Y-134766270D01*
X65217034Y-134722930D01*
X65052519Y-134751856D01*
X64903694Y-134843241D01*
X64788803Y-134987280D01*
X64739427Y-135110080D01*
X64714557Y-135331058D01*
X64238300Y-135331058D01*
X64234143Y-135282004D01*
X64267663Y-134978986D01*
X64367160Y-134725192D01*
X64527621Y-134525801D01*
X64744034Y-134385989D01*
X65011385Y-134310935D01*
X65185713Y-134299114D01*
X65466722Y-134328479D01*
X65466722Y-134328479D01*
G37*
X65466722Y-134328479D02*
X65696653Y-134419484D01*
X65878100Y-134567064D01*
X65912047Y-134605574D01*
X65936994Y-134646198D01*
X65954023Y-134701323D01*
X65964210Y-134783335D01*
X65968636Y-134904620D01*
X65968379Y-135077566D01*
X65964518Y-135314558D01*
X65960498Y-135513101D01*
X65951914Y-135842091D01*
X65939557Y-136098665D01*
X65920656Y-136295069D01*
X65892438Y-136443548D01*
X65852132Y-136556346D01*
X65796964Y-136645709D01*
X65724164Y-136723882D01*
X65676988Y-136765380D01*
X65546083Y-136852445D01*
X65402467Y-136916797D01*
X65385482Y-136921917D01*
X65225986Y-136949887D01*
X65026132Y-136962249D01*
X64815292Y-136959601D01*
X64622838Y-136942540D01*
X64478144Y-136911663D01*
X64455463Y-136903000D01*
X64364468Y-136858221D01*
X64319048Y-136825623D01*
X64317880Y-136822410D01*
X64336917Y-136777237D01*
X64382583Y-136693245D01*
X64437704Y-136599700D01*
X64485111Y-136525870D01*
X64506783Y-136500447D01*
X64551003Y-136507645D01*
X64652545Y-136526130D01*
X64738595Y-136542284D01*
X64961137Y-136561367D01*
X65158943Y-136535241D01*
X65317707Y-136469780D01*
X65423121Y-136370858D01*
X65460880Y-136245771D01*
X65451165Y-136203905D01*
X65409178Y-136184768D01*
X65315656Y-136184203D01*
X65213052Y-136192281D01*
X64921239Y-136183902D01*
X64673953Y-136105431D01*
X64476521Y-135961823D01*
X64334271Y-135758032D01*
X64252532Y-135499014D01*
X64238300Y-135331058D01*
X64714557Y-135331058D01*
X64768948Y-135527455D01*
X64854396Y-135654794D01*
X64990956Y-135754990D01*
X65173116Y-135784604D01*
X65365630Y-135754098D01*
X65407538Y-135738502D01*
X65434923Y-135708166D01*
X65450866Y-135647413D01*
X65458447Y-135540563D01*
X65460747Y-135371939D01*
X65460880Y-135269332D01*
X65459417Y-135064220D01*
X65453277Y-134927594D01*
X65439829Y-134843299D01*
X65416443Y-134795178D01*
X65380490Y-134767076D01*
X65378996Y-134766270D01*
X65217034Y-134722930D01*
X65052519Y-134751856D01*
X64903694Y-134843241D01*
X64788803Y-134987280D01*
X64739427Y-135110080D01*
X64714557Y-135331058D01*
X64238300Y-135331058D01*
X64234143Y-135282004D01*
X64267663Y-134978986D01*
X64367160Y-134725192D01*
X64527621Y-134525801D01*
X64744034Y-134385989D01*
X65011385Y-134310935D01*
X65185713Y-134299114D01*
X65466722Y-134328479D01*
G36*
X67245853Y-134279528D02*
G01*
X67449039Y-134312809D01*
X67573121Y-134362614D01*
X67683825Y-134433056D01*
X67765990Y-134504577D01*
X67824169Y-134590981D01*
X67862916Y-134706073D01*
X67886785Y-134863660D01*
X67900329Y-135077546D01*
X67908102Y-135361537D01*
X67908449Y-135379260D01*
X67921851Y-136072516D01*
X67742245Y-136164145D01*
X67483637Y-136255977D01*
X67184156Y-136295479D01*
X66910172Y-136283745D01*
X66674000Y-136220965D01*
X66492965Y-136102686D01*
X66374936Y-135934870D01*
X66347756Y-135857561D01*
X66324959Y-135672787D01*
X66815547Y-135672787D01*
X66849765Y-135788357D01*
X66955036Y-135861565D01*
X67006047Y-135877147D01*
X67121424Y-135899758D01*
X67220294Y-135898166D01*
X67318255Y-135881322D01*
X67397527Y-135859699D01*
X67436479Y-135819767D01*
X67449377Y-135736417D01*
X67450547Y-135648489D01*
X67450547Y-135442114D01*
X67199570Y-135442114D01*
X67006087Y-135458044D01*
X66883659Y-135509047D01*
X66824269Y-135599939D01*
X66815547Y-135672787D01*
X66324959Y-135672787D01*
X66318548Y-135620828D01*
X66364142Y-135418768D01*
X66480296Y-135255724D01*
X66662766Y-135136036D01*
X66907309Y-135064044D01*
X67143323Y-135043727D01*
X67302375Y-135039563D01*
X67394557Y-135028539D01*
X67437648Y-135005522D01*
X67449427Y-134965376D01*
X67449592Y-134955280D01*
X67426250Y-134842745D01*
X67345056Y-134758886D01*
X67287339Y-134724909D01*
X67156412Y-134694518D01*
X66998505Y-134708711D01*
X66854462Y-134761391D01*
X66803884Y-134797067D01*
X66755707Y-134830900D01*
X66708333Y-134826708D01*
X66640273Y-134776033D01*
X66562221Y-134701939D01*
X66474365Y-134606559D01*
X66423416Y-134532092D01*
X66418005Y-134503296D01*
X66466294Y-134463602D01*
X66562921Y-134404555D01*
X66617335Y-134375092D01*
X66799650Y-134311066D01*
X67019273Y-134279079D01*
X67245853Y-134279528D01*
X67245853Y-134279528D01*
G37*
X67245853Y-134279528D02*
X67449039Y-134312809D01*
X67573121Y-134362614D01*
X67683825Y-134433056D01*
X67765990Y-134504577D01*
X67824169Y-134590981D01*
X67862916Y-134706073D01*
X67886785Y-134863660D01*
X67900329Y-135077546D01*
X67908102Y-135361537D01*
X67908449Y-135379260D01*
X67921851Y-136072516D01*
X67742245Y-136164145D01*
X67483637Y-136255977D01*
X67184156Y-136295479D01*
X66910172Y-136283745D01*
X66674000Y-136220965D01*
X66492965Y-136102686D01*
X66374936Y-135934870D01*
X66347756Y-135857561D01*
X66324959Y-135672787D01*
X66815547Y-135672787D01*
X66849765Y-135788357D01*
X66955036Y-135861565D01*
X67006047Y-135877147D01*
X67121424Y-135899758D01*
X67220294Y-135898166D01*
X67318255Y-135881322D01*
X67397527Y-135859699D01*
X67436479Y-135819767D01*
X67449377Y-135736417D01*
X67450547Y-135648489D01*
X67450547Y-135442114D01*
X67199570Y-135442114D01*
X67006087Y-135458044D01*
X66883659Y-135509047D01*
X66824269Y-135599939D01*
X66815547Y-135672787D01*
X66324959Y-135672787D01*
X66318548Y-135620828D01*
X66364142Y-135418768D01*
X66480296Y-135255724D01*
X66662766Y-135136036D01*
X66907309Y-135064044D01*
X67143323Y-135043727D01*
X67302375Y-135039563D01*
X67394557Y-135028539D01*
X67437648Y-135005522D01*
X67449427Y-134965376D01*
X67449592Y-134955280D01*
X67426250Y-134842745D01*
X67345056Y-134758886D01*
X67287339Y-134724909D01*
X67156412Y-134694518D01*
X66998505Y-134708711D01*
X66854462Y-134761391D01*
X66803884Y-134797067D01*
X66755707Y-134830900D01*
X66708333Y-134826708D01*
X66640273Y-134776033D01*
X66562221Y-134701939D01*
X66474365Y-134606559D01*
X66423416Y-134532092D01*
X66418005Y-134503296D01*
X66466294Y-134463602D01*
X66562921Y-134404555D01*
X66617335Y-134375092D01*
X66799650Y-134311066D01*
X67019273Y-134279079D01*
X67245853Y-134279528D01*
G36*
X68868713Y-136267614D02*
G01*
X68645990Y-136280426D01*
X68494893Y-136280097D01*
X68416108Y-136256088D01*
X68401721Y-136237091D01*
X68395921Y-136179821D01*
X68391751Y-136050978D01*
X68389346Y-135863638D01*
X68388839Y-135630881D01*
X68390365Y-135365786D01*
X68391611Y-135250612D01*
X68403047Y-134320280D01*
X68868713Y-134320280D01*
X68868713Y-136267614D01*
X68868713Y-136267614D01*
G37*
X68868713Y-136267614D02*
X68645990Y-136280426D01*
X68494893Y-136280097D01*
X68416108Y-136256088D01*
X68401721Y-136237091D01*
X68395921Y-136179821D01*
X68391751Y-136050978D01*
X68389346Y-135863638D01*
X68388839Y-135630881D01*
X68390365Y-135365786D01*
X68391611Y-135250612D01*
X68403047Y-134320280D01*
X68868713Y-134320280D01*
X68868713Y-136267614D01*
G36*
X70377344Y-134291375D02*
G01*
X70554896Y-134317235D01*
X70693459Y-134373022D01*
X70815121Y-134465765D01*
X70869974Y-134521146D01*
X70933097Y-134601374D01*
X70981274Y-134697777D01*
X71017102Y-134823496D01*
X71043178Y-134991673D01*
X71062098Y-135215450D01*
X71076461Y-135507968D01*
X71079153Y-135579697D01*
X71103222Y-136246447D01*
X70583213Y-136246447D01*
X70583213Y-135595989D01*
X70582318Y-135344506D01*
X70578499Y-135162903D01*
X70570054Y-135036402D01*
X70555282Y-134950227D01*
X70532481Y-134889600D01*
X70499949Y-134839743D01*
X70495474Y-134833989D01*
X70434349Y-134769865D01*
X70361800Y-134736251D01*
X70249345Y-134723741D01*
X70157762Y-134722447D01*
X69907790Y-134722447D01*
X69896251Y-135495030D01*
X69884713Y-136267614D01*
X69661663Y-136280437D01*
X69438612Y-136293260D01*
X69449996Y-135329649D01*
X69461380Y-134366037D01*
X69609547Y-134331456D01*
X69720251Y-134314643D01*
X69885573Y-134300084D01*
X70075464Y-134290225D01*
X70138713Y-134288412D01*
X70377344Y-134291375D01*
X70377344Y-134291375D01*
G37*
X70377344Y-134291375D02*
X70554896Y-134317235D01*
X70693459Y-134373022D01*
X70815121Y-134465765D01*
X70869974Y-134521146D01*
X70933097Y-134601374D01*
X70981274Y-134697777D01*
X71017102Y-134823496D01*
X71043178Y-134991673D01*
X71062098Y-135215450D01*
X71076461Y-135507968D01*
X71079153Y-135579697D01*
X71103222Y-136246447D01*
X70583213Y-136246447D01*
X70583213Y-135595989D01*
X70582318Y-135344506D01*
X70578499Y-135162903D01*
X70570054Y-135036402D01*
X70555282Y-134950227D01*
X70532481Y-134889600D01*
X70499949Y-134839743D01*
X70495474Y-134833989D01*
X70434349Y-134769865D01*
X70361800Y-134736251D01*
X70249345Y-134723741D01*
X70157762Y-134722447D01*
X69907790Y-134722447D01*
X69896251Y-135495030D01*
X69884713Y-136267614D01*
X69661663Y-136280437D01*
X69438612Y-136293260D01*
X69449996Y-135329649D01*
X69461380Y-134366037D01*
X69609547Y-134331456D01*
X69720251Y-134314643D01*
X69885573Y-134300084D01*
X70075464Y-134290225D01*
X70138713Y-134288412D01*
X70377344Y-134291375D01*
G36*
X68889880Y-134045114D02*
G01*
X68381880Y-134045114D01*
X68381880Y-133537114D01*
X68889880Y-133537114D01*
X68889880Y-134045114D01*
X68889880Y-134045114D01*
G37*
X68889880Y-134045114D02*
X68381880Y-134045114D01*
X68381880Y-133537114D01*
X68889880Y-133537114D01*
X68889880Y-134045114D01*
G36*
X64384233Y-111058114D02*
G01*
X65037547Y-111058114D01*
X65037547Y-111396780D01*
X64148547Y-111396780D01*
X64148547Y-111777780D01*
X64368014Y-111777780D01*
X64613026Y-111809544D01*
X64823343Y-111897204D01*
X64990533Y-112029312D01*
X65106168Y-112194424D01*
X65161818Y-112381090D01*
X65149053Y-112577865D01*
X65078939Y-112743174D01*
X64944610Y-112888120D01*
X64748480Y-112998777D01*
X64509218Y-113067177D01*
X64275547Y-113086061D01*
X64113572Y-113079420D01*
X63971696Y-113065438D01*
X63894272Y-113050560D01*
X63769031Y-113003253D01*
X63640646Y-112940943D01*
X63538372Y-112879089D01*
X63494271Y-112839174D01*
X63509750Y-112792262D01*
X63577354Y-112719736D01*
X63620678Y-112684086D01*
X63771730Y-112568874D01*
X63934152Y-112660160D01*
X64115952Y-112732833D01*
X64294708Y-112753800D01*
X64453808Y-112727244D01*
X64576639Y-112657349D01*
X64646587Y-112548296D01*
X64656547Y-112478272D01*
X64621972Y-112296712D01*
X64526621Y-112166621D01*
X64383055Y-112097159D01*
X64203834Y-112097483D01*
X64152026Y-112110403D01*
X64003850Y-112141116D01*
X63834570Y-112157785D01*
X63791021Y-112158780D01*
X63671027Y-112155997D01*
X63615796Y-112138935D01*
X63605433Y-112094524D01*
X63613802Y-112042364D01*
X63627298Y-111946098D01*
X63643286Y-111794028D01*
X63658832Y-111614840D01*
X63662530Y-111566114D01*
X63674912Y-111376829D01*
X63688274Y-111241147D01*
X63715174Y-111150230D01*
X63768170Y-111095237D01*
X63859818Y-111067331D01*
X64002676Y-111057671D01*
X64209302Y-111057419D01*
X64384233Y-111058114D01*
X64384233Y-111058114D01*
G37*
X64384233Y-111058114D02*
X65037547Y-111058114D01*
X65037547Y-111396780D01*
X64148547Y-111396780D01*
X64148547Y-111777780D01*
X64368014Y-111777780D01*
X64613026Y-111809544D01*
X64823343Y-111897204D01*
X64990533Y-112029312D01*
X65106168Y-112194424D01*
X65161818Y-112381090D01*
X65149053Y-112577865D01*
X65078939Y-112743174D01*
X64944610Y-112888120D01*
X64748480Y-112998777D01*
X64509218Y-113067177D01*
X64275547Y-113086061D01*
X64113572Y-113079420D01*
X63971696Y-113065438D01*
X63894272Y-113050560D01*
X63769031Y-113003253D01*
X63640646Y-112940943D01*
X63538372Y-112879089D01*
X63494271Y-112839174D01*
X63509750Y-112792262D01*
X63577354Y-112719736D01*
X63620678Y-112684086D01*
X63771730Y-112568874D01*
X63934152Y-112660160D01*
X64115952Y-112732833D01*
X64294708Y-112753800D01*
X64453808Y-112727244D01*
X64576639Y-112657349D01*
X64646587Y-112548296D01*
X64656547Y-112478272D01*
X64621972Y-112296712D01*
X64526621Y-112166621D01*
X64383055Y-112097159D01*
X64203834Y-112097483D01*
X64152026Y-112110403D01*
X64003850Y-112141116D01*
X63834570Y-112157785D01*
X63791021Y-112158780D01*
X63671027Y-112155997D01*
X63615796Y-112138935D01*
X63605433Y-112094524D01*
X63613802Y-112042364D01*
X63627298Y-111946098D01*
X63643286Y-111794028D01*
X63658832Y-111614840D01*
X63662530Y-111566114D01*
X63674912Y-111376829D01*
X63688274Y-111241147D01*
X63715174Y-111150230D01*
X63768170Y-111095237D01*
X63859818Y-111067331D01*
X64002676Y-111057671D01*
X64209302Y-111057419D01*
X64384233Y-111058114D01*
G36*
X93999388Y-111077899D02*
G01*
X94112618Y-111091577D01*
X94265769Y-111115364D01*
X94383199Y-111137903D01*
X94442317Y-111154784D01*
X94444618Y-111156407D01*
X94441791Y-111204250D01*
X94406058Y-111291446D01*
X94402774Y-111297788D01*
X94368811Y-111355616D01*
X94328241Y-111391083D01*
X94261518Y-111409652D01*
X94149093Y-111416785D01*
X93972857Y-111417947D01*
X93794954Y-111419274D01*
X93679327Y-111427461D01*
X93603586Y-111448817D01*
X93545341Y-111489653D01*
X93482275Y-111556198D01*
X93394883Y-111662338D01*
X93363878Y-111732375D01*
X93396047Y-111773611D01*
X93498175Y-111793348D01*
X93677049Y-111798888D01*
X93707882Y-111798947D01*
X94008562Y-111822382D01*
X94240425Y-111893730D01*
X94405508Y-112014551D01*
X94505848Y-112186407D01*
X94543480Y-112410861D01*
X94543880Y-112440092D01*
X94532986Y-112587477D01*
X94489740Y-112695276D01*
X94417719Y-112786040D01*
X94219876Y-112943222D01*
X93974169Y-113045958D01*
X93700870Y-113090058D01*
X93420251Y-113071333D01*
X93252713Y-113026771D01*
X93075547Y-112927509D01*
X92929455Y-112777228D01*
X92837663Y-112601794D01*
X92824502Y-112549834D01*
X92814008Y-112439336D01*
X92810508Y-112276337D01*
X92810580Y-112273054D01*
X93325818Y-112273054D01*
X93327354Y-112409622D01*
X93373594Y-112588141D01*
X93460727Y-112697299D01*
X93598407Y-112746432D01*
X93680959Y-112751447D01*
X93832320Y-112733474D01*
X93936011Y-112672535D01*
X93949564Y-112658798D01*
X94020073Y-112529410D01*
X94031526Y-112378858D01*
X93983800Y-112241564D01*
X93951213Y-112201114D01*
X93854070Y-112140555D01*
X93708984Y-112117311D01*
X93662971Y-112116447D01*
X93483209Y-112130979D01*
X93374108Y-112180313D01*
X93325818Y-112273054D01*
X92810580Y-112273054D01*
X92814544Y-112092756D01*
X92816148Y-112059308D01*
X92857568Y-111746892D01*
X92948409Y-111500395D01*
X93093237Y-111313928D01*
X93296621Y-111181601D01*
X93561637Y-111097833D01*
X93771989Y-111070515D01*
X93999388Y-111077899D01*
X93999388Y-111077899D01*
G37*
X93999388Y-111077899D02*
X94112618Y-111091577D01*
X94265769Y-111115364D01*
X94383199Y-111137903D01*
X94442317Y-111154784D01*
X94444618Y-111156407D01*
X94441791Y-111204250D01*
X94406058Y-111291446D01*
X94402774Y-111297788D01*
X94368811Y-111355616D01*
X94328241Y-111391083D01*
X94261518Y-111409652D01*
X94149093Y-111416785D01*
X93972857Y-111417947D01*
X93794954Y-111419274D01*
X93679327Y-111427461D01*
X93603586Y-111448817D01*
X93545341Y-111489653D01*
X93482275Y-111556198D01*
X93394883Y-111662338D01*
X93363878Y-111732375D01*
X93396047Y-111773611D01*
X93498175Y-111793348D01*
X93677049Y-111798888D01*
X93707882Y-111798947D01*
X94008562Y-111822382D01*
X94240425Y-111893730D01*
X94405508Y-112014551D01*
X94505848Y-112186407D01*
X94543480Y-112410861D01*
X94543880Y-112440092D01*
X94532986Y-112587477D01*
X94489740Y-112695276D01*
X94417719Y-112786040D01*
X94219876Y-112943222D01*
X93974169Y-113045958D01*
X93700870Y-113090058D01*
X93420251Y-113071333D01*
X93252713Y-113026771D01*
X93075547Y-112927509D01*
X92929455Y-112777228D01*
X92837663Y-112601794D01*
X92824502Y-112549834D01*
X92814008Y-112439336D01*
X92810508Y-112276337D01*
X92810580Y-112273054D01*
X93325818Y-112273054D01*
X93327354Y-112409622D01*
X93373594Y-112588141D01*
X93460727Y-112697299D01*
X93598407Y-112746432D01*
X93680959Y-112751447D01*
X93832320Y-112733474D01*
X93936011Y-112672535D01*
X93949564Y-112658798D01*
X94020073Y-112529410D01*
X94031526Y-112378858D01*
X93983800Y-112241564D01*
X93951213Y-112201114D01*
X93854070Y-112140555D01*
X93708984Y-112117311D01*
X93662971Y-112116447D01*
X93483209Y-112130979D01*
X93374108Y-112180313D01*
X93325818Y-112273054D01*
X92810580Y-112273054D01*
X92814544Y-112092756D01*
X92816148Y-112059308D01*
X92857568Y-111746892D01*
X92948409Y-111500395D01*
X93093237Y-111313928D01*
X93296621Y-111181601D01*
X93561637Y-111097833D01*
X93771989Y-111070515D01*
X93999388Y-111077899D01*
G36*
X124092547Y-111210643D02*
G01*
X124078146Y-111317595D01*
X124025958Y-111422701D01*
X123922503Y-111552217D01*
X123910046Y-111566158D01*
X123735399Y-111779036D01*
X123555947Y-112029796D01*
X123386878Y-112294459D01*
X123243385Y-112549049D01*
X123140657Y-112769587D01*
X123130004Y-112797432D01*
X123021946Y-113090114D01*
X122775127Y-113090114D01*
X122637775Y-113088457D01*
X122568082Y-113077953D01*
X122549045Y-113050297D01*
X122563657Y-112997185D01*
X122566958Y-112988459D01*
X122637986Y-112824746D01*
X122738500Y-112623727D01*
X122859020Y-112401383D01*
X122990070Y-112173699D01*
X123122168Y-111956659D01*
X123245837Y-111766246D01*
X123351598Y-111618445D01*
X123429972Y-111529239D01*
X123434747Y-111525136D01*
X123488860Y-111463687D01*
X123499880Y-111433930D01*
X123460121Y-111420351D01*
X123351128Y-111408997D01*
X123188323Y-111400872D01*
X122987128Y-111396976D01*
X122928380Y-111396780D01*
X122356880Y-111396780D01*
X122356880Y-111058114D01*
X124092547Y-111058114D01*
X124092547Y-111210643D01*
X124092547Y-111210643D01*
G37*
X124092547Y-111210643D02*
X124078146Y-111317595D01*
X124025958Y-111422701D01*
X123922503Y-111552217D01*
X123910046Y-111566158D01*
X123735399Y-111779036D01*
X123555947Y-112029796D01*
X123386878Y-112294459D01*
X123243385Y-112549049D01*
X123140657Y-112769587D01*
X123130004Y-112797432D01*
X123021946Y-113090114D01*
X122775127Y-113090114D01*
X122637775Y-113088457D01*
X122568082Y-113077953D01*
X122549045Y-113050297D01*
X122563657Y-112997185D01*
X122566958Y-112988459D01*
X122637986Y-112824746D01*
X122738500Y-112623727D01*
X122859020Y-112401383D01*
X122990070Y-112173699D01*
X123122168Y-111956659D01*
X123245837Y-111766246D01*
X123351598Y-111618445D01*
X123429972Y-111529239D01*
X123434747Y-111525136D01*
X123488860Y-111463687D01*
X123499880Y-111433930D01*
X123460121Y-111420351D01*
X123351128Y-111408997D01*
X123188323Y-111400872D01*
X122987128Y-111396976D01*
X122928380Y-111396780D01*
X122356880Y-111396780D01*
X122356880Y-111058114D01*
X124092547Y-111058114D01*
X124092547Y-111210643D01*
G36*
X152665936Y-110995495D02*
G01*
X152744029Y-111013350D01*
X152897579Y-111078498D01*
X153051578Y-111181925D01*
X153181931Y-111303518D01*
X153264544Y-111423162D01*
X153277113Y-111458351D01*
X153275871Y-111607226D01*
X153213117Y-111770445D01*
X153122065Y-111895207D01*
X153031890Y-111991467D01*
X153167218Y-112115071D01*
X153256430Y-112213619D01*
X153301216Y-112319856D01*
X153310690Y-112463314D01*
X153304821Y-112560824D01*
X153279309Y-112698457D01*
X153217790Y-112802592D01*
X153102481Y-112897481D01*
X153020962Y-112947946D01*
X152889751Y-113013752D01*
X152754404Y-113052086D01*
X152580914Y-113071300D01*
X152503158Y-113075122D01*
X152329376Y-113076496D01*
X152174527Y-113068206D01*
X152070113Y-113052027D01*
X152064891Y-113050448D01*
X151840540Y-112948140D01*
X151668343Y-112808249D01*
X151559392Y-112642559D01*
X151524547Y-112476280D01*
X151535908Y-112421006D01*
X152074880Y-112421006D01*
X152095888Y-112586904D01*
X152165733Y-112690635D01*
X152294640Y-112741788D01*
X152427358Y-112751447D01*
X152607031Y-112733060D01*
X152717130Y-112681386D01*
X152778813Y-112572765D01*
X152794547Y-112449528D01*
X152771747Y-112316936D01*
X152695547Y-112225323D01*
X152554241Y-112164411D01*
X152441796Y-112139790D01*
X152267142Y-112136498D01*
X152147763Y-112196875D01*
X152084923Y-112319951D01*
X152074880Y-112421006D01*
X151535908Y-112421006D01*
X151557113Y-112317847D01*
X151640031Y-112162063D01*
X151738720Y-112060189D01*
X151826377Y-111998792D01*
X151717795Y-111890210D01*
X151632589Y-111750554D01*
X151608137Y-111610740D01*
X152117776Y-111610740D01*
X152135629Y-111734078D01*
X152150806Y-111765088D01*
X152248253Y-111848163D01*
X152387293Y-111889452D01*
X152533942Y-111885336D01*
X152654220Y-111832195D01*
X152667547Y-111820114D01*
X152734903Y-111700458D01*
X152748245Y-111554928D01*
X152706271Y-111421881D01*
X152682152Y-111389530D01*
X152581830Y-111332389D01*
X152442020Y-111312181D01*
X152299688Y-111329465D01*
X152194630Y-111382175D01*
X152139124Y-111478746D01*
X152117776Y-111610740D01*
X151608137Y-111610740D01*
X151602375Y-111577797D01*
X151627582Y-111403575D01*
X151708639Y-111259530D01*
X151709230Y-111258890D01*
X151896367Y-111114646D01*
X152133442Y-111019048D01*
X152397587Y-110977522D01*
X152665936Y-110995495D01*
X152665936Y-110995495D01*
G37*
X152665936Y-110995495D02*
X152744029Y-111013350D01*
X152897579Y-111078498D01*
X153051578Y-111181925D01*
X153181931Y-111303518D01*
X153264544Y-111423162D01*
X153277113Y-111458351D01*
X153275871Y-111607226D01*
X153213117Y-111770445D01*
X153122065Y-111895207D01*
X153031890Y-111991467D01*
X153167218Y-112115071D01*
X153256430Y-112213619D01*
X153301216Y-112319856D01*
X153310690Y-112463314D01*
X153304821Y-112560824D01*
X153279309Y-112698457D01*
X153217790Y-112802592D01*
X153102481Y-112897481D01*
X153020962Y-112947946D01*
X152889751Y-113013752D01*
X152754404Y-113052086D01*
X152580914Y-113071300D01*
X152503158Y-113075122D01*
X152329376Y-113076496D01*
X152174527Y-113068206D01*
X152070113Y-113052027D01*
X152064891Y-113050448D01*
X151840540Y-112948140D01*
X151668343Y-112808249D01*
X151559392Y-112642559D01*
X151524547Y-112476280D01*
X151535908Y-112421006D01*
X152074880Y-112421006D01*
X152095888Y-112586904D01*
X152165733Y-112690635D01*
X152294640Y-112741788D01*
X152427358Y-112751447D01*
X152607031Y-112733060D01*
X152717130Y-112681386D01*
X152778813Y-112572765D01*
X152794547Y-112449528D01*
X152771747Y-112316936D01*
X152695547Y-112225323D01*
X152554241Y-112164411D01*
X152441796Y-112139790D01*
X152267142Y-112136498D01*
X152147763Y-112196875D01*
X152084923Y-112319951D01*
X152074880Y-112421006D01*
X151535908Y-112421006D01*
X151557113Y-112317847D01*
X151640031Y-112162063D01*
X151738720Y-112060189D01*
X151826377Y-111998792D01*
X151717795Y-111890210D01*
X151632589Y-111750554D01*
X151608137Y-111610740D01*
X152117776Y-111610740D01*
X152135629Y-111734078D01*
X152150806Y-111765088D01*
X152248253Y-111848163D01*
X152387293Y-111889452D01*
X152533942Y-111885336D01*
X152654220Y-111832195D01*
X152667547Y-111820114D01*
X152734903Y-111700458D01*
X152748245Y-111554928D01*
X152706271Y-111421881D01*
X152682152Y-111389530D01*
X152581830Y-111332389D01*
X152442020Y-111312181D01*
X152299688Y-111329465D01*
X152194630Y-111382175D01*
X152139124Y-111478746D01*
X152117776Y-111610740D01*
X151608137Y-111610740D01*
X151602375Y-111577797D01*
X151627582Y-111403575D01*
X151708639Y-111259530D01*
X151709230Y-111258890D01*
X151896367Y-111114646D01*
X152133442Y-111019048D01*
X152397587Y-110977522D01*
X152665936Y-110995495D01*
G36*
X93890786Y-54035114D02*
G01*
X95606165Y-54035115D01*
X97238925Y-54035124D01*
X98791111Y-54035149D01*
X100264770Y-54035195D01*
X101661949Y-54035270D01*
X102984695Y-54035382D01*
X104235055Y-54035536D01*
X105415074Y-54035741D01*
X106526800Y-54036004D01*
X107572279Y-54036331D01*
X108553558Y-54036730D01*
X109472683Y-54037208D01*
X110331702Y-54037772D01*
X111132661Y-54038428D01*
X111877606Y-54039185D01*
X112568584Y-54040049D01*
X113207643Y-54041028D01*
X113796828Y-54042127D01*
X114338186Y-54043355D01*
X114833764Y-54044719D01*
X115285608Y-54046226D01*
X115695766Y-54047882D01*
X116066283Y-54049695D01*
X116399207Y-54051673D01*
X116696584Y-54053821D01*
X116960461Y-54056148D01*
X117192885Y-54058660D01*
X117395901Y-54061364D01*
X117571557Y-54064268D01*
X117721900Y-54067378D01*
X117848976Y-54070702D01*
X117954831Y-54074247D01*
X118041513Y-54078020D01*
X118111069Y-54082028D01*
X118165543Y-54086278D01*
X118206985Y-54090778D01*
X118237439Y-54095533D01*
X118258953Y-54100553D01*
X118273573Y-54105842D01*
X118283347Y-54111409D01*
X118290320Y-54117261D01*
X118292880Y-54119780D01*
X118303231Y-54131042D01*
X118312702Y-54145647D01*
X118321332Y-54167236D01*
X118329161Y-54199448D01*
X118336226Y-54245924D01*
X118342568Y-54310305D01*
X118348226Y-54396230D01*
X118353238Y-54507340D01*
X118357644Y-54647276D01*
X118361482Y-54819678D01*
X118364792Y-55028185D01*
X118367613Y-55276439D01*
X118369985Y-55568080D01*
X118371945Y-55906748D01*
X118373533Y-56296084D01*
X118374789Y-56739728D01*
X118375751Y-57241319D01*
X118376459Y-57804500D01*
X118376951Y-58432909D01*
X118377266Y-59130187D01*
X118377445Y-59899975D01*
X118377525Y-60745913D01*
X118377546Y-61671641D01*
X118377547Y-62004748D01*
X118377546Y-69805050D01*
X118726797Y-69883505D01*
X119484874Y-70086967D01*
X120262130Y-70357967D01*
X121040813Y-70687851D01*
X121803173Y-71067969D01*
X122531457Y-71489669D01*
X123207915Y-71944300D01*
X123644419Y-72280220D01*
X123792835Y-72399667D01*
X123917076Y-72496152D01*
X124002772Y-72558737D01*
X124034558Y-72577114D01*
X124071866Y-72548954D01*
X124159792Y-72470529D01*
X124288569Y-72350920D01*
X124448430Y-72199210D01*
X124629608Y-72024480D01*
X124645220Y-72009303D01*
X125052516Y-71620822D01*
X125417365Y-71290521D01*
X125750198Y-71010460D01*
X126061452Y-70772700D01*
X126361559Y-70569300D01*
X126660953Y-70392320D01*
X126970070Y-70233820D01*
X126992380Y-70223194D01*
X127548231Y-70000712D01*
X128101601Y-69862226D01*
X128654768Y-69807755D01*
X129210010Y-69837317D01*
X129769603Y-69950929D01*
X130335825Y-70148612D01*
X130565913Y-70251816D01*
X130849811Y-70395106D01*
X131125424Y-70552189D01*
X131402461Y-70730269D01*
X131690634Y-70936547D01*
X131999654Y-71178225D01*
X132339230Y-71462505D01*
X132719075Y-71796590D01*
X133035069Y-72083112D01*
X133213863Y-72244721D01*
X133372610Y-72384159D01*
X133500306Y-72492083D01*
X133585949Y-72559151D01*
X133616888Y-72577114D01*
X133665400Y-72553108D01*
X133766752Y-72487637D01*
X133906419Y-72390521D01*
X134069874Y-72271582D01*
X134080435Y-72263732D01*
X134883079Y-71715936D01*
X135741363Y-71223807D01*
X136641483Y-70794577D01*
X137569634Y-70435477D01*
X137571005Y-70435007D01*
X137871488Y-70336076D01*
X138184165Y-70240434D01*
X138497953Y-70150766D01*
X138801772Y-70069756D01*
X139084540Y-70000088D01*
X139335176Y-69944446D01*
X139542598Y-69905514D01*
X139695725Y-69885976D01*
X139783476Y-69888515D01*
X139797332Y-69895781D01*
X139826924Y-69959369D01*
X139854081Y-70063797D01*
X139854725Y-70067206D01*
X139865271Y-70157041D01*
X139837771Y-70200734D01*
X139751481Y-70223608D01*
X139722740Y-70228331D01*
X139517575Y-70267801D01*
X139251536Y-70328781D01*
X138944051Y-70405953D01*
X138614550Y-70493999D01*
X138282461Y-70587602D01*
X137967215Y-70681444D01*
X137688240Y-70770207D01*
X137488039Y-70839946D01*
X136780986Y-71128276D01*
X136068136Y-71469072D01*
X135373662Y-71849322D01*
X134721737Y-72256015D01*
X134281626Y-72565815D01*
X133905681Y-72845731D01*
X134005030Y-72923720D01*
X134819354Y-73509837D01*
X135687257Y-74033121D01*
X136602701Y-74490859D01*
X137559646Y-74880335D01*
X138552055Y-75198835D01*
X139573888Y-75443645D01*
X139639514Y-75456616D01*
X139776754Y-75487232D01*
X139848423Y-75525260D01*
X139865820Y-75591732D01*
X139840245Y-75707683D01*
X139816397Y-75785885D01*
X139801847Y-75808444D01*
X139768739Y-75820432D01*
X139707400Y-75820291D01*
X139608157Y-75806465D01*
X139461338Y-75777397D01*
X139257270Y-75731530D01*
X138986282Y-75667308D01*
X138799381Y-75622185D01*
X137779735Y-75333672D01*
X136798177Y-74972078D01*
X135858260Y-74539058D01*
X134963535Y-74036268D01*
X134117556Y-73465361D01*
X134030559Y-73400675D01*
X133618072Y-73091134D01*
X132949244Y-73691374D01*
X132656802Y-73953244D01*
X132416563Y-74166585D01*
X132218174Y-74339919D01*
X132051278Y-74481767D01*
X131905522Y-74600650D01*
X131770549Y-74705090D01*
X131636005Y-74803608D01*
X131491535Y-74904727D01*
X131392893Y-74972154D01*
X130872719Y-75294834D01*
X130369586Y-75541868D01*
X129872124Y-75717364D01*
X129368961Y-75825431D01*
X128914018Y-75867953D01*
X128530142Y-75873025D01*
X128198147Y-75851125D01*
X127888459Y-75798386D01*
X127571505Y-75710940D01*
X127479213Y-75680320D01*
X127119093Y-75540894D01*
X126763408Y-75368407D01*
X126403848Y-75157015D01*
X126032106Y-74900873D01*
X125639872Y-74594139D01*
X125218839Y-74230969D01*
X124760697Y-73805518D01*
X124617730Y-73667732D01*
X124401298Y-73460434D01*
X124236753Y-73309796D01*
X124117975Y-73210806D01*
X124038843Y-73158451D01*
X123993237Y-73147719D01*
X123986566Y-73150804D01*
X123933924Y-73190294D01*
X123828236Y-73271555D01*
X123683067Y-73384091D01*
X123511982Y-73517407D01*
X123442213Y-73571947D01*
X122692737Y-74108586D01*
X121884692Y-74594274D01*
X121031537Y-75022567D01*
X120146728Y-75387019D01*
X119243722Y-75681186D01*
X118790297Y-75799733D01*
X118377547Y-75898690D01*
X118377547Y-90901302D01*
X118266004Y-90989041D01*
X118154462Y-91076780D01*
X69605698Y-91076780D01*
X69397880Y-90868962D01*
X69397880Y-72854326D01*
X118377547Y-72854326D01*
X118377647Y-73398545D01*
X118378059Y-73864141D01*
X118378950Y-74257158D01*
X118380489Y-74583641D01*
X118382843Y-74849634D01*
X118386179Y-75061180D01*
X118390666Y-75224323D01*
X118396470Y-75345108D01*
X118403760Y-75429579D01*
X118412703Y-75483780D01*
X118423467Y-75513754D01*
X118436219Y-75525545D01*
X118451127Y-75525199D01*
X118451630Y-75525058D01*
X118522892Y-75505483D01*
X118654202Y-75470018D01*
X118823787Y-75424530D01*
X118934363Y-75394997D01*
X119907678Y-75092557D01*
X120843395Y-74714612D01*
X121739780Y-74262036D01*
X122595096Y-73735702D01*
X123387414Y-73152680D01*
X123761782Y-72853093D01*
X123761412Y-72852777D01*
X124292602Y-72852777D01*
X125070991Y-73582989D01*
X125304515Y-73799649D01*
X125537047Y-74011023D01*
X125755479Y-74205520D01*
X125946706Y-74371547D01*
X126097621Y-74497514D01*
X126162681Y-74548527D01*
X126711763Y-74919677D01*
X127258175Y-75206256D01*
X127802020Y-75408315D01*
X128051372Y-75472897D01*
X128321281Y-75512523D01*
X128641826Y-75527301D01*
X128983045Y-75518313D01*
X129314974Y-75486641D01*
X129607651Y-75433364D01*
X129680547Y-75414131D01*
X130129362Y-75253875D01*
X130601066Y-75027716D01*
X131079205Y-74744724D01*
X131547328Y-74413968D01*
X131670213Y-74317374D01*
X131763343Y-74239909D01*
X131898075Y-74124419D01*
X132064303Y-73979889D01*
X132251925Y-73815306D01*
X132450834Y-73639656D01*
X132650927Y-73461926D01*
X132842099Y-73291101D01*
X133014246Y-73136168D01*
X133157263Y-73006114D01*
X133261045Y-72909925D01*
X133315488Y-72856587D01*
X133321213Y-72849073D01*
X133291035Y-72817513D01*
X133207251Y-72739211D01*
X133079984Y-72623165D01*
X132919359Y-72478370D01*
X132735498Y-72313825D01*
X132538527Y-72138527D01*
X132338568Y-71961473D01*
X132145746Y-71791659D01*
X131970185Y-71638085D01*
X131822008Y-71509746D01*
X131711340Y-71415640D01*
X131670213Y-71381802D01*
X131112424Y-70972067D01*
X130562739Y-70646351D01*
X130019834Y-70404531D01*
X129482387Y-70246488D01*
X128949076Y-70172098D01*
X128418577Y-70181240D01*
X127889569Y-70273794D01*
X127360729Y-70449636D01*
X126830734Y-70708645D01*
X126506904Y-70907033D01*
X126253366Y-71088161D01*
X125951253Y-71328597D01*
X125606748Y-71623070D01*
X125226035Y-71966314D01*
X124859324Y-72310875D01*
X124292602Y-72852777D01*
X123761412Y-72852777D01*
X123620247Y-72732439D01*
X123041620Y-72276547D01*
X122400202Y-71838137D01*
X121717749Y-71430151D01*
X121016015Y-71065531D01*
X120316756Y-70757220D01*
X120266990Y-70737502D01*
X120026460Y-70648658D01*
X119732761Y-70548898D01*
X119411357Y-70446104D01*
X119087711Y-70348157D01*
X118787287Y-70262938D01*
X118535550Y-70198330D01*
X118493963Y-70188728D01*
X118377547Y-70162500D01*
X118377547Y-72854326D01*
X69397880Y-72854326D01*
X69397880Y-54258198D01*
X69485619Y-54146656D01*
X69573358Y-54035113D01*
X93890786Y-54035114D01*
X93890786Y-54035114D01*
G37*
X93890786Y-54035114D02*
X95606165Y-54035115D01*
X97238925Y-54035124D01*
X98791111Y-54035149D01*
X100264770Y-54035195D01*
X101661949Y-54035270D01*
X102984695Y-54035382D01*
X104235055Y-54035536D01*
X105415074Y-54035741D01*
X106526800Y-54036004D01*
X107572279Y-54036331D01*
X108553558Y-54036730D01*
X109472683Y-54037208D01*
X110331702Y-54037772D01*
X111132661Y-54038428D01*
X111877606Y-54039185D01*
X112568584Y-54040049D01*
X113207643Y-54041028D01*
X113796828Y-54042127D01*
X114338186Y-54043355D01*
X114833764Y-54044719D01*
X115285608Y-54046226D01*
X115695766Y-54047882D01*
X116066283Y-54049695D01*
X116399207Y-54051673D01*
X116696584Y-54053821D01*
X116960461Y-54056148D01*
X117192885Y-54058660D01*
X117395901Y-54061364D01*
X117571557Y-54064268D01*
X117721900Y-54067378D01*
X117848976Y-54070702D01*
X117954831Y-54074247D01*
X118041513Y-54078020D01*
X118111069Y-54082028D01*
X118165543Y-54086278D01*
X118206985Y-54090778D01*
X118237439Y-54095533D01*
X118258953Y-54100553D01*
X118273573Y-54105842D01*
X118283347Y-54111409D01*
X118290320Y-54117261D01*
X118292880Y-54119780D01*
X118303231Y-54131042D01*
X118312702Y-54145647D01*
X118321332Y-54167236D01*
X118329161Y-54199448D01*
X118336226Y-54245924D01*
X118342568Y-54310305D01*
X118348226Y-54396230D01*
X118353238Y-54507340D01*
X118357644Y-54647276D01*
X118361482Y-54819678D01*
X118364792Y-55028185D01*
X118367613Y-55276439D01*
X118369985Y-55568080D01*
X118371945Y-55906748D01*
X118373533Y-56296084D01*
X118374789Y-56739728D01*
X118375751Y-57241319D01*
X118376459Y-57804500D01*
X118376951Y-58432909D01*
X118377266Y-59130187D01*
X118377445Y-59899975D01*
X118377525Y-60745913D01*
X118377546Y-61671641D01*
X118377547Y-62004748D01*
X118377546Y-69805050D01*
X118726797Y-69883505D01*
X119484874Y-70086967D01*
X120262130Y-70357967D01*
X121040813Y-70687851D01*
X121803173Y-71067969D01*
X122531457Y-71489669D01*
X123207915Y-71944300D01*
X123644419Y-72280220D01*
X123792835Y-72399667D01*
X123917076Y-72496152D01*
X124002772Y-72558737D01*
X124034558Y-72577114D01*
X124071866Y-72548954D01*
X124159792Y-72470529D01*
X124288569Y-72350920D01*
X124448430Y-72199210D01*
X124629608Y-72024480D01*
X124645220Y-72009303D01*
X125052516Y-71620822D01*
X125417365Y-71290521D01*
X125750198Y-71010460D01*
X126061452Y-70772700D01*
X126361559Y-70569300D01*
X126660953Y-70392320D01*
X126970070Y-70233820D01*
X126992380Y-70223194D01*
X127548231Y-70000712D01*
X128101601Y-69862226D01*
X128654768Y-69807755D01*
X129210010Y-69837317D01*
X129769603Y-69950929D01*
X130335825Y-70148612D01*
X130565913Y-70251816D01*
X130849811Y-70395106D01*
X131125424Y-70552189D01*
X131402461Y-70730269D01*
X131690634Y-70936547D01*
X131999654Y-71178225D01*
X132339230Y-71462505D01*
X132719075Y-71796590D01*
X133035069Y-72083112D01*
X133213863Y-72244721D01*
X133372610Y-72384159D01*
X133500306Y-72492083D01*
X133585949Y-72559151D01*
X133616888Y-72577114D01*
X133665400Y-72553108D01*
X133766752Y-72487637D01*
X133906419Y-72390521D01*
X134069874Y-72271582D01*
X134080435Y-72263732D01*
X134883079Y-71715936D01*
X135741363Y-71223807D01*
X136641483Y-70794577D01*
X137569634Y-70435477D01*
X137571005Y-70435007D01*
X137871488Y-70336076D01*
X138184165Y-70240434D01*
X138497953Y-70150766D01*
X138801772Y-70069756D01*
X139084540Y-70000088D01*
X139335176Y-69944446D01*
X139542598Y-69905514D01*
X139695725Y-69885976D01*
X139783476Y-69888515D01*
X139797332Y-69895781D01*
X139826924Y-69959369D01*
X139854081Y-70063797D01*
X139854725Y-70067206D01*
X139865271Y-70157041D01*
X139837771Y-70200734D01*
X139751481Y-70223608D01*
X139722740Y-70228331D01*
X139517575Y-70267801D01*
X139251536Y-70328781D01*
X138944051Y-70405953D01*
X138614550Y-70493999D01*
X138282461Y-70587602D01*
X137967215Y-70681444D01*
X137688240Y-70770207D01*
X137488039Y-70839946D01*
X136780986Y-71128276D01*
X136068136Y-71469072D01*
X135373662Y-71849322D01*
X134721737Y-72256015D01*
X134281626Y-72565815D01*
X133905681Y-72845731D01*
X134005030Y-72923720D01*
X134819354Y-73509837D01*
X135687257Y-74033121D01*
X136602701Y-74490859D01*
X137559646Y-74880335D01*
X138552055Y-75198835D01*
X139573888Y-75443645D01*
X139639514Y-75456616D01*
X139776754Y-75487232D01*
X139848423Y-75525260D01*
X139865820Y-75591732D01*
X139840245Y-75707683D01*
X139816397Y-75785885D01*
X139801847Y-75808444D01*
X139768739Y-75820432D01*
X139707400Y-75820291D01*
X139608157Y-75806465D01*
X139461338Y-75777397D01*
X139257270Y-75731530D01*
X138986282Y-75667308D01*
X138799381Y-75622185D01*
X137779735Y-75333672D01*
X136798177Y-74972078D01*
X135858260Y-74539058D01*
X134963535Y-74036268D01*
X134117556Y-73465361D01*
X134030559Y-73400675D01*
X133618072Y-73091134D01*
X132949244Y-73691374D01*
X132656802Y-73953244D01*
X132416563Y-74166585D01*
X132218174Y-74339919D01*
X132051278Y-74481767D01*
X131905522Y-74600650D01*
X131770549Y-74705090D01*
X131636005Y-74803608D01*
X131491535Y-74904727D01*
X131392893Y-74972154D01*
X130872719Y-75294834D01*
X130369586Y-75541868D01*
X129872124Y-75717364D01*
X129368961Y-75825431D01*
X128914018Y-75867953D01*
X128530142Y-75873025D01*
X128198147Y-75851125D01*
X127888459Y-75798386D01*
X127571505Y-75710940D01*
X127479213Y-75680320D01*
X127119093Y-75540894D01*
X126763408Y-75368407D01*
X126403848Y-75157015D01*
X126032106Y-74900873D01*
X125639872Y-74594139D01*
X125218839Y-74230969D01*
X124760697Y-73805518D01*
X124617730Y-73667732D01*
X124401298Y-73460434D01*
X124236753Y-73309796D01*
X124117975Y-73210806D01*
X124038843Y-73158451D01*
X123993237Y-73147719D01*
X123986566Y-73150804D01*
X123933924Y-73190294D01*
X123828236Y-73271555D01*
X123683067Y-73384091D01*
X123511982Y-73517407D01*
X123442213Y-73571947D01*
X122692737Y-74108586D01*
X121884692Y-74594274D01*
X121031537Y-75022567D01*
X120146728Y-75387019D01*
X119243722Y-75681186D01*
X118790297Y-75799733D01*
X118377547Y-75898690D01*
X118377547Y-90901302D01*
X118266004Y-90989041D01*
X118154462Y-91076780D01*
X69605698Y-91076780D01*
X69397880Y-90868962D01*
X69397880Y-72854326D01*
X118377547Y-72854326D01*
X118377647Y-73398545D01*
X118378059Y-73864141D01*
X118378950Y-74257158D01*
X118380489Y-74583641D01*
X118382843Y-74849634D01*
X118386179Y-75061180D01*
X118390666Y-75224323D01*
X118396470Y-75345108D01*
X118403760Y-75429579D01*
X118412703Y-75483780D01*
X118423467Y-75513754D01*
X118436219Y-75525545D01*
X118451127Y-75525199D01*
X118451630Y-75525058D01*
X118522892Y-75505483D01*
X118654202Y-75470018D01*
X118823787Y-75424530D01*
X118934363Y-75394997D01*
X119907678Y-75092557D01*
X120843395Y-74714612D01*
X121739780Y-74262036D01*
X122595096Y-73735702D01*
X123387414Y-73152680D01*
X123761782Y-72853093D01*
X123761412Y-72852777D01*
X124292602Y-72852777D01*
X125070991Y-73582989D01*
X125304515Y-73799649D01*
X125537047Y-74011023D01*
X125755479Y-74205520D01*
X125946706Y-74371547D01*
X126097621Y-74497514D01*
X126162681Y-74548527D01*
X126711763Y-74919677D01*
X127258175Y-75206256D01*
X127802020Y-75408315D01*
X128051372Y-75472897D01*
X128321281Y-75512523D01*
X128641826Y-75527301D01*
X128983045Y-75518313D01*
X129314974Y-75486641D01*
X129607651Y-75433364D01*
X129680547Y-75414131D01*
X130129362Y-75253875D01*
X130601066Y-75027716D01*
X131079205Y-74744724D01*
X131547328Y-74413968D01*
X131670213Y-74317374D01*
X131763343Y-74239909D01*
X131898075Y-74124419D01*
X132064303Y-73979889D01*
X132251925Y-73815306D01*
X132450834Y-73639656D01*
X132650927Y-73461926D01*
X132842099Y-73291101D01*
X133014246Y-73136168D01*
X133157263Y-73006114D01*
X133261045Y-72909925D01*
X133315488Y-72856587D01*
X133321213Y-72849073D01*
X133291035Y-72817513D01*
X133207251Y-72739211D01*
X133079984Y-72623165D01*
X132919359Y-72478370D01*
X132735498Y-72313825D01*
X132538527Y-72138527D01*
X132338568Y-71961473D01*
X132145746Y-71791659D01*
X131970185Y-71638085D01*
X131822008Y-71509746D01*
X131711340Y-71415640D01*
X131670213Y-71381802D01*
X131112424Y-70972067D01*
X130562739Y-70646351D01*
X130019834Y-70404531D01*
X129482387Y-70246488D01*
X128949076Y-70172098D01*
X128418577Y-70181240D01*
X127889569Y-70273794D01*
X127360729Y-70449636D01*
X126830734Y-70708645D01*
X126506904Y-70907033D01*
X126253366Y-71088161D01*
X125951253Y-71328597D01*
X125606748Y-71623070D01*
X125226035Y-71966314D01*
X124859324Y-72310875D01*
X124292602Y-72852777D01*
X123761412Y-72852777D01*
X123620247Y-72732439D01*
X123041620Y-72276547D01*
X122400202Y-71838137D01*
X121717749Y-71430151D01*
X121016015Y-71065531D01*
X120316756Y-70757220D01*
X120266990Y-70737502D01*
X120026460Y-70648658D01*
X119732761Y-70548898D01*
X119411357Y-70446104D01*
X119087711Y-70348157D01*
X118787287Y-70262938D01*
X118535550Y-70198330D01*
X118493963Y-70188728D01*
X118377547Y-70162500D01*
X118377547Y-72854326D01*
X69397880Y-72854326D01*
X69397880Y-54258198D01*
X69485619Y-54146656D01*
X69573358Y-54035113D01*
X93890786Y-54035114D01*
G36*
X147663180Y-83646471D02*
G01*
X148044778Y-83731935D01*
X148393734Y-83894077D01*
X148705343Y-84131268D01*
X148722136Y-84147259D01*
X148861892Y-84281934D01*
X148836380Y-87670972D01*
X148696689Y-87954602D01*
X148530939Y-88222263D01*
X148321534Y-88434536D01*
X148062467Y-88594216D01*
X147747731Y-88704096D01*
X147371321Y-88766970D01*
X146927231Y-88785631D01*
X146910213Y-88785516D01*
X146695526Y-88780809D01*
X146493823Y-88771199D01*
X146330898Y-88758198D01*
X146247432Y-88746694D01*
X146092639Y-88703148D01*
X145930351Y-88639028D01*
X145896944Y-88622840D01*
X145722405Y-88533797D01*
X145878763Y-88249538D01*
X145972323Y-88079269D01*
X146039541Y-87971001D01*
X146098051Y-87914384D01*
X146165488Y-87899071D01*
X146259486Y-87914710D01*
X146390632Y-87949121D01*
X146703619Y-88007761D01*
X147011506Y-88023296D01*
X147295490Y-87997110D01*
X147536771Y-87930582D01*
X147679204Y-87854469D01*
X147829476Y-87698185D01*
X147924951Y-87480695D01*
X147951178Y-87358401D01*
X147978565Y-87187134D01*
X147751306Y-87247621D01*
X147374856Y-87309345D01*
X147009468Y-87296249D01*
X146664906Y-87213337D01*
X146350933Y-87065612D01*
X146077312Y-86858077D01*
X145853807Y-86595737D01*
X145690180Y-86283596D01*
X145651247Y-86171360D01*
X145601684Y-85934844D01*
X145578400Y-85655521D01*
X145578537Y-85638879D01*
X146488386Y-85638879D01*
X146528252Y-85887514D01*
X146606256Y-86067120D01*
X146729897Y-86246881D01*
X146876543Y-86398690D01*
X147013349Y-86489976D01*
X147160346Y-86526330D01*
X147353377Y-86533576D01*
X147559720Y-86513682D01*
X147746651Y-86468614D01*
X147813053Y-86441920D01*
X147968547Y-86368133D01*
X147968547Y-84609427D01*
X147824565Y-84541104D01*
X147645791Y-84489931D01*
X147426826Y-84475280D01*
X147203601Y-84496604D01*
X147012047Y-84553358D01*
X147011858Y-84553444D01*
X146829124Y-84680178D01*
X146679006Y-84869753D01*
X146567908Y-85104506D01*
X146502233Y-85366769D01*
X146488386Y-85638879D01*
X145578537Y-85638879D01*
X145580821Y-85362489D01*
X145608376Y-85084844D01*
X145660491Y-84851681D01*
X145678232Y-84801320D01*
X145859316Y-84438311D01*
X146093176Y-84141419D01*
X146378626Y-83911518D01*
X146714483Y-83749483D01*
X147099560Y-83656187D01*
X147253648Y-83639313D01*
X147663180Y-83646471D01*
X147663180Y-83646471D01*
G37*
X147663180Y-83646471D02*
X148044778Y-83731935D01*
X148393734Y-83894077D01*
X148705343Y-84131268D01*
X148722136Y-84147259D01*
X148861892Y-84281934D01*
X148836380Y-87670972D01*
X148696689Y-87954602D01*
X148530939Y-88222263D01*
X148321534Y-88434536D01*
X148062467Y-88594216D01*
X147747731Y-88704096D01*
X147371321Y-88766970D01*
X146927231Y-88785631D01*
X146910213Y-88785516D01*
X146695526Y-88780809D01*
X146493823Y-88771199D01*
X146330898Y-88758198D01*
X146247432Y-88746694D01*
X146092639Y-88703148D01*
X145930351Y-88639028D01*
X145896944Y-88622840D01*
X145722405Y-88533797D01*
X145878763Y-88249538D01*
X145972323Y-88079269D01*
X146039541Y-87971001D01*
X146098051Y-87914384D01*
X146165488Y-87899071D01*
X146259486Y-87914710D01*
X146390632Y-87949121D01*
X146703619Y-88007761D01*
X147011506Y-88023296D01*
X147295490Y-87997110D01*
X147536771Y-87930582D01*
X147679204Y-87854469D01*
X147829476Y-87698185D01*
X147924951Y-87480695D01*
X147951178Y-87358401D01*
X147978565Y-87187134D01*
X147751306Y-87247621D01*
X147374856Y-87309345D01*
X147009468Y-87296249D01*
X146664906Y-87213337D01*
X146350933Y-87065612D01*
X146077312Y-86858077D01*
X145853807Y-86595737D01*
X145690180Y-86283596D01*
X145651247Y-86171360D01*
X145601684Y-85934844D01*
X145578400Y-85655521D01*
X145578537Y-85638879D01*
X146488386Y-85638879D01*
X146528252Y-85887514D01*
X146606256Y-86067120D01*
X146729897Y-86246881D01*
X146876543Y-86398690D01*
X147013349Y-86489976D01*
X147160346Y-86526330D01*
X147353377Y-86533576D01*
X147559720Y-86513682D01*
X147746651Y-86468614D01*
X147813053Y-86441920D01*
X147968547Y-86368133D01*
X147968547Y-84609427D01*
X147824565Y-84541104D01*
X147645791Y-84489931D01*
X147426826Y-84475280D01*
X147203601Y-84496604D01*
X147012047Y-84553358D01*
X147011858Y-84553444D01*
X146829124Y-84680178D01*
X146679006Y-84869753D01*
X146567908Y-85104506D01*
X146502233Y-85366769D01*
X146488386Y-85638879D01*
X145578537Y-85638879D01*
X145580821Y-85362489D01*
X145608376Y-85084844D01*
X145660491Y-84851681D01*
X145678232Y-84801320D01*
X145859316Y-84438311D01*
X146093176Y-84141419D01*
X146378626Y-83911518D01*
X146714483Y-83749483D01*
X147099560Y-83656187D01*
X147253648Y-83639313D01*
X147663180Y-83646471D01*
G36*
X137566340Y-83656980D02*
G01*
X137904876Y-83765460D01*
X138204754Y-83927208D01*
X138315748Y-84011382D01*
X138420783Y-84100032D01*
X138231082Y-84266681D01*
X138098844Y-84380822D01*
X137967633Y-84490899D01*
X137904523Y-84542193D01*
X137767666Y-84651054D01*
X137569182Y-84519584D01*
X137333923Y-84410754D01*
X137086965Y-84380149D01*
X136844320Y-84426336D01*
X136622004Y-84547885D01*
X136549027Y-84610781D01*
X136394355Y-84816393D01*
X136293734Y-85083628D01*
X136246523Y-85414485D01*
X136242449Y-85564452D01*
X136259185Y-85893499D01*
X136312109Y-86154952D01*
X136406001Y-86359842D01*
X136545642Y-86519200D01*
X136702620Y-86626402D01*
X136951075Y-86720632D01*
X137200445Y-86730315D01*
X137448646Y-86655520D01*
X137551766Y-86599100D01*
X137774831Y-86460587D01*
X138085159Y-86726100D01*
X138218588Y-86843003D01*
X138323902Y-86940480D01*
X138386852Y-87005060D01*
X138398350Y-87022239D01*
X138365713Y-87070227D01*
X138274061Y-87141134D01*
X138142012Y-87224090D01*
X137988182Y-87308225D01*
X137831189Y-87382670D01*
X137689651Y-87436553D01*
X137687671Y-87437171D01*
X137352660Y-87504131D01*
X136993313Y-87511530D01*
X136645995Y-87458829D01*
X136623213Y-87452913D01*
X136268142Y-87317172D01*
X135964468Y-87115780D01*
X135715435Y-86852725D01*
X135524291Y-86531999D01*
X135394278Y-86157589D01*
X135343035Y-85879078D01*
X135325461Y-85456081D01*
X135378749Y-85058389D01*
X135497880Y-84693424D01*
X135677839Y-84368606D01*
X135913608Y-84091357D01*
X136200169Y-83869098D01*
X136532507Y-83709250D01*
X136866985Y-83624824D01*
X137212569Y-83608018D01*
X137566340Y-83656980D01*
X137566340Y-83656980D01*
G37*
X137566340Y-83656980D02*
X137904876Y-83765460D01*
X138204754Y-83927208D01*
X138315748Y-84011382D01*
X138420783Y-84100032D01*
X138231082Y-84266681D01*
X138098844Y-84380822D01*
X137967633Y-84490899D01*
X137904523Y-84542193D01*
X137767666Y-84651054D01*
X137569182Y-84519584D01*
X137333923Y-84410754D01*
X137086965Y-84380149D01*
X136844320Y-84426336D01*
X136622004Y-84547885D01*
X136549027Y-84610781D01*
X136394355Y-84816393D01*
X136293734Y-85083628D01*
X136246523Y-85414485D01*
X136242449Y-85564452D01*
X136259185Y-85893499D01*
X136312109Y-86154952D01*
X136406001Y-86359842D01*
X136545642Y-86519200D01*
X136702620Y-86626402D01*
X136951075Y-86720632D01*
X137200445Y-86730315D01*
X137448646Y-86655520D01*
X137551766Y-86599100D01*
X137774831Y-86460587D01*
X138085159Y-86726100D01*
X138218588Y-86843003D01*
X138323902Y-86940480D01*
X138386852Y-87005060D01*
X138398350Y-87022239D01*
X138365713Y-87070227D01*
X138274061Y-87141134D01*
X138142012Y-87224090D01*
X137988182Y-87308225D01*
X137831189Y-87382670D01*
X137689651Y-87436553D01*
X137687671Y-87437171D01*
X137352660Y-87504131D01*
X136993313Y-87511530D01*
X136645995Y-87458829D01*
X136623213Y-87452913D01*
X136268142Y-87317172D01*
X135964468Y-87115780D01*
X135715435Y-86852725D01*
X135524291Y-86531999D01*
X135394278Y-86157589D01*
X135343035Y-85879078D01*
X135325461Y-85456081D01*
X135378749Y-85058389D01*
X135497880Y-84693424D01*
X135677839Y-84368606D01*
X135913608Y-84091357D01*
X136200169Y-83869098D01*
X136532507Y-83709250D01*
X136866985Y-83624824D01*
X137212569Y-83608018D01*
X137566340Y-83656980D01*
G36*
X139765238Y-83102829D02*
G01*
X139777047Y-83689614D01*
X140507297Y-83701196D01*
X141237547Y-83712779D01*
X141237547Y-84472780D01*
X139748723Y-84472780D01*
X139762885Y-85400773D01*
X139767736Y-85703831D01*
X139772709Y-85933976D01*
X139779155Y-86102953D01*
X139788426Y-86222508D01*
X139801872Y-86304386D01*
X139820846Y-86360332D01*
X139846698Y-86402092D01*
X139880780Y-86441409D01*
X139882880Y-86443690D01*
X140058204Y-86591945D01*
X140256633Y-86674783D01*
X140487980Y-86693492D01*
X140762062Y-86649360D01*
X140970942Y-86586501D01*
X141098659Y-86544673D01*
X141188587Y-86519219D01*
X141218077Y-86515254D01*
X141230793Y-86558461D01*
X141257262Y-86665086D01*
X141292787Y-86815914D01*
X141311034Y-86895541D01*
X141395019Y-87265135D01*
X141169666Y-87349450D01*
X140779329Y-87461449D01*
X140392833Y-87507490D01*
X140030238Y-87485424D01*
X139982098Y-87476694D01*
X139664978Y-87372983D01*
X139390310Y-87200363D01*
X139166502Y-86967444D01*
X139001964Y-86682837D01*
X138909265Y-86378052D01*
X138899602Y-86284474D01*
X138890797Y-86115869D01*
X138883058Y-85881872D01*
X138876593Y-85592119D01*
X138871609Y-85256247D01*
X138868313Y-84883891D01*
X138866914Y-84484689D01*
X138866880Y-84410827D01*
X138866880Y-82667096D01*
X139194963Y-82615242D01*
X139369002Y-82587041D01*
X139524209Y-82560682D01*
X139630054Y-82541365D01*
X139638238Y-82539716D01*
X139753429Y-82516045D01*
X139765238Y-83102829D01*
X139765238Y-83102829D01*
G37*
X139765238Y-83102829D02*
X139777047Y-83689614D01*
X140507297Y-83701196D01*
X141237547Y-83712779D01*
X141237547Y-84472780D01*
X139748723Y-84472780D01*
X139762885Y-85400773D01*
X139767736Y-85703831D01*
X139772709Y-85933976D01*
X139779155Y-86102953D01*
X139788426Y-86222508D01*
X139801872Y-86304386D01*
X139820846Y-86360332D01*
X139846698Y-86402092D01*
X139880780Y-86441409D01*
X139882880Y-86443690D01*
X140058204Y-86591945D01*
X140256633Y-86674783D01*
X140487980Y-86693492D01*
X140762062Y-86649360D01*
X140970942Y-86586501D01*
X141098659Y-86544673D01*
X141188587Y-86519219D01*
X141218077Y-86515254D01*
X141230793Y-86558461D01*
X141257262Y-86665086D01*
X141292787Y-86815914D01*
X141311034Y-86895541D01*
X141395019Y-87265135D01*
X141169666Y-87349450D01*
X140779329Y-87461449D01*
X140392833Y-87507490D01*
X140030238Y-87485424D01*
X139982098Y-87476694D01*
X139664978Y-87372983D01*
X139390310Y-87200363D01*
X139166502Y-86967444D01*
X139001964Y-86682837D01*
X138909265Y-86378052D01*
X138899602Y-86284474D01*
X138890797Y-86115869D01*
X138883058Y-85881872D01*
X138876593Y-85592119D01*
X138871609Y-85256247D01*
X138868313Y-84883891D01*
X138866914Y-84484689D01*
X138866880Y-84410827D01*
X138866880Y-82667096D01*
X139194963Y-82615242D01*
X139369002Y-82587041D01*
X139524209Y-82560682D01*
X139630054Y-82541365D01*
X139638238Y-82539716D01*
X139753429Y-82516045D01*
X139765238Y-83102829D01*
G36*
X143452467Y-83648822D02*
G01*
X143632457Y-83654842D01*
X143764216Y-83667427D01*
X143865948Y-83688668D01*
X143955852Y-83720652D01*
X143994395Y-83737760D01*
X144259125Y-83899838D01*
X144477732Y-84113550D01*
X144629736Y-84356717D01*
X144658503Y-84422774D01*
X144681169Y-84486209D01*
X144698460Y-84557675D01*
X144711104Y-84647827D01*
X144719826Y-84767318D01*
X144725355Y-84926804D01*
X144728416Y-85136938D01*
X144729736Y-85408374D01*
X144730043Y-85751766D01*
X144730047Y-85827216D01*
X144730047Y-87075819D01*
X144518380Y-87191249D01*
X144136166Y-87358244D01*
X143720594Y-87466666D01*
X143294717Y-87513117D01*
X142881594Y-87494196D01*
X142692482Y-87460415D01*
X142364170Y-87356156D01*
X142104202Y-87207174D01*
X141906717Y-87009511D01*
X141817891Y-86869872D01*
X141764342Y-86716740D01*
X141730870Y-86513015D01*
X141717985Y-86286097D01*
X141719571Y-86243048D01*
X142625493Y-86243048D01*
X142644958Y-86427550D01*
X142719304Y-86562883D01*
X142854502Y-86653268D01*
X143056523Y-86702926D01*
X143294979Y-86716289D01*
X143476665Y-86710531D01*
X143642411Y-86695173D01*
X143760422Y-86673330D01*
X143772756Y-86669440D01*
X143907600Y-86622433D01*
X143895490Y-86235523D01*
X143883380Y-85848614D01*
X143481262Y-85836302D01*
X143172572Y-85841108D01*
X142937936Y-85878412D01*
X142772265Y-85950634D01*
X142670467Y-86060192D01*
X142627454Y-86209505D01*
X142625493Y-86243048D01*
X141719571Y-86243048D01*
X141726195Y-86063388D01*
X141756009Y-85872287D01*
X141797227Y-85757856D01*
X141973889Y-85521704D01*
X142216521Y-85332473D01*
X142519058Y-85192590D01*
X142875439Y-85104483D01*
X143279601Y-85070576D01*
X143503426Y-85075001D01*
X143699589Y-85084025D01*
X143823588Y-85080206D01*
X143887851Y-85054304D01*
X143904803Y-84997076D01*
X143886872Y-84899281D01*
X143862041Y-84808303D01*
X143773307Y-84627337D01*
X143620580Y-84499267D01*
X143449895Y-84432717D01*
X143186953Y-84403867D01*
X142917684Y-84446594D01*
X142671826Y-84555872D01*
X142654362Y-84567138D01*
X142464952Y-84692598D01*
X142221666Y-84481600D01*
X142092087Y-84366845D01*
X141979387Y-84262857D01*
X141906487Y-84190823D01*
X141903105Y-84187124D01*
X141860848Y-84132485D01*
X141863651Y-84089381D01*
X141920647Y-84033624D01*
X141977804Y-83989256D01*
X142101668Y-83906795D01*
X142261290Y-83815970D01*
X142370579Y-83761073D01*
X142473468Y-83715411D01*
X142566123Y-83683901D01*
X142667671Y-83663938D01*
X142797238Y-83652917D01*
X142973952Y-83648233D01*
X143206047Y-83647280D01*
X143452467Y-83648822D01*
X143452467Y-83648822D01*
G37*
X143452467Y-83648822D02*
X143632457Y-83654842D01*
X143764216Y-83667427D01*
X143865948Y-83688668D01*
X143955852Y-83720652D01*
X143994395Y-83737760D01*
X144259125Y-83899838D01*
X144477732Y-84113550D01*
X144629736Y-84356717D01*
X144658503Y-84422774D01*
X144681169Y-84486209D01*
X144698460Y-84557675D01*
X144711104Y-84647827D01*
X144719826Y-84767318D01*
X144725355Y-84926804D01*
X144728416Y-85136938D01*
X144729736Y-85408374D01*
X144730043Y-85751766D01*
X144730047Y-85827216D01*
X144730047Y-87075819D01*
X144518380Y-87191249D01*
X144136166Y-87358244D01*
X143720594Y-87466666D01*
X143294717Y-87513117D01*
X142881594Y-87494196D01*
X142692482Y-87460415D01*
X142364170Y-87356156D01*
X142104202Y-87207174D01*
X141906717Y-87009511D01*
X141817891Y-86869872D01*
X141764342Y-86716740D01*
X141730870Y-86513015D01*
X141717985Y-86286097D01*
X141719571Y-86243048D01*
X142625493Y-86243048D01*
X142644958Y-86427550D01*
X142719304Y-86562883D01*
X142854502Y-86653268D01*
X143056523Y-86702926D01*
X143294979Y-86716289D01*
X143476665Y-86710531D01*
X143642411Y-86695173D01*
X143760422Y-86673330D01*
X143772756Y-86669440D01*
X143907600Y-86622433D01*
X143895490Y-86235523D01*
X143883380Y-85848614D01*
X143481262Y-85836302D01*
X143172572Y-85841108D01*
X142937936Y-85878412D01*
X142772265Y-85950634D01*
X142670467Y-86060192D01*
X142627454Y-86209505D01*
X142625493Y-86243048D01*
X141719571Y-86243048D01*
X141726195Y-86063388D01*
X141756009Y-85872287D01*
X141797227Y-85757856D01*
X141973889Y-85521704D01*
X142216521Y-85332473D01*
X142519058Y-85192590D01*
X142875439Y-85104483D01*
X143279601Y-85070576D01*
X143503426Y-85075001D01*
X143699589Y-85084025D01*
X143823588Y-85080206D01*
X143887851Y-85054304D01*
X143904803Y-84997076D01*
X143886872Y-84899281D01*
X143862041Y-84808303D01*
X143773307Y-84627337D01*
X143620580Y-84499267D01*
X143449895Y-84432717D01*
X143186953Y-84403867D01*
X142917684Y-84446594D01*
X142671826Y-84555872D01*
X142654362Y-84567138D01*
X142464952Y-84692598D01*
X142221666Y-84481600D01*
X142092087Y-84366845D01*
X141979387Y-84262857D01*
X141906487Y-84190823D01*
X141903105Y-84187124D01*
X141860848Y-84132485D01*
X141863651Y-84089381D01*
X141920647Y-84033624D01*
X141977804Y-83989256D01*
X142101668Y-83906795D01*
X142261290Y-83815970D01*
X142370579Y-83761073D01*
X142473468Y-83715411D01*
X142566123Y-83683901D01*
X142667671Y-83663938D01*
X142797238Y-83652917D01*
X142973952Y-83648233D01*
X143206047Y-83647280D01*
X143452467Y-83648822D01*
G36*
X127074047Y-152399887D02*
G01*
X127381274Y-152414520D01*
X127615602Y-152459143D01*
X127784948Y-152538490D01*
X127897225Y-152657298D01*
X127960347Y-152820301D01*
X127977866Y-152940641D01*
X127983986Y-153081451D01*
X127966236Y-153174776D01*
X127914379Y-153256694D01*
X127875543Y-153301263D01*
X127758304Y-153396368D01*
X127578019Y-153499530D01*
X127395423Y-153582708D01*
X127177960Y-153678328D01*
X127029541Y-153760383D01*
X126937776Y-153838474D01*
X126890274Y-153922199D01*
X126877271Y-153984114D01*
X126865380Y-154089947D01*
X127426297Y-154101759D01*
X127987213Y-154113571D01*
X127987213Y-154407447D01*
X126336213Y-154407447D01*
X126336371Y-154164030D01*
X126355186Y-153963989D01*
X126417419Y-153798016D01*
X126532183Y-153656359D01*
X126708591Y-153529265D01*
X126955755Y-153406982D01*
X127098213Y-153348687D01*
X127283735Y-153267773D01*
X127399391Y-153191887D01*
X127458036Y-153108003D01*
X127472523Y-153003096D01*
X127470683Y-152971251D01*
X127437666Y-152844433D01*
X127355266Y-152767841D01*
X127352213Y-152766214D01*
X127227796Y-152731430D01*
X127066287Y-152724781D01*
X126901751Y-152743638D01*
X126768251Y-152785377D01*
X126722982Y-152814726D01*
X126670247Y-152854780D01*
X126616885Y-152861908D01*
X126535312Y-152833839D01*
X126446543Y-152791979D01*
X126338298Y-152730536D01*
X126273655Y-152676442D01*
X126264761Y-152653303D01*
X126307885Y-152611106D01*
X126403277Y-152548981D01*
X126484627Y-152504250D01*
X126600596Y-152451199D01*
X126713218Y-152419405D01*
X126850399Y-152403929D01*
X127040045Y-152399829D01*
X127074047Y-152399887D01*
X127074047Y-152399887D01*
G37*
X127074047Y-152399887D02*
X127381274Y-152414520D01*
X127615602Y-152459143D01*
X127784948Y-152538490D01*
X127897225Y-152657298D01*
X127960347Y-152820301D01*
X127977866Y-152940641D01*
X127983986Y-153081451D01*
X127966236Y-153174776D01*
X127914379Y-153256694D01*
X127875543Y-153301263D01*
X127758304Y-153396368D01*
X127578019Y-153499530D01*
X127395423Y-153582708D01*
X127177960Y-153678328D01*
X127029541Y-153760383D01*
X126937776Y-153838474D01*
X126890274Y-153922199D01*
X126877271Y-153984114D01*
X126865380Y-154089947D01*
X127426297Y-154101759D01*
X127987213Y-154113571D01*
X127987213Y-154407447D01*
X126336213Y-154407447D01*
X126336371Y-154164030D01*
X126355186Y-153963989D01*
X126417419Y-153798016D01*
X126532183Y-153656359D01*
X126708591Y-153529265D01*
X126955755Y-153406982D01*
X127098213Y-153348687D01*
X127283735Y-153267773D01*
X127399391Y-153191887D01*
X127458036Y-153108003D01*
X127472523Y-153003096D01*
X127470683Y-152971251D01*
X127437666Y-152844433D01*
X127355266Y-152767841D01*
X127352213Y-152766214D01*
X127227796Y-152731430D01*
X127066287Y-152724781D01*
X126901751Y-152743638D01*
X126768251Y-152785377D01*
X126722982Y-152814726D01*
X126670247Y-152854780D01*
X126616885Y-152861908D01*
X126535312Y-152833839D01*
X126446543Y-152791979D01*
X126338298Y-152730536D01*
X126273655Y-152676442D01*
X126264761Y-152653303D01*
X126307885Y-152611106D01*
X126403277Y-152548981D01*
X126484627Y-152504250D01*
X126600596Y-152451199D01*
X126713218Y-152419405D01*
X126850399Y-152403929D01*
X127040045Y-152399829D01*
X127074047Y-152399887D01*
G36*
X136623213Y-153560780D02*
G01*
X136771380Y-153560780D01*
X136866246Y-153565907D01*
X136908405Y-153597559D01*
X136919215Y-153680147D01*
X136919547Y-153730114D01*
X136915061Y-153838532D01*
X136887365Y-153886713D01*
X136815100Y-153899068D01*
X136771380Y-153899447D01*
X136623213Y-153899447D01*
X136623213Y-154407447D01*
X136157547Y-154407447D01*
X136157547Y-153899447D01*
X135014547Y-153899447D01*
X135014547Y-153773017D01*
X135045883Y-153664182D01*
X135122645Y-153537652D01*
X135560835Y-153537652D01*
X135566980Y-153580447D01*
X135622078Y-153598829D01*
X135724964Y-153603077D01*
X135797552Y-153603114D01*
X135970995Y-153595846D01*
X136069013Y-153573022D01*
X136097363Y-153546235D01*
X136106439Y-153477997D01*
X136109941Y-153351421D01*
X136107213Y-153192695D01*
X136106618Y-153177204D01*
X136094047Y-152865051D01*
X135847765Y-153159999D01*
X135700063Y-153337707D01*
X135604807Y-153460165D01*
X135560835Y-153537652D01*
X135122645Y-153537652D01*
X135140503Y-153508217D01*
X135299322Y-153303946D01*
X135523254Y-153050191D01*
X135813129Y-152745864D01*
X136134394Y-152417780D01*
X136623213Y-152417780D01*
X136623213Y-153560780D01*
X136623213Y-153560780D01*
G37*
X136623213Y-153560780D02*
X136771380Y-153560780D01*
X136866246Y-153565907D01*
X136908405Y-153597559D01*
X136919215Y-153680147D01*
X136919547Y-153730114D01*
X136915061Y-153838532D01*
X136887365Y-153886713D01*
X136815100Y-153899068D01*
X136771380Y-153899447D01*
X136623213Y-153899447D01*
X136623213Y-154407447D01*
X136157547Y-154407447D01*
X136157547Y-153899447D01*
X135014547Y-153899447D01*
X135014547Y-153773017D01*
X135045883Y-153664182D01*
X135122645Y-153537652D01*
X135560835Y-153537652D01*
X135566980Y-153580447D01*
X135622078Y-153598829D01*
X135724964Y-153603077D01*
X135797552Y-153603114D01*
X135970995Y-153595846D01*
X136069013Y-153573022D01*
X136097363Y-153546235D01*
X136106439Y-153477997D01*
X136109941Y-153351421D01*
X136107213Y-153192695D01*
X136106618Y-153177204D01*
X136094047Y-152865051D01*
X135847765Y-153159999D01*
X135700063Y-153337707D01*
X135604807Y-153460165D01*
X135560835Y-153537652D01*
X135122645Y-153537652D01*
X135140503Y-153508217D01*
X135299322Y-153303946D01*
X135523254Y-153050191D01*
X135813129Y-152745864D01*
X136134394Y-152417780D01*
X136623213Y-152417780D01*
X136623213Y-153560780D01*
G36*
X145344480Y-152432066D02*
G01*
X145512993Y-152441528D01*
X145642778Y-152456377D01*
X145712139Y-152476148D01*
X145715195Y-152478651D01*
X145714988Y-152529081D01*
X145682951Y-152622229D01*
X145672236Y-152645727D01*
X145604417Y-152787943D01*
X145305952Y-152766588D01*
X145056725Y-152765098D01*
X144873736Y-152803719D01*
X144746966Y-152885769D01*
X144685717Y-152971974D01*
X144642967Y-153059228D01*
X144624247Y-153106513D01*
X144624213Y-153107122D01*
X144663036Y-153115008D01*
X144765473Y-153120815D01*
X144910477Y-153123423D01*
X144931130Y-153123468D01*
X145201630Y-153138191D01*
X145409271Y-153185953D01*
X145571357Y-153272550D01*
X145680430Y-153374338D01*
X145760103Y-153479548D01*
X145798507Y-153582926D01*
X145809426Y-153724525D01*
X145809547Y-153749505D01*
X145777942Y-153963665D01*
X145678819Y-154137123D01*
X145505715Y-154279543D01*
X145424908Y-154324636D01*
X145275166Y-154372787D01*
X145074946Y-154400533D01*
X144856129Y-154407099D01*
X144650596Y-154391712D01*
X144490228Y-154353596D01*
X144476047Y-154347687D01*
X144299507Y-154238472D01*
X144177209Y-154086547D01*
X144104041Y-153881671D01*
X144079685Y-153657662D01*
X144582504Y-153657662D01*
X144615072Y-153841972D01*
X144700668Y-153984343D01*
X144823915Y-154075516D01*
X144969434Y-154106236D01*
X145121847Y-154067243D01*
X145190004Y-154023374D01*
X145275052Y-153907245D01*
X145305117Y-153754329D01*
X145275565Y-153595909D01*
X145258699Y-153559819D01*
X145175846Y-153487698D01*
X145037166Y-153450807D01*
X144865487Y-153453044D01*
X144757954Y-153474298D01*
X144646797Y-153510681D01*
X144596000Y-153555550D01*
X144582675Y-153632827D01*
X144582504Y-153657662D01*
X144079685Y-153657662D01*
X144074894Y-153613605D01*
X144073880Y-153541719D01*
X144102641Y-153202170D01*
X144187744Y-152919833D01*
X144327413Y-152697697D01*
X144519877Y-152538753D01*
X144717064Y-152457338D01*
X144823531Y-152440625D01*
X144978053Y-152431150D01*
X145158935Y-152428452D01*
X145344480Y-152432066D01*
X145344480Y-152432066D01*
G37*
X145344480Y-152432066D02*
X145512993Y-152441528D01*
X145642778Y-152456377D01*
X145712139Y-152476148D01*
X145715195Y-152478651D01*
X145714988Y-152529081D01*
X145682951Y-152622229D01*
X145672236Y-152645727D01*
X145604417Y-152787943D01*
X145305952Y-152766588D01*
X145056725Y-152765098D01*
X144873736Y-152803719D01*
X144746966Y-152885769D01*
X144685717Y-152971974D01*
X144642967Y-153059228D01*
X144624247Y-153106513D01*
X144624213Y-153107122D01*
X144663036Y-153115008D01*
X144765473Y-153120815D01*
X144910477Y-153123423D01*
X144931130Y-153123468D01*
X145201630Y-153138191D01*
X145409271Y-153185953D01*
X145571357Y-153272550D01*
X145680430Y-153374338D01*
X145760103Y-153479548D01*
X145798507Y-153582926D01*
X145809426Y-153724525D01*
X145809547Y-153749505D01*
X145777942Y-153963665D01*
X145678819Y-154137123D01*
X145505715Y-154279543D01*
X145424908Y-154324636D01*
X145275166Y-154372787D01*
X145074946Y-154400533D01*
X144856129Y-154407099D01*
X144650596Y-154391712D01*
X144490228Y-154353596D01*
X144476047Y-154347687D01*
X144299507Y-154238472D01*
X144177209Y-154086547D01*
X144104041Y-153881671D01*
X144079685Y-153657662D01*
X144582504Y-153657662D01*
X144615072Y-153841972D01*
X144700668Y-153984343D01*
X144823915Y-154075516D01*
X144969434Y-154106236D01*
X145121847Y-154067243D01*
X145190004Y-154023374D01*
X145275052Y-153907245D01*
X145305117Y-153754329D01*
X145275565Y-153595909D01*
X145258699Y-153559819D01*
X145175846Y-153487698D01*
X145037166Y-153450807D01*
X144865487Y-153453044D01*
X144757954Y-153474298D01*
X144646797Y-153510681D01*
X144596000Y-153555550D01*
X144582675Y-153632827D01*
X144582504Y-153657662D01*
X144079685Y-153657662D01*
X144074894Y-153613605D01*
X144073880Y-153541719D01*
X144102641Y-153202170D01*
X144187744Y-152919833D01*
X144327413Y-152697697D01*
X144519877Y-152538753D01*
X144717064Y-152457338D01*
X144823531Y-152440625D01*
X144978053Y-152431150D01*
X145158935Y-152428452D01*
X145344480Y-152432066D01*
G36*
X154221884Y-152359017D02*
G01*
X154453420Y-152432933D01*
X154630026Y-152549172D01*
X154743137Y-152702044D01*
X154784184Y-152885858D01*
X154784213Y-152891146D01*
X154753567Y-153047644D01*
X154675022Y-153192427D01*
X154585193Y-153277409D01*
X154566319Y-153314346D01*
X154605269Y-153377831D01*
X154677888Y-153451741D01*
X154769979Y-153549720D01*
X154813680Y-153640685D01*
X154826246Y-153765462D01*
X154826547Y-153803486D01*
X154803040Y-153994176D01*
X154724716Y-154140282D01*
X154579865Y-154258602D01*
X154468118Y-154317675D01*
X154269119Y-154379356D01*
X154027273Y-154407844D01*
X153776438Y-154402798D01*
X153550470Y-154363881D01*
X153448962Y-154327874D01*
X153263987Y-154212627D01*
X153128404Y-154064821D01*
X153056416Y-153902095D01*
X153048547Y-153830597D01*
X153049161Y-153826733D01*
X153562209Y-153826733D01*
X153612095Y-153961738D01*
X153716566Y-154059727D01*
X153739231Y-154070651D01*
X153874497Y-154096591D01*
X154034100Y-154084800D01*
X154177179Y-154040888D01*
X154237166Y-154002307D01*
X154303683Y-153891220D01*
X154314782Y-153753296D01*
X154270715Y-153625487D01*
X154234309Y-153582335D01*
X154140073Y-153531527D01*
X154001956Y-153494319D01*
X153942889Y-153486193D01*
X153804407Y-153480659D01*
X153715130Y-153502699D01*
X153646127Y-153555866D01*
X153571893Y-153682259D01*
X153562209Y-153826733D01*
X153049161Y-153826733D01*
X153076210Y-153656661D01*
X153149189Y-153501621D01*
X153252460Y-153396134D01*
X153264944Y-153388915D01*
X153317913Y-153355700D01*
X153322942Y-153320919D01*
X153275602Y-153260714D01*
X153232756Y-153215547D01*
X153131021Y-153054534D01*
X153121285Y-152985564D01*
X153620514Y-152985564D01*
X153680892Y-153098699D01*
X153794835Y-153182720D01*
X153952775Y-153221261D01*
X153982169Y-153222114D01*
X154115649Y-153203919D01*
X154200537Y-153141178D01*
X154210313Y-153128027D01*
X154271893Y-152980100D01*
X154256239Y-152837046D01*
X154165455Y-152717805D01*
X154164671Y-152717186D01*
X154009503Y-152640420D01*
X153852393Y-152644126D01*
X153708841Y-152727631D01*
X153698734Y-152737411D01*
X153623271Y-152859679D01*
X153620514Y-152985564D01*
X153121285Y-152985564D01*
X153105846Y-152876209D01*
X153157047Y-152699021D01*
X153239047Y-152584679D01*
X153387870Y-152456611D01*
X153557147Y-152377571D01*
X153769244Y-152339579D01*
X153943988Y-152333114D01*
X154221884Y-152359017D01*
X154221884Y-152359017D01*
G37*
X154221884Y-152359017D02*
X154453420Y-152432933D01*
X154630026Y-152549172D01*
X154743137Y-152702044D01*
X154784184Y-152885858D01*
X154784213Y-152891146D01*
X154753567Y-153047644D01*
X154675022Y-153192427D01*
X154585193Y-153277409D01*
X154566319Y-153314346D01*
X154605269Y-153377831D01*
X154677888Y-153451741D01*
X154769979Y-153549720D01*
X154813680Y-153640685D01*
X154826246Y-153765462D01*
X154826547Y-153803486D01*
X154803040Y-153994176D01*
X154724716Y-154140282D01*
X154579865Y-154258602D01*
X154468118Y-154317675D01*
X154269119Y-154379356D01*
X154027273Y-154407844D01*
X153776438Y-154402798D01*
X153550470Y-154363881D01*
X153448962Y-154327874D01*
X153263987Y-154212627D01*
X153128404Y-154064821D01*
X153056416Y-153902095D01*
X153048547Y-153830597D01*
X153049161Y-153826733D01*
X153562209Y-153826733D01*
X153612095Y-153961738D01*
X153716566Y-154059727D01*
X153739231Y-154070651D01*
X153874497Y-154096591D01*
X154034100Y-154084800D01*
X154177179Y-154040888D01*
X154237166Y-154002307D01*
X154303683Y-153891220D01*
X154314782Y-153753296D01*
X154270715Y-153625487D01*
X154234309Y-153582335D01*
X154140073Y-153531527D01*
X154001956Y-153494319D01*
X153942889Y-153486193D01*
X153804407Y-153480659D01*
X153715130Y-153502699D01*
X153646127Y-153555866D01*
X153571893Y-153682259D01*
X153562209Y-153826733D01*
X153049161Y-153826733D01*
X153076210Y-153656661D01*
X153149189Y-153501621D01*
X153252460Y-153396134D01*
X153264944Y-153388915D01*
X153317913Y-153355700D01*
X153322942Y-153320919D01*
X153275602Y-153260714D01*
X153232756Y-153215547D01*
X153131021Y-153054534D01*
X153121285Y-152985564D01*
X153620514Y-152985564D01*
X153680892Y-153098699D01*
X153794835Y-153182720D01*
X153952775Y-153221261D01*
X153982169Y-153222114D01*
X154115649Y-153203919D01*
X154200537Y-153141178D01*
X154210313Y-153128027D01*
X154271893Y-152980100D01*
X154256239Y-152837046D01*
X154165455Y-152717805D01*
X154164671Y-152717186D01*
X154009503Y-152640420D01*
X153852393Y-152644126D01*
X153708841Y-152727631D01*
X153698734Y-152737411D01*
X153623271Y-152859679D01*
X153620514Y-152985564D01*
X153121285Y-152985564D01*
X153105846Y-152876209D01*
X153157047Y-152699021D01*
X153239047Y-152584679D01*
X153387870Y-152456611D01*
X153557147Y-152377571D01*
X153769244Y-152339579D01*
X153943988Y-152333114D01*
X154221884Y-152359017D01*
G36*
X127352213Y-140818447D02*
G01*
X126844213Y-140818447D01*
X126844213Y-139169542D01*
X126735624Y-139210828D01*
X126589122Y-139248667D01*
X126490918Y-139226636D01*
X126427675Y-139144288D01*
X126389730Y-139047196D01*
X126395137Y-138986107D01*
X126456508Y-138941419D01*
X126586456Y-138893529D01*
X126589715Y-138892446D01*
X126713769Y-138845724D01*
X126801279Y-138802532D01*
X126825047Y-138783210D01*
X126877197Y-138762307D01*
X126987660Y-138748120D01*
X127100712Y-138744114D01*
X127352213Y-138744114D01*
X127352213Y-140818447D01*
X127352213Y-140818447D01*
G37*
X127352213Y-140818447D02*
X126844213Y-140818447D01*
X126844213Y-139169542D01*
X126735624Y-139210828D01*
X126589122Y-139248667D01*
X126490918Y-139226636D01*
X126427675Y-139144288D01*
X126389730Y-139047196D01*
X126395137Y-138986107D01*
X126456508Y-138941419D01*
X126586456Y-138893529D01*
X126589715Y-138892446D01*
X126713769Y-138845724D01*
X126801279Y-138802532D01*
X126825047Y-138783210D01*
X126877197Y-138762307D01*
X126987660Y-138748120D01*
X127100712Y-138744114D01*
X127352213Y-138744114D01*
X127352213Y-140818447D01*
G36*
X136238804Y-138756673D02*
G01*
X136453839Y-138795726D01*
X136619216Y-138868118D01*
X136750900Y-138979198D01*
X136788545Y-139023808D01*
X136862635Y-139179285D01*
X136877427Y-139359353D01*
X136833417Y-139530745D01*
X136779750Y-139614700D01*
X136682287Y-139728008D01*
X136800917Y-139846637D01*
X136871424Y-139929889D01*
X136907073Y-140018745D01*
X136918952Y-140146761D01*
X136919547Y-140205590D01*
X136913903Y-140351980D01*
X136888286Y-140449457D01*
X136829665Y-140533488D01*
X136779977Y-140585483D01*
X136653454Y-140684478D01*
X136510381Y-140759003D01*
X136473060Y-140771514D01*
X136333030Y-140795829D01*
X136145052Y-140809812D01*
X135939621Y-140813214D01*
X135747232Y-140805789D01*
X135598379Y-140787289D01*
X135564606Y-140778893D01*
X135442276Y-140732751D01*
X135315194Y-140671600D01*
X135212665Y-140610804D01*
X135166140Y-140569991D01*
X135183854Y-140526421D01*
X135254957Y-140457927D01*
X135306719Y-140419164D01*
X135470407Y-140305728D01*
X135612893Y-140392596D01*
X135785743Y-140460368D01*
X135989377Y-140479622D01*
X136194087Y-140461660D01*
X136328048Y-140404662D01*
X136397665Y-140304457D01*
X136411547Y-140204614D01*
X136385048Y-140072872D01*
X136300688Y-139986293D01*
X136151167Y-139940236D01*
X135978794Y-139929447D01*
X135734213Y-139929447D01*
X135734213Y-139548447D01*
X135981652Y-139548447D01*
X136174755Y-139530475D01*
X136298049Y-139473054D01*
X136359178Y-139370930D01*
X136369213Y-139282020D01*
X136345210Y-139184319D01*
X136266660Y-139121834D01*
X136123754Y-139089766D01*
X135961975Y-139082780D01*
X135799760Y-139091467D01*
X135692627Y-139122440D01*
X135625022Y-139170601D01*
X135531541Y-139258423D01*
X135347127Y-139165398D01*
X135236479Y-139108307D01*
X135161829Y-139067403D01*
X135145667Y-139057003D01*
X135163700Y-139024002D01*
X135230733Y-138961037D01*
X135325703Y-138885679D01*
X135427547Y-138815499D01*
X135455521Y-138798530D01*
X135542367Y-138773526D01*
X135694974Y-138755462D01*
X135894582Y-138746315D01*
X135958150Y-138745614D01*
X136238804Y-138756673D01*
X136238804Y-138756673D01*
G37*
X136238804Y-138756673D02*
X136453839Y-138795726D01*
X136619216Y-138868118D01*
X136750900Y-138979198D01*
X136788545Y-139023808D01*
X136862635Y-139179285D01*
X136877427Y-139359353D01*
X136833417Y-139530745D01*
X136779750Y-139614700D01*
X136682287Y-139728008D01*
X136800917Y-139846637D01*
X136871424Y-139929889D01*
X136907073Y-140018745D01*
X136918952Y-140146761D01*
X136919547Y-140205590D01*
X136913903Y-140351980D01*
X136888286Y-140449457D01*
X136829665Y-140533488D01*
X136779977Y-140585483D01*
X136653454Y-140684478D01*
X136510381Y-140759003D01*
X136473060Y-140771514D01*
X136333030Y-140795829D01*
X136145052Y-140809812D01*
X135939621Y-140813214D01*
X135747232Y-140805789D01*
X135598379Y-140787289D01*
X135564606Y-140778893D01*
X135442276Y-140732751D01*
X135315194Y-140671600D01*
X135212665Y-140610804D01*
X135166140Y-140569991D01*
X135183854Y-140526421D01*
X135254957Y-140457927D01*
X135306719Y-140419164D01*
X135470407Y-140305728D01*
X135612893Y-140392596D01*
X135785743Y-140460368D01*
X135989377Y-140479622D01*
X136194087Y-140461660D01*
X136328048Y-140404662D01*
X136397665Y-140304457D01*
X136411547Y-140204614D01*
X136385048Y-140072872D01*
X136300688Y-139986293D01*
X136151167Y-139940236D01*
X135978794Y-139929447D01*
X135734213Y-139929447D01*
X135734213Y-139548447D01*
X135981652Y-139548447D01*
X136174755Y-139530475D01*
X136298049Y-139473054D01*
X136359178Y-139370930D01*
X136369213Y-139282020D01*
X136345210Y-139184319D01*
X136266660Y-139121834D01*
X136123754Y-139089766D01*
X135961975Y-139082780D01*
X135799760Y-139091467D01*
X135692627Y-139122440D01*
X135625022Y-139170601D01*
X135531541Y-139258423D01*
X135347127Y-139165398D01*
X135236479Y-139108307D01*
X135161829Y-139067403D01*
X135145667Y-139057003D01*
X135163700Y-139024002D01*
X135230733Y-138961037D01*
X135325703Y-138885679D01*
X135427547Y-138815499D01*
X135455521Y-138798530D01*
X135542367Y-138773526D01*
X135694974Y-138755462D01*
X135894582Y-138746315D01*
X135958150Y-138745614D01*
X136238804Y-138756673D01*
G36*
X145113899Y-138701780D02*
G01*
X145767213Y-138701780D01*
X145767213Y-139037485D01*
X145333297Y-139049549D01*
X144899380Y-139061614D01*
X144873574Y-139463780D01*
X145088920Y-139463780D01*
X145338513Y-139492051D01*
X145546400Y-139583730D01*
X145721284Y-139732541D01*
X145815665Y-139848950D01*
X145864150Y-139967537D01*
X145883805Y-140108005D01*
X145887150Y-140261783D01*
X145861026Y-140374128D01*
X145802734Y-140476669D01*
X145636488Y-140648431D01*
X145413090Y-140759446D01*
X145131210Y-140810278D01*
X145005213Y-140813912D01*
X144830055Y-140806817D01*
X144671679Y-140790221D01*
X144563383Y-140767659D01*
X144560713Y-140766735D01*
X144446964Y-140715977D01*
X144332521Y-140649188D01*
X144242389Y-140582847D01*
X144201575Y-140533431D01*
X144201169Y-140529814D01*
X144233177Y-140490542D01*
X144313382Y-140425754D01*
X144354149Y-140396942D01*
X144506840Y-140292937D01*
X144669163Y-140386359D01*
X144876429Y-140463923D01*
X145021111Y-140479780D01*
X145195853Y-140447812D01*
X145316127Y-140358325D01*
X145372974Y-140220942D01*
X145370680Y-140104126D01*
X145341579Y-139976324D01*
X145293735Y-139890432D01*
X145212861Y-139839989D01*
X145084675Y-139818533D01*
X144894892Y-139819602D01*
X144759076Y-139827450D01*
X144318477Y-139856964D01*
X144342466Y-139734456D01*
X144356289Y-139636707D01*
X144372353Y-139482270D01*
X144387875Y-139298976D01*
X144392818Y-139230947D01*
X144404878Y-139033761D01*
X144417839Y-138892399D01*
X144444236Y-138797663D01*
X144496603Y-138740354D01*
X144587474Y-138711274D01*
X144729384Y-138701224D01*
X144934867Y-138701006D01*
X145113899Y-138701780D01*
X145113899Y-138701780D01*
G37*
X145113899Y-138701780D02*
X145767213Y-138701780D01*
X145767213Y-139037485D01*
X145333297Y-139049549D01*
X144899380Y-139061614D01*
X144873574Y-139463780D01*
X145088920Y-139463780D01*
X145338513Y-139492051D01*
X145546400Y-139583730D01*
X145721284Y-139732541D01*
X145815665Y-139848950D01*
X145864150Y-139967537D01*
X145883805Y-140108005D01*
X145887150Y-140261783D01*
X145861026Y-140374128D01*
X145802734Y-140476669D01*
X145636488Y-140648431D01*
X145413090Y-140759446D01*
X145131210Y-140810278D01*
X145005213Y-140813912D01*
X144830055Y-140806817D01*
X144671679Y-140790221D01*
X144563383Y-140767659D01*
X144560713Y-140766735D01*
X144446964Y-140715977D01*
X144332521Y-140649188D01*
X144242389Y-140582847D01*
X144201575Y-140533431D01*
X144201169Y-140529814D01*
X144233177Y-140490542D01*
X144313382Y-140425754D01*
X144354149Y-140396942D01*
X144506840Y-140292937D01*
X144669163Y-140386359D01*
X144876429Y-140463923D01*
X145021111Y-140479780D01*
X145195853Y-140447812D01*
X145316127Y-140358325D01*
X145372974Y-140220942D01*
X145370680Y-140104126D01*
X145341579Y-139976324D01*
X145293735Y-139890432D01*
X145212861Y-139839989D01*
X145084675Y-139818533D01*
X144894892Y-139819602D01*
X144759076Y-139827450D01*
X144318477Y-139856964D01*
X144342466Y-139734456D01*
X144356289Y-139636707D01*
X144372353Y-139482270D01*
X144387875Y-139298976D01*
X144392818Y-139230947D01*
X144404878Y-139033761D01*
X144417839Y-138892399D01*
X144444236Y-138797663D01*
X144496603Y-138740354D01*
X144587474Y-138711274D01*
X144729384Y-138701224D01*
X144934867Y-138701006D01*
X145113899Y-138701780D01*
G36*
X154953547Y-138871500D02*
G01*
X154933013Y-138964722D01*
X154867374Y-139091688D01*
X154750575Y-139263192D01*
X154683722Y-139352523D01*
X154394346Y-139759410D01*
X154165831Y-140140472D01*
X154003189Y-140487172D01*
X153978212Y-140553864D01*
X153883869Y-140818447D01*
X153388449Y-140818447D01*
X153473095Y-140603698D01*
X153590892Y-140342109D01*
X153751498Y-140039930D01*
X153941952Y-139720277D01*
X154124135Y-139442614D01*
X154356985Y-139103947D01*
X153787432Y-139092169D01*
X153217880Y-139080391D01*
X153217880Y-138744114D01*
X154953547Y-138744114D01*
X154953547Y-138871500D01*
X154953547Y-138871500D01*
G37*
X154953547Y-138871500D02*
X154933013Y-138964722D01*
X154867374Y-139091688D01*
X154750575Y-139263192D01*
X154683722Y-139352523D01*
X154394346Y-139759410D01*
X154165831Y-140140472D01*
X154003189Y-140487172D01*
X153978212Y-140553864D01*
X153883869Y-140818447D01*
X153388449Y-140818447D01*
X153473095Y-140603698D01*
X153590892Y-140342109D01*
X153751498Y-140039930D01*
X153941952Y-139720277D01*
X154124135Y-139442614D01*
X154356985Y-139103947D01*
X153787432Y-139092169D01*
X153217880Y-139080391D01*
X153217880Y-138744114D01*
X154953547Y-138744114D01*
X154953547Y-138871500D01*
G36*
X147226494Y-123293187D02*
G01*
X147479781Y-123394550D01*
X147608713Y-123483479D01*
X147735713Y-123588952D01*
X147527967Y-123773568D01*
X147320220Y-123958185D01*
X147168133Y-123854656D01*
X147042560Y-123785719D01*
X146925186Y-123769067D01*
X146854316Y-123776764D01*
X146647909Y-123837741D01*
X146497722Y-123950998D01*
X146396825Y-124124645D01*
X146338286Y-124366793D01*
X146336034Y-124383188D01*
X146329819Y-124645074D01*
X146378692Y-124873023D01*
X146474037Y-125058890D01*
X146607237Y-125194525D01*
X146769678Y-125271782D01*
X146952742Y-125282513D01*
X147147815Y-125218570D01*
X147192473Y-125193063D01*
X147336560Y-125104013D01*
X147546233Y-125300137D01*
X147755906Y-125496262D01*
X147561728Y-125619407D01*
X147402070Y-125702767D01*
X147225348Y-125769694D01*
X147157964Y-125787499D01*
X147023414Y-125814768D01*
X146928186Y-125824985D01*
X146833861Y-125818215D01*
X146702019Y-125794529D01*
X146670765Y-125788360D01*
X146375092Y-125692245D01*
X146129492Y-125529257D01*
X145929917Y-125296284D01*
X145847431Y-125155114D01*
X145798434Y-125045810D01*
X145768378Y-124932616D01*
X145752909Y-124789695D01*
X145747672Y-124591211D01*
X145747524Y-124562447D01*
X145749673Y-124361630D01*
X145761305Y-124217107D01*
X145787575Y-124100617D01*
X145833636Y-123983897D01*
X145865043Y-123917954D01*
X145961342Y-123757241D01*
X146081593Y-123603317D01*
X146159528Y-123525417D01*
X146396660Y-123372797D01*
X146666092Y-123282855D01*
X146948984Y-123256137D01*
X147226494Y-123293187D01*
X147226494Y-123293187D01*
G37*
X147226494Y-123293187D02*
X147479781Y-123394550D01*
X147608713Y-123483479D01*
X147735713Y-123588952D01*
X147527967Y-123773568D01*
X147320220Y-123958185D01*
X147168133Y-123854656D01*
X147042560Y-123785719D01*
X146925186Y-123769067D01*
X146854316Y-123776764D01*
X146647909Y-123837741D01*
X146497722Y-123950998D01*
X146396825Y-124124645D01*
X146338286Y-124366793D01*
X146336034Y-124383188D01*
X146329819Y-124645074D01*
X146378692Y-124873023D01*
X146474037Y-125058890D01*
X146607237Y-125194525D01*
X146769678Y-125271782D01*
X146952742Y-125282513D01*
X147147815Y-125218570D01*
X147192473Y-125193063D01*
X147336560Y-125104013D01*
X147546233Y-125300137D01*
X147755906Y-125496262D01*
X147561728Y-125619407D01*
X147402070Y-125702767D01*
X147225348Y-125769694D01*
X147157964Y-125787499D01*
X147023414Y-125814768D01*
X146928186Y-125824985D01*
X146833861Y-125818215D01*
X146702019Y-125794529D01*
X146670765Y-125788360D01*
X146375092Y-125692245D01*
X146129492Y-125529257D01*
X145929917Y-125296284D01*
X145847431Y-125155114D01*
X145798434Y-125045810D01*
X145768378Y-124932616D01*
X145752909Y-124789695D01*
X145747672Y-124591211D01*
X145747524Y-124562447D01*
X145749673Y-124361630D01*
X145761305Y-124217107D01*
X145787575Y-124100617D01*
X145833636Y-123983897D01*
X145865043Y-123917954D01*
X145961342Y-123757241D01*
X146081593Y-123603317D01*
X146159528Y-123525417D01*
X146396660Y-123372797D01*
X146666092Y-123282855D01*
X146948984Y-123256137D01*
X147226494Y-123293187D01*
G36*
X135977176Y-123293187D02*
G01*
X136199957Y-123353947D01*
X136375126Y-123462031D01*
X136517589Y-123623965D01*
X136527916Y-123639285D01*
X136567373Y-123700776D01*
X136596916Y-123758241D01*
X136618199Y-123824832D01*
X136632877Y-123913700D01*
X136642606Y-124037997D01*
X136649040Y-124210876D01*
X136653833Y-124445487D01*
X136657314Y-124667595D01*
X136670247Y-125520073D01*
X136424480Y-125642508D01*
X136298963Y-125700136D01*
X136183505Y-125737730D01*
X136052066Y-125760438D01*
X135878605Y-125773409D01*
X135734213Y-125778954D01*
X135517607Y-125782944D01*
X135363248Y-125777234D01*
X135249032Y-125759431D01*
X135152854Y-125727141D01*
X135120380Y-125712457D01*
X134904787Y-125574099D01*
X134762253Y-125395679D01*
X134688675Y-125170625D01*
X134675880Y-125000005D01*
X134676387Y-124996596D01*
X135275943Y-124996596D01*
X135321327Y-125117158D01*
X135372456Y-125178204D01*
X135452354Y-125241474D01*
X135548453Y-125272837D01*
X135692765Y-125282036D01*
X135713905Y-125282114D01*
X135861603Y-125274492D01*
X135984315Y-125254939D01*
X136033330Y-125238291D01*
X136083584Y-125192801D01*
X136108499Y-125110513D01*
X136115213Y-124967931D01*
X136115213Y-124741394D01*
X135931068Y-124713779D01*
X135712955Y-124702303D01*
X135529231Y-124732459D01*
X135389050Y-124796634D01*
X135301569Y-124887217D01*
X135275943Y-124996596D01*
X134676387Y-124996596D01*
X134712294Y-124755325D01*
X134818329Y-124551594D01*
X134971708Y-124409590D01*
X135133547Y-124317884D01*
X135302512Y-124259329D01*
X135503823Y-124227844D01*
X135762704Y-124217350D01*
X135769490Y-124217308D01*
X136122267Y-124215314D01*
X136095979Y-124103130D01*
X136022616Y-123957581D01*
X135892820Y-123855829D01*
X135725555Y-123803157D01*
X135539785Y-123804845D01*
X135354476Y-123866175D01*
X135318305Y-123886570D01*
X135177564Y-123972376D01*
X134966998Y-123796080D01*
X134756431Y-123619784D01*
X134849534Y-123520681D01*
X135026713Y-123392510D01*
X135273160Y-123310301D01*
X135586610Y-123274717D01*
X135691880Y-123273225D01*
X135977176Y-123293187D01*
X135977176Y-123293187D01*
G37*
X135977176Y-123293187D02*
X136199957Y-123353947D01*
X136375126Y-123462031D01*
X136517589Y-123623965D01*
X136527916Y-123639285D01*
X136567373Y-123700776D01*
X136596916Y-123758241D01*
X136618199Y-123824832D01*
X136632877Y-123913700D01*
X136642606Y-124037997D01*
X136649040Y-124210876D01*
X136653833Y-124445487D01*
X136657314Y-124667595D01*
X136670247Y-125520073D01*
X136424480Y-125642508D01*
X136298963Y-125700136D01*
X136183505Y-125737730D01*
X136052066Y-125760438D01*
X135878605Y-125773409D01*
X135734213Y-125778954D01*
X135517607Y-125782944D01*
X135363248Y-125777234D01*
X135249032Y-125759431D01*
X135152854Y-125727141D01*
X135120380Y-125712457D01*
X134904787Y-125574099D01*
X134762253Y-125395679D01*
X134688675Y-125170625D01*
X134675880Y-125000005D01*
X134676387Y-124996596D01*
X135275943Y-124996596D01*
X135321327Y-125117158D01*
X135372456Y-125178204D01*
X135452354Y-125241474D01*
X135548453Y-125272837D01*
X135692765Y-125282036D01*
X135713905Y-125282114D01*
X135861603Y-125274492D01*
X135984315Y-125254939D01*
X136033330Y-125238291D01*
X136083584Y-125192801D01*
X136108499Y-125110513D01*
X136115213Y-124967931D01*
X136115213Y-124741394D01*
X135931068Y-124713779D01*
X135712955Y-124702303D01*
X135529231Y-124732459D01*
X135389050Y-124796634D01*
X135301569Y-124887217D01*
X135275943Y-124996596D01*
X134676387Y-124996596D01*
X134712294Y-124755325D01*
X134818329Y-124551594D01*
X134971708Y-124409590D01*
X135133547Y-124317884D01*
X135302512Y-124259329D01*
X135503823Y-124227844D01*
X135762704Y-124217350D01*
X135769490Y-124217308D01*
X136122267Y-124215314D01*
X136095979Y-124103130D01*
X136022616Y-123957581D01*
X135892820Y-123855829D01*
X135725555Y-123803157D01*
X135539785Y-123804845D01*
X135354476Y-123866175D01*
X135318305Y-123886570D01*
X135177564Y-123972376D01*
X134966998Y-123796080D01*
X134756431Y-123619784D01*
X134849534Y-123520681D01*
X135026713Y-123392510D01*
X135273160Y-123310301D01*
X135586610Y-123274717D01*
X135691880Y-123273225D01*
X135977176Y-123293187D01*
G36*
X137893213Y-123289582D02*
G01*
X138348297Y-123301598D01*
X138803380Y-123313614D01*
X138815983Y-123578197D01*
X138828587Y-123842780D01*
X137840027Y-123842780D01*
X137858900Y-124434167D01*
X137869347Y-124694242D01*
X137884971Y-124883811D01*
X137910924Y-125017034D01*
X137952358Y-125108071D01*
X138014426Y-125171083D01*
X138102281Y-125220231D01*
X138152881Y-125242128D01*
X138242747Y-125268593D01*
X138341559Y-125267823D01*
X138480038Y-125238411D01*
X138530181Y-125224829D01*
X138664773Y-125188193D01*
X138762927Y-125162943D01*
X138799705Y-125155114D01*
X138818242Y-125192700D01*
X138846822Y-125289956D01*
X138871351Y-125391392D01*
X138898751Y-125530411D01*
X138901798Y-125610522D01*
X138879880Y-125654088D01*
X138863804Y-125666407D01*
X138688794Y-125740495D01*
X138464511Y-125781964D01*
X138220087Y-125790147D01*
X137984655Y-125764378D01*
X137787348Y-125703990D01*
X137762288Y-125691613D01*
X137549807Y-125534878D01*
X137399470Y-125321372D01*
X137310584Y-125050036D01*
X137299392Y-124983755D01*
X137288060Y-124862699D01*
X137277925Y-124673001D01*
X137269485Y-124430685D01*
X137263239Y-124151772D01*
X137259687Y-123852285D01*
X137259064Y-123688559D01*
X137258192Y-123362521D01*
X137258486Y-123111081D01*
X137263398Y-122924198D01*
X137276377Y-122791836D01*
X137300875Y-122703954D01*
X137340341Y-122650515D01*
X137398226Y-122621479D01*
X137477982Y-122606808D01*
X137583058Y-122596463D01*
X137636355Y-122590904D01*
X137893213Y-122561844D01*
X137893213Y-123289582D01*
X137893213Y-123289582D01*
G37*
X137893213Y-123289582D02*
X138348297Y-123301598D01*
X138803380Y-123313614D01*
X138815983Y-123578197D01*
X138828587Y-123842780D01*
X137840027Y-123842780D01*
X137858900Y-124434167D01*
X137869347Y-124694242D01*
X137884971Y-124883811D01*
X137910924Y-125017034D01*
X137952358Y-125108071D01*
X138014426Y-125171083D01*
X138102281Y-125220231D01*
X138152881Y-125242128D01*
X138242747Y-125268593D01*
X138341559Y-125267823D01*
X138480038Y-125238411D01*
X138530181Y-125224829D01*
X138664773Y-125188193D01*
X138762927Y-125162943D01*
X138799705Y-125155114D01*
X138818242Y-125192700D01*
X138846822Y-125289956D01*
X138871351Y-125391392D01*
X138898751Y-125530411D01*
X138901798Y-125610522D01*
X138879880Y-125654088D01*
X138863804Y-125666407D01*
X138688794Y-125740495D01*
X138464511Y-125781964D01*
X138220087Y-125790147D01*
X137984655Y-125764378D01*
X137787348Y-125703990D01*
X137762288Y-125691613D01*
X137549807Y-125534878D01*
X137399470Y-125321372D01*
X137310584Y-125050036D01*
X137299392Y-124983755D01*
X137288060Y-124862699D01*
X137277925Y-124673001D01*
X137269485Y-124430685D01*
X137263239Y-124151772D01*
X137259687Y-123852285D01*
X137259064Y-123688559D01*
X137258192Y-123362521D01*
X137258486Y-123111081D01*
X137263398Y-122924198D01*
X137276377Y-122791836D01*
X137300875Y-122703954D01*
X137340341Y-122650515D01*
X137398226Y-122621479D01*
X137477982Y-122606808D01*
X137583058Y-122596463D01*
X137636355Y-122590904D01*
X137893213Y-122561844D01*
X137893213Y-123289582D01*
G36*
X133496761Y-123286812D02*
G01*
X133734141Y-123353066D01*
X133927610Y-123466811D01*
X134030840Y-123577238D01*
X134091161Y-123672682D01*
X134137829Y-123772786D01*
X134172949Y-123890443D01*
X134198628Y-124038544D01*
X134216971Y-124229981D01*
X134230085Y-124477647D01*
X134240076Y-124794432D01*
X134241937Y-124869364D01*
X134263066Y-125747780D01*
X133671612Y-125747780D01*
X133649947Y-124932864D01*
X133639596Y-124611623D01*
X133626246Y-124364186D01*
X133607600Y-124179694D01*
X133581363Y-124047287D01*
X133545237Y-123956106D01*
X133496926Y-123895291D01*
X133434132Y-123853982D01*
X133420386Y-123847448D01*
X133294269Y-123811872D01*
X133149862Y-123803061D01*
X133007409Y-123817229D01*
X132887155Y-123850589D01*
X132809343Y-123899356D01*
X132794217Y-123959741D01*
X132796001Y-123964242D01*
X132806167Y-124026224D01*
X132816865Y-124158882D01*
X132827341Y-124348236D01*
X132836846Y-124580307D01*
X132844626Y-124841113D01*
X132845797Y-124890530D01*
X132865286Y-125747780D01*
X132262880Y-125747780D01*
X132260356Y-125081030D01*
X132257263Y-124832999D01*
X132250441Y-124597553D01*
X132240770Y-124395600D01*
X132229129Y-124248046D01*
X132223513Y-124205151D01*
X132160987Y-124005772D01*
X132048715Y-123874434D01*
X131884407Y-123809061D01*
X131777148Y-123800447D01*
X131676353Y-123799810D01*
X131599355Y-123804574D01*
X131542961Y-123824751D01*
X131503979Y-123870353D01*
X131479218Y-123951392D01*
X131465485Y-124077879D01*
X131459589Y-124259828D01*
X131458339Y-124507250D01*
X131458547Y-124799809D01*
X131458547Y-125747780D01*
X130865880Y-125747780D01*
X130865880Y-123385883D01*
X131215130Y-123334064D01*
X131525193Y-123300571D01*
X131813614Y-123293126D01*
X132065018Y-123310731D01*
X132264028Y-123352386D01*
X132386344Y-123410139D01*
X132477427Y-123470101D01*
X132539876Y-123480159D01*
X132609236Y-123445631D01*
X132611921Y-123443880D01*
X132704443Y-123399249D01*
X132844579Y-123348681D01*
X132961380Y-123314264D01*
X133233248Y-123272421D01*
X133496761Y-123286812D01*
X133496761Y-123286812D01*
G37*
X133496761Y-123286812D02*
X133734141Y-123353066D01*
X133927610Y-123466811D01*
X134030840Y-123577238D01*
X134091161Y-123672682D01*
X134137829Y-123772786D01*
X134172949Y-123890443D01*
X134198628Y-124038544D01*
X134216971Y-124229981D01*
X134230085Y-124477647D01*
X134240076Y-124794432D01*
X134241937Y-124869364D01*
X134263066Y-125747780D01*
X133671612Y-125747780D01*
X133649947Y-124932864D01*
X133639596Y-124611623D01*
X133626246Y-124364186D01*
X133607600Y-124179694D01*
X133581363Y-124047287D01*
X133545237Y-123956106D01*
X133496926Y-123895291D01*
X133434132Y-123853982D01*
X133420386Y-123847448D01*
X133294269Y-123811872D01*
X133149862Y-123803061D01*
X133007409Y-123817229D01*
X132887155Y-123850589D01*
X132809343Y-123899356D01*
X132794217Y-123959741D01*
X132796001Y-123964242D01*
X132806167Y-124026224D01*
X132816865Y-124158882D01*
X132827341Y-124348236D01*
X132836846Y-124580307D01*
X132844626Y-124841113D01*
X132845797Y-124890530D01*
X132865286Y-125747780D01*
X132262880Y-125747780D01*
X132260356Y-125081030D01*
X132257263Y-124832999D01*
X132250441Y-124597553D01*
X132240770Y-124395600D01*
X132229129Y-124248046D01*
X132223513Y-124205151D01*
X132160987Y-124005772D01*
X132048715Y-123874434D01*
X131884407Y-123809061D01*
X131777148Y-123800447D01*
X131676353Y-123799810D01*
X131599355Y-123804574D01*
X131542961Y-123824751D01*
X131503979Y-123870353D01*
X131479218Y-123951392D01*
X131465485Y-124077879D01*
X131459589Y-124259828D01*
X131458339Y-124507250D01*
X131458547Y-124799809D01*
X131458547Y-125747780D01*
X130865880Y-125747780D01*
X130865880Y-123385883D01*
X131215130Y-123334064D01*
X131525193Y-123300571D01*
X131813614Y-123293126D01*
X132065018Y-123310731D01*
X132264028Y-123352386D01*
X132386344Y-123410139D01*
X132477427Y-123470101D01*
X132539876Y-123480159D01*
X132609236Y-123445631D01*
X132611921Y-123443880D01*
X132704443Y-123399249D01*
X132844579Y-123348681D01*
X132961380Y-123314264D01*
X133233248Y-123272421D01*
X133496761Y-123286812D01*
G36*
X140546523Y-123284008D02*
G01*
X140755480Y-123322662D01*
X140798353Y-123336986D01*
X140847366Y-123361252D01*
X140868333Y-123400503D01*
X140864413Y-123477111D01*
X140838762Y-123613450D01*
X140837939Y-123617476D01*
X140804796Y-123757226D01*
X140772033Y-123830196D01*
X140729929Y-123853669D01*
X140705633Y-123852728D01*
X140451849Y-123821280D01*
X140263425Y-123806391D01*
X140122875Y-123807155D01*
X140035212Y-123818039D01*
X139882880Y-123846617D01*
X139882880Y-125747780D01*
X139290213Y-125747780D01*
X139290213Y-123432849D01*
X139455726Y-123383260D01*
X139718256Y-123322035D01*
X140003704Y-123284529D01*
X140287862Y-123271575D01*
X140546523Y-123284008D01*
X140546523Y-123284008D01*
G37*
X140546523Y-123284008D02*
X140755480Y-123322662D01*
X140798353Y-123336986D01*
X140847366Y-123361252D01*
X140868333Y-123400503D01*
X140864413Y-123477111D01*
X140838762Y-123613450D01*
X140837939Y-123617476D01*
X140804796Y-123757226D01*
X140772033Y-123830196D01*
X140729929Y-123853669D01*
X140705633Y-123852728D01*
X140451849Y-123821280D01*
X140263425Y-123806391D01*
X140122875Y-123807155D01*
X140035212Y-123818039D01*
X139882880Y-123846617D01*
X139882880Y-125747780D01*
X139290213Y-125747780D01*
X139290213Y-123432849D01*
X139455726Y-123383260D01*
X139718256Y-123322035D01*
X140003704Y-123284529D01*
X140287862Y-123271575D01*
X140546523Y-123284008D01*
G36*
X141745547Y-125747780D02*
G01*
X141152880Y-125747780D01*
X141152880Y-123334780D01*
X141745547Y-123334780D01*
X141745547Y-125747780D01*
X141745547Y-125747780D01*
G37*
X141745547Y-125747780D02*
X141152880Y-125747780D01*
X141152880Y-123334780D01*
X141745547Y-123334780D01*
X141745547Y-125747780D01*
G36*
X142970309Y-123693855D02*
G01*
X143066379Y-123847687D01*
X143147480Y-123972329D01*
X143202730Y-124051335D01*
X143219445Y-124070323D01*
X143252101Y-124043970D01*
X143317721Y-123959106D01*
X143405928Y-123829953D01*
X143481213Y-123711685D01*
X143714047Y-123335655D01*
X144023462Y-123335217D01*
X144186519Y-123338412D01*
X144276649Y-123350023D01*
X144305361Y-123372231D01*
X144300463Y-123387697D01*
X144265434Y-123439917D01*
X144191247Y-123547384D01*
X144087577Y-123696178D01*
X143964099Y-123872383D01*
X143914679Y-123942664D01*
X143561308Y-124444714D01*
X143965761Y-125057769D01*
X144097829Y-125260074D01*
X144211832Y-125438750D01*
X144300165Y-125581549D01*
X144355225Y-125676223D01*
X144370213Y-125709302D01*
X144331488Y-125728371D01*
X144229673Y-125742135D01*
X144086309Y-125747763D01*
X144077523Y-125747780D01*
X143784833Y-125747780D01*
X143626325Y-125462030D01*
X143528266Y-125291102D01*
X143425189Y-125120586D01*
X143341705Y-124990875D01*
X143215593Y-124805469D01*
X143070157Y-125033208D01*
X142965285Y-125206067D01*
X142855744Y-125399699D01*
X142800191Y-125504364D01*
X142675661Y-125747780D01*
X142379937Y-125747780D01*
X142234033Y-125745250D01*
X142128383Y-125738594D01*
X142084426Y-125729210D01*
X142084213Y-125728476D01*
X142106713Y-125674614D01*
X142168434Y-125564873D01*
X142260708Y-125413199D01*
X142374870Y-125233537D01*
X142502250Y-125039829D01*
X142619884Y-124866670D01*
X142892304Y-124472393D01*
X142509425Y-123925562D01*
X142378895Y-123737814D01*
X142267481Y-123575040D01*
X142183445Y-123449509D01*
X142135045Y-123373493D01*
X142126547Y-123356756D01*
X142165395Y-123346165D01*
X142268019Y-123338373D01*
X142413538Y-123334849D01*
X142438327Y-123334780D01*
X142750107Y-123334780D01*
X142970309Y-123693855D01*
X142970309Y-123693855D01*
G37*
X142970309Y-123693855D02*
X143066379Y-123847687D01*
X143147480Y-123972329D01*
X143202730Y-124051335D01*
X143219445Y-124070323D01*
X143252101Y-124043970D01*
X143317721Y-123959106D01*
X143405928Y-123829953D01*
X143481213Y-123711685D01*
X143714047Y-123335655D01*
X144023462Y-123335217D01*
X144186519Y-123338412D01*
X144276649Y-123350023D01*
X144305361Y-123372231D01*
X144300463Y-123387697D01*
X144265434Y-123439917D01*
X144191247Y-123547384D01*
X144087577Y-123696178D01*
X143964099Y-123872383D01*
X143914679Y-123942664D01*
X143561308Y-124444714D01*
X143965761Y-125057769D01*
X144097829Y-125260074D01*
X144211832Y-125438750D01*
X144300165Y-125581549D01*
X144355225Y-125676223D01*
X144370213Y-125709302D01*
X144331488Y-125728371D01*
X144229673Y-125742135D01*
X144086309Y-125747763D01*
X144077523Y-125747780D01*
X143784833Y-125747780D01*
X143626325Y-125462030D01*
X143528266Y-125291102D01*
X143425189Y-125120586D01*
X143341705Y-124990875D01*
X143215593Y-124805469D01*
X143070157Y-125033208D01*
X142965285Y-125206067D01*
X142855744Y-125399699D01*
X142800191Y-125504364D01*
X142675661Y-125747780D01*
X142379937Y-125747780D01*
X142234033Y-125745250D01*
X142128383Y-125738594D01*
X142084426Y-125729210D01*
X142084213Y-125728476D01*
X142106713Y-125674614D01*
X142168434Y-125564873D01*
X142260708Y-125413199D01*
X142374870Y-125233537D01*
X142502250Y-125039829D01*
X142619884Y-124866670D01*
X142892304Y-124472393D01*
X142509425Y-123925562D01*
X142378895Y-123737814D01*
X142267481Y-123575040D01*
X142183445Y-123449509D01*
X142135045Y-123373493D01*
X142126547Y-123356756D01*
X142165395Y-123346165D01*
X142268019Y-123338373D01*
X142413538Y-123334849D01*
X142438327Y-123334780D01*
X142750107Y-123334780D01*
X142970309Y-123693855D01*
G36*
X150001309Y-123449374D02*
G01*
X149839388Y-123946874D01*
X149701748Y-124368460D01*
X149586830Y-124718844D01*
X149493075Y-125002739D01*
X149418925Y-125224858D01*
X149362822Y-125389914D01*
X149323207Y-125502619D01*
X149314823Y-125525530D01*
X149232463Y-125747780D01*
X148657970Y-125747780D01*
X148437466Y-125231230D01*
X148295005Y-124883052D01*
X148147909Y-124498199D01*
X148007571Y-124107969D01*
X147885381Y-123743661D01*
X147824410Y-123546811D01*
X147761443Y-123334780D01*
X148383435Y-123334780D01*
X148436082Y-123557030D01*
X148535070Y-123933469D01*
X148654972Y-124324467D01*
X148782470Y-124687520D01*
X148822766Y-124791023D01*
X148868911Y-124907913D01*
X148905400Y-124993671D01*
X148936142Y-125042121D01*
X148965044Y-125047087D01*
X148996015Y-125002393D01*
X149032963Y-124901863D01*
X149079798Y-124739321D01*
X149140426Y-124508592D01*
X149218757Y-124203500D01*
X149235320Y-124139114D01*
X149437023Y-123355947D01*
X149738385Y-123343541D01*
X150039747Y-123331134D01*
X150001309Y-123449374D01*
X150001309Y-123449374D01*
G37*
X150001309Y-123449374D02*
X149839388Y-123946874D01*
X149701748Y-124368460D01*
X149586830Y-124718844D01*
X149493075Y-125002739D01*
X149418925Y-125224858D01*
X149362822Y-125389914D01*
X149323207Y-125502619D01*
X149314823Y-125525530D01*
X149232463Y-125747780D01*
X148657970Y-125747780D01*
X148437466Y-125231230D01*
X148295005Y-124883052D01*
X148147909Y-124498199D01*
X148007571Y-124107969D01*
X147885381Y-123743661D01*
X147824410Y-123546811D01*
X147761443Y-123334780D01*
X148383435Y-123334780D01*
X148436082Y-123557030D01*
X148535070Y-123933469D01*
X148654972Y-124324467D01*
X148782470Y-124687520D01*
X148822766Y-124791023D01*
X148868911Y-124907913D01*
X148905400Y-124993671D01*
X148936142Y-125042121D01*
X148965044Y-125047087D01*
X148996015Y-125002393D01*
X149032963Y-124901863D01*
X149079798Y-124739321D01*
X149140426Y-124508592D01*
X149218757Y-124203500D01*
X149235320Y-124139114D01*
X149437023Y-123355947D01*
X149738385Y-123343541D01*
X150039747Y-123331134D01*
X150001309Y-123449374D01*
G36*
X141745547Y-122996114D02*
G01*
X141477435Y-122996114D01*
X141333729Y-122991961D01*
X141225940Y-122981141D01*
X141181102Y-122967891D01*
X141166905Y-122914167D01*
X141156770Y-122800379D01*
X141152880Y-122651111D01*
X141152880Y-122361114D01*
X141745547Y-122361114D01*
X141745547Y-122996114D01*
X141745547Y-122996114D01*
G37*
X141745547Y-122996114D02*
X141477435Y-122996114D01*
X141333729Y-122991961D01*
X141225940Y-122981141D01*
X141181102Y-122967891D01*
X141166905Y-122914167D01*
X141156770Y-122800379D01*
X141152880Y-122651111D01*
X141152880Y-122361114D01*
X141745547Y-122361114D01*
X141745547Y-122996114D01*
D11*
X156586879Y-52113780D03*
X152448972Y-102861361D03*
D12*
X123095708Y-102872256D03*
X93797524Y-102824916D03*
X64462586Y-102840381D03*
X141962972Y-72861114D03*
X67427950Y-126351504D03*
D13*
X62977886Y-145868120D03*
X71930285Y-145869240D03*
D14*
X81945483Y-145867220D03*
X90928445Y-145858820D03*
X104436940Y-145869250D03*
X113423879Y-145869230D03*
X126932477Y-132861453D03*
X135925237Y-132867885D03*
X144937733Y-132869548D03*
X153931059Y-132873256D03*
X126948918Y-145858640D03*
X135941670Y-145865070D03*
X144954167Y-145866730D03*
X153947499Y-145870440D03*
D15*
X156586879Y-40113780D03*
X60186879Y-162613780D03*
X156586879Y-162613780D03*
X60186879Y-40113780D03*
M02*
