G04 #@! TF.GenerationSoftware,KiCad,Pcbnew,(5.1.2)-1*
G04 #@! TF.CreationDate,2019-05-17T09:45:12+02:00*
G04 #@! TF.ProjectId,frontplate-ctag,66726f6e-7470-46c6-9174-652d63746167,rev?*
G04 #@! TF.SameCoordinates,Original*
G04 #@! TF.FileFunction,Soldermask,Bot*
G04 #@! TF.FilePolarity,Negative*
%FSLAX46Y46*%
G04 Gerber Fmt 4.6, Leading zero omitted, Abs format (unit mm)*
G04 Created by KiCad (PCBNEW (5.1.2)-1) date 2019-05-17 09:45:12*
%MOMM*%
%LPD*%
G04 APERTURE LIST*
%ADD10C,0.010000*%
%ADD11C,7.600000*%
%ADD12C,7.600001*%
%ADD13C,6.600000*%
%ADD14C,6.600001*%
%ADD15C,3.800000*%
G04 APERTURE END LIST*
D10*
G36*
X94545861Y-118339166D02*
G01*
X95161560Y-118339843D01*
X95714175Y-118341075D01*
X96207304Y-118342997D01*
X96644543Y-118345742D01*
X97029490Y-118349442D01*
X97365742Y-118354232D01*
X97656895Y-118360246D01*
X97906548Y-118367615D01*
X98118296Y-118376475D01*
X98295738Y-118386957D01*
X98442470Y-118399197D01*
X98562090Y-118413326D01*
X98658194Y-118429480D01*
X98734380Y-118447790D01*
X98794244Y-118468391D01*
X98841384Y-118491416D01*
X98879398Y-118516998D01*
X98911881Y-118545271D01*
X98942431Y-118576368D01*
X98974646Y-118610423D01*
X99012122Y-118647570D01*
X99025219Y-118659597D01*
X99183058Y-118830515D01*
X99308834Y-119020736D01*
X99332381Y-119068451D01*
X99433380Y-119291947D01*
X99433380Y-127314114D01*
X99433362Y-128282518D01*
X99433283Y-129169900D01*
X99433108Y-129979903D01*
X99432801Y-130716170D01*
X99432326Y-131382347D01*
X99431646Y-131982076D01*
X99430727Y-132519002D01*
X99429531Y-132996768D01*
X99428024Y-133419018D01*
X99426169Y-133789396D01*
X99423930Y-134111547D01*
X99421271Y-134389113D01*
X99418157Y-134625738D01*
X99414552Y-134825068D01*
X99410419Y-134990744D01*
X99405722Y-135126412D01*
X99400426Y-135235715D01*
X99394495Y-135322296D01*
X99387893Y-135389801D01*
X99380584Y-135441872D01*
X99372532Y-135482154D01*
X99363701Y-135514290D01*
X99354055Y-135541925D01*
X99352209Y-135546754D01*
X99226366Y-135777473D01*
X99041837Y-135994879D01*
X98823609Y-136172725D01*
X98680429Y-136252477D01*
X98459713Y-136352280D01*
X90543380Y-136357961D01*
X89727861Y-136358378D01*
X88933277Y-136358455D01*
X88163922Y-136358206D01*
X87424091Y-136357643D01*
X86718077Y-136356782D01*
X86050175Y-136355635D01*
X85424680Y-136354217D01*
X84845884Y-136352541D01*
X84318084Y-136350620D01*
X83845572Y-136348469D01*
X83432643Y-136346102D01*
X83083591Y-136343531D01*
X82802711Y-136340771D01*
X82594297Y-136337835D01*
X82462642Y-136334737D01*
X82414487Y-136332015D01*
X82119819Y-136247046D01*
X81853383Y-136090721D01*
X81630476Y-135875357D01*
X81466391Y-135613271D01*
X81437725Y-135545464D01*
X81427985Y-135518309D01*
X81419062Y-135487101D01*
X81410920Y-135448197D01*
X81403522Y-135397954D01*
X81396834Y-135332729D01*
X81390820Y-135248880D01*
X81385444Y-135142763D01*
X81380669Y-135010736D01*
X81376462Y-134849155D01*
X81372785Y-134654379D01*
X81369603Y-134422763D01*
X81366881Y-134150666D01*
X81364583Y-133834444D01*
X81362672Y-133470455D01*
X81361114Y-133055056D01*
X81359872Y-132584603D01*
X81358912Y-132055455D01*
X81358196Y-131463967D01*
X81357690Y-130806498D01*
X81357358Y-130079404D01*
X81357164Y-129279043D01*
X81357072Y-128401772D01*
X81357047Y-127443947D01*
X81357047Y-119291947D01*
X81475840Y-119050036D01*
X81579575Y-118878975D01*
X81711696Y-118713407D01*
X81785105Y-118640465D01*
X81823382Y-118604617D01*
X81855717Y-118571717D01*
X81885707Y-118541639D01*
X81916948Y-118514257D01*
X81953038Y-118489446D01*
X81997574Y-118467079D01*
X82054153Y-118447030D01*
X82126370Y-118429175D01*
X82217825Y-118413387D01*
X82332112Y-118399541D01*
X82472830Y-118387511D01*
X82643574Y-118377170D01*
X82847943Y-118368394D01*
X83089532Y-118361057D01*
X83371940Y-118355032D01*
X83698762Y-118350195D01*
X84073595Y-118346419D01*
X84500037Y-118343578D01*
X84981685Y-118341547D01*
X85522135Y-118340200D01*
X86124984Y-118339412D01*
X86793829Y-118339056D01*
X87532267Y-118339007D01*
X88343896Y-118339139D01*
X89232311Y-118339326D01*
X90201110Y-118339443D01*
X90395213Y-118339447D01*
X91380287Y-118339347D01*
X92284292Y-118339135D01*
X93110824Y-118338945D01*
X93863482Y-118338911D01*
X94545861Y-118339166D01*
X94545861Y-118339166D01*
G37*
X94545861Y-118339166D02*
X95161560Y-118339843D01*
X95714175Y-118341075D01*
X96207304Y-118342997D01*
X96644543Y-118345742D01*
X97029490Y-118349442D01*
X97365742Y-118354232D01*
X97656895Y-118360246D01*
X97906548Y-118367615D01*
X98118296Y-118376475D01*
X98295738Y-118386957D01*
X98442470Y-118399197D01*
X98562090Y-118413326D01*
X98658194Y-118429480D01*
X98734380Y-118447790D01*
X98794244Y-118468391D01*
X98841384Y-118491416D01*
X98879398Y-118516998D01*
X98911881Y-118545271D01*
X98942431Y-118576368D01*
X98974646Y-118610423D01*
X99012122Y-118647570D01*
X99025219Y-118659597D01*
X99183058Y-118830515D01*
X99308834Y-119020736D01*
X99332381Y-119068451D01*
X99433380Y-119291947D01*
X99433380Y-127314114D01*
X99433362Y-128282518D01*
X99433283Y-129169900D01*
X99433108Y-129979903D01*
X99432801Y-130716170D01*
X99432326Y-131382347D01*
X99431646Y-131982076D01*
X99430727Y-132519002D01*
X99429531Y-132996768D01*
X99428024Y-133419018D01*
X99426169Y-133789396D01*
X99423930Y-134111547D01*
X99421271Y-134389113D01*
X99418157Y-134625738D01*
X99414552Y-134825068D01*
X99410419Y-134990744D01*
X99405722Y-135126412D01*
X99400426Y-135235715D01*
X99394495Y-135322296D01*
X99387893Y-135389801D01*
X99380584Y-135441872D01*
X99372532Y-135482154D01*
X99363701Y-135514290D01*
X99354055Y-135541925D01*
X99352209Y-135546754D01*
X99226366Y-135777473D01*
X99041837Y-135994879D01*
X98823609Y-136172725D01*
X98680429Y-136252477D01*
X98459713Y-136352280D01*
X90543380Y-136357961D01*
X89727861Y-136358378D01*
X88933277Y-136358455D01*
X88163922Y-136358206D01*
X87424091Y-136357643D01*
X86718077Y-136356782D01*
X86050175Y-136355635D01*
X85424680Y-136354217D01*
X84845884Y-136352541D01*
X84318084Y-136350620D01*
X83845572Y-136348469D01*
X83432643Y-136346102D01*
X83083591Y-136343531D01*
X82802711Y-136340771D01*
X82594297Y-136337835D01*
X82462642Y-136334737D01*
X82414487Y-136332015D01*
X82119819Y-136247046D01*
X81853383Y-136090721D01*
X81630476Y-135875357D01*
X81466391Y-135613271D01*
X81437725Y-135545464D01*
X81427985Y-135518309D01*
X81419062Y-135487101D01*
X81410920Y-135448197D01*
X81403522Y-135397954D01*
X81396834Y-135332729D01*
X81390820Y-135248880D01*
X81385444Y-135142763D01*
X81380669Y-135010736D01*
X81376462Y-134849155D01*
X81372785Y-134654379D01*
X81369603Y-134422763D01*
X81366881Y-134150666D01*
X81364583Y-133834444D01*
X81362672Y-133470455D01*
X81361114Y-133055056D01*
X81359872Y-132584603D01*
X81358912Y-132055455D01*
X81358196Y-131463967D01*
X81357690Y-130806498D01*
X81357358Y-130079404D01*
X81357164Y-129279043D01*
X81357072Y-128401772D01*
X81357047Y-127443947D01*
X81357047Y-119291947D01*
X81475840Y-119050036D01*
X81579575Y-118878975D01*
X81711696Y-118713407D01*
X81785105Y-118640465D01*
X81823382Y-118604617D01*
X81855717Y-118571717D01*
X81885707Y-118541639D01*
X81916948Y-118514257D01*
X81953038Y-118489446D01*
X81997574Y-118467079D01*
X82054153Y-118447030D01*
X82126370Y-118429175D01*
X82217825Y-118413387D01*
X82332112Y-118399541D01*
X82472830Y-118387511D01*
X82643574Y-118377170D01*
X82847943Y-118368394D01*
X83089532Y-118361057D01*
X83371940Y-118355032D01*
X83698762Y-118350195D01*
X84073595Y-118346419D01*
X84500037Y-118343578D01*
X84981685Y-118341547D01*
X85522135Y-118340200D01*
X86124984Y-118339412D01*
X86793829Y-118339056D01*
X87532267Y-118339007D01*
X88343896Y-118339139D01*
X89232311Y-118339326D01*
X90201110Y-118339443D01*
X90395213Y-118339447D01*
X91380287Y-118339347D01*
X92284292Y-118339135D01*
X93110824Y-118338945D01*
X93863482Y-118338911D01*
X94545861Y-118339166D01*
G36*
X105171617Y-118344373D02*
G01*
X105880537Y-118345016D01*
X106661090Y-118346008D01*
X107516901Y-118347248D01*
X108451596Y-118348634D01*
X109046199Y-118349486D01*
X117001713Y-118360614D01*
X117222429Y-118460417D01*
X117449050Y-118599971D01*
X117657673Y-118795581D01*
X117823313Y-119020999D01*
X117894209Y-119166139D01*
X117904044Y-119193450D01*
X117913052Y-119224607D01*
X117921268Y-119263269D01*
X117928730Y-119313095D01*
X117935472Y-119377744D01*
X117941532Y-119460875D01*
X117946946Y-119566148D01*
X117951751Y-119697221D01*
X117955982Y-119857754D01*
X117959676Y-120051406D01*
X117962869Y-120281835D01*
X117965599Y-120552702D01*
X117967900Y-120867664D01*
X117969810Y-121230382D01*
X117971365Y-121644515D01*
X117972601Y-122113720D01*
X117973554Y-122641659D01*
X117974262Y-123231989D01*
X117974759Y-123888371D01*
X117975083Y-124614462D01*
X117975271Y-125413922D01*
X117975357Y-126290411D01*
X117975380Y-127247587D01*
X117975380Y-127335280D01*
X117975419Y-128312759D01*
X117975472Y-129209209D01*
X117975442Y-130028269D01*
X117975232Y-130773576D01*
X117974746Y-131448770D01*
X117973885Y-132057487D01*
X117972555Y-132603366D01*
X117970657Y-133090046D01*
X117968095Y-133521164D01*
X117964771Y-133900358D01*
X117960590Y-134231267D01*
X117955454Y-134517528D01*
X117949266Y-134762780D01*
X117941930Y-134970660D01*
X117933348Y-135144808D01*
X117923424Y-135288861D01*
X117912061Y-135406456D01*
X117899162Y-135501233D01*
X117884631Y-135576830D01*
X117868369Y-135636883D01*
X117850281Y-135685033D01*
X117830269Y-135724916D01*
X117808237Y-135760170D01*
X117784088Y-135794435D01*
X117757725Y-135831347D01*
X117748828Y-135844280D01*
X117604371Y-136007562D01*
X117410541Y-136161381D01*
X117201306Y-136281349D01*
X117072719Y-136329737D01*
X117007632Y-136335813D01*
X116857941Y-136341394D01*
X116623707Y-136346480D01*
X116304992Y-136351071D01*
X115901857Y-136355167D01*
X115414364Y-136358767D01*
X114842574Y-136361871D01*
X114186548Y-136364478D01*
X113446347Y-136366589D01*
X112622034Y-136368203D01*
X111713668Y-136369319D01*
X110721313Y-136369938D01*
X109645028Y-136370059D01*
X108894880Y-136369869D01*
X107914608Y-136369428D01*
X107015493Y-136368878D01*
X106194027Y-136368191D01*
X105446700Y-136367338D01*
X104770004Y-136366291D01*
X104160428Y-136365021D01*
X103614465Y-136363499D01*
X103128605Y-136361699D01*
X102699340Y-136359590D01*
X102323159Y-136357145D01*
X101996554Y-136354334D01*
X101716016Y-136351131D01*
X101478036Y-136347506D01*
X101279104Y-136343431D01*
X101115712Y-136338877D01*
X100984350Y-136333816D01*
X100881510Y-136328219D01*
X100803683Y-136322059D01*
X100747359Y-136315306D01*
X100709029Y-136307933D01*
X100693837Y-136303424D01*
X100492664Y-136198411D01*
X100292544Y-136036240D01*
X100118720Y-135840889D01*
X100000046Y-135644443D01*
X99899047Y-135420947D01*
X99887846Y-127483447D01*
X99886505Y-126392451D01*
X99885685Y-125384892D01*
X99885391Y-124459541D01*
X99885627Y-123615170D01*
X99886400Y-122850549D01*
X99887713Y-122164452D01*
X99889572Y-121555648D01*
X99891983Y-121022911D01*
X99894950Y-120565010D01*
X99898478Y-120180718D01*
X99902573Y-119868807D01*
X99907239Y-119628047D01*
X99912482Y-119457210D01*
X99918307Y-119355068D01*
X99921772Y-119327668D01*
X100015001Y-119062509D01*
X100172323Y-118815920D01*
X100374366Y-118617140D01*
X100409220Y-118591951D01*
X100451528Y-118561734D01*
X100489317Y-118534005D01*
X100526214Y-118508661D01*
X100565844Y-118485601D01*
X100611834Y-118464723D01*
X100667810Y-118445925D01*
X100737398Y-118429106D01*
X100824225Y-118414164D01*
X100931917Y-118400996D01*
X101064099Y-118389502D01*
X101224399Y-118379578D01*
X101416443Y-118371125D01*
X101643856Y-118364039D01*
X101910265Y-118358219D01*
X102219296Y-118353563D01*
X102574575Y-118349969D01*
X102979729Y-118347336D01*
X103438384Y-118345562D01*
X103954167Y-118344545D01*
X104530702Y-118344182D01*
X105171617Y-118344373D01*
X105171617Y-118344373D01*
G37*
X105171617Y-118344373D02*
X105880537Y-118345016D01*
X106661090Y-118346008D01*
X107516901Y-118347248D01*
X108451596Y-118348634D01*
X109046199Y-118349486D01*
X117001713Y-118360614D01*
X117222429Y-118460417D01*
X117449050Y-118599971D01*
X117657673Y-118795581D01*
X117823313Y-119020999D01*
X117894209Y-119166139D01*
X117904044Y-119193450D01*
X117913052Y-119224607D01*
X117921268Y-119263269D01*
X117928730Y-119313095D01*
X117935472Y-119377744D01*
X117941532Y-119460875D01*
X117946946Y-119566148D01*
X117951751Y-119697221D01*
X117955982Y-119857754D01*
X117959676Y-120051406D01*
X117962869Y-120281835D01*
X117965599Y-120552702D01*
X117967900Y-120867664D01*
X117969810Y-121230382D01*
X117971365Y-121644515D01*
X117972601Y-122113720D01*
X117973554Y-122641659D01*
X117974262Y-123231989D01*
X117974759Y-123888371D01*
X117975083Y-124614462D01*
X117975271Y-125413922D01*
X117975357Y-126290411D01*
X117975380Y-127247587D01*
X117975380Y-127335280D01*
X117975419Y-128312759D01*
X117975472Y-129209209D01*
X117975442Y-130028269D01*
X117975232Y-130773576D01*
X117974746Y-131448770D01*
X117973885Y-132057487D01*
X117972555Y-132603366D01*
X117970657Y-133090046D01*
X117968095Y-133521164D01*
X117964771Y-133900358D01*
X117960590Y-134231267D01*
X117955454Y-134517528D01*
X117949266Y-134762780D01*
X117941930Y-134970660D01*
X117933348Y-135144808D01*
X117923424Y-135288861D01*
X117912061Y-135406456D01*
X117899162Y-135501233D01*
X117884631Y-135576830D01*
X117868369Y-135636883D01*
X117850281Y-135685033D01*
X117830269Y-135724916D01*
X117808237Y-135760170D01*
X117784088Y-135794435D01*
X117757725Y-135831347D01*
X117748828Y-135844280D01*
X117604371Y-136007562D01*
X117410541Y-136161381D01*
X117201306Y-136281349D01*
X117072719Y-136329737D01*
X117007632Y-136335813D01*
X116857941Y-136341394D01*
X116623707Y-136346480D01*
X116304992Y-136351071D01*
X115901857Y-136355167D01*
X115414364Y-136358767D01*
X114842574Y-136361871D01*
X114186548Y-136364478D01*
X113446347Y-136366589D01*
X112622034Y-136368203D01*
X111713668Y-136369319D01*
X110721313Y-136369938D01*
X109645028Y-136370059D01*
X108894880Y-136369869D01*
X107914608Y-136369428D01*
X107015493Y-136368878D01*
X106194027Y-136368191D01*
X105446700Y-136367338D01*
X104770004Y-136366291D01*
X104160428Y-136365021D01*
X103614465Y-136363499D01*
X103128605Y-136361699D01*
X102699340Y-136359590D01*
X102323159Y-136357145D01*
X101996554Y-136354334D01*
X101716016Y-136351131D01*
X101478036Y-136347506D01*
X101279104Y-136343431D01*
X101115712Y-136338877D01*
X100984350Y-136333816D01*
X100881510Y-136328219D01*
X100803683Y-136322059D01*
X100747359Y-136315306D01*
X100709029Y-136307933D01*
X100693837Y-136303424D01*
X100492664Y-136198411D01*
X100292544Y-136036240D01*
X100118720Y-135840889D01*
X100000046Y-135644443D01*
X99899047Y-135420947D01*
X99887846Y-127483447D01*
X99886505Y-126392451D01*
X99885685Y-125384892D01*
X99885391Y-124459541D01*
X99885627Y-123615170D01*
X99886400Y-122850549D01*
X99887713Y-122164452D01*
X99889572Y-121555648D01*
X99891983Y-121022911D01*
X99894950Y-120565010D01*
X99898478Y-120180718D01*
X99902573Y-119868807D01*
X99907239Y-119628047D01*
X99912482Y-119457210D01*
X99918307Y-119355068D01*
X99921772Y-119327668D01*
X100015001Y-119062509D01*
X100172323Y-118815920D01*
X100374366Y-118617140D01*
X100409220Y-118591951D01*
X100451528Y-118561734D01*
X100489317Y-118534005D01*
X100526214Y-118508661D01*
X100565844Y-118485601D01*
X100611834Y-118464723D01*
X100667810Y-118445925D01*
X100737398Y-118429106D01*
X100824225Y-118414164D01*
X100931917Y-118400996D01*
X101064099Y-118389502D01*
X101224399Y-118379578D01*
X101416443Y-118371125D01*
X101643856Y-118364039D01*
X101910265Y-118358219D01*
X102219296Y-118353563D01*
X102574575Y-118349969D01*
X102979729Y-118347336D01*
X103438384Y-118345562D01*
X103954167Y-118344545D01*
X104530702Y-118344182D01*
X105171617Y-118344373D01*
G36*
X147809676Y-83664528D02*
G01*
X148161665Y-83777781D01*
X148495932Y-83970080D01*
X148679824Y-84114527D01*
X148861934Y-84271467D01*
X148836380Y-87668947D01*
X148726266Y-87903712D01*
X148566088Y-88179137D01*
X148366570Y-88398800D01*
X148120923Y-88565962D01*
X147822360Y-88683882D01*
X147464089Y-88755821D01*
X147039324Y-88785037D01*
X146889047Y-88785902D01*
X146672961Y-88781315D01*
X146472496Y-88771622D01*
X146311607Y-88758302D01*
X146221639Y-88744719D01*
X146077422Y-88699530D01*
X145922587Y-88635320D01*
X145892318Y-88620480D01*
X145722405Y-88533797D01*
X145878763Y-88249538D01*
X145974539Y-88076002D01*
X146041730Y-87965096D01*
X146094060Y-87906113D01*
X146145253Y-87888347D01*
X146209035Y-87901091D01*
X146288600Y-87929817D01*
X146416276Y-87963203D01*
X146594320Y-87993198D01*
X146788461Y-88014260D01*
X146827882Y-88017018D01*
X147174546Y-88015786D01*
X147454959Y-87963877D01*
X147671557Y-87860115D01*
X147826777Y-87703323D01*
X147923057Y-87492325D01*
X147924350Y-87487716D01*
X147963885Y-87332121D01*
X147968619Y-87244997D01*
X147929314Y-87214101D01*
X147836731Y-87227187D01*
X147746873Y-87252507D01*
X147498638Y-87298527D01*
X147213299Y-87307937D01*
X146923205Y-87282785D01*
X146660701Y-87225118D01*
X146529213Y-87175443D01*
X146210448Y-86983405D01*
X145953531Y-86734145D01*
X145760018Y-86429885D01*
X145631468Y-86072846D01*
X145585513Y-85829296D01*
X145571384Y-85514539D01*
X146490167Y-85514539D01*
X146505412Y-85785893D01*
X146528252Y-85887514D01*
X146606138Y-86066931D01*
X146729534Y-86246431D01*
X146875874Y-86398003D01*
X147013349Y-86489610D01*
X147159705Y-86525911D01*
X147352818Y-86534256D01*
X147560100Y-86516237D01*
X147748965Y-86473443D01*
X147809797Y-86450728D01*
X147968547Y-86382100D01*
X147968547Y-84614087D01*
X147856304Y-84554017D01*
X147740508Y-84518829D01*
X147562510Y-84498173D01*
X147419296Y-84493947D01*
X147239835Y-84498172D01*
X147115224Y-84515278D01*
X147015878Y-84551909D01*
X146927709Y-84604343D01*
X146756280Y-84764701D01*
X146621968Y-84983489D01*
X146531141Y-85240253D01*
X146490167Y-85514539D01*
X145571384Y-85514539D01*
X145566581Y-85407550D01*
X145620896Y-85015291D01*
X145743088Y-84658928D01*
X145927786Y-84344874D01*
X146169620Y-84079536D01*
X146463218Y-83869326D01*
X146803211Y-83720653D01*
X147184227Y-83639927D01*
X147430880Y-83626775D01*
X147809676Y-83664528D01*
X147809676Y-83664528D01*
G37*
X147809676Y-83664528D02*
X148161665Y-83777781D01*
X148495932Y-83970080D01*
X148679824Y-84114527D01*
X148861934Y-84271467D01*
X148836380Y-87668947D01*
X148726266Y-87903712D01*
X148566088Y-88179137D01*
X148366570Y-88398800D01*
X148120923Y-88565962D01*
X147822360Y-88683882D01*
X147464089Y-88755821D01*
X147039324Y-88785037D01*
X146889047Y-88785902D01*
X146672961Y-88781315D01*
X146472496Y-88771622D01*
X146311607Y-88758302D01*
X146221639Y-88744719D01*
X146077422Y-88699530D01*
X145922587Y-88635320D01*
X145892318Y-88620480D01*
X145722405Y-88533797D01*
X145878763Y-88249538D01*
X145974539Y-88076002D01*
X146041730Y-87965096D01*
X146094060Y-87906113D01*
X146145253Y-87888347D01*
X146209035Y-87901091D01*
X146288600Y-87929817D01*
X146416276Y-87963203D01*
X146594320Y-87993198D01*
X146788461Y-88014260D01*
X146827882Y-88017018D01*
X147174546Y-88015786D01*
X147454959Y-87963877D01*
X147671557Y-87860115D01*
X147826777Y-87703323D01*
X147923057Y-87492325D01*
X147924350Y-87487716D01*
X147963885Y-87332121D01*
X147968619Y-87244997D01*
X147929314Y-87214101D01*
X147836731Y-87227187D01*
X147746873Y-87252507D01*
X147498638Y-87298527D01*
X147213299Y-87307937D01*
X146923205Y-87282785D01*
X146660701Y-87225118D01*
X146529213Y-87175443D01*
X146210448Y-86983405D01*
X145953531Y-86734145D01*
X145760018Y-86429885D01*
X145631468Y-86072846D01*
X145585513Y-85829296D01*
X145571384Y-85514539D01*
X146490167Y-85514539D01*
X146505412Y-85785893D01*
X146528252Y-85887514D01*
X146606138Y-86066931D01*
X146729534Y-86246431D01*
X146875874Y-86398003D01*
X147013349Y-86489610D01*
X147159705Y-86525911D01*
X147352818Y-86534256D01*
X147560100Y-86516237D01*
X147748965Y-86473443D01*
X147809797Y-86450728D01*
X147968547Y-86382100D01*
X147968547Y-84614087D01*
X147856304Y-84554017D01*
X147740508Y-84518829D01*
X147562510Y-84498173D01*
X147419296Y-84493947D01*
X147239835Y-84498172D01*
X147115224Y-84515278D01*
X147015878Y-84551909D01*
X146927709Y-84604343D01*
X146756280Y-84764701D01*
X146621968Y-84983489D01*
X146531141Y-85240253D01*
X146490167Y-85514539D01*
X145571384Y-85514539D01*
X145566581Y-85407550D01*
X145620896Y-85015291D01*
X145743088Y-84658928D01*
X145927786Y-84344874D01*
X146169620Y-84079536D01*
X146463218Y-83869326D01*
X146803211Y-83720653D01*
X147184227Y-83639927D01*
X147430880Y-83626775D01*
X147809676Y-83664528D01*
G36*
X137562721Y-83654089D02*
G01*
X137926811Y-83782939D01*
X137956713Y-83797381D01*
X138106703Y-83876985D01*
X138240146Y-83957349D01*
X138315748Y-84011382D01*
X138420783Y-84100032D01*
X138231082Y-84266681D01*
X138098844Y-84380822D01*
X137967633Y-84490899D01*
X137904523Y-84542193D01*
X137767666Y-84651054D01*
X137569182Y-84519584D01*
X137338011Y-84411784D01*
X137100415Y-84381109D01*
X136869390Y-84422276D01*
X136657934Y-84530000D01*
X136479043Y-84698998D01*
X136345715Y-84923987D01*
X136306757Y-85032805D01*
X136270447Y-85213891D01*
X136249369Y-85441427D01*
X136244175Y-85683359D01*
X136255523Y-85907630D01*
X136284066Y-86082184D01*
X136285225Y-86086427D01*
X136395691Y-86334523D01*
X136569919Y-86533599D01*
X136796553Y-86673701D01*
X137031192Y-86740433D01*
X137204974Y-86735139D01*
X137402812Y-86681873D01*
X137589021Y-86592652D01*
X137689535Y-86518717D01*
X137728387Y-86491659D01*
X137771840Y-86490477D01*
X137834458Y-86522739D01*
X137930807Y-86596016D01*
X138075452Y-86717876D01*
X138079587Y-86721417D01*
X138212779Y-86840163D01*
X138315939Y-86941086D01*
X138375581Y-87010475D01*
X138384779Y-87031682D01*
X138336609Y-87092655D01*
X138229701Y-87173123D01*
X138084030Y-87261396D01*
X137919573Y-87345789D01*
X137756306Y-87414614D01*
X137694350Y-87435618D01*
X137353453Y-87503824D01*
X136991543Y-87511837D01*
X136647320Y-87458935D01*
X136633825Y-87455369D01*
X136272100Y-87318002D01*
X135964985Y-87116862D01*
X135714763Y-86854735D01*
X135523715Y-86534408D01*
X135394122Y-86158667D01*
X135343035Y-85879078D01*
X135323899Y-85438126D01*
X135382338Y-85030777D01*
X135518661Y-84656021D01*
X135733175Y-84312846D01*
X135868165Y-84154586D01*
X136153929Y-83908073D01*
X136477175Y-83732901D01*
X136826995Y-83630936D01*
X137192479Y-83604044D01*
X137562721Y-83654089D01*
X137562721Y-83654089D01*
G37*
X137562721Y-83654089D02*
X137926811Y-83782939D01*
X137956713Y-83797381D01*
X138106703Y-83876985D01*
X138240146Y-83957349D01*
X138315748Y-84011382D01*
X138420783Y-84100032D01*
X138231082Y-84266681D01*
X138098844Y-84380822D01*
X137967633Y-84490899D01*
X137904523Y-84542193D01*
X137767666Y-84651054D01*
X137569182Y-84519584D01*
X137338011Y-84411784D01*
X137100415Y-84381109D01*
X136869390Y-84422276D01*
X136657934Y-84530000D01*
X136479043Y-84698998D01*
X136345715Y-84923987D01*
X136306757Y-85032805D01*
X136270447Y-85213891D01*
X136249369Y-85441427D01*
X136244175Y-85683359D01*
X136255523Y-85907630D01*
X136284066Y-86082184D01*
X136285225Y-86086427D01*
X136395691Y-86334523D01*
X136569919Y-86533599D01*
X136796553Y-86673701D01*
X137031192Y-86740433D01*
X137204974Y-86735139D01*
X137402812Y-86681873D01*
X137589021Y-86592652D01*
X137689535Y-86518717D01*
X137728387Y-86491659D01*
X137771840Y-86490477D01*
X137834458Y-86522739D01*
X137930807Y-86596016D01*
X138075452Y-86717876D01*
X138079587Y-86721417D01*
X138212779Y-86840163D01*
X138315939Y-86941086D01*
X138375581Y-87010475D01*
X138384779Y-87031682D01*
X138336609Y-87092655D01*
X138229701Y-87173123D01*
X138084030Y-87261396D01*
X137919573Y-87345789D01*
X137756306Y-87414614D01*
X137694350Y-87435618D01*
X137353453Y-87503824D01*
X136991543Y-87511837D01*
X136647320Y-87458935D01*
X136633825Y-87455369D01*
X136272100Y-87318002D01*
X135964985Y-87116862D01*
X135714763Y-86854735D01*
X135523715Y-86534408D01*
X135394122Y-86158667D01*
X135343035Y-85879078D01*
X135323899Y-85438126D01*
X135382338Y-85030777D01*
X135518661Y-84656021D01*
X135733175Y-84312846D01*
X135868165Y-84154586D01*
X136153929Y-83908073D01*
X136477175Y-83732901D01*
X136826995Y-83630936D01*
X137192479Y-83604044D01*
X137562721Y-83654089D01*
G36*
X139722952Y-82543134D02*
G01*
X139740312Y-82582398D01*
X139751220Y-82663446D01*
X139758046Y-82798894D01*
X139763159Y-83001361D01*
X139765241Y-83103248D01*
X139777047Y-83689614D01*
X140507297Y-83701196D01*
X141237547Y-83712779D01*
X141237547Y-84472780D01*
X139748723Y-84472780D01*
X139762885Y-85400773D01*
X139767733Y-85703812D01*
X139772698Y-85933919D01*
X139779130Y-86102819D01*
X139788380Y-86222238D01*
X139801800Y-86303901D01*
X139820741Y-86359533D01*
X139846555Y-86400861D01*
X139880592Y-86439609D01*
X139882880Y-86442060D01*
X139991885Y-86536349D01*
X140126736Y-86625357D01*
X140154609Y-86640406D01*
X140311209Y-86693972D01*
X140494148Y-86701868D01*
X140718326Y-86663139D01*
X140965437Y-86588395D01*
X141094542Y-86545985D01*
X141185853Y-86519796D01*
X141216978Y-86515254D01*
X141229250Y-86558454D01*
X141255419Y-86664979D01*
X141290811Y-86815550D01*
X141308579Y-86892888D01*
X141392306Y-87259830D01*
X141283176Y-87310234D01*
X141025527Y-87402795D01*
X140727599Y-87468004D01*
X140420569Y-87501847D01*
X140135610Y-87500310D01*
X139976966Y-87478431D01*
X139690894Y-87380068D01*
X139424222Y-87217763D01*
X139195547Y-87006956D01*
X139023471Y-86763085D01*
X138966896Y-86640015D01*
X138948603Y-86585153D01*
X138933317Y-86519777D01*
X138920689Y-86435827D01*
X138910372Y-86325239D01*
X138902015Y-86179950D01*
X138895270Y-85991898D01*
X138889789Y-85753020D01*
X138885223Y-85455253D01*
X138881223Y-85090535D01*
X138877440Y-84650803D01*
X138876689Y-84554549D01*
X138862159Y-82667818D01*
X139213770Y-82614953D01*
X139389022Y-82587616D01*
X139541399Y-82562084D01*
X139643996Y-82542915D01*
X139659407Y-82539485D01*
X139696774Y-82533036D01*
X139722952Y-82543134D01*
X139722952Y-82543134D01*
G37*
X139722952Y-82543134D02*
X139740312Y-82582398D01*
X139751220Y-82663446D01*
X139758046Y-82798894D01*
X139763159Y-83001361D01*
X139765241Y-83103248D01*
X139777047Y-83689614D01*
X140507297Y-83701196D01*
X141237547Y-83712779D01*
X141237547Y-84472780D01*
X139748723Y-84472780D01*
X139762885Y-85400773D01*
X139767733Y-85703812D01*
X139772698Y-85933919D01*
X139779130Y-86102819D01*
X139788380Y-86222238D01*
X139801800Y-86303901D01*
X139820741Y-86359533D01*
X139846555Y-86400861D01*
X139880592Y-86439609D01*
X139882880Y-86442060D01*
X139991885Y-86536349D01*
X140126736Y-86625357D01*
X140154609Y-86640406D01*
X140311209Y-86693972D01*
X140494148Y-86701868D01*
X140718326Y-86663139D01*
X140965437Y-86588395D01*
X141094542Y-86545985D01*
X141185853Y-86519796D01*
X141216978Y-86515254D01*
X141229250Y-86558454D01*
X141255419Y-86664979D01*
X141290811Y-86815550D01*
X141308579Y-86892888D01*
X141392306Y-87259830D01*
X141283176Y-87310234D01*
X141025527Y-87402795D01*
X140727599Y-87468004D01*
X140420569Y-87501847D01*
X140135610Y-87500310D01*
X139976966Y-87478431D01*
X139690894Y-87380068D01*
X139424222Y-87217763D01*
X139195547Y-87006956D01*
X139023471Y-86763085D01*
X138966896Y-86640015D01*
X138948603Y-86585153D01*
X138933317Y-86519777D01*
X138920689Y-86435827D01*
X138910372Y-86325239D01*
X138902015Y-86179950D01*
X138895270Y-85991898D01*
X138889789Y-85753020D01*
X138885223Y-85455253D01*
X138881223Y-85090535D01*
X138877440Y-84650803D01*
X138876689Y-84554549D01*
X138862159Y-82667818D01*
X139213770Y-82614953D01*
X139389022Y-82587616D01*
X139541399Y-82562084D01*
X139643996Y-82542915D01*
X139659407Y-82539485D01*
X139696774Y-82533036D01*
X139722952Y-82543134D01*
G36*
X143452467Y-83648822D02*
G01*
X143632457Y-83654842D01*
X143764216Y-83667427D01*
X143865948Y-83688668D01*
X143955852Y-83720652D01*
X143994395Y-83737760D01*
X144259125Y-83899838D01*
X144477732Y-84113550D01*
X144629736Y-84356717D01*
X144658500Y-84422768D01*
X144681165Y-84486197D01*
X144698456Y-84557656D01*
X144711100Y-84647799D01*
X144719823Y-84767277D01*
X144725353Y-84926745D01*
X144728415Y-85136854D01*
X144729736Y-85408258D01*
X144730043Y-85751609D01*
X144730047Y-85827447D01*
X144730047Y-87076280D01*
X144412547Y-87234395D01*
X144223730Y-87320432D01*
X144024107Y-87398797D01*
X143854441Y-87453591D01*
X143842736Y-87456645D01*
X143627895Y-87493399D01*
X143365266Y-87512119D01*
X143089917Y-87512191D01*
X142836915Y-87492998D01*
X142730630Y-87476158D01*
X142399791Y-87376809D01*
X142129337Y-87223152D01*
X141922776Y-87018693D01*
X141783613Y-86766940D01*
X141715354Y-86471399D01*
X141714208Y-86459387D01*
X141713139Y-86319872D01*
X142629900Y-86319872D01*
X142681301Y-86497800D01*
X142755739Y-86602454D01*
X142869048Y-86667613D01*
X143041930Y-86710006D01*
X143252025Y-86728218D01*
X143476976Y-86720832D01*
X143694426Y-86686433D01*
X143768502Y-86666576D01*
X143907623Y-86624199D01*
X143895502Y-86236406D01*
X143883380Y-85848614D01*
X143469644Y-85836485D01*
X143166621Y-85841372D01*
X142937224Y-85877469D01*
X142775579Y-85946872D01*
X142675809Y-86051675D01*
X142643558Y-86131070D01*
X142629900Y-86319872D01*
X141713139Y-86319872D01*
X141711670Y-86128308D01*
X141771337Y-85850550D01*
X141896169Y-85618947D01*
X142089127Y-85426337D01*
X142162684Y-85373794D01*
X142359593Y-85257460D01*
X142557016Y-85175505D01*
X142775590Y-85122999D01*
X143035950Y-85095013D01*
X143358730Y-85086616D01*
X143364802Y-85086614D01*
X143595338Y-85086259D01*
X143752727Y-85080804D01*
X143848477Y-85063659D01*
X143894095Y-85028236D01*
X143901090Y-84967946D01*
X143880967Y-84876201D01*
X143860519Y-84802789D01*
X143771604Y-84631570D01*
X143619317Y-84503849D01*
X143416268Y-84425780D01*
X143175072Y-84403514D01*
X143061166Y-84412840D01*
X142915346Y-84442056D01*
X142781788Y-84495813D01*
X142630764Y-84587687D01*
X142543261Y-84649369D01*
X142512376Y-84668002D01*
X142479000Y-84670925D01*
X142432406Y-84650881D01*
X142361869Y-84600614D01*
X142256661Y-84512867D01*
X142106056Y-84380384D01*
X141981577Y-84269379D01*
X141815442Y-84120989D01*
X141939244Y-84017842D01*
X142041848Y-83945952D01*
X142188815Y-83859034D01*
X142338213Y-83780988D01*
X142450766Y-83727882D01*
X142545100Y-83691101D01*
X142640657Y-83667649D01*
X142756882Y-83654531D01*
X142913218Y-83648751D01*
X143129108Y-83647313D01*
X143206047Y-83647280D01*
X143452467Y-83648822D01*
X143452467Y-83648822D01*
G37*
X143452467Y-83648822D02*
X143632457Y-83654842D01*
X143764216Y-83667427D01*
X143865948Y-83688668D01*
X143955852Y-83720652D01*
X143994395Y-83737760D01*
X144259125Y-83899838D01*
X144477732Y-84113550D01*
X144629736Y-84356717D01*
X144658500Y-84422768D01*
X144681165Y-84486197D01*
X144698456Y-84557656D01*
X144711100Y-84647799D01*
X144719823Y-84767277D01*
X144725353Y-84926745D01*
X144728415Y-85136854D01*
X144729736Y-85408258D01*
X144730043Y-85751609D01*
X144730047Y-85827447D01*
X144730047Y-87076280D01*
X144412547Y-87234395D01*
X144223730Y-87320432D01*
X144024107Y-87398797D01*
X143854441Y-87453591D01*
X143842736Y-87456645D01*
X143627895Y-87493399D01*
X143365266Y-87512119D01*
X143089917Y-87512191D01*
X142836915Y-87492998D01*
X142730630Y-87476158D01*
X142399791Y-87376809D01*
X142129337Y-87223152D01*
X141922776Y-87018693D01*
X141783613Y-86766940D01*
X141715354Y-86471399D01*
X141714208Y-86459387D01*
X141713139Y-86319872D01*
X142629900Y-86319872D01*
X142681301Y-86497800D01*
X142755739Y-86602454D01*
X142869048Y-86667613D01*
X143041930Y-86710006D01*
X143252025Y-86728218D01*
X143476976Y-86720832D01*
X143694426Y-86686433D01*
X143768502Y-86666576D01*
X143907623Y-86624199D01*
X143895502Y-86236406D01*
X143883380Y-85848614D01*
X143469644Y-85836485D01*
X143166621Y-85841372D01*
X142937224Y-85877469D01*
X142775579Y-85946872D01*
X142675809Y-86051675D01*
X142643558Y-86131070D01*
X142629900Y-86319872D01*
X141713139Y-86319872D01*
X141711670Y-86128308D01*
X141771337Y-85850550D01*
X141896169Y-85618947D01*
X142089127Y-85426337D01*
X142162684Y-85373794D01*
X142359593Y-85257460D01*
X142557016Y-85175505D01*
X142775590Y-85122999D01*
X143035950Y-85095013D01*
X143358730Y-85086616D01*
X143364802Y-85086614D01*
X143595338Y-85086259D01*
X143752727Y-85080804D01*
X143848477Y-85063659D01*
X143894095Y-85028236D01*
X143901090Y-84967946D01*
X143880967Y-84876201D01*
X143860519Y-84802789D01*
X143771604Y-84631570D01*
X143619317Y-84503849D01*
X143416268Y-84425780D01*
X143175072Y-84403514D01*
X143061166Y-84412840D01*
X142915346Y-84442056D01*
X142781788Y-84495813D01*
X142630764Y-84587687D01*
X142543261Y-84649369D01*
X142512376Y-84668002D01*
X142479000Y-84670925D01*
X142432406Y-84650881D01*
X142361869Y-84600614D01*
X142256661Y-84512867D01*
X142106056Y-84380384D01*
X141981577Y-84269379D01*
X141815442Y-84120989D01*
X141939244Y-84017842D01*
X142041848Y-83945952D01*
X142188815Y-83859034D01*
X142338213Y-83780988D01*
X142450766Y-83727882D01*
X142545100Y-83691101D01*
X142640657Y-83667649D01*
X142756882Y-83654531D01*
X142913218Y-83648751D01*
X143129108Y-83647313D01*
X143206047Y-83647280D01*
X143452467Y-83648822D01*
D11*
X156586879Y-52113780D03*
X152448972Y-102861361D03*
D12*
X123095708Y-102872256D03*
X93797524Y-102824916D03*
X64462586Y-102840381D03*
X141962972Y-72861114D03*
X67427950Y-126351504D03*
D13*
X62977886Y-145868120D03*
X71930285Y-145869240D03*
D14*
X81945483Y-145867220D03*
X90928445Y-145858820D03*
X104436940Y-145869250D03*
X113423879Y-145869230D03*
X126932477Y-132861453D03*
X135925237Y-132867885D03*
X144937733Y-132869548D03*
X153931059Y-132873256D03*
X126948918Y-145858640D03*
X135941670Y-145865070D03*
X144954167Y-145866730D03*
X153947499Y-145870440D03*
D15*
X156586879Y-40113780D03*
X60186879Y-162613780D03*
X156586879Y-162613780D03*
X60186879Y-40113780D03*
M02*
