G04 #@! TF.GenerationSoftware,KiCad,Pcbnew,(5.1.2)-1*
G04 #@! TF.CreationDate,2019-05-15T15:41:14+02:00*
G04 #@! TF.ProjectId,frontplate-ctag,66726f6e-7470-46c6-9174-652d63746167,rev?*
G04 #@! TF.SameCoordinates,Original*
G04 #@! TF.FileFunction,Profile,NP*
%FSLAX46Y46*%
G04 Gerber Fmt 4.6, Leading zero omitted, Abs format (unit mm)*
G04 Created by KiCad (PCBNEW (5.1.2)-1) date 2019-05-15 15:41:14*
%MOMM*%
%LPD*%
G04 APERTURE LIST*
%ADD10C,0.100000*%
G04 APERTURE END LIST*
D10*
X65346919Y-51899120D02*
X65346919Y-86900320D01*
X65346919Y-86900320D02*
X65346919Y-51899120D01*
X65346919Y-86900320D02*
X112347079Y-86900320D01*
X112347079Y-86900320D02*
X65346919Y-86900320D01*
X112347079Y-86900320D02*
X112347079Y-51899120D01*
X112347079Y-51899120D02*
X112347079Y-86900320D01*
X112347079Y-51899120D02*
X65346919Y-51899120D01*
X65346919Y-51899120D02*
X112347079Y-51899120D01*
X92844959Y-115899500D02*
X77846259Y-115899500D01*
X77846259Y-115899500D02*
X92844959Y-115899500D01*
X76845499Y-116900260D02*
X76845499Y-131898960D01*
X76845499Y-131898960D02*
X76845499Y-116900260D01*
X77846259Y-132899720D02*
X92844959Y-132899720D01*
X92844959Y-132899720D02*
X77846259Y-132899720D01*
X93845719Y-131898960D02*
X93845719Y-116900260D01*
X93845719Y-116900260D02*
X93845719Y-131898960D01*
X93847243Y-116900768D02*
X93847243Y-116894301D01*
X93847243Y-116894301D02*
X93847192Y-116887842D01*
X93847192Y-116887842D02*
X93847091Y-116881395D01*
X93847091Y-116881395D02*
X93846938Y-116874957D01*
X93846938Y-116874957D02*
X93846761Y-116868530D01*
X93846761Y-116868530D02*
X93846532Y-116862112D01*
X93846532Y-116862112D02*
X93846268Y-116855706D01*
X93846268Y-116855706D02*
X93845966Y-116849308D01*
X93845966Y-116849308D02*
X93845620Y-116842922D01*
X93845620Y-116842922D02*
X93845237Y-116836547D01*
X93845237Y-116836547D02*
X93844812Y-116830181D01*
X93844812Y-116830181D02*
X93844350Y-116823829D01*
X93844350Y-116823829D02*
X93843847Y-116817484D01*
X93843847Y-116817484D02*
X93843306Y-116811154D01*
X93843306Y-116811154D02*
X93842725Y-116804832D01*
X93842725Y-116804832D02*
X93842102Y-116798525D01*
X93842102Y-116798525D02*
X93841444Y-116792226D01*
X93841444Y-116792226D02*
X93840746Y-116785942D01*
X93840746Y-116785942D02*
X93840007Y-116779666D01*
X93840007Y-116779666D02*
X93839232Y-116773405D01*
X93839232Y-116773405D02*
X93838417Y-116767154D01*
X93838417Y-116767154D02*
X93837563Y-116760918D01*
X93837563Y-116760918D02*
X93836672Y-116754693D01*
X93836672Y-116754693D02*
X93835745Y-116748477D01*
X93835745Y-116748477D02*
X93834777Y-116742277D01*
X93834777Y-116742277D02*
X93833771Y-116736090D01*
X93833771Y-116736090D02*
X93832727Y-116729915D01*
X93832727Y-116729915D02*
X93831648Y-116723753D01*
X93831648Y-116723753D02*
X93830527Y-116717604D01*
X93830527Y-116717604D02*
X93829372Y-116711467D01*
X93829372Y-116711467D02*
X93828181Y-116705343D01*
X93828181Y-116705343D02*
X93826949Y-116699234D01*
X93826949Y-116699234D02*
X93825681Y-116693138D01*
X93825681Y-116693138D02*
X93824378Y-116687055D01*
X93824378Y-116687055D02*
X93823037Y-116680987D01*
X93823037Y-116680987D02*
X93821658Y-116674932D01*
X93821658Y-116674932D02*
X93820246Y-116668891D01*
X93820246Y-116668891D02*
X93818793Y-116662864D01*
X93818793Y-116662864D02*
X93817307Y-116656852D01*
X93817307Y-116656852D02*
X93815783Y-116650852D01*
X93815783Y-116650852D02*
X93814223Y-116644871D01*
X93814223Y-116644871D02*
X93812628Y-116638902D01*
X93812628Y-116638902D02*
X93810997Y-116632945D01*
X93810997Y-116632945D02*
X93809331Y-116627007D01*
X93809331Y-116627007D02*
X93807627Y-116621081D01*
X93807627Y-116621081D02*
X93805889Y-116615173D01*
X93805889Y-116615173D02*
X93804117Y-116609278D01*
X93804117Y-116609278D02*
X93802308Y-116603400D01*
X93802308Y-116603400D02*
X93798584Y-116591688D01*
X93798584Y-116591688D02*
X93794724Y-116580040D01*
X93794724Y-116580040D02*
X93790723Y-116568455D01*
X93790723Y-116568455D02*
X93786585Y-116556936D01*
X93786585Y-116556936D02*
X93782311Y-116545480D01*
X93782311Y-116545480D02*
X93777901Y-116534094D01*
X93777901Y-116534094D02*
X93773357Y-116522775D01*
X93773357Y-116522775D02*
X93768681Y-116511523D01*
X93768681Y-116511523D02*
X93763870Y-116500342D01*
X93763870Y-116500342D02*
X93758930Y-116489232D01*
X93758930Y-116489232D02*
X93753858Y-116478193D01*
X93753858Y-116478193D02*
X93748656Y-116467228D01*
X93748656Y-116467228D02*
X93743324Y-116456337D01*
X93743324Y-116456337D02*
X93737866Y-116445519D01*
X93737866Y-116445519D02*
X93732280Y-116434775D01*
X93732280Y-116434775D02*
X93726570Y-116424109D01*
X93726570Y-116424109D02*
X93720736Y-116413522D01*
X93720736Y-116413522D02*
X93714777Y-116403012D01*
X93714777Y-116403012D02*
X93708696Y-116392583D01*
X93708696Y-116392583D02*
X93702491Y-116382232D01*
X93702491Y-116382232D02*
X93696169Y-116371965D01*
X93696169Y-116371965D02*
X93689725Y-116361780D01*
X93689725Y-116361780D02*
X93683162Y-116351678D01*
X93683162Y-116351678D02*
X93676482Y-116341661D01*
X93676482Y-116341661D02*
X93669685Y-116331729D01*
X93669685Y-116331729D02*
X93662771Y-116321882D01*
X93662771Y-116321882D02*
X93655742Y-116312123D01*
X93655742Y-116312123D02*
X93648600Y-116302453D01*
X93648600Y-116302453D02*
X93641346Y-116292872D01*
X93641346Y-116292872D02*
X93633980Y-116283383D01*
X93633980Y-116283383D02*
X93626502Y-116273985D01*
X93626502Y-116273985D02*
X93618915Y-116264678D01*
X93618915Y-116264678D02*
X93611219Y-116255463D01*
X93611219Y-116255463D02*
X93603413Y-116246345D01*
X93603413Y-116246345D02*
X93595501Y-116237320D01*
X93595501Y-116237320D02*
X93587485Y-116228392D01*
X93587485Y-116228392D02*
X93579362Y-116219563D01*
X93579362Y-116219563D02*
X93571135Y-116210830D01*
X93571135Y-116210830D02*
X93562804Y-116202197D01*
X93562804Y-116202197D02*
X93554374Y-116193662D01*
X93554374Y-116193662D02*
X93545839Y-116185232D01*
X93545839Y-116185232D02*
X93537206Y-116176901D01*
X93537206Y-116176901D02*
X93528473Y-116168674D01*
X93528473Y-116168674D02*
X93519644Y-116160551D01*
X93519644Y-116160551D02*
X93510716Y-116152535D01*
X93510716Y-116152535D02*
X93501691Y-116144623D01*
X93501691Y-116144623D02*
X93492573Y-116136817D01*
X93492573Y-116136817D02*
X93483358Y-116129121D01*
X93483358Y-116129121D02*
X93474051Y-116121534D01*
X93474051Y-116121534D02*
X93464653Y-116114056D01*
X93464653Y-116114056D02*
X93455164Y-116106690D01*
X93455164Y-116106690D02*
X93445583Y-116099436D01*
X93445583Y-116099436D02*
X93435913Y-116092294D01*
X93435913Y-116092294D02*
X93426154Y-116085265D01*
X93426154Y-116085265D02*
X93416307Y-116078352D01*
X93416307Y-116078352D02*
X93406375Y-116071555D01*
X93406375Y-116071555D02*
X93396358Y-116064874D01*
X93396358Y-116064874D02*
X93386256Y-116058311D01*
X93386256Y-116058311D02*
X93376071Y-116051867D01*
X93376071Y-116051867D02*
X93365804Y-116045545D01*
X93365804Y-116045545D02*
X93355454Y-116039340D01*
X93355454Y-116039340D02*
X93345024Y-116033259D01*
X93345024Y-116033259D02*
X93334514Y-116027300D01*
X93334514Y-116027300D02*
X93323927Y-116021466D01*
X93323927Y-116021466D02*
X93313262Y-116015756D01*
X93313262Y-116015756D02*
X93302517Y-116010170D01*
X93302517Y-116010170D02*
X93291700Y-116004712D01*
X93291700Y-116004712D02*
X93280808Y-115999380D01*
X93280808Y-115999380D02*
X93269843Y-115994178D01*
X93269843Y-115994178D02*
X93258804Y-115989106D01*
X93258804Y-115989106D02*
X93247694Y-115984166D01*
X93247694Y-115984166D02*
X93236513Y-115979355D01*
X93236513Y-115979355D02*
X93225261Y-115974679D01*
X93225261Y-115974679D02*
X93213942Y-115970135D01*
X93213942Y-115970135D02*
X93202556Y-115965725D01*
X93202556Y-115965725D02*
X93191100Y-115961451D01*
X93191100Y-115961451D02*
X93179581Y-115957313D01*
X93179581Y-115957313D02*
X93167996Y-115953312D01*
X93167996Y-115953312D02*
X93156348Y-115949452D01*
X93156348Y-115949452D02*
X93144636Y-115945728D01*
X93144636Y-115945728D02*
X93138758Y-115943920D01*
X93138758Y-115943920D02*
X93132863Y-115942147D01*
X93132863Y-115942147D02*
X93126955Y-115940409D01*
X93126955Y-115940409D02*
X93121029Y-115938705D01*
X93121029Y-115938705D02*
X93115091Y-115937039D01*
X93115091Y-115937039D02*
X93109134Y-115935408D01*
X93109134Y-115935408D02*
X93103165Y-115933813D01*
X93103165Y-115933813D02*
X93097184Y-115932253D01*
X93097184Y-115932253D02*
X93091184Y-115930729D01*
X93091184Y-115930729D02*
X93085172Y-115929243D01*
X93085172Y-115929243D02*
X93079145Y-115927791D01*
X93079145Y-115927791D02*
X93073105Y-115926378D01*
X93073105Y-115926378D02*
X93067049Y-115924999D01*
X93067049Y-115924999D02*
X93060981Y-115923658D01*
X93060981Y-115923658D02*
X93054898Y-115922355D01*
X93054898Y-115922355D02*
X93048802Y-115921087D01*
X93048802Y-115921087D02*
X93042693Y-115919856D01*
X93042693Y-115919856D02*
X93036569Y-115918664D01*
X93036569Y-115918664D02*
X93030433Y-115917509D01*
X93030433Y-115917509D02*
X93024283Y-115916388D01*
X93024283Y-115916388D02*
X93018121Y-115915309D01*
X93018121Y-115915309D02*
X93011946Y-115914265D01*
X93011946Y-115914265D02*
X93005759Y-115913259D01*
X93005759Y-115913259D02*
X92999559Y-115912291D01*
X92999559Y-115912291D02*
X92993343Y-115911364D01*
X92993343Y-115911364D02*
X92987118Y-115910473D01*
X92987118Y-115910473D02*
X92980882Y-115909619D01*
X92980882Y-115909619D02*
X92974631Y-115908804D01*
X92974631Y-115908804D02*
X92968370Y-115908029D01*
X92968370Y-115908029D02*
X92962094Y-115907290D01*
X92962094Y-115907290D02*
X92955810Y-115906592D01*
X92955810Y-115906592D02*
X92949511Y-115905934D01*
X92949511Y-115905934D02*
X92943204Y-115905312D01*
X92943204Y-115905312D02*
X92936882Y-115904730D01*
X92936882Y-115904730D02*
X92930552Y-115904189D01*
X92930552Y-115904189D02*
X92924207Y-115903686D01*
X92924207Y-115903686D02*
X92917855Y-115903224D01*
X92917855Y-115903224D02*
X92911489Y-115902799D01*
X92911489Y-115902799D02*
X92905114Y-115902416D01*
X92905114Y-115902416D02*
X92898728Y-115902070D01*
X92898728Y-115902070D02*
X92892330Y-115901768D01*
X92892330Y-115901768D02*
X92885924Y-115901504D01*
X92885924Y-115901504D02*
X92879506Y-115901275D01*
X92879506Y-115901275D02*
X92873080Y-115901098D01*
X92873080Y-115901098D02*
X92866641Y-115900945D01*
X92866641Y-115900945D02*
X92860194Y-115900844D01*
X92860194Y-115900844D02*
X92853735Y-115900793D01*
X92853735Y-115900793D02*
X92847268Y-115900793D01*
X92847245Y-132900736D02*
X92853712Y-132900736D01*
X92853712Y-132900736D02*
X92860171Y-132900685D01*
X92860171Y-132900685D02*
X92866618Y-132900584D01*
X92866618Y-132900584D02*
X92873057Y-132900431D01*
X92873057Y-132900431D02*
X92879483Y-132900253D01*
X92879483Y-132900253D02*
X92885901Y-132900025D01*
X92885901Y-132900025D02*
X92892307Y-132899761D01*
X92892307Y-132899761D02*
X92898706Y-132899458D01*
X92898706Y-132899458D02*
X92905091Y-132899113D01*
X92905091Y-132899113D02*
X92911467Y-132898729D01*
X92911467Y-132898729D02*
X92917832Y-132898305D01*
X92917832Y-132898305D02*
X92924184Y-132897843D01*
X92924184Y-132897843D02*
X92930529Y-132897340D01*
X92930529Y-132897340D02*
X92936859Y-132896799D01*
X92936859Y-132896799D02*
X92943181Y-132896217D01*
X92943181Y-132896217D02*
X92949488Y-132895595D01*
X92949488Y-132895595D02*
X92955787Y-132894937D01*
X92955787Y-132894937D02*
X92962071Y-132894239D01*
X92962071Y-132894239D02*
X92968347Y-132893500D01*
X92968347Y-132893500D02*
X92974608Y-132892725D01*
X92974608Y-132892725D02*
X92980859Y-132891910D01*
X92980859Y-132891910D02*
X92987095Y-132891056D01*
X92987095Y-132891056D02*
X92993321Y-132890165D01*
X92993321Y-132890165D02*
X92999536Y-132889237D01*
X92999536Y-132889237D02*
X93005736Y-132888270D01*
X93005736Y-132888270D02*
X93011924Y-132887264D01*
X93011924Y-132887264D02*
X93018098Y-132886220D01*
X93018098Y-132886220D02*
X93024260Y-132885140D01*
X93024260Y-132885140D02*
X93030410Y-132884020D01*
X93030410Y-132884020D02*
X93036546Y-132882865D01*
X93036546Y-132882865D02*
X93042670Y-132881673D01*
X93042670Y-132881673D02*
X93048779Y-132880441D01*
X93048779Y-132880441D02*
X93054875Y-132879174D01*
X93054875Y-132879174D02*
X93060958Y-132877871D01*
X93060958Y-132877871D02*
X93067026Y-132876530D01*
X93067026Y-132876530D02*
X93073082Y-132875151D01*
X93073082Y-132875151D02*
X93079122Y-132873738D01*
X93079122Y-132873738D02*
X93085149Y-132872285D01*
X93085149Y-132872285D02*
X93091161Y-132870800D01*
X93091161Y-132870800D02*
X93097161Y-132869276D01*
X93097161Y-132869276D02*
X93103143Y-132867716D01*
X93103143Y-132867716D02*
X93109112Y-132866121D01*
X93109112Y-132866121D02*
X93115068Y-132864490D01*
X93115068Y-132864490D02*
X93121006Y-132862824D01*
X93121006Y-132862824D02*
X93126932Y-132861120D01*
X93126932Y-132861120D02*
X93132840Y-132859382D01*
X93132840Y-132859382D02*
X93138736Y-132857609D01*
X93138736Y-132857609D02*
X93144613Y-132855801D01*
X93144613Y-132855801D02*
X93156325Y-132852077D01*
X93156325Y-132852077D02*
X93167974Y-132848216D01*
X93167974Y-132848216D02*
X93179559Y-132844216D01*
X93179559Y-132844216D02*
X93191077Y-132840078D01*
X93191077Y-132840078D02*
X93202533Y-132835803D01*
X93202533Y-132835803D02*
X93213920Y-132831394D01*
X93213920Y-132831394D02*
X93225238Y-132826850D01*
X93225238Y-132826850D02*
X93236490Y-132822174D01*
X93236490Y-132822174D02*
X93247671Y-132817363D01*
X93247671Y-132817363D02*
X93258781Y-132812423D01*
X93258781Y-132812423D02*
X93269820Y-132807350D01*
X93269820Y-132807350D02*
X93280785Y-132802148D01*
X93280785Y-132802148D02*
X93291677Y-132796817D01*
X93291677Y-132796817D02*
X93302495Y-132791359D01*
X93302495Y-132791359D02*
X93313239Y-132785773D01*
X93313239Y-132785773D02*
X93323904Y-132780063D01*
X93323904Y-132780063D02*
X93334491Y-132774229D01*
X93334491Y-132774229D02*
X93345001Y-132768270D01*
X93345001Y-132768270D02*
X93355431Y-132762189D01*
X93355431Y-132762189D02*
X93365781Y-132755984D01*
X93365781Y-132755984D02*
X93376048Y-132749662D01*
X93376048Y-132749662D02*
X93386233Y-132743218D01*
X93386233Y-132743218D02*
X93396335Y-132736655D01*
X93396335Y-132736655D02*
X93406353Y-132729974D01*
X93406353Y-132729974D02*
X93416284Y-132723177D01*
X93416284Y-132723177D02*
X93426132Y-132716263D01*
X93426132Y-132716263D02*
X93435890Y-132709235D01*
X93435890Y-132709235D02*
X93445560Y-132702093D01*
X93445560Y-132702093D02*
X93455141Y-132694839D01*
X93455141Y-132694839D02*
X93464630Y-132687473D01*
X93464630Y-132687473D02*
X93474028Y-132679995D01*
X93474028Y-132679995D02*
X93483335Y-132672408D01*
X93483335Y-132672408D02*
X93492550Y-132664712D01*
X93492550Y-132664712D02*
X93501669Y-132656906D01*
X93501669Y-132656906D02*
X93510693Y-132648994D01*
X93510693Y-132648994D02*
X93519621Y-132640978D01*
X93519621Y-132640978D02*
X93528450Y-132632855D01*
X93528450Y-132632855D02*
X93537183Y-132624628D01*
X93537183Y-132624628D02*
X93545816Y-132616297D01*
X93545816Y-132616297D02*
X93554351Y-132607866D01*
X93554351Y-132607866D02*
X93562781Y-132599332D01*
X93562781Y-132599332D02*
X93571112Y-132590699D01*
X93571112Y-132590699D02*
X93579339Y-132581966D01*
X93579339Y-132581966D02*
X93587462Y-132573137D01*
X93587462Y-132573137D02*
X93595478Y-132564209D01*
X93595478Y-132564209D02*
X93603391Y-132555184D01*
X93603391Y-132555184D02*
X93611196Y-132546066D01*
X93611196Y-132546066D02*
X93618892Y-132536851D01*
X93618892Y-132536851D02*
X93626479Y-132527544D01*
X93626479Y-132527544D02*
X93633957Y-132518146D01*
X93633957Y-132518146D02*
X93641323Y-132508657D01*
X93641323Y-132508657D02*
X93648577Y-132499076D01*
X93648577Y-132499076D02*
X93655720Y-132489406D01*
X93655720Y-132489406D02*
X93662748Y-132479647D01*
X93662748Y-132479647D02*
X93669662Y-132469800D01*
X93669662Y-132469800D02*
X93676459Y-132459868D01*
X93676459Y-132459868D02*
X93683139Y-132449850D01*
X93683139Y-132449850D02*
X93689702Y-132439749D01*
X93689702Y-132439749D02*
X93696146Y-132429563D01*
X93696146Y-132429563D02*
X93702468Y-132419297D01*
X93702468Y-132419297D02*
X93708674Y-132408946D01*
X93708674Y-132408946D02*
X93714754Y-132398517D01*
X93714754Y-132398517D02*
X93720713Y-132388007D01*
X93720713Y-132388007D02*
X93726548Y-132377420D01*
X93726548Y-132377420D02*
X93732257Y-132366754D01*
X93732257Y-132366754D02*
X93737843Y-132356010D01*
X93737843Y-132356010D02*
X93743301Y-132345192D01*
X93743301Y-132345192D02*
X93748633Y-132334301D01*
X93748633Y-132334301D02*
X93753835Y-132323336D01*
X93753835Y-132323336D02*
X93758907Y-132312297D01*
X93758907Y-132312297D02*
X93763847Y-132301187D01*
X93763847Y-132301187D02*
X93768658Y-132290006D01*
X93768658Y-132290006D02*
X93773334Y-132278754D01*
X93773334Y-132278754D02*
X93777878Y-132267435D01*
X93777878Y-132267435D02*
X93782288Y-132256048D01*
X93782288Y-132256048D02*
X93786563Y-132244593D01*
X93786563Y-132244593D02*
X93790700Y-132233074D01*
X93790700Y-132233074D02*
X93794701Y-132221489D01*
X93794701Y-132221489D02*
X93798562Y-132209841D01*
X93798562Y-132209841D02*
X93802285Y-132198129D01*
X93802285Y-132198129D02*
X93804094Y-132192251D01*
X93804094Y-132192251D02*
X93805867Y-132186356D01*
X93805867Y-132186356D02*
X93807604Y-132180448D01*
X93807604Y-132180448D02*
X93809308Y-132174522D01*
X93809308Y-132174522D02*
X93810975Y-132168584D01*
X93810975Y-132168584D02*
X93812605Y-132162627D01*
X93812605Y-132162627D02*
X93814200Y-132156658D01*
X93814200Y-132156658D02*
X93815760Y-132150677D01*
X93815760Y-132150677D02*
X93817284Y-132144677D01*
X93817284Y-132144677D02*
X93818770Y-132138665D01*
X93818770Y-132138665D02*
X93820223Y-132132637D01*
X93820223Y-132132637D02*
X93821635Y-132126597D01*
X93821635Y-132126597D02*
X93823014Y-132120542D01*
X93823014Y-132120542D02*
X93824355Y-132114474D01*
X93824355Y-132114474D02*
X93825658Y-132108391D01*
X93825658Y-132108391D02*
X93826926Y-132102295D01*
X93826926Y-132102295D02*
X93828158Y-132096186D01*
X93828158Y-132096186D02*
X93829349Y-132090062D01*
X93829349Y-132090062D02*
X93830505Y-132083925D01*
X93830505Y-132083925D02*
X93831625Y-132077776D01*
X93831625Y-132077776D02*
X93832704Y-132071614D01*
X93832704Y-132071614D02*
X93833748Y-132065439D01*
X93833748Y-132065439D02*
X93834754Y-132059252D01*
X93834754Y-132059252D02*
X93835722Y-132053052D01*
X93835722Y-132053052D02*
X93836649Y-132046836D01*
X93836649Y-132046836D02*
X93837540Y-132040611D01*
X93837540Y-132040611D02*
X93838394Y-132034375D01*
X93838394Y-132034375D02*
X93839209Y-132028124D01*
X93839209Y-132028124D02*
X93839984Y-132021863D01*
X93839984Y-132021863D02*
X93840723Y-132015587D01*
X93840723Y-132015587D02*
X93841422Y-132009303D01*
X93841422Y-132009303D02*
X93842079Y-132003003D01*
X93842079Y-132003003D02*
X93842702Y-131996697D01*
X93842702Y-131996697D02*
X93843283Y-131990375D01*
X93843283Y-131990375D02*
X93843824Y-131984045D01*
X93843824Y-131984045D02*
X93844327Y-131977700D01*
X93844327Y-131977700D02*
X93844790Y-131971347D01*
X93844790Y-131971347D02*
X93845214Y-131964982D01*
X93845214Y-131964982D02*
X93845597Y-131958607D01*
X93845597Y-131958607D02*
X93845943Y-131952221D01*
X93845943Y-131952221D02*
X93846245Y-131945823D01*
X93846245Y-131945823D02*
X93846509Y-131939417D01*
X93846509Y-131939417D02*
X93846738Y-131932999D01*
X93846738Y-131932999D02*
X93846916Y-131926572D01*
X93846916Y-131926572D02*
X93847068Y-131920133D01*
X93847068Y-131920133D02*
X93847170Y-131913687D01*
X93847170Y-131913687D02*
X93847220Y-131907228D01*
X93847220Y-131907228D02*
X93847220Y-131900761D01*
X77847275Y-115900770D02*
X77840808Y-115900770D01*
X77840808Y-115900770D02*
X77834349Y-115900821D01*
X77834349Y-115900821D02*
X77827903Y-115900922D01*
X77827903Y-115900922D02*
X77821464Y-115901075D01*
X77821464Y-115901075D02*
X77815038Y-115901253D01*
X77815038Y-115901253D02*
X77808619Y-115901481D01*
X77808619Y-115901481D02*
X77802213Y-115901745D01*
X77802213Y-115901745D02*
X77795815Y-115902048D01*
X77795815Y-115902048D02*
X77789429Y-115902393D01*
X77789429Y-115902393D02*
X77783054Y-115902777D01*
X77783054Y-115902777D02*
X77776689Y-115903201D01*
X77776689Y-115903201D02*
X77770336Y-115903663D01*
X77770336Y-115903663D02*
X77763991Y-115904166D01*
X77763991Y-115904166D02*
X77757661Y-115904707D01*
X77757661Y-115904707D02*
X77751339Y-115905289D01*
X77751339Y-115905289D02*
X77745033Y-115905911D01*
X77745033Y-115905911D02*
X77738733Y-115906569D01*
X77738733Y-115906569D02*
X77732449Y-115907267D01*
X77732449Y-115907267D02*
X77726173Y-115908006D01*
X77726173Y-115908006D02*
X77719912Y-115908781D01*
X77719912Y-115908781D02*
X77713661Y-115909596D01*
X77713661Y-115909596D02*
X77707425Y-115910450D01*
X77707425Y-115910450D02*
X77701200Y-115911341D01*
X77701200Y-115911341D02*
X77694984Y-115912269D01*
X77694984Y-115912269D02*
X77688784Y-115913236D01*
X77688784Y-115913236D02*
X77682597Y-115914242D01*
X77682597Y-115914242D02*
X77676422Y-115915286D01*
X77676422Y-115915286D02*
X77670260Y-115916366D01*
X77670260Y-115916366D02*
X77664111Y-115917486D01*
X77664111Y-115917486D02*
X77657974Y-115918641D01*
X77657974Y-115918641D02*
X77651850Y-115919833D01*
X77651850Y-115919833D02*
X77645741Y-115921065D01*
X77645741Y-115921065D02*
X77639645Y-115922332D01*
X77639645Y-115922332D02*
X77633562Y-115923635D01*
X77633562Y-115923635D02*
X77627494Y-115924976D01*
X77627494Y-115924976D02*
X77621439Y-115926355D01*
X77621439Y-115926355D02*
X77615399Y-115927768D01*
X77615399Y-115927768D02*
X77609371Y-115929221D01*
X77609371Y-115929221D02*
X77603359Y-115930706D01*
X77603359Y-115930706D02*
X77597360Y-115932230D01*
X77597360Y-115932230D02*
X77591378Y-115933790D01*
X77591378Y-115933790D02*
X77585409Y-115935385D01*
X77585409Y-115935385D02*
X77579453Y-115937016D01*
X77579453Y-115937016D02*
X77573514Y-115938682D01*
X77573514Y-115938682D02*
X77567588Y-115940386D01*
X77567588Y-115940386D02*
X77561680Y-115942124D01*
X77561680Y-115942124D02*
X77555785Y-115943897D01*
X77555785Y-115943897D02*
X77549907Y-115945705D01*
X77549907Y-115945705D02*
X77538195Y-115949429D01*
X77538195Y-115949429D02*
X77526547Y-115953290D01*
X77526547Y-115953290D02*
X77514962Y-115957290D01*
X77514962Y-115957290D02*
X77503443Y-115961428D01*
X77503443Y-115961428D02*
X77491988Y-115965703D01*
X77491988Y-115965703D02*
X77480601Y-115970112D01*
X77480601Y-115970112D02*
X77469283Y-115974656D01*
X77469283Y-115974656D02*
X77458030Y-115979332D01*
X77458030Y-115979332D02*
X77446849Y-115984143D01*
X77446849Y-115984143D02*
X77435739Y-115989083D01*
X77435739Y-115989083D02*
X77424701Y-115994156D01*
X77424701Y-115994156D02*
X77413735Y-115999358D01*
X77413735Y-115999358D02*
X77402844Y-116004689D01*
X77402844Y-116004689D02*
X77392026Y-116010147D01*
X77392026Y-116010147D02*
X77381282Y-116015733D01*
X77381282Y-116015733D02*
X77370616Y-116021443D01*
X77370616Y-116021443D02*
X77360030Y-116027277D01*
X77360030Y-116027277D02*
X77349519Y-116033236D01*
X77349519Y-116033236D02*
X77339090Y-116039317D01*
X77339090Y-116039317D02*
X77328739Y-116045522D01*
X77328739Y-116045522D02*
X77318473Y-116051844D01*
X77318473Y-116051844D02*
X77308287Y-116058288D01*
X77308287Y-116058288D02*
X77298186Y-116064851D01*
X77298186Y-116064851D02*
X77288168Y-116071532D01*
X77288168Y-116071532D02*
X77278236Y-116078329D01*
X77278236Y-116078329D02*
X77268389Y-116085243D01*
X77268389Y-116085243D02*
X77258630Y-116092271D01*
X77258630Y-116092271D02*
X77248960Y-116099413D01*
X77248960Y-116099413D02*
X77239380Y-116106667D01*
X77239380Y-116106667D02*
X77229890Y-116114033D01*
X77229890Y-116114033D02*
X77220492Y-116121511D01*
X77220492Y-116121511D02*
X77211186Y-116129098D01*
X77211186Y-116129098D02*
X77201970Y-116136794D01*
X77201970Y-116136794D02*
X77192852Y-116144600D01*
X77192852Y-116144600D02*
X77183827Y-116152512D01*
X77183827Y-116152512D02*
X77174899Y-116160528D01*
X77174899Y-116160528D02*
X77166070Y-116168651D01*
X77166070Y-116168651D02*
X77157338Y-116176878D01*
X77157338Y-116176878D02*
X77148704Y-116185209D01*
X77148704Y-116185209D02*
X77140170Y-116193640D01*
X77140170Y-116193640D02*
X77131739Y-116202174D01*
X77131739Y-116202174D02*
X77123408Y-116210807D01*
X77123408Y-116210807D02*
X77115181Y-116219540D01*
X77115181Y-116219540D02*
X77107058Y-116228369D01*
X77107058Y-116228369D02*
X77099042Y-116237297D01*
X77099042Y-116237297D02*
X77091130Y-116246322D01*
X77091130Y-116246322D02*
X77083325Y-116255440D01*
X77083325Y-116255440D02*
X77075628Y-116264655D01*
X77075628Y-116264655D02*
X77068041Y-116273962D01*
X77068041Y-116273962D02*
X77060564Y-116283360D01*
X77060564Y-116283360D02*
X77053198Y-116292849D01*
X77053198Y-116292849D02*
X77045943Y-116302430D01*
X77045943Y-116302430D02*
X77038801Y-116312100D01*
X77038801Y-116312100D02*
X77031773Y-116321859D01*
X77031773Y-116321859D02*
X77024859Y-116331706D01*
X77024859Y-116331706D02*
X77018062Y-116341638D01*
X77018062Y-116341638D02*
X77011382Y-116351656D01*
X77011382Y-116351656D02*
X77004818Y-116361757D01*
X77004818Y-116361757D02*
X76998374Y-116371943D01*
X76998374Y-116371943D02*
X76992052Y-116382209D01*
X76992052Y-116382209D02*
X76985847Y-116392560D01*
X76985847Y-116392560D02*
X76979766Y-116402989D01*
X76979766Y-116402989D02*
X76973807Y-116413499D01*
X76973807Y-116413499D02*
X76967973Y-116424086D01*
X76967973Y-116424086D02*
X76962263Y-116434752D01*
X76962263Y-116434752D02*
X76956678Y-116445496D01*
X76956678Y-116445496D02*
X76951219Y-116456314D01*
X76951219Y-116456314D02*
X76945888Y-116467205D01*
X76945888Y-116467205D02*
X76940686Y-116478170D01*
X76940686Y-116478170D02*
X76935613Y-116489209D01*
X76935613Y-116489209D02*
X76930673Y-116500319D01*
X76930673Y-116500319D02*
X76925862Y-116511500D01*
X76925862Y-116511500D02*
X76921186Y-116522752D01*
X76921186Y-116522752D02*
X76916642Y-116534071D01*
X76916642Y-116534071D02*
X76912233Y-116545458D01*
X76912233Y-116545458D02*
X76907958Y-116556913D01*
X76907958Y-116556913D02*
X76903820Y-116568432D01*
X76903820Y-116568432D02*
X76899820Y-116580017D01*
X76899820Y-116580017D02*
X76895959Y-116591665D01*
X76895959Y-116591665D02*
X76892235Y-116603377D01*
X76892235Y-116603377D02*
X76890427Y-116609255D01*
X76890427Y-116609255D02*
X76888654Y-116615150D01*
X76888654Y-116615150D02*
X76886916Y-116621058D01*
X76886916Y-116621058D02*
X76885212Y-116626984D01*
X76885212Y-116626984D02*
X76883546Y-116632922D01*
X76883546Y-116632922D02*
X76881915Y-116638879D01*
X76881915Y-116638879D02*
X76880320Y-116644848D01*
X76880320Y-116644848D02*
X76878761Y-116650829D01*
X76878761Y-116650829D02*
X76877237Y-116656829D01*
X76877237Y-116656829D02*
X76875751Y-116662841D01*
X76875751Y-116662841D02*
X76874298Y-116668869D01*
X76874298Y-116668869D02*
X76872886Y-116674909D01*
X76872886Y-116674909D02*
X76871506Y-116680964D01*
X76871506Y-116680964D02*
X76870165Y-116687032D01*
X76870165Y-116687032D02*
X76868862Y-116693115D01*
X76868862Y-116693115D02*
X76867595Y-116699211D01*
X76867595Y-116699211D02*
X76866363Y-116705320D01*
X76866363Y-116705320D02*
X76865172Y-116711444D01*
X76865172Y-116711444D02*
X76864016Y-116717581D01*
X76864016Y-116717581D02*
X76862896Y-116723730D01*
X76862896Y-116723730D02*
X76861816Y-116729892D01*
X76861816Y-116729892D02*
X76860772Y-116736067D01*
X76860772Y-116736067D02*
X76859766Y-116742254D01*
X76859766Y-116742254D02*
X76858799Y-116748454D01*
X76858799Y-116748454D02*
X76857872Y-116754670D01*
X76857872Y-116754670D02*
X76856980Y-116760895D01*
X76856980Y-116760895D02*
X76856127Y-116767131D01*
X76856127Y-116767131D02*
X76855311Y-116773382D01*
X76855311Y-116773382D02*
X76854537Y-116779643D01*
X76854537Y-116779643D02*
X76853797Y-116785919D01*
X76853797Y-116785919D02*
X76853099Y-116792203D01*
X76853099Y-116792203D02*
X76852441Y-116798503D01*
X76852441Y-116798503D02*
X76851819Y-116804809D01*
X76851819Y-116804809D02*
X76851237Y-116811131D01*
X76851237Y-116811131D02*
X76850696Y-116817461D01*
X76850696Y-116817461D02*
X76850193Y-116823806D01*
X76850193Y-116823806D02*
X76849731Y-116830159D01*
X76849731Y-116830159D02*
X76849307Y-116836524D01*
X76849307Y-116836524D02*
X76848923Y-116842899D01*
X76848923Y-116842899D02*
X76848578Y-116849285D01*
X76848578Y-116849285D02*
X76848275Y-116855683D01*
X76848275Y-116855683D02*
X76848011Y-116862089D01*
X76848011Y-116862089D02*
X76847783Y-116868507D01*
X76847783Y-116868507D02*
X76847605Y-116874934D01*
X76847605Y-116874934D02*
X76847452Y-116881373D01*
X76847452Y-116881373D02*
X76847351Y-116887819D01*
X76847351Y-116887819D02*
X76847300Y-116894278D01*
X76847300Y-116894278D02*
X76847300Y-116900745D01*
X76847277Y-131900738D02*
X76847277Y-131907205D01*
X76847277Y-131907205D02*
X76847328Y-131913664D01*
X76847328Y-131913664D02*
X76847430Y-131920111D01*
X76847430Y-131920111D02*
X76847582Y-131926549D01*
X76847582Y-131926549D02*
X76847760Y-131932976D01*
X76847760Y-131932976D02*
X76847988Y-131939394D01*
X76847988Y-131939394D02*
X76848253Y-131945800D01*
X76848253Y-131945800D02*
X76848555Y-131952198D01*
X76848555Y-131952198D02*
X76848900Y-131958584D01*
X76848900Y-131958584D02*
X76849284Y-131964959D01*
X76849284Y-131964959D02*
X76849708Y-131971325D01*
X76849708Y-131971325D02*
X76850170Y-131977677D01*
X76850170Y-131977677D02*
X76850673Y-131984022D01*
X76850673Y-131984022D02*
X76851214Y-131990352D01*
X76851214Y-131990352D02*
X76851796Y-131996674D01*
X76851796Y-131996674D02*
X76852418Y-132002981D01*
X76852418Y-132002981D02*
X76853076Y-132009280D01*
X76853076Y-132009280D02*
X76853775Y-132015564D01*
X76853775Y-132015564D02*
X76854514Y-132021840D01*
X76854514Y-132021840D02*
X76855288Y-132028101D01*
X76855288Y-132028101D02*
X76856104Y-132034352D01*
X76856104Y-132034352D02*
X76856957Y-132040588D01*
X76856957Y-132040588D02*
X76857849Y-132046813D01*
X76857849Y-132046813D02*
X76858776Y-132053029D01*
X76858776Y-132053029D02*
X76859744Y-132059229D01*
X76859744Y-132059229D02*
X76860749Y-132065416D01*
X76860749Y-132065416D02*
X76861793Y-132071591D01*
X76861793Y-132071591D02*
X76862873Y-132077753D01*
X76862873Y-132077753D02*
X76863993Y-132083902D01*
X76863993Y-132083902D02*
X76865149Y-132090039D01*
X76865149Y-132090039D02*
X76866340Y-132096163D01*
X76866340Y-132096163D02*
X76867572Y-132102272D01*
X76867572Y-132102272D02*
X76868839Y-132108368D01*
X76868839Y-132108368D02*
X76870142Y-132114451D01*
X76870142Y-132114451D02*
X76871483Y-132120519D01*
X76871483Y-132120519D02*
X76872863Y-132126574D01*
X76872863Y-132126574D02*
X76874275Y-132132615D01*
X76874275Y-132132615D02*
X76875728Y-132138642D01*
X76875728Y-132138642D02*
X76877214Y-132144654D01*
X76877214Y-132144654D02*
X76878738Y-132150654D01*
X76878738Y-132150654D02*
X76880297Y-132156635D01*
X76880297Y-132156635D02*
X76881892Y-132162604D01*
X76881892Y-132162604D02*
X76883523Y-132168561D01*
X76883523Y-132168561D02*
X76885189Y-132174499D01*
X76885189Y-132174499D02*
X76886894Y-132180425D01*
X76886894Y-132180425D02*
X76888631Y-132186333D01*
X76888631Y-132186333D02*
X76890404Y-132192228D01*
X76890404Y-132192228D02*
X76892212Y-132198106D01*
X76892212Y-132198106D02*
X76895936Y-132209818D01*
X76895936Y-132209818D02*
X76899797Y-132221466D01*
X76899797Y-132221466D02*
X76903797Y-132233051D01*
X76903797Y-132233051D02*
X76907935Y-132244570D01*
X76907935Y-132244570D02*
X76912210Y-132256026D01*
X76912210Y-132256026D02*
X76916619Y-132267412D01*
X76916619Y-132267412D02*
X76921163Y-132278731D01*
X76921163Y-132278731D02*
X76925839Y-132289983D01*
X76925839Y-132289983D02*
X76930650Y-132301164D01*
X76930650Y-132301164D02*
X76935590Y-132312274D01*
X76935590Y-132312274D02*
X76940663Y-132323313D01*
X76940663Y-132323313D02*
X76945865Y-132334278D01*
X76945865Y-132334278D02*
X76951196Y-132345169D01*
X76951196Y-132345169D02*
X76956655Y-132355987D01*
X76956655Y-132355987D02*
X76962240Y-132366731D01*
X76962240Y-132366731D02*
X76967950Y-132377397D01*
X76967950Y-132377397D02*
X76973784Y-132387984D01*
X76973784Y-132387984D02*
X76979743Y-132398494D01*
X76979743Y-132398494D02*
X76985824Y-132408923D01*
X76985824Y-132408923D02*
X76992029Y-132419274D01*
X76992029Y-132419274D02*
X76998351Y-132429541D01*
X76998351Y-132429541D02*
X77004795Y-132439726D01*
X77004795Y-132439726D02*
X77011359Y-132449828D01*
X77011359Y-132449828D02*
X77018039Y-132459845D01*
X77018039Y-132459845D02*
X77024836Y-132469777D01*
X77024836Y-132469777D02*
X77031750Y-132479624D01*
X77031750Y-132479624D02*
X77038778Y-132489383D01*
X77038778Y-132489383D02*
X77045920Y-132499053D01*
X77045920Y-132499053D02*
X77053175Y-132508634D01*
X77053175Y-132508634D02*
X77060541Y-132518123D01*
X77060541Y-132518123D02*
X77068018Y-132527521D01*
X77068018Y-132527521D02*
X77075605Y-132536828D01*
X77075605Y-132536828D02*
X77083302Y-132546043D01*
X77083302Y-132546043D02*
X77091107Y-132555161D01*
X77091107Y-132555161D02*
X77099019Y-132564186D01*
X77099019Y-132564186D02*
X77107035Y-132573114D01*
X77107035Y-132573114D02*
X77115158Y-132581943D01*
X77115158Y-132581943D02*
X77123385Y-132590676D01*
X77123385Y-132590676D02*
X77131717Y-132599309D01*
X77131717Y-132599309D02*
X77140147Y-132607844D01*
X77140147Y-132607844D02*
X77148681Y-132616274D01*
X77148681Y-132616274D02*
X77157315Y-132624605D01*
X77157315Y-132624605D02*
X77166047Y-132632832D01*
X77166047Y-132632832D02*
X77174876Y-132640955D01*
X77174876Y-132640955D02*
X77183804Y-132648971D01*
X77183804Y-132648971D02*
X77192829Y-132656883D01*
X77192829Y-132656883D02*
X77201948Y-132664689D01*
X77201948Y-132664689D02*
X77211163Y-132672385D01*
X77211163Y-132672385D02*
X77220469Y-132679972D01*
X77220469Y-132679972D02*
X77229867Y-132687450D01*
X77229867Y-132687450D02*
X77239357Y-132694816D01*
X77239357Y-132694816D02*
X77248938Y-132702070D01*
X77248938Y-132702070D02*
X77258607Y-132709212D01*
X77258607Y-132709212D02*
X77268366Y-132716241D01*
X77268366Y-132716241D02*
X77278214Y-132723154D01*
X77278214Y-132723154D02*
X77288145Y-132729951D01*
X77288145Y-132729951D02*
X77298163Y-132736632D01*
X77298163Y-132736632D02*
X77308264Y-132743195D01*
X77308264Y-132743195D02*
X77318450Y-132749639D01*
X77318450Y-132749639D02*
X77328716Y-132755961D01*
X77328716Y-132755961D02*
X77339067Y-132762166D01*
X77339067Y-132762166D02*
X77349496Y-132768247D01*
X77349496Y-132768247D02*
X77360007Y-132774206D01*
X77360007Y-132774206D02*
X77370593Y-132780040D01*
X77370593Y-132780040D02*
X77381259Y-132785750D01*
X77381259Y-132785750D02*
X77392003Y-132791336D01*
X77392003Y-132791336D02*
X77402821Y-132796794D01*
X77402821Y-132796794D02*
X77413712Y-132802126D01*
X77413712Y-132802126D02*
X77424678Y-132807328D01*
X77424678Y-132807328D02*
X77435716Y-132812400D01*
X77435716Y-132812400D02*
X77446826Y-132817340D01*
X77446826Y-132817340D02*
X77458008Y-132822151D01*
X77458008Y-132822151D02*
X77469260Y-132826827D01*
X77469260Y-132826827D02*
X77480578Y-132831371D01*
X77480578Y-132831371D02*
X77491965Y-132835781D01*
X77491965Y-132835781D02*
X77503420Y-132840055D01*
X77503420Y-132840055D02*
X77514939Y-132844193D01*
X77514939Y-132844193D02*
X77526524Y-132848194D01*
X77526524Y-132848194D02*
X77538172Y-132852054D01*
X77538172Y-132852054D02*
X77549884Y-132855778D01*
X77549884Y-132855778D02*
X77555762Y-132857586D01*
X77555762Y-132857586D02*
X77561657Y-132859359D01*
X77561657Y-132859359D02*
X77567565Y-132861097D01*
X77567565Y-132861097D02*
X77573491Y-132862801D01*
X77573491Y-132862801D02*
X77579430Y-132864467D01*
X77579430Y-132864467D02*
X77585386Y-132866098D01*
X77585386Y-132866098D02*
X77591355Y-132867693D01*
X77591355Y-132867693D02*
X77597337Y-132869253D01*
X77597337Y-132869253D02*
X77603336Y-132870777D01*
X77603336Y-132870777D02*
X77609348Y-132872263D01*
X77609348Y-132872263D02*
X77615376Y-132873715D01*
X77615376Y-132873715D02*
X77621416Y-132875128D01*
X77621416Y-132875128D02*
X77627471Y-132876507D01*
X77627471Y-132876507D02*
X77633539Y-132877848D01*
X77633539Y-132877848D02*
X77639623Y-132879151D01*
X77639623Y-132879151D02*
X77645719Y-132880419D01*
X77645719Y-132880419D02*
X77651827Y-132881650D01*
X77651827Y-132881650D02*
X77657951Y-132882842D01*
X77657951Y-132882842D02*
X77664088Y-132883997D01*
X77664088Y-132883997D02*
X77670237Y-132885118D01*
X77670237Y-132885118D02*
X77676399Y-132886197D01*
X77676399Y-132886197D02*
X77682574Y-132887241D01*
X77682574Y-132887241D02*
X77688761Y-132888247D01*
X77688761Y-132888247D02*
X77694962Y-132889215D01*
X77694962Y-132889215D02*
X77701177Y-132890142D01*
X77701177Y-132890142D02*
X77707403Y-132891033D01*
X77707403Y-132891033D02*
X77713638Y-132891887D01*
X77713638Y-132891887D02*
X77719889Y-132892702D01*
X77719889Y-132892702D02*
X77726150Y-132893477D01*
X77726150Y-132893477D02*
X77732427Y-132894216D01*
X77732427Y-132894216D02*
X77738711Y-132894914D01*
X77738711Y-132894914D02*
X77745010Y-132895572D01*
X77745010Y-132895572D02*
X77751317Y-132896194D01*
X77751317Y-132896194D02*
X77757639Y-132896776D01*
X77757639Y-132896776D02*
X77763968Y-132897317D01*
X77763968Y-132897317D02*
X77770313Y-132897820D01*
X77770313Y-132897820D02*
X77776666Y-132898282D01*
X77776666Y-132898282D02*
X77783031Y-132898707D01*
X77783031Y-132898707D02*
X77789406Y-132899090D01*
X77789406Y-132899090D02*
X77795792Y-132899436D01*
X77795792Y-132899436D02*
X77802190Y-132899738D01*
X77802190Y-132899738D02*
X77808596Y-132900002D01*
X77808596Y-132900002D02*
X77815015Y-132900231D01*
X77815015Y-132900231D02*
X77821441Y-132900408D01*
X77821441Y-132900408D02*
X77827880Y-132900561D01*
X77827880Y-132900561D02*
X77834326Y-132900662D01*
X77834326Y-132900662D02*
X77840786Y-132900713D01*
X77840786Y-132900713D02*
X77847252Y-132900713D01*
X95346859Y-116900260D02*
X95346859Y-131898960D01*
X95346859Y-131898960D02*
X95346859Y-116900260D01*
X96345079Y-132899720D02*
X111346319Y-132899720D01*
X111346319Y-132899720D02*
X96345079Y-132899720D01*
X112347079Y-131898960D02*
X112347079Y-116900260D01*
X112347079Y-116900260D02*
X112347079Y-131898960D01*
X111346319Y-115899500D02*
X96345079Y-115899500D01*
X96345079Y-115899500D02*
X111346319Y-115899500D01*
X111347335Y-132900736D02*
X111353802Y-132900736D01*
X111353802Y-132900736D02*
X111360261Y-132900685D01*
X111360261Y-132900685D02*
X111366708Y-132900584D01*
X111366708Y-132900584D02*
X111373147Y-132900431D01*
X111373147Y-132900431D02*
X111379573Y-132900253D01*
X111379573Y-132900253D02*
X111385991Y-132900025D01*
X111385991Y-132900025D02*
X111392397Y-132899761D01*
X111392397Y-132899761D02*
X111398796Y-132899458D01*
X111398796Y-132899458D02*
X111405181Y-132899113D01*
X111405181Y-132899113D02*
X111411557Y-132898729D01*
X111411557Y-132898729D02*
X111417922Y-132898305D01*
X111417922Y-132898305D02*
X111424274Y-132897843D01*
X111424274Y-132897843D02*
X111430619Y-132897340D01*
X111430619Y-132897340D02*
X111436949Y-132896799D01*
X111436949Y-132896799D02*
X111443271Y-132896217D01*
X111443271Y-132896217D02*
X111449578Y-132895595D01*
X111449578Y-132895595D02*
X111455877Y-132894937D01*
X111455877Y-132894937D02*
X111462161Y-132894239D01*
X111462161Y-132894239D02*
X111468437Y-132893500D01*
X111468437Y-132893500D02*
X111474698Y-132892725D01*
X111474698Y-132892725D02*
X111480949Y-132891910D01*
X111480949Y-132891910D02*
X111487185Y-132891056D01*
X111487185Y-132891056D02*
X111493411Y-132890165D01*
X111493411Y-132890165D02*
X111499626Y-132889237D01*
X111499626Y-132889237D02*
X111505826Y-132888270D01*
X111505826Y-132888270D02*
X111512014Y-132887264D01*
X111512014Y-132887264D02*
X111518188Y-132886220D01*
X111518188Y-132886220D02*
X111524350Y-132885140D01*
X111524350Y-132885140D02*
X111530500Y-132884020D01*
X111530500Y-132884020D02*
X111536636Y-132882865D01*
X111536636Y-132882865D02*
X111542760Y-132881673D01*
X111542760Y-132881673D02*
X111548869Y-132880441D01*
X111548869Y-132880441D02*
X111554965Y-132879174D01*
X111554965Y-132879174D02*
X111561048Y-132877871D01*
X111561048Y-132877871D02*
X111567116Y-132876530D01*
X111567116Y-132876530D02*
X111573172Y-132875151D01*
X111573172Y-132875151D02*
X111579212Y-132873738D01*
X111579212Y-132873738D02*
X111585239Y-132872285D01*
X111585239Y-132872285D02*
X111591251Y-132870800D01*
X111591251Y-132870800D02*
X111597251Y-132869276D01*
X111597251Y-132869276D02*
X111603233Y-132867716D01*
X111603233Y-132867716D02*
X111609202Y-132866121D01*
X111609202Y-132866121D02*
X111615158Y-132864490D01*
X111615158Y-132864490D02*
X111621096Y-132862824D01*
X111621096Y-132862824D02*
X111627022Y-132861120D01*
X111627022Y-132861120D02*
X111632930Y-132859382D01*
X111632930Y-132859382D02*
X111638826Y-132857609D01*
X111638826Y-132857609D02*
X111644703Y-132855801D01*
X111644703Y-132855801D02*
X111656415Y-132852077D01*
X111656415Y-132852077D02*
X111668064Y-132848216D01*
X111668064Y-132848216D02*
X111679649Y-132844216D01*
X111679649Y-132844216D02*
X111691167Y-132840078D01*
X111691167Y-132840078D02*
X111702623Y-132835803D01*
X111702623Y-132835803D02*
X111714010Y-132831394D01*
X111714010Y-132831394D02*
X111725328Y-132826850D01*
X111725328Y-132826850D02*
X111736580Y-132822174D01*
X111736580Y-132822174D02*
X111747761Y-132817363D01*
X111747761Y-132817363D02*
X111758871Y-132812423D01*
X111758871Y-132812423D02*
X111769910Y-132807350D01*
X111769910Y-132807350D02*
X111780875Y-132802148D01*
X111780875Y-132802148D02*
X111791767Y-132796817D01*
X111791767Y-132796817D02*
X111802585Y-132791359D01*
X111802585Y-132791359D02*
X111813329Y-132785773D01*
X111813329Y-132785773D02*
X111823994Y-132780063D01*
X111823994Y-132780063D02*
X111834581Y-132774229D01*
X111834581Y-132774229D02*
X111845091Y-132768270D01*
X111845091Y-132768270D02*
X111855521Y-132762189D01*
X111855521Y-132762189D02*
X111865871Y-132755984D01*
X111865871Y-132755984D02*
X111876138Y-132749662D01*
X111876138Y-132749662D02*
X111886323Y-132743218D01*
X111886323Y-132743218D02*
X111896425Y-132736655D01*
X111896425Y-132736655D02*
X111906443Y-132729974D01*
X111906443Y-132729974D02*
X111916374Y-132723177D01*
X111916374Y-132723177D02*
X111926222Y-132716263D01*
X111926222Y-132716263D02*
X111935980Y-132709235D01*
X111935980Y-132709235D02*
X111945650Y-132702093D01*
X111945650Y-132702093D02*
X111955231Y-132694839D01*
X111955231Y-132694839D02*
X111964720Y-132687473D01*
X111964720Y-132687473D02*
X111974118Y-132679995D01*
X111974118Y-132679995D02*
X111983425Y-132672408D01*
X111983425Y-132672408D02*
X111992640Y-132664712D01*
X111992640Y-132664712D02*
X112001759Y-132656906D01*
X112001759Y-132656906D02*
X112010783Y-132648994D01*
X112010783Y-132648994D02*
X112019711Y-132640978D01*
X112019711Y-132640978D02*
X112028540Y-132632855D01*
X112028540Y-132632855D02*
X112037273Y-132624628D01*
X112037273Y-132624628D02*
X112045906Y-132616297D01*
X112045906Y-132616297D02*
X112054441Y-132607866D01*
X112054441Y-132607866D02*
X112062871Y-132599332D01*
X112062871Y-132599332D02*
X112071202Y-132590699D01*
X112071202Y-132590699D02*
X112079429Y-132581966D01*
X112079429Y-132581966D02*
X112087552Y-132573137D01*
X112087552Y-132573137D02*
X112095568Y-132564209D01*
X112095568Y-132564209D02*
X112103481Y-132555184D01*
X112103481Y-132555184D02*
X112111286Y-132546066D01*
X112111286Y-132546066D02*
X112118982Y-132536851D01*
X112118982Y-132536851D02*
X112126569Y-132527544D01*
X112126569Y-132527544D02*
X112134047Y-132518146D01*
X112134047Y-132518146D02*
X112141413Y-132508657D01*
X112141413Y-132508657D02*
X112148667Y-132499076D01*
X112148667Y-132499076D02*
X112155810Y-132489406D01*
X112155810Y-132489406D02*
X112162838Y-132479647D01*
X112162838Y-132479647D02*
X112169752Y-132469800D01*
X112169752Y-132469800D02*
X112176549Y-132459868D01*
X112176549Y-132459868D02*
X112183229Y-132449850D01*
X112183229Y-132449850D02*
X112189792Y-132439749D01*
X112189792Y-132439749D02*
X112196236Y-132429563D01*
X112196236Y-132429563D02*
X112202558Y-132419297D01*
X112202558Y-132419297D02*
X112208764Y-132408946D01*
X112208764Y-132408946D02*
X112214844Y-132398517D01*
X112214844Y-132398517D02*
X112220803Y-132388007D01*
X112220803Y-132388007D02*
X112226638Y-132377420D01*
X112226638Y-132377420D02*
X112232347Y-132366754D01*
X112232347Y-132366754D02*
X112237933Y-132356010D01*
X112237933Y-132356010D02*
X112243391Y-132345192D01*
X112243391Y-132345192D02*
X112248723Y-132334301D01*
X112248723Y-132334301D02*
X112253925Y-132323336D01*
X112253925Y-132323336D02*
X112258997Y-132312297D01*
X112258997Y-132312297D02*
X112263937Y-132301187D01*
X112263937Y-132301187D02*
X112268748Y-132290006D01*
X112268748Y-132290006D02*
X112273424Y-132278754D01*
X112273424Y-132278754D02*
X112277968Y-132267435D01*
X112277968Y-132267435D02*
X112282378Y-132256048D01*
X112282378Y-132256048D02*
X112286653Y-132244593D01*
X112286653Y-132244593D02*
X112290790Y-132233074D01*
X112290790Y-132233074D02*
X112294791Y-132221489D01*
X112294791Y-132221489D02*
X112298652Y-132209841D01*
X112298652Y-132209841D02*
X112302375Y-132198129D01*
X112302375Y-132198129D02*
X112304184Y-132192251D01*
X112304184Y-132192251D02*
X112305957Y-132186356D01*
X112305957Y-132186356D02*
X112307694Y-132180448D01*
X112307694Y-132180448D02*
X112309398Y-132174522D01*
X112309398Y-132174522D02*
X112311065Y-132168584D01*
X112311065Y-132168584D02*
X112312695Y-132162627D01*
X112312695Y-132162627D02*
X112314290Y-132156658D01*
X112314290Y-132156658D02*
X112315850Y-132150677D01*
X112315850Y-132150677D02*
X112317374Y-132144677D01*
X112317374Y-132144677D02*
X112318860Y-132138665D01*
X112318860Y-132138665D02*
X112320313Y-132132637D01*
X112320313Y-132132637D02*
X112321725Y-132126597D01*
X112321725Y-132126597D02*
X112323104Y-132120542D01*
X112323104Y-132120542D02*
X112324445Y-132114474D01*
X112324445Y-132114474D02*
X112325748Y-132108391D01*
X112325748Y-132108391D02*
X112327016Y-132102295D01*
X112327016Y-132102295D02*
X112328248Y-132096186D01*
X112328248Y-132096186D02*
X112329439Y-132090062D01*
X112329439Y-132090062D02*
X112330595Y-132083925D01*
X112330595Y-132083925D02*
X112331715Y-132077776D01*
X112331715Y-132077776D02*
X112332794Y-132071614D01*
X112332794Y-132071614D02*
X112333838Y-132065439D01*
X112333838Y-132065439D02*
X112334844Y-132059252D01*
X112334844Y-132059252D02*
X112335812Y-132053052D01*
X112335812Y-132053052D02*
X112336739Y-132046836D01*
X112336739Y-132046836D02*
X112337630Y-132040611D01*
X112337630Y-132040611D02*
X112338484Y-132034375D01*
X112338484Y-132034375D02*
X112339299Y-132028124D01*
X112339299Y-132028124D02*
X112340074Y-132021863D01*
X112340074Y-132021863D02*
X112340813Y-132015587D01*
X112340813Y-132015587D02*
X112341512Y-132009303D01*
X112341512Y-132009303D02*
X112342169Y-132003003D01*
X112342169Y-132003003D02*
X112342792Y-131996697D01*
X112342792Y-131996697D02*
X112343373Y-131990375D01*
X112343373Y-131990375D02*
X112343914Y-131984045D01*
X112343914Y-131984045D02*
X112344417Y-131977700D01*
X112344417Y-131977700D02*
X112344880Y-131971347D01*
X112344880Y-131971347D02*
X112345304Y-131964982D01*
X112345304Y-131964982D02*
X112345687Y-131958607D01*
X112345687Y-131958607D02*
X112346033Y-131952221D01*
X112346033Y-131952221D02*
X112346335Y-131945823D01*
X112346335Y-131945823D02*
X112346599Y-131939417D01*
X112346599Y-131939417D02*
X112346828Y-131932999D01*
X112346828Y-131932999D02*
X112347006Y-131926572D01*
X112347006Y-131926572D02*
X112347158Y-131920133D01*
X112347158Y-131920133D02*
X112347260Y-131913687D01*
X112347260Y-131913687D02*
X112347310Y-131907228D01*
X112347310Y-131907228D02*
X112347310Y-131900761D01*
X112347333Y-116900768D02*
X112347333Y-116894301D01*
X112347333Y-116894301D02*
X112347282Y-116887842D01*
X112347282Y-116887842D02*
X112347181Y-116881395D01*
X112347181Y-116881395D02*
X112347028Y-116874957D01*
X112347028Y-116874957D02*
X112346851Y-116868530D01*
X112346851Y-116868530D02*
X112346622Y-116862112D01*
X112346622Y-116862112D02*
X112346358Y-116855706D01*
X112346358Y-116855706D02*
X112346056Y-116849308D01*
X112346056Y-116849308D02*
X112345710Y-116842922D01*
X112345710Y-116842922D02*
X112345327Y-116836547D01*
X112345327Y-116836547D02*
X112344902Y-116830181D01*
X112344902Y-116830181D02*
X112344440Y-116823829D01*
X112344440Y-116823829D02*
X112343937Y-116817484D01*
X112343937Y-116817484D02*
X112343396Y-116811154D01*
X112343396Y-116811154D02*
X112342815Y-116804832D01*
X112342815Y-116804832D02*
X112342192Y-116798525D01*
X112342192Y-116798525D02*
X112341534Y-116792226D01*
X112341534Y-116792226D02*
X112340836Y-116785942D01*
X112340836Y-116785942D02*
X112340097Y-116779666D01*
X112340097Y-116779666D02*
X112339322Y-116773405D01*
X112339322Y-116773405D02*
X112338507Y-116767154D01*
X112338507Y-116767154D02*
X112337653Y-116760918D01*
X112337653Y-116760918D02*
X112336762Y-116754693D01*
X112336762Y-116754693D02*
X112335835Y-116748477D01*
X112335835Y-116748477D02*
X112334867Y-116742277D01*
X112334867Y-116742277D02*
X112333861Y-116736090D01*
X112333861Y-116736090D02*
X112332817Y-116729915D01*
X112332817Y-116729915D02*
X112331738Y-116723753D01*
X112331738Y-116723753D02*
X112330617Y-116717604D01*
X112330617Y-116717604D02*
X112329462Y-116711467D01*
X112329462Y-116711467D02*
X112328271Y-116705343D01*
X112328271Y-116705343D02*
X112327039Y-116699234D01*
X112327039Y-116699234D02*
X112325771Y-116693138D01*
X112325771Y-116693138D02*
X112324468Y-116687055D01*
X112324468Y-116687055D02*
X112323127Y-116680987D01*
X112323127Y-116680987D02*
X112321748Y-116674932D01*
X112321748Y-116674932D02*
X112320336Y-116668891D01*
X112320336Y-116668891D02*
X112318883Y-116662864D01*
X112318883Y-116662864D02*
X112317397Y-116656852D01*
X112317397Y-116656852D02*
X112315873Y-116650852D01*
X112315873Y-116650852D02*
X112314313Y-116644871D01*
X112314313Y-116644871D02*
X112312718Y-116638902D01*
X112312718Y-116638902D02*
X112311087Y-116632945D01*
X112311087Y-116632945D02*
X112309421Y-116627007D01*
X112309421Y-116627007D02*
X112307717Y-116621081D01*
X112307717Y-116621081D02*
X112305979Y-116615173D01*
X112305979Y-116615173D02*
X112304207Y-116609278D01*
X112304207Y-116609278D02*
X112302398Y-116603400D01*
X112302398Y-116603400D02*
X112298674Y-116591688D01*
X112298674Y-116591688D02*
X112294814Y-116580040D01*
X112294814Y-116580040D02*
X112290813Y-116568455D01*
X112290813Y-116568455D02*
X112286675Y-116556936D01*
X112286675Y-116556936D02*
X112282401Y-116545480D01*
X112282401Y-116545480D02*
X112277991Y-116534094D01*
X112277991Y-116534094D02*
X112273447Y-116522775D01*
X112273447Y-116522775D02*
X112268771Y-116511523D01*
X112268771Y-116511523D02*
X112263960Y-116500342D01*
X112263960Y-116500342D02*
X112259020Y-116489232D01*
X112259020Y-116489232D02*
X112253948Y-116478193D01*
X112253948Y-116478193D02*
X112248746Y-116467228D01*
X112248746Y-116467228D02*
X112243414Y-116456337D01*
X112243414Y-116456337D02*
X112237956Y-116445519D01*
X112237956Y-116445519D02*
X112232370Y-116434775D01*
X112232370Y-116434775D02*
X112226660Y-116424109D01*
X112226660Y-116424109D02*
X112220826Y-116413522D01*
X112220826Y-116413522D02*
X112214867Y-116403012D01*
X112214867Y-116403012D02*
X112208786Y-116392583D01*
X112208786Y-116392583D02*
X112202581Y-116382232D01*
X112202581Y-116382232D02*
X112196259Y-116371965D01*
X112196259Y-116371965D02*
X112189815Y-116361780D01*
X112189815Y-116361780D02*
X112183252Y-116351678D01*
X112183252Y-116351678D02*
X112176572Y-116341661D01*
X112176572Y-116341661D02*
X112169775Y-116331729D01*
X112169775Y-116331729D02*
X112162861Y-116321882D01*
X112162861Y-116321882D02*
X112155832Y-116312123D01*
X112155832Y-116312123D02*
X112148690Y-116302453D01*
X112148690Y-116302453D02*
X112141436Y-116292872D01*
X112141436Y-116292872D02*
X112134070Y-116283383D01*
X112134070Y-116283383D02*
X112126592Y-116273985D01*
X112126592Y-116273985D02*
X112119005Y-116264678D01*
X112119005Y-116264678D02*
X112111309Y-116255463D01*
X112111309Y-116255463D02*
X112103503Y-116246345D01*
X112103503Y-116246345D02*
X112095591Y-116237320D01*
X112095591Y-116237320D02*
X112087575Y-116228392D01*
X112087575Y-116228392D02*
X112079452Y-116219563D01*
X112079452Y-116219563D02*
X112071225Y-116210830D01*
X112071225Y-116210830D02*
X112062894Y-116202197D01*
X112062894Y-116202197D02*
X112054464Y-116193662D01*
X112054464Y-116193662D02*
X112045929Y-116185232D01*
X112045929Y-116185232D02*
X112037296Y-116176901D01*
X112037296Y-116176901D02*
X112028563Y-116168674D01*
X112028563Y-116168674D02*
X112019734Y-116160551D01*
X112019734Y-116160551D02*
X112010806Y-116152535D01*
X112010806Y-116152535D02*
X112001781Y-116144623D01*
X112001781Y-116144623D02*
X111992663Y-116136817D01*
X111992663Y-116136817D02*
X111983448Y-116129121D01*
X111983448Y-116129121D02*
X111974141Y-116121534D01*
X111974141Y-116121534D02*
X111964743Y-116114056D01*
X111964743Y-116114056D02*
X111955254Y-116106690D01*
X111955254Y-116106690D02*
X111945673Y-116099436D01*
X111945673Y-116099436D02*
X111936003Y-116092294D01*
X111936003Y-116092294D02*
X111926244Y-116085265D01*
X111926244Y-116085265D02*
X111916397Y-116078352D01*
X111916397Y-116078352D02*
X111906465Y-116071555D01*
X111906465Y-116071555D02*
X111896448Y-116064874D01*
X111896448Y-116064874D02*
X111886346Y-116058311D01*
X111886346Y-116058311D02*
X111876161Y-116051867D01*
X111876161Y-116051867D02*
X111865894Y-116045545D01*
X111865894Y-116045545D02*
X111855544Y-116039340D01*
X111855544Y-116039340D02*
X111845114Y-116033259D01*
X111845114Y-116033259D02*
X111834604Y-116027300D01*
X111834604Y-116027300D02*
X111824017Y-116021466D01*
X111824017Y-116021466D02*
X111813352Y-116015756D01*
X111813352Y-116015756D02*
X111802607Y-116010170D01*
X111802607Y-116010170D02*
X111791790Y-116004712D01*
X111791790Y-116004712D02*
X111780898Y-115999380D01*
X111780898Y-115999380D02*
X111769933Y-115994178D01*
X111769933Y-115994178D02*
X111758894Y-115989106D01*
X111758894Y-115989106D02*
X111747784Y-115984166D01*
X111747784Y-115984166D02*
X111736603Y-115979355D01*
X111736603Y-115979355D02*
X111725351Y-115974679D01*
X111725351Y-115974679D02*
X111714032Y-115970135D01*
X111714032Y-115970135D02*
X111702646Y-115965725D01*
X111702646Y-115965725D02*
X111691190Y-115961451D01*
X111691190Y-115961451D02*
X111679671Y-115957313D01*
X111679671Y-115957313D02*
X111668086Y-115953312D01*
X111668086Y-115953312D02*
X111656438Y-115949452D01*
X111656438Y-115949452D02*
X111644726Y-115945728D01*
X111644726Y-115945728D02*
X111638848Y-115943920D01*
X111638848Y-115943920D02*
X111632953Y-115942147D01*
X111632953Y-115942147D02*
X111627045Y-115940409D01*
X111627045Y-115940409D02*
X111621119Y-115938705D01*
X111621119Y-115938705D02*
X111615181Y-115937039D01*
X111615181Y-115937039D02*
X111609224Y-115935408D01*
X111609224Y-115935408D02*
X111603255Y-115933813D01*
X111603255Y-115933813D02*
X111597274Y-115932253D01*
X111597274Y-115932253D02*
X111591274Y-115930729D01*
X111591274Y-115930729D02*
X111585262Y-115929243D01*
X111585262Y-115929243D02*
X111579235Y-115927791D01*
X111579235Y-115927791D02*
X111573195Y-115926378D01*
X111573195Y-115926378D02*
X111567139Y-115924999D01*
X111567139Y-115924999D02*
X111561071Y-115923658D01*
X111561071Y-115923658D02*
X111554988Y-115922355D01*
X111554988Y-115922355D02*
X111548892Y-115921087D01*
X111548892Y-115921087D02*
X111542783Y-115919856D01*
X111542783Y-115919856D02*
X111536659Y-115918664D01*
X111536659Y-115918664D02*
X111530523Y-115917509D01*
X111530523Y-115917509D02*
X111524373Y-115916388D01*
X111524373Y-115916388D02*
X111518211Y-115915309D01*
X111518211Y-115915309D02*
X111512036Y-115914265D01*
X111512036Y-115914265D02*
X111505849Y-115913259D01*
X111505849Y-115913259D02*
X111499649Y-115912291D01*
X111499649Y-115912291D02*
X111493433Y-115911364D01*
X111493433Y-115911364D02*
X111487208Y-115910473D01*
X111487208Y-115910473D02*
X111480972Y-115909619D01*
X111480972Y-115909619D02*
X111474721Y-115908804D01*
X111474721Y-115908804D02*
X111468460Y-115908029D01*
X111468460Y-115908029D02*
X111462184Y-115907290D01*
X111462184Y-115907290D02*
X111455900Y-115906592D01*
X111455900Y-115906592D02*
X111449601Y-115905934D01*
X111449601Y-115905934D02*
X111443294Y-115905312D01*
X111443294Y-115905312D02*
X111436972Y-115904730D01*
X111436972Y-115904730D02*
X111430642Y-115904189D01*
X111430642Y-115904189D02*
X111424297Y-115903686D01*
X111424297Y-115903686D02*
X111417945Y-115903224D01*
X111417945Y-115903224D02*
X111411579Y-115902799D01*
X111411579Y-115902799D02*
X111405204Y-115902416D01*
X111405204Y-115902416D02*
X111398818Y-115902070D01*
X111398818Y-115902070D02*
X111392420Y-115901768D01*
X111392420Y-115901768D02*
X111386014Y-115901504D01*
X111386014Y-115901504D02*
X111379596Y-115901275D01*
X111379596Y-115901275D02*
X111373170Y-115901098D01*
X111373170Y-115901098D02*
X111366731Y-115900945D01*
X111366731Y-115900945D02*
X111360284Y-115900844D01*
X111360284Y-115900844D02*
X111353825Y-115900793D01*
X111353825Y-115900793D02*
X111347358Y-115900793D01*
X96347365Y-115900770D02*
X96341150Y-115900770D01*
X96341150Y-115900770D02*
X96334940Y-115900821D01*
X96334940Y-115900821D02*
X96328732Y-115900922D01*
X96328732Y-115900922D02*
X96322532Y-115901049D01*
X96322532Y-115901049D02*
X96316334Y-115901227D01*
X96316334Y-115901227D02*
X96310142Y-115901430D01*
X96310142Y-115901430D02*
X96303952Y-115901684D01*
X96303952Y-115901684D02*
X96297769Y-115901971D01*
X96297769Y-115901971D02*
X96291592Y-115902297D01*
X96291592Y-115902297D02*
X96285420Y-115902657D01*
X96285420Y-115902657D02*
X96279253Y-115903059D01*
X96279253Y-115903059D02*
X96273093Y-115903495D01*
X96273093Y-115903495D02*
X96266939Y-115903970D01*
X96266939Y-115903970D02*
X96260789Y-115904486D01*
X96260789Y-115904486D02*
X96248511Y-115905624D01*
X96248511Y-115905624D02*
X96236258Y-115906914D01*
X96236258Y-115906914D02*
X96224033Y-115908354D01*
X96224033Y-115908354D02*
X96211836Y-115909942D01*
X96211836Y-115909942D02*
X96199669Y-115911679D01*
X96199669Y-115911679D02*
X96187533Y-115913567D01*
X96187533Y-115913567D02*
X96175430Y-115915599D01*
X96175430Y-115915599D02*
X96163363Y-115917778D01*
X96163363Y-115917778D02*
X96151328Y-115920104D01*
X96151328Y-115920104D02*
X96139332Y-115922576D01*
X96139332Y-115922576D02*
X96127371Y-115925192D01*
X96127371Y-115925192D02*
X96115451Y-115927956D01*
X96115451Y-115927956D02*
X96103568Y-115930861D01*
X96103568Y-115930861D02*
X96091729Y-115933912D01*
X96091729Y-115933912D02*
X96079934Y-115937105D01*
X96079934Y-115937105D02*
X96068181Y-115940442D01*
X96068181Y-115940442D02*
X96056474Y-115943920D01*
X96056474Y-115943920D02*
X96044813Y-115947542D01*
X96044813Y-115947542D02*
X96033200Y-115951301D01*
X96033200Y-115951301D02*
X96021638Y-115955205D01*
X96021638Y-115955205D02*
X96010124Y-115959246D01*
X96010124Y-115959246D02*
X95998664Y-115963427D01*
X95998664Y-115963427D02*
X95987257Y-115967747D01*
X95987257Y-115967747D02*
X95975903Y-115972205D01*
X95975903Y-115972205D02*
X95964605Y-115976802D01*
X95964605Y-115976802D02*
X95953363Y-115981537D01*
X95953363Y-115981537D02*
X95942182Y-115986409D01*
X95942182Y-115986409D02*
X95931057Y-115991415D01*
X95931057Y-115991415D02*
X95919995Y-115996558D01*
X95919995Y-115996558D02*
X95908994Y-116001837D01*
X95908994Y-116001837D02*
X95898057Y-116007252D01*
X95898057Y-116007252D02*
X95887183Y-116012799D01*
X95887183Y-116012799D02*
X95876376Y-116018479D01*
X95876376Y-116018479D02*
X95865636Y-116024293D01*
X95865636Y-116024293D02*
X95854966Y-116030241D01*
X95854966Y-116030241D02*
X95844364Y-116036320D01*
X95844364Y-116036320D02*
X95833833Y-116042530D01*
X95833833Y-116042530D02*
X95823373Y-116048872D01*
X95823373Y-116048872D02*
X95812990Y-116055344D01*
X95812990Y-116055344D02*
X95802680Y-116061946D01*
X95802680Y-116061946D02*
X95792444Y-116068679D01*
X95792444Y-116068679D02*
X95782289Y-116075540D01*
X95782289Y-116075540D02*
X95772210Y-116082527D01*
X95772210Y-116082527D02*
X95762213Y-116089644D01*
X95762213Y-116089644D02*
X95752297Y-116096888D01*
X95752297Y-116096888D02*
X95742462Y-116104260D01*
X95742462Y-116104260D02*
X95732711Y-116111758D01*
X95732711Y-116111758D02*
X95723046Y-116119380D01*
X95723046Y-116119380D02*
X95713465Y-116127130D01*
X95713465Y-116127130D02*
X95703976Y-116135001D01*
X95703976Y-116135001D02*
X95699261Y-116138984D01*
X95699261Y-116138984D02*
X95694573Y-116143000D01*
X95694573Y-116143000D02*
X95689904Y-116147043D01*
X95689904Y-116147043D02*
X95685261Y-116151120D01*
X95685261Y-116151120D02*
X95680638Y-116155225D01*
X95680638Y-116155225D02*
X95676038Y-116159362D01*
X95676038Y-116159362D02*
X95671464Y-116163530D01*
X95671464Y-116163530D02*
X95666912Y-116167729D01*
X95666912Y-116167729D02*
X95662383Y-116171958D01*
X95662383Y-116171958D02*
X95657877Y-116176218D01*
X95657877Y-116176218D02*
X95653397Y-116180508D01*
X95653397Y-116180508D02*
X95648939Y-116184828D01*
X95648939Y-116184828D02*
X95644504Y-116189177D01*
X95644504Y-116189177D02*
X95640097Y-116193558D01*
X95640097Y-116193558D02*
X95635716Y-116197965D01*
X95635716Y-116197965D02*
X95631365Y-116202398D01*
X95631365Y-116202398D02*
X95627042Y-116206855D01*
X95627042Y-116206855D02*
X95622751Y-116211336D01*
X95622751Y-116211336D02*
X95618492Y-116215839D01*
X95618492Y-116215839D02*
X95614260Y-116220365D01*
X95614260Y-116220365D02*
X95610062Y-116224917D01*
X95610062Y-116224917D02*
X95605891Y-116229492D01*
X95605891Y-116229492D02*
X95601753Y-116234089D01*
X95601753Y-116234089D02*
X95597646Y-116238712D01*
X95597646Y-116238712D02*
X95593569Y-116243355D01*
X95593569Y-116243355D02*
X95589523Y-116248021D01*
X95589523Y-116248021D02*
X95585507Y-116252710D01*
X95585507Y-116252710D02*
X95581525Y-116257422D01*
X95581525Y-116257422D02*
X95573648Y-116266911D01*
X95573648Y-116266911D02*
X95565899Y-116276489D01*
X95565899Y-116276489D02*
X95558271Y-116286151D01*
X95558271Y-116286151D02*
X95550773Y-116295900D01*
X95550773Y-116295900D02*
X95543399Y-116305732D01*
X95543399Y-116305732D02*
X95536153Y-116315649D01*
X95536153Y-116315649D02*
X95529033Y-116325643D01*
X95529033Y-116325643D02*
X95522040Y-116335720D01*
X95522040Y-116335720D02*
X95515177Y-116345875D01*
X95515177Y-116345875D02*
X95508444Y-116356108D01*
X95508444Y-116356108D02*
X95501840Y-116366415D01*
X95501840Y-116366415D02*
X95495363Y-116376799D01*
X95495363Y-116376799D02*
X95489020Y-116387256D01*
X95489020Y-116387256D02*
X95482805Y-116397784D01*
X95482805Y-116397784D02*
X95476724Y-116408386D01*
X95476724Y-116408386D02*
X95470776Y-116419054D01*
X95470776Y-116419054D02*
X95464957Y-116429794D01*
X95464957Y-116429794D02*
X95459275Y-116440599D01*
X95459275Y-116440599D02*
X95453722Y-116451470D01*
X95453722Y-116451470D02*
X95448307Y-116462407D01*
X95448307Y-116462407D02*
X95443026Y-116473405D01*
X95443026Y-116473405D02*
X95437880Y-116484467D01*
X95437880Y-116484467D02*
X95432869Y-116495590D01*
X95432869Y-116495590D02*
X95427994Y-116506771D01*
X95427994Y-116506771D02*
X95423257Y-116518013D01*
X95423257Y-116518013D02*
X95418660Y-116529308D01*
X95418660Y-116529308D02*
X95414197Y-116540662D01*
X95414197Y-116540662D02*
X95409874Y-116552069D01*
X95409874Y-116552069D02*
X95405691Y-116563527D01*
X95405691Y-116563527D02*
X95401644Y-116575038D01*
X95401644Y-116575038D02*
X95397741Y-116586603D01*
X95397741Y-116586603D02*
X95393976Y-116598213D01*
X95393976Y-116598213D02*
X95390352Y-116609872D01*
X95390352Y-116609872D02*
X95386872Y-116621579D01*
X95386872Y-116621579D02*
X95383532Y-116633331D01*
X95383532Y-116633331D02*
X95380336Y-116645125D01*
X95380336Y-116645125D02*
X95377283Y-116656964D01*
X95377283Y-116656964D02*
X95374373Y-116668843D01*
X95374373Y-116668843D02*
X95371606Y-116680763D01*
X95371606Y-116680763D02*
X95368988Y-116692724D01*
X95368988Y-116692724D02*
X95366511Y-116704721D01*
X95366511Y-116704721D02*
X95364182Y-116716753D01*
X95364182Y-116716753D02*
X95362000Y-116728823D01*
X95362000Y-116728823D02*
X95359966Y-116740923D01*
X95359966Y-116740923D02*
X95358076Y-116753059D01*
X95358076Y-116753059D02*
X95356336Y-116765226D01*
X95356336Y-116765226D02*
X95354743Y-116777423D01*
X95354743Y-116777423D02*
X95353301Y-116789646D01*
X95353301Y-116789646D02*
X95352008Y-116801898D01*
X95352008Y-116801898D02*
X95350865Y-116814177D01*
X95350865Y-116814177D02*
X95350349Y-116820326D01*
X95350349Y-116820326D02*
X95349874Y-116826481D01*
X95349874Y-116826481D02*
X95349435Y-116832643D01*
X95349435Y-116832643D02*
X95349031Y-116838807D01*
X95349031Y-116838807D02*
X95348668Y-116844979D01*
X95348668Y-116844979D02*
X95348343Y-116851157D01*
X95348343Y-116851157D02*
X95348056Y-116857339D01*
X95348056Y-116857339D02*
X95347802Y-116863529D01*
X95347802Y-116863529D02*
X95347598Y-116869722D01*
X95347598Y-116869722D02*
X95347421Y-116875919D01*
X95347421Y-116875919D02*
X95347294Y-116882119D01*
X95347294Y-116882119D02*
X95347192Y-116888327D01*
X95347192Y-116888327D02*
X95347141Y-116894537D01*
X95347141Y-116894537D02*
X95347141Y-116900753D01*
X95347113Y-131900738D02*
X95347113Y-131906953D01*
X95347113Y-131906953D02*
X95347164Y-131913164D01*
X95347164Y-131913164D02*
X95347266Y-131919371D01*
X95347266Y-131919371D02*
X95347393Y-131925572D01*
X95347393Y-131925572D02*
X95347570Y-131931769D01*
X95347570Y-131931769D02*
X95347774Y-131937962D01*
X95347774Y-131937962D02*
X95348028Y-131944152D01*
X95348028Y-131944152D02*
X95348315Y-131950334D01*
X95348315Y-131950334D02*
X95348640Y-131956511D01*
X95348640Y-131956511D02*
X95349003Y-131962684D01*
X95349003Y-131962684D02*
X95349407Y-131968848D01*
X95349407Y-131968848D02*
X95349846Y-131975010D01*
X95349846Y-131975010D02*
X95350321Y-131981165D01*
X95350321Y-131981165D02*
X95350837Y-131987314D01*
X95350837Y-131987314D02*
X95351980Y-131999592D01*
X95351980Y-131999592D02*
X95353273Y-132011845D01*
X95353273Y-132011845D02*
X95354715Y-132024068D01*
X95354715Y-132024068D02*
X95356308Y-132036265D01*
X95356308Y-132036265D02*
X95358048Y-132048431D01*
X95358048Y-132048431D02*
X95359938Y-132060568D01*
X95359938Y-132060568D02*
X95361972Y-132072668D01*
X95361972Y-132072668D02*
X95364154Y-132084738D01*
X95364154Y-132084738D02*
X95366483Y-132096770D01*
X95366483Y-132096770D02*
X95368960Y-132108767D01*
X95368960Y-132108767D02*
X95371579Y-132120727D01*
X95371579Y-132120727D02*
X95374345Y-132132648D01*
X95374345Y-132132648D02*
X95377255Y-132144527D01*
X95377255Y-132144527D02*
X95380308Y-132156366D01*
X95380308Y-132156366D02*
X95383504Y-132168159D01*
X95383504Y-132168159D02*
X95386844Y-132179912D01*
X95386844Y-132179912D02*
X95390324Y-132191619D01*
X95390324Y-132191619D02*
X95393948Y-132203277D01*
X95393948Y-132203277D02*
X95397713Y-132214888D01*
X95397713Y-132214888D02*
X95401617Y-132226452D01*
X95401617Y-132226452D02*
X95405663Y-132237964D01*
X95405663Y-132237964D02*
X95409846Y-132249422D01*
X95409846Y-132249422D02*
X95414169Y-132260829D01*
X95414169Y-132260829D02*
X95418632Y-132272183D01*
X95418632Y-132272183D02*
X95423229Y-132283478D01*
X95423229Y-132283478D02*
X95427967Y-132294720D01*
X95427967Y-132294720D02*
X95432841Y-132305901D01*
X95432841Y-132305901D02*
X95437852Y-132317024D01*
X95437852Y-132317024D02*
X95442998Y-132328085D01*
X95442998Y-132328085D02*
X95448279Y-132339084D01*
X95448279Y-132339084D02*
X95453694Y-132350021D01*
X95453694Y-132350021D02*
X95459247Y-132360892D01*
X95459247Y-132360892D02*
X95464929Y-132371697D01*
X95464929Y-132371697D02*
X95470748Y-132382436D01*
X95470748Y-132382436D02*
X95476696Y-132393104D01*
X95476696Y-132393104D02*
X95482777Y-132403706D01*
X95482777Y-132403706D02*
X95488993Y-132414235D01*
X95488993Y-132414235D02*
X95495335Y-132424692D01*
X95495335Y-132424692D02*
X95501812Y-132435075D01*
X95501812Y-132435075D02*
X95508416Y-132445383D01*
X95508416Y-132445383D02*
X95515149Y-132455616D01*
X95515149Y-132455616D02*
X95522013Y-132465771D01*
X95522013Y-132465771D02*
X95529005Y-132475847D01*
X95529005Y-132475847D02*
X95536125Y-132485842D01*
X95536125Y-132485842D02*
X95543371Y-132495758D01*
X95543371Y-132495758D02*
X95550745Y-132505591D01*
X95550745Y-132505591D02*
X95558243Y-132515339D01*
X95558243Y-132515339D02*
X95565871Y-132525001D01*
X95565871Y-132525001D02*
X95573620Y-132534580D01*
X95573620Y-132534580D02*
X95581497Y-132544069D01*
X95581497Y-132544069D02*
X95585480Y-132548781D01*
X95585480Y-132548781D02*
X95589495Y-132553470D01*
X95589495Y-132553470D02*
X95593541Y-132558136D01*
X95593541Y-132558136D02*
X95597618Y-132562779D01*
X95597618Y-132562779D02*
X95601725Y-132567402D01*
X95601725Y-132567402D02*
X95605863Y-132571999D01*
X95605863Y-132571999D02*
X95610034Y-132576574D01*
X95610034Y-132576574D02*
X95614232Y-132581125D01*
X95614232Y-132581125D02*
X95618464Y-132585652D01*
X95618464Y-132585652D02*
X95622724Y-132590155D01*
X95622724Y-132590155D02*
X95627014Y-132594636D01*
X95627014Y-132594636D02*
X95631337Y-132599093D01*
X95631337Y-132599093D02*
X95635688Y-132603526D01*
X95635688Y-132603526D02*
X95640069Y-132607932D01*
X95640069Y-132607932D02*
X95644476Y-132612314D01*
X95644476Y-132612314D02*
X95648911Y-132616662D01*
X95648911Y-132616662D02*
X95653369Y-132620983D01*
X95653369Y-132620983D02*
X95657849Y-132625273D01*
X95657849Y-132625273D02*
X95662355Y-132629533D01*
X95662355Y-132629533D02*
X95666884Y-132633762D01*
X95666884Y-132633762D02*
X95671436Y-132637960D01*
X95671436Y-132637960D02*
X95676010Y-132642128D01*
X95676010Y-132642128D02*
X95680610Y-132646266D01*
X95680610Y-132646266D02*
X95685233Y-132650371D01*
X95685233Y-132650371D02*
X95689876Y-132654447D01*
X95689876Y-132654447D02*
X95694545Y-132658491D01*
X95694545Y-132658491D02*
X95699233Y-132662507D01*
X95699233Y-132662507D02*
X95703948Y-132666490D01*
X95703948Y-132666490D02*
X95713437Y-132674361D01*
X95713437Y-132674361D02*
X95723018Y-132682111D01*
X95723018Y-132682111D02*
X95732683Y-132689733D01*
X95732683Y-132689733D02*
X95742434Y-132697231D01*
X95742434Y-132697231D02*
X95752269Y-132704602D01*
X95752269Y-132704602D02*
X95762185Y-132711846D01*
X95762185Y-132711846D02*
X95772182Y-132718963D01*
X95772182Y-132718963D02*
X95782261Y-132725951D01*
X95782261Y-132725951D02*
X95792416Y-132732812D01*
X95792416Y-132732812D02*
X95802652Y-132739545D01*
X95802652Y-132739545D02*
X95812962Y-132746147D01*
X95812962Y-132746147D02*
X95823345Y-132752618D01*
X95823345Y-132752618D02*
X95833805Y-132758961D01*
X95833805Y-132758961D02*
X95844336Y-132765171D01*
X95844336Y-132765171D02*
X95854938Y-132771249D01*
X95854938Y-132771249D02*
X95865609Y-132777198D01*
X95865609Y-132777198D02*
X95876348Y-132783012D01*
X95876348Y-132783012D02*
X95887155Y-132788692D01*
X95887155Y-132788692D02*
X95898029Y-132794239D01*
X95898029Y-132794239D02*
X95908966Y-132799654D01*
X95908966Y-132799654D02*
X95919967Y-132804932D01*
X95919967Y-132804932D02*
X95931029Y-132810076D01*
X95931029Y-132810076D02*
X95942154Y-132815082D01*
X95942154Y-132815082D02*
X95953335Y-132819954D01*
X95953335Y-132819954D02*
X95964577Y-132824688D01*
X95964577Y-132824688D02*
X95975875Y-132829286D01*
X95975875Y-132829286D02*
X95987229Y-132833744D01*
X95987229Y-132833744D02*
X95998636Y-132838064D01*
X95998636Y-132838064D02*
X96010096Y-132842245D01*
X96010096Y-132842245D02*
X96021610Y-132846286D01*
X96021610Y-132846286D02*
X96033172Y-132850190D01*
X96033172Y-132850190D02*
X96044785Y-132853949D01*
X96044785Y-132853949D02*
X96056446Y-132857571D01*
X96056446Y-132857571D02*
X96068153Y-132861049D01*
X96068153Y-132861049D02*
X96079906Y-132864386D01*
X96079906Y-132864386D02*
X96091702Y-132867579D01*
X96091702Y-132867579D02*
X96103540Y-132870629D01*
X96103540Y-132870629D02*
X96115423Y-132873535D01*
X96115423Y-132873535D02*
X96127343Y-132876299D01*
X96127343Y-132876299D02*
X96139304Y-132878915D01*
X96139304Y-132878915D02*
X96151300Y-132881386D01*
X96151300Y-132881386D02*
X96163335Y-132883713D01*
X96163335Y-132883713D02*
X96175402Y-132885892D01*
X96175402Y-132885892D02*
X96187505Y-132887924D01*
X96187505Y-132887924D02*
X96199641Y-132889811D01*
X96199641Y-132889811D02*
X96211808Y-132891549D01*
X96211808Y-132891549D02*
X96224005Y-132893136D01*
X96224005Y-132893136D02*
X96236230Y-132894577D01*
X96236230Y-132894577D02*
X96248483Y-132895867D01*
X96248483Y-132895867D02*
X96260761Y-132897005D01*
X96260761Y-132897005D02*
X96266911Y-132897520D01*
X96266911Y-132897520D02*
X96273065Y-132897995D01*
X96273065Y-132897995D02*
X96279225Y-132898432D01*
X96279225Y-132898432D02*
X96285392Y-132898834D01*
X96285392Y-132898834D02*
X96291564Y-132899194D01*
X96291564Y-132899194D02*
X96297741Y-132899519D01*
X96297741Y-132899519D02*
X96303924Y-132899806D01*
X96303924Y-132899806D02*
X96310114Y-132900060D01*
X96310114Y-132900060D02*
X96316306Y-132900264D01*
X96316306Y-132900264D02*
X96322504Y-132900441D01*
X96322504Y-132900441D02*
X96328704Y-132900568D01*
X96328704Y-132900568D02*
X96334912Y-132900670D01*
X96334912Y-132900670D02*
X96341122Y-132900721D01*
X96341122Y-132900721D02*
X96347337Y-132900721D01*
X47696459Y-162650740D02*
X158996719Y-162650740D01*
X158996719Y-162650740D02*
X47696459Y-162650740D01*
X158996719Y-34149600D02*
X47696459Y-34149600D01*
X47696459Y-34149600D02*
X158996719Y-34149600D01*
X158996719Y-162650740D02*
X158996719Y-34149600D01*
X158996719Y-34149600D02*
X158996719Y-162650740D01*
X47696459Y-34149600D02*
X47696459Y-162650740D01*
X47696459Y-162650740D02*
X47696459Y-34149600D01*
M02*
