G04 #@! TF.GenerationSoftware,KiCad,Pcbnew,(5.1.2)-1*
G04 #@! TF.CreationDate,2019-05-17T09:45:12+02:00*
G04 #@! TF.ProjectId,frontplate-ctag,66726f6e-7470-46c6-9174-652d63746167,rev?*
G04 #@! TF.SameCoordinates,Original*
G04 #@! TF.FileFunction,Profile,NP*
%FSLAX46Y46*%
G04 Gerber Fmt 4.6, Leading zero omitted, Abs format (unit mm)*
G04 Created by KiCad (PCBNEW (5.1.2)-1) date 2019-05-17 09:45:12*
%MOMM*%
%LPD*%
G04 APERTURE LIST*
%ADD10C,0.100000*%
G04 APERTURE END LIST*
D10*
X70437079Y-54863300D02*
X70437079Y-89864500D01*
X70437079Y-89864500D02*
X70437079Y-54863300D01*
X70437079Y-89864500D02*
X117437239Y-89864500D01*
X117437239Y-89864500D02*
X70437079Y-89864500D01*
X117437239Y-89864500D02*
X117437239Y-54863300D01*
X117437239Y-54863300D02*
X117437239Y-89864500D01*
X117437239Y-54863300D02*
X70437079Y-54863300D01*
X70437079Y-54863300D02*
X117437239Y-54863300D01*
X97935119Y-118863680D02*
X82936419Y-118863680D01*
X82936419Y-118863680D02*
X97935119Y-118863680D01*
X81935659Y-119864440D02*
X81935659Y-134863140D01*
X81935659Y-134863140D02*
X81935659Y-119864440D01*
X82936419Y-135863900D02*
X97935119Y-135863900D01*
X97935119Y-135863900D02*
X82936419Y-135863900D01*
X98935879Y-134863140D02*
X98935879Y-119864440D01*
X98935879Y-119864440D02*
X98935879Y-134863140D01*
X98937403Y-119864948D02*
X98937403Y-119858481D01*
X98937403Y-119858481D02*
X98937352Y-119852022D01*
X98937352Y-119852022D02*
X98937251Y-119845575D01*
X98937251Y-119845575D02*
X98937098Y-119839137D01*
X98937098Y-119839137D02*
X98936921Y-119832710D01*
X98936921Y-119832710D02*
X98936692Y-119826292D01*
X98936692Y-119826292D02*
X98936428Y-119819886D01*
X98936428Y-119819886D02*
X98936126Y-119813488D01*
X98936126Y-119813488D02*
X98935780Y-119807102D01*
X98935780Y-119807102D02*
X98935397Y-119800727D01*
X98935397Y-119800727D02*
X98934972Y-119794361D01*
X98934972Y-119794361D02*
X98934510Y-119788009D01*
X98934510Y-119788009D02*
X98934007Y-119781664D01*
X98934007Y-119781664D02*
X98933466Y-119775334D01*
X98933466Y-119775334D02*
X98932885Y-119769012D01*
X98932885Y-119769012D02*
X98932262Y-119762705D01*
X98932262Y-119762705D02*
X98931604Y-119756406D01*
X98931604Y-119756406D02*
X98930906Y-119750122D01*
X98930906Y-119750122D02*
X98930167Y-119743846D01*
X98930167Y-119743846D02*
X98929392Y-119737585D01*
X98929392Y-119737585D02*
X98928577Y-119731334D01*
X98928577Y-119731334D02*
X98927723Y-119725098D01*
X98927723Y-119725098D02*
X98926832Y-119718873D01*
X98926832Y-119718873D02*
X98925905Y-119712657D01*
X98925905Y-119712657D02*
X98924937Y-119706457D01*
X98924937Y-119706457D02*
X98923931Y-119700270D01*
X98923931Y-119700270D02*
X98922887Y-119694095D01*
X98922887Y-119694095D02*
X98921808Y-119687933D01*
X98921808Y-119687933D02*
X98920687Y-119681784D01*
X98920687Y-119681784D02*
X98919532Y-119675647D01*
X98919532Y-119675647D02*
X98918341Y-119669523D01*
X98918341Y-119669523D02*
X98917109Y-119663414D01*
X98917109Y-119663414D02*
X98915841Y-119657318D01*
X98915841Y-119657318D02*
X98914538Y-119651235D01*
X98914538Y-119651235D02*
X98913197Y-119645167D01*
X98913197Y-119645167D02*
X98911818Y-119639112D01*
X98911818Y-119639112D02*
X98910406Y-119633071D01*
X98910406Y-119633071D02*
X98908953Y-119627044D01*
X98908953Y-119627044D02*
X98907467Y-119621032D01*
X98907467Y-119621032D02*
X98905943Y-119615032D01*
X98905943Y-119615032D02*
X98904383Y-119609051D01*
X98904383Y-119609051D02*
X98902788Y-119603082D01*
X98902788Y-119603082D02*
X98901157Y-119597125D01*
X98901157Y-119597125D02*
X98899491Y-119591187D01*
X98899491Y-119591187D02*
X98897787Y-119585261D01*
X98897787Y-119585261D02*
X98896049Y-119579353D01*
X98896049Y-119579353D02*
X98894277Y-119573458D01*
X98894277Y-119573458D02*
X98892468Y-119567580D01*
X98892468Y-119567580D02*
X98888744Y-119555868D01*
X98888744Y-119555868D02*
X98884884Y-119544220D01*
X98884884Y-119544220D02*
X98880883Y-119532635D01*
X98880883Y-119532635D02*
X98876745Y-119521116D01*
X98876745Y-119521116D02*
X98872471Y-119509660D01*
X98872471Y-119509660D02*
X98868061Y-119498274D01*
X98868061Y-119498274D02*
X98863517Y-119486955D01*
X98863517Y-119486955D02*
X98858841Y-119475703D01*
X98858841Y-119475703D02*
X98854030Y-119464522D01*
X98854030Y-119464522D02*
X98849090Y-119453412D01*
X98849090Y-119453412D02*
X98844018Y-119442373D01*
X98844018Y-119442373D02*
X98838816Y-119431408D01*
X98838816Y-119431408D02*
X98833484Y-119420517D01*
X98833484Y-119420517D02*
X98828026Y-119409699D01*
X98828026Y-119409699D02*
X98822440Y-119398955D01*
X98822440Y-119398955D02*
X98816730Y-119388289D01*
X98816730Y-119388289D02*
X98810896Y-119377702D01*
X98810896Y-119377702D02*
X98804937Y-119367192D01*
X98804937Y-119367192D02*
X98798856Y-119356763D01*
X98798856Y-119356763D02*
X98792651Y-119346412D01*
X98792651Y-119346412D02*
X98786329Y-119336145D01*
X98786329Y-119336145D02*
X98779885Y-119325960D01*
X98779885Y-119325960D02*
X98773322Y-119315858D01*
X98773322Y-119315858D02*
X98766642Y-119305841D01*
X98766642Y-119305841D02*
X98759845Y-119295909D01*
X98759845Y-119295909D02*
X98752931Y-119286062D01*
X98752931Y-119286062D02*
X98745902Y-119276303D01*
X98745902Y-119276303D02*
X98738760Y-119266633D01*
X98738760Y-119266633D02*
X98731506Y-119257052D01*
X98731506Y-119257052D02*
X98724140Y-119247563D01*
X98724140Y-119247563D02*
X98716662Y-119238165D01*
X98716662Y-119238165D02*
X98709075Y-119228858D01*
X98709075Y-119228858D02*
X98701379Y-119219643D01*
X98701379Y-119219643D02*
X98693573Y-119210525D01*
X98693573Y-119210525D02*
X98685661Y-119201500D01*
X98685661Y-119201500D02*
X98677645Y-119192572D01*
X98677645Y-119192572D02*
X98669522Y-119183743D01*
X98669522Y-119183743D02*
X98661295Y-119175010D01*
X98661295Y-119175010D02*
X98652964Y-119166377D01*
X98652964Y-119166377D02*
X98644534Y-119157842D01*
X98644534Y-119157842D02*
X98635999Y-119149412D01*
X98635999Y-119149412D02*
X98627366Y-119141081D01*
X98627366Y-119141081D02*
X98618633Y-119132854D01*
X98618633Y-119132854D02*
X98609804Y-119124731D01*
X98609804Y-119124731D02*
X98600876Y-119116715D01*
X98600876Y-119116715D02*
X98591851Y-119108803D01*
X98591851Y-119108803D02*
X98582733Y-119100997D01*
X98582733Y-119100997D02*
X98573518Y-119093301D01*
X98573518Y-119093301D02*
X98564211Y-119085714D01*
X98564211Y-119085714D02*
X98554813Y-119078236D01*
X98554813Y-119078236D02*
X98545324Y-119070870D01*
X98545324Y-119070870D02*
X98535743Y-119063616D01*
X98535743Y-119063616D02*
X98526073Y-119056474D01*
X98526073Y-119056474D02*
X98516314Y-119049445D01*
X98516314Y-119049445D02*
X98506467Y-119042532D01*
X98506467Y-119042532D02*
X98496535Y-119035735D01*
X98496535Y-119035735D02*
X98486518Y-119029054D01*
X98486518Y-119029054D02*
X98476416Y-119022491D01*
X98476416Y-119022491D02*
X98466231Y-119016047D01*
X98466231Y-119016047D02*
X98455964Y-119009725D01*
X98455964Y-119009725D02*
X98445614Y-119003520D01*
X98445614Y-119003520D02*
X98435184Y-118997439D01*
X98435184Y-118997439D02*
X98424674Y-118991480D01*
X98424674Y-118991480D02*
X98414087Y-118985646D01*
X98414087Y-118985646D02*
X98403422Y-118979936D01*
X98403422Y-118979936D02*
X98392677Y-118974350D01*
X98392677Y-118974350D02*
X98381860Y-118968892D01*
X98381860Y-118968892D02*
X98370968Y-118963560D01*
X98370968Y-118963560D02*
X98360003Y-118958358D01*
X98360003Y-118958358D02*
X98348964Y-118953286D01*
X98348964Y-118953286D02*
X98337854Y-118948346D01*
X98337854Y-118948346D02*
X98326673Y-118943535D01*
X98326673Y-118943535D02*
X98315421Y-118938859D01*
X98315421Y-118938859D02*
X98304102Y-118934315D01*
X98304102Y-118934315D02*
X98292716Y-118929905D01*
X98292716Y-118929905D02*
X98281260Y-118925631D01*
X98281260Y-118925631D02*
X98269741Y-118921493D01*
X98269741Y-118921493D02*
X98258156Y-118917492D01*
X98258156Y-118917492D02*
X98246508Y-118913632D01*
X98246508Y-118913632D02*
X98234796Y-118909908D01*
X98234796Y-118909908D02*
X98228918Y-118908100D01*
X98228918Y-118908100D02*
X98223023Y-118906327D01*
X98223023Y-118906327D02*
X98217115Y-118904589D01*
X98217115Y-118904589D02*
X98211189Y-118902885D01*
X98211189Y-118902885D02*
X98205251Y-118901219D01*
X98205251Y-118901219D02*
X98199294Y-118899588D01*
X98199294Y-118899588D02*
X98193325Y-118897993D01*
X98193325Y-118897993D02*
X98187344Y-118896433D01*
X98187344Y-118896433D02*
X98181344Y-118894909D01*
X98181344Y-118894909D02*
X98175332Y-118893423D01*
X98175332Y-118893423D02*
X98169305Y-118891971D01*
X98169305Y-118891971D02*
X98163265Y-118890558D01*
X98163265Y-118890558D02*
X98157209Y-118889179D01*
X98157209Y-118889179D02*
X98151141Y-118887838D01*
X98151141Y-118887838D02*
X98145058Y-118886535D01*
X98145058Y-118886535D02*
X98138962Y-118885267D01*
X98138962Y-118885267D02*
X98132853Y-118884036D01*
X98132853Y-118884036D02*
X98126729Y-118882844D01*
X98126729Y-118882844D02*
X98120593Y-118881689D01*
X98120593Y-118881689D02*
X98114443Y-118880568D01*
X98114443Y-118880568D02*
X98108281Y-118879489D01*
X98108281Y-118879489D02*
X98102106Y-118878445D01*
X98102106Y-118878445D02*
X98095919Y-118877439D01*
X98095919Y-118877439D02*
X98089719Y-118876471D01*
X98089719Y-118876471D02*
X98083503Y-118875544D01*
X98083503Y-118875544D02*
X98077278Y-118874653D01*
X98077278Y-118874653D02*
X98071042Y-118873799D01*
X98071042Y-118873799D02*
X98064791Y-118872984D01*
X98064791Y-118872984D02*
X98058530Y-118872209D01*
X98058530Y-118872209D02*
X98052254Y-118871470D01*
X98052254Y-118871470D02*
X98045970Y-118870772D01*
X98045970Y-118870772D02*
X98039671Y-118870114D01*
X98039671Y-118870114D02*
X98033364Y-118869492D01*
X98033364Y-118869492D02*
X98027042Y-118868910D01*
X98027042Y-118868910D02*
X98020712Y-118868369D01*
X98020712Y-118868369D02*
X98014367Y-118867866D01*
X98014367Y-118867866D02*
X98008015Y-118867404D01*
X98008015Y-118867404D02*
X98001649Y-118866979D01*
X98001649Y-118866979D02*
X97995274Y-118866596D01*
X97995274Y-118866596D02*
X97988888Y-118866250D01*
X97988888Y-118866250D02*
X97982490Y-118865948D01*
X97982490Y-118865948D02*
X97976084Y-118865684D01*
X97976084Y-118865684D02*
X97969666Y-118865455D01*
X97969666Y-118865455D02*
X97963240Y-118865278D01*
X97963240Y-118865278D02*
X97956801Y-118865125D01*
X97956801Y-118865125D02*
X97950354Y-118865024D01*
X97950354Y-118865024D02*
X97943895Y-118864973D01*
X97943895Y-118864973D02*
X97937428Y-118864973D01*
X97937405Y-135864916D02*
X97943872Y-135864916D01*
X97943872Y-135864916D02*
X97950331Y-135864865D01*
X97950331Y-135864865D02*
X97956778Y-135864764D01*
X97956778Y-135864764D02*
X97963217Y-135864611D01*
X97963217Y-135864611D02*
X97969643Y-135864433D01*
X97969643Y-135864433D02*
X97976061Y-135864205D01*
X97976061Y-135864205D02*
X97982467Y-135863941D01*
X97982467Y-135863941D02*
X97988866Y-135863638D01*
X97988866Y-135863638D02*
X97995251Y-135863293D01*
X97995251Y-135863293D02*
X98001627Y-135862909D01*
X98001627Y-135862909D02*
X98007992Y-135862485D01*
X98007992Y-135862485D02*
X98014344Y-135862023D01*
X98014344Y-135862023D02*
X98020689Y-135861520D01*
X98020689Y-135861520D02*
X98027019Y-135860979D01*
X98027019Y-135860979D02*
X98033341Y-135860397D01*
X98033341Y-135860397D02*
X98039648Y-135859775D01*
X98039648Y-135859775D02*
X98045947Y-135859117D01*
X98045947Y-135859117D02*
X98052231Y-135858419D01*
X98052231Y-135858419D02*
X98058507Y-135857680D01*
X98058507Y-135857680D02*
X98064768Y-135856905D01*
X98064768Y-135856905D02*
X98071019Y-135856090D01*
X98071019Y-135856090D02*
X98077255Y-135855236D01*
X98077255Y-135855236D02*
X98083481Y-135854345D01*
X98083481Y-135854345D02*
X98089696Y-135853417D01*
X98089696Y-135853417D02*
X98095896Y-135852450D01*
X98095896Y-135852450D02*
X98102084Y-135851444D01*
X98102084Y-135851444D02*
X98108258Y-135850400D01*
X98108258Y-135850400D02*
X98114420Y-135849320D01*
X98114420Y-135849320D02*
X98120570Y-135848200D01*
X98120570Y-135848200D02*
X98126706Y-135847045D01*
X98126706Y-135847045D02*
X98132830Y-135845853D01*
X98132830Y-135845853D02*
X98138939Y-135844621D01*
X98138939Y-135844621D02*
X98145035Y-135843354D01*
X98145035Y-135843354D02*
X98151118Y-135842051D01*
X98151118Y-135842051D02*
X98157186Y-135840710D01*
X98157186Y-135840710D02*
X98163242Y-135839331D01*
X98163242Y-135839331D02*
X98169282Y-135837918D01*
X98169282Y-135837918D02*
X98175309Y-135836465D01*
X98175309Y-135836465D02*
X98181321Y-135834980D01*
X98181321Y-135834980D02*
X98187321Y-135833456D01*
X98187321Y-135833456D02*
X98193303Y-135831896D01*
X98193303Y-135831896D02*
X98199272Y-135830301D01*
X98199272Y-135830301D02*
X98205228Y-135828670D01*
X98205228Y-135828670D02*
X98211166Y-135827004D01*
X98211166Y-135827004D02*
X98217092Y-135825300D01*
X98217092Y-135825300D02*
X98223000Y-135823562D01*
X98223000Y-135823562D02*
X98228896Y-135821789D01*
X98228896Y-135821789D02*
X98234773Y-135819981D01*
X98234773Y-135819981D02*
X98246485Y-135816257D01*
X98246485Y-135816257D02*
X98258134Y-135812396D01*
X98258134Y-135812396D02*
X98269719Y-135808396D01*
X98269719Y-135808396D02*
X98281237Y-135804258D01*
X98281237Y-135804258D02*
X98292693Y-135799983D01*
X98292693Y-135799983D02*
X98304080Y-135795574D01*
X98304080Y-135795574D02*
X98315398Y-135791030D01*
X98315398Y-135791030D02*
X98326650Y-135786354D01*
X98326650Y-135786354D02*
X98337831Y-135781543D01*
X98337831Y-135781543D02*
X98348941Y-135776603D01*
X98348941Y-135776603D02*
X98359980Y-135771530D01*
X98359980Y-135771530D02*
X98370945Y-135766328D01*
X98370945Y-135766328D02*
X98381837Y-135760997D01*
X98381837Y-135760997D02*
X98392655Y-135755539D01*
X98392655Y-135755539D02*
X98403399Y-135749953D01*
X98403399Y-135749953D02*
X98414064Y-135744243D01*
X98414064Y-135744243D02*
X98424651Y-135738409D01*
X98424651Y-135738409D02*
X98435161Y-135732450D01*
X98435161Y-135732450D02*
X98445591Y-135726369D01*
X98445591Y-135726369D02*
X98455941Y-135720164D01*
X98455941Y-135720164D02*
X98466208Y-135713842D01*
X98466208Y-135713842D02*
X98476393Y-135707398D01*
X98476393Y-135707398D02*
X98486495Y-135700835D01*
X98486495Y-135700835D02*
X98496513Y-135694154D01*
X98496513Y-135694154D02*
X98506444Y-135687357D01*
X98506444Y-135687357D02*
X98516292Y-135680443D01*
X98516292Y-135680443D02*
X98526050Y-135673415D01*
X98526050Y-135673415D02*
X98535720Y-135666273D01*
X98535720Y-135666273D02*
X98545301Y-135659019D01*
X98545301Y-135659019D02*
X98554790Y-135651653D01*
X98554790Y-135651653D02*
X98564188Y-135644175D01*
X98564188Y-135644175D02*
X98573495Y-135636588D01*
X98573495Y-135636588D02*
X98582710Y-135628892D01*
X98582710Y-135628892D02*
X98591829Y-135621086D01*
X98591829Y-135621086D02*
X98600853Y-135613174D01*
X98600853Y-135613174D02*
X98609781Y-135605158D01*
X98609781Y-135605158D02*
X98618610Y-135597035D01*
X98618610Y-135597035D02*
X98627343Y-135588808D01*
X98627343Y-135588808D02*
X98635976Y-135580477D01*
X98635976Y-135580477D02*
X98644511Y-135572046D01*
X98644511Y-135572046D02*
X98652941Y-135563512D01*
X98652941Y-135563512D02*
X98661272Y-135554879D01*
X98661272Y-135554879D02*
X98669499Y-135546146D01*
X98669499Y-135546146D02*
X98677622Y-135537317D01*
X98677622Y-135537317D02*
X98685638Y-135528389D01*
X98685638Y-135528389D02*
X98693551Y-135519364D01*
X98693551Y-135519364D02*
X98701356Y-135510246D01*
X98701356Y-135510246D02*
X98709052Y-135501031D01*
X98709052Y-135501031D02*
X98716639Y-135491724D01*
X98716639Y-135491724D02*
X98724117Y-135482326D01*
X98724117Y-135482326D02*
X98731483Y-135472837D01*
X98731483Y-135472837D02*
X98738737Y-135463256D01*
X98738737Y-135463256D02*
X98745880Y-135453586D01*
X98745880Y-135453586D02*
X98752908Y-135443827D01*
X98752908Y-135443827D02*
X98759822Y-135433980D01*
X98759822Y-135433980D02*
X98766619Y-135424048D01*
X98766619Y-135424048D02*
X98773299Y-135414030D01*
X98773299Y-135414030D02*
X98779862Y-135403929D01*
X98779862Y-135403929D02*
X98786306Y-135393743D01*
X98786306Y-135393743D02*
X98792628Y-135383477D01*
X98792628Y-135383477D02*
X98798834Y-135373126D01*
X98798834Y-135373126D02*
X98804914Y-135362697D01*
X98804914Y-135362697D02*
X98810873Y-135352187D01*
X98810873Y-135352187D02*
X98816708Y-135341600D01*
X98816708Y-135341600D02*
X98822417Y-135330934D01*
X98822417Y-135330934D02*
X98828003Y-135320190D01*
X98828003Y-135320190D02*
X98833461Y-135309372D01*
X98833461Y-135309372D02*
X98838793Y-135298481D01*
X98838793Y-135298481D02*
X98843995Y-135287516D01*
X98843995Y-135287516D02*
X98849067Y-135276477D01*
X98849067Y-135276477D02*
X98854007Y-135265367D01*
X98854007Y-135265367D02*
X98858818Y-135254186D01*
X98858818Y-135254186D02*
X98863494Y-135242934D01*
X98863494Y-135242934D02*
X98868038Y-135231615D01*
X98868038Y-135231615D02*
X98872448Y-135220228D01*
X98872448Y-135220228D02*
X98876723Y-135208773D01*
X98876723Y-135208773D02*
X98880860Y-135197254D01*
X98880860Y-135197254D02*
X98884861Y-135185669D01*
X98884861Y-135185669D02*
X98888722Y-135174021D01*
X98888722Y-135174021D02*
X98892445Y-135162309D01*
X98892445Y-135162309D02*
X98894254Y-135156431D01*
X98894254Y-135156431D02*
X98896027Y-135150536D01*
X98896027Y-135150536D02*
X98897764Y-135144628D01*
X98897764Y-135144628D02*
X98899468Y-135138702D01*
X98899468Y-135138702D02*
X98901135Y-135132764D01*
X98901135Y-135132764D02*
X98902765Y-135126807D01*
X98902765Y-135126807D02*
X98904360Y-135120838D01*
X98904360Y-135120838D02*
X98905920Y-135114857D01*
X98905920Y-135114857D02*
X98907444Y-135108857D01*
X98907444Y-135108857D02*
X98908930Y-135102845D01*
X98908930Y-135102845D02*
X98910383Y-135096817D01*
X98910383Y-135096817D02*
X98911795Y-135090777D01*
X98911795Y-135090777D02*
X98913174Y-135084722D01*
X98913174Y-135084722D02*
X98914515Y-135078654D01*
X98914515Y-135078654D02*
X98915818Y-135072571D01*
X98915818Y-135072571D02*
X98917086Y-135066475D01*
X98917086Y-135066475D02*
X98918318Y-135060366D01*
X98918318Y-135060366D02*
X98919509Y-135054242D01*
X98919509Y-135054242D02*
X98920665Y-135048105D01*
X98920665Y-135048105D02*
X98921785Y-135041956D01*
X98921785Y-135041956D02*
X98922864Y-135035794D01*
X98922864Y-135035794D02*
X98923908Y-135029619D01*
X98923908Y-135029619D02*
X98924914Y-135023432D01*
X98924914Y-135023432D02*
X98925882Y-135017232D01*
X98925882Y-135017232D02*
X98926809Y-135011016D01*
X98926809Y-135011016D02*
X98927700Y-135004791D01*
X98927700Y-135004791D02*
X98928554Y-134998555D01*
X98928554Y-134998555D02*
X98929369Y-134992304D01*
X98929369Y-134992304D02*
X98930144Y-134986043D01*
X98930144Y-134986043D02*
X98930883Y-134979767D01*
X98930883Y-134979767D02*
X98931582Y-134973483D01*
X98931582Y-134973483D02*
X98932239Y-134967183D01*
X98932239Y-134967183D02*
X98932862Y-134960877D01*
X98932862Y-134960877D02*
X98933443Y-134954555D01*
X98933443Y-134954555D02*
X98933984Y-134948225D01*
X98933984Y-134948225D02*
X98934487Y-134941880D01*
X98934487Y-134941880D02*
X98934950Y-134935527D01*
X98934950Y-134935527D02*
X98935374Y-134929162D01*
X98935374Y-134929162D02*
X98935757Y-134922787D01*
X98935757Y-134922787D02*
X98936103Y-134916401D01*
X98936103Y-134916401D02*
X98936405Y-134910003D01*
X98936405Y-134910003D02*
X98936669Y-134903597D01*
X98936669Y-134903597D02*
X98936898Y-134897179D01*
X98936898Y-134897179D02*
X98937076Y-134890752D01*
X98937076Y-134890752D02*
X98937228Y-134884313D01*
X98937228Y-134884313D02*
X98937330Y-134877867D01*
X98937330Y-134877867D02*
X98937380Y-134871408D01*
X98937380Y-134871408D02*
X98937380Y-134864941D01*
X82937435Y-118864950D02*
X82930968Y-118864950D01*
X82930968Y-118864950D02*
X82924509Y-118865001D01*
X82924509Y-118865001D02*
X82918063Y-118865102D01*
X82918063Y-118865102D02*
X82911624Y-118865255D01*
X82911624Y-118865255D02*
X82905198Y-118865433D01*
X82905198Y-118865433D02*
X82898779Y-118865661D01*
X82898779Y-118865661D02*
X82892373Y-118865925D01*
X82892373Y-118865925D02*
X82885975Y-118866228D01*
X82885975Y-118866228D02*
X82879589Y-118866573D01*
X82879589Y-118866573D02*
X82873214Y-118866957D01*
X82873214Y-118866957D02*
X82866849Y-118867381D01*
X82866849Y-118867381D02*
X82860496Y-118867843D01*
X82860496Y-118867843D02*
X82854151Y-118868346D01*
X82854151Y-118868346D02*
X82847821Y-118868887D01*
X82847821Y-118868887D02*
X82841499Y-118869469D01*
X82841499Y-118869469D02*
X82835193Y-118870091D01*
X82835193Y-118870091D02*
X82828893Y-118870749D01*
X82828893Y-118870749D02*
X82822609Y-118871447D01*
X82822609Y-118871447D02*
X82816333Y-118872186D01*
X82816333Y-118872186D02*
X82810072Y-118872961D01*
X82810072Y-118872961D02*
X82803821Y-118873776D01*
X82803821Y-118873776D02*
X82797585Y-118874630D01*
X82797585Y-118874630D02*
X82791360Y-118875521D01*
X82791360Y-118875521D02*
X82785144Y-118876449D01*
X82785144Y-118876449D02*
X82778944Y-118877416D01*
X82778944Y-118877416D02*
X82772757Y-118878422D01*
X82772757Y-118878422D02*
X82766582Y-118879466D01*
X82766582Y-118879466D02*
X82760420Y-118880546D01*
X82760420Y-118880546D02*
X82754271Y-118881666D01*
X82754271Y-118881666D02*
X82748134Y-118882821D01*
X82748134Y-118882821D02*
X82742010Y-118884013D01*
X82742010Y-118884013D02*
X82735901Y-118885245D01*
X82735901Y-118885245D02*
X82729805Y-118886512D01*
X82729805Y-118886512D02*
X82723722Y-118887815D01*
X82723722Y-118887815D02*
X82717654Y-118889156D01*
X82717654Y-118889156D02*
X82711599Y-118890535D01*
X82711599Y-118890535D02*
X82705559Y-118891948D01*
X82705559Y-118891948D02*
X82699531Y-118893401D01*
X82699531Y-118893401D02*
X82693519Y-118894886D01*
X82693519Y-118894886D02*
X82687520Y-118896410D01*
X82687520Y-118896410D02*
X82681538Y-118897970D01*
X82681538Y-118897970D02*
X82675569Y-118899565D01*
X82675569Y-118899565D02*
X82669613Y-118901196D01*
X82669613Y-118901196D02*
X82663674Y-118902862D01*
X82663674Y-118902862D02*
X82657748Y-118904566D01*
X82657748Y-118904566D02*
X82651840Y-118906304D01*
X82651840Y-118906304D02*
X82645945Y-118908077D01*
X82645945Y-118908077D02*
X82640067Y-118909885D01*
X82640067Y-118909885D02*
X82628355Y-118913609D01*
X82628355Y-118913609D02*
X82616707Y-118917470D01*
X82616707Y-118917470D02*
X82605122Y-118921470D01*
X82605122Y-118921470D02*
X82593603Y-118925608D01*
X82593603Y-118925608D02*
X82582148Y-118929883D01*
X82582148Y-118929883D02*
X82570761Y-118934292D01*
X82570761Y-118934292D02*
X82559443Y-118938836D01*
X82559443Y-118938836D02*
X82548190Y-118943512D01*
X82548190Y-118943512D02*
X82537009Y-118948323D01*
X82537009Y-118948323D02*
X82525899Y-118953263D01*
X82525899Y-118953263D02*
X82514861Y-118958336D01*
X82514861Y-118958336D02*
X82503895Y-118963538D01*
X82503895Y-118963538D02*
X82493004Y-118968869D01*
X82493004Y-118968869D02*
X82482186Y-118974327D01*
X82482186Y-118974327D02*
X82471442Y-118979913D01*
X82471442Y-118979913D02*
X82460776Y-118985623D01*
X82460776Y-118985623D02*
X82450190Y-118991457D01*
X82450190Y-118991457D02*
X82439679Y-118997416D01*
X82439679Y-118997416D02*
X82429250Y-119003497D01*
X82429250Y-119003497D02*
X82418899Y-119009702D01*
X82418899Y-119009702D02*
X82408633Y-119016024D01*
X82408633Y-119016024D02*
X82398447Y-119022468D01*
X82398447Y-119022468D02*
X82388346Y-119029031D01*
X82388346Y-119029031D02*
X82378328Y-119035712D01*
X82378328Y-119035712D02*
X82368396Y-119042509D01*
X82368396Y-119042509D02*
X82358549Y-119049423D01*
X82358549Y-119049423D02*
X82348790Y-119056451D01*
X82348790Y-119056451D02*
X82339120Y-119063593D01*
X82339120Y-119063593D02*
X82329540Y-119070847D01*
X82329540Y-119070847D02*
X82320050Y-119078213D01*
X82320050Y-119078213D02*
X82310652Y-119085691D01*
X82310652Y-119085691D02*
X82301346Y-119093278D01*
X82301346Y-119093278D02*
X82292130Y-119100974D01*
X82292130Y-119100974D02*
X82283012Y-119108780D01*
X82283012Y-119108780D02*
X82273987Y-119116692D01*
X82273987Y-119116692D02*
X82265059Y-119124708D01*
X82265059Y-119124708D02*
X82256230Y-119132831D01*
X82256230Y-119132831D02*
X82247498Y-119141058D01*
X82247498Y-119141058D02*
X82238864Y-119149389D01*
X82238864Y-119149389D02*
X82230330Y-119157820D01*
X82230330Y-119157820D02*
X82221899Y-119166354D01*
X82221899Y-119166354D02*
X82213568Y-119174987D01*
X82213568Y-119174987D02*
X82205341Y-119183720D01*
X82205341Y-119183720D02*
X82197218Y-119192549D01*
X82197218Y-119192549D02*
X82189202Y-119201477D01*
X82189202Y-119201477D02*
X82181290Y-119210502D01*
X82181290Y-119210502D02*
X82173485Y-119219620D01*
X82173485Y-119219620D02*
X82165788Y-119228835D01*
X82165788Y-119228835D02*
X82158201Y-119238142D01*
X82158201Y-119238142D02*
X82150724Y-119247540D01*
X82150724Y-119247540D02*
X82143358Y-119257029D01*
X82143358Y-119257029D02*
X82136103Y-119266610D01*
X82136103Y-119266610D02*
X82128961Y-119276280D01*
X82128961Y-119276280D02*
X82121933Y-119286039D01*
X82121933Y-119286039D02*
X82115019Y-119295886D01*
X82115019Y-119295886D02*
X82108222Y-119305818D01*
X82108222Y-119305818D02*
X82101542Y-119315836D01*
X82101542Y-119315836D02*
X82094978Y-119325937D01*
X82094978Y-119325937D02*
X82088534Y-119336123D01*
X82088534Y-119336123D02*
X82082212Y-119346389D01*
X82082212Y-119346389D02*
X82076007Y-119356740D01*
X82076007Y-119356740D02*
X82069926Y-119367169D01*
X82069926Y-119367169D02*
X82063967Y-119377679D01*
X82063967Y-119377679D02*
X82058133Y-119388266D01*
X82058133Y-119388266D02*
X82052423Y-119398932D01*
X82052423Y-119398932D02*
X82046838Y-119409676D01*
X82046838Y-119409676D02*
X82041379Y-119420494D01*
X82041379Y-119420494D02*
X82036048Y-119431385D01*
X82036048Y-119431385D02*
X82030846Y-119442350D01*
X82030846Y-119442350D02*
X82025773Y-119453389D01*
X82025773Y-119453389D02*
X82020833Y-119464499D01*
X82020833Y-119464499D02*
X82016022Y-119475680D01*
X82016022Y-119475680D02*
X82011346Y-119486932D01*
X82011346Y-119486932D02*
X82006802Y-119498251D01*
X82006802Y-119498251D02*
X82002393Y-119509638D01*
X82002393Y-119509638D02*
X81998118Y-119521093D01*
X81998118Y-119521093D02*
X81993980Y-119532612D01*
X81993980Y-119532612D02*
X81989980Y-119544197D01*
X81989980Y-119544197D02*
X81986119Y-119555845D01*
X81986119Y-119555845D02*
X81982395Y-119567557D01*
X81982395Y-119567557D02*
X81980587Y-119573435D01*
X81980587Y-119573435D02*
X81978814Y-119579330D01*
X81978814Y-119579330D02*
X81977076Y-119585238D01*
X81977076Y-119585238D02*
X81975372Y-119591164D01*
X81975372Y-119591164D02*
X81973706Y-119597102D01*
X81973706Y-119597102D02*
X81972075Y-119603059D01*
X81972075Y-119603059D02*
X81970480Y-119609028D01*
X81970480Y-119609028D02*
X81968921Y-119615009D01*
X81968921Y-119615009D02*
X81967397Y-119621009D01*
X81967397Y-119621009D02*
X81965911Y-119627021D01*
X81965911Y-119627021D02*
X81964458Y-119633049D01*
X81964458Y-119633049D02*
X81963046Y-119639089D01*
X81963046Y-119639089D02*
X81961666Y-119645144D01*
X81961666Y-119645144D02*
X81960325Y-119651212D01*
X81960325Y-119651212D02*
X81959022Y-119657295D01*
X81959022Y-119657295D02*
X81957755Y-119663391D01*
X81957755Y-119663391D02*
X81956523Y-119669500D01*
X81956523Y-119669500D02*
X81955332Y-119675624D01*
X81955332Y-119675624D02*
X81954176Y-119681761D01*
X81954176Y-119681761D02*
X81953056Y-119687910D01*
X81953056Y-119687910D02*
X81951976Y-119694072D01*
X81951976Y-119694072D02*
X81950932Y-119700247D01*
X81950932Y-119700247D02*
X81949926Y-119706434D01*
X81949926Y-119706434D02*
X81948959Y-119712634D01*
X81948959Y-119712634D02*
X81948032Y-119718850D01*
X81948032Y-119718850D02*
X81947140Y-119725075D01*
X81947140Y-119725075D02*
X81946287Y-119731311D01*
X81946287Y-119731311D02*
X81945471Y-119737562D01*
X81945471Y-119737562D02*
X81944697Y-119743823D01*
X81944697Y-119743823D02*
X81943957Y-119750099D01*
X81943957Y-119750099D02*
X81943259Y-119756383D01*
X81943259Y-119756383D02*
X81942601Y-119762683D01*
X81942601Y-119762683D02*
X81941979Y-119768989D01*
X81941979Y-119768989D02*
X81941397Y-119775311D01*
X81941397Y-119775311D02*
X81940856Y-119781641D01*
X81940856Y-119781641D02*
X81940353Y-119787986D01*
X81940353Y-119787986D02*
X81939891Y-119794339D01*
X81939891Y-119794339D02*
X81939467Y-119800704D01*
X81939467Y-119800704D02*
X81939083Y-119807079D01*
X81939083Y-119807079D02*
X81938738Y-119813465D01*
X81938738Y-119813465D02*
X81938435Y-119819863D01*
X81938435Y-119819863D02*
X81938171Y-119826269D01*
X81938171Y-119826269D02*
X81937943Y-119832687D01*
X81937943Y-119832687D02*
X81937765Y-119839114D01*
X81937765Y-119839114D02*
X81937612Y-119845553D01*
X81937612Y-119845553D02*
X81937511Y-119851999D01*
X81937511Y-119851999D02*
X81937460Y-119858458D01*
X81937460Y-119858458D02*
X81937460Y-119864925D01*
X81937437Y-134864918D02*
X81937437Y-134871385D01*
X81937437Y-134871385D02*
X81937488Y-134877844D01*
X81937488Y-134877844D02*
X81937590Y-134884291D01*
X81937590Y-134884291D02*
X81937742Y-134890729D01*
X81937742Y-134890729D02*
X81937920Y-134897156D01*
X81937920Y-134897156D02*
X81938148Y-134903574D01*
X81938148Y-134903574D02*
X81938413Y-134909980D01*
X81938413Y-134909980D02*
X81938715Y-134916378D01*
X81938715Y-134916378D02*
X81939060Y-134922764D01*
X81939060Y-134922764D02*
X81939444Y-134929139D01*
X81939444Y-134929139D02*
X81939868Y-134935505D01*
X81939868Y-134935505D02*
X81940330Y-134941857D01*
X81940330Y-134941857D02*
X81940833Y-134948202D01*
X81940833Y-134948202D02*
X81941374Y-134954532D01*
X81941374Y-134954532D02*
X81941956Y-134960854D01*
X81941956Y-134960854D02*
X81942578Y-134967161D01*
X81942578Y-134967161D02*
X81943236Y-134973460D01*
X81943236Y-134973460D02*
X81943935Y-134979744D01*
X81943935Y-134979744D02*
X81944674Y-134986020D01*
X81944674Y-134986020D02*
X81945448Y-134992281D01*
X81945448Y-134992281D02*
X81946264Y-134998532D01*
X81946264Y-134998532D02*
X81947117Y-135004768D01*
X81947117Y-135004768D02*
X81948009Y-135010993D01*
X81948009Y-135010993D02*
X81948936Y-135017209D01*
X81948936Y-135017209D02*
X81949904Y-135023409D01*
X81949904Y-135023409D02*
X81950909Y-135029596D01*
X81950909Y-135029596D02*
X81951953Y-135035771D01*
X81951953Y-135035771D02*
X81953033Y-135041933D01*
X81953033Y-135041933D02*
X81954153Y-135048082D01*
X81954153Y-135048082D02*
X81955309Y-135054219D01*
X81955309Y-135054219D02*
X81956500Y-135060343D01*
X81956500Y-135060343D02*
X81957732Y-135066452D01*
X81957732Y-135066452D02*
X81958999Y-135072548D01*
X81958999Y-135072548D02*
X81960302Y-135078631D01*
X81960302Y-135078631D02*
X81961643Y-135084699D01*
X81961643Y-135084699D02*
X81963023Y-135090754D01*
X81963023Y-135090754D02*
X81964435Y-135096795D01*
X81964435Y-135096795D02*
X81965888Y-135102822D01*
X81965888Y-135102822D02*
X81967374Y-135108834D01*
X81967374Y-135108834D02*
X81968898Y-135114834D01*
X81968898Y-135114834D02*
X81970457Y-135120815D01*
X81970457Y-135120815D02*
X81972052Y-135126784D01*
X81972052Y-135126784D02*
X81973683Y-135132741D01*
X81973683Y-135132741D02*
X81975349Y-135138679D01*
X81975349Y-135138679D02*
X81977054Y-135144605D01*
X81977054Y-135144605D02*
X81978791Y-135150513D01*
X81978791Y-135150513D02*
X81980564Y-135156408D01*
X81980564Y-135156408D02*
X81982372Y-135162286D01*
X81982372Y-135162286D02*
X81986096Y-135173998D01*
X81986096Y-135173998D02*
X81989957Y-135185646D01*
X81989957Y-135185646D02*
X81993957Y-135197231D01*
X81993957Y-135197231D02*
X81998095Y-135208750D01*
X81998095Y-135208750D02*
X82002370Y-135220206D01*
X82002370Y-135220206D02*
X82006779Y-135231592D01*
X82006779Y-135231592D02*
X82011323Y-135242911D01*
X82011323Y-135242911D02*
X82015999Y-135254163D01*
X82015999Y-135254163D02*
X82020810Y-135265344D01*
X82020810Y-135265344D02*
X82025750Y-135276454D01*
X82025750Y-135276454D02*
X82030823Y-135287493D01*
X82030823Y-135287493D02*
X82036025Y-135298458D01*
X82036025Y-135298458D02*
X82041356Y-135309349D01*
X82041356Y-135309349D02*
X82046815Y-135320167D01*
X82046815Y-135320167D02*
X82052400Y-135330911D01*
X82052400Y-135330911D02*
X82058110Y-135341577D01*
X82058110Y-135341577D02*
X82063944Y-135352164D01*
X82063944Y-135352164D02*
X82069903Y-135362674D01*
X82069903Y-135362674D02*
X82075984Y-135373103D01*
X82075984Y-135373103D02*
X82082189Y-135383454D01*
X82082189Y-135383454D02*
X82088511Y-135393721D01*
X82088511Y-135393721D02*
X82094955Y-135403906D01*
X82094955Y-135403906D02*
X82101519Y-135414008D01*
X82101519Y-135414008D02*
X82108199Y-135424025D01*
X82108199Y-135424025D02*
X82114996Y-135433957D01*
X82114996Y-135433957D02*
X82121910Y-135443804D01*
X82121910Y-135443804D02*
X82128938Y-135453563D01*
X82128938Y-135453563D02*
X82136080Y-135463233D01*
X82136080Y-135463233D02*
X82143335Y-135472814D01*
X82143335Y-135472814D02*
X82150701Y-135482303D01*
X82150701Y-135482303D02*
X82158178Y-135491701D01*
X82158178Y-135491701D02*
X82165765Y-135501008D01*
X82165765Y-135501008D02*
X82173462Y-135510223D01*
X82173462Y-135510223D02*
X82181267Y-135519341D01*
X82181267Y-135519341D02*
X82189179Y-135528366D01*
X82189179Y-135528366D02*
X82197195Y-135537294D01*
X82197195Y-135537294D02*
X82205318Y-135546123D01*
X82205318Y-135546123D02*
X82213545Y-135554856D01*
X82213545Y-135554856D02*
X82221877Y-135563489D01*
X82221877Y-135563489D02*
X82230307Y-135572024D01*
X82230307Y-135572024D02*
X82238841Y-135580454D01*
X82238841Y-135580454D02*
X82247475Y-135588785D01*
X82247475Y-135588785D02*
X82256207Y-135597012D01*
X82256207Y-135597012D02*
X82265036Y-135605135D01*
X82265036Y-135605135D02*
X82273964Y-135613151D01*
X82273964Y-135613151D02*
X82282989Y-135621063D01*
X82282989Y-135621063D02*
X82292108Y-135628869D01*
X82292108Y-135628869D02*
X82301323Y-135636565D01*
X82301323Y-135636565D02*
X82310629Y-135644152D01*
X82310629Y-135644152D02*
X82320027Y-135651630D01*
X82320027Y-135651630D02*
X82329517Y-135658996D01*
X82329517Y-135658996D02*
X82339098Y-135666250D01*
X82339098Y-135666250D02*
X82348767Y-135673392D01*
X82348767Y-135673392D02*
X82358526Y-135680421D01*
X82358526Y-135680421D02*
X82368374Y-135687334D01*
X82368374Y-135687334D02*
X82378305Y-135694131D01*
X82378305Y-135694131D02*
X82388323Y-135700812D01*
X82388323Y-135700812D02*
X82398424Y-135707375D01*
X82398424Y-135707375D02*
X82408610Y-135713819D01*
X82408610Y-135713819D02*
X82418876Y-135720141D01*
X82418876Y-135720141D02*
X82429227Y-135726346D01*
X82429227Y-135726346D02*
X82439656Y-135732427D01*
X82439656Y-135732427D02*
X82450167Y-135738386D01*
X82450167Y-135738386D02*
X82460753Y-135744220D01*
X82460753Y-135744220D02*
X82471419Y-135749930D01*
X82471419Y-135749930D02*
X82482163Y-135755516D01*
X82482163Y-135755516D02*
X82492981Y-135760974D01*
X82492981Y-135760974D02*
X82503872Y-135766306D01*
X82503872Y-135766306D02*
X82514838Y-135771508D01*
X82514838Y-135771508D02*
X82525876Y-135776580D01*
X82525876Y-135776580D02*
X82536986Y-135781520D01*
X82536986Y-135781520D02*
X82548168Y-135786331D01*
X82548168Y-135786331D02*
X82559420Y-135791007D01*
X82559420Y-135791007D02*
X82570738Y-135795551D01*
X82570738Y-135795551D02*
X82582125Y-135799961D01*
X82582125Y-135799961D02*
X82593580Y-135804235D01*
X82593580Y-135804235D02*
X82605099Y-135808373D01*
X82605099Y-135808373D02*
X82616684Y-135812374D01*
X82616684Y-135812374D02*
X82628332Y-135816234D01*
X82628332Y-135816234D02*
X82640044Y-135819958D01*
X82640044Y-135819958D02*
X82645922Y-135821766D01*
X82645922Y-135821766D02*
X82651817Y-135823539D01*
X82651817Y-135823539D02*
X82657725Y-135825277D01*
X82657725Y-135825277D02*
X82663651Y-135826981D01*
X82663651Y-135826981D02*
X82669590Y-135828647D01*
X82669590Y-135828647D02*
X82675546Y-135830278D01*
X82675546Y-135830278D02*
X82681515Y-135831873D01*
X82681515Y-135831873D02*
X82687497Y-135833433D01*
X82687497Y-135833433D02*
X82693496Y-135834957D01*
X82693496Y-135834957D02*
X82699508Y-135836443D01*
X82699508Y-135836443D02*
X82705536Y-135837895D01*
X82705536Y-135837895D02*
X82711576Y-135839308D01*
X82711576Y-135839308D02*
X82717631Y-135840687D01*
X82717631Y-135840687D02*
X82723699Y-135842028D01*
X82723699Y-135842028D02*
X82729783Y-135843331D01*
X82729783Y-135843331D02*
X82735879Y-135844599D01*
X82735879Y-135844599D02*
X82741987Y-135845830D01*
X82741987Y-135845830D02*
X82748111Y-135847022D01*
X82748111Y-135847022D02*
X82754248Y-135848177D01*
X82754248Y-135848177D02*
X82760397Y-135849298D01*
X82760397Y-135849298D02*
X82766559Y-135850377D01*
X82766559Y-135850377D02*
X82772734Y-135851421D01*
X82772734Y-135851421D02*
X82778921Y-135852427D01*
X82778921Y-135852427D02*
X82785122Y-135853395D01*
X82785122Y-135853395D02*
X82791337Y-135854322D01*
X82791337Y-135854322D02*
X82797563Y-135855213D01*
X82797563Y-135855213D02*
X82803798Y-135856067D01*
X82803798Y-135856067D02*
X82810049Y-135856882D01*
X82810049Y-135856882D02*
X82816310Y-135857657D01*
X82816310Y-135857657D02*
X82822587Y-135858396D01*
X82822587Y-135858396D02*
X82828871Y-135859094D01*
X82828871Y-135859094D02*
X82835170Y-135859752D01*
X82835170Y-135859752D02*
X82841477Y-135860374D01*
X82841477Y-135860374D02*
X82847799Y-135860956D01*
X82847799Y-135860956D02*
X82854128Y-135861497D01*
X82854128Y-135861497D02*
X82860473Y-135862000D01*
X82860473Y-135862000D02*
X82866826Y-135862462D01*
X82866826Y-135862462D02*
X82873191Y-135862887D01*
X82873191Y-135862887D02*
X82879566Y-135863270D01*
X82879566Y-135863270D02*
X82885952Y-135863616D01*
X82885952Y-135863616D02*
X82892350Y-135863918D01*
X82892350Y-135863918D02*
X82898756Y-135864182D01*
X82898756Y-135864182D02*
X82905175Y-135864411D01*
X82905175Y-135864411D02*
X82911601Y-135864588D01*
X82911601Y-135864588D02*
X82918040Y-135864741D01*
X82918040Y-135864741D02*
X82924486Y-135864842D01*
X82924486Y-135864842D02*
X82930946Y-135864893D01*
X82930946Y-135864893D02*
X82937412Y-135864893D01*
X100437019Y-119864440D02*
X100437019Y-134863140D01*
X100437019Y-134863140D02*
X100437019Y-119864440D01*
X101435239Y-135863900D02*
X116436479Y-135863900D01*
X116436479Y-135863900D02*
X101435239Y-135863900D01*
X117437239Y-134863140D02*
X117437239Y-119864440D01*
X117437239Y-119864440D02*
X117437239Y-134863140D01*
X116436479Y-118863680D02*
X101435239Y-118863680D01*
X101435239Y-118863680D02*
X116436479Y-118863680D01*
X116437495Y-135864916D02*
X116443962Y-135864916D01*
X116443962Y-135864916D02*
X116450421Y-135864865D01*
X116450421Y-135864865D02*
X116456868Y-135864764D01*
X116456868Y-135864764D02*
X116463307Y-135864611D01*
X116463307Y-135864611D02*
X116469733Y-135864433D01*
X116469733Y-135864433D02*
X116476151Y-135864205D01*
X116476151Y-135864205D02*
X116482557Y-135863941D01*
X116482557Y-135863941D02*
X116488956Y-135863638D01*
X116488956Y-135863638D02*
X116495341Y-135863293D01*
X116495341Y-135863293D02*
X116501717Y-135862909D01*
X116501717Y-135862909D02*
X116508082Y-135862485D01*
X116508082Y-135862485D02*
X116514434Y-135862023D01*
X116514434Y-135862023D02*
X116520779Y-135861520D01*
X116520779Y-135861520D02*
X116527109Y-135860979D01*
X116527109Y-135860979D02*
X116533431Y-135860397D01*
X116533431Y-135860397D02*
X116539738Y-135859775D01*
X116539738Y-135859775D02*
X116546037Y-135859117D01*
X116546037Y-135859117D02*
X116552321Y-135858419D01*
X116552321Y-135858419D02*
X116558597Y-135857680D01*
X116558597Y-135857680D02*
X116564858Y-135856905D01*
X116564858Y-135856905D02*
X116571109Y-135856090D01*
X116571109Y-135856090D02*
X116577345Y-135855236D01*
X116577345Y-135855236D02*
X116583571Y-135854345D01*
X116583571Y-135854345D02*
X116589786Y-135853417D01*
X116589786Y-135853417D02*
X116595986Y-135852450D01*
X116595986Y-135852450D02*
X116602174Y-135851444D01*
X116602174Y-135851444D02*
X116608348Y-135850400D01*
X116608348Y-135850400D02*
X116614510Y-135849320D01*
X116614510Y-135849320D02*
X116620660Y-135848200D01*
X116620660Y-135848200D02*
X116626796Y-135847045D01*
X116626796Y-135847045D02*
X116632920Y-135845853D01*
X116632920Y-135845853D02*
X116639029Y-135844621D01*
X116639029Y-135844621D02*
X116645125Y-135843354D01*
X116645125Y-135843354D02*
X116651208Y-135842051D01*
X116651208Y-135842051D02*
X116657276Y-135840710D01*
X116657276Y-135840710D02*
X116663332Y-135839331D01*
X116663332Y-135839331D02*
X116669372Y-135837918D01*
X116669372Y-135837918D02*
X116675399Y-135836465D01*
X116675399Y-135836465D02*
X116681411Y-135834980D01*
X116681411Y-135834980D02*
X116687411Y-135833456D01*
X116687411Y-135833456D02*
X116693393Y-135831896D01*
X116693393Y-135831896D02*
X116699362Y-135830301D01*
X116699362Y-135830301D02*
X116705318Y-135828670D01*
X116705318Y-135828670D02*
X116711256Y-135827004D01*
X116711256Y-135827004D02*
X116717182Y-135825300D01*
X116717182Y-135825300D02*
X116723090Y-135823562D01*
X116723090Y-135823562D02*
X116728986Y-135821789D01*
X116728986Y-135821789D02*
X116734863Y-135819981D01*
X116734863Y-135819981D02*
X116746575Y-135816257D01*
X116746575Y-135816257D02*
X116758224Y-135812396D01*
X116758224Y-135812396D02*
X116769809Y-135808396D01*
X116769809Y-135808396D02*
X116781327Y-135804258D01*
X116781327Y-135804258D02*
X116792783Y-135799983D01*
X116792783Y-135799983D02*
X116804170Y-135795574D01*
X116804170Y-135795574D02*
X116815488Y-135791030D01*
X116815488Y-135791030D02*
X116826740Y-135786354D01*
X116826740Y-135786354D02*
X116837921Y-135781543D01*
X116837921Y-135781543D02*
X116849031Y-135776603D01*
X116849031Y-135776603D02*
X116860070Y-135771530D01*
X116860070Y-135771530D02*
X116871035Y-135766328D01*
X116871035Y-135766328D02*
X116881927Y-135760997D01*
X116881927Y-135760997D02*
X116892745Y-135755539D01*
X116892745Y-135755539D02*
X116903489Y-135749953D01*
X116903489Y-135749953D02*
X116914154Y-135744243D01*
X116914154Y-135744243D02*
X116924741Y-135738409D01*
X116924741Y-135738409D02*
X116935251Y-135732450D01*
X116935251Y-135732450D02*
X116945681Y-135726369D01*
X116945681Y-135726369D02*
X116956031Y-135720164D01*
X116956031Y-135720164D02*
X116966298Y-135713842D01*
X116966298Y-135713842D02*
X116976483Y-135707398D01*
X116976483Y-135707398D02*
X116986585Y-135700835D01*
X116986585Y-135700835D02*
X116996603Y-135694154D01*
X116996603Y-135694154D02*
X117006534Y-135687357D01*
X117006534Y-135687357D02*
X117016382Y-135680443D01*
X117016382Y-135680443D02*
X117026140Y-135673415D01*
X117026140Y-135673415D02*
X117035810Y-135666273D01*
X117035810Y-135666273D02*
X117045391Y-135659019D01*
X117045391Y-135659019D02*
X117054880Y-135651653D01*
X117054880Y-135651653D02*
X117064278Y-135644175D01*
X117064278Y-135644175D02*
X117073585Y-135636588D01*
X117073585Y-135636588D02*
X117082800Y-135628892D01*
X117082800Y-135628892D02*
X117091919Y-135621086D01*
X117091919Y-135621086D02*
X117100943Y-135613174D01*
X117100943Y-135613174D02*
X117109871Y-135605158D01*
X117109871Y-135605158D02*
X117118700Y-135597035D01*
X117118700Y-135597035D02*
X117127433Y-135588808D01*
X117127433Y-135588808D02*
X117136066Y-135580477D01*
X117136066Y-135580477D02*
X117144601Y-135572046D01*
X117144601Y-135572046D02*
X117153031Y-135563512D01*
X117153031Y-135563512D02*
X117161362Y-135554879D01*
X117161362Y-135554879D02*
X117169589Y-135546146D01*
X117169589Y-135546146D02*
X117177712Y-135537317D01*
X117177712Y-135537317D02*
X117185728Y-135528389D01*
X117185728Y-135528389D02*
X117193641Y-135519364D01*
X117193641Y-135519364D02*
X117201446Y-135510246D01*
X117201446Y-135510246D02*
X117209142Y-135501031D01*
X117209142Y-135501031D02*
X117216729Y-135491724D01*
X117216729Y-135491724D02*
X117224207Y-135482326D01*
X117224207Y-135482326D02*
X117231573Y-135472837D01*
X117231573Y-135472837D02*
X117238827Y-135463256D01*
X117238827Y-135463256D02*
X117245970Y-135453586D01*
X117245970Y-135453586D02*
X117252998Y-135443827D01*
X117252998Y-135443827D02*
X117259912Y-135433980D01*
X117259912Y-135433980D02*
X117266709Y-135424048D01*
X117266709Y-135424048D02*
X117273389Y-135414030D01*
X117273389Y-135414030D02*
X117279952Y-135403929D01*
X117279952Y-135403929D02*
X117286396Y-135393743D01*
X117286396Y-135393743D02*
X117292718Y-135383477D01*
X117292718Y-135383477D02*
X117298924Y-135373126D01*
X117298924Y-135373126D02*
X117305004Y-135362697D01*
X117305004Y-135362697D02*
X117310963Y-135352187D01*
X117310963Y-135352187D02*
X117316798Y-135341600D01*
X117316798Y-135341600D02*
X117322507Y-135330934D01*
X117322507Y-135330934D02*
X117328093Y-135320190D01*
X117328093Y-135320190D02*
X117333551Y-135309372D01*
X117333551Y-135309372D02*
X117338883Y-135298481D01*
X117338883Y-135298481D02*
X117344085Y-135287516D01*
X117344085Y-135287516D02*
X117349157Y-135276477D01*
X117349157Y-135276477D02*
X117354097Y-135265367D01*
X117354097Y-135265367D02*
X117358908Y-135254186D01*
X117358908Y-135254186D02*
X117363584Y-135242934D01*
X117363584Y-135242934D02*
X117368128Y-135231615D01*
X117368128Y-135231615D02*
X117372538Y-135220228D01*
X117372538Y-135220228D02*
X117376813Y-135208773D01*
X117376813Y-135208773D02*
X117380950Y-135197254D01*
X117380950Y-135197254D02*
X117384951Y-135185669D01*
X117384951Y-135185669D02*
X117388812Y-135174021D01*
X117388812Y-135174021D02*
X117392535Y-135162309D01*
X117392535Y-135162309D02*
X117394344Y-135156431D01*
X117394344Y-135156431D02*
X117396117Y-135150536D01*
X117396117Y-135150536D02*
X117397854Y-135144628D01*
X117397854Y-135144628D02*
X117399558Y-135138702D01*
X117399558Y-135138702D02*
X117401225Y-135132764D01*
X117401225Y-135132764D02*
X117402855Y-135126807D01*
X117402855Y-135126807D02*
X117404450Y-135120838D01*
X117404450Y-135120838D02*
X117406010Y-135114857D01*
X117406010Y-135114857D02*
X117407534Y-135108857D01*
X117407534Y-135108857D02*
X117409020Y-135102845D01*
X117409020Y-135102845D02*
X117410473Y-135096817D01*
X117410473Y-135096817D02*
X117411885Y-135090777D01*
X117411885Y-135090777D02*
X117413264Y-135084722D01*
X117413264Y-135084722D02*
X117414605Y-135078654D01*
X117414605Y-135078654D02*
X117415908Y-135072571D01*
X117415908Y-135072571D02*
X117417176Y-135066475D01*
X117417176Y-135066475D02*
X117418408Y-135060366D01*
X117418408Y-135060366D02*
X117419599Y-135054242D01*
X117419599Y-135054242D02*
X117420755Y-135048105D01*
X117420755Y-135048105D02*
X117421875Y-135041956D01*
X117421875Y-135041956D02*
X117422954Y-135035794D01*
X117422954Y-135035794D02*
X117423998Y-135029619D01*
X117423998Y-135029619D02*
X117425004Y-135023432D01*
X117425004Y-135023432D02*
X117425972Y-135017232D01*
X117425972Y-135017232D02*
X117426899Y-135011016D01*
X117426899Y-135011016D02*
X117427790Y-135004791D01*
X117427790Y-135004791D02*
X117428644Y-134998555D01*
X117428644Y-134998555D02*
X117429459Y-134992304D01*
X117429459Y-134992304D02*
X117430234Y-134986043D01*
X117430234Y-134986043D02*
X117430973Y-134979767D01*
X117430973Y-134979767D02*
X117431672Y-134973483D01*
X117431672Y-134973483D02*
X117432329Y-134967183D01*
X117432329Y-134967183D02*
X117432952Y-134960877D01*
X117432952Y-134960877D02*
X117433533Y-134954555D01*
X117433533Y-134954555D02*
X117434074Y-134948225D01*
X117434074Y-134948225D02*
X117434577Y-134941880D01*
X117434577Y-134941880D02*
X117435040Y-134935527D01*
X117435040Y-134935527D02*
X117435464Y-134929162D01*
X117435464Y-134929162D02*
X117435847Y-134922787D01*
X117435847Y-134922787D02*
X117436193Y-134916401D01*
X117436193Y-134916401D02*
X117436495Y-134910003D01*
X117436495Y-134910003D02*
X117436759Y-134903597D01*
X117436759Y-134903597D02*
X117436988Y-134897179D01*
X117436988Y-134897179D02*
X117437166Y-134890752D01*
X117437166Y-134890752D02*
X117437318Y-134884313D01*
X117437318Y-134884313D02*
X117437420Y-134877867D01*
X117437420Y-134877867D02*
X117437470Y-134871408D01*
X117437470Y-134871408D02*
X117437470Y-134864941D01*
X117437493Y-119864948D02*
X117437493Y-119858481D01*
X117437493Y-119858481D02*
X117437442Y-119852022D01*
X117437442Y-119852022D02*
X117437341Y-119845575D01*
X117437341Y-119845575D02*
X117437188Y-119839137D01*
X117437188Y-119839137D02*
X117437011Y-119832710D01*
X117437011Y-119832710D02*
X117436782Y-119826292D01*
X117436782Y-119826292D02*
X117436518Y-119819886D01*
X117436518Y-119819886D02*
X117436216Y-119813488D01*
X117436216Y-119813488D02*
X117435870Y-119807102D01*
X117435870Y-119807102D02*
X117435487Y-119800727D01*
X117435487Y-119800727D02*
X117435062Y-119794361D01*
X117435062Y-119794361D02*
X117434600Y-119788009D01*
X117434600Y-119788009D02*
X117434097Y-119781664D01*
X117434097Y-119781664D02*
X117433556Y-119775334D01*
X117433556Y-119775334D02*
X117432975Y-119769012D01*
X117432975Y-119769012D02*
X117432352Y-119762705D01*
X117432352Y-119762705D02*
X117431694Y-119756406D01*
X117431694Y-119756406D02*
X117430996Y-119750122D01*
X117430996Y-119750122D02*
X117430257Y-119743846D01*
X117430257Y-119743846D02*
X117429482Y-119737585D01*
X117429482Y-119737585D02*
X117428667Y-119731334D01*
X117428667Y-119731334D02*
X117427813Y-119725098D01*
X117427813Y-119725098D02*
X117426922Y-119718873D01*
X117426922Y-119718873D02*
X117425995Y-119712657D01*
X117425995Y-119712657D02*
X117425027Y-119706457D01*
X117425027Y-119706457D02*
X117424021Y-119700270D01*
X117424021Y-119700270D02*
X117422977Y-119694095D01*
X117422977Y-119694095D02*
X117421898Y-119687933D01*
X117421898Y-119687933D02*
X117420777Y-119681784D01*
X117420777Y-119681784D02*
X117419622Y-119675647D01*
X117419622Y-119675647D02*
X117418431Y-119669523D01*
X117418431Y-119669523D02*
X117417199Y-119663414D01*
X117417199Y-119663414D02*
X117415931Y-119657318D01*
X117415931Y-119657318D02*
X117414628Y-119651235D01*
X117414628Y-119651235D02*
X117413287Y-119645167D01*
X117413287Y-119645167D02*
X117411908Y-119639112D01*
X117411908Y-119639112D02*
X117410496Y-119633071D01*
X117410496Y-119633071D02*
X117409043Y-119627044D01*
X117409043Y-119627044D02*
X117407557Y-119621032D01*
X117407557Y-119621032D02*
X117406033Y-119615032D01*
X117406033Y-119615032D02*
X117404473Y-119609051D01*
X117404473Y-119609051D02*
X117402878Y-119603082D01*
X117402878Y-119603082D02*
X117401247Y-119597125D01*
X117401247Y-119597125D02*
X117399581Y-119591187D01*
X117399581Y-119591187D02*
X117397877Y-119585261D01*
X117397877Y-119585261D02*
X117396139Y-119579353D01*
X117396139Y-119579353D02*
X117394367Y-119573458D01*
X117394367Y-119573458D02*
X117392558Y-119567580D01*
X117392558Y-119567580D02*
X117388834Y-119555868D01*
X117388834Y-119555868D02*
X117384974Y-119544220D01*
X117384974Y-119544220D02*
X117380973Y-119532635D01*
X117380973Y-119532635D02*
X117376835Y-119521116D01*
X117376835Y-119521116D02*
X117372561Y-119509660D01*
X117372561Y-119509660D02*
X117368151Y-119498274D01*
X117368151Y-119498274D02*
X117363607Y-119486955D01*
X117363607Y-119486955D02*
X117358931Y-119475703D01*
X117358931Y-119475703D02*
X117354120Y-119464522D01*
X117354120Y-119464522D02*
X117349180Y-119453412D01*
X117349180Y-119453412D02*
X117344108Y-119442373D01*
X117344108Y-119442373D02*
X117338906Y-119431408D01*
X117338906Y-119431408D02*
X117333574Y-119420517D01*
X117333574Y-119420517D02*
X117328116Y-119409699D01*
X117328116Y-119409699D02*
X117322530Y-119398955D01*
X117322530Y-119398955D02*
X117316820Y-119388289D01*
X117316820Y-119388289D02*
X117310986Y-119377702D01*
X117310986Y-119377702D02*
X117305027Y-119367192D01*
X117305027Y-119367192D02*
X117298946Y-119356763D01*
X117298946Y-119356763D02*
X117292741Y-119346412D01*
X117292741Y-119346412D02*
X117286419Y-119336145D01*
X117286419Y-119336145D02*
X117279975Y-119325960D01*
X117279975Y-119325960D02*
X117273412Y-119315858D01*
X117273412Y-119315858D02*
X117266732Y-119305841D01*
X117266732Y-119305841D02*
X117259935Y-119295909D01*
X117259935Y-119295909D02*
X117253021Y-119286062D01*
X117253021Y-119286062D02*
X117245992Y-119276303D01*
X117245992Y-119276303D02*
X117238850Y-119266633D01*
X117238850Y-119266633D02*
X117231596Y-119257052D01*
X117231596Y-119257052D02*
X117224230Y-119247563D01*
X117224230Y-119247563D02*
X117216752Y-119238165D01*
X117216752Y-119238165D02*
X117209165Y-119228858D01*
X117209165Y-119228858D02*
X117201469Y-119219643D01*
X117201469Y-119219643D02*
X117193663Y-119210525D01*
X117193663Y-119210525D02*
X117185751Y-119201500D01*
X117185751Y-119201500D02*
X117177735Y-119192572D01*
X117177735Y-119192572D02*
X117169612Y-119183743D01*
X117169612Y-119183743D02*
X117161385Y-119175010D01*
X117161385Y-119175010D02*
X117153054Y-119166377D01*
X117153054Y-119166377D02*
X117144624Y-119157842D01*
X117144624Y-119157842D02*
X117136089Y-119149412D01*
X117136089Y-119149412D02*
X117127456Y-119141081D01*
X117127456Y-119141081D02*
X117118723Y-119132854D01*
X117118723Y-119132854D02*
X117109894Y-119124731D01*
X117109894Y-119124731D02*
X117100966Y-119116715D01*
X117100966Y-119116715D02*
X117091941Y-119108803D01*
X117091941Y-119108803D02*
X117082823Y-119100997D01*
X117082823Y-119100997D02*
X117073608Y-119093301D01*
X117073608Y-119093301D02*
X117064301Y-119085714D01*
X117064301Y-119085714D02*
X117054903Y-119078236D01*
X117054903Y-119078236D02*
X117045414Y-119070870D01*
X117045414Y-119070870D02*
X117035833Y-119063616D01*
X117035833Y-119063616D02*
X117026163Y-119056474D01*
X117026163Y-119056474D02*
X117016404Y-119049445D01*
X117016404Y-119049445D02*
X117006557Y-119042532D01*
X117006557Y-119042532D02*
X116996625Y-119035735D01*
X116996625Y-119035735D02*
X116986608Y-119029054D01*
X116986608Y-119029054D02*
X116976506Y-119022491D01*
X116976506Y-119022491D02*
X116966321Y-119016047D01*
X116966321Y-119016047D02*
X116956054Y-119009725D01*
X116956054Y-119009725D02*
X116945704Y-119003520D01*
X116945704Y-119003520D02*
X116935274Y-118997439D01*
X116935274Y-118997439D02*
X116924764Y-118991480D01*
X116924764Y-118991480D02*
X116914177Y-118985646D01*
X116914177Y-118985646D02*
X116903512Y-118979936D01*
X116903512Y-118979936D02*
X116892767Y-118974350D01*
X116892767Y-118974350D02*
X116881950Y-118968892D01*
X116881950Y-118968892D02*
X116871058Y-118963560D01*
X116871058Y-118963560D02*
X116860093Y-118958358D01*
X116860093Y-118958358D02*
X116849054Y-118953286D01*
X116849054Y-118953286D02*
X116837944Y-118948346D01*
X116837944Y-118948346D02*
X116826763Y-118943535D01*
X116826763Y-118943535D02*
X116815511Y-118938859D01*
X116815511Y-118938859D02*
X116804192Y-118934315D01*
X116804192Y-118934315D02*
X116792806Y-118929905D01*
X116792806Y-118929905D02*
X116781350Y-118925631D01*
X116781350Y-118925631D02*
X116769831Y-118921493D01*
X116769831Y-118921493D02*
X116758246Y-118917492D01*
X116758246Y-118917492D02*
X116746598Y-118913632D01*
X116746598Y-118913632D02*
X116734886Y-118909908D01*
X116734886Y-118909908D02*
X116729008Y-118908100D01*
X116729008Y-118908100D02*
X116723113Y-118906327D01*
X116723113Y-118906327D02*
X116717205Y-118904589D01*
X116717205Y-118904589D02*
X116711279Y-118902885D01*
X116711279Y-118902885D02*
X116705341Y-118901219D01*
X116705341Y-118901219D02*
X116699384Y-118899588D01*
X116699384Y-118899588D02*
X116693415Y-118897993D01*
X116693415Y-118897993D02*
X116687434Y-118896433D01*
X116687434Y-118896433D02*
X116681434Y-118894909D01*
X116681434Y-118894909D02*
X116675422Y-118893423D01*
X116675422Y-118893423D02*
X116669395Y-118891971D01*
X116669395Y-118891971D02*
X116663355Y-118890558D01*
X116663355Y-118890558D02*
X116657299Y-118889179D01*
X116657299Y-118889179D02*
X116651231Y-118887838D01*
X116651231Y-118887838D02*
X116645148Y-118886535D01*
X116645148Y-118886535D02*
X116639052Y-118885267D01*
X116639052Y-118885267D02*
X116632943Y-118884036D01*
X116632943Y-118884036D02*
X116626819Y-118882844D01*
X116626819Y-118882844D02*
X116620683Y-118881689D01*
X116620683Y-118881689D02*
X116614533Y-118880568D01*
X116614533Y-118880568D02*
X116608371Y-118879489D01*
X116608371Y-118879489D02*
X116602196Y-118878445D01*
X116602196Y-118878445D02*
X116596009Y-118877439D01*
X116596009Y-118877439D02*
X116589809Y-118876471D01*
X116589809Y-118876471D02*
X116583593Y-118875544D01*
X116583593Y-118875544D02*
X116577368Y-118874653D01*
X116577368Y-118874653D02*
X116571132Y-118873799D01*
X116571132Y-118873799D02*
X116564881Y-118872984D01*
X116564881Y-118872984D02*
X116558620Y-118872209D01*
X116558620Y-118872209D02*
X116552344Y-118871470D01*
X116552344Y-118871470D02*
X116546060Y-118870772D01*
X116546060Y-118870772D02*
X116539761Y-118870114D01*
X116539761Y-118870114D02*
X116533454Y-118869492D01*
X116533454Y-118869492D02*
X116527132Y-118868910D01*
X116527132Y-118868910D02*
X116520802Y-118868369D01*
X116520802Y-118868369D02*
X116514457Y-118867866D01*
X116514457Y-118867866D02*
X116508105Y-118867404D01*
X116508105Y-118867404D02*
X116501739Y-118866979D01*
X116501739Y-118866979D02*
X116495364Y-118866596D01*
X116495364Y-118866596D02*
X116488978Y-118866250D01*
X116488978Y-118866250D02*
X116482580Y-118865948D01*
X116482580Y-118865948D02*
X116476174Y-118865684D01*
X116476174Y-118865684D02*
X116469756Y-118865455D01*
X116469756Y-118865455D02*
X116463330Y-118865278D01*
X116463330Y-118865278D02*
X116456891Y-118865125D01*
X116456891Y-118865125D02*
X116450444Y-118865024D01*
X116450444Y-118865024D02*
X116443985Y-118864973D01*
X116443985Y-118864973D02*
X116437518Y-118864973D01*
X101437525Y-118864950D02*
X101431310Y-118864950D01*
X101431310Y-118864950D02*
X101425100Y-118865001D01*
X101425100Y-118865001D02*
X101418892Y-118865102D01*
X101418892Y-118865102D02*
X101412692Y-118865229D01*
X101412692Y-118865229D02*
X101406494Y-118865407D01*
X101406494Y-118865407D02*
X101400302Y-118865610D01*
X101400302Y-118865610D02*
X101394112Y-118865864D01*
X101394112Y-118865864D02*
X101387929Y-118866151D01*
X101387929Y-118866151D02*
X101381752Y-118866477D01*
X101381752Y-118866477D02*
X101375580Y-118866837D01*
X101375580Y-118866837D02*
X101369413Y-118867239D01*
X101369413Y-118867239D02*
X101363253Y-118867675D01*
X101363253Y-118867675D02*
X101357099Y-118868150D01*
X101357099Y-118868150D02*
X101350949Y-118868666D01*
X101350949Y-118868666D02*
X101338671Y-118869804D01*
X101338671Y-118869804D02*
X101326418Y-118871094D01*
X101326418Y-118871094D02*
X101314193Y-118872534D01*
X101314193Y-118872534D02*
X101301996Y-118874122D01*
X101301996Y-118874122D02*
X101289829Y-118875859D01*
X101289829Y-118875859D02*
X101277693Y-118877747D01*
X101277693Y-118877747D02*
X101265590Y-118879779D01*
X101265590Y-118879779D02*
X101253523Y-118881958D01*
X101253523Y-118881958D02*
X101241488Y-118884284D01*
X101241488Y-118884284D02*
X101229492Y-118886756D01*
X101229492Y-118886756D02*
X101217531Y-118889372D01*
X101217531Y-118889372D02*
X101205611Y-118892136D01*
X101205611Y-118892136D02*
X101193728Y-118895041D01*
X101193728Y-118895041D02*
X101181889Y-118898092D01*
X101181889Y-118898092D02*
X101170094Y-118901285D01*
X101170094Y-118901285D02*
X101158341Y-118904622D01*
X101158341Y-118904622D02*
X101146634Y-118908100D01*
X101146634Y-118908100D02*
X101134973Y-118911722D01*
X101134973Y-118911722D02*
X101123360Y-118915481D01*
X101123360Y-118915481D02*
X101111798Y-118919385D01*
X101111798Y-118919385D02*
X101100284Y-118923426D01*
X101100284Y-118923426D02*
X101088824Y-118927607D01*
X101088824Y-118927607D02*
X101077417Y-118931927D01*
X101077417Y-118931927D02*
X101066063Y-118936385D01*
X101066063Y-118936385D02*
X101054765Y-118940982D01*
X101054765Y-118940982D02*
X101043523Y-118945717D01*
X101043523Y-118945717D02*
X101032342Y-118950589D01*
X101032342Y-118950589D02*
X101021217Y-118955595D01*
X101021217Y-118955595D02*
X101010155Y-118960738D01*
X101010155Y-118960738D02*
X100999154Y-118966017D01*
X100999154Y-118966017D02*
X100988217Y-118971432D01*
X100988217Y-118971432D02*
X100977343Y-118976979D01*
X100977343Y-118976979D02*
X100966536Y-118982659D01*
X100966536Y-118982659D02*
X100955796Y-118988473D01*
X100955796Y-118988473D02*
X100945126Y-118994421D01*
X100945126Y-118994421D02*
X100934524Y-119000500D01*
X100934524Y-119000500D02*
X100923993Y-119006710D01*
X100923993Y-119006710D02*
X100913533Y-119013052D01*
X100913533Y-119013052D02*
X100903150Y-119019524D01*
X100903150Y-119019524D02*
X100892840Y-119026126D01*
X100892840Y-119026126D02*
X100882604Y-119032859D01*
X100882604Y-119032859D02*
X100872449Y-119039720D01*
X100872449Y-119039720D02*
X100862370Y-119046707D01*
X100862370Y-119046707D02*
X100852373Y-119053824D01*
X100852373Y-119053824D02*
X100842457Y-119061068D01*
X100842457Y-119061068D02*
X100832622Y-119068440D01*
X100832622Y-119068440D02*
X100822871Y-119075938D01*
X100822871Y-119075938D02*
X100813206Y-119083560D01*
X100813206Y-119083560D02*
X100803625Y-119091310D01*
X100803625Y-119091310D02*
X100794136Y-119099181D01*
X100794136Y-119099181D02*
X100789421Y-119103164D01*
X100789421Y-119103164D02*
X100784733Y-119107180D01*
X100784733Y-119107180D02*
X100780064Y-119111223D01*
X100780064Y-119111223D02*
X100775421Y-119115300D01*
X100775421Y-119115300D02*
X100770798Y-119119405D01*
X100770798Y-119119405D02*
X100766198Y-119123542D01*
X100766198Y-119123542D02*
X100761624Y-119127710D01*
X100761624Y-119127710D02*
X100757072Y-119131909D01*
X100757072Y-119131909D02*
X100752543Y-119136138D01*
X100752543Y-119136138D02*
X100748037Y-119140398D01*
X100748037Y-119140398D02*
X100743557Y-119144688D01*
X100743557Y-119144688D02*
X100739099Y-119149008D01*
X100739099Y-119149008D02*
X100734664Y-119153357D01*
X100734664Y-119153357D02*
X100730257Y-119157738D01*
X100730257Y-119157738D02*
X100725876Y-119162145D01*
X100725876Y-119162145D02*
X100721525Y-119166578D01*
X100721525Y-119166578D02*
X100717202Y-119171035D01*
X100717202Y-119171035D02*
X100712911Y-119175516D01*
X100712911Y-119175516D02*
X100708652Y-119180019D01*
X100708652Y-119180019D02*
X100704420Y-119184545D01*
X100704420Y-119184545D02*
X100700222Y-119189097D01*
X100700222Y-119189097D02*
X100696051Y-119193672D01*
X100696051Y-119193672D02*
X100691913Y-119198269D01*
X100691913Y-119198269D02*
X100687806Y-119202892D01*
X100687806Y-119202892D02*
X100683729Y-119207535D01*
X100683729Y-119207535D02*
X100679683Y-119212201D01*
X100679683Y-119212201D02*
X100675667Y-119216890D01*
X100675667Y-119216890D02*
X100671685Y-119221602D01*
X100671685Y-119221602D02*
X100663808Y-119231091D01*
X100663808Y-119231091D02*
X100656059Y-119240669D01*
X100656059Y-119240669D02*
X100648431Y-119250331D01*
X100648431Y-119250331D02*
X100640933Y-119260080D01*
X100640933Y-119260080D02*
X100633559Y-119269912D01*
X100633559Y-119269912D02*
X100626313Y-119279829D01*
X100626313Y-119279829D02*
X100619193Y-119289823D01*
X100619193Y-119289823D02*
X100612200Y-119299900D01*
X100612200Y-119299900D02*
X100605337Y-119310055D01*
X100605337Y-119310055D02*
X100598604Y-119320288D01*
X100598604Y-119320288D02*
X100592000Y-119330595D01*
X100592000Y-119330595D02*
X100585523Y-119340979D01*
X100585523Y-119340979D02*
X100579180Y-119351436D01*
X100579180Y-119351436D02*
X100572965Y-119361964D01*
X100572965Y-119361964D02*
X100566884Y-119372566D01*
X100566884Y-119372566D02*
X100560936Y-119383234D01*
X100560936Y-119383234D02*
X100555117Y-119393974D01*
X100555117Y-119393974D02*
X100549435Y-119404779D01*
X100549435Y-119404779D02*
X100543882Y-119415650D01*
X100543882Y-119415650D02*
X100538467Y-119426587D01*
X100538467Y-119426587D02*
X100533186Y-119437585D01*
X100533186Y-119437585D02*
X100528040Y-119448647D01*
X100528040Y-119448647D02*
X100523029Y-119459770D01*
X100523029Y-119459770D02*
X100518154Y-119470951D01*
X100518154Y-119470951D02*
X100513417Y-119482193D01*
X100513417Y-119482193D02*
X100508820Y-119493488D01*
X100508820Y-119493488D02*
X100504357Y-119504842D01*
X100504357Y-119504842D02*
X100500034Y-119516249D01*
X100500034Y-119516249D02*
X100495851Y-119527707D01*
X100495851Y-119527707D02*
X100491804Y-119539218D01*
X100491804Y-119539218D02*
X100487901Y-119550783D01*
X100487901Y-119550783D02*
X100484136Y-119562393D01*
X100484136Y-119562393D02*
X100480512Y-119574052D01*
X100480512Y-119574052D02*
X100477032Y-119585759D01*
X100477032Y-119585759D02*
X100473692Y-119597511D01*
X100473692Y-119597511D02*
X100470496Y-119609305D01*
X100470496Y-119609305D02*
X100467443Y-119621144D01*
X100467443Y-119621144D02*
X100464533Y-119633023D01*
X100464533Y-119633023D02*
X100461766Y-119644943D01*
X100461766Y-119644943D02*
X100459148Y-119656904D01*
X100459148Y-119656904D02*
X100456671Y-119668901D01*
X100456671Y-119668901D02*
X100454342Y-119680933D01*
X100454342Y-119680933D02*
X100452160Y-119693003D01*
X100452160Y-119693003D02*
X100450126Y-119705103D01*
X100450126Y-119705103D02*
X100448236Y-119717239D01*
X100448236Y-119717239D02*
X100446496Y-119729406D01*
X100446496Y-119729406D02*
X100444903Y-119741603D01*
X100444903Y-119741603D02*
X100443461Y-119753826D01*
X100443461Y-119753826D02*
X100442168Y-119766078D01*
X100442168Y-119766078D02*
X100441025Y-119778357D01*
X100441025Y-119778357D02*
X100440509Y-119784506D01*
X100440509Y-119784506D02*
X100440034Y-119790661D01*
X100440034Y-119790661D02*
X100439595Y-119796823D01*
X100439595Y-119796823D02*
X100439191Y-119802987D01*
X100439191Y-119802987D02*
X100438828Y-119809159D01*
X100438828Y-119809159D02*
X100438503Y-119815337D01*
X100438503Y-119815337D02*
X100438216Y-119821519D01*
X100438216Y-119821519D02*
X100437962Y-119827709D01*
X100437962Y-119827709D02*
X100437758Y-119833902D01*
X100437758Y-119833902D02*
X100437581Y-119840099D01*
X100437581Y-119840099D02*
X100437454Y-119846299D01*
X100437454Y-119846299D02*
X100437352Y-119852507D01*
X100437352Y-119852507D02*
X100437301Y-119858717D01*
X100437301Y-119858717D02*
X100437301Y-119864933D01*
X100437273Y-134864918D02*
X100437273Y-134871133D01*
X100437273Y-134871133D02*
X100437324Y-134877344D01*
X100437324Y-134877344D02*
X100437426Y-134883551D01*
X100437426Y-134883551D02*
X100437553Y-134889752D01*
X100437553Y-134889752D02*
X100437730Y-134895949D01*
X100437730Y-134895949D02*
X100437934Y-134902142D01*
X100437934Y-134902142D02*
X100438188Y-134908332D01*
X100438188Y-134908332D02*
X100438475Y-134914514D01*
X100438475Y-134914514D02*
X100438800Y-134920691D01*
X100438800Y-134920691D02*
X100439163Y-134926864D01*
X100439163Y-134926864D02*
X100439567Y-134933028D01*
X100439567Y-134933028D02*
X100440006Y-134939190D01*
X100440006Y-134939190D02*
X100440481Y-134945345D01*
X100440481Y-134945345D02*
X100440997Y-134951494D01*
X100440997Y-134951494D02*
X100442140Y-134963772D01*
X100442140Y-134963772D02*
X100443433Y-134976025D01*
X100443433Y-134976025D02*
X100444875Y-134988248D01*
X100444875Y-134988248D02*
X100446468Y-135000445D01*
X100446468Y-135000445D02*
X100448208Y-135012611D01*
X100448208Y-135012611D02*
X100450098Y-135024748D01*
X100450098Y-135024748D02*
X100452132Y-135036848D01*
X100452132Y-135036848D02*
X100454314Y-135048918D01*
X100454314Y-135048918D02*
X100456643Y-135060950D01*
X100456643Y-135060950D02*
X100459120Y-135072947D01*
X100459120Y-135072947D02*
X100461739Y-135084907D01*
X100461739Y-135084907D02*
X100464505Y-135096828D01*
X100464505Y-135096828D02*
X100467415Y-135108707D01*
X100467415Y-135108707D02*
X100470468Y-135120546D01*
X100470468Y-135120546D02*
X100473664Y-135132339D01*
X100473664Y-135132339D02*
X100477004Y-135144092D01*
X100477004Y-135144092D02*
X100480484Y-135155799D01*
X100480484Y-135155799D02*
X100484108Y-135167457D01*
X100484108Y-135167457D02*
X100487873Y-135179068D01*
X100487873Y-135179068D02*
X100491777Y-135190632D01*
X100491777Y-135190632D02*
X100495823Y-135202144D01*
X100495823Y-135202144D02*
X100500006Y-135213602D01*
X100500006Y-135213602D02*
X100504329Y-135225009D01*
X100504329Y-135225009D02*
X100508792Y-135236363D01*
X100508792Y-135236363D02*
X100513389Y-135247658D01*
X100513389Y-135247658D02*
X100518127Y-135258900D01*
X100518127Y-135258900D02*
X100523001Y-135270081D01*
X100523001Y-135270081D02*
X100528012Y-135281204D01*
X100528012Y-135281204D02*
X100533158Y-135292265D01*
X100533158Y-135292265D02*
X100538439Y-135303264D01*
X100538439Y-135303264D02*
X100543854Y-135314201D01*
X100543854Y-135314201D02*
X100549407Y-135325072D01*
X100549407Y-135325072D02*
X100555089Y-135335877D01*
X100555089Y-135335877D02*
X100560908Y-135346616D01*
X100560908Y-135346616D02*
X100566856Y-135357284D01*
X100566856Y-135357284D02*
X100572937Y-135367886D01*
X100572937Y-135367886D02*
X100579153Y-135378415D01*
X100579153Y-135378415D02*
X100585495Y-135388872D01*
X100585495Y-135388872D02*
X100591972Y-135399255D01*
X100591972Y-135399255D02*
X100598576Y-135409563D01*
X100598576Y-135409563D02*
X100605309Y-135419796D01*
X100605309Y-135419796D02*
X100612173Y-135429951D01*
X100612173Y-135429951D02*
X100619165Y-135440027D01*
X100619165Y-135440027D02*
X100626285Y-135450022D01*
X100626285Y-135450022D02*
X100633531Y-135459938D01*
X100633531Y-135459938D02*
X100640905Y-135469771D01*
X100640905Y-135469771D02*
X100648403Y-135479519D01*
X100648403Y-135479519D02*
X100656031Y-135489181D01*
X100656031Y-135489181D02*
X100663780Y-135498760D01*
X100663780Y-135498760D02*
X100671657Y-135508249D01*
X100671657Y-135508249D02*
X100675640Y-135512961D01*
X100675640Y-135512961D02*
X100679655Y-135517650D01*
X100679655Y-135517650D02*
X100683701Y-135522316D01*
X100683701Y-135522316D02*
X100687778Y-135526959D01*
X100687778Y-135526959D02*
X100691885Y-135531582D01*
X100691885Y-135531582D02*
X100696023Y-135536179D01*
X100696023Y-135536179D02*
X100700194Y-135540754D01*
X100700194Y-135540754D02*
X100704392Y-135545305D01*
X100704392Y-135545305D02*
X100708624Y-135549832D01*
X100708624Y-135549832D02*
X100712884Y-135554335D01*
X100712884Y-135554335D02*
X100717174Y-135558816D01*
X100717174Y-135558816D02*
X100721497Y-135563273D01*
X100721497Y-135563273D02*
X100725848Y-135567706D01*
X100725848Y-135567706D02*
X100730229Y-135572112D01*
X100730229Y-135572112D02*
X100734636Y-135576494D01*
X100734636Y-135576494D02*
X100739071Y-135580842D01*
X100739071Y-135580842D02*
X100743529Y-135585163D01*
X100743529Y-135585163D02*
X100748009Y-135589453D01*
X100748009Y-135589453D02*
X100752515Y-135593713D01*
X100752515Y-135593713D02*
X100757044Y-135597942D01*
X100757044Y-135597942D02*
X100761596Y-135602140D01*
X100761596Y-135602140D02*
X100766170Y-135606308D01*
X100766170Y-135606308D02*
X100770770Y-135610446D01*
X100770770Y-135610446D02*
X100775393Y-135614551D01*
X100775393Y-135614551D02*
X100780036Y-135618627D01*
X100780036Y-135618627D02*
X100784705Y-135622671D01*
X100784705Y-135622671D02*
X100789393Y-135626687D01*
X100789393Y-135626687D02*
X100794108Y-135630670D01*
X100794108Y-135630670D02*
X100803597Y-135638541D01*
X100803597Y-135638541D02*
X100813178Y-135646291D01*
X100813178Y-135646291D02*
X100822843Y-135653913D01*
X100822843Y-135653913D02*
X100832594Y-135661411D01*
X100832594Y-135661411D02*
X100842429Y-135668782D01*
X100842429Y-135668782D02*
X100852345Y-135676026D01*
X100852345Y-135676026D02*
X100862342Y-135683143D01*
X100862342Y-135683143D02*
X100872421Y-135690131D01*
X100872421Y-135690131D02*
X100882576Y-135696992D01*
X100882576Y-135696992D02*
X100892812Y-135703725D01*
X100892812Y-135703725D02*
X100903122Y-135710327D01*
X100903122Y-135710327D02*
X100913505Y-135716798D01*
X100913505Y-135716798D02*
X100923965Y-135723141D01*
X100923965Y-135723141D02*
X100934496Y-135729351D01*
X100934496Y-135729351D02*
X100945098Y-135735429D01*
X100945098Y-135735429D02*
X100955769Y-135741378D01*
X100955769Y-135741378D02*
X100966508Y-135747192D01*
X100966508Y-135747192D02*
X100977315Y-135752872D01*
X100977315Y-135752872D02*
X100988189Y-135758419D01*
X100988189Y-135758419D02*
X100999126Y-135763834D01*
X100999126Y-135763834D02*
X101010127Y-135769112D01*
X101010127Y-135769112D02*
X101021189Y-135774256D01*
X101021189Y-135774256D02*
X101032314Y-135779262D01*
X101032314Y-135779262D02*
X101043495Y-135784134D01*
X101043495Y-135784134D02*
X101054737Y-135788868D01*
X101054737Y-135788868D02*
X101066035Y-135793466D01*
X101066035Y-135793466D02*
X101077389Y-135797924D01*
X101077389Y-135797924D02*
X101088796Y-135802244D01*
X101088796Y-135802244D02*
X101100256Y-135806425D01*
X101100256Y-135806425D02*
X101111770Y-135810466D01*
X101111770Y-135810466D02*
X101123332Y-135814370D01*
X101123332Y-135814370D02*
X101134945Y-135818129D01*
X101134945Y-135818129D02*
X101146606Y-135821751D01*
X101146606Y-135821751D02*
X101158313Y-135825229D01*
X101158313Y-135825229D02*
X101170066Y-135828566D01*
X101170066Y-135828566D02*
X101181862Y-135831759D01*
X101181862Y-135831759D02*
X101193700Y-135834809D01*
X101193700Y-135834809D02*
X101205583Y-135837715D01*
X101205583Y-135837715D02*
X101217503Y-135840479D01*
X101217503Y-135840479D02*
X101229464Y-135843095D01*
X101229464Y-135843095D02*
X101241460Y-135845566D01*
X101241460Y-135845566D02*
X101253495Y-135847893D01*
X101253495Y-135847893D02*
X101265562Y-135850072D01*
X101265562Y-135850072D02*
X101277665Y-135852104D01*
X101277665Y-135852104D02*
X101289801Y-135853991D01*
X101289801Y-135853991D02*
X101301968Y-135855729D01*
X101301968Y-135855729D02*
X101314165Y-135857316D01*
X101314165Y-135857316D02*
X101326390Y-135858757D01*
X101326390Y-135858757D02*
X101338643Y-135860047D01*
X101338643Y-135860047D02*
X101350921Y-135861185D01*
X101350921Y-135861185D02*
X101357071Y-135861700D01*
X101357071Y-135861700D02*
X101363225Y-135862175D01*
X101363225Y-135862175D02*
X101369385Y-135862612D01*
X101369385Y-135862612D02*
X101375552Y-135863014D01*
X101375552Y-135863014D02*
X101381724Y-135863374D01*
X101381724Y-135863374D02*
X101387901Y-135863699D01*
X101387901Y-135863699D02*
X101394084Y-135863986D01*
X101394084Y-135863986D02*
X101400274Y-135864240D01*
X101400274Y-135864240D02*
X101406466Y-135864444D01*
X101406466Y-135864444D02*
X101412664Y-135864621D01*
X101412664Y-135864621D02*
X101418864Y-135864748D01*
X101418864Y-135864748D02*
X101425072Y-135864850D01*
X101425072Y-135864850D02*
X101431282Y-135864901D01*
X101431282Y-135864901D02*
X101437497Y-135864901D01*
X52786619Y-165614920D02*
X164086879Y-165614920D01*
X164086879Y-165614920D02*
X52786619Y-165614920D01*
X164086879Y-37113780D02*
X52786619Y-37113780D01*
X52786619Y-37113780D02*
X164086879Y-37113780D01*
X164086879Y-165614920D02*
X164086879Y-37113780D01*
X164086879Y-37113780D02*
X164086879Y-165614920D01*
X52786619Y-37113780D02*
X52786619Y-165614920D01*
X52786619Y-165614920D02*
X52786619Y-37113780D01*
M02*
