G04 #@! TF.GenerationSoftware,KiCad,Pcbnew,(5.1.2)-1*
G04 #@! TF.CreationDate,2019-05-15T15:41:14+02:00*
G04 #@! TF.ProjectId,frontplate-ctag,66726f6e-7470-46c6-9174-652d63746167,rev?*
G04 #@! TF.SameCoordinates,Original*
G04 #@! TF.FileFunction,Legend,Top*
G04 #@! TF.FilePolarity,Positive*
%FSLAX46Y46*%
G04 Gerber Fmt 4.6, Leading zero omitted, Abs format (unit mm)*
G04 Created by KiCad (PCBNEW (5.1.2)-1) date 2019-05-15 15:41:14*
%MOMM*%
%LPD*%
G04 APERTURE LIST*
%ADD10C,0.010000*%
%ADD11C,0.150000*%
G04 APERTURE END LIST*
D10*
G36*
X59312387Y-100607738D02*
G01*
X60446129Y-100607871D01*
X61498012Y-100608104D01*
X62470843Y-100608453D01*
X63367429Y-100608935D01*
X64190577Y-100609565D01*
X64943094Y-100610360D01*
X65627789Y-100611335D01*
X66247467Y-100612506D01*
X66804936Y-100613889D01*
X67303004Y-100615500D01*
X67744478Y-100617356D01*
X68132164Y-100619471D01*
X68468870Y-100621863D01*
X68757403Y-100624546D01*
X69000571Y-100627537D01*
X69201181Y-100630852D01*
X69362039Y-100634507D01*
X69485954Y-100638517D01*
X69575732Y-100642899D01*
X69634181Y-100647669D01*
X69664107Y-100652842D01*
X69668318Y-100658435D01*
X69649622Y-100664463D01*
X69639660Y-100666414D01*
X69170719Y-100782368D01*
X68669094Y-100964020D01*
X68147616Y-101205675D01*
X67619117Y-101501637D01*
X67302983Y-101703584D01*
X67069376Y-101863638D01*
X66830760Y-102035022D01*
X66578899Y-102224280D01*
X66305559Y-102437959D01*
X66002506Y-102682607D01*
X65661504Y-102964770D01*
X65274320Y-103290993D01*
X64838932Y-103662497D01*
X64555756Y-103904432D01*
X64272531Y-104144875D01*
X64000888Y-104374063D01*
X63752454Y-104582234D01*
X63538861Y-104759627D01*
X63371735Y-104896479D01*
X63307600Y-104947949D01*
X62669700Y-105424369D01*
X62049913Y-105827465D01*
X61450814Y-106155887D01*
X60874977Y-106408287D01*
X60324976Y-106583315D01*
X60084953Y-106636789D01*
X59852347Y-106668070D01*
X59568326Y-106686268D01*
X59260050Y-106691479D01*
X58954679Y-106683798D01*
X58679374Y-106663321D01*
X58465720Y-106631103D01*
X58137397Y-106550598D01*
X57813821Y-106449496D01*
X57489149Y-106324080D01*
X57157540Y-106170635D01*
X56813153Y-105985445D01*
X56450144Y-105764795D01*
X56062673Y-105504969D01*
X55644898Y-105202250D01*
X55190977Y-104852924D01*
X54695068Y-104453275D01*
X54151329Y-103999587D01*
X53636459Y-103559439D01*
X53207904Y-103191809D01*
X52832894Y-102874902D01*
X52502867Y-102601906D01*
X52209258Y-102366003D01*
X51943504Y-102160379D01*
X51697041Y-101978218D01*
X51461305Y-101812706D01*
X51332553Y-101725925D01*
X50809025Y-101397357D01*
X50321126Y-101132879D01*
X49856484Y-100926834D01*
X49402723Y-100773571D01*
X49067720Y-100691030D01*
X48665553Y-100606945D01*
X59312387Y-100607738D01*
X59312387Y-100607738D01*
G37*
X59312387Y-100607738D02*
X60446129Y-100607871D01*
X61498012Y-100608104D01*
X62470843Y-100608453D01*
X63367429Y-100608935D01*
X64190577Y-100609565D01*
X64943094Y-100610360D01*
X65627789Y-100611335D01*
X66247467Y-100612506D01*
X66804936Y-100613889D01*
X67303004Y-100615500D01*
X67744478Y-100617356D01*
X68132164Y-100619471D01*
X68468870Y-100621863D01*
X68757403Y-100624546D01*
X69000571Y-100627537D01*
X69201181Y-100630852D01*
X69362039Y-100634507D01*
X69485954Y-100638517D01*
X69575732Y-100642899D01*
X69634181Y-100647669D01*
X69664107Y-100652842D01*
X69668318Y-100658435D01*
X69649622Y-100664463D01*
X69639660Y-100666414D01*
X69170719Y-100782368D01*
X68669094Y-100964020D01*
X68147616Y-101205675D01*
X67619117Y-101501637D01*
X67302983Y-101703584D01*
X67069376Y-101863638D01*
X66830760Y-102035022D01*
X66578899Y-102224280D01*
X66305559Y-102437959D01*
X66002506Y-102682607D01*
X65661504Y-102964770D01*
X65274320Y-103290993D01*
X64838932Y-103662497D01*
X64555756Y-103904432D01*
X64272531Y-104144875D01*
X64000888Y-104374063D01*
X63752454Y-104582234D01*
X63538861Y-104759627D01*
X63371735Y-104896479D01*
X63307600Y-104947949D01*
X62669700Y-105424369D01*
X62049913Y-105827465D01*
X61450814Y-106155887D01*
X60874977Y-106408287D01*
X60324976Y-106583315D01*
X60084953Y-106636789D01*
X59852347Y-106668070D01*
X59568326Y-106686268D01*
X59260050Y-106691479D01*
X58954679Y-106683798D01*
X58679374Y-106663321D01*
X58465720Y-106631103D01*
X58137397Y-106550598D01*
X57813821Y-106449496D01*
X57489149Y-106324080D01*
X57157540Y-106170635D01*
X56813153Y-105985445D01*
X56450144Y-105764795D01*
X56062673Y-105504969D01*
X55644898Y-105202250D01*
X55190977Y-104852924D01*
X54695068Y-104453275D01*
X54151329Y-103999587D01*
X53636459Y-103559439D01*
X53207904Y-103191809D01*
X52832894Y-102874902D01*
X52502867Y-102601906D01*
X52209258Y-102366003D01*
X51943504Y-102160379D01*
X51697041Y-101978218D01*
X51461305Y-101812706D01*
X51332553Y-101725925D01*
X50809025Y-101397357D01*
X50321126Y-101132879D01*
X49856484Y-100926834D01*
X49402723Y-100773571D01*
X49067720Y-100691030D01*
X48665553Y-100606945D01*
X59312387Y-100607738D01*
G36*
X88432035Y-100609677D02*
G01*
X88776387Y-100609712D01*
X89717130Y-100609944D01*
X90634111Y-100610423D01*
X91523842Y-100611137D01*
X92382835Y-100612075D01*
X93207604Y-100613226D01*
X93994660Y-100614578D01*
X94740517Y-100616119D01*
X95441685Y-100617839D01*
X96094679Y-100619726D01*
X96696010Y-100621769D01*
X97242191Y-100623956D01*
X97729735Y-100626276D01*
X98155153Y-100628718D01*
X98514959Y-100631270D01*
X98805664Y-100633922D01*
X99023782Y-100636661D01*
X99165824Y-100639477D01*
X99228304Y-100642357D01*
X99229307Y-100643711D01*
X98782612Y-100746509D01*
X98302904Y-100906013D01*
X97811215Y-101113754D01*
X97328574Y-101361262D01*
X97073720Y-101511819D01*
X96771078Y-101709176D01*
X96436683Y-101945235D01*
X96065531Y-102223897D01*
X95652620Y-102549065D01*
X95192943Y-102924638D01*
X94681499Y-103354518D01*
X94385553Y-103607581D01*
X93884198Y-104035925D01*
X93437751Y-104411317D01*
X93039408Y-104738777D01*
X92682366Y-105023320D01*
X92359823Y-105269965D01*
X92064976Y-105483729D01*
X91791022Y-105669629D01*
X91531159Y-105832683D01*
X91278583Y-105977907D01*
X91026492Y-106110321D01*
X90922868Y-106161503D01*
X90476447Y-106363217D01*
X90069818Y-106511963D01*
X89681371Y-106613066D01*
X89289498Y-106671854D01*
X88872590Y-106693653D01*
X88763036Y-106693955D01*
X88397547Y-106680328D01*
X88063585Y-106645640D01*
X87883317Y-106614201D01*
X87358633Y-106467392D01*
X86804407Y-106242076D01*
X86220418Y-105938137D01*
X85606444Y-105555456D01*
X84962265Y-105093917D01*
X84848694Y-105006799D01*
X84724290Y-104907784D01*
X84546060Y-104762128D01*
X84324322Y-104578452D01*
X84069396Y-104365377D01*
X83791600Y-104131524D01*
X83501253Y-103885513D01*
X83240028Y-103662793D01*
X82945524Y-103411886D01*
X82652869Y-103164348D01*
X82372667Y-102929019D01*
X82115522Y-102714741D01*
X81892038Y-102530355D01*
X81712818Y-102384702D01*
X81600887Y-102296163D01*
X80955550Y-101824913D01*
X80341176Y-101431584D01*
X79756806Y-101115682D01*
X79201479Y-100876709D01*
X78674237Y-100714170D01*
X78449113Y-100666414D01*
X78423942Y-100660250D01*
X78420875Y-100654529D01*
X78442719Y-100649237D01*
X78492280Y-100644358D01*
X78572364Y-100639877D01*
X78685776Y-100635778D01*
X78835323Y-100632046D01*
X79023810Y-100628666D01*
X79254044Y-100625622D01*
X79528830Y-100622899D01*
X79850974Y-100620481D01*
X80223283Y-100618353D01*
X80648562Y-100616500D01*
X81129618Y-100614906D01*
X81669256Y-100613555D01*
X82270282Y-100612433D01*
X82935502Y-100611524D01*
X83667722Y-100610812D01*
X84469748Y-100610283D01*
X85344387Y-100609920D01*
X86294443Y-100609708D01*
X87322724Y-100609633D01*
X88432035Y-100609677D01*
X88432035Y-100609677D01*
G37*
X88432035Y-100609677D02*
X88776387Y-100609712D01*
X89717130Y-100609944D01*
X90634111Y-100610423D01*
X91523842Y-100611137D01*
X92382835Y-100612075D01*
X93207604Y-100613226D01*
X93994660Y-100614578D01*
X94740517Y-100616119D01*
X95441685Y-100617839D01*
X96094679Y-100619726D01*
X96696010Y-100621769D01*
X97242191Y-100623956D01*
X97729735Y-100626276D01*
X98155153Y-100628718D01*
X98514959Y-100631270D01*
X98805664Y-100633922D01*
X99023782Y-100636661D01*
X99165824Y-100639477D01*
X99228304Y-100642357D01*
X99229307Y-100643711D01*
X98782612Y-100746509D01*
X98302904Y-100906013D01*
X97811215Y-101113754D01*
X97328574Y-101361262D01*
X97073720Y-101511819D01*
X96771078Y-101709176D01*
X96436683Y-101945235D01*
X96065531Y-102223897D01*
X95652620Y-102549065D01*
X95192943Y-102924638D01*
X94681499Y-103354518D01*
X94385553Y-103607581D01*
X93884198Y-104035925D01*
X93437751Y-104411317D01*
X93039408Y-104738777D01*
X92682366Y-105023320D01*
X92359823Y-105269965D01*
X92064976Y-105483729D01*
X91791022Y-105669629D01*
X91531159Y-105832683D01*
X91278583Y-105977907D01*
X91026492Y-106110321D01*
X90922868Y-106161503D01*
X90476447Y-106363217D01*
X90069818Y-106511963D01*
X89681371Y-106613066D01*
X89289498Y-106671854D01*
X88872590Y-106693653D01*
X88763036Y-106693955D01*
X88397547Y-106680328D01*
X88063585Y-106645640D01*
X87883317Y-106614201D01*
X87358633Y-106467392D01*
X86804407Y-106242076D01*
X86220418Y-105938137D01*
X85606444Y-105555456D01*
X84962265Y-105093917D01*
X84848694Y-105006799D01*
X84724290Y-104907784D01*
X84546060Y-104762128D01*
X84324322Y-104578452D01*
X84069396Y-104365377D01*
X83791600Y-104131524D01*
X83501253Y-103885513D01*
X83240028Y-103662793D01*
X82945524Y-103411886D01*
X82652869Y-103164348D01*
X82372667Y-102929019D01*
X82115522Y-102714741D01*
X81892038Y-102530355D01*
X81712818Y-102384702D01*
X81600887Y-102296163D01*
X80955550Y-101824913D01*
X80341176Y-101431584D01*
X79756806Y-101115682D01*
X79201479Y-100876709D01*
X78674237Y-100714170D01*
X78449113Y-100666414D01*
X78423942Y-100660250D01*
X78420875Y-100654529D01*
X78442719Y-100649237D01*
X78492280Y-100644358D01*
X78572364Y-100639877D01*
X78685776Y-100635778D01*
X78835323Y-100632046D01*
X79023810Y-100628666D01*
X79254044Y-100625622D01*
X79528830Y-100622899D01*
X79850974Y-100620481D01*
X80223283Y-100618353D01*
X80648562Y-100616500D01*
X81129618Y-100614906D01*
X81669256Y-100613555D01*
X82270282Y-100612433D01*
X82935502Y-100611524D01*
X83667722Y-100610812D01*
X84469748Y-100610283D01*
X85344387Y-100609920D01*
X86294443Y-100609708D01*
X87322724Y-100609633D01*
X88432035Y-100609677D01*
G36*
X117944053Y-100607738D02*
G01*
X119077796Y-100607871D01*
X120129679Y-100608104D01*
X121102509Y-100608453D01*
X121999095Y-100608935D01*
X122822243Y-100609565D01*
X123574761Y-100610360D01*
X124259455Y-100611335D01*
X124879134Y-100612506D01*
X125436603Y-100613889D01*
X125934671Y-100615500D01*
X126376144Y-100617356D01*
X126763830Y-100619471D01*
X127100537Y-100621863D01*
X127389070Y-100624546D01*
X127632238Y-100627537D01*
X127832847Y-100630852D01*
X127993706Y-100634507D01*
X128117621Y-100638517D01*
X128207399Y-100642899D01*
X128265847Y-100647669D01*
X128295774Y-100652842D01*
X128299985Y-100658435D01*
X128281289Y-100664463D01*
X128271327Y-100666414D01*
X127797684Y-100783735D01*
X127290863Y-100968139D01*
X126762092Y-101214624D01*
X126222600Y-101518187D01*
X125906448Y-101720276D01*
X125684828Y-101872358D01*
X125451458Y-102040944D01*
X125199123Y-102231803D01*
X124920605Y-102450702D01*
X124608689Y-102703408D01*
X124256157Y-102995689D01*
X123855793Y-103333311D01*
X123400380Y-103722042D01*
X123382713Y-103737195D01*
X123106039Y-103973615D01*
X122830058Y-104207766D01*
X122566531Y-104429792D01*
X122327220Y-104629836D01*
X122123885Y-104798041D01*
X121968289Y-104924549D01*
X121923387Y-104960221D01*
X121262780Y-105449581D01*
X120628283Y-105858408D01*
X120019885Y-106186709D01*
X119437578Y-106434486D01*
X118881352Y-106601746D01*
X118716620Y-106636789D01*
X118484014Y-106668070D01*
X118199993Y-106686268D01*
X117891717Y-106691479D01*
X117586346Y-106683798D01*
X117311040Y-106663321D01*
X117097387Y-106631103D01*
X116769226Y-106550647D01*
X116445833Y-106449625D01*
X116121358Y-106324319D01*
X115789958Y-106171011D01*
X115445784Y-105985986D01*
X115082990Y-105765524D01*
X114695731Y-105505910D01*
X114278159Y-105203425D01*
X113824429Y-104854352D01*
X113328694Y-104454975D01*
X112785107Y-104001575D01*
X112271387Y-103562586D01*
X112010874Y-103338957D01*
X111748291Y-103115385D01*
X111497125Y-102903220D01*
X111270866Y-102713815D01*
X111083003Y-102558519D01*
X110959053Y-102458213D01*
X110339618Y-101988416D01*
X109754742Y-101591497D01*
X109200111Y-101265119D01*
X108671414Y-101006944D01*
X108164339Y-100814634D01*
X107699387Y-100690958D01*
X107297220Y-100606945D01*
X117944053Y-100607738D01*
X117944053Y-100607738D01*
G37*
X117944053Y-100607738D02*
X119077796Y-100607871D01*
X120129679Y-100608104D01*
X121102509Y-100608453D01*
X121999095Y-100608935D01*
X122822243Y-100609565D01*
X123574761Y-100610360D01*
X124259455Y-100611335D01*
X124879134Y-100612506D01*
X125436603Y-100613889D01*
X125934671Y-100615500D01*
X126376144Y-100617356D01*
X126763830Y-100619471D01*
X127100537Y-100621863D01*
X127389070Y-100624546D01*
X127632238Y-100627537D01*
X127832847Y-100630852D01*
X127993706Y-100634507D01*
X128117621Y-100638517D01*
X128207399Y-100642899D01*
X128265847Y-100647669D01*
X128295774Y-100652842D01*
X128299985Y-100658435D01*
X128281289Y-100664463D01*
X128271327Y-100666414D01*
X127797684Y-100783735D01*
X127290863Y-100968139D01*
X126762092Y-101214624D01*
X126222600Y-101518187D01*
X125906448Y-101720276D01*
X125684828Y-101872358D01*
X125451458Y-102040944D01*
X125199123Y-102231803D01*
X124920605Y-102450702D01*
X124608689Y-102703408D01*
X124256157Y-102995689D01*
X123855793Y-103333311D01*
X123400380Y-103722042D01*
X123382713Y-103737195D01*
X123106039Y-103973615D01*
X122830058Y-104207766D01*
X122566531Y-104429792D01*
X122327220Y-104629836D01*
X122123885Y-104798041D01*
X121968289Y-104924549D01*
X121923387Y-104960221D01*
X121262780Y-105449581D01*
X120628283Y-105858408D01*
X120019885Y-106186709D01*
X119437578Y-106434486D01*
X118881352Y-106601746D01*
X118716620Y-106636789D01*
X118484014Y-106668070D01*
X118199993Y-106686268D01*
X117891717Y-106691479D01*
X117586346Y-106683798D01*
X117311040Y-106663321D01*
X117097387Y-106631103D01*
X116769226Y-106550647D01*
X116445833Y-106449625D01*
X116121358Y-106324319D01*
X115789958Y-106171011D01*
X115445784Y-105985986D01*
X115082990Y-105765524D01*
X114695731Y-105505910D01*
X114278159Y-105203425D01*
X113824429Y-104854352D01*
X113328694Y-104454975D01*
X112785107Y-104001575D01*
X112271387Y-103562586D01*
X112010874Y-103338957D01*
X111748291Y-103115385D01*
X111497125Y-102903220D01*
X111270866Y-102713815D01*
X111083003Y-102558519D01*
X110959053Y-102458213D01*
X110339618Y-101988416D01*
X109754742Y-101591497D01*
X109200111Y-101265119D01*
X108671414Y-101006944D01*
X108164339Y-100814634D01*
X107699387Y-100690958D01*
X107297220Y-100606945D01*
X117944053Y-100607738D01*
G36*
X150461484Y-100607766D02*
G01*
X151345009Y-100607873D01*
X152155765Y-100608092D01*
X152896726Y-100608444D01*
X153570868Y-100608952D01*
X154181164Y-100609636D01*
X154730590Y-100610520D01*
X155222119Y-100611625D01*
X155658726Y-100612974D01*
X156043386Y-100614588D01*
X156379072Y-100616489D01*
X156668760Y-100618700D01*
X156915425Y-100621242D01*
X157122039Y-100624137D01*
X157291579Y-100627408D01*
X157427018Y-100631076D01*
X157531330Y-100635164D01*
X157607492Y-100639693D01*
X157658476Y-100644685D01*
X157687257Y-100650163D01*
X157696810Y-100656149D01*
X157690109Y-100662664D01*
X157670129Y-100669730D01*
X157639844Y-100677370D01*
X157610387Y-100683869D01*
X157273963Y-100765475D01*
X156962039Y-100864043D01*
X156644870Y-100990342D01*
X156292713Y-101155137D01*
X156250639Y-101176039D01*
X155988705Y-101312598D01*
X155726983Y-101461779D01*
X155458610Y-101628660D01*
X155176723Y-101818324D01*
X154874460Y-102035853D01*
X154544958Y-102286327D01*
X154181354Y-102574827D01*
X153776786Y-102906436D01*
X153324390Y-103286234D01*
X152826720Y-103711210D01*
X152324054Y-104139960D01*
X151875318Y-104515183D01*
X151473430Y-104842054D01*
X151111308Y-105125751D01*
X150781871Y-105371449D01*
X150478038Y-105584324D01*
X150192728Y-105769553D01*
X149918858Y-105932312D01*
X149649347Y-106077777D01*
X149461220Y-106171254D01*
X149031369Y-106364766D01*
X148643685Y-106508256D01*
X148276265Y-106607052D01*
X147907208Y-106666484D01*
X147514613Y-106691881D01*
X147314588Y-106693568D01*
X147080809Y-106687125D01*
X146847716Y-106672258D01*
X146644984Y-106651306D01*
X146521136Y-106630993D01*
X146191646Y-106549651D01*
X145879779Y-106449571D01*
X145557090Y-106320451D01*
X145195136Y-106151989D01*
X145185553Y-106147290D01*
X144926559Y-106015281D01*
X144673921Y-105875458D01*
X144420275Y-105722423D01*
X144158254Y-105550780D01*
X143880492Y-105355131D01*
X143579625Y-105130080D01*
X143248285Y-104870229D01*
X142879107Y-104570181D01*
X142464726Y-104224539D01*
X141997775Y-103827907D01*
X141865793Y-103714859D01*
X141448976Y-103358423D01*
X141087284Y-103051804D01*
X140772604Y-102788522D01*
X140496823Y-102562097D01*
X140251827Y-102366049D01*
X140029505Y-102193898D01*
X139821742Y-102039164D01*
X139620425Y-101895368D01*
X139417442Y-101756028D01*
X139390968Y-101738212D01*
X138778763Y-101359691D01*
X138179624Y-101054496D01*
X137598382Y-100824799D01*
X137039866Y-100672776D01*
X137010068Y-100666744D01*
X136987970Y-100660571D01*
X136987955Y-100654840D01*
X137012839Y-100649533D01*
X137065437Y-100644635D01*
X137148563Y-100640130D01*
X137265034Y-100636001D01*
X137417663Y-100632233D01*
X137609266Y-100628810D01*
X137842658Y-100625715D01*
X138120654Y-100622933D01*
X138446069Y-100620448D01*
X138821717Y-100618243D01*
X139250415Y-100616302D01*
X139734976Y-100614610D01*
X140278217Y-100613151D01*
X140882951Y-100611908D01*
X141551994Y-100610865D01*
X142288161Y-100610006D01*
X143094267Y-100609316D01*
X143973126Y-100608778D01*
X144927555Y-100608377D01*
X145960368Y-100608095D01*
X147074380Y-100607918D01*
X147344553Y-100607890D01*
X148464231Y-100607796D01*
X149502216Y-100607747D01*
X150461484Y-100607766D01*
X150461484Y-100607766D01*
G37*
X150461484Y-100607766D02*
X151345009Y-100607873D01*
X152155765Y-100608092D01*
X152896726Y-100608444D01*
X153570868Y-100608952D01*
X154181164Y-100609636D01*
X154730590Y-100610520D01*
X155222119Y-100611625D01*
X155658726Y-100612974D01*
X156043386Y-100614588D01*
X156379072Y-100616489D01*
X156668760Y-100618700D01*
X156915425Y-100621242D01*
X157122039Y-100624137D01*
X157291579Y-100627408D01*
X157427018Y-100631076D01*
X157531330Y-100635164D01*
X157607492Y-100639693D01*
X157658476Y-100644685D01*
X157687257Y-100650163D01*
X157696810Y-100656149D01*
X157690109Y-100662664D01*
X157670129Y-100669730D01*
X157639844Y-100677370D01*
X157610387Y-100683869D01*
X157273963Y-100765475D01*
X156962039Y-100864043D01*
X156644870Y-100990342D01*
X156292713Y-101155137D01*
X156250639Y-101176039D01*
X155988705Y-101312598D01*
X155726983Y-101461779D01*
X155458610Y-101628660D01*
X155176723Y-101818324D01*
X154874460Y-102035853D01*
X154544958Y-102286327D01*
X154181354Y-102574827D01*
X153776786Y-102906436D01*
X153324390Y-103286234D01*
X152826720Y-103711210D01*
X152324054Y-104139960D01*
X151875318Y-104515183D01*
X151473430Y-104842054D01*
X151111308Y-105125751D01*
X150781871Y-105371449D01*
X150478038Y-105584324D01*
X150192728Y-105769553D01*
X149918858Y-105932312D01*
X149649347Y-106077777D01*
X149461220Y-106171254D01*
X149031369Y-106364766D01*
X148643685Y-106508256D01*
X148276265Y-106607052D01*
X147907208Y-106666484D01*
X147514613Y-106691881D01*
X147314588Y-106693568D01*
X147080809Y-106687125D01*
X146847716Y-106672258D01*
X146644984Y-106651306D01*
X146521136Y-106630993D01*
X146191646Y-106549651D01*
X145879779Y-106449571D01*
X145557090Y-106320451D01*
X145195136Y-106151989D01*
X145185553Y-106147290D01*
X144926559Y-106015281D01*
X144673921Y-105875458D01*
X144420275Y-105722423D01*
X144158254Y-105550780D01*
X143880492Y-105355131D01*
X143579625Y-105130080D01*
X143248285Y-104870229D01*
X142879107Y-104570181D01*
X142464726Y-104224539D01*
X141997775Y-103827907D01*
X141865793Y-103714859D01*
X141448976Y-103358423D01*
X141087284Y-103051804D01*
X140772604Y-102788522D01*
X140496823Y-102562097D01*
X140251827Y-102366049D01*
X140029505Y-102193898D01*
X139821742Y-102039164D01*
X139620425Y-101895368D01*
X139417442Y-101756028D01*
X139390968Y-101738212D01*
X138778763Y-101359691D01*
X138179624Y-101054496D01*
X137598382Y-100824799D01*
X137039866Y-100672776D01*
X137010068Y-100666744D01*
X136987970Y-100660571D01*
X136987955Y-100654840D01*
X137012839Y-100649533D01*
X137065437Y-100644635D01*
X137148563Y-100640130D01*
X137265034Y-100636001D01*
X137417663Y-100632233D01*
X137609266Y-100628810D01*
X137842658Y-100625715D01*
X138120654Y-100622933D01*
X138446069Y-100620448D01*
X138821717Y-100618243D01*
X139250415Y-100616302D01*
X139734976Y-100614610D01*
X140278217Y-100613151D01*
X140882951Y-100611908D01*
X141551994Y-100610865D01*
X142288161Y-100610006D01*
X143094267Y-100609316D01*
X143973126Y-100608778D01*
X144927555Y-100608377D01*
X145960368Y-100608095D01*
X147074380Y-100607918D01*
X147344553Y-100607890D01*
X148464231Y-100607796D01*
X149502216Y-100607747D01*
X150461484Y-100607766D01*
G36*
X107572387Y-88296530D02*
G01*
X107569074Y-88444789D01*
X107560008Y-88638650D01*
X107546493Y-88861637D01*
X107529838Y-89097276D01*
X107511348Y-89329093D01*
X107492330Y-89540614D01*
X107474089Y-89715365D01*
X107457933Y-89836872D01*
X107446256Y-89887086D01*
X107421361Y-89890905D01*
X107398241Y-89813729D01*
X107386917Y-89738919D01*
X107373184Y-89613564D01*
X107355416Y-89429297D01*
X107335983Y-89211627D01*
X107318491Y-89001600D01*
X107299759Y-88779480D01*
X107280490Y-88570668D01*
X107263002Y-88399233D01*
X107250098Y-88292517D01*
X107224106Y-88112600D01*
X107572387Y-88112600D01*
X107572387Y-88296530D01*
X107572387Y-88296530D01*
G37*
X107572387Y-88296530D02*
X107569074Y-88444789D01*
X107560008Y-88638650D01*
X107546493Y-88861637D01*
X107529838Y-89097276D01*
X107511348Y-89329093D01*
X107492330Y-89540614D01*
X107474089Y-89715365D01*
X107457933Y-89836872D01*
X107446256Y-89887086D01*
X107421361Y-89890905D01*
X107398241Y-89813729D01*
X107386917Y-89738919D01*
X107373184Y-89613564D01*
X107355416Y-89429297D01*
X107335983Y-89211627D01*
X107318491Y-89001600D01*
X107299759Y-88779480D01*
X107280490Y-88570668D01*
X107263002Y-88399233D01*
X107250098Y-88292517D01*
X107224106Y-88112600D01*
X107572387Y-88112600D01*
X107572387Y-88296530D01*
G36*
X108150771Y-88271350D02*
G01*
X108137921Y-88368157D01*
X108119042Y-88530395D01*
X108096222Y-88739215D01*
X108071544Y-88975772D01*
X108058400Y-89106199D01*
X108034799Y-89335577D01*
X108012957Y-89533472D01*
X107994591Y-89685388D01*
X107981421Y-89776828D01*
X107976499Y-89796932D01*
X107945435Y-89783585D01*
X107938713Y-89774106D01*
X107926868Y-89718393D01*
X107910665Y-89588257D01*
X107891027Y-89393775D01*
X107868876Y-89145026D01*
X107845136Y-88852087D01*
X107820729Y-88525038D01*
X107808849Y-88356017D01*
X107792082Y-88112600D01*
X108175874Y-88112600D01*
X108150771Y-88271350D01*
X108150771Y-88271350D01*
G37*
X108150771Y-88271350D02*
X108137921Y-88368157D01*
X108119042Y-88530395D01*
X108096222Y-88739215D01*
X108071544Y-88975772D01*
X108058400Y-89106199D01*
X108034799Y-89335577D01*
X108012957Y-89533472D01*
X107994591Y-89685388D01*
X107981421Y-89776828D01*
X107976499Y-89796932D01*
X107945435Y-89783585D01*
X107938713Y-89774106D01*
X107926868Y-89718393D01*
X107910665Y-89588257D01*
X107891027Y-89393775D01*
X107868876Y-89145026D01*
X107845136Y-88852087D01*
X107820729Y-88525038D01*
X107808849Y-88356017D01*
X107792082Y-88112600D01*
X108175874Y-88112600D01*
X108150771Y-88271350D01*
G36*
X103618995Y-88483017D02*
G01*
X103597437Y-88751387D01*
X103578015Y-88945779D01*
X103558480Y-89076766D01*
X103536581Y-89154925D01*
X103510067Y-89190829D01*
X103476688Y-89195053D01*
X103467955Y-89192704D01*
X103427285Y-89193019D01*
X103396375Y-89234480D01*
X103368249Y-89332269D01*
X103342107Y-89466604D01*
X103311765Y-89612109D01*
X103281413Y-89717991D01*
X103257189Y-89763222D01*
X103255420Y-89763600D01*
X103232459Y-89725495D01*
X103209471Y-89627598D01*
X103197318Y-89541350D01*
X103184668Y-89403433D01*
X103170301Y-89210759D01*
X103156331Y-88993148D01*
X103148517Y-88853434D01*
X103136499Y-88648029D01*
X103123212Y-88460469D01*
X103110512Y-88315228D01*
X103102712Y-88250184D01*
X103081217Y-88112600D01*
X103647030Y-88112600D01*
X103618995Y-88483017D01*
X103618995Y-88483017D01*
G37*
X103618995Y-88483017D02*
X103597437Y-88751387D01*
X103578015Y-88945779D01*
X103558480Y-89076766D01*
X103536581Y-89154925D01*
X103510067Y-89190829D01*
X103476688Y-89195053D01*
X103467955Y-89192704D01*
X103427285Y-89193019D01*
X103396375Y-89234480D01*
X103368249Y-89332269D01*
X103342107Y-89466604D01*
X103311765Y-89612109D01*
X103281413Y-89717991D01*
X103257189Y-89763222D01*
X103255420Y-89763600D01*
X103232459Y-89725495D01*
X103209471Y-89627598D01*
X103197318Y-89541350D01*
X103184668Y-89403433D01*
X103170301Y-89210759D01*
X103156331Y-88993148D01*
X103148517Y-88853434D01*
X103136499Y-88648029D01*
X103123212Y-88460469D01*
X103110512Y-88315228D01*
X103102712Y-88250184D01*
X103081217Y-88112600D01*
X103647030Y-88112600D01*
X103618995Y-88483017D01*
G36*
X106368494Y-88250184D02*
G01*
X106324973Y-88511107D01*
X106290940Y-88698757D01*
X106264164Y-88823711D01*
X106242412Y-88896546D01*
X106225976Y-88925611D01*
X106181752Y-88914987D01*
X106096697Y-88855511D01*
X105988353Y-88759656D01*
X105976725Y-88748366D01*
X105861302Y-88639668D01*
X105787829Y-88585011D01*
X105741102Y-88575973D01*
X105709129Y-88600146D01*
X105621598Y-88658508D01*
X105532138Y-88633085D01*
X105498780Y-88600309D01*
X105417383Y-88556616D01*
X105313679Y-88548228D01*
X105251039Y-88557611D01*
X105203512Y-88583313D01*
X105163920Y-88638918D01*
X105125087Y-88738005D01*
X105079836Y-88894157D01*
X105030313Y-89084453D01*
X104997904Y-89187191D01*
X104968644Y-89222302D01*
X104940686Y-89186071D01*
X104912181Y-89074780D01*
X104881285Y-88884714D01*
X104862902Y-88747600D01*
X104830000Y-88515000D01*
X104798423Y-88356925D01*
X104764078Y-88263409D01*
X104722874Y-88224484D01*
X104670720Y-88230183D01*
X104653841Y-88238287D01*
X104583864Y-88256550D01*
X104551113Y-88217658D01*
X104505779Y-88159530D01*
X104456852Y-88178930D01*
X104426058Y-88250184D01*
X104414165Y-88326223D01*
X104397532Y-88468057D01*
X104378150Y-88657081D01*
X104358013Y-88874689D01*
X104353009Y-88932372D01*
X104324396Y-89240598D01*
X104297958Y-89468142D01*
X104273005Y-89618941D01*
X104248849Y-89696930D01*
X104224801Y-89706047D01*
X104218957Y-89698404D01*
X104203858Y-89641243D01*
X104183372Y-89519980D01*
X104160654Y-89354749D01*
X104146308Y-89234434D01*
X104118265Y-88993816D01*
X104095244Y-88825078D01*
X104074280Y-88715810D01*
X104052411Y-88653603D01*
X104026671Y-88626047D01*
X103999705Y-88620600D01*
X103952235Y-88581574D01*
X103914746Y-88477495D01*
X103892808Y-88327862D01*
X103889387Y-88234309D01*
X103889387Y-88112600D01*
X106390890Y-88112600D01*
X106368494Y-88250184D01*
X106368494Y-88250184D01*
G37*
X106368494Y-88250184D02*
X106324973Y-88511107D01*
X106290940Y-88698757D01*
X106264164Y-88823711D01*
X106242412Y-88896546D01*
X106225976Y-88925611D01*
X106181752Y-88914987D01*
X106096697Y-88855511D01*
X105988353Y-88759656D01*
X105976725Y-88748366D01*
X105861302Y-88639668D01*
X105787829Y-88585011D01*
X105741102Y-88575973D01*
X105709129Y-88600146D01*
X105621598Y-88658508D01*
X105532138Y-88633085D01*
X105498780Y-88600309D01*
X105417383Y-88556616D01*
X105313679Y-88548228D01*
X105251039Y-88557611D01*
X105203512Y-88583313D01*
X105163920Y-88638918D01*
X105125087Y-88738005D01*
X105079836Y-88894157D01*
X105030313Y-89084453D01*
X104997904Y-89187191D01*
X104968644Y-89222302D01*
X104940686Y-89186071D01*
X104912181Y-89074780D01*
X104881285Y-88884714D01*
X104862902Y-88747600D01*
X104830000Y-88515000D01*
X104798423Y-88356925D01*
X104764078Y-88263409D01*
X104722874Y-88224484D01*
X104670720Y-88230183D01*
X104653841Y-88238287D01*
X104583864Y-88256550D01*
X104551113Y-88217658D01*
X104505779Y-88159530D01*
X104456852Y-88178930D01*
X104426058Y-88250184D01*
X104414165Y-88326223D01*
X104397532Y-88468057D01*
X104378150Y-88657081D01*
X104358013Y-88874689D01*
X104353009Y-88932372D01*
X104324396Y-89240598D01*
X104297958Y-89468142D01*
X104273005Y-89618941D01*
X104248849Y-89696930D01*
X104224801Y-89706047D01*
X104218957Y-89698404D01*
X104203858Y-89641243D01*
X104183372Y-89519980D01*
X104160654Y-89354749D01*
X104146308Y-89234434D01*
X104118265Y-88993816D01*
X104095244Y-88825078D01*
X104074280Y-88715810D01*
X104052411Y-88653603D01*
X104026671Y-88626047D01*
X103999705Y-88620600D01*
X103952235Y-88581574D01*
X103914746Y-88477495D01*
X103892808Y-88327862D01*
X103889387Y-88234309D01*
X103889387Y-88112600D01*
X106390890Y-88112600D01*
X106368494Y-88250184D01*
G36*
X109287978Y-88483017D02*
G01*
X109266031Y-88762140D01*
X109243118Y-89028015D01*
X109220560Y-89267591D01*
X109199676Y-89467815D01*
X109181788Y-89615635D01*
X109168215Y-89697999D01*
X109163832Y-89710266D01*
X109130922Y-89698966D01*
X109124129Y-89689573D01*
X109113338Y-89636341D01*
X109098764Y-89514110D01*
X109081953Y-89338378D01*
X109064450Y-89124645D01*
X109055252Y-88998840D01*
X109038035Y-88763038D01*
X109021149Y-88549111D01*
X109006110Y-88375056D01*
X108994430Y-88258874D01*
X108990473Y-88229017D01*
X108984545Y-88154960D01*
X109013485Y-88121640D01*
X109098586Y-88112868D01*
X109143578Y-88112600D01*
X109315654Y-88112600D01*
X109287978Y-88483017D01*
X109287978Y-88483017D01*
G37*
X109287978Y-88483017D02*
X109266031Y-88762140D01*
X109243118Y-89028015D01*
X109220560Y-89267591D01*
X109199676Y-89467815D01*
X109181788Y-89615635D01*
X109168215Y-89697999D01*
X109163832Y-89710266D01*
X109130922Y-89698966D01*
X109124129Y-89689573D01*
X109113338Y-89636341D01*
X109098764Y-89514110D01*
X109081953Y-89338378D01*
X109064450Y-89124645D01*
X109055252Y-88998840D01*
X109038035Y-88763038D01*
X109021149Y-88549111D01*
X109006110Y-88375056D01*
X108994430Y-88258874D01*
X108990473Y-88229017D01*
X108984545Y-88154960D01*
X109013485Y-88121640D01*
X109098586Y-88112868D01*
X109143578Y-88112600D01*
X109315654Y-88112600D01*
X109287978Y-88483017D01*
G36*
X111992748Y-88398350D02*
G01*
X111969702Y-88694129D01*
X111946517Y-88971560D01*
X111924344Y-89218589D01*
X111904332Y-89423165D01*
X111887633Y-89573235D01*
X111875396Y-89656747D01*
X111871419Y-89669679D01*
X111848336Y-89649464D01*
X111831707Y-89608040D01*
X111820095Y-89539226D01*
X111804793Y-89404753D01*
X111787336Y-89223471D01*
X111769257Y-89014226D01*
X111752091Y-88795866D01*
X111737374Y-88587239D01*
X111726638Y-88407192D01*
X111721420Y-88274573D01*
X111721156Y-88250184D01*
X111728526Y-88157547D01*
X111768128Y-88119812D01*
X111865917Y-88112601D01*
X111867627Y-88112600D01*
X112014201Y-88112600D01*
X111992748Y-88398350D01*
X111992748Y-88398350D01*
G37*
X111992748Y-88398350D02*
X111969702Y-88694129D01*
X111946517Y-88971560D01*
X111924344Y-89218589D01*
X111904332Y-89423165D01*
X111887633Y-89573235D01*
X111875396Y-89656747D01*
X111871419Y-89669679D01*
X111848336Y-89649464D01*
X111831707Y-89608040D01*
X111820095Y-89539226D01*
X111804793Y-89404753D01*
X111787336Y-89223471D01*
X111769257Y-89014226D01*
X111752091Y-88795866D01*
X111737374Y-88587239D01*
X111726638Y-88407192D01*
X111721420Y-88274573D01*
X111721156Y-88250184D01*
X111728526Y-88157547D01*
X111768128Y-88119812D01*
X111865917Y-88112601D01*
X111867627Y-88112600D01*
X112014201Y-88112600D01*
X111992748Y-88398350D01*
G36*
X99712897Y-88250184D02*
G01*
X99679586Y-88377687D01*
X99642275Y-88421136D01*
X99599763Y-88381094D01*
X99571132Y-88316891D01*
X99518026Y-88176100D01*
X99484083Y-88345434D01*
X99461909Y-88477863D01*
X99438065Y-88653606D01*
X99420211Y-88811100D01*
X99390281Y-89107434D01*
X99327310Y-88959267D01*
X99284782Y-88868394D01*
X99257794Y-88848024D01*
X99232620Y-88889208D01*
X99229918Y-88895767D01*
X99206233Y-88984158D01*
X99182064Y-89121077D01*
X99168813Y-89223183D01*
X99141983Y-89389017D01*
X99107637Y-89476046D01*
X99067512Y-89482423D01*
X99023343Y-89406306D01*
X99015817Y-89385775D01*
X98965869Y-89283293D01*
X98919282Y-89264269D01*
X98880142Y-89328766D01*
X98866360Y-89383481D01*
X98833292Y-89496147D01*
X98798852Y-89525998D01*
X98767827Y-89472621D01*
X98751797Y-89393363D01*
X98733957Y-89258011D01*
X98713458Y-89087339D01*
X98702595Y-88990445D01*
X98679324Y-88842689D01*
X98651785Y-88779392D01*
X98621613Y-88800554D01*
X98590446Y-88906175D01*
X98575026Y-88990496D01*
X98542562Y-89192100D01*
X98511544Y-89043934D01*
X98494514Y-88934314D01*
X98475779Y-88769398D01*
X98458514Y-88578417D01*
X98452935Y-88504184D01*
X98425344Y-88112600D01*
X99738603Y-88112600D01*
X99712897Y-88250184D01*
X99712897Y-88250184D01*
G37*
X99712897Y-88250184D02*
X99679586Y-88377687D01*
X99642275Y-88421136D01*
X99599763Y-88381094D01*
X99571132Y-88316891D01*
X99518026Y-88176100D01*
X99484083Y-88345434D01*
X99461909Y-88477863D01*
X99438065Y-88653606D01*
X99420211Y-88811100D01*
X99390281Y-89107434D01*
X99327310Y-88959267D01*
X99284782Y-88868394D01*
X99257794Y-88848024D01*
X99232620Y-88889208D01*
X99229918Y-88895767D01*
X99206233Y-88984158D01*
X99182064Y-89121077D01*
X99168813Y-89223183D01*
X99141983Y-89389017D01*
X99107637Y-89476046D01*
X99067512Y-89482423D01*
X99023343Y-89406306D01*
X99015817Y-89385775D01*
X98965869Y-89283293D01*
X98919282Y-89264269D01*
X98880142Y-89328766D01*
X98866360Y-89383481D01*
X98833292Y-89496147D01*
X98798852Y-89525998D01*
X98767827Y-89472621D01*
X98751797Y-89393363D01*
X98733957Y-89258011D01*
X98713458Y-89087339D01*
X98702595Y-88990445D01*
X98679324Y-88842689D01*
X98651785Y-88779392D01*
X98621613Y-88800554D01*
X98590446Y-88906175D01*
X98575026Y-88990496D01*
X98542562Y-89192100D01*
X98511544Y-89043934D01*
X98494514Y-88934314D01*
X98475779Y-88769398D01*
X98458514Y-88578417D01*
X98452935Y-88504184D01*
X98425344Y-88112600D01*
X99738603Y-88112600D01*
X99712897Y-88250184D01*
G36*
X102639035Y-88588850D02*
G01*
X102624002Y-88800626D01*
X102606804Y-88998780D01*
X102589852Y-89157451D01*
X102578849Y-89234434D01*
X102548485Y-89403767D01*
X102493079Y-89288678D01*
X102440595Y-89207119D01*
X102398226Y-89206578D01*
X102362994Y-89288503D01*
X102347379Y-89359481D01*
X102313800Y-89479907D01*
X102275862Y-89527476D01*
X102240249Y-89498131D01*
X102221511Y-89435886D01*
X102208836Y-89349094D01*
X102191858Y-89198932D01*
X102172790Y-89006446D01*
X102153845Y-88792683D01*
X102153722Y-88791205D01*
X102127164Y-88521403D01*
X102099417Y-88335646D01*
X102070305Y-88233320D01*
X102039651Y-88213810D01*
X102007281Y-88276502D01*
X102006711Y-88278287D01*
X101967939Y-88340611D01*
X101927493Y-88329975D01*
X101902019Y-88256081D01*
X101899720Y-88215935D01*
X101902995Y-88167196D01*
X101923628Y-88136850D01*
X101977834Y-88120541D01*
X102081827Y-88113912D01*
X102251819Y-88112606D01*
X102284288Y-88112600D01*
X102668856Y-88112600D01*
X102639035Y-88588850D01*
X102639035Y-88588850D01*
G37*
X102639035Y-88588850D02*
X102624002Y-88800626D01*
X102606804Y-88998780D01*
X102589852Y-89157451D01*
X102578849Y-89234434D01*
X102548485Y-89403767D01*
X102493079Y-89288678D01*
X102440595Y-89207119D01*
X102398226Y-89206578D01*
X102362994Y-89288503D01*
X102347379Y-89359481D01*
X102313800Y-89479907D01*
X102275862Y-89527476D01*
X102240249Y-89498131D01*
X102221511Y-89435886D01*
X102208836Y-89349094D01*
X102191858Y-89198932D01*
X102172790Y-89006446D01*
X102153845Y-88792683D01*
X102153722Y-88791205D01*
X102127164Y-88521403D01*
X102099417Y-88335646D01*
X102070305Y-88233320D01*
X102039651Y-88213810D01*
X102007281Y-88276502D01*
X102006711Y-88278287D01*
X101967939Y-88340611D01*
X101927493Y-88329975D01*
X101902019Y-88256081D01*
X101899720Y-88215935D01*
X101902995Y-88167196D01*
X101923628Y-88136850D01*
X101977834Y-88120541D01*
X102081827Y-88113912D01*
X102251819Y-88112606D01*
X102284288Y-88112600D01*
X102668856Y-88112600D01*
X102639035Y-88588850D01*
G36*
X112465171Y-88292517D02*
G01*
X112451590Y-88408821D01*
X112432788Y-88583560D01*
X112411494Y-88790879D01*
X112394841Y-88959267D01*
X112366767Y-89218278D01*
X112340961Y-89392910D01*
X112317301Y-89483418D01*
X112295669Y-89490057D01*
X112275944Y-89413080D01*
X112258005Y-89252743D01*
X112257751Y-89249725D01*
X112242486Y-89059262D01*
X112224849Y-88826136D01*
X112207980Y-88592172D01*
X112203352Y-88525350D01*
X112175120Y-88112600D01*
X112488241Y-88112600D01*
X112465171Y-88292517D01*
X112465171Y-88292517D01*
G37*
X112465171Y-88292517D02*
X112451590Y-88408821D01*
X112432788Y-88583560D01*
X112411494Y-88790879D01*
X112394841Y-88959267D01*
X112366767Y-89218278D01*
X112340961Y-89392910D01*
X112317301Y-89483418D01*
X112295669Y-89490057D01*
X112275944Y-89413080D01*
X112258005Y-89252743D01*
X112257751Y-89249725D01*
X112242486Y-89059262D01*
X112224849Y-88826136D01*
X112207980Y-88592172D01*
X112203352Y-88525350D01*
X112175120Y-88112600D01*
X112488241Y-88112600D01*
X112465171Y-88292517D01*
G36*
X108778572Y-88377184D02*
G01*
X108741630Y-88742617D01*
X108709497Y-89027312D01*
X108681657Y-89235030D01*
X108657595Y-89369530D01*
X108636796Y-89434575D01*
X108633074Y-89439489D01*
X108609993Y-89418863D01*
X108581206Y-89331906D01*
X108552227Y-89196207D01*
X108546821Y-89164322D01*
X108509383Y-88944687D01*
X108468274Y-88720740D01*
X108427309Y-88511574D01*
X108390306Y-88336284D01*
X108361080Y-88213962D01*
X108348863Y-88173932D01*
X108351574Y-88138371D01*
X108404576Y-88119438D01*
X108523013Y-88112830D01*
X108564793Y-88112600D01*
X108804257Y-88112600D01*
X108778572Y-88377184D01*
X108778572Y-88377184D01*
G37*
X108778572Y-88377184D02*
X108741630Y-88742617D01*
X108709497Y-89027312D01*
X108681657Y-89235030D01*
X108657595Y-89369530D01*
X108636796Y-89434575D01*
X108633074Y-89439489D01*
X108609993Y-89418863D01*
X108581206Y-89331906D01*
X108552227Y-89196207D01*
X108546821Y-89164322D01*
X108509383Y-88944687D01*
X108468274Y-88720740D01*
X108427309Y-88511574D01*
X108390306Y-88336284D01*
X108361080Y-88213962D01*
X108348863Y-88173932D01*
X108351574Y-88138371D01*
X108404576Y-88119438D01*
X108523013Y-88112830D01*
X108564793Y-88112600D01*
X108804257Y-88112600D01*
X108778572Y-88377184D01*
G36*
X106930299Y-88117809D02*
G01*
X107028973Y-88131433D01*
X107064387Y-88149552D01*
X107048447Y-88207265D01*
X107007958Y-88312091D01*
X106981144Y-88374689D01*
X106944864Y-88482370D01*
X106901713Y-88647755D01*
X106857138Y-88844785D01*
X106816587Y-89047397D01*
X106785508Y-89229531D01*
X106769349Y-89365125D01*
X106768223Y-89393184D01*
X106752577Y-89432125D01*
X106718168Y-89411254D01*
X106682595Y-89347221D01*
X106668811Y-89299138D01*
X106654569Y-89206124D01*
X106635543Y-89051982D01*
X106614456Y-88859915D01*
X106598058Y-88695888D01*
X106578260Y-88499906D01*
X106559375Y-88332901D01*
X106543717Y-88214217D01*
X106534587Y-88165517D01*
X106549636Y-88135083D01*
X106627347Y-88118169D01*
X106778145Y-88112619D01*
X106790548Y-88112600D01*
X106930299Y-88117809D01*
X106930299Y-88117809D01*
G37*
X106930299Y-88117809D02*
X107028973Y-88131433D01*
X107064387Y-88149552D01*
X107048447Y-88207265D01*
X107007958Y-88312091D01*
X106981144Y-88374689D01*
X106944864Y-88482370D01*
X106901713Y-88647755D01*
X106857138Y-88844785D01*
X106816587Y-89047397D01*
X106785508Y-89229531D01*
X106769349Y-89365125D01*
X106768223Y-89393184D01*
X106752577Y-89432125D01*
X106718168Y-89411254D01*
X106682595Y-89347221D01*
X106668811Y-89299138D01*
X106654569Y-89206124D01*
X106635543Y-89051982D01*
X106614456Y-88859915D01*
X106598058Y-88695888D01*
X106578260Y-88499906D01*
X106559375Y-88332901D01*
X106543717Y-88214217D01*
X106534587Y-88165517D01*
X106549636Y-88135083D01*
X106627347Y-88118169D01*
X106778145Y-88112619D01*
X106790548Y-88112600D01*
X106930299Y-88117809D01*
G36*
X109788327Y-88117281D02*
G01*
X109840270Y-88136570D01*
X109844320Y-88178340D01*
X109842029Y-88186684D01*
X109828622Y-88258259D01*
X109809941Y-88392667D01*
X109788799Y-88568462D01*
X109773980Y-88705267D01*
X109744652Y-88976552D01*
X109719944Y-89173572D01*
X109697992Y-89306483D01*
X109676936Y-89385437D01*
X109654912Y-89420590D01*
X109642009Y-89424934D01*
X109604848Y-89395415D01*
X109604387Y-89389953D01*
X109600383Y-89325584D01*
X109589687Y-89197691D01*
X109574272Y-89026972D01*
X109556109Y-88834125D01*
X109537173Y-88639848D01*
X109519434Y-88464840D01*
X109504867Y-88329799D01*
X109497778Y-88271350D01*
X109476386Y-88112600D01*
X109670239Y-88112600D01*
X109788327Y-88117281D01*
X109788327Y-88117281D01*
G37*
X109788327Y-88117281D02*
X109840270Y-88136570D01*
X109844320Y-88178340D01*
X109842029Y-88186684D01*
X109828622Y-88258259D01*
X109809941Y-88392667D01*
X109788799Y-88568462D01*
X109773980Y-88705267D01*
X109744652Y-88976552D01*
X109719944Y-89173572D01*
X109697992Y-89306483D01*
X109676936Y-89385437D01*
X109654912Y-89420590D01*
X109642009Y-89424934D01*
X109604848Y-89395415D01*
X109604387Y-89389953D01*
X109600383Y-89325584D01*
X109589687Y-89197691D01*
X109574272Y-89026972D01*
X109556109Y-88834125D01*
X109537173Y-88639848D01*
X109519434Y-88464840D01*
X109504867Y-88329799D01*
X109497778Y-88271350D01*
X109476386Y-88112600D01*
X109670239Y-88112600D01*
X109788327Y-88117281D01*
G36*
X111534422Y-88250184D02*
G01*
X111520577Y-88361642D01*
X111504367Y-88523161D01*
X111489237Y-88700334D01*
X111488857Y-88705267D01*
X111464423Y-88986992D01*
X111440283Y-89189330D01*
X111415569Y-89317550D01*
X111389417Y-89376924D01*
X111377580Y-89382600D01*
X111340438Y-89367920D01*
X111340053Y-89365471D01*
X111335061Y-89292280D01*
X111321635Y-89160082D01*
X111302103Y-88987550D01*
X111278794Y-88793357D01*
X111254034Y-88596176D01*
X111230152Y-88414681D01*
X111209476Y-88267545D01*
X111194332Y-88173441D01*
X111188463Y-88149394D01*
X111212172Y-88127891D01*
X111298052Y-88114640D01*
X111360640Y-88112600D01*
X111555556Y-88112600D01*
X111534422Y-88250184D01*
X111534422Y-88250184D01*
G37*
X111534422Y-88250184D02*
X111520577Y-88361642D01*
X111504367Y-88523161D01*
X111489237Y-88700334D01*
X111488857Y-88705267D01*
X111464423Y-88986992D01*
X111440283Y-89189330D01*
X111415569Y-89317550D01*
X111389417Y-89376924D01*
X111377580Y-89382600D01*
X111340438Y-89367920D01*
X111340053Y-89365471D01*
X111335061Y-89292280D01*
X111321635Y-89160082D01*
X111302103Y-88987550D01*
X111278794Y-88793357D01*
X111254034Y-88596176D01*
X111230152Y-88414681D01*
X111209476Y-88267545D01*
X111194332Y-88173441D01*
X111188463Y-88149394D01*
X111212172Y-88127891D01*
X111298052Y-88114640D01*
X111360640Y-88112600D01*
X111555556Y-88112600D01*
X111534422Y-88250184D01*
G36*
X73389411Y-88640212D02*
G01*
X73337141Y-88841547D01*
X73289185Y-89012872D01*
X73250473Y-89137474D01*
X73225934Y-89198636D01*
X73224036Y-89201062D01*
X73176300Y-89203247D01*
X73121531Y-89128374D01*
X73063301Y-88983382D01*
X73005508Y-88776560D01*
X72937443Y-88518135D01*
X72875607Y-88338860D01*
X72817828Y-88233635D01*
X72761937Y-88197363D01*
X72758881Y-88197267D01*
X72730707Y-88204085D01*
X72702517Y-88232523D01*
X72668639Y-88294555D01*
X72623396Y-88402156D01*
X72561115Y-88567301D01*
X72488056Y-88768767D01*
X72419491Y-88916095D01*
X72347784Y-88979724D01*
X72269708Y-88959729D01*
X72182033Y-88856185D01*
X72135674Y-88776982D01*
X72060516Y-88648328D01*
X71989219Y-88543164D01*
X71957547Y-88505284D01*
X71910078Y-88468612D01*
X71858677Y-88470119D01*
X71777831Y-88515069D01*
X71720160Y-88554254D01*
X71605947Y-88624743D01*
X71508725Y-88652773D01*
X71385296Y-88648230D01*
X71336796Y-88642006D01*
X71203105Y-88628887D01*
X71113692Y-88643166D01*
X71029804Y-88695671D01*
X70973340Y-88743572D01*
X70864062Y-88831369D01*
X70776244Y-88872843D01*
X70697338Y-88862249D01*
X70614793Y-88793839D01*
X70516062Y-88661865D01*
X70401601Y-88481734D01*
X70298958Y-88333584D01*
X70214421Y-88260988D01*
X70137070Y-88259965D01*
X70055985Y-88326530D01*
X70037328Y-88348890D01*
X69972632Y-88437861D01*
X69939421Y-88499391D01*
X69938263Y-88505826D01*
X69919684Y-88574146D01*
X69871658Y-88690200D01*
X69805050Y-88832387D01*
X69730725Y-88979108D01*
X69659548Y-89108761D01*
X69602385Y-89199745D01*
X69573889Y-89230238D01*
X69504560Y-89219147D01*
X69437286Y-89168945D01*
X69389259Y-89094919D01*
X69322485Y-88962683D01*
X69247241Y-88793563D01*
X69198273Y-88672973D01*
X69127940Y-88497722D01*
X69065602Y-88351187D01*
X69019387Y-88251996D01*
X69000843Y-88220550D01*
X68966249Y-88159183D01*
X68964387Y-88146467D01*
X69005432Y-88140070D01*
X69123419Y-88134068D01*
X69310621Y-88128576D01*
X69559315Y-88123707D01*
X69861774Y-88119578D01*
X70210273Y-88116302D01*
X70597088Y-88113994D01*
X71014493Y-88112770D01*
X71242967Y-88112600D01*
X73521548Y-88112600D01*
X73389411Y-88640212D01*
X73389411Y-88640212D01*
G37*
X73389411Y-88640212D02*
X73337141Y-88841547D01*
X73289185Y-89012872D01*
X73250473Y-89137474D01*
X73225934Y-89198636D01*
X73224036Y-89201062D01*
X73176300Y-89203247D01*
X73121531Y-89128374D01*
X73063301Y-88983382D01*
X73005508Y-88776560D01*
X72937443Y-88518135D01*
X72875607Y-88338860D01*
X72817828Y-88233635D01*
X72761937Y-88197363D01*
X72758881Y-88197267D01*
X72730707Y-88204085D01*
X72702517Y-88232523D01*
X72668639Y-88294555D01*
X72623396Y-88402156D01*
X72561115Y-88567301D01*
X72488056Y-88768767D01*
X72419491Y-88916095D01*
X72347784Y-88979724D01*
X72269708Y-88959729D01*
X72182033Y-88856185D01*
X72135674Y-88776982D01*
X72060516Y-88648328D01*
X71989219Y-88543164D01*
X71957547Y-88505284D01*
X71910078Y-88468612D01*
X71858677Y-88470119D01*
X71777831Y-88515069D01*
X71720160Y-88554254D01*
X71605947Y-88624743D01*
X71508725Y-88652773D01*
X71385296Y-88648230D01*
X71336796Y-88642006D01*
X71203105Y-88628887D01*
X71113692Y-88643166D01*
X71029804Y-88695671D01*
X70973340Y-88743572D01*
X70864062Y-88831369D01*
X70776244Y-88872843D01*
X70697338Y-88862249D01*
X70614793Y-88793839D01*
X70516062Y-88661865D01*
X70401601Y-88481734D01*
X70298958Y-88333584D01*
X70214421Y-88260988D01*
X70137070Y-88259965D01*
X70055985Y-88326530D01*
X70037328Y-88348890D01*
X69972632Y-88437861D01*
X69939421Y-88499391D01*
X69938263Y-88505826D01*
X69919684Y-88574146D01*
X69871658Y-88690200D01*
X69805050Y-88832387D01*
X69730725Y-88979108D01*
X69659548Y-89108761D01*
X69602385Y-89199745D01*
X69573889Y-89230238D01*
X69504560Y-89219147D01*
X69437286Y-89168945D01*
X69389259Y-89094919D01*
X69322485Y-88962683D01*
X69247241Y-88793563D01*
X69198273Y-88672973D01*
X69127940Y-88497722D01*
X69065602Y-88351187D01*
X69019387Y-88251996D01*
X69000843Y-88220550D01*
X68966249Y-88159183D01*
X68964387Y-88146467D01*
X69005432Y-88140070D01*
X69123419Y-88134068D01*
X69310621Y-88128576D01*
X69559315Y-88123707D01*
X69861774Y-88119578D01*
X70210273Y-88116302D01*
X70597088Y-88113994D01*
X71014493Y-88112770D01*
X71242967Y-88112600D01*
X73521548Y-88112600D01*
X73389411Y-88640212D01*
G36*
X74143075Y-88114546D02*
G01*
X74238027Y-88122957D01*
X74279780Y-88141694D01*
X74284047Y-88174619D01*
X74280735Y-88186684D01*
X74262413Y-88256861D01*
X74230937Y-88389348D01*
X74191078Y-88563708D01*
X74156578Y-88718621D01*
X74100042Y-88959243D01*
X74052486Y-89121901D01*
X74011025Y-89212461D01*
X73972772Y-89236790D01*
X73934841Y-89200754D01*
X73926644Y-89186062D01*
X73901036Y-89113021D01*
X73864454Y-88978414D01*
X73822456Y-88803711D01*
X73792971Y-88669809D01*
X73752359Y-88482605D01*
X73716023Y-88323057D01*
X73688691Y-88211503D01*
X73677272Y-88172392D01*
X73680821Y-88141503D01*
X73729915Y-88123088D01*
X73838435Y-88114398D01*
X73979210Y-88112600D01*
X74143075Y-88114546D01*
X74143075Y-88114546D01*
G37*
X74143075Y-88114546D02*
X74238027Y-88122957D01*
X74279780Y-88141694D01*
X74284047Y-88174619D01*
X74280735Y-88186684D01*
X74262413Y-88256861D01*
X74230937Y-88389348D01*
X74191078Y-88563708D01*
X74156578Y-88718621D01*
X74100042Y-88959243D01*
X74052486Y-89121901D01*
X74011025Y-89212461D01*
X73972772Y-89236790D01*
X73934841Y-89200754D01*
X73926644Y-89186062D01*
X73901036Y-89113021D01*
X73864454Y-88978414D01*
X73822456Y-88803711D01*
X73792971Y-88669809D01*
X73752359Y-88482605D01*
X73716023Y-88323057D01*
X73688691Y-88211503D01*
X73677272Y-88172392D01*
X73680821Y-88141503D01*
X73729915Y-88123088D01*
X73838435Y-88114398D01*
X73979210Y-88112600D01*
X74143075Y-88114546D01*
G36*
X112850123Y-88313684D02*
G01*
X112833453Y-88461125D01*
X112814065Y-88650722D01*
X112796994Y-88832267D01*
X112778650Y-88995103D01*
X112756565Y-89129476D01*
X112735190Y-89208890D01*
X112732999Y-89213267D01*
X112703896Y-89255059D01*
X112696201Y-89220179D01*
X112696007Y-89212156D01*
X112690466Y-89140041D01*
X112676890Y-89006290D01*
X112657825Y-88833269D01*
X112635817Y-88643345D01*
X112613412Y-88458883D01*
X112593156Y-88302252D01*
X112588907Y-88271350D01*
X112578543Y-88167833D01*
X112600725Y-88123277D01*
X112676120Y-88112811D01*
X112720840Y-88112600D01*
X112874961Y-88112600D01*
X112850123Y-88313684D01*
X112850123Y-88313684D01*
G37*
X112850123Y-88313684D02*
X112833453Y-88461125D01*
X112814065Y-88650722D01*
X112796994Y-88832267D01*
X112778650Y-88995103D01*
X112756565Y-89129476D01*
X112735190Y-89208890D01*
X112732999Y-89213267D01*
X112703896Y-89255059D01*
X112696201Y-89220179D01*
X112696007Y-89212156D01*
X112690466Y-89140041D01*
X112676890Y-89006290D01*
X112657825Y-88833269D01*
X112635817Y-88643345D01*
X112613412Y-88458883D01*
X112593156Y-88302252D01*
X112588907Y-88271350D01*
X112578543Y-88167833D01*
X112600725Y-88123277D01*
X112676120Y-88112811D01*
X112720840Y-88112600D01*
X112874961Y-88112600D01*
X112850123Y-88313684D01*
G36*
X78303318Y-88229017D02*
G01*
X78286069Y-88321584D01*
X78259521Y-88472013D01*
X78228169Y-88654627D01*
X78212497Y-88747600D01*
X78169712Y-88977373D01*
X78132085Y-89123749D01*
X78099122Y-89187808D01*
X78070325Y-89170630D01*
X78050337Y-89101034D01*
X78031932Y-89005123D01*
X78003710Y-88852961D01*
X77970679Y-88671654D01*
X77957671Y-88599434D01*
X77914193Y-88374785D01*
X77876649Y-88230682D01*
X77841826Y-88167690D01*
X77806507Y-88186372D01*
X77767481Y-88287293D01*
X77721531Y-88471017D01*
X77683877Y-88647485D01*
X77644206Y-88826973D01*
X77606309Y-88975302D01*
X77575508Y-89072739D01*
X77562045Y-89099209D01*
X77537643Y-89076734D01*
X77500905Y-88986273D01*
X77457159Y-88842641D01*
X77425447Y-88719339D01*
X77379584Y-88545111D01*
X77335712Y-88406720D01*
X77299810Y-88321621D01*
X77282887Y-88303100D01*
X77250037Y-88340240D01*
X77201391Y-88438574D01*
X77146382Y-88578479D01*
X77135281Y-88610204D01*
X77080308Y-88753911D01*
X77029591Y-88857721D01*
X76992471Y-88903143D01*
X76987114Y-88903483D01*
X76943935Y-88859632D01*
X76886601Y-88765998D01*
X76865142Y-88723379D01*
X76791984Y-88589594D01*
X76727714Y-88531118D01*
X76657680Y-88541930D01*
X76578101Y-88605456D01*
X76480981Y-88678941D01*
X76386338Y-88693673D01*
X76336738Y-88685495D01*
X76204345Y-88681191D01*
X76114797Y-88707367D01*
X76051694Y-88730285D01*
X75993507Y-88712970D01*
X75915634Y-88644738D01*
X75876307Y-88603814D01*
X75785192Y-88520643D01*
X75712362Y-88477683D01*
X75687487Y-88477316D01*
X75647752Y-88528371D01*
X75590069Y-88632624D01*
X75541599Y-88735083D01*
X75476623Y-88861034D01*
X75418767Y-88935916D01*
X75387575Y-88948698D01*
X75351287Y-88902947D01*
X75300563Y-88796262D01*
X75244687Y-88648984D01*
X75228072Y-88599197D01*
X75172875Y-88443767D01*
X75120617Y-88322837D01*
X75080375Y-88256671D01*
X75071852Y-88250478D01*
X75040977Y-88280394D01*
X74995793Y-88368474D01*
X74945136Y-88491442D01*
X74897847Y-88626021D01*
X74862764Y-88748933D01*
X74848725Y-88836903D01*
X74848720Y-88838086D01*
X74833479Y-88899365D01*
X74795586Y-89003072D01*
X74782620Y-89034710D01*
X74738448Y-89130488D01*
X74708580Y-89156896D01*
X74678339Y-89124120D01*
X74671291Y-89111956D01*
X74649054Y-89049748D01*
X74613633Y-88926627D01*
X74570450Y-88764275D01*
X74524925Y-88584376D01*
X74482479Y-88408615D01*
X74448532Y-88258674D01*
X74428505Y-88156238D01*
X74425387Y-88128272D01*
X74466328Y-88125080D01*
X74583587Y-88122106D01*
X74768814Y-88119418D01*
X75013660Y-88117082D01*
X75309776Y-88115166D01*
X75648812Y-88113736D01*
X76022419Y-88112860D01*
X76376083Y-88112600D01*
X78326780Y-88112600D01*
X78303318Y-88229017D01*
X78303318Y-88229017D01*
G37*
X78303318Y-88229017D02*
X78286069Y-88321584D01*
X78259521Y-88472013D01*
X78228169Y-88654627D01*
X78212497Y-88747600D01*
X78169712Y-88977373D01*
X78132085Y-89123749D01*
X78099122Y-89187808D01*
X78070325Y-89170630D01*
X78050337Y-89101034D01*
X78031932Y-89005123D01*
X78003710Y-88852961D01*
X77970679Y-88671654D01*
X77957671Y-88599434D01*
X77914193Y-88374785D01*
X77876649Y-88230682D01*
X77841826Y-88167690D01*
X77806507Y-88186372D01*
X77767481Y-88287293D01*
X77721531Y-88471017D01*
X77683877Y-88647485D01*
X77644206Y-88826973D01*
X77606309Y-88975302D01*
X77575508Y-89072739D01*
X77562045Y-89099209D01*
X77537643Y-89076734D01*
X77500905Y-88986273D01*
X77457159Y-88842641D01*
X77425447Y-88719339D01*
X77379584Y-88545111D01*
X77335712Y-88406720D01*
X77299810Y-88321621D01*
X77282887Y-88303100D01*
X77250037Y-88340240D01*
X77201391Y-88438574D01*
X77146382Y-88578479D01*
X77135281Y-88610204D01*
X77080308Y-88753911D01*
X77029591Y-88857721D01*
X76992471Y-88903143D01*
X76987114Y-88903483D01*
X76943935Y-88859632D01*
X76886601Y-88765998D01*
X76865142Y-88723379D01*
X76791984Y-88589594D01*
X76727714Y-88531118D01*
X76657680Y-88541930D01*
X76578101Y-88605456D01*
X76480981Y-88678941D01*
X76386338Y-88693673D01*
X76336738Y-88685495D01*
X76204345Y-88681191D01*
X76114797Y-88707367D01*
X76051694Y-88730285D01*
X75993507Y-88712970D01*
X75915634Y-88644738D01*
X75876307Y-88603814D01*
X75785192Y-88520643D01*
X75712362Y-88477683D01*
X75687487Y-88477316D01*
X75647752Y-88528371D01*
X75590069Y-88632624D01*
X75541599Y-88735083D01*
X75476623Y-88861034D01*
X75418767Y-88935916D01*
X75387575Y-88948698D01*
X75351287Y-88902947D01*
X75300563Y-88796262D01*
X75244687Y-88648984D01*
X75228072Y-88599197D01*
X75172875Y-88443767D01*
X75120617Y-88322837D01*
X75080375Y-88256671D01*
X75071852Y-88250478D01*
X75040977Y-88280394D01*
X74995793Y-88368474D01*
X74945136Y-88491442D01*
X74897847Y-88626021D01*
X74862764Y-88748933D01*
X74848725Y-88836903D01*
X74848720Y-88838086D01*
X74833479Y-88899365D01*
X74795586Y-89003072D01*
X74782620Y-89034710D01*
X74738448Y-89130488D01*
X74708580Y-89156896D01*
X74678339Y-89124120D01*
X74671291Y-89111956D01*
X74649054Y-89049748D01*
X74613633Y-88926627D01*
X74570450Y-88764275D01*
X74524925Y-88584376D01*
X74482479Y-88408615D01*
X74448532Y-88258674D01*
X74428505Y-88156238D01*
X74425387Y-88128272D01*
X74466328Y-88125080D01*
X74583587Y-88122106D01*
X74768814Y-88119418D01*
X75013660Y-88117082D01*
X75309776Y-88115166D01*
X75648812Y-88113736D01*
X76022419Y-88112860D01*
X76376083Y-88112600D01*
X78326780Y-88112600D01*
X78303318Y-88229017D01*
G36*
X83131580Y-88207850D02*
G01*
X83116088Y-88290760D01*
X83094337Y-88433346D01*
X83069941Y-88611195D01*
X83057937Y-88705267D01*
X83024347Y-88946706D01*
X82993814Y-89104660D01*
X82965951Y-89180243D01*
X82940372Y-89174566D01*
X82919588Y-89103955D01*
X82902385Y-89004486D01*
X82878603Y-88850109D01*
X82852670Y-88669864D01*
X82845883Y-88620600D01*
X82812689Y-88399980D01*
X82783367Y-88260748D01*
X82756006Y-88199822D01*
X82728697Y-88214123D01*
X82699529Y-88300569D01*
X82685388Y-88361718D01*
X82658496Y-88495947D01*
X82641235Y-88599048D01*
X82637817Y-88633267D01*
X82626960Y-88704227D01*
X82600265Y-88817546D01*
X82591211Y-88851119D01*
X82554560Y-88948886D01*
X82520774Y-88965031D01*
X82488948Y-88898608D01*
X82458175Y-88748669D01*
X82451585Y-88705267D01*
X82419492Y-88548702D01*
X82379207Y-88446149D01*
X82336516Y-88409906D01*
X82317082Y-88419460D01*
X82292026Y-88474397D01*
X82259112Y-88584033D01*
X82237497Y-88672234D01*
X82203447Y-88795926D01*
X82169228Y-88877103D01*
X82150340Y-88895767D01*
X82120703Y-88858394D01*
X82078634Y-88760499D01*
X82034027Y-88625813D01*
X81989716Y-88495914D01*
X81949177Y-88412254D01*
X81921005Y-88392460D01*
X81920494Y-88392980D01*
X81889189Y-88451681D01*
X81845148Y-88562821D01*
X81814355Y-88652350D01*
X81768842Y-88774445D01*
X81727440Y-88855170D01*
X81706601Y-88874600D01*
X81671442Y-88838584D01*
X81630149Y-88749685D01*
X81622248Y-88727023D01*
X81568454Y-88600407D01*
X81510836Y-88552275D01*
X81438872Y-88576709D01*
X81404629Y-88604644D01*
X81291008Y-88668232D01*
X81151983Y-88694714D01*
X81019142Y-88683077D01*
X80924070Y-88632307D01*
X80914397Y-88620375D01*
X80848879Y-88550656D01*
X80788771Y-88551772D01*
X80720473Y-88627502D01*
X80685111Y-88684100D01*
X80623999Y-88777031D01*
X80577903Y-88828577D01*
X80569475Y-88832267D01*
X80540810Y-88795930D01*
X80497416Y-88702587D01*
X80466082Y-88620600D01*
X80417304Y-88502211D01*
X80372739Y-88425391D01*
X80351827Y-88408934D01*
X80320867Y-88446293D01*
X80278012Y-88543989D01*
X80234831Y-88673517D01*
X80189775Y-88808624D01*
X80147920Y-88903976D01*
X80119597Y-88938100D01*
X80091649Y-88900273D01*
X80053199Y-88800735D01*
X80012226Y-88660399D01*
X80009360Y-88649154D01*
X79969463Y-88501853D01*
X79933787Y-88388830D01*
X79909790Y-88333621D01*
X79909111Y-88332880D01*
X79868043Y-88335217D01*
X79824629Y-88419477D01*
X79780008Y-88582986D01*
X79759387Y-88684100D01*
X79717490Y-88871339D01*
X79675529Y-88995300D01*
X79636741Y-89047810D01*
X79617361Y-89042708D01*
X79601381Y-88995108D01*
X79574426Y-88883389D01*
X79540916Y-88726683D01*
X79519809Y-88620600D01*
X79482464Y-88448900D01*
X79445309Y-88313746D01*
X79413725Y-88233134D01*
X79399553Y-88218434D01*
X79370912Y-88256633D01*
X79336855Y-88356670D01*
X79305432Y-88493600D01*
X79260162Y-88731904D01*
X79226798Y-88899291D01*
X79202110Y-89008146D01*
X79182870Y-89070854D01*
X79165846Y-89099802D01*
X79147810Y-89107373D01*
X79145364Y-89107434D01*
X79121009Y-89068526D01*
X79089823Y-88963885D01*
X79056651Y-88811638D01*
X79037858Y-88705267D01*
X78992226Y-88446310D01*
X78951925Y-88271257D01*
X78915058Y-88179654D01*
X78879727Y-88171048D01*
X78844036Y-88244984D01*
X78806087Y-88401009D01*
X78763983Y-88638669D01*
X78763813Y-88639728D01*
X78720592Y-88885660D01*
X78682592Y-89051185D01*
X78648533Y-89140316D01*
X78617136Y-89157063D01*
X78603501Y-89142000D01*
X78586326Y-89085097D01*
X78560492Y-88965129D01*
X78530233Y-88802708D01*
X78513222Y-88702647D01*
X78481672Y-88517371D01*
X78452051Y-88355003D01*
X78428884Y-88239877D01*
X78421195Y-88207850D01*
X78394845Y-88112600D01*
X83155232Y-88112600D01*
X83131580Y-88207850D01*
X83131580Y-88207850D01*
G37*
X83131580Y-88207850D02*
X83116088Y-88290760D01*
X83094337Y-88433346D01*
X83069941Y-88611195D01*
X83057937Y-88705267D01*
X83024347Y-88946706D01*
X82993814Y-89104660D01*
X82965951Y-89180243D01*
X82940372Y-89174566D01*
X82919588Y-89103955D01*
X82902385Y-89004486D01*
X82878603Y-88850109D01*
X82852670Y-88669864D01*
X82845883Y-88620600D01*
X82812689Y-88399980D01*
X82783367Y-88260748D01*
X82756006Y-88199822D01*
X82728697Y-88214123D01*
X82699529Y-88300569D01*
X82685388Y-88361718D01*
X82658496Y-88495947D01*
X82641235Y-88599048D01*
X82637817Y-88633267D01*
X82626960Y-88704227D01*
X82600265Y-88817546D01*
X82591211Y-88851119D01*
X82554560Y-88948886D01*
X82520774Y-88965031D01*
X82488948Y-88898608D01*
X82458175Y-88748669D01*
X82451585Y-88705267D01*
X82419492Y-88548702D01*
X82379207Y-88446149D01*
X82336516Y-88409906D01*
X82317082Y-88419460D01*
X82292026Y-88474397D01*
X82259112Y-88584033D01*
X82237497Y-88672234D01*
X82203447Y-88795926D01*
X82169228Y-88877103D01*
X82150340Y-88895767D01*
X82120703Y-88858394D01*
X82078634Y-88760499D01*
X82034027Y-88625813D01*
X81989716Y-88495914D01*
X81949177Y-88412254D01*
X81921005Y-88392460D01*
X81920494Y-88392980D01*
X81889189Y-88451681D01*
X81845148Y-88562821D01*
X81814355Y-88652350D01*
X81768842Y-88774445D01*
X81727440Y-88855170D01*
X81706601Y-88874600D01*
X81671442Y-88838584D01*
X81630149Y-88749685D01*
X81622248Y-88727023D01*
X81568454Y-88600407D01*
X81510836Y-88552275D01*
X81438872Y-88576709D01*
X81404629Y-88604644D01*
X81291008Y-88668232D01*
X81151983Y-88694714D01*
X81019142Y-88683077D01*
X80924070Y-88632307D01*
X80914397Y-88620375D01*
X80848879Y-88550656D01*
X80788771Y-88551772D01*
X80720473Y-88627502D01*
X80685111Y-88684100D01*
X80623999Y-88777031D01*
X80577903Y-88828577D01*
X80569475Y-88832267D01*
X80540810Y-88795930D01*
X80497416Y-88702587D01*
X80466082Y-88620600D01*
X80417304Y-88502211D01*
X80372739Y-88425391D01*
X80351827Y-88408934D01*
X80320867Y-88446293D01*
X80278012Y-88543989D01*
X80234831Y-88673517D01*
X80189775Y-88808624D01*
X80147920Y-88903976D01*
X80119597Y-88938100D01*
X80091649Y-88900273D01*
X80053199Y-88800735D01*
X80012226Y-88660399D01*
X80009360Y-88649154D01*
X79969463Y-88501853D01*
X79933787Y-88388830D01*
X79909790Y-88333621D01*
X79909111Y-88332880D01*
X79868043Y-88335217D01*
X79824629Y-88419477D01*
X79780008Y-88582986D01*
X79759387Y-88684100D01*
X79717490Y-88871339D01*
X79675529Y-88995300D01*
X79636741Y-89047810D01*
X79617361Y-89042708D01*
X79601381Y-88995108D01*
X79574426Y-88883389D01*
X79540916Y-88726683D01*
X79519809Y-88620600D01*
X79482464Y-88448900D01*
X79445309Y-88313746D01*
X79413725Y-88233134D01*
X79399553Y-88218434D01*
X79370912Y-88256633D01*
X79336855Y-88356670D01*
X79305432Y-88493600D01*
X79260162Y-88731904D01*
X79226798Y-88899291D01*
X79202110Y-89008146D01*
X79182870Y-89070854D01*
X79165846Y-89099802D01*
X79147810Y-89107373D01*
X79145364Y-89107434D01*
X79121009Y-89068526D01*
X79089823Y-88963885D01*
X79056651Y-88811638D01*
X79037858Y-88705267D01*
X78992226Y-88446310D01*
X78951925Y-88271257D01*
X78915058Y-88179654D01*
X78879727Y-88171048D01*
X78844036Y-88244984D01*
X78806087Y-88401009D01*
X78763983Y-88638669D01*
X78763813Y-88639728D01*
X78720592Y-88885660D01*
X78682592Y-89051185D01*
X78648533Y-89140316D01*
X78617136Y-89157063D01*
X78603501Y-89142000D01*
X78586326Y-89085097D01*
X78560492Y-88965129D01*
X78530233Y-88802708D01*
X78513222Y-88702647D01*
X78481672Y-88517371D01*
X78452051Y-88355003D01*
X78428884Y-88239877D01*
X78421195Y-88207850D01*
X78394845Y-88112600D01*
X83155232Y-88112600D01*
X83131580Y-88207850D01*
G36*
X83722665Y-88113613D02*
G01*
X83828162Y-88119582D01*
X83880426Y-88134901D01*
X83895174Y-88163966D01*
X83888850Y-88207850D01*
X83875370Y-88289797D01*
X83856104Y-88432429D01*
X83834126Y-88612231D01*
X83821107Y-88726434D01*
X83798164Y-88908508D01*
X83774078Y-89058708D01*
X83752310Y-89157248D01*
X83741056Y-89184211D01*
X83720008Y-89164304D01*
X83697103Y-89078755D01*
X83677980Y-88951377D01*
X83648203Y-88724540D01*
X83614798Y-88534073D01*
X83580716Y-88392777D01*
X83548907Y-88313449D01*
X83528367Y-88302288D01*
X83503262Y-88353251D01*
X83477834Y-88458992D01*
X83467305Y-88524830D01*
X83437006Y-88745125D01*
X83414518Y-88892725D01*
X83397111Y-88978944D01*
X83382053Y-89015093D01*
X83366615Y-89012487D01*
X83354136Y-88993692D01*
X83330651Y-88921800D01*
X83302442Y-88792541D01*
X83275248Y-88632569D01*
X83272843Y-88616167D01*
X83247812Y-88448942D01*
X83224585Y-88304100D01*
X83207946Y-88211398D01*
X83207198Y-88207850D01*
X83201187Y-88161821D01*
X83217847Y-88133675D01*
X83272911Y-88119020D01*
X83382113Y-88113460D01*
X83548220Y-88112600D01*
X83722665Y-88113613D01*
X83722665Y-88113613D01*
G37*
X83722665Y-88113613D02*
X83828162Y-88119582D01*
X83880426Y-88134901D01*
X83895174Y-88163966D01*
X83888850Y-88207850D01*
X83875370Y-88289797D01*
X83856104Y-88432429D01*
X83834126Y-88612231D01*
X83821107Y-88726434D01*
X83798164Y-88908508D01*
X83774078Y-89058708D01*
X83752310Y-89157248D01*
X83741056Y-89184211D01*
X83720008Y-89164304D01*
X83697103Y-89078755D01*
X83677980Y-88951377D01*
X83648203Y-88724540D01*
X83614798Y-88534073D01*
X83580716Y-88392777D01*
X83548907Y-88313449D01*
X83528367Y-88302288D01*
X83503262Y-88353251D01*
X83477834Y-88458992D01*
X83467305Y-88524830D01*
X83437006Y-88745125D01*
X83414518Y-88892725D01*
X83397111Y-88978944D01*
X83382053Y-89015093D01*
X83366615Y-89012487D01*
X83354136Y-88993692D01*
X83330651Y-88921800D01*
X83302442Y-88792541D01*
X83275248Y-88632569D01*
X83272843Y-88616167D01*
X83247812Y-88448942D01*
X83224585Y-88304100D01*
X83207946Y-88211398D01*
X83207198Y-88207850D01*
X83201187Y-88161821D01*
X83217847Y-88133675D01*
X83272911Y-88119020D01*
X83382113Y-88113460D01*
X83548220Y-88112600D01*
X83722665Y-88113613D01*
G36*
X88493531Y-88114282D02*
G01*
X88668931Y-88119888D01*
X88778756Y-88130262D01*
X88832523Y-88146245D01*
X88841058Y-88165517D01*
X88823844Y-88233887D01*
X88797460Y-88355311D01*
X88775767Y-88462420D01*
X88738412Y-88604848D01*
X88700966Y-88670928D01*
X88669214Y-88658921D01*
X88648940Y-88567087D01*
X88645167Y-88501685D01*
X88633324Y-88364243D01*
X88610388Y-88244630D01*
X88608911Y-88239600D01*
X88576875Y-88133767D01*
X88550483Y-88239600D01*
X88534750Y-88326619D01*
X88514136Y-88473562D01*
X88491910Y-88656080D01*
X88479810Y-88766334D01*
X88459723Y-88945178D01*
X88441111Y-89089493D01*
X88426526Y-89180566D01*
X88420361Y-89202404D01*
X88405931Y-89172598D01*
X88383155Y-89079854D01*
X88359015Y-88955423D01*
X88321621Y-88773523D01*
X88286886Y-88675381D01*
X88252754Y-88661147D01*
X88217168Y-88730974D01*
X88178073Y-88885014D01*
X88161028Y-88970051D01*
X88132191Y-89094540D01*
X88105157Y-89166705D01*
X88085791Y-89170934D01*
X88071711Y-89106720D01*
X88051814Y-88982034D01*
X88029171Y-88820599D01*
X88006848Y-88646141D01*
X87987916Y-88482386D01*
X87975443Y-88353059D01*
X87972172Y-88292517D01*
X87947878Y-88243303D01*
X87933876Y-88239600D01*
X87909316Y-88277953D01*
X87883912Y-88377664D01*
X87866220Y-88493600D01*
X87845950Y-88627365D01*
X87822933Y-88719386D01*
X87805300Y-88747600D01*
X87780443Y-88709816D01*
X87748070Y-88611827D01*
X87721777Y-88504184D01*
X87689723Y-88358354D01*
X87661858Y-88238387D01*
X87648687Y-88186684D01*
X87646638Y-88157781D01*
X87667724Y-88137522D01*
X87724108Y-88124391D01*
X87827951Y-88116871D01*
X87991414Y-88113447D01*
X88226660Y-88112602D01*
X88243038Y-88112600D01*
X88493531Y-88114282D01*
X88493531Y-88114282D01*
G37*
X88493531Y-88114282D02*
X88668931Y-88119888D01*
X88778756Y-88130262D01*
X88832523Y-88146245D01*
X88841058Y-88165517D01*
X88823844Y-88233887D01*
X88797460Y-88355311D01*
X88775767Y-88462420D01*
X88738412Y-88604848D01*
X88700966Y-88670928D01*
X88669214Y-88658921D01*
X88648940Y-88567087D01*
X88645167Y-88501685D01*
X88633324Y-88364243D01*
X88610388Y-88244630D01*
X88608911Y-88239600D01*
X88576875Y-88133767D01*
X88550483Y-88239600D01*
X88534750Y-88326619D01*
X88514136Y-88473562D01*
X88491910Y-88656080D01*
X88479810Y-88766334D01*
X88459723Y-88945178D01*
X88441111Y-89089493D01*
X88426526Y-89180566D01*
X88420361Y-89202404D01*
X88405931Y-89172598D01*
X88383155Y-89079854D01*
X88359015Y-88955423D01*
X88321621Y-88773523D01*
X88286886Y-88675381D01*
X88252754Y-88661147D01*
X88217168Y-88730974D01*
X88178073Y-88885014D01*
X88161028Y-88970051D01*
X88132191Y-89094540D01*
X88105157Y-89166705D01*
X88085791Y-89170934D01*
X88071711Y-89106720D01*
X88051814Y-88982034D01*
X88029171Y-88820599D01*
X88006848Y-88646141D01*
X87987916Y-88482386D01*
X87975443Y-88353059D01*
X87972172Y-88292517D01*
X87947878Y-88243303D01*
X87933876Y-88239600D01*
X87909316Y-88277953D01*
X87883912Y-88377664D01*
X87866220Y-88493600D01*
X87845950Y-88627365D01*
X87822933Y-88719386D01*
X87805300Y-88747600D01*
X87780443Y-88709816D01*
X87748070Y-88611827D01*
X87721777Y-88504184D01*
X87689723Y-88358354D01*
X87661858Y-88238387D01*
X87648687Y-88186684D01*
X87646638Y-88157781D01*
X87667724Y-88137522D01*
X87724108Y-88124391D01*
X87827951Y-88116871D01*
X87991414Y-88113447D01*
X88226660Y-88112602D01*
X88243038Y-88112600D01*
X88493531Y-88114282D01*
G36*
X93208018Y-88207850D02*
G01*
X93192185Y-88298222D01*
X93172935Y-88440887D01*
X93155698Y-88593199D01*
X93132352Y-88748320D01*
X93105799Y-88821103D01*
X93080630Y-88813516D01*
X93061433Y-88727530D01*
X93052798Y-88565111D01*
X93052701Y-88549015D01*
X93045657Y-88420246D01*
X93028328Y-88330047D01*
X93014462Y-88306031D01*
X92996114Y-88306455D01*
X92979172Y-88339877D01*
X92961287Y-88417748D01*
X92940113Y-88551521D01*
X92913300Y-88752646D01*
X92898109Y-88873481D01*
X92875235Y-88994709D01*
X92849852Y-89036425D01*
X92826167Y-89003517D01*
X92808387Y-88900874D01*
X92801029Y-88760682D01*
X92788348Y-88624452D01*
X92761541Y-88566087D01*
X92728678Y-88587373D01*
X92697827Y-88690092D01*
X92690292Y-88736197D01*
X92665552Y-88895124D01*
X92638337Y-89047331D01*
X92630487Y-89086267D01*
X92599211Y-89234434D01*
X92566747Y-89032830D01*
X92541053Y-88910460D01*
X92512476Y-88827485D01*
X92499531Y-88809747D01*
X92469368Y-88833704D01*
X92430255Y-88918489D01*
X92406915Y-88990184D01*
X92349052Y-89192100D01*
X92287802Y-89068226D01*
X92217688Y-88959390D01*
X92155490Y-88934251D01*
X92099687Y-88992369D01*
X92090500Y-89010990D01*
X92046277Y-89107434D01*
X92003464Y-89001600D01*
X91952038Y-88874151D01*
X91918163Y-88789934D01*
X91885009Y-88721806D01*
X91862346Y-88727988D01*
X91850030Y-88758184D01*
X91811867Y-88866330D01*
X91797445Y-88906350D01*
X91773843Y-88924763D01*
X91740170Y-88869196D01*
X91697387Y-88747600D01*
X91654443Y-88619882D01*
X91623649Y-88572675D01*
X91593554Y-88605181D01*
X91552711Y-88716598D01*
X91545955Y-88737017D01*
X91523257Y-88774797D01*
X91491188Y-88747233D01*
X91455703Y-88684100D01*
X91397744Y-88577558D01*
X91362061Y-88536942D01*
X91333778Y-88552096D01*
X91312648Y-88586450D01*
X91256493Y-88634828D01*
X91153481Y-88637714D01*
X91131130Y-88634417D01*
X91002049Y-88633555D01*
X90891627Y-88663697D01*
X90811188Y-88693744D01*
X90758898Y-88666430D01*
X90743571Y-88647127D01*
X90669718Y-88584372D01*
X90605907Y-88602863D01*
X90576635Y-88652350D01*
X90551811Y-88684782D01*
X90516966Y-88656857D01*
X90461158Y-88559662D01*
X90459907Y-88557246D01*
X90405089Y-88456442D01*
X90372526Y-88422740D01*
X90346858Y-88447389D01*
X90329885Y-88483163D01*
X90270870Y-88564241D01*
X90208297Y-88562942D01*
X90149499Y-88480855D01*
X90133682Y-88440684D01*
X90090952Y-88357826D01*
X90050501Y-88358777D01*
X90013099Y-88442691D01*
X89979512Y-88608724D01*
X89979237Y-88610537D01*
X89950422Y-88748211D01*
X89919622Y-88803205D01*
X89889179Y-88774939D01*
X89861433Y-88662836D01*
X89857912Y-88640515D01*
X89834571Y-88532136D01*
X89807820Y-88473714D01*
X89795673Y-88470402D01*
X89773284Y-88519261D01*
X89744078Y-88630170D01*
X89713568Y-88781416D01*
X89706804Y-88820471D01*
X89651547Y-89149767D01*
X89592506Y-88948684D01*
X89551807Y-88832937D01*
X89513332Y-88760250D01*
X89496876Y-88747600D01*
X89461042Y-88785660D01*
X89417924Y-88885631D01*
X89375796Y-89026198D01*
X89357196Y-89107434D01*
X89339110Y-89156241D01*
X89318260Y-89134073D01*
X89293616Y-89037283D01*
X89264150Y-88862227D01*
X89240597Y-88694871D01*
X89210640Y-88515493D01*
X89179325Y-88400111D01*
X89150196Y-88353284D01*
X89126795Y-88379574D01*
X89112664Y-88483540D01*
X89110833Y-88527849D01*
X89102044Y-88633234D01*
X89084554Y-88736898D01*
X89063624Y-88818431D01*
X89044515Y-88857423D01*
X89032489Y-88833465D01*
X89032363Y-88832267D01*
X89022708Y-88761861D01*
X89003045Y-88633369D01*
X88977284Y-88472217D01*
X88972134Y-88440684D01*
X88918368Y-88112600D01*
X93230565Y-88112600D01*
X93208018Y-88207850D01*
X93208018Y-88207850D01*
G37*
X93208018Y-88207850D02*
X93192185Y-88298222D01*
X93172935Y-88440887D01*
X93155698Y-88593199D01*
X93132352Y-88748320D01*
X93105799Y-88821103D01*
X93080630Y-88813516D01*
X93061433Y-88727530D01*
X93052798Y-88565111D01*
X93052701Y-88549015D01*
X93045657Y-88420246D01*
X93028328Y-88330047D01*
X93014462Y-88306031D01*
X92996114Y-88306455D01*
X92979172Y-88339877D01*
X92961287Y-88417748D01*
X92940113Y-88551521D01*
X92913300Y-88752646D01*
X92898109Y-88873481D01*
X92875235Y-88994709D01*
X92849852Y-89036425D01*
X92826167Y-89003517D01*
X92808387Y-88900874D01*
X92801029Y-88760682D01*
X92788348Y-88624452D01*
X92761541Y-88566087D01*
X92728678Y-88587373D01*
X92697827Y-88690092D01*
X92690292Y-88736197D01*
X92665552Y-88895124D01*
X92638337Y-89047331D01*
X92630487Y-89086267D01*
X92599211Y-89234434D01*
X92566747Y-89032830D01*
X92541053Y-88910460D01*
X92512476Y-88827485D01*
X92499531Y-88809747D01*
X92469368Y-88833704D01*
X92430255Y-88918489D01*
X92406915Y-88990184D01*
X92349052Y-89192100D01*
X92287802Y-89068226D01*
X92217688Y-88959390D01*
X92155490Y-88934251D01*
X92099687Y-88992369D01*
X92090500Y-89010990D01*
X92046277Y-89107434D01*
X92003464Y-89001600D01*
X91952038Y-88874151D01*
X91918163Y-88789934D01*
X91885009Y-88721806D01*
X91862346Y-88727988D01*
X91850030Y-88758184D01*
X91811867Y-88866330D01*
X91797445Y-88906350D01*
X91773843Y-88924763D01*
X91740170Y-88869196D01*
X91697387Y-88747600D01*
X91654443Y-88619882D01*
X91623649Y-88572675D01*
X91593554Y-88605181D01*
X91552711Y-88716598D01*
X91545955Y-88737017D01*
X91523257Y-88774797D01*
X91491188Y-88747233D01*
X91455703Y-88684100D01*
X91397744Y-88577558D01*
X91362061Y-88536942D01*
X91333778Y-88552096D01*
X91312648Y-88586450D01*
X91256493Y-88634828D01*
X91153481Y-88637714D01*
X91131130Y-88634417D01*
X91002049Y-88633555D01*
X90891627Y-88663697D01*
X90811188Y-88693744D01*
X90758898Y-88666430D01*
X90743571Y-88647127D01*
X90669718Y-88584372D01*
X90605907Y-88602863D01*
X90576635Y-88652350D01*
X90551811Y-88684782D01*
X90516966Y-88656857D01*
X90461158Y-88559662D01*
X90459907Y-88557246D01*
X90405089Y-88456442D01*
X90372526Y-88422740D01*
X90346858Y-88447389D01*
X90329885Y-88483163D01*
X90270870Y-88564241D01*
X90208297Y-88562942D01*
X90149499Y-88480855D01*
X90133682Y-88440684D01*
X90090952Y-88357826D01*
X90050501Y-88358777D01*
X90013099Y-88442691D01*
X89979512Y-88608724D01*
X89979237Y-88610537D01*
X89950422Y-88748211D01*
X89919622Y-88803205D01*
X89889179Y-88774939D01*
X89861433Y-88662836D01*
X89857912Y-88640515D01*
X89834571Y-88532136D01*
X89807820Y-88473714D01*
X89795673Y-88470402D01*
X89773284Y-88519261D01*
X89744078Y-88630170D01*
X89713568Y-88781416D01*
X89706804Y-88820471D01*
X89651547Y-89149767D01*
X89592506Y-88948684D01*
X89551807Y-88832937D01*
X89513332Y-88760250D01*
X89496876Y-88747600D01*
X89461042Y-88785660D01*
X89417924Y-88885631D01*
X89375796Y-89026198D01*
X89357196Y-89107434D01*
X89339110Y-89156241D01*
X89318260Y-89134073D01*
X89293616Y-89037283D01*
X89264150Y-88862227D01*
X89240597Y-88694871D01*
X89210640Y-88515493D01*
X89179325Y-88400111D01*
X89150196Y-88353284D01*
X89126795Y-88379574D01*
X89112664Y-88483540D01*
X89110833Y-88527849D01*
X89102044Y-88633234D01*
X89084554Y-88736898D01*
X89063624Y-88818431D01*
X89044515Y-88857423D01*
X89032489Y-88833465D01*
X89032363Y-88832267D01*
X89022708Y-88761861D01*
X89003045Y-88633369D01*
X88977284Y-88472217D01*
X88972134Y-88440684D01*
X88918368Y-88112600D01*
X93230565Y-88112600D01*
X93208018Y-88207850D01*
G36*
X68434820Y-88555965D02*
G01*
X68303887Y-88815937D01*
X68196486Y-89001558D01*
X68102303Y-89116084D01*
X68011019Y-89162770D01*
X67912318Y-89144870D01*
X67795883Y-89065640D01*
X67651398Y-88928335D01*
X67559103Y-88832267D01*
X67414994Y-88682618D01*
X67311840Y-88584869D01*
X67233838Y-88528097D01*
X67165185Y-88501378D01*
X67090076Y-88493789D01*
X67069152Y-88493600D01*
X66942477Y-88508971D01*
X66775100Y-88549196D01*
X66609343Y-88603415D01*
X66410230Y-88666813D01*
X66234470Y-88690463D01*
X66060446Y-88671524D01*
X65866540Y-88607153D01*
X65631133Y-88494509D01*
X65581585Y-88468300D01*
X65398335Y-88372850D01*
X65218855Y-88283605D01*
X65072226Y-88214877D01*
X65027387Y-88195552D01*
X64983784Y-88177031D01*
X64955627Y-88161677D01*
X64949463Y-88149181D01*
X64971843Y-88139238D01*
X65029315Y-88131539D01*
X65128429Y-88125776D01*
X65275735Y-88121642D01*
X65477781Y-88118829D01*
X65741117Y-88117030D01*
X66072292Y-88115938D01*
X66477856Y-88115244D01*
X66744482Y-88114909D01*
X68652077Y-88112600D01*
X68434820Y-88555965D01*
X68434820Y-88555965D01*
G37*
X68434820Y-88555965D02*
X68303887Y-88815937D01*
X68196486Y-89001558D01*
X68102303Y-89116084D01*
X68011019Y-89162770D01*
X67912318Y-89144870D01*
X67795883Y-89065640D01*
X67651398Y-88928335D01*
X67559103Y-88832267D01*
X67414994Y-88682618D01*
X67311840Y-88584869D01*
X67233838Y-88528097D01*
X67165185Y-88501378D01*
X67090076Y-88493789D01*
X67069152Y-88493600D01*
X66942477Y-88508971D01*
X66775100Y-88549196D01*
X66609343Y-88603415D01*
X66410230Y-88666813D01*
X66234470Y-88690463D01*
X66060446Y-88671524D01*
X65866540Y-88607153D01*
X65631133Y-88494509D01*
X65581585Y-88468300D01*
X65398335Y-88372850D01*
X65218855Y-88283605D01*
X65072226Y-88214877D01*
X65027387Y-88195552D01*
X64983784Y-88177031D01*
X64955627Y-88161677D01*
X64949463Y-88149181D01*
X64971843Y-88139238D01*
X65029315Y-88131539D01*
X65128429Y-88125776D01*
X65275735Y-88121642D01*
X65477781Y-88118829D01*
X65741117Y-88117030D01*
X66072292Y-88115938D01*
X66477856Y-88115244D01*
X66744482Y-88114909D01*
X68652077Y-88112600D01*
X68434820Y-88555965D01*
G36*
X87575567Y-88229017D02*
G01*
X87557790Y-88328144D01*
X87531933Y-88479343D01*
X87503380Y-88651095D01*
X87501442Y-88662934D01*
X87474792Y-88815751D01*
X87453380Y-88894542D01*
X87432244Y-88897195D01*
X87406423Y-88821600D01*
X87370957Y-88665644D01*
X87357436Y-88601641D01*
X87329625Y-88525886D01*
X87295992Y-88533873D01*
X87257005Y-88624913D01*
X87213131Y-88798317D01*
X87208174Y-88821684D01*
X87176524Y-88945102D01*
X87144603Y-89025801D01*
X87127192Y-89043934D01*
X87101282Y-89006195D01*
X87074484Y-88910326D01*
X87063092Y-88846718D01*
X87035314Y-88700758D01*
X87001259Y-88572059D01*
X86989868Y-88539802D01*
X86946218Y-88430100D01*
X86898219Y-88564645D01*
X86848557Y-88684133D01*
X86807638Y-88723189D01*
X86765845Y-88684038D01*
X86727860Y-88604009D01*
X86668057Y-88490060D01*
X86615934Y-88459808D01*
X86567084Y-88513149D01*
X86532720Y-88599434D01*
X86485849Y-88710210D01*
X86438181Y-88742491D01*
X86378760Y-88701836D01*
X86364125Y-88684990D01*
X86295902Y-88645161D01*
X86234724Y-88663823D01*
X86116091Y-88698883D01*
X85979308Y-88701384D01*
X85861155Y-88673524D01*
X85810320Y-88638473D01*
X85764601Y-88598473D01*
X85721560Y-88619657D01*
X85682846Y-88667185D01*
X85610806Y-88762691D01*
X85517302Y-88579409D01*
X85458398Y-88477840D01*
X85413041Y-88443089D01*
X85374020Y-88479727D01*
X85334123Y-88592325D01*
X85302603Y-88715482D01*
X85268628Y-88831879D01*
X85235745Y-88904640D01*
X85221575Y-88916934D01*
X85195049Y-88879593D01*
X85168791Y-88786411D01*
X85162185Y-88750029D01*
X85125461Y-88607383D01*
X85078455Y-88545438D01*
X85027766Y-88561928D01*
X84979995Y-88654588D01*
X84941742Y-88821152D01*
X84941008Y-88825952D01*
X84917103Y-88933890D01*
X84890000Y-88960058D01*
X84859224Y-88903726D01*
X84824302Y-88764164D01*
X84794456Y-88600537D01*
X84754197Y-88388686D01*
X84717202Y-88256258D01*
X84684117Y-88204922D01*
X84655591Y-88236349D01*
X84654470Y-88239600D01*
X84638030Y-88310655D01*
X84614353Y-88439335D01*
X84588215Y-88599457D01*
X84584979Y-88620600D01*
X84550614Y-88835453D01*
X84523386Y-88969593D01*
X84500322Y-89026365D01*
X84478446Y-89009118D01*
X84454785Y-88921197D01*
X84431106Y-88793739D01*
X84399811Y-88636602D01*
X84367102Y-88511637D01*
X84339438Y-88443017D01*
X84336466Y-88439413D01*
X84302637Y-88448094D01*
X84265353Y-88519580D01*
X84231523Y-88632649D01*
X84208060Y-88766078D01*
X84201647Y-88853434D01*
X84191998Y-88940354D01*
X84171837Y-89030489D01*
X84148460Y-89100591D01*
X84129162Y-89127415D01*
X84121936Y-89107434D01*
X84114202Y-89049432D01*
X84096501Y-88928456D01*
X84071890Y-88765188D01*
X84056220Y-88662934D01*
X84029154Y-88480370D01*
X84007905Y-88323868D01*
X83995471Y-88216174D01*
X83993479Y-88186684D01*
X83997591Y-88168664D01*
X84015287Y-88153818D01*
X84053996Y-88141840D01*
X84121152Y-88132426D01*
X84224186Y-88125269D01*
X84370530Y-88120064D01*
X84567614Y-88116505D01*
X84822872Y-88114286D01*
X85143734Y-88113103D01*
X85537633Y-88112649D01*
X85795250Y-88112600D01*
X87597780Y-88112600D01*
X87575567Y-88229017D01*
X87575567Y-88229017D01*
G37*
X87575567Y-88229017D02*
X87557790Y-88328144D01*
X87531933Y-88479343D01*
X87503380Y-88651095D01*
X87501442Y-88662934D01*
X87474792Y-88815751D01*
X87453380Y-88894542D01*
X87432244Y-88897195D01*
X87406423Y-88821600D01*
X87370957Y-88665644D01*
X87357436Y-88601641D01*
X87329625Y-88525886D01*
X87295992Y-88533873D01*
X87257005Y-88624913D01*
X87213131Y-88798317D01*
X87208174Y-88821684D01*
X87176524Y-88945102D01*
X87144603Y-89025801D01*
X87127192Y-89043934D01*
X87101282Y-89006195D01*
X87074484Y-88910326D01*
X87063092Y-88846718D01*
X87035314Y-88700758D01*
X87001259Y-88572059D01*
X86989868Y-88539802D01*
X86946218Y-88430100D01*
X86898219Y-88564645D01*
X86848557Y-88684133D01*
X86807638Y-88723189D01*
X86765845Y-88684038D01*
X86727860Y-88604009D01*
X86668057Y-88490060D01*
X86615934Y-88459808D01*
X86567084Y-88513149D01*
X86532720Y-88599434D01*
X86485849Y-88710210D01*
X86438181Y-88742491D01*
X86378760Y-88701836D01*
X86364125Y-88684990D01*
X86295902Y-88645161D01*
X86234724Y-88663823D01*
X86116091Y-88698883D01*
X85979308Y-88701384D01*
X85861155Y-88673524D01*
X85810320Y-88638473D01*
X85764601Y-88598473D01*
X85721560Y-88619657D01*
X85682846Y-88667185D01*
X85610806Y-88762691D01*
X85517302Y-88579409D01*
X85458398Y-88477840D01*
X85413041Y-88443089D01*
X85374020Y-88479727D01*
X85334123Y-88592325D01*
X85302603Y-88715482D01*
X85268628Y-88831879D01*
X85235745Y-88904640D01*
X85221575Y-88916934D01*
X85195049Y-88879593D01*
X85168791Y-88786411D01*
X85162185Y-88750029D01*
X85125461Y-88607383D01*
X85078455Y-88545438D01*
X85027766Y-88561928D01*
X84979995Y-88654588D01*
X84941742Y-88821152D01*
X84941008Y-88825952D01*
X84917103Y-88933890D01*
X84890000Y-88960058D01*
X84859224Y-88903726D01*
X84824302Y-88764164D01*
X84794456Y-88600537D01*
X84754197Y-88388686D01*
X84717202Y-88256258D01*
X84684117Y-88204922D01*
X84655591Y-88236349D01*
X84654470Y-88239600D01*
X84638030Y-88310655D01*
X84614353Y-88439335D01*
X84588215Y-88599457D01*
X84584979Y-88620600D01*
X84550614Y-88835453D01*
X84523386Y-88969593D01*
X84500322Y-89026365D01*
X84478446Y-89009118D01*
X84454785Y-88921197D01*
X84431106Y-88793739D01*
X84399811Y-88636602D01*
X84367102Y-88511637D01*
X84339438Y-88443017D01*
X84336466Y-88439413D01*
X84302637Y-88448094D01*
X84265353Y-88519580D01*
X84231523Y-88632649D01*
X84208060Y-88766078D01*
X84201647Y-88853434D01*
X84191998Y-88940354D01*
X84171837Y-89030489D01*
X84148460Y-89100591D01*
X84129162Y-89127415D01*
X84121936Y-89107434D01*
X84114202Y-89049432D01*
X84096501Y-88928456D01*
X84071890Y-88765188D01*
X84056220Y-88662934D01*
X84029154Y-88480370D01*
X84007905Y-88323868D01*
X83995471Y-88216174D01*
X83993479Y-88186684D01*
X83997591Y-88168664D01*
X84015287Y-88153818D01*
X84053996Y-88141840D01*
X84121152Y-88132426D01*
X84224186Y-88125269D01*
X84370530Y-88120064D01*
X84567614Y-88116505D01*
X84822872Y-88114286D01*
X85143734Y-88113103D01*
X85537633Y-88112649D01*
X85795250Y-88112600D01*
X87597780Y-88112600D01*
X87575567Y-88229017D01*
G36*
X101666340Y-88377184D02*
G01*
X101637208Y-88577068D01*
X101604584Y-88696318D01*
X101569019Y-88733440D01*
X101543246Y-88710703D01*
X101490868Y-88664748D01*
X101445125Y-88700429D01*
X101413090Y-88800517D01*
X101373400Y-88974044D01*
X101337428Y-89066403D01*
X101299926Y-89080615D01*
X101255650Y-89019704D01*
X101211047Y-88916934D01*
X101148310Y-88797038D01*
X101078607Y-88749574D01*
X101057948Y-88747600D01*
X100970216Y-88713382D01*
X100926053Y-88662934D01*
X100872247Y-88595228D01*
X100806112Y-88589592D01*
X100713440Y-88648651D01*
X100639584Y-88715850D01*
X100551653Y-88796372D01*
X100501654Y-88822455D01*
X100468959Y-88800807D01*
X100453819Y-88776259D01*
X100416111Y-88724322D01*
X100374029Y-88734380D01*
X100330435Y-88771438D01*
X100283201Y-88810322D01*
X100251648Y-88813054D01*
X100226456Y-88766713D01*
X100198308Y-88658376D01*
X100175874Y-88557100D01*
X100143542Y-88447348D01*
X100101214Y-88402534D01*
X100050392Y-88400200D01*
X99978078Y-88386268D01*
X99926494Y-88308420D01*
X99914839Y-88277467D01*
X99882961Y-88182082D01*
X99867900Y-88129265D01*
X99867720Y-88127450D01*
X99908020Y-88123098D01*
X100020792Y-88119250D01*
X100193839Y-88116103D01*
X100414967Y-88113857D01*
X100671980Y-88112708D01*
X100782043Y-88112600D01*
X101696366Y-88112600D01*
X101666340Y-88377184D01*
X101666340Y-88377184D01*
G37*
X101666340Y-88377184D02*
X101637208Y-88577068D01*
X101604584Y-88696318D01*
X101569019Y-88733440D01*
X101543246Y-88710703D01*
X101490868Y-88664748D01*
X101445125Y-88700429D01*
X101413090Y-88800517D01*
X101373400Y-88974044D01*
X101337428Y-89066403D01*
X101299926Y-89080615D01*
X101255650Y-89019704D01*
X101211047Y-88916934D01*
X101148310Y-88797038D01*
X101078607Y-88749574D01*
X101057948Y-88747600D01*
X100970216Y-88713382D01*
X100926053Y-88662934D01*
X100872247Y-88595228D01*
X100806112Y-88589592D01*
X100713440Y-88648651D01*
X100639584Y-88715850D01*
X100551653Y-88796372D01*
X100501654Y-88822455D01*
X100468959Y-88800807D01*
X100453819Y-88776259D01*
X100416111Y-88724322D01*
X100374029Y-88734380D01*
X100330435Y-88771438D01*
X100283201Y-88810322D01*
X100251648Y-88813054D01*
X100226456Y-88766713D01*
X100198308Y-88658376D01*
X100175874Y-88557100D01*
X100143542Y-88447348D01*
X100101214Y-88402534D01*
X100050392Y-88400200D01*
X99978078Y-88386268D01*
X99926494Y-88308420D01*
X99914839Y-88277467D01*
X99882961Y-88182082D01*
X99867900Y-88129265D01*
X99867720Y-88127450D01*
X99908020Y-88123098D01*
X100020792Y-88119250D01*
X100193839Y-88116103D01*
X100414967Y-88113857D01*
X100671980Y-88112708D01*
X100782043Y-88112600D01*
X101696366Y-88112600D01*
X101666340Y-88377184D01*
G36*
X97471610Y-88334850D02*
G01*
X97453351Y-88462285D01*
X97437042Y-88549926D01*
X97429724Y-88572833D01*
X97412719Y-88545564D01*
X97384495Y-88458542D01*
X97367066Y-88393442D01*
X97332536Y-88284048D01*
X97299409Y-88223143D01*
X97285524Y-88218348D01*
X97266415Y-88267220D01*
X97245216Y-88378430D01*
X97225956Y-88529872D01*
X97222717Y-88562774D01*
X97201083Y-88731690D01*
X97176052Y-88816714D01*
X97148172Y-88817645D01*
X97117988Y-88734280D01*
X97093214Y-88610703D01*
X97064014Y-88505009D01*
X97031228Y-88478523D01*
X97002640Y-88526557D01*
X96986033Y-88644417D01*
X96984833Y-88676015D01*
X96974282Y-88817292D01*
X96953593Y-88940401D01*
X96948484Y-88959267D01*
X96927589Y-89014228D01*
X96908676Y-89010484D01*
X96883421Y-88938795D01*
X96863144Y-88864543D01*
X96819666Y-88742250D01*
X96778368Y-88692854D01*
X96747276Y-88718871D01*
X96734414Y-88822815D01*
X96734405Y-88824182D01*
X96721177Y-88950234D01*
X96686797Y-89000203D01*
X96636437Y-88970984D01*
X96596910Y-88906721D01*
X96550380Y-88819933D01*
X96524656Y-88802768D01*
X96504161Y-88848400D01*
X96499450Y-88864017D01*
X96457364Y-88945671D01*
X96405389Y-88943341D01*
X96352296Y-88871317D01*
X96296026Y-88811145D01*
X96250567Y-88804342D01*
X96188695Y-88797004D01*
X96073824Y-88758701D01*
X95928266Y-88697151D01*
X95893016Y-88680625D01*
X95745034Y-88612370D01*
X95624931Y-88561457D01*
X95554258Y-88536904D01*
X95547266Y-88535934D01*
X95483610Y-88514495D01*
X95398743Y-88466699D01*
X95316026Y-88425680D01*
X95266084Y-88424458D01*
X95218612Y-88420681D01*
X95163149Y-88382725D01*
X95080943Y-88338148D01*
X95025225Y-88337783D01*
X94949266Y-88329542D01*
X94912971Y-88300993D01*
X94829714Y-88260075D01*
X94766328Y-88264606D01*
X94680720Y-88266314D01*
X94641673Y-88243030D01*
X94582145Y-88208622D01*
X94499471Y-88196619D01*
X94389040Y-88181293D01*
X94322053Y-88154934D01*
X94344678Y-88143256D01*
X94450735Y-88133444D01*
X94639007Y-88125529D01*
X94908279Y-88119544D01*
X95257335Y-88115521D01*
X95684960Y-88113494D01*
X95879261Y-88113248D01*
X97499969Y-88112600D01*
X97471610Y-88334850D01*
X97471610Y-88334850D01*
G37*
X97471610Y-88334850D02*
X97453351Y-88462285D01*
X97437042Y-88549926D01*
X97429724Y-88572833D01*
X97412719Y-88545564D01*
X97384495Y-88458542D01*
X97367066Y-88393442D01*
X97332536Y-88284048D01*
X97299409Y-88223143D01*
X97285524Y-88218348D01*
X97266415Y-88267220D01*
X97245216Y-88378430D01*
X97225956Y-88529872D01*
X97222717Y-88562774D01*
X97201083Y-88731690D01*
X97176052Y-88816714D01*
X97148172Y-88817645D01*
X97117988Y-88734280D01*
X97093214Y-88610703D01*
X97064014Y-88505009D01*
X97031228Y-88478523D01*
X97002640Y-88526557D01*
X96986033Y-88644417D01*
X96984833Y-88676015D01*
X96974282Y-88817292D01*
X96953593Y-88940401D01*
X96948484Y-88959267D01*
X96927589Y-89014228D01*
X96908676Y-89010484D01*
X96883421Y-88938795D01*
X96863144Y-88864543D01*
X96819666Y-88742250D01*
X96778368Y-88692854D01*
X96747276Y-88718871D01*
X96734414Y-88822815D01*
X96734405Y-88824182D01*
X96721177Y-88950234D01*
X96686797Y-89000203D01*
X96636437Y-88970984D01*
X96596910Y-88906721D01*
X96550380Y-88819933D01*
X96524656Y-88802768D01*
X96504161Y-88848400D01*
X96499450Y-88864017D01*
X96457364Y-88945671D01*
X96405389Y-88943341D01*
X96352296Y-88871317D01*
X96296026Y-88811145D01*
X96250567Y-88804342D01*
X96188695Y-88797004D01*
X96073824Y-88758701D01*
X95928266Y-88697151D01*
X95893016Y-88680625D01*
X95745034Y-88612370D01*
X95624931Y-88561457D01*
X95554258Y-88536904D01*
X95547266Y-88535934D01*
X95483610Y-88514495D01*
X95398743Y-88466699D01*
X95316026Y-88425680D01*
X95266084Y-88424458D01*
X95218612Y-88420681D01*
X95163149Y-88382725D01*
X95080943Y-88338148D01*
X95025225Y-88337783D01*
X94949266Y-88329542D01*
X94912971Y-88300993D01*
X94829714Y-88260075D01*
X94766328Y-88264606D01*
X94680720Y-88266314D01*
X94641673Y-88243030D01*
X94582145Y-88208622D01*
X94499471Y-88196619D01*
X94389040Y-88181293D01*
X94322053Y-88154934D01*
X94344678Y-88143256D01*
X94450735Y-88133444D01*
X94639007Y-88125529D01*
X94908279Y-88119544D01*
X95257335Y-88115521D01*
X95684960Y-88113494D01*
X95879261Y-88113248D01*
X97499969Y-88112600D01*
X97471610Y-88334850D01*
G36*
X111085965Y-88250184D02*
G01*
X111061112Y-88362243D01*
X111030379Y-88522939D01*
X111000886Y-88694684D01*
X110972284Y-88843048D01*
X110942358Y-88951996D01*
X110916982Y-89000758D01*
X110914078Y-89001600D01*
X110883098Y-88964422D01*
X110841588Y-88868255D01*
X110809065Y-88768767D01*
X110750660Y-88615225D01*
X110689279Y-88542884D01*
X110626727Y-88553023D01*
X110583628Y-88609136D01*
X110548356Y-88657093D01*
X110507044Y-88647203D01*
X110457192Y-88604989D01*
X110380615Y-88553756D01*
X110323941Y-88567239D01*
X110277623Y-88652647D01*
X110244616Y-88765535D01*
X110198736Y-88908683D01*
X110153582Y-88977258D01*
X110112567Y-88967354D01*
X110096100Y-88935552D01*
X110076827Y-88861706D01*
X110051061Y-88732817D01*
X110025982Y-88586545D01*
X109999283Y-88425985D01*
X109974099Y-88287449D01*
X109957448Y-88207850D01*
X109933875Y-88112600D01*
X111121562Y-88112600D01*
X111085965Y-88250184D01*
X111085965Y-88250184D01*
G37*
X111085965Y-88250184D02*
X111061112Y-88362243D01*
X111030379Y-88522939D01*
X111000886Y-88694684D01*
X110972284Y-88843048D01*
X110942358Y-88951996D01*
X110916982Y-89000758D01*
X110914078Y-89001600D01*
X110883098Y-88964422D01*
X110841588Y-88868255D01*
X110809065Y-88768767D01*
X110750660Y-88615225D01*
X110689279Y-88542884D01*
X110626727Y-88553023D01*
X110583628Y-88609136D01*
X110548356Y-88657093D01*
X110507044Y-88647203D01*
X110457192Y-88604989D01*
X110380615Y-88553756D01*
X110323941Y-88567239D01*
X110277623Y-88652647D01*
X110244616Y-88765535D01*
X110198736Y-88908683D01*
X110153582Y-88977258D01*
X110112567Y-88967354D01*
X110096100Y-88935552D01*
X110076827Y-88861706D01*
X110051061Y-88732817D01*
X110025982Y-88586545D01*
X109999283Y-88425985D01*
X109974099Y-88287449D01*
X109957448Y-88207850D01*
X109933875Y-88112600D01*
X111121562Y-88112600D01*
X111085965Y-88250184D01*
G36*
X93409383Y-88131528D02*
G01*
X93428240Y-88202592D01*
X93428045Y-88250184D01*
X93416470Y-88387624D01*
X93395495Y-88502609D01*
X93370171Y-88576896D01*
X93345548Y-88592241D01*
X93337209Y-88578267D01*
X93318608Y-88499534D01*
X93300035Y-88374372D01*
X93293425Y-88313684D01*
X93285923Y-88191453D01*
X93298440Y-88131670D01*
X93337291Y-88113229D01*
X93353587Y-88112600D01*
X93409383Y-88131528D01*
X93409383Y-88131528D01*
G37*
X93409383Y-88131528D02*
X93428240Y-88202592D01*
X93428045Y-88250184D01*
X93416470Y-88387624D01*
X93395495Y-88502609D01*
X93370171Y-88576896D01*
X93345548Y-88592241D01*
X93337209Y-88578267D01*
X93318608Y-88499534D01*
X93300035Y-88374372D01*
X93293425Y-88313684D01*
X93285923Y-88191453D01*
X93298440Y-88131670D01*
X93337291Y-88113229D01*
X93353587Y-88112600D01*
X93409383Y-88131528D01*
G36*
X98344986Y-88121304D02*
G01*
X98359508Y-88162077D01*
X98345464Y-88256914D01*
X98337888Y-88292517D01*
X98305516Y-88436652D01*
X98284468Y-88508145D01*
X98268769Y-88517234D01*
X98252444Y-88474158D01*
X98245884Y-88450175D01*
X98216183Y-88282544D01*
X98227790Y-88167218D01*
X98279118Y-88114695D01*
X98296887Y-88112600D01*
X98344986Y-88121304D01*
X98344986Y-88121304D01*
G37*
X98344986Y-88121304D02*
X98359508Y-88162077D01*
X98345464Y-88256914D01*
X98337888Y-88292517D01*
X98305516Y-88436652D01*
X98284468Y-88508145D01*
X98268769Y-88517234D01*
X98252444Y-88474158D01*
X98245884Y-88450175D01*
X98216183Y-88282544D01*
X98227790Y-88167218D01*
X98279118Y-88114695D01*
X98296887Y-88112600D01*
X98344986Y-88121304D01*
G36*
X93673532Y-88130154D02*
G01*
X93674182Y-88196957D01*
X93671402Y-88207850D01*
X93650594Y-88306291D01*
X93645298Y-88356017D01*
X93631620Y-88411582D01*
X93601942Y-88402260D01*
X93570257Y-88342340D01*
X93552019Y-88260767D01*
X93547886Y-88160199D01*
X93574265Y-88118753D01*
X93615824Y-88112600D01*
X93673532Y-88130154D01*
X93673532Y-88130154D01*
G37*
X93673532Y-88130154D02*
X93674182Y-88196957D01*
X93671402Y-88207850D01*
X93650594Y-88306291D01*
X93645298Y-88356017D01*
X93631620Y-88411582D01*
X93601942Y-88402260D01*
X93570257Y-88342340D01*
X93552019Y-88260767D01*
X93547886Y-88160199D01*
X93574265Y-88118753D01*
X93615824Y-88112600D01*
X93673532Y-88130154D01*
G36*
X93929895Y-88137847D02*
G01*
X93924416Y-88179563D01*
X93902002Y-88247046D01*
X93898720Y-88264229D01*
X93865953Y-88281475D01*
X93856387Y-88281934D01*
X93821991Y-88246477D01*
X93814053Y-88197267D01*
X93842435Y-88126845D01*
X93882082Y-88112600D01*
X93929895Y-88137847D01*
X93929895Y-88137847D01*
G37*
X93929895Y-88137847D02*
X93924416Y-88179563D01*
X93902002Y-88247046D01*
X93898720Y-88264229D01*
X93865953Y-88281475D01*
X93856387Y-88281934D01*
X93821991Y-88246477D01*
X93814053Y-88197267D01*
X93842435Y-88126845D01*
X93882082Y-88112600D01*
X93929895Y-88137847D01*
G36*
X94177869Y-88133123D02*
G01*
X94173887Y-88154934D01*
X94119765Y-88195652D01*
X94107888Y-88197267D01*
X94069193Y-88164977D01*
X94068053Y-88154934D01*
X94102511Y-88117781D01*
X94134052Y-88112600D01*
X94177869Y-88133123D01*
X94177869Y-88133123D01*
G37*
X94177869Y-88133123D02*
X94173887Y-88154934D01*
X94119765Y-88195652D01*
X94107888Y-88197267D01*
X94069193Y-88164977D01*
X94068053Y-88154934D01*
X94102511Y-88117781D01*
X94134052Y-88112600D01*
X94177869Y-88133123D01*
G36*
X97694609Y-88126711D02*
G01*
X97699675Y-88176951D01*
X97694609Y-88183156D01*
X97669442Y-88177345D01*
X97666387Y-88154934D01*
X97681876Y-88120088D01*
X97694609Y-88126711D01*
X97694609Y-88126711D01*
G37*
X97694609Y-88126711D02*
X97699675Y-88176951D01*
X97694609Y-88183156D01*
X97669442Y-88177345D01*
X97666387Y-88154934D01*
X97681876Y-88120088D01*
X97694609Y-88126711D01*
G36*
X80501944Y-36713198D02*
G01*
X80839456Y-36734017D01*
X81128078Y-36772276D01*
X81385298Y-36830887D01*
X81628603Y-36912762D01*
X81816647Y-36993111D01*
X81992348Y-37084861D01*
X82163549Y-37191813D01*
X82292487Y-37290236D01*
X82432978Y-37451801D01*
X82565234Y-37663550D01*
X82671401Y-37891862D01*
X82733622Y-38103122D01*
X82737670Y-38128422D01*
X82760024Y-38288077D01*
X81954235Y-38276589D01*
X81148447Y-38265100D01*
X81092264Y-38101578D01*
X80988992Y-37898321D01*
X80832599Y-37744103D01*
X80617501Y-37636168D01*
X80338111Y-37571755D01*
X79988843Y-37548108D01*
X79971053Y-37547956D01*
X79630139Y-37565717D01*
X79361760Y-37624504D01*
X79163763Y-37725462D01*
X79033998Y-37869739D01*
X78970313Y-38058478D01*
X78967188Y-38082548D01*
X78982335Y-38272142D01*
X79070428Y-38421368D01*
X79226067Y-38521962D01*
X79262632Y-38534833D01*
X79341488Y-38553314D01*
X79490859Y-38582545D01*
X79697610Y-38620178D01*
X79948609Y-38663867D01*
X80230720Y-38711267D01*
X80457887Y-38748335D01*
X80888546Y-38819530D01*
X81244979Y-38883411D01*
X81536988Y-38943037D01*
X81774377Y-39001471D01*
X81966946Y-39061775D01*
X82124499Y-39127010D01*
X82256837Y-39200239D01*
X82373763Y-39284522D01*
X82482890Y-39380839D01*
X82636312Y-39544425D01*
X82738193Y-39704725D01*
X82797749Y-39885647D01*
X82824200Y-40111097D01*
X82828012Y-40275934D01*
X82814030Y-40580339D01*
X82765913Y-40826597D01*
X82675785Y-41037055D01*
X82535767Y-41234058D01*
X82460845Y-41317468D01*
X82216281Y-41522217D01*
X81905716Y-41694516D01*
X81544100Y-41826732D01*
X81383050Y-41867920D01*
X81249255Y-41888757D01*
X81049665Y-41908135D01*
X80803151Y-41925335D01*
X80528583Y-41939642D01*
X80244829Y-41950337D01*
X79970759Y-41956704D01*
X79725243Y-41958027D01*
X79527150Y-41953586D01*
X79399553Y-41943301D01*
X78933941Y-41858569D01*
X78543778Y-41750300D01*
X78222324Y-41615282D01*
X77962837Y-41450303D01*
X77758577Y-41252153D01*
X77658324Y-41113789D01*
X77578443Y-40952861D01*
X77506482Y-40748967D01*
X77453662Y-40539778D01*
X77431203Y-40362963D01*
X77431053Y-40350751D01*
X77431053Y-40231690D01*
X78201776Y-40243229D01*
X78972499Y-40254767D01*
X79006363Y-40417921D01*
X79080610Y-40625023D01*
X79213300Y-40784282D01*
X79416038Y-40909336D01*
X79430108Y-40915789D01*
X79528581Y-40956775D01*
X79623468Y-40984974D01*
X79733678Y-41002723D01*
X79878116Y-41012364D01*
X80075690Y-41016236D01*
X80246220Y-41016767D01*
X80489856Y-41015410D01*
X80666870Y-41009893D01*
X80795281Y-40998047D01*
X80893111Y-40977705D01*
X80978380Y-40946698D01*
X81030311Y-40922416D01*
X81217784Y-40792662D01*
X81330017Y-40624590D01*
X81368042Y-40416646D01*
X81368053Y-40412694D01*
X81332821Y-40226995D01*
X81225773Y-40083444D01*
X81044886Y-39979584D01*
X80997100Y-39962511D01*
X80894368Y-39936448D01*
X80723890Y-39901883D01*
X80501816Y-39861711D01*
X80244298Y-39818825D01*
X79967485Y-39776118D01*
X79907553Y-39767317D01*
X79486328Y-39703198D01*
X79138776Y-39643370D01*
X78854191Y-39585169D01*
X78621867Y-39525929D01*
X78431096Y-39462986D01*
X78271172Y-39393674D01*
X78158358Y-39331915D01*
X77912947Y-39148884D01*
X77740298Y-38934312D01*
X77634935Y-38678099D01*
X77591385Y-38370143D01*
X77589513Y-38282211D01*
X77619848Y-37925624D01*
X77713847Y-37622870D01*
X77875043Y-37368176D01*
X78106969Y-37155770D01*
X78375735Y-36997617D01*
X78610307Y-36895628D01*
X78848880Y-36818783D01*
X79107976Y-36764293D01*
X79404119Y-36729369D01*
X79753831Y-36711223D01*
X80098053Y-36706905D01*
X80501944Y-36713198D01*
X80501944Y-36713198D01*
G37*
X80501944Y-36713198D02*
X80839456Y-36734017D01*
X81128078Y-36772276D01*
X81385298Y-36830887D01*
X81628603Y-36912762D01*
X81816647Y-36993111D01*
X81992348Y-37084861D01*
X82163549Y-37191813D01*
X82292487Y-37290236D01*
X82432978Y-37451801D01*
X82565234Y-37663550D01*
X82671401Y-37891862D01*
X82733622Y-38103122D01*
X82737670Y-38128422D01*
X82760024Y-38288077D01*
X81954235Y-38276589D01*
X81148447Y-38265100D01*
X81092264Y-38101578D01*
X80988992Y-37898321D01*
X80832599Y-37744103D01*
X80617501Y-37636168D01*
X80338111Y-37571755D01*
X79988843Y-37548108D01*
X79971053Y-37547956D01*
X79630139Y-37565717D01*
X79361760Y-37624504D01*
X79163763Y-37725462D01*
X79033998Y-37869739D01*
X78970313Y-38058478D01*
X78967188Y-38082548D01*
X78982335Y-38272142D01*
X79070428Y-38421368D01*
X79226067Y-38521962D01*
X79262632Y-38534833D01*
X79341488Y-38553314D01*
X79490859Y-38582545D01*
X79697610Y-38620178D01*
X79948609Y-38663867D01*
X80230720Y-38711267D01*
X80457887Y-38748335D01*
X80888546Y-38819530D01*
X81244979Y-38883411D01*
X81536988Y-38943037D01*
X81774377Y-39001471D01*
X81966946Y-39061775D01*
X82124499Y-39127010D01*
X82256837Y-39200239D01*
X82373763Y-39284522D01*
X82482890Y-39380839D01*
X82636312Y-39544425D01*
X82738193Y-39704725D01*
X82797749Y-39885647D01*
X82824200Y-40111097D01*
X82828012Y-40275934D01*
X82814030Y-40580339D01*
X82765913Y-40826597D01*
X82675785Y-41037055D01*
X82535767Y-41234058D01*
X82460845Y-41317468D01*
X82216281Y-41522217D01*
X81905716Y-41694516D01*
X81544100Y-41826732D01*
X81383050Y-41867920D01*
X81249255Y-41888757D01*
X81049665Y-41908135D01*
X80803151Y-41925335D01*
X80528583Y-41939642D01*
X80244829Y-41950337D01*
X79970759Y-41956704D01*
X79725243Y-41958027D01*
X79527150Y-41953586D01*
X79399553Y-41943301D01*
X78933941Y-41858569D01*
X78543778Y-41750300D01*
X78222324Y-41615282D01*
X77962837Y-41450303D01*
X77758577Y-41252153D01*
X77658324Y-41113789D01*
X77578443Y-40952861D01*
X77506482Y-40748967D01*
X77453662Y-40539778D01*
X77431203Y-40362963D01*
X77431053Y-40350751D01*
X77431053Y-40231690D01*
X78201776Y-40243229D01*
X78972499Y-40254767D01*
X79006363Y-40417921D01*
X79080610Y-40625023D01*
X79213300Y-40784282D01*
X79416038Y-40909336D01*
X79430108Y-40915789D01*
X79528581Y-40956775D01*
X79623468Y-40984974D01*
X79733678Y-41002723D01*
X79878116Y-41012364D01*
X80075690Y-41016236D01*
X80246220Y-41016767D01*
X80489856Y-41015410D01*
X80666870Y-41009893D01*
X80795281Y-40998047D01*
X80893111Y-40977705D01*
X80978380Y-40946698D01*
X81030311Y-40922416D01*
X81217784Y-40792662D01*
X81330017Y-40624590D01*
X81368042Y-40416646D01*
X81368053Y-40412694D01*
X81332821Y-40226995D01*
X81225773Y-40083444D01*
X81044886Y-39979584D01*
X80997100Y-39962511D01*
X80894368Y-39936448D01*
X80723890Y-39901883D01*
X80501816Y-39861711D01*
X80244298Y-39818825D01*
X79967485Y-39776118D01*
X79907553Y-39767317D01*
X79486328Y-39703198D01*
X79138776Y-39643370D01*
X78854191Y-39585169D01*
X78621867Y-39525929D01*
X78431096Y-39462986D01*
X78271172Y-39393674D01*
X78158358Y-39331915D01*
X77912947Y-39148884D01*
X77740298Y-38934312D01*
X77634935Y-38678099D01*
X77591385Y-38370143D01*
X77589513Y-38282211D01*
X77619848Y-37925624D01*
X77713847Y-37622870D01*
X77875043Y-37368176D01*
X78106969Y-37155770D01*
X78375735Y-36997617D01*
X78610307Y-36895628D01*
X78848880Y-36818783D01*
X79107976Y-36764293D01*
X79404119Y-36729369D01*
X79753831Y-36711223D01*
X80098053Y-36706905D01*
X80501944Y-36713198D01*
G36*
X88056720Y-37778267D02*
G01*
X86194053Y-37778267D01*
X86194053Y-41884600D01*
X84839387Y-41884600D01*
X84839387Y-37778267D01*
X82976720Y-37778267D01*
X82976720Y-36846934D01*
X88056720Y-36846934D01*
X88056720Y-37778267D01*
X88056720Y-37778267D01*
G37*
X88056720Y-37778267D02*
X86194053Y-37778267D01*
X86194053Y-41884600D01*
X84839387Y-41884600D01*
X84839387Y-37778267D01*
X82976720Y-37778267D01*
X82976720Y-36846934D01*
X88056720Y-36846934D01*
X88056720Y-37778267D01*
G36*
X92776887Y-36868100D02*
G01*
X93030887Y-36986910D01*
X93311517Y-37150886D01*
X93519599Y-37350381D01*
X93660909Y-37594149D01*
X93741220Y-37890943D01*
X93762402Y-38095767D01*
X93765363Y-38284250D01*
X93755839Y-38464723D01*
X93735875Y-38600839D01*
X93733433Y-38610427D01*
X93634511Y-38852774D01*
X93483191Y-39071570D01*
X93298447Y-39242009D01*
X93208302Y-39296915D01*
X93004718Y-39400944D01*
X93124423Y-39451276D01*
X93277905Y-39553233D01*
X93421053Y-39714620D01*
X93534489Y-39910688D01*
X93579659Y-40032705D01*
X93606930Y-40159711D01*
X93635342Y-40347253D01*
X93661749Y-40571312D01*
X93683001Y-40807865D01*
X93685211Y-40838143D01*
X93709807Y-41126463D01*
X93738649Y-41344704D01*
X93774122Y-41507432D01*
X93812644Y-41616108D01*
X93861995Y-41730726D01*
X93893133Y-41808917D01*
X93898720Y-41827481D01*
X93858670Y-41832317D01*
X93747619Y-41835280D01*
X93579213Y-41836272D01*
X93367098Y-41835195D01*
X93168996Y-41832683D01*
X92439271Y-41821100D01*
X92381275Y-41700001D01*
X92354869Y-41605435D01*
X92329892Y-41443409D01*
X92308539Y-41231129D01*
X92294731Y-41021220D01*
X92274977Y-40735752D01*
X92245474Y-40520412D01*
X92200898Y-40360779D01*
X92135926Y-40242429D01*
X92045233Y-40150940D01*
X91949889Y-40086990D01*
X91895722Y-40058883D01*
X91833286Y-40037244D01*
X91750667Y-40020986D01*
X91635951Y-40009020D01*
X91477226Y-40000259D01*
X91262577Y-39993614D01*
X90980093Y-39987999D01*
X90840958Y-39985726D01*
X89878697Y-39970569D01*
X89867292Y-40917001D01*
X89855887Y-41863434D01*
X89197226Y-41875051D01*
X88969098Y-41877252D01*
X88771391Y-41875713D01*
X88619328Y-41870822D01*
X88528132Y-41862970D01*
X88509309Y-41857412D01*
X88504013Y-41810907D01*
X88499025Y-41687239D01*
X88494432Y-41493909D01*
X88490323Y-41238420D01*
X88486782Y-40928273D01*
X88483899Y-40570972D01*
X88481759Y-40174019D01*
X88480449Y-39744917D01*
X88480053Y-39335727D01*
X88480053Y-39048267D01*
X89877053Y-39048267D01*
X90861303Y-39048201D01*
X91183732Y-39047455D01*
X91433104Y-39044760D01*
X91621022Y-39039356D01*
X91759088Y-39030483D01*
X91858902Y-39017382D01*
X91932069Y-38999294D01*
X91990189Y-38975458D01*
X91992876Y-38974118D01*
X92163387Y-38847022D01*
X92275392Y-38678221D01*
X92328329Y-38485631D01*
X92321634Y-38287166D01*
X92254747Y-38100741D01*
X92127104Y-37944273D01*
X92027342Y-37875572D01*
X91972798Y-37850872D01*
X91903209Y-37831654D01*
X91807234Y-37817031D01*
X91673534Y-37806116D01*
X91490767Y-37798023D01*
X91247594Y-37791867D01*
X90932675Y-37786759D01*
X90882470Y-37786081D01*
X89877053Y-37772728D01*
X89877053Y-39048267D01*
X88480053Y-39048267D01*
X88480053Y-36843298D01*
X92776887Y-36868100D01*
X92776887Y-36868100D01*
G37*
X92776887Y-36868100D02*
X93030887Y-36986910D01*
X93311517Y-37150886D01*
X93519599Y-37350381D01*
X93660909Y-37594149D01*
X93741220Y-37890943D01*
X93762402Y-38095767D01*
X93765363Y-38284250D01*
X93755839Y-38464723D01*
X93735875Y-38600839D01*
X93733433Y-38610427D01*
X93634511Y-38852774D01*
X93483191Y-39071570D01*
X93298447Y-39242009D01*
X93208302Y-39296915D01*
X93004718Y-39400944D01*
X93124423Y-39451276D01*
X93277905Y-39553233D01*
X93421053Y-39714620D01*
X93534489Y-39910688D01*
X93579659Y-40032705D01*
X93606930Y-40159711D01*
X93635342Y-40347253D01*
X93661749Y-40571312D01*
X93683001Y-40807865D01*
X93685211Y-40838143D01*
X93709807Y-41126463D01*
X93738649Y-41344704D01*
X93774122Y-41507432D01*
X93812644Y-41616108D01*
X93861995Y-41730726D01*
X93893133Y-41808917D01*
X93898720Y-41827481D01*
X93858670Y-41832317D01*
X93747619Y-41835280D01*
X93579213Y-41836272D01*
X93367098Y-41835195D01*
X93168996Y-41832683D01*
X92439271Y-41821100D01*
X92381275Y-41700001D01*
X92354869Y-41605435D01*
X92329892Y-41443409D01*
X92308539Y-41231129D01*
X92294731Y-41021220D01*
X92274977Y-40735752D01*
X92245474Y-40520412D01*
X92200898Y-40360779D01*
X92135926Y-40242429D01*
X92045233Y-40150940D01*
X91949889Y-40086990D01*
X91895722Y-40058883D01*
X91833286Y-40037244D01*
X91750667Y-40020986D01*
X91635951Y-40009020D01*
X91477226Y-40000259D01*
X91262577Y-39993614D01*
X90980093Y-39987999D01*
X90840958Y-39985726D01*
X89878697Y-39970569D01*
X89867292Y-40917001D01*
X89855887Y-41863434D01*
X89197226Y-41875051D01*
X88969098Y-41877252D01*
X88771391Y-41875713D01*
X88619328Y-41870822D01*
X88528132Y-41862970D01*
X88509309Y-41857412D01*
X88504013Y-41810907D01*
X88499025Y-41687239D01*
X88494432Y-41493909D01*
X88490323Y-41238420D01*
X88486782Y-40928273D01*
X88483899Y-40570972D01*
X88481759Y-40174019D01*
X88480449Y-39744917D01*
X88480053Y-39335727D01*
X88480053Y-39048267D01*
X89877053Y-39048267D01*
X90861303Y-39048201D01*
X91183732Y-39047455D01*
X91433104Y-39044760D01*
X91621022Y-39039356D01*
X91759088Y-39030483D01*
X91858902Y-39017382D01*
X91932069Y-38999294D01*
X91990189Y-38975458D01*
X91992876Y-38974118D01*
X92163387Y-38847022D01*
X92275392Y-38678221D01*
X92328329Y-38485631D01*
X92321634Y-38287166D01*
X92254747Y-38100741D01*
X92127104Y-37944273D01*
X92027342Y-37875572D01*
X91972798Y-37850872D01*
X91903209Y-37831654D01*
X91807234Y-37817031D01*
X91673534Y-37806116D01*
X91490767Y-37798023D01*
X91247594Y-37791867D01*
X90932675Y-37786759D01*
X90882470Y-37786081D01*
X89877053Y-37772728D01*
X89877053Y-39048267D01*
X88480053Y-39048267D01*
X88480053Y-36843298D01*
X92776887Y-36868100D01*
G36*
X107562139Y-39354430D02*
G01*
X107551220Y-41863434D01*
X106217720Y-41886750D01*
X106215666Y-39864258D01*
X106213612Y-37841767D01*
X105403195Y-39863184D01*
X104592778Y-41884600D01*
X103475246Y-41884600D01*
X103412802Y-41725850D01*
X103384994Y-41654907D01*
X103329699Y-41513627D01*
X103250249Y-41310532D01*
X103149979Y-41054144D01*
X103032219Y-40752984D01*
X102900302Y-40415574D01*
X102757561Y-40050436D01*
X102614456Y-39684327D01*
X101878553Y-37801554D01*
X101857387Y-39832494D01*
X101836220Y-41863434D01*
X101190637Y-41875119D01*
X100545053Y-41886805D01*
X100545053Y-36846934D01*
X102560502Y-36846934D01*
X103252761Y-38550850D01*
X103399824Y-38912337D01*
X103538416Y-39252065D01*
X103665011Y-39561451D01*
X103776078Y-39831915D01*
X103868089Y-40054874D01*
X103937516Y-40221748D01*
X103980830Y-40323954D01*
X103992907Y-40350852D01*
X104007024Y-40366821D01*
X104026624Y-40361214D01*
X104054553Y-40327955D01*
X104093658Y-40260964D01*
X104146787Y-40154163D01*
X104216787Y-40001475D01*
X104306505Y-39796822D01*
X104418787Y-39534124D01*
X104556482Y-39207304D01*
X104722437Y-38810284D01*
X104786099Y-38657519D01*
X105531404Y-36868100D01*
X106552231Y-36856763D01*
X107573059Y-36845427D01*
X107562139Y-39354430D01*
X107562139Y-39354430D01*
G37*
X107562139Y-39354430D02*
X107551220Y-41863434D01*
X106217720Y-41886750D01*
X106215666Y-39864258D01*
X106213612Y-37841767D01*
X105403195Y-39863184D01*
X104592778Y-41884600D01*
X103475246Y-41884600D01*
X103412802Y-41725850D01*
X103384994Y-41654907D01*
X103329699Y-41513627D01*
X103250249Y-41310532D01*
X103149979Y-41054144D01*
X103032219Y-40752984D01*
X102900302Y-40415574D01*
X102757561Y-40050436D01*
X102614456Y-39684327D01*
X101878553Y-37801554D01*
X101857387Y-39832494D01*
X101836220Y-41863434D01*
X101190637Y-41875119D01*
X100545053Y-41886805D01*
X100545053Y-36846934D01*
X102560502Y-36846934D01*
X103252761Y-38550850D01*
X103399824Y-38912337D01*
X103538416Y-39252065D01*
X103665011Y-39561451D01*
X103776078Y-39831915D01*
X103868089Y-40054874D01*
X103937516Y-40221748D01*
X103980830Y-40323954D01*
X103992907Y-40350852D01*
X104007024Y-40366821D01*
X104026624Y-40361214D01*
X104054553Y-40327955D01*
X104093658Y-40260964D01*
X104146787Y-40154163D01*
X104216787Y-40001475D01*
X104306505Y-39796822D01*
X104418787Y-39534124D01*
X104556482Y-39207304D01*
X104722437Y-38810284D01*
X104786099Y-38657519D01*
X105531404Y-36868100D01*
X106552231Y-36856763D01*
X107573059Y-36845427D01*
X107562139Y-39354430D01*
G36*
X110376970Y-36847436D02*
G01*
X110859038Y-36847835D01*
X111264775Y-36849268D01*
X111602514Y-36852499D01*
X111880591Y-36858292D01*
X112107340Y-36867412D01*
X112291096Y-36880625D01*
X112440192Y-36898693D01*
X112562964Y-36922382D01*
X112667746Y-36952457D01*
X112762873Y-36989681D01*
X112856679Y-37034819D01*
X112947592Y-37083239D01*
X113189918Y-37261307D01*
X113380396Y-37496881D01*
X113516453Y-37778619D01*
X113595516Y-38095174D01*
X113615011Y-38435203D01*
X113572365Y-38787362D01*
X113465005Y-39140306D01*
X113431888Y-39218175D01*
X113267746Y-39490109D01*
X113039776Y-39711933D01*
X112742370Y-39889101D01*
X112742134Y-39889212D01*
X112504220Y-40000767D01*
X111182121Y-40014067D01*
X109860023Y-40027367D01*
X109848621Y-40945400D01*
X109837220Y-41863434D01*
X109178559Y-41875051D01*
X108950431Y-41877252D01*
X108752724Y-41875713D01*
X108600661Y-41870822D01*
X108509465Y-41862970D01*
X108490643Y-41857412D01*
X108485344Y-41810906D01*
X108480355Y-41687239D01*
X108475761Y-41493916D01*
X108471650Y-41238442D01*
X108468110Y-40928322D01*
X108465226Y-40571062D01*
X108463088Y-40174167D01*
X108461780Y-39745142D01*
X108461387Y-39337545D01*
X108461387Y-39186318D01*
X109900720Y-39186318D01*
X110823009Y-39167433D01*
X111134697Y-39160240D01*
X111374168Y-39152307D01*
X111553870Y-39142482D01*
X111686251Y-39129616D01*
X111783760Y-39112556D01*
X111858845Y-39090153D01*
X111913093Y-39066657D01*
X112075276Y-38948074D01*
X112178354Y-38776560D01*
X112225271Y-38546303D01*
X112228987Y-38443657D01*
X112204607Y-38183420D01*
X112130218Y-37988850D01*
X112004184Y-37856128D01*
X111967805Y-37833995D01*
X111911778Y-37808550D01*
X111840907Y-37788872D01*
X111743506Y-37774006D01*
X111607891Y-37762995D01*
X111422377Y-37754883D01*
X111175277Y-37748714D01*
X110863803Y-37743655D01*
X109900720Y-37730210D01*
X109900720Y-39186318D01*
X108461387Y-39186318D01*
X108461387Y-36846934D01*
X110376970Y-36847436D01*
X110376970Y-36847436D01*
G37*
X110376970Y-36847436D02*
X110859038Y-36847835D01*
X111264775Y-36849268D01*
X111602514Y-36852499D01*
X111880591Y-36858292D01*
X112107340Y-36867412D01*
X112291096Y-36880625D01*
X112440192Y-36898693D01*
X112562964Y-36922382D01*
X112667746Y-36952457D01*
X112762873Y-36989681D01*
X112856679Y-37034819D01*
X112947592Y-37083239D01*
X113189918Y-37261307D01*
X113380396Y-37496881D01*
X113516453Y-37778619D01*
X113595516Y-38095174D01*
X113615011Y-38435203D01*
X113572365Y-38787362D01*
X113465005Y-39140306D01*
X113431888Y-39218175D01*
X113267746Y-39490109D01*
X113039776Y-39711933D01*
X112742370Y-39889101D01*
X112742134Y-39889212D01*
X112504220Y-40000767D01*
X111182121Y-40014067D01*
X109860023Y-40027367D01*
X109848621Y-40945400D01*
X109837220Y-41863434D01*
X109178559Y-41875051D01*
X108950431Y-41877252D01*
X108752724Y-41875713D01*
X108600661Y-41870822D01*
X108509465Y-41862970D01*
X108490643Y-41857412D01*
X108485344Y-41810906D01*
X108480355Y-41687239D01*
X108475761Y-41493916D01*
X108471650Y-41238442D01*
X108468110Y-40928322D01*
X108465226Y-40571062D01*
X108463088Y-40174167D01*
X108461780Y-39745142D01*
X108461387Y-39337545D01*
X108461387Y-39186318D01*
X109900720Y-39186318D01*
X110823009Y-39167433D01*
X111134697Y-39160240D01*
X111374168Y-39152307D01*
X111553870Y-39142482D01*
X111686251Y-39129616D01*
X111783760Y-39112556D01*
X111858845Y-39090153D01*
X111913093Y-39066657D01*
X112075276Y-38948074D01*
X112178354Y-38776560D01*
X112225271Y-38546303D01*
X112228987Y-38443657D01*
X112204607Y-38183420D01*
X112130218Y-37988850D01*
X112004184Y-37856128D01*
X111967805Y-37833995D01*
X111911778Y-37808550D01*
X111840907Y-37788872D01*
X111743506Y-37774006D01*
X111607891Y-37762995D01*
X111422377Y-37754883D01*
X111175277Y-37748714D01*
X110863803Y-37743655D01*
X109900720Y-37730210D01*
X109900720Y-39186318D01*
X108461387Y-39186318D01*
X108461387Y-36846934D01*
X110376970Y-36847436D01*
G36*
X115531053Y-40826267D02*
G01*
X118579053Y-40826267D01*
X118579053Y-41884600D01*
X116384775Y-41884600D01*
X115961563Y-41884071D01*
X115564134Y-41882552D01*
X115200497Y-41880143D01*
X114878661Y-41876948D01*
X114606631Y-41873068D01*
X114392417Y-41868603D01*
X114244026Y-41863657D01*
X114169465Y-41858331D01*
X114162275Y-41856378D01*
X114157165Y-41810063D01*
X114152352Y-41686583D01*
X114147920Y-41493439D01*
X114143955Y-41238131D01*
X114140540Y-40928162D01*
X114137758Y-40571031D01*
X114135695Y-40174241D01*
X114134433Y-39745291D01*
X114134053Y-39337545D01*
X114134053Y-36846934D01*
X115531053Y-36846934D01*
X115531053Y-40826267D01*
X115531053Y-40826267D01*
G37*
X115531053Y-40826267D02*
X118579053Y-40826267D01*
X118579053Y-41884600D01*
X116384775Y-41884600D01*
X115961563Y-41884071D01*
X115564134Y-41882552D01*
X115200497Y-41880143D01*
X114878661Y-41876948D01*
X114606631Y-41873068D01*
X114392417Y-41868603D01*
X114244026Y-41863657D01*
X114169465Y-41858331D01*
X114162275Y-41856378D01*
X114157165Y-41810063D01*
X114152352Y-41686583D01*
X114147920Y-41493439D01*
X114143955Y-41238131D01*
X114140540Y-40928162D01*
X114137758Y-40571031D01*
X114135695Y-40174241D01*
X114134433Y-39745291D01*
X114134053Y-39337545D01*
X114134053Y-36846934D01*
X115531053Y-36846934D01*
X115531053Y-40826267D01*
G36*
X123786053Y-37778267D02*
G01*
X120441720Y-37778267D01*
X120441720Y-38836600D01*
X123616720Y-38836600D01*
X123616720Y-39767934D01*
X120441720Y-39767934D01*
X120441720Y-40868600D01*
X123828387Y-40868600D01*
X123828387Y-41884600D01*
X119129387Y-41884600D01*
X119129387Y-36846934D01*
X123786053Y-36846934D01*
X123786053Y-37778267D01*
X123786053Y-37778267D01*
G37*
X123786053Y-37778267D02*
X120441720Y-37778267D01*
X120441720Y-38836600D01*
X123616720Y-38836600D01*
X123616720Y-39767934D01*
X120441720Y-39767934D01*
X120441720Y-40868600D01*
X123828387Y-40868600D01*
X123828387Y-41884600D01*
X119129387Y-41884600D01*
X119129387Y-36846934D01*
X123786053Y-36846934D01*
X123786053Y-37778267D01*
G36*
X126717637Y-36856144D02*
G01*
X127225647Y-36859237D01*
X127656514Y-36862584D01*
X128017757Y-36867253D01*
X128316897Y-36874314D01*
X128561453Y-36884837D01*
X128758944Y-36899890D01*
X128916890Y-36920544D01*
X129042810Y-36947868D01*
X129144225Y-36982931D01*
X129228654Y-37026803D01*
X129303617Y-37080554D01*
X129376633Y-37145252D01*
X129455221Y-37221968D01*
X129483007Y-37249460D01*
X129650886Y-37445977D01*
X129760984Y-37656019D01*
X129821271Y-37900912D01*
X129839719Y-38201979D01*
X129839720Y-38203819D01*
X129812014Y-38545856D01*
X129726857Y-38829104D01*
X129581188Y-39059659D01*
X129371947Y-39243619D01*
X129293331Y-39292346D01*
X129090929Y-39408100D01*
X129254017Y-39485842D01*
X129404263Y-39597332D01*
X129540165Y-39772528D01*
X129646697Y-39990471D01*
X129673764Y-40071283D01*
X129692717Y-40167164D01*
X129713981Y-40326059D01*
X129735043Y-40526452D01*
X129753390Y-40746826D01*
X129754530Y-40762767D01*
X129784202Y-41091698D01*
X129823777Y-41356555D01*
X129877114Y-41577716D01*
X129944994Y-41768184D01*
X129950785Y-41795091D01*
X129934960Y-41814579D01*
X129886386Y-41827833D01*
X129793928Y-41836040D01*
X129646452Y-41840385D01*
X129432823Y-41842055D01*
X129249422Y-41842267D01*
X128523066Y-41842267D01*
X128466776Y-41704684D01*
X128442456Y-41609141D01*
X128417977Y-41451050D01*
X128396206Y-41252472D01*
X128380150Y-41037934D01*
X128360682Y-40764947D01*
X128331204Y-40543351D01*
X128283433Y-40367806D01*
X128209086Y-40232971D01*
X128099877Y-40133507D01*
X127947525Y-40064073D01*
X127743746Y-40019330D01*
X127480256Y-39993938D01*
X127148771Y-39982557D01*
X126741009Y-39979846D01*
X126738803Y-39979845D01*
X125945053Y-39979600D01*
X125945053Y-41884600D01*
X124590387Y-41884600D01*
X124590387Y-37778267D01*
X125945053Y-37778267D01*
X125945053Y-39048267D01*
X126920080Y-39048267D01*
X127266107Y-39046836D01*
X127536665Y-39042224D01*
X127740908Y-39033954D01*
X127887991Y-39021546D01*
X127987068Y-39004524D01*
X128031330Y-38990223D01*
X128157925Y-38916036D01*
X128272452Y-38818488D01*
X128273387Y-38817479D01*
X128331545Y-38742616D01*
X128363700Y-38659013D01*
X128377105Y-38538924D01*
X128379220Y-38412636D01*
X128375482Y-38251477D01*
X128358870Y-38146579D01*
X128321288Y-38069674D01*
X128260699Y-37998784D01*
X128188560Y-37932254D01*
X128107429Y-37880405D01*
X128006222Y-37841463D01*
X127873853Y-37813655D01*
X127699238Y-37795209D01*
X127471291Y-37784350D01*
X127178928Y-37779307D01*
X126882058Y-37778267D01*
X125945053Y-37778267D01*
X124590387Y-37778267D01*
X124590387Y-36843267D01*
X126717637Y-36856144D01*
X126717637Y-36856144D01*
G37*
X126717637Y-36856144D02*
X127225647Y-36859237D01*
X127656514Y-36862584D01*
X128017757Y-36867253D01*
X128316897Y-36874314D01*
X128561453Y-36884837D01*
X128758944Y-36899890D01*
X128916890Y-36920544D01*
X129042810Y-36947868D01*
X129144225Y-36982931D01*
X129228654Y-37026803D01*
X129303617Y-37080554D01*
X129376633Y-37145252D01*
X129455221Y-37221968D01*
X129483007Y-37249460D01*
X129650886Y-37445977D01*
X129760984Y-37656019D01*
X129821271Y-37900912D01*
X129839719Y-38201979D01*
X129839720Y-38203819D01*
X129812014Y-38545856D01*
X129726857Y-38829104D01*
X129581188Y-39059659D01*
X129371947Y-39243619D01*
X129293331Y-39292346D01*
X129090929Y-39408100D01*
X129254017Y-39485842D01*
X129404263Y-39597332D01*
X129540165Y-39772528D01*
X129646697Y-39990471D01*
X129673764Y-40071283D01*
X129692717Y-40167164D01*
X129713981Y-40326059D01*
X129735043Y-40526452D01*
X129753390Y-40746826D01*
X129754530Y-40762767D01*
X129784202Y-41091698D01*
X129823777Y-41356555D01*
X129877114Y-41577716D01*
X129944994Y-41768184D01*
X129950785Y-41795091D01*
X129934960Y-41814579D01*
X129886386Y-41827833D01*
X129793928Y-41836040D01*
X129646452Y-41840385D01*
X129432823Y-41842055D01*
X129249422Y-41842267D01*
X128523066Y-41842267D01*
X128466776Y-41704684D01*
X128442456Y-41609141D01*
X128417977Y-41451050D01*
X128396206Y-41252472D01*
X128380150Y-41037934D01*
X128360682Y-40764947D01*
X128331204Y-40543351D01*
X128283433Y-40367806D01*
X128209086Y-40232971D01*
X128099877Y-40133507D01*
X127947525Y-40064073D01*
X127743746Y-40019330D01*
X127480256Y-39993938D01*
X127148771Y-39982557D01*
X126741009Y-39979846D01*
X126738803Y-39979845D01*
X125945053Y-39979600D01*
X125945053Y-41884600D01*
X124590387Y-41884600D01*
X124590387Y-37778267D01*
X125945053Y-37778267D01*
X125945053Y-39048267D01*
X126920080Y-39048267D01*
X127266107Y-39046836D01*
X127536665Y-39042224D01*
X127740908Y-39033954D01*
X127887991Y-39021546D01*
X127987068Y-39004524D01*
X128031330Y-38990223D01*
X128157925Y-38916036D01*
X128272452Y-38818488D01*
X128273387Y-38817479D01*
X128331545Y-38742616D01*
X128363700Y-38659013D01*
X128377105Y-38538924D01*
X128379220Y-38412636D01*
X128375482Y-38251477D01*
X128358870Y-38146579D01*
X128321288Y-38069674D01*
X128260699Y-37998784D01*
X128188560Y-37932254D01*
X128107429Y-37880405D01*
X128006222Y-37841463D01*
X127873853Y-37813655D01*
X127699238Y-37795209D01*
X127471291Y-37784350D01*
X127178928Y-37779307D01*
X126882058Y-37778267D01*
X125945053Y-37778267D01*
X124590387Y-37778267D01*
X124590387Y-36843267D01*
X126717637Y-36856144D01*
G36*
X99017738Y-39249350D02*
G01*
X99206812Y-39679361D01*
X99386454Y-40087591D01*
X99553662Y-40467240D01*
X99705433Y-40811508D01*
X99838767Y-41113593D01*
X99950660Y-41366694D01*
X100038111Y-41564011D01*
X100098117Y-41698742D01*
X100127675Y-41764087D01*
X100129645Y-41768184D01*
X100137936Y-41794811D01*
X100124603Y-41814180D01*
X100078724Y-41827436D01*
X99989377Y-41835725D01*
X99845640Y-41840193D01*
X99636592Y-41841987D01*
X99423661Y-41842267D01*
X98680291Y-41842267D01*
X98637108Y-41725850D01*
X98603256Y-41636045D01*
X98548148Y-41491384D01*
X98480995Y-41316007D01*
X98443281Y-41217850D01*
X98292639Y-40826267D01*
X95951887Y-40827279D01*
X95539289Y-41842267D01*
X94799142Y-41842267D01*
X94521928Y-41840958D01*
X94320385Y-41836593D01*
X94185550Y-41828511D01*
X94108461Y-41816051D01*
X94080157Y-41798554D01*
X94080740Y-41789350D01*
X94102148Y-41740030D01*
X94154048Y-41621650D01*
X94232739Y-41442604D01*
X94334520Y-41211287D01*
X94455688Y-40936094D01*
X94592544Y-40625418D01*
X94741385Y-40287654D01*
X94898510Y-39931198D01*
X94900500Y-39926684D01*
X96354457Y-39926684D01*
X96394469Y-39930012D01*
X96506017Y-39932911D01*
X96675972Y-39935204D01*
X96891203Y-39936715D01*
X97138580Y-39937267D01*
X97141749Y-39937267D01*
X97417960Y-39936767D01*
X97620298Y-39934566D01*
X97759554Y-39929613D01*
X97846518Y-39920857D01*
X97891983Y-39907247D01*
X97906740Y-39887731D01*
X97902297Y-39863184D01*
X97841637Y-39702176D01*
X97763633Y-39501873D01*
X97673398Y-39274704D01*
X97576045Y-39033095D01*
X97476688Y-38789475D01*
X97380439Y-38556271D01*
X97292413Y-38345912D01*
X97217723Y-38170824D01*
X97161483Y-38043436D01*
X97128805Y-37976176D01*
X97122921Y-37968954D01*
X97104189Y-38010559D01*
X97060050Y-38118002D01*
X96995655Y-38278162D01*
X96916155Y-38477916D01*
X96826701Y-38704142D01*
X96732443Y-38943719D01*
X96638532Y-39183524D01*
X96550118Y-39410437D01*
X96472353Y-39611334D01*
X96410387Y-39773093D01*
X96369371Y-39882594D01*
X96354457Y-39926684D01*
X94900500Y-39926684D01*
X95060218Y-39564443D01*
X95222807Y-39195783D01*
X95382576Y-38833615D01*
X95535823Y-38486331D01*
X95678848Y-38162326D01*
X95807948Y-37869995D01*
X95919422Y-37617733D01*
X96009570Y-37413934D01*
X96074689Y-37266992D01*
X96087338Y-37238517D01*
X96280257Y-36804600D01*
X97943218Y-36804600D01*
X99017738Y-39249350D01*
X99017738Y-39249350D01*
G37*
X99017738Y-39249350D02*
X99206812Y-39679361D01*
X99386454Y-40087591D01*
X99553662Y-40467240D01*
X99705433Y-40811508D01*
X99838767Y-41113593D01*
X99950660Y-41366694D01*
X100038111Y-41564011D01*
X100098117Y-41698742D01*
X100127675Y-41764087D01*
X100129645Y-41768184D01*
X100137936Y-41794811D01*
X100124603Y-41814180D01*
X100078724Y-41827436D01*
X99989377Y-41835725D01*
X99845640Y-41840193D01*
X99636592Y-41841987D01*
X99423661Y-41842267D01*
X98680291Y-41842267D01*
X98637108Y-41725850D01*
X98603256Y-41636045D01*
X98548148Y-41491384D01*
X98480995Y-41316007D01*
X98443281Y-41217850D01*
X98292639Y-40826267D01*
X95951887Y-40827279D01*
X95539289Y-41842267D01*
X94799142Y-41842267D01*
X94521928Y-41840958D01*
X94320385Y-41836593D01*
X94185550Y-41828511D01*
X94108461Y-41816051D01*
X94080157Y-41798554D01*
X94080740Y-41789350D01*
X94102148Y-41740030D01*
X94154048Y-41621650D01*
X94232739Y-41442604D01*
X94334520Y-41211287D01*
X94455688Y-40936094D01*
X94592544Y-40625418D01*
X94741385Y-40287654D01*
X94898510Y-39931198D01*
X94900500Y-39926684D01*
X96354457Y-39926684D01*
X96394469Y-39930012D01*
X96506017Y-39932911D01*
X96675972Y-39935204D01*
X96891203Y-39936715D01*
X97138580Y-39937267D01*
X97141749Y-39937267D01*
X97417960Y-39936767D01*
X97620298Y-39934566D01*
X97759554Y-39929613D01*
X97846518Y-39920857D01*
X97891983Y-39907247D01*
X97906740Y-39887731D01*
X97902297Y-39863184D01*
X97841637Y-39702176D01*
X97763633Y-39501873D01*
X97673398Y-39274704D01*
X97576045Y-39033095D01*
X97476688Y-38789475D01*
X97380439Y-38556271D01*
X97292413Y-38345912D01*
X97217723Y-38170824D01*
X97161483Y-38043436D01*
X97128805Y-37976176D01*
X97122921Y-37968954D01*
X97104189Y-38010559D01*
X97060050Y-38118002D01*
X96995655Y-38278162D01*
X96916155Y-38477916D01*
X96826701Y-38704142D01*
X96732443Y-38943719D01*
X96638532Y-39183524D01*
X96550118Y-39410437D01*
X96472353Y-39611334D01*
X96410387Y-39773093D01*
X96369371Y-39882594D01*
X96354457Y-39926684D01*
X94900500Y-39926684D01*
X95060218Y-39564443D01*
X95222807Y-39195783D01*
X95382576Y-38833615D01*
X95535823Y-38486331D01*
X95678848Y-38162326D01*
X95807948Y-37869995D01*
X95919422Y-37617733D01*
X96009570Y-37413934D01*
X96074689Y-37266992D01*
X96087338Y-37238517D01*
X96280257Y-36804600D01*
X97943218Y-36804600D01*
X99017738Y-39249350D01*
G36*
X96735053Y-36508267D02*
G01*
X95507387Y-36508267D01*
X95507387Y-35661600D01*
X96735053Y-35661600D01*
X96735053Y-36508267D01*
X96735053Y-36508267D01*
G37*
X96735053Y-36508267D02*
X95507387Y-36508267D01*
X95507387Y-35661600D01*
X96735053Y-35661600D01*
X96735053Y-36508267D01*
G36*
X98770119Y-36508267D02*
G01*
X97493987Y-36508267D01*
X97506104Y-36095517D01*
X97518220Y-35682767D01*
X98745887Y-35682767D01*
X98770119Y-36508267D01*
X98770119Y-36508267D01*
G37*
X98770119Y-36508267D02*
X97493987Y-36508267D01*
X97506104Y-36095517D01*
X97518220Y-35682767D01*
X98745887Y-35682767D01*
X98770119Y-36508267D01*
D11*
M02*
