G04 #@! TF.GenerationSoftware,KiCad,Pcbnew,(5.1.2)-1*
G04 #@! TF.CreationDate,2019-05-15T15:41:14+02:00*
G04 #@! TF.ProjectId,frontplate-ctag,66726f6e-7470-46c6-9174-652d63746167,rev?*
G04 #@! TF.SameCoordinates,Original*
G04 #@! TF.FileFunction,Soldermask,Top*
G04 #@! TF.FilePolarity,Negative*
%FSLAX46Y46*%
G04 Gerber Fmt 4.6, Leading zero omitted, Abs format (unit mm)*
G04 Created by KiCad (PCBNEW (5.1.2)-1) date 2019-05-15 15:41:14*
%MOMM*%
%LPD*%
G04 APERTURE LIST*
%ADD10C,0.010000*%
%ADD11C,7.600000*%
%ADD12C,7.600001*%
%ADD13C,6.600000*%
%ADD14C,6.600001*%
%ADD15C,3.800000*%
G04 APERTURE END LIST*
D10*
G36*
X159007387Y-100685600D02*
G01*
X134962053Y-100685600D01*
X134962053Y-115502267D01*
X144603470Y-115502893D01*
X145684403Y-115502921D01*
X146683991Y-115502913D01*
X147605554Y-115502942D01*
X148452413Y-115503086D01*
X149227890Y-115503419D01*
X149935305Y-115504017D01*
X150577979Y-115504957D01*
X151159233Y-115506313D01*
X151682389Y-115508161D01*
X152150767Y-115510578D01*
X152567687Y-115513638D01*
X152936472Y-115517417D01*
X153260442Y-115521992D01*
X153542918Y-115527438D01*
X153787221Y-115533830D01*
X153996672Y-115541245D01*
X154174592Y-115549757D01*
X154324302Y-115559443D01*
X154449122Y-115570379D01*
X154552375Y-115582639D01*
X154637380Y-115596300D01*
X154707459Y-115611438D01*
X154765933Y-115628128D01*
X154816123Y-115646445D01*
X154861349Y-115666466D01*
X154904933Y-115688266D01*
X154950196Y-115711922D01*
X155000458Y-115737507D01*
X155005508Y-115739990D01*
X155332613Y-115945262D01*
X155623466Y-116217390D01*
X155866150Y-116542138D01*
X156048746Y-116905267D01*
X156098432Y-117045676D01*
X156192220Y-117343767D01*
X156192220Y-153242434D01*
X156098432Y-153540525D01*
X155931418Y-153936175D01*
X155697705Y-154284384D01*
X155404587Y-154578357D01*
X155059356Y-154811301D01*
X154669306Y-154976424D01*
X154509904Y-155020198D01*
X154445366Y-155025459D01*
X154299505Y-155030505D01*
X154075642Y-155035337D01*
X153777095Y-155039954D01*
X153407184Y-155044356D01*
X152969230Y-155048545D01*
X152466552Y-155052519D01*
X151902469Y-155056280D01*
X151280302Y-155059827D01*
X150603370Y-155063161D01*
X149874992Y-155066281D01*
X149098489Y-155069188D01*
X148277179Y-155071882D01*
X147414384Y-155074363D01*
X146513422Y-155076632D01*
X145577613Y-155078688D01*
X144610277Y-155080532D01*
X143614734Y-155082164D01*
X142594303Y-155083584D01*
X141552303Y-155084793D01*
X140492056Y-155085790D01*
X139416880Y-155086575D01*
X138330094Y-155087149D01*
X137235020Y-155087513D01*
X136134976Y-155087665D01*
X135033282Y-155087607D01*
X133933258Y-155087338D01*
X132838224Y-155086859D01*
X131751498Y-155086170D01*
X130676402Y-155085271D01*
X129616254Y-155084162D01*
X128574375Y-155082843D01*
X127554083Y-155081315D01*
X126558699Y-155079578D01*
X125591543Y-155077632D01*
X124655933Y-155075476D01*
X123755191Y-155073113D01*
X122892635Y-155070540D01*
X122071585Y-155067759D01*
X121295361Y-155064770D01*
X120567283Y-155061573D01*
X119890669Y-155058168D01*
X119268841Y-155054555D01*
X118705118Y-155050735D01*
X118202818Y-155046708D01*
X117765263Y-155042473D01*
X117395772Y-155038032D01*
X117097664Y-155033383D01*
X116874259Y-155028528D01*
X116728877Y-155023467D01*
X116664837Y-155018199D01*
X116664809Y-155018192D01*
X116266712Y-154879491D01*
X115907907Y-154669754D01*
X115596582Y-154396692D01*
X115340926Y-154068014D01*
X115149124Y-153691431D01*
X115095674Y-153540525D01*
X115001887Y-153242434D01*
X115001887Y-153122723D01*
X116335090Y-153122723D01*
X116432136Y-153306240D01*
X116513460Y-153434606D01*
X116603743Y-153541364D01*
X116635816Y-153569370D01*
X116655205Y-153585306D01*
X116671060Y-153600371D01*
X116685720Y-153614588D01*
X116701527Y-153627980D01*
X116720823Y-153640572D01*
X116745947Y-153652387D01*
X116779242Y-153663447D01*
X116823049Y-153673777D01*
X116879709Y-153683399D01*
X116951562Y-153692337D01*
X117040951Y-153700614D01*
X117150215Y-153708254D01*
X117281698Y-153715281D01*
X117437739Y-153721716D01*
X117620679Y-153727585D01*
X117832861Y-153732909D01*
X118076625Y-153737713D01*
X118354312Y-153742020D01*
X118668263Y-153745853D01*
X119020820Y-153749236D01*
X119414324Y-153752192D01*
X119851115Y-153754745D01*
X120333536Y-153756917D01*
X120863927Y-153758732D01*
X121444629Y-153760213D01*
X122077984Y-153761385D01*
X122766333Y-153762269D01*
X123512016Y-153762890D01*
X124317376Y-153763272D01*
X125184753Y-153763436D01*
X126116488Y-153763407D01*
X127114923Y-153763208D01*
X128182398Y-153762863D01*
X129321255Y-153762394D01*
X130533836Y-153761826D01*
X131822480Y-153761181D01*
X133189530Y-153760483D01*
X134637327Y-153759755D01*
X135660553Y-153759259D01*
X154244887Y-153750434D01*
X154424756Y-153654347D01*
X154562019Y-153556189D01*
X154688598Y-153426418D01*
X154721089Y-153382272D01*
X154837553Y-153206283D01*
X154837553Y-117379917D01*
X154721089Y-117203928D01*
X154609413Y-117073526D01*
X154470390Y-116959437D01*
X154424756Y-116931853D01*
X154244887Y-116835767D01*
X116949220Y-116835767D01*
X116769350Y-116931853D01*
X116632087Y-117030011D01*
X116505508Y-117159782D01*
X116473017Y-117203927D01*
X116356553Y-117379915D01*
X116345822Y-135251319D01*
X116335090Y-153122723D01*
X115001887Y-153122723D01*
X115001887Y-117343767D01*
X115095674Y-117045676D01*
X115259973Y-116656377D01*
X115491074Y-116308942D01*
X115780186Y-116013905D01*
X116118514Y-115781798D01*
X116176202Y-115751419D01*
X116231678Y-115722514D01*
X116281499Y-115695942D01*
X116329255Y-115671604D01*
X116378537Y-115649401D01*
X116432935Y-115629237D01*
X116496041Y-115611012D01*
X116571443Y-115594629D01*
X116662732Y-115579989D01*
X116773500Y-115566996D01*
X116907335Y-115555550D01*
X117067830Y-115545554D01*
X117258573Y-115536909D01*
X117483155Y-115529518D01*
X117745168Y-115523282D01*
X118048201Y-115518104D01*
X118395844Y-115513885D01*
X118791688Y-115510528D01*
X119239324Y-115507935D01*
X119742342Y-115506006D01*
X120304331Y-115504645D01*
X120928884Y-115503753D01*
X121619589Y-115503233D01*
X122380038Y-115502986D01*
X123213820Y-115502914D01*
X124124527Y-115502919D01*
X125115748Y-115502903D01*
X125278303Y-115502893D01*
X133607387Y-115502267D01*
X133607387Y-100685600D01*
X47628387Y-100685600D01*
X47628387Y-99119267D01*
X159007387Y-99119267D01*
X159007387Y-100685600D01*
X159007387Y-100685600D01*
G37*
X159007387Y-100685600D02*
X134962053Y-100685600D01*
X134962053Y-115502267D01*
X144603470Y-115502893D01*
X145684403Y-115502921D01*
X146683991Y-115502913D01*
X147605554Y-115502942D01*
X148452413Y-115503086D01*
X149227890Y-115503419D01*
X149935305Y-115504017D01*
X150577979Y-115504957D01*
X151159233Y-115506313D01*
X151682389Y-115508161D01*
X152150767Y-115510578D01*
X152567687Y-115513638D01*
X152936472Y-115517417D01*
X153260442Y-115521992D01*
X153542918Y-115527438D01*
X153787221Y-115533830D01*
X153996672Y-115541245D01*
X154174592Y-115549757D01*
X154324302Y-115559443D01*
X154449122Y-115570379D01*
X154552375Y-115582639D01*
X154637380Y-115596300D01*
X154707459Y-115611438D01*
X154765933Y-115628128D01*
X154816123Y-115646445D01*
X154861349Y-115666466D01*
X154904933Y-115688266D01*
X154950196Y-115711922D01*
X155000458Y-115737507D01*
X155005508Y-115739990D01*
X155332613Y-115945262D01*
X155623466Y-116217390D01*
X155866150Y-116542138D01*
X156048746Y-116905267D01*
X156098432Y-117045676D01*
X156192220Y-117343767D01*
X156192220Y-153242434D01*
X156098432Y-153540525D01*
X155931418Y-153936175D01*
X155697705Y-154284384D01*
X155404587Y-154578357D01*
X155059356Y-154811301D01*
X154669306Y-154976424D01*
X154509904Y-155020198D01*
X154445366Y-155025459D01*
X154299505Y-155030505D01*
X154075642Y-155035337D01*
X153777095Y-155039954D01*
X153407184Y-155044356D01*
X152969230Y-155048545D01*
X152466552Y-155052519D01*
X151902469Y-155056280D01*
X151280302Y-155059827D01*
X150603370Y-155063161D01*
X149874992Y-155066281D01*
X149098489Y-155069188D01*
X148277179Y-155071882D01*
X147414384Y-155074363D01*
X146513422Y-155076632D01*
X145577613Y-155078688D01*
X144610277Y-155080532D01*
X143614734Y-155082164D01*
X142594303Y-155083584D01*
X141552303Y-155084793D01*
X140492056Y-155085790D01*
X139416880Y-155086575D01*
X138330094Y-155087149D01*
X137235020Y-155087513D01*
X136134976Y-155087665D01*
X135033282Y-155087607D01*
X133933258Y-155087338D01*
X132838224Y-155086859D01*
X131751498Y-155086170D01*
X130676402Y-155085271D01*
X129616254Y-155084162D01*
X128574375Y-155082843D01*
X127554083Y-155081315D01*
X126558699Y-155079578D01*
X125591543Y-155077632D01*
X124655933Y-155075476D01*
X123755191Y-155073113D01*
X122892635Y-155070540D01*
X122071585Y-155067759D01*
X121295361Y-155064770D01*
X120567283Y-155061573D01*
X119890669Y-155058168D01*
X119268841Y-155054555D01*
X118705118Y-155050735D01*
X118202818Y-155046708D01*
X117765263Y-155042473D01*
X117395772Y-155038032D01*
X117097664Y-155033383D01*
X116874259Y-155028528D01*
X116728877Y-155023467D01*
X116664837Y-155018199D01*
X116664809Y-155018192D01*
X116266712Y-154879491D01*
X115907907Y-154669754D01*
X115596582Y-154396692D01*
X115340926Y-154068014D01*
X115149124Y-153691431D01*
X115095674Y-153540525D01*
X115001887Y-153242434D01*
X115001887Y-153122723D01*
X116335090Y-153122723D01*
X116432136Y-153306240D01*
X116513460Y-153434606D01*
X116603743Y-153541364D01*
X116635816Y-153569370D01*
X116655205Y-153585306D01*
X116671060Y-153600371D01*
X116685720Y-153614588D01*
X116701527Y-153627980D01*
X116720823Y-153640572D01*
X116745947Y-153652387D01*
X116779242Y-153663447D01*
X116823049Y-153673777D01*
X116879709Y-153683399D01*
X116951562Y-153692337D01*
X117040951Y-153700614D01*
X117150215Y-153708254D01*
X117281698Y-153715281D01*
X117437739Y-153721716D01*
X117620679Y-153727585D01*
X117832861Y-153732909D01*
X118076625Y-153737713D01*
X118354312Y-153742020D01*
X118668263Y-153745853D01*
X119020820Y-153749236D01*
X119414324Y-153752192D01*
X119851115Y-153754745D01*
X120333536Y-153756917D01*
X120863927Y-153758732D01*
X121444629Y-153760213D01*
X122077984Y-153761385D01*
X122766333Y-153762269D01*
X123512016Y-153762890D01*
X124317376Y-153763272D01*
X125184753Y-153763436D01*
X126116488Y-153763407D01*
X127114923Y-153763208D01*
X128182398Y-153762863D01*
X129321255Y-153762394D01*
X130533836Y-153761826D01*
X131822480Y-153761181D01*
X133189530Y-153760483D01*
X134637327Y-153759755D01*
X135660553Y-153759259D01*
X154244887Y-153750434D01*
X154424756Y-153654347D01*
X154562019Y-153556189D01*
X154688598Y-153426418D01*
X154721089Y-153382272D01*
X154837553Y-153206283D01*
X154837553Y-117379917D01*
X154721089Y-117203928D01*
X154609413Y-117073526D01*
X154470390Y-116959437D01*
X154424756Y-116931853D01*
X154244887Y-116835767D01*
X116949220Y-116835767D01*
X116769350Y-116931853D01*
X116632087Y-117030011D01*
X116505508Y-117159782D01*
X116473017Y-117203927D01*
X116356553Y-117379915D01*
X116345822Y-135251319D01*
X116335090Y-153122723D01*
X115001887Y-153122723D01*
X115001887Y-117343767D01*
X115095674Y-117045676D01*
X115259973Y-116656377D01*
X115491074Y-116308942D01*
X115780186Y-116013905D01*
X116118514Y-115781798D01*
X116176202Y-115751419D01*
X116231678Y-115722514D01*
X116281499Y-115695942D01*
X116329255Y-115671604D01*
X116378537Y-115649401D01*
X116432935Y-115629237D01*
X116496041Y-115611012D01*
X116571443Y-115594629D01*
X116662732Y-115579989D01*
X116773500Y-115566996D01*
X116907335Y-115555550D01*
X117067830Y-115545554D01*
X117258573Y-115536909D01*
X117483155Y-115529518D01*
X117745168Y-115523282D01*
X118048201Y-115518104D01*
X118395844Y-115513885D01*
X118791688Y-115510528D01*
X119239324Y-115507935D01*
X119742342Y-115506006D01*
X120304331Y-115504645D01*
X120928884Y-115503753D01*
X121619589Y-115503233D01*
X122380038Y-115502986D01*
X123213820Y-115502914D01*
X124124527Y-115502919D01*
X125115748Y-115502903D01*
X125278303Y-115502893D01*
X133607387Y-115502267D01*
X133607387Y-100685600D01*
X47628387Y-100685600D01*
X47628387Y-99119267D01*
X159007387Y-99119267D01*
X159007387Y-100685600D01*
G36*
X106659456Y-149688159D02*
G01*
X106878588Y-149806924D01*
X106947970Y-149865933D01*
X107064387Y-149977441D01*
X107063457Y-150826770D01*
X107059972Y-151184359D01*
X107047962Y-151468158D01*
X107023787Y-151688908D01*
X106983806Y-151857343D01*
X106924379Y-151984203D01*
X106841865Y-152080223D01*
X106732624Y-152156143D01*
X106593016Y-152222698D01*
X106589710Y-152224082D01*
X106376107Y-152283692D01*
X106116919Y-152310627D01*
X105845745Y-152302182D01*
X105758261Y-152291000D01*
X105591682Y-152258176D01*
X105499356Y-152215432D01*
X105470927Y-152149778D01*
X105496037Y-152048226D01*
X105519900Y-151992092D01*
X105576993Y-151883746D01*
X105628489Y-151840372D01*
X105685713Y-151843605D01*
X105949087Y-151896128D01*
X106178930Y-151896085D01*
X106364468Y-151845630D01*
X106494933Y-151746920D01*
X106539317Y-151672825D01*
X106578266Y-151576459D01*
X106598085Y-151521267D01*
X106598720Y-151517887D01*
X106559939Y-151513689D01*
X106457503Y-151514334D01*
X106312275Y-151519625D01*
X106287938Y-151520815D01*
X106102276Y-151524442D01*
X105968054Y-151509669D01*
X105853137Y-151471663D01*
X105803557Y-151447945D01*
X105604376Y-151301777D01*
X105458225Y-151103001D01*
X105368108Y-150867310D01*
X105340618Y-150640089D01*
X105846373Y-150640089D01*
X105848127Y-150670027D01*
X105895095Y-150884595D01*
X105994773Y-151036704D01*
X106140252Y-151121538D01*
X106324626Y-151134278D01*
X106465403Y-151100459D01*
X106598720Y-151053984D01*
X106598720Y-150134913D01*
X106446711Y-150092941D01*
X106246526Y-150073639D01*
X106077383Y-150127396D01*
X105948299Y-150245518D01*
X105868290Y-150419313D01*
X105846373Y-150640089D01*
X105340618Y-150640089D01*
X105337025Y-150610400D01*
X105367978Y-150347968D01*
X105463968Y-150095707D01*
X105525653Y-149994752D01*
X105695817Y-149818964D01*
X105912784Y-149698735D01*
X106158049Y-149635741D01*
X106413108Y-149631657D01*
X106659456Y-149688159D01*
X106659456Y-149688159D01*
G37*
X106659456Y-149688159D02*
X106878588Y-149806924D01*
X106947970Y-149865933D01*
X107064387Y-149977441D01*
X107063457Y-150826770D01*
X107059972Y-151184359D01*
X107047962Y-151468158D01*
X107023787Y-151688908D01*
X106983806Y-151857343D01*
X106924379Y-151984203D01*
X106841865Y-152080223D01*
X106732624Y-152156143D01*
X106593016Y-152222698D01*
X106589710Y-152224082D01*
X106376107Y-152283692D01*
X106116919Y-152310627D01*
X105845745Y-152302182D01*
X105758261Y-152291000D01*
X105591682Y-152258176D01*
X105499356Y-152215432D01*
X105470927Y-152149778D01*
X105496037Y-152048226D01*
X105519900Y-151992092D01*
X105576993Y-151883746D01*
X105628489Y-151840372D01*
X105685713Y-151843605D01*
X105949087Y-151896128D01*
X106178930Y-151896085D01*
X106364468Y-151845630D01*
X106494933Y-151746920D01*
X106539317Y-151672825D01*
X106578266Y-151576459D01*
X106598085Y-151521267D01*
X106598720Y-151517887D01*
X106559939Y-151513689D01*
X106457503Y-151514334D01*
X106312275Y-151519625D01*
X106287938Y-151520815D01*
X106102276Y-151524442D01*
X105968054Y-151509669D01*
X105853137Y-151471663D01*
X105803557Y-151447945D01*
X105604376Y-151301777D01*
X105458225Y-151103001D01*
X105368108Y-150867310D01*
X105340618Y-150640089D01*
X105846373Y-150640089D01*
X105848127Y-150670027D01*
X105895095Y-150884595D01*
X105994773Y-151036704D01*
X106140252Y-151121538D01*
X106324626Y-151134278D01*
X106465403Y-151100459D01*
X106598720Y-151053984D01*
X106598720Y-150134913D01*
X106446711Y-150092941D01*
X106246526Y-150073639D01*
X106077383Y-150127396D01*
X105948299Y-150245518D01*
X105868290Y-150419313D01*
X105846373Y-150640089D01*
X105340618Y-150640089D01*
X105337025Y-150610400D01*
X105367978Y-150347968D01*
X105463968Y-150095707D01*
X105525653Y-149994752D01*
X105695817Y-149818964D01*
X105912784Y-149698735D01*
X106158049Y-149635741D01*
X106413108Y-149631657D01*
X106659456Y-149688159D01*
G36*
X99135647Y-149017272D02*
G01*
X99347002Y-149130250D01*
X99522762Y-149310578D01*
X99658413Y-149551737D01*
X99749444Y-149847208D01*
X99791343Y-150190472D01*
X99793586Y-150279100D01*
X99769968Y-150663151D01*
X99693899Y-150989727D01*
X99566937Y-151255316D01*
X99390642Y-151456407D01*
X99223158Y-151564649D01*
X98990462Y-151641558D01*
X98765240Y-151637874D01*
X98573558Y-151574804D01*
X98355489Y-151430087D01*
X98183754Y-151216926D01*
X98060390Y-150939029D01*
X97987432Y-150600106D01*
X97975523Y-150485166D01*
X97974564Y-150282000D01*
X98472578Y-150282000D01*
X98487390Y-150594540D01*
X98532906Y-150850813D01*
X98605822Y-151046049D01*
X98702837Y-151175480D01*
X98820646Y-151234340D01*
X98955946Y-151217860D01*
X99072892Y-151148543D01*
X99173041Y-151019425D01*
X99242906Y-150816501D01*
X99280854Y-150545637D01*
X99287455Y-150377744D01*
X99275263Y-150032755D01*
X99230190Y-149764823D01*
X99151738Y-149572777D01*
X99039406Y-149455442D01*
X98892696Y-149411647D01*
X98875684Y-149411267D01*
X98725680Y-149449075D01*
X98610600Y-149562774D01*
X98530255Y-149752776D01*
X98484452Y-150019494D01*
X98472578Y-150282000D01*
X97974564Y-150282000D01*
X97973836Y-150128065D01*
X98025288Y-149805056D01*
X98125061Y-149524051D01*
X98268335Y-149292965D01*
X98450291Y-149119712D01*
X98666110Y-149012205D01*
X98893207Y-148978164D01*
X99135647Y-149017272D01*
X99135647Y-149017272D01*
G37*
X99135647Y-149017272D02*
X99347002Y-149130250D01*
X99522762Y-149310578D01*
X99658413Y-149551737D01*
X99749444Y-149847208D01*
X99791343Y-150190472D01*
X99793586Y-150279100D01*
X99769968Y-150663151D01*
X99693899Y-150989727D01*
X99566937Y-151255316D01*
X99390642Y-151456407D01*
X99223158Y-151564649D01*
X98990462Y-151641558D01*
X98765240Y-151637874D01*
X98573558Y-151574804D01*
X98355489Y-151430087D01*
X98183754Y-151216926D01*
X98060390Y-150939029D01*
X97987432Y-150600106D01*
X97975523Y-150485166D01*
X97974564Y-150282000D01*
X98472578Y-150282000D01*
X98487390Y-150594540D01*
X98532906Y-150850813D01*
X98605822Y-151046049D01*
X98702837Y-151175480D01*
X98820646Y-151234340D01*
X98955946Y-151217860D01*
X99072892Y-151148543D01*
X99173041Y-151019425D01*
X99242906Y-150816501D01*
X99280854Y-150545637D01*
X99287455Y-150377744D01*
X99275263Y-150032755D01*
X99230190Y-149764823D01*
X99151738Y-149572777D01*
X99039406Y-149455442D01*
X98892696Y-149411647D01*
X98875684Y-149411267D01*
X98725680Y-149449075D01*
X98610600Y-149562774D01*
X98530255Y-149752776D01*
X98484452Y-150019494D01*
X98472578Y-150282000D01*
X97974564Y-150282000D01*
X97973836Y-150128065D01*
X98025288Y-149805056D01*
X98125061Y-149524051D01*
X98268335Y-149292965D01*
X98450291Y-149119712D01*
X98666110Y-149012205D01*
X98893207Y-148978164D01*
X99135647Y-149017272D01*
G36*
X101763917Y-149357826D02*
G01*
X101776281Y-149665267D01*
X102534720Y-149665267D01*
X102534720Y-150088600D01*
X101772720Y-150088600D01*
X101772720Y-150554267D01*
X101774476Y-150764321D01*
X101781518Y-150907241D01*
X101796509Y-151000521D01*
X101822111Y-151061651D01*
X101856310Y-151103523D01*
X101980916Y-151189905D01*
X102129879Y-151213548D01*
X102322000Y-151177288D01*
X102329935Y-151174909D01*
X102527316Y-151115114D01*
X102575257Y-151305507D01*
X102601163Y-151420046D01*
X102612204Y-151493454D01*
X102610709Y-151506182D01*
X102489213Y-151568515D01*
X102315089Y-151613207D01*
X102119238Y-151636463D01*
X101932560Y-151634486D01*
X101793887Y-151606536D01*
X101674474Y-151544606D01*
X101554435Y-151456773D01*
X101545256Y-151448569D01*
X101473496Y-151377929D01*
X101417737Y-151305393D01*
X101375977Y-151219572D01*
X101346215Y-151109075D01*
X101326449Y-150962515D01*
X101314677Y-150768503D01*
X101308899Y-150515648D01*
X101307111Y-150192562D01*
X101307053Y-150093189D01*
X101307053Y-149121391D01*
X101529303Y-149085889D01*
X101751553Y-149050386D01*
X101763917Y-149357826D01*
X101763917Y-149357826D01*
G37*
X101763917Y-149357826D02*
X101776281Y-149665267D01*
X102534720Y-149665267D01*
X102534720Y-150088600D01*
X101772720Y-150088600D01*
X101772720Y-150554267D01*
X101774476Y-150764321D01*
X101781518Y-150907241D01*
X101796509Y-151000521D01*
X101822111Y-151061651D01*
X101856310Y-151103523D01*
X101980916Y-151189905D01*
X102129879Y-151213548D01*
X102322000Y-151177288D01*
X102329935Y-151174909D01*
X102527316Y-151115114D01*
X102575257Y-151305507D01*
X102601163Y-151420046D01*
X102612204Y-151493454D01*
X102610709Y-151506182D01*
X102489213Y-151568515D01*
X102315089Y-151613207D01*
X102119238Y-151636463D01*
X101932560Y-151634486D01*
X101793887Y-151606536D01*
X101674474Y-151544606D01*
X101554435Y-151456773D01*
X101545256Y-151448569D01*
X101473496Y-151377929D01*
X101417737Y-151305393D01*
X101375977Y-151219572D01*
X101346215Y-151109075D01*
X101326449Y-150962515D01*
X101314677Y-150768503D01*
X101308899Y-150515648D01*
X101307111Y-150192562D01*
X101307053Y-150093189D01*
X101307053Y-149121391D01*
X101529303Y-149085889D01*
X101751553Y-149050386D01*
X101763917Y-149357826D01*
G36*
X59058387Y-151144513D02*
G01*
X59185585Y-151177473D01*
X59267812Y-151204348D01*
X59306964Y-151245236D01*
X59312278Y-151323593D01*
X59294438Y-151453850D01*
X59268111Y-151551554D01*
X59217733Y-151601503D01*
X59127193Y-151608046D01*
X58980375Y-151575532D01*
X58914718Y-151556336D01*
X58782674Y-151493029D01*
X58672967Y-151402333D01*
X58660718Y-151387241D01*
X58635099Y-151349409D01*
X58614757Y-151305621D01*
X58598949Y-151245996D01*
X58586938Y-151160650D01*
X58577981Y-151039700D01*
X58571340Y-150873264D01*
X58566275Y-150651460D01*
X58562044Y-150364404D01*
X58558062Y-150016526D01*
X58555779Y-149698905D01*
X58555881Y-149408781D01*
X58558190Y-149156940D01*
X58562527Y-148954169D01*
X58568715Y-148811252D01*
X58576576Y-148738975D01*
X58579229Y-148732685D01*
X58638156Y-148709098D01*
X58751394Y-148683991D01*
X58836137Y-148670771D01*
X59058387Y-148641322D01*
X59058387Y-151144513D01*
X59058387Y-151144513D01*
G37*
X59058387Y-151144513D02*
X59185585Y-151177473D01*
X59267812Y-151204348D01*
X59306964Y-151245236D01*
X59312278Y-151323593D01*
X59294438Y-151453850D01*
X59268111Y-151551554D01*
X59217733Y-151601503D01*
X59127193Y-151608046D01*
X58980375Y-151575532D01*
X58914718Y-151556336D01*
X58782674Y-151493029D01*
X58672967Y-151402333D01*
X58660718Y-151387241D01*
X58635099Y-151349409D01*
X58614757Y-151305621D01*
X58598949Y-151245996D01*
X58586938Y-151160650D01*
X58577981Y-151039700D01*
X58571340Y-150873264D01*
X58566275Y-150651460D01*
X58562044Y-150364404D01*
X58558062Y-150016526D01*
X58555779Y-149698905D01*
X58555881Y-149408781D01*
X58558190Y-149156940D01*
X58562527Y-148954169D01*
X58568715Y-148811252D01*
X58576576Y-148738975D01*
X58579229Y-148732685D01*
X58638156Y-148709098D01*
X58751394Y-148683991D01*
X58836137Y-148670771D01*
X59058387Y-148641322D01*
X59058387Y-151144513D01*
G36*
X76796053Y-149862928D02*
G01*
X76796403Y-150232542D01*
X76798349Y-150526219D01*
X76803237Y-150752685D01*
X76812410Y-150920670D01*
X76827215Y-151038902D01*
X76848996Y-151116107D01*
X76879098Y-151161016D01*
X76918865Y-151182356D01*
X76969644Y-151188855D01*
X77000430Y-151189267D01*
X77064030Y-151195841D01*
X77088058Y-151231001D01*
X77082343Y-151317904D01*
X77075083Y-151365146D01*
X77048289Y-151505175D01*
X77010831Y-151582652D01*
X76943132Y-151608773D01*
X76825611Y-151594739D01*
X76716596Y-151570181D01*
X76585652Y-151515238D01*
X76466150Y-151428942D01*
X76462596Y-151425443D01*
X76351553Y-151314456D01*
X76339237Y-150003028D01*
X76336023Y-149635059D01*
X76334342Y-149343018D01*
X76334617Y-149118171D01*
X76337269Y-148951786D01*
X76342723Y-148835131D01*
X76351401Y-148759473D01*
X76363724Y-148716080D01*
X76380117Y-148696220D01*
X76401001Y-148691160D01*
X76402737Y-148691134D01*
X76494370Y-148684055D01*
X76619363Y-148667321D01*
X76637303Y-148664429D01*
X76796053Y-148638189D01*
X76796053Y-149862928D01*
X76796053Y-149862928D01*
G37*
X76796053Y-149862928D02*
X76796403Y-150232542D01*
X76798349Y-150526219D01*
X76803237Y-150752685D01*
X76812410Y-150920670D01*
X76827215Y-151038902D01*
X76848996Y-151116107D01*
X76879098Y-151161016D01*
X76918865Y-151182356D01*
X76969644Y-151188855D01*
X77000430Y-151189267D01*
X77064030Y-151195841D01*
X77088058Y-151231001D01*
X77082343Y-151317904D01*
X77075083Y-151365146D01*
X77048289Y-151505175D01*
X77010831Y-151582652D01*
X76943132Y-151608773D01*
X76825611Y-151594739D01*
X76716596Y-151570181D01*
X76585652Y-151515238D01*
X76466150Y-151428942D01*
X76462596Y-151425443D01*
X76351553Y-151314456D01*
X76339237Y-150003028D01*
X76336023Y-149635059D01*
X76334342Y-149343018D01*
X76334617Y-149118171D01*
X76337269Y-148951786D01*
X76342723Y-148835131D01*
X76351401Y-148759473D01*
X76363724Y-148716080D01*
X76380117Y-148696220D01*
X76401001Y-148691160D01*
X76402737Y-148691134D01*
X76494370Y-148684055D01*
X76619363Y-148667321D01*
X76637303Y-148664429D01*
X76796053Y-148638189D01*
X76796053Y-149862928D01*
G36*
X79649137Y-149606804D02*
G01*
X79830858Y-149662957D01*
X80029065Y-149796188D01*
X80179054Y-149983840D01*
X80280459Y-150210489D01*
X80332917Y-150460711D01*
X80336062Y-150719081D01*
X80289528Y-150970174D01*
X80192953Y-151198566D01*
X80045969Y-151388832D01*
X79874610Y-151512493D01*
X79731830Y-151559359D01*
X79540550Y-151587250D01*
X79335215Y-151594172D01*
X79150273Y-151578130D01*
X79070558Y-151559068D01*
X78879132Y-151467870D01*
X78706753Y-151335078D01*
X78580342Y-151183242D01*
X78548515Y-151121834D01*
X78516480Y-150993221D01*
X78497033Y-150809466D01*
X78490473Y-150599195D01*
X78492136Y-150546902D01*
X78972620Y-150546902D01*
X78975383Y-150750056D01*
X79008718Y-150935023D01*
X79047361Y-151032905D01*
X79133891Y-151116591D01*
X79271959Y-151170404D01*
X79432010Y-151188816D01*
X79584492Y-151166297D01*
X79638753Y-151143526D01*
X79732463Y-151050170D01*
X79801975Y-150894288D01*
X79839585Y-150696398D01*
X79844053Y-150596600D01*
X79823759Y-150386244D01*
X79768010Y-150208429D01*
X79684509Y-150083673D01*
X79638753Y-150049674D01*
X79503926Y-150010667D01*
X79342972Y-150008320D01*
X79195663Y-150040431D01*
X79126951Y-150078017D01*
X79050486Y-150185913D01*
X78998348Y-150350531D01*
X78972620Y-150546902D01*
X78492136Y-150546902D01*
X78497096Y-150391036D01*
X78517198Y-150213616D01*
X78538195Y-150126667D01*
X78649944Y-149896008D01*
X78809177Y-149731060D01*
X79021168Y-149628406D01*
X79291193Y-149584631D01*
X79378387Y-149582460D01*
X79649137Y-149606804D01*
X79649137Y-149606804D01*
G37*
X79649137Y-149606804D02*
X79830858Y-149662957D01*
X80029065Y-149796188D01*
X80179054Y-149983840D01*
X80280459Y-150210489D01*
X80332917Y-150460711D01*
X80336062Y-150719081D01*
X80289528Y-150970174D01*
X80192953Y-151198566D01*
X80045969Y-151388832D01*
X79874610Y-151512493D01*
X79731830Y-151559359D01*
X79540550Y-151587250D01*
X79335215Y-151594172D01*
X79150273Y-151578130D01*
X79070558Y-151559068D01*
X78879132Y-151467870D01*
X78706753Y-151335078D01*
X78580342Y-151183242D01*
X78548515Y-151121834D01*
X78516480Y-150993221D01*
X78497033Y-150809466D01*
X78490473Y-150599195D01*
X78492136Y-150546902D01*
X78972620Y-150546902D01*
X78975383Y-150750056D01*
X79008718Y-150935023D01*
X79047361Y-151032905D01*
X79133891Y-151116591D01*
X79271959Y-151170404D01*
X79432010Y-151188816D01*
X79584492Y-151166297D01*
X79638753Y-151143526D01*
X79732463Y-151050170D01*
X79801975Y-150894288D01*
X79839585Y-150696398D01*
X79844053Y-150596600D01*
X79823759Y-150386244D01*
X79768010Y-150208429D01*
X79684509Y-150083673D01*
X79638753Y-150049674D01*
X79503926Y-150010667D01*
X79342972Y-150008320D01*
X79195663Y-150040431D01*
X79126951Y-150078017D01*
X79050486Y-150185913D01*
X78998348Y-150350531D01*
X78972620Y-150546902D01*
X78492136Y-150546902D01*
X78497096Y-150391036D01*
X78517198Y-150213616D01*
X78538195Y-150126667D01*
X78649944Y-149896008D01*
X78809177Y-149731060D01*
X79021168Y-149628406D01*
X79291193Y-149584631D01*
X79378387Y-149582460D01*
X79649137Y-149606804D01*
G36*
X81206390Y-150295952D02*
G01*
X81212779Y-150555996D01*
X81220985Y-150744960D01*
X81232626Y-150876429D01*
X81249317Y-150963990D01*
X81272674Y-151021228D01*
X81296503Y-151053501D01*
X81432018Y-151141499D01*
X81618956Y-151169261D01*
X81736966Y-151158426D01*
X81876053Y-151135856D01*
X81876053Y-149622934D01*
X82384053Y-149622934D01*
X82383475Y-151337434D01*
X82246181Y-151429089D01*
X82005917Y-151543826D01*
X81729534Y-151602416D01*
X81447330Y-151601224D01*
X81227668Y-151551267D01*
X81070955Y-151483327D01*
X80950300Y-151397826D01*
X80861307Y-151283718D01*
X80799578Y-151129952D01*
X80760715Y-150925480D01*
X80740321Y-150659254D01*
X80733999Y-150320224D01*
X80733983Y-150310850D01*
X80733053Y-149622934D01*
X81192894Y-149622934D01*
X81206390Y-150295952D01*
X81206390Y-150295952D01*
G37*
X81206390Y-150295952D02*
X81212779Y-150555996D01*
X81220985Y-150744960D01*
X81232626Y-150876429D01*
X81249317Y-150963990D01*
X81272674Y-151021228D01*
X81296503Y-151053501D01*
X81432018Y-151141499D01*
X81618956Y-151169261D01*
X81736966Y-151158426D01*
X81876053Y-151135856D01*
X81876053Y-149622934D01*
X82384053Y-149622934D01*
X82383475Y-151337434D01*
X82246181Y-151429089D01*
X82005917Y-151543826D01*
X81729534Y-151602416D01*
X81447330Y-151601224D01*
X81227668Y-151551267D01*
X81070955Y-151483327D01*
X80950300Y-151397826D01*
X80861307Y-151283718D01*
X80799578Y-151129952D01*
X80760715Y-150925480D01*
X80740321Y-150659254D01*
X80733999Y-150320224D01*
X80733983Y-150310850D01*
X80733053Y-149622934D01*
X81192894Y-149622934D01*
X81206390Y-150295952D01*
G36*
X83339002Y-149012069D02*
G01*
X83352835Y-149071228D01*
X83357332Y-149188188D01*
X83357720Y-149300844D01*
X83357720Y-149622934D01*
X84119720Y-149622934D01*
X84119720Y-150003934D01*
X83355114Y-150003934D01*
X83367000Y-150520227D01*
X83378887Y-151036521D01*
X83515658Y-151116316D01*
X83603955Y-151161522D01*
X83680479Y-151174624D01*
X83780697Y-151157391D01*
X83865218Y-151133734D01*
X83988088Y-151104130D01*
X84073897Y-151095431D01*
X84097317Y-151102600D01*
X84115837Y-151161290D01*
X84137856Y-151268287D01*
X84143370Y-151301090D01*
X84154669Y-151412445D01*
X84133603Y-151473147D01*
X84068332Y-151514684D01*
X84061955Y-151517618D01*
X83909265Y-151563056D01*
X83717235Y-151588748D01*
X83529308Y-151590791D01*
X83420334Y-151575274D01*
X83194209Y-151475440D01*
X83013370Y-151305150D01*
X82966882Y-151237803D01*
X82936364Y-151184876D01*
X82912848Y-151128910D01*
X82895211Y-151058199D01*
X82882328Y-150961037D01*
X82873073Y-150825718D01*
X82866322Y-150640536D01*
X82860951Y-150393785D01*
X82855979Y-150083539D01*
X82841072Y-149083645D01*
X83004146Y-149054066D01*
X83137866Y-149028366D01*
X83251159Y-149004279D01*
X83262470Y-149001621D01*
X83310619Y-148994328D01*
X83339002Y-149012069D01*
X83339002Y-149012069D01*
G37*
X83339002Y-149012069D02*
X83352835Y-149071228D01*
X83357332Y-149188188D01*
X83357720Y-149300844D01*
X83357720Y-149622934D01*
X84119720Y-149622934D01*
X84119720Y-150003934D01*
X83355114Y-150003934D01*
X83367000Y-150520227D01*
X83378887Y-151036521D01*
X83515658Y-151116316D01*
X83603955Y-151161522D01*
X83680479Y-151174624D01*
X83780697Y-151157391D01*
X83865218Y-151133734D01*
X83988088Y-151104130D01*
X84073897Y-151095431D01*
X84097317Y-151102600D01*
X84115837Y-151161290D01*
X84137856Y-151268287D01*
X84143370Y-151301090D01*
X84154669Y-151412445D01*
X84133603Y-151473147D01*
X84068332Y-151514684D01*
X84061955Y-151517618D01*
X83909265Y-151563056D01*
X83717235Y-151588748D01*
X83529308Y-151590791D01*
X83420334Y-151575274D01*
X83194209Y-151475440D01*
X83013370Y-151305150D01*
X82966882Y-151237803D01*
X82936364Y-151184876D01*
X82912848Y-151128910D01*
X82895211Y-151058199D01*
X82882328Y-150961037D01*
X82873073Y-150825718D01*
X82866322Y-150640536D01*
X82860951Y-150393785D01*
X82855979Y-150083539D01*
X82841072Y-149083645D01*
X83004146Y-149054066D01*
X83137866Y-149028366D01*
X83251159Y-149004279D01*
X83262470Y-149001621D01*
X83310619Y-148994328D01*
X83339002Y-149012069D01*
G36*
X103835310Y-149635980D02*
G01*
X103997874Y-149642959D01*
X104116177Y-149656726D01*
X104166671Y-149674440D01*
X104174573Y-149727867D01*
X104164511Y-149832491D01*
X104155431Y-149883706D01*
X104118653Y-150067434D01*
X103838465Y-150052798D01*
X103681123Y-150044010D01*
X103564651Y-150043578D01*
X103482928Y-150062220D01*
X103429835Y-150110658D01*
X103399252Y-150199610D01*
X103385061Y-150339796D01*
X103381140Y-150541936D01*
X103381370Y-150816749D01*
X103381387Y-150853453D01*
X103381387Y-151612600D01*
X102914100Y-151612600D01*
X102925493Y-150671649D01*
X102936887Y-149730697D01*
X103169720Y-149675502D01*
X103295691Y-149655551D01*
X103462855Y-149642299D01*
X103649849Y-149635768D01*
X103835310Y-149635980D01*
X103835310Y-149635980D01*
G37*
X103835310Y-149635980D02*
X103997874Y-149642959D01*
X104116177Y-149656726D01*
X104166671Y-149674440D01*
X104174573Y-149727867D01*
X104164511Y-149832491D01*
X104155431Y-149883706D01*
X104118653Y-150067434D01*
X103838465Y-150052798D01*
X103681123Y-150044010D01*
X103564651Y-150043578D01*
X103482928Y-150062220D01*
X103429835Y-150110658D01*
X103399252Y-150199610D01*
X103385061Y-150339796D01*
X103381140Y-150541936D01*
X103381370Y-150816749D01*
X103381387Y-150853453D01*
X103381387Y-151612600D01*
X102914100Y-151612600D01*
X102925493Y-150671649D01*
X102936887Y-149730697D01*
X103169720Y-149675502D01*
X103295691Y-149655551D01*
X103462855Y-149642299D01*
X103649849Y-149635768D01*
X103835310Y-149635980D01*
G36*
X104905387Y-151612600D02*
G01*
X104397387Y-151612600D01*
X104397387Y-149665267D01*
X104905387Y-149665267D01*
X104905387Y-151612600D01*
X104905387Y-151612600D01*
G37*
X104905387Y-151612600D02*
X104397387Y-151612600D01*
X104397387Y-149665267D01*
X104905387Y-149665267D01*
X104905387Y-151612600D01*
G36*
X109816053Y-151612600D02*
G01*
X109308053Y-151612600D01*
X109308053Y-149542587D01*
X109161246Y-149603927D01*
X109039730Y-149650222D01*
X108969212Y-149651456D01*
X108923134Y-149596529D01*
X108879208Y-149486057D01*
X108813866Y-149306847D01*
X109092710Y-149169845D01*
X109302887Y-149080564D01*
X109484335Y-149038295D01*
X109593803Y-149031555D01*
X109816053Y-149030267D01*
X109816053Y-151612600D01*
X109816053Y-151612600D01*
G37*
X109816053Y-151612600D02*
X109308053Y-151612600D01*
X109308053Y-149542587D01*
X109161246Y-149603927D01*
X109039730Y-149650222D01*
X108969212Y-149651456D01*
X108923134Y-149596529D01*
X108879208Y-149486057D01*
X108813866Y-149306847D01*
X109092710Y-149169845D01*
X109302887Y-149080564D01*
X109484335Y-149038295D01*
X109593803Y-149031555D01*
X109816053Y-149030267D01*
X109816053Y-151612600D01*
G36*
X61259720Y-151570267D02*
G01*
X60794053Y-151570267D01*
X60794053Y-149622934D01*
X61259720Y-149622934D01*
X61259720Y-151570267D01*
X61259720Y-151570267D01*
G37*
X61259720Y-151570267D02*
X60794053Y-151570267D01*
X60794053Y-149622934D01*
X61259720Y-149622934D01*
X61259720Y-151570267D01*
G36*
X62815879Y-149600053D02*
G01*
X63020649Y-149650412D01*
X63079214Y-149675850D01*
X63195213Y-149743577D01*
X63283821Y-149820994D01*
X63348944Y-149920231D01*
X63394488Y-150053422D01*
X63424357Y-150232697D01*
X63442457Y-150470190D01*
X63452693Y-150778031D01*
X63453967Y-150840017D01*
X63468047Y-151570267D01*
X62995387Y-151570267D01*
X62995387Y-150955074D01*
X62991539Y-150641732D01*
X62976591Y-150403424D01*
X62945436Y-150230728D01*
X62892967Y-150114222D01*
X62814075Y-150044486D01*
X62703654Y-150012098D01*
X62556596Y-150007638D01*
X62483991Y-150011732D01*
X62296887Y-150025100D01*
X62285348Y-150797684D01*
X62273810Y-151570267D01*
X61810053Y-151570267D01*
X61810053Y-149672283D01*
X62023804Y-149626441D01*
X62292595Y-149586904D01*
X62564907Y-149578495D01*
X62815879Y-149600053D01*
X62815879Y-149600053D01*
G37*
X62815879Y-149600053D02*
X63020649Y-149650412D01*
X63079214Y-149675850D01*
X63195213Y-149743577D01*
X63283821Y-149820994D01*
X63348944Y-149920231D01*
X63394488Y-150053422D01*
X63424357Y-150232697D01*
X63442457Y-150470190D01*
X63452693Y-150778031D01*
X63453967Y-150840017D01*
X63468047Y-151570267D01*
X62995387Y-151570267D01*
X62995387Y-150955074D01*
X62991539Y-150641732D01*
X62976591Y-150403424D01*
X62945436Y-150230728D01*
X62892967Y-150114222D01*
X62814075Y-150044486D01*
X62703654Y-150012098D01*
X62556596Y-150007638D01*
X62483991Y-150011732D01*
X62296887Y-150025100D01*
X62285348Y-150797684D01*
X62273810Y-151570267D01*
X61810053Y-151570267D01*
X61810053Y-149672283D01*
X62023804Y-149626441D01*
X62292595Y-149586904D01*
X62564907Y-149578495D01*
X62815879Y-149600053D01*
G36*
X66173494Y-149597349D02*
G01*
X66299491Y-149610838D01*
X66362492Y-149631521D01*
X66362532Y-149631561D01*
X66374740Y-149688072D01*
X66370757Y-149795693D01*
X66364113Y-149849010D01*
X66335972Y-150036664D01*
X65978013Y-150014331D01*
X65620053Y-149991999D01*
X65620053Y-151570267D01*
X65110433Y-151570267D01*
X65121827Y-150631091D01*
X65133220Y-149691916D01*
X65344887Y-149635154D01*
X65466014Y-149613810D01*
X65630762Y-149599282D01*
X65817807Y-149591646D01*
X66005825Y-149590976D01*
X66173494Y-149597349D01*
X66173494Y-149597349D01*
G37*
X66173494Y-149597349D02*
X66299491Y-149610838D01*
X66362492Y-149631521D01*
X66362532Y-149631561D01*
X66374740Y-149688072D01*
X66370757Y-149795693D01*
X66364113Y-149849010D01*
X66335972Y-150036664D01*
X65978013Y-150014331D01*
X65620053Y-149991999D01*
X65620053Y-151570267D01*
X65110433Y-151570267D01*
X65121827Y-150631091D01*
X65133220Y-149691916D01*
X65344887Y-149635154D01*
X65466014Y-149613810D01*
X65630762Y-149599282D01*
X65817807Y-149591646D01*
X66005825Y-149590976D01*
X66173494Y-149597349D01*
G36*
X86706124Y-149606225D02*
G01*
X86830156Y-149614473D01*
X86890980Y-149628736D01*
X86892094Y-149629706D01*
X86901654Y-149684706D01*
X86892692Y-149790384D01*
X86883891Y-149841297D01*
X86847572Y-150024949D01*
X86489063Y-150025025D01*
X86130553Y-150025100D01*
X86119015Y-150797684D01*
X86107477Y-151570267D01*
X85643720Y-151570267D01*
X85643720Y-149705505D01*
X85760137Y-149656459D01*
X85841326Y-149638591D01*
X85979905Y-149623887D01*
X86155774Y-149612824D01*
X86348833Y-149605876D01*
X86538983Y-149603518D01*
X86706124Y-149606225D01*
X86706124Y-149606225D01*
G37*
X86706124Y-149606225D02*
X86830156Y-149614473D01*
X86890980Y-149628736D01*
X86892094Y-149629706D01*
X86901654Y-149684706D01*
X86892692Y-149790384D01*
X86883891Y-149841297D01*
X86847572Y-150024949D01*
X86489063Y-150025025D01*
X86130553Y-150025100D01*
X86119015Y-150797684D01*
X86107477Y-151570267D01*
X85643720Y-151570267D01*
X85643720Y-149705505D01*
X85760137Y-149656459D01*
X85841326Y-149638591D01*
X85979905Y-149623887D01*
X86155774Y-149612824D01*
X86348833Y-149605876D01*
X86538983Y-149603518D01*
X86706124Y-149606225D01*
G36*
X101010720Y-150723600D02*
G01*
X99952387Y-150723600D01*
X99952387Y-150257934D01*
X101010720Y-150257934D01*
X101010720Y-150723600D01*
X101010720Y-150723600D01*
G37*
X101010720Y-150723600D02*
X99952387Y-150723600D01*
X99952387Y-150257934D01*
X101010720Y-150257934D01*
X101010720Y-150723600D01*
G36*
X108419053Y-150723600D02*
G01*
X107918109Y-150723600D01*
X107720076Y-150721343D01*
X107553998Y-150715201D01*
X107437611Y-150706121D01*
X107388942Y-150695378D01*
X107372389Y-150639674D01*
X107362235Y-150530060D01*
X107360720Y-150462545D01*
X107360720Y-150257934D01*
X108419053Y-150257934D01*
X108419053Y-150723600D01*
X108419053Y-150723600D01*
G37*
X108419053Y-150723600D02*
X107918109Y-150723600D01*
X107720076Y-150721343D01*
X107553998Y-150715201D01*
X107437611Y-150706121D01*
X107388942Y-150695378D01*
X107372389Y-150639674D01*
X107362235Y-150530060D01*
X107360720Y-150462545D01*
X107360720Y-150257934D01*
X108419053Y-150257934D01*
X108419053Y-150723600D01*
G36*
X60497720Y-150638934D02*
G01*
X59439387Y-150638934D01*
X59439387Y-150215600D01*
X60497720Y-150215600D01*
X60497720Y-150638934D01*
X60497720Y-150638934D01*
G37*
X60497720Y-150638934D02*
X59439387Y-150638934D01*
X59439387Y-150215600D01*
X60497720Y-150215600D01*
X60497720Y-150638934D01*
G36*
X64815720Y-150638934D02*
G01*
X63757387Y-150638934D01*
X63757387Y-150215600D01*
X64815720Y-150215600D01*
X64815720Y-150638934D01*
X64815720Y-150638934D01*
G37*
X64815720Y-150638934D02*
X63757387Y-150638934D01*
X63757387Y-150215600D01*
X64815720Y-150215600D01*
X64815720Y-150638934D01*
G36*
X78277720Y-150638934D02*
G01*
X77219387Y-150638934D01*
X77219387Y-150215600D01*
X78277720Y-150215600D01*
X78277720Y-150638934D01*
X78277720Y-150638934D01*
G37*
X78277720Y-150638934D02*
X77219387Y-150638934D01*
X77219387Y-150215600D01*
X78277720Y-150215600D01*
X78277720Y-150638934D01*
G36*
X85305053Y-150638934D02*
G01*
X84289053Y-150638934D01*
X84289053Y-150215600D01*
X85305053Y-150215600D01*
X85305053Y-150638934D01*
X85305053Y-150638934D01*
G37*
X85305053Y-150638934D02*
X84289053Y-150638934D01*
X84289053Y-150215600D01*
X85305053Y-150215600D01*
X85305053Y-150638934D01*
G36*
X104905387Y-149368934D02*
G01*
X104397387Y-149368934D01*
X104397387Y-148903267D01*
X104905387Y-148903267D01*
X104905387Y-149368934D01*
X104905387Y-149368934D01*
G37*
X104905387Y-149368934D02*
X104397387Y-149368934D01*
X104397387Y-148903267D01*
X104905387Y-148903267D01*
X104905387Y-149368934D01*
G36*
X61259720Y-149326600D02*
G01*
X60794053Y-149326600D01*
X60794053Y-148818600D01*
X61259720Y-148818600D01*
X61259720Y-149326600D01*
X61259720Y-149326600D01*
G37*
X61259720Y-149326600D02*
X60794053Y-149326600D01*
X60794053Y-148818600D01*
X61259720Y-148818600D01*
X61259720Y-149326600D01*
G36*
X93653798Y-115515227D02*
G01*
X93824858Y-115618962D01*
X93990426Y-115751083D01*
X94063368Y-115824492D01*
X94099260Y-115862822D01*
X94132196Y-115895211D01*
X94162304Y-115925261D01*
X94189709Y-115956574D01*
X94214537Y-115992751D01*
X94236916Y-116037396D01*
X94256971Y-116094109D01*
X94274829Y-116166492D01*
X94290615Y-116258148D01*
X94304456Y-116372678D01*
X94316478Y-116513685D01*
X94326807Y-116684770D01*
X94335570Y-116889535D01*
X94342893Y-117131581D01*
X94348903Y-117414512D01*
X94353724Y-117741929D01*
X94357484Y-118117433D01*
X94360309Y-118544627D01*
X94362325Y-119027113D01*
X94363658Y-119568492D01*
X94364435Y-120172366D01*
X94364781Y-120842338D01*
X94364823Y-121582009D01*
X94364688Y-122394981D01*
X94364501Y-123284856D01*
X94364389Y-124255236D01*
X94364387Y-124413434D01*
X94364508Y-125399428D01*
X94364774Y-126304345D01*
X94365037Y-127131775D01*
X94365147Y-127885307D01*
X94364957Y-128568530D01*
X94364317Y-129185033D01*
X94363081Y-129738405D01*
X94361099Y-130232237D01*
X94358222Y-130670117D01*
X94354304Y-131055634D01*
X94349195Y-131392378D01*
X94342746Y-131683939D01*
X94334810Y-131933904D01*
X94325239Y-132145865D01*
X94313883Y-132323409D01*
X94300595Y-132470127D01*
X94285226Y-132589608D01*
X94267627Y-132685440D01*
X94247652Y-132761214D01*
X94225150Y-132820518D01*
X94199974Y-132866942D01*
X94171975Y-132904075D01*
X94141005Y-132935506D01*
X94106916Y-132964825D01*
X94069559Y-132995622D01*
X94028785Y-133031484D01*
X94007314Y-133052194D01*
X93943517Y-133117466D01*
X93887244Y-133174747D01*
X93832830Y-133224575D01*
X93774611Y-133267489D01*
X93706923Y-133304028D01*
X93624100Y-133334730D01*
X93520479Y-133360135D01*
X93390395Y-133380780D01*
X93228182Y-133397205D01*
X93028178Y-133409949D01*
X92784717Y-133419549D01*
X92492135Y-133426545D01*
X92144767Y-133431476D01*
X91736948Y-133434880D01*
X91263015Y-133437295D01*
X90717303Y-133439261D01*
X90094147Y-133441316D01*
X89908803Y-133441967D01*
X86448053Y-133454424D01*
X86448053Y-136245600D01*
X100037053Y-136245600D01*
X100037053Y-139970934D01*
X98767053Y-139970934D01*
X98767053Y-137515600D01*
X85178053Y-137515600D01*
X85178053Y-133454499D01*
X81230470Y-133442466D01*
X77282887Y-133430434D01*
X77050053Y-133320783D01*
X76810001Y-133188965D01*
X76630135Y-133041022D01*
X76486169Y-132855120D01*
X76434270Y-132767185D01*
X76309220Y-132541434D01*
X76309220Y-116285434D01*
X76404730Y-116106694D01*
X76587785Y-115832704D01*
X76812200Y-115625832D01*
X77000021Y-115514560D01*
X77240553Y-115396434D01*
X93411887Y-115396434D01*
X93653798Y-115515227D01*
X93653798Y-115515227D01*
G37*
X93653798Y-115515227D02*
X93824858Y-115618962D01*
X93990426Y-115751083D01*
X94063368Y-115824492D01*
X94099260Y-115862822D01*
X94132196Y-115895211D01*
X94162304Y-115925261D01*
X94189709Y-115956574D01*
X94214537Y-115992751D01*
X94236916Y-116037396D01*
X94256971Y-116094109D01*
X94274829Y-116166492D01*
X94290615Y-116258148D01*
X94304456Y-116372678D01*
X94316478Y-116513685D01*
X94326807Y-116684770D01*
X94335570Y-116889535D01*
X94342893Y-117131581D01*
X94348903Y-117414512D01*
X94353724Y-117741929D01*
X94357484Y-118117433D01*
X94360309Y-118544627D01*
X94362325Y-119027113D01*
X94363658Y-119568492D01*
X94364435Y-120172366D01*
X94364781Y-120842338D01*
X94364823Y-121582009D01*
X94364688Y-122394981D01*
X94364501Y-123284856D01*
X94364389Y-124255236D01*
X94364387Y-124413434D01*
X94364508Y-125399428D01*
X94364774Y-126304345D01*
X94365037Y-127131775D01*
X94365147Y-127885307D01*
X94364957Y-128568530D01*
X94364317Y-129185033D01*
X94363081Y-129738405D01*
X94361099Y-130232237D01*
X94358222Y-130670117D01*
X94354304Y-131055634D01*
X94349195Y-131392378D01*
X94342746Y-131683939D01*
X94334810Y-131933904D01*
X94325239Y-132145865D01*
X94313883Y-132323409D01*
X94300595Y-132470127D01*
X94285226Y-132589608D01*
X94267627Y-132685440D01*
X94247652Y-132761214D01*
X94225150Y-132820518D01*
X94199974Y-132866942D01*
X94171975Y-132904075D01*
X94141005Y-132935506D01*
X94106916Y-132964825D01*
X94069559Y-132995622D01*
X94028785Y-133031484D01*
X94007314Y-133052194D01*
X93943517Y-133117466D01*
X93887244Y-133174747D01*
X93832830Y-133224575D01*
X93774611Y-133267489D01*
X93706923Y-133304028D01*
X93624100Y-133334730D01*
X93520479Y-133360135D01*
X93390395Y-133380780D01*
X93228182Y-133397205D01*
X93028178Y-133409949D01*
X92784717Y-133419549D01*
X92492135Y-133426545D01*
X92144767Y-133431476D01*
X91736948Y-133434880D01*
X91263015Y-133437295D01*
X90717303Y-133439261D01*
X90094147Y-133441316D01*
X89908803Y-133441967D01*
X86448053Y-133454424D01*
X86448053Y-136245600D01*
X100037053Y-136245600D01*
X100037053Y-139970934D01*
X98767053Y-139970934D01*
X98767053Y-137515600D01*
X85178053Y-137515600D01*
X85178053Y-133454499D01*
X81230470Y-133442466D01*
X77282887Y-133430434D01*
X77050053Y-133320783D01*
X76810001Y-133188965D01*
X76630135Y-133041022D01*
X76486169Y-132855120D01*
X76434270Y-132767185D01*
X76309220Y-132541434D01*
X76309220Y-116285434D01*
X76404730Y-116106694D01*
X76587785Y-115832704D01*
X76812200Y-115625832D01*
X77000021Y-115514560D01*
X77240553Y-115396434D01*
X93411887Y-115396434D01*
X93653798Y-115515227D01*
G36*
X112177382Y-115539766D02*
G01*
X112405634Y-115681580D01*
X112611614Y-115880607D01*
X112771273Y-116110895D01*
X112832513Y-116246698D01*
X112841518Y-116275399D01*
X112849768Y-116311302D01*
X112857294Y-116358045D01*
X112864130Y-116419263D01*
X112870309Y-116498594D01*
X112875863Y-116599673D01*
X112880825Y-116726138D01*
X112885228Y-116881623D01*
X112889106Y-117069767D01*
X112892490Y-117294204D01*
X112895414Y-117558573D01*
X112897911Y-117866508D01*
X112900013Y-118221646D01*
X112901753Y-118627625D01*
X112903165Y-119088079D01*
X112904281Y-119606646D01*
X112905133Y-120186962D01*
X112905756Y-120832664D01*
X112906181Y-121547387D01*
X112906442Y-122334768D01*
X112906571Y-123198444D01*
X112906601Y-124142050D01*
X112906596Y-124443595D01*
X112906559Y-125409342D01*
X112906478Y-126294083D01*
X112906312Y-127101480D01*
X112906025Y-127835192D01*
X112905578Y-128498883D01*
X112904934Y-129096212D01*
X112904053Y-129630840D01*
X112902898Y-130106430D01*
X112901431Y-130526640D01*
X112899613Y-130895134D01*
X112897407Y-131215571D01*
X112894774Y-131491613D01*
X112891676Y-131726921D01*
X112888076Y-131925156D01*
X112883934Y-132089979D01*
X112879213Y-132225051D01*
X112873875Y-132334033D01*
X112867881Y-132420585D01*
X112861194Y-132488370D01*
X112853775Y-132541048D01*
X112845587Y-132582281D01*
X112836590Y-132615728D01*
X112826747Y-132645052D01*
X112821024Y-132660577D01*
X112685613Y-132912727D01*
X112488317Y-133134515D01*
X112250505Y-133304489D01*
X112119752Y-133364595D01*
X112076561Y-133380084D01*
X112031439Y-133393616D01*
X111978674Y-133405325D01*
X111912555Y-133415342D01*
X111827371Y-133423798D01*
X111717411Y-133430827D01*
X111576964Y-133436559D01*
X111400319Y-133441128D01*
X111181766Y-133444664D01*
X110915592Y-133447300D01*
X110596088Y-133449167D01*
X110217543Y-133450398D01*
X109774244Y-133451125D01*
X109260483Y-133451479D01*
X108670546Y-133451592D01*
X108353965Y-133451600D01*
X104820720Y-133451600D01*
X104820720Y-136118600D01*
X109054053Y-136118600D01*
X109054053Y-139886267D01*
X107741720Y-139886267D01*
X107741720Y-137474050D01*
X103487220Y-137452100D01*
X103476223Y-135452711D01*
X103465225Y-133453322D01*
X95697887Y-133430434D01*
X95472135Y-133305383D01*
X95253004Y-133158535D01*
X95086182Y-132981374D01*
X94948825Y-132748703D01*
X94928691Y-132706025D01*
X94829195Y-132489617D01*
X94840207Y-124387525D01*
X94851220Y-116285434D01*
X94942902Y-116114197D01*
X95064407Y-115939898D01*
X95234766Y-115761434D01*
X95424450Y-115606654D01*
X95578612Y-115514612D01*
X95600970Y-115505492D01*
X95629904Y-115497132D01*
X95669009Y-115489499D01*
X95721877Y-115482560D01*
X95792100Y-115476282D01*
X95883273Y-115470632D01*
X95998987Y-115465578D01*
X96142835Y-115461085D01*
X96318411Y-115457123D01*
X96529307Y-115453656D01*
X96779116Y-115450653D01*
X97071431Y-115448081D01*
X97409844Y-115445906D01*
X97797950Y-115444095D01*
X98239339Y-115442617D01*
X98737606Y-115441436D01*
X99296344Y-115440522D01*
X99919144Y-115439840D01*
X100609600Y-115439358D01*
X101371304Y-115439043D01*
X102207851Y-115438861D01*
X103122831Y-115438781D01*
X103847053Y-115438767D01*
X111953887Y-115438767D01*
X112177382Y-115539766D01*
X112177382Y-115539766D01*
G37*
X112177382Y-115539766D02*
X112405634Y-115681580D01*
X112611614Y-115880607D01*
X112771273Y-116110895D01*
X112832513Y-116246698D01*
X112841518Y-116275399D01*
X112849768Y-116311302D01*
X112857294Y-116358045D01*
X112864130Y-116419263D01*
X112870309Y-116498594D01*
X112875863Y-116599673D01*
X112880825Y-116726138D01*
X112885228Y-116881623D01*
X112889106Y-117069767D01*
X112892490Y-117294204D01*
X112895414Y-117558573D01*
X112897911Y-117866508D01*
X112900013Y-118221646D01*
X112901753Y-118627625D01*
X112903165Y-119088079D01*
X112904281Y-119606646D01*
X112905133Y-120186962D01*
X112905756Y-120832664D01*
X112906181Y-121547387D01*
X112906442Y-122334768D01*
X112906571Y-123198444D01*
X112906601Y-124142050D01*
X112906596Y-124443595D01*
X112906559Y-125409342D01*
X112906478Y-126294083D01*
X112906312Y-127101480D01*
X112906025Y-127835192D01*
X112905578Y-128498883D01*
X112904934Y-129096212D01*
X112904053Y-129630840D01*
X112902898Y-130106430D01*
X112901431Y-130526640D01*
X112899613Y-130895134D01*
X112897407Y-131215571D01*
X112894774Y-131491613D01*
X112891676Y-131726921D01*
X112888076Y-131925156D01*
X112883934Y-132089979D01*
X112879213Y-132225051D01*
X112873875Y-132334033D01*
X112867881Y-132420585D01*
X112861194Y-132488370D01*
X112853775Y-132541048D01*
X112845587Y-132582281D01*
X112836590Y-132615728D01*
X112826747Y-132645052D01*
X112821024Y-132660577D01*
X112685613Y-132912727D01*
X112488317Y-133134515D01*
X112250505Y-133304489D01*
X112119752Y-133364595D01*
X112076561Y-133380084D01*
X112031439Y-133393616D01*
X111978674Y-133405325D01*
X111912555Y-133415342D01*
X111827371Y-133423798D01*
X111717411Y-133430827D01*
X111576964Y-133436559D01*
X111400319Y-133441128D01*
X111181766Y-133444664D01*
X110915592Y-133447300D01*
X110596088Y-133449167D01*
X110217543Y-133450398D01*
X109774244Y-133451125D01*
X109260483Y-133451479D01*
X108670546Y-133451592D01*
X108353965Y-133451600D01*
X104820720Y-133451600D01*
X104820720Y-136118600D01*
X109054053Y-136118600D01*
X109054053Y-139886267D01*
X107741720Y-139886267D01*
X107741720Y-137474050D01*
X103487220Y-137452100D01*
X103476223Y-135452711D01*
X103465225Y-133453322D01*
X95697887Y-133430434D01*
X95472135Y-133305383D01*
X95253004Y-133158535D01*
X95086182Y-132981374D01*
X94948825Y-132748703D01*
X94928691Y-132706025D01*
X94829195Y-132489617D01*
X94840207Y-124387525D01*
X94851220Y-116285434D01*
X94942902Y-116114197D01*
X95064407Y-115939898D01*
X95234766Y-115761434D01*
X95424450Y-115606654D01*
X95578612Y-115514612D01*
X95600970Y-115505492D01*
X95629904Y-115497132D01*
X95669009Y-115489499D01*
X95721877Y-115482560D01*
X95792100Y-115476282D01*
X95883273Y-115470632D01*
X95998987Y-115465578D01*
X96142835Y-115461085D01*
X96318411Y-115457123D01*
X96529307Y-115453656D01*
X96779116Y-115450653D01*
X97071431Y-115448081D01*
X97409844Y-115445906D01*
X97797950Y-115444095D01*
X98239339Y-115442617D01*
X98737606Y-115441436D01*
X99296344Y-115440522D01*
X99919144Y-115439840D01*
X100609600Y-115439358D01*
X101371304Y-115439043D01*
X102207851Y-115438861D01*
X103122831Y-115438781D01*
X103847053Y-115438767D01*
X111953887Y-115438767D01*
X112177382Y-115539766D01*
G36*
X60376562Y-131364299D02*
G01*
X60606493Y-131455304D01*
X60787940Y-131602884D01*
X60821887Y-131641394D01*
X60846834Y-131682018D01*
X60863863Y-131737143D01*
X60874050Y-131819155D01*
X60878476Y-131940440D01*
X60878219Y-132113386D01*
X60874358Y-132350378D01*
X60870338Y-132548921D01*
X60861754Y-132877911D01*
X60849397Y-133134485D01*
X60830496Y-133330889D01*
X60802278Y-133479368D01*
X60761972Y-133592166D01*
X60706804Y-133681529D01*
X60634004Y-133759702D01*
X60586828Y-133801200D01*
X60455923Y-133888265D01*
X60312307Y-133952617D01*
X60295322Y-133957737D01*
X60135826Y-133985707D01*
X59935972Y-133998069D01*
X59725132Y-133995421D01*
X59532678Y-133978360D01*
X59387984Y-133947483D01*
X59365303Y-133938820D01*
X59274308Y-133894041D01*
X59228888Y-133861443D01*
X59227720Y-133858230D01*
X59246757Y-133813057D01*
X59292423Y-133729065D01*
X59347544Y-133635520D01*
X59394951Y-133561690D01*
X59416623Y-133536267D01*
X59460843Y-133543465D01*
X59562385Y-133561950D01*
X59648435Y-133578104D01*
X59870977Y-133597187D01*
X60068783Y-133571061D01*
X60227547Y-133505600D01*
X60332961Y-133406678D01*
X60370720Y-133281591D01*
X60361005Y-133239725D01*
X60319018Y-133220588D01*
X60225496Y-133220023D01*
X60122892Y-133228101D01*
X59831079Y-133219722D01*
X59583793Y-133141251D01*
X59386361Y-132997643D01*
X59244111Y-132793852D01*
X59162372Y-132534834D01*
X59148140Y-132366878D01*
X59624397Y-132366878D01*
X59678788Y-132563275D01*
X59764236Y-132690614D01*
X59900796Y-132790810D01*
X60082956Y-132820424D01*
X60275470Y-132789918D01*
X60317378Y-132774322D01*
X60344763Y-132743986D01*
X60360706Y-132683233D01*
X60368287Y-132576383D01*
X60370587Y-132407759D01*
X60370720Y-132305152D01*
X60369257Y-132100040D01*
X60363117Y-131963414D01*
X60349669Y-131879119D01*
X60326283Y-131830998D01*
X60290330Y-131802896D01*
X60288836Y-131802090D01*
X60126874Y-131758750D01*
X59962359Y-131787676D01*
X59813534Y-131879061D01*
X59698643Y-132023100D01*
X59649267Y-132145900D01*
X59624397Y-132366878D01*
X59148140Y-132366878D01*
X59143983Y-132317824D01*
X59177503Y-132014806D01*
X59277000Y-131761012D01*
X59437461Y-131561621D01*
X59653874Y-131421809D01*
X59921225Y-131346755D01*
X60095553Y-131334934D01*
X60376562Y-131364299D01*
X60376562Y-131364299D01*
G37*
X60376562Y-131364299D02*
X60606493Y-131455304D01*
X60787940Y-131602884D01*
X60821887Y-131641394D01*
X60846834Y-131682018D01*
X60863863Y-131737143D01*
X60874050Y-131819155D01*
X60878476Y-131940440D01*
X60878219Y-132113386D01*
X60874358Y-132350378D01*
X60870338Y-132548921D01*
X60861754Y-132877911D01*
X60849397Y-133134485D01*
X60830496Y-133330889D01*
X60802278Y-133479368D01*
X60761972Y-133592166D01*
X60706804Y-133681529D01*
X60634004Y-133759702D01*
X60586828Y-133801200D01*
X60455923Y-133888265D01*
X60312307Y-133952617D01*
X60295322Y-133957737D01*
X60135826Y-133985707D01*
X59935972Y-133998069D01*
X59725132Y-133995421D01*
X59532678Y-133978360D01*
X59387984Y-133947483D01*
X59365303Y-133938820D01*
X59274308Y-133894041D01*
X59228888Y-133861443D01*
X59227720Y-133858230D01*
X59246757Y-133813057D01*
X59292423Y-133729065D01*
X59347544Y-133635520D01*
X59394951Y-133561690D01*
X59416623Y-133536267D01*
X59460843Y-133543465D01*
X59562385Y-133561950D01*
X59648435Y-133578104D01*
X59870977Y-133597187D01*
X60068783Y-133571061D01*
X60227547Y-133505600D01*
X60332961Y-133406678D01*
X60370720Y-133281591D01*
X60361005Y-133239725D01*
X60319018Y-133220588D01*
X60225496Y-133220023D01*
X60122892Y-133228101D01*
X59831079Y-133219722D01*
X59583793Y-133141251D01*
X59386361Y-132997643D01*
X59244111Y-132793852D01*
X59162372Y-132534834D01*
X59148140Y-132366878D01*
X59624397Y-132366878D01*
X59678788Y-132563275D01*
X59764236Y-132690614D01*
X59900796Y-132790810D01*
X60082956Y-132820424D01*
X60275470Y-132789918D01*
X60317378Y-132774322D01*
X60344763Y-132743986D01*
X60360706Y-132683233D01*
X60368287Y-132576383D01*
X60370587Y-132407759D01*
X60370720Y-132305152D01*
X60369257Y-132100040D01*
X60363117Y-131963414D01*
X60349669Y-131879119D01*
X60326283Y-131830998D01*
X60290330Y-131802896D01*
X60288836Y-131802090D01*
X60126874Y-131758750D01*
X59962359Y-131787676D01*
X59813534Y-131879061D01*
X59698643Y-132023100D01*
X59649267Y-132145900D01*
X59624397Y-132366878D01*
X59148140Y-132366878D01*
X59143983Y-132317824D01*
X59177503Y-132014806D01*
X59277000Y-131761012D01*
X59437461Y-131561621D01*
X59653874Y-131421809D01*
X59921225Y-131346755D01*
X60095553Y-131334934D01*
X60376562Y-131364299D01*
G36*
X62155693Y-131315348D02*
G01*
X62358879Y-131348629D01*
X62482961Y-131398434D01*
X62593665Y-131468876D01*
X62675830Y-131540397D01*
X62734009Y-131626801D01*
X62772756Y-131741893D01*
X62796625Y-131899480D01*
X62810169Y-132113366D01*
X62817942Y-132397357D01*
X62818289Y-132415080D01*
X62831691Y-133108336D01*
X62652085Y-133199965D01*
X62393477Y-133291797D01*
X62093996Y-133331299D01*
X61820012Y-133319565D01*
X61583840Y-133256785D01*
X61402805Y-133138506D01*
X61284776Y-132970690D01*
X61257596Y-132893381D01*
X61234799Y-132708607D01*
X61725387Y-132708607D01*
X61759605Y-132824177D01*
X61864876Y-132897385D01*
X61915887Y-132912967D01*
X62031264Y-132935578D01*
X62130134Y-132933986D01*
X62228095Y-132917142D01*
X62307367Y-132895519D01*
X62346319Y-132855587D01*
X62359217Y-132772237D01*
X62360387Y-132684309D01*
X62360387Y-132477934D01*
X62109410Y-132477934D01*
X61915927Y-132493864D01*
X61793499Y-132544867D01*
X61734109Y-132635759D01*
X61725387Y-132708607D01*
X61234799Y-132708607D01*
X61228388Y-132656648D01*
X61273982Y-132454588D01*
X61390136Y-132291544D01*
X61572606Y-132171856D01*
X61817149Y-132099864D01*
X62053163Y-132079547D01*
X62212215Y-132075383D01*
X62304397Y-132064359D01*
X62347488Y-132041342D01*
X62359267Y-132001196D01*
X62359432Y-131991100D01*
X62336090Y-131878565D01*
X62254896Y-131794706D01*
X62197179Y-131760729D01*
X62066252Y-131730338D01*
X61908345Y-131744531D01*
X61764302Y-131797211D01*
X61713724Y-131832887D01*
X61665547Y-131866720D01*
X61618173Y-131862528D01*
X61550113Y-131811853D01*
X61472061Y-131737759D01*
X61384205Y-131642379D01*
X61333256Y-131567912D01*
X61327845Y-131539116D01*
X61376134Y-131499422D01*
X61472761Y-131440375D01*
X61527175Y-131410912D01*
X61709490Y-131346886D01*
X61929113Y-131314899D01*
X62155693Y-131315348D01*
X62155693Y-131315348D01*
G37*
X62155693Y-131315348D02*
X62358879Y-131348629D01*
X62482961Y-131398434D01*
X62593665Y-131468876D01*
X62675830Y-131540397D01*
X62734009Y-131626801D01*
X62772756Y-131741893D01*
X62796625Y-131899480D01*
X62810169Y-132113366D01*
X62817942Y-132397357D01*
X62818289Y-132415080D01*
X62831691Y-133108336D01*
X62652085Y-133199965D01*
X62393477Y-133291797D01*
X62093996Y-133331299D01*
X61820012Y-133319565D01*
X61583840Y-133256785D01*
X61402805Y-133138506D01*
X61284776Y-132970690D01*
X61257596Y-132893381D01*
X61234799Y-132708607D01*
X61725387Y-132708607D01*
X61759605Y-132824177D01*
X61864876Y-132897385D01*
X61915887Y-132912967D01*
X62031264Y-132935578D01*
X62130134Y-132933986D01*
X62228095Y-132917142D01*
X62307367Y-132895519D01*
X62346319Y-132855587D01*
X62359217Y-132772237D01*
X62360387Y-132684309D01*
X62360387Y-132477934D01*
X62109410Y-132477934D01*
X61915927Y-132493864D01*
X61793499Y-132544867D01*
X61734109Y-132635759D01*
X61725387Y-132708607D01*
X61234799Y-132708607D01*
X61228388Y-132656648D01*
X61273982Y-132454588D01*
X61390136Y-132291544D01*
X61572606Y-132171856D01*
X61817149Y-132099864D01*
X62053163Y-132079547D01*
X62212215Y-132075383D01*
X62304397Y-132064359D01*
X62347488Y-132041342D01*
X62359267Y-132001196D01*
X62359432Y-131991100D01*
X62336090Y-131878565D01*
X62254896Y-131794706D01*
X62197179Y-131760729D01*
X62066252Y-131730338D01*
X61908345Y-131744531D01*
X61764302Y-131797211D01*
X61713724Y-131832887D01*
X61665547Y-131866720D01*
X61618173Y-131862528D01*
X61550113Y-131811853D01*
X61472061Y-131737759D01*
X61384205Y-131642379D01*
X61333256Y-131567912D01*
X61327845Y-131539116D01*
X61376134Y-131499422D01*
X61472761Y-131440375D01*
X61527175Y-131410912D01*
X61709490Y-131346886D01*
X61929113Y-131314899D01*
X62155693Y-131315348D01*
G36*
X63778553Y-133303434D02*
G01*
X63555830Y-133316246D01*
X63404733Y-133315917D01*
X63325948Y-133291908D01*
X63311561Y-133272911D01*
X63305761Y-133215641D01*
X63301591Y-133086798D01*
X63299186Y-132899458D01*
X63298679Y-132666701D01*
X63300205Y-132401606D01*
X63301451Y-132286432D01*
X63312887Y-131356100D01*
X63778553Y-131356100D01*
X63778553Y-133303434D01*
X63778553Y-133303434D01*
G37*
X63778553Y-133303434D02*
X63555830Y-133316246D01*
X63404733Y-133315917D01*
X63325948Y-133291908D01*
X63311561Y-133272911D01*
X63305761Y-133215641D01*
X63301591Y-133086798D01*
X63299186Y-132899458D01*
X63298679Y-132666701D01*
X63300205Y-132401606D01*
X63301451Y-132286432D01*
X63312887Y-131356100D01*
X63778553Y-131356100D01*
X63778553Y-133303434D01*
G36*
X65287184Y-131327195D02*
G01*
X65464736Y-131353055D01*
X65603299Y-131408842D01*
X65724961Y-131501585D01*
X65779814Y-131556966D01*
X65842937Y-131637194D01*
X65891114Y-131733597D01*
X65926942Y-131859316D01*
X65953018Y-132027493D01*
X65971938Y-132251270D01*
X65986301Y-132543788D01*
X65988993Y-132615517D01*
X66013062Y-133282267D01*
X65493053Y-133282267D01*
X65493053Y-132631809D01*
X65492158Y-132380326D01*
X65488339Y-132198723D01*
X65479894Y-132072222D01*
X65465122Y-131986047D01*
X65442321Y-131925420D01*
X65409789Y-131875563D01*
X65405314Y-131869809D01*
X65344189Y-131805685D01*
X65271640Y-131772071D01*
X65159185Y-131759561D01*
X65067602Y-131758267D01*
X64817630Y-131758267D01*
X64806091Y-132530850D01*
X64794553Y-133303434D01*
X64571503Y-133316257D01*
X64348452Y-133329080D01*
X64359836Y-132365469D01*
X64371220Y-131401857D01*
X64519387Y-131367276D01*
X64630091Y-131350463D01*
X64795413Y-131335904D01*
X64985304Y-131326045D01*
X65048553Y-131324232D01*
X65287184Y-131327195D01*
X65287184Y-131327195D01*
G37*
X65287184Y-131327195D02*
X65464736Y-131353055D01*
X65603299Y-131408842D01*
X65724961Y-131501585D01*
X65779814Y-131556966D01*
X65842937Y-131637194D01*
X65891114Y-131733597D01*
X65926942Y-131859316D01*
X65953018Y-132027493D01*
X65971938Y-132251270D01*
X65986301Y-132543788D01*
X65988993Y-132615517D01*
X66013062Y-133282267D01*
X65493053Y-133282267D01*
X65493053Y-132631809D01*
X65492158Y-132380326D01*
X65488339Y-132198723D01*
X65479894Y-132072222D01*
X65465122Y-131986047D01*
X65442321Y-131925420D01*
X65409789Y-131875563D01*
X65405314Y-131869809D01*
X65344189Y-131805685D01*
X65271640Y-131772071D01*
X65159185Y-131759561D01*
X65067602Y-131758267D01*
X64817630Y-131758267D01*
X64806091Y-132530850D01*
X64794553Y-133303434D01*
X64571503Y-133316257D01*
X64348452Y-133329080D01*
X64359836Y-132365469D01*
X64371220Y-131401857D01*
X64519387Y-131367276D01*
X64630091Y-131350463D01*
X64795413Y-131335904D01*
X64985304Y-131326045D01*
X65048553Y-131324232D01*
X65287184Y-131327195D01*
G36*
X63799720Y-131080934D02*
G01*
X63291720Y-131080934D01*
X63291720Y-130572934D01*
X63799720Y-130572934D01*
X63799720Y-131080934D01*
X63799720Y-131080934D01*
G37*
X63799720Y-131080934D02*
X63291720Y-131080934D01*
X63291720Y-130572934D01*
X63799720Y-130572934D01*
X63799720Y-131080934D01*
G36*
X59294073Y-108093934D02*
G01*
X59947387Y-108093934D01*
X59947387Y-108432600D01*
X59058387Y-108432600D01*
X59058387Y-108813600D01*
X59277854Y-108813600D01*
X59522866Y-108845364D01*
X59733183Y-108933024D01*
X59900373Y-109065132D01*
X60016008Y-109230244D01*
X60071658Y-109416910D01*
X60058893Y-109613685D01*
X59988779Y-109778994D01*
X59854450Y-109923940D01*
X59658320Y-110034597D01*
X59419058Y-110102997D01*
X59185387Y-110121881D01*
X59023412Y-110115240D01*
X58881536Y-110101258D01*
X58804112Y-110086380D01*
X58678871Y-110039073D01*
X58550486Y-109976763D01*
X58448212Y-109914909D01*
X58404111Y-109874994D01*
X58419590Y-109828082D01*
X58487194Y-109755556D01*
X58530518Y-109719906D01*
X58681570Y-109604694D01*
X58843992Y-109695980D01*
X59025792Y-109768653D01*
X59204548Y-109789620D01*
X59363648Y-109763064D01*
X59486479Y-109693169D01*
X59556427Y-109584116D01*
X59566387Y-109514092D01*
X59531812Y-109332532D01*
X59436461Y-109202441D01*
X59292895Y-109132979D01*
X59113674Y-109133303D01*
X59061866Y-109146223D01*
X58913690Y-109176936D01*
X58744410Y-109193605D01*
X58700861Y-109194600D01*
X58580867Y-109191817D01*
X58525636Y-109174755D01*
X58515273Y-109130344D01*
X58523642Y-109078184D01*
X58537138Y-108981918D01*
X58553126Y-108829848D01*
X58568672Y-108650660D01*
X58572370Y-108601934D01*
X58584752Y-108412649D01*
X58598114Y-108276967D01*
X58625014Y-108186050D01*
X58678010Y-108131057D01*
X58769658Y-108103151D01*
X58912516Y-108093491D01*
X59119142Y-108093239D01*
X59294073Y-108093934D01*
X59294073Y-108093934D01*
G37*
X59294073Y-108093934D02*
X59947387Y-108093934D01*
X59947387Y-108432600D01*
X59058387Y-108432600D01*
X59058387Y-108813600D01*
X59277854Y-108813600D01*
X59522866Y-108845364D01*
X59733183Y-108933024D01*
X59900373Y-109065132D01*
X60016008Y-109230244D01*
X60071658Y-109416910D01*
X60058893Y-109613685D01*
X59988779Y-109778994D01*
X59854450Y-109923940D01*
X59658320Y-110034597D01*
X59419058Y-110102997D01*
X59185387Y-110121881D01*
X59023412Y-110115240D01*
X58881536Y-110101258D01*
X58804112Y-110086380D01*
X58678871Y-110039073D01*
X58550486Y-109976763D01*
X58448212Y-109914909D01*
X58404111Y-109874994D01*
X58419590Y-109828082D01*
X58487194Y-109755556D01*
X58530518Y-109719906D01*
X58681570Y-109604694D01*
X58843992Y-109695980D01*
X59025792Y-109768653D01*
X59204548Y-109789620D01*
X59363648Y-109763064D01*
X59486479Y-109693169D01*
X59556427Y-109584116D01*
X59566387Y-109514092D01*
X59531812Y-109332532D01*
X59436461Y-109202441D01*
X59292895Y-109132979D01*
X59113674Y-109133303D01*
X59061866Y-109146223D01*
X58913690Y-109176936D01*
X58744410Y-109193605D01*
X58700861Y-109194600D01*
X58580867Y-109191817D01*
X58525636Y-109174755D01*
X58515273Y-109130344D01*
X58523642Y-109078184D01*
X58537138Y-108981918D01*
X58553126Y-108829848D01*
X58568672Y-108650660D01*
X58572370Y-108601934D01*
X58584752Y-108412649D01*
X58598114Y-108276967D01*
X58625014Y-108186050D01*
X58678010Y-108131057D01*
X58769658Y-108103151D01*
X58912516Y-108093491D01*
X59119142Y-108093239D01*
X59294073Y-108093934D01*
G36*
X88909228Y-108113719D02*
G01*
X89022458Y-108127397D01*
X89175609Y-108151184D01*
X89293039Y-108173723D01*
X89352157Y-108190604D01*
X89354458Y-108192227D01*
X89351631Y-108240070D01*
X89315898Y-108327266D01*
X89312614Y-108333608D01*
X89278651Y-108391436D01*
X89238081Y-108426903D01*
X89171358Y-108445472D01*
X89058933Y-108452605D01*
X88882697Y-108453767D01*
X88704794Y-108455094D01*
X88589167Y-108463281D01*
X88513426Y-108484637D01*
X88455181Y-108525473D01*
X88392115Y-108592018D01*
X88304723Y-108698158D01*
X88273718Y-108768195D01*
X88305887Y-108809431D01*
X88408015Y-108829168D01*
X88586889Y-108834708D01*
X88617722Y-108834767D01*
X88918402Y-108858202D01*
X89150265Y-108929550D01*
X89315348Y-109050371D01*
X89415688Y-109222227D01*
X89453320Y-109446681D01*
X89453720Y-109475912D01*
X89442826Y-109623297D01*
X89399580Y-109731096D01*
X89327559Y-109821860D01*
X89129716Y-109979042D01*
X88884009Y-110081778D01*
X88610710Y-110125878D01*
X88330091Y-110107153D01*
X88162553Y-110062591D01*
X87985387Y-109963329D01*
X87839295Y-109813048D01*
X87747503Y-109637614D01*
X87734342Y-109585654D01*
X87723848Y-109475156D01*
X87720348Y-109312157D01*
X87720420Y-109308874D01*
X88235658Y-109308874D01*
X88237194Y-109445442D01*
X88283434Y-109623961D01*
X88370567Y-109733119D01*
X88508247Y-109782252D01*
X88590799Y-109787267D01*
X88742160Y-109769294D01*
X88845851Y-109708355D01*
X88859404Y-109694618D01*
X88929913Y-109565230D01*
X88941366Y-109414678D01*
X88893640Y-109277384D01*
X88861053Y-109236934D01*
X88763910Y-109176375D01*
X88618824Y-109153131D01*
X88572811Y-109152267D01*
X88393049Y-109166799D01*
X88283948Y-109216133D01*
X88235658Y-109308874D01*
X87720420Y-109308874D01*
X87724384Y-109128576D01*
X87725988Y-109095128D01*
X87767408Y-108782712D01*
X87858249Y-108536215D01*
X88003077Y-108349748D01*
X88206461Y-108217421D01*
X88471477Y-108133653D01*
X88681829Y-108106335D01*
X88909228Y-108113719D01*
X88909228Y-108113719D01*
G37*
X88909228Y-108113719D02*
X89022458Y-108127397D01*
X89175609Y-108151184D01*
X89293039Y-108173723D01*
X89352157Y-108190604D01*
X89354458Y-108192227D01*
X89351631Y-108240070D01*
X89315898Y-108327266D01*
X89312614Y-108333608D01*
X89278651Y-108391436D01*
X89238081Y-108426903D01*
X89171358Y-108445472D01*
X89058933Y-108452605D01*
X88882697Y-108453767D01*
X88704794Y-108455094D01*
X88589167Y-108463281D01*
X88513426Y-108484637D01*
X88455181Y-108525473D01*
X88392115Y-108592018D01*
X88304723Y-108698158D01*
X88273718Y-108768195D01*
X88305887Y-108809431D01*
X88408015Y-108829168D01*
X88586889Y-108834708D01*
X88617722Y-108834767D01*
X88918402Y-108858202D01*
X89150265Y-108929550D01*
X89315348Y-109050371D01*
X89415688Y-109222227D01*
X89453320Y-109446681D01*
X89453720Y-109475912D01*
X89442826Y-109623297D01*
X89399580Y-109731096D01*
X89327559Y-109821860D01*
X89129716Y-109979042D01*
X88884009Y-110081778D01*
X88610710Y-110125878D01*
X88330091Y-110107153D01*
X88162553Y-110062591D01*
X87985387Y-109963329D01*
X87839295Y-109813048D01*
X87747503Y-109637614D01*
X87734342Y-109585654D01*
X87723848Y-109475156D01*
X87720348Y-109312157D01*
X87720420Y-109308874D01*
X88235658Y-109308874D01*
X88237194Y-109445442D01*
X88283434Y-109623961D01*
X88370567Y-109733119D01*
X88508247Y-109782252D01*
X88590799Y-109787267D01*
X88742160Y-109769294D01*
X88845851Y-109708355D01*
X88859404Y-109694618D01*
X88929913Y-109565230D01*
X88941366Y-109414678D01*
X88893640Y-109277384D01*
X88861053Y-109236934D01*
X88763910Y-109176375D01*
X88618824Y-109153131D01*
X88572811Y-109152267D01*
X88393049Y-109166799D01*
X88283948Y-109216133D01*
X88235658Y-109308874D01*
X87720420Y-109308874D01*
X87724384Y-109128576D01*
X87725988Y-109095128D01*
X87767408Y-108782712D01*
X87858249Y-108536215D01*
X88003077Y-108349748D01*
X88206461Y-108217421D01*
X88471477Y-108133653D01*
X88681829Y-108106335D01*
X88909228Y-108113719D01*
G36*
X119002387Y-108246463D02*
G01*
X118987986Y-108353415D01*
X118935798Y-108458521D01*
X118832343Y-108588037D01*
X118819886Y-108601978D01*
X118645239Y-108814856D01*
X118465787Y-109065616D01*
X118296718Y-109330279D01*
X118153225Y-109584869D01*
X118050497Y-109805407D01*
X118039844Y-109833252D01*
X117931786Y-110125934D01*
X117684967Y-110125934D01*
X117547615Y-110124277D01*
X117477922Y-110113773D01*
X117458885Y-110086117D01*
X117473497Y-110033005D01*
X117476798Y-110024279D01*
X117547826Y-109860566D01*
X117648340Y-109659547D01*
X117768860Y-109437203D01*
X117899910Y-109209519D01*
X118032008Y-108992479D01*
X118155677Y-108802066D01*
X118261438Y-108654265D01*
X118339812Y-108565059D01*
X118344587Y-108560956D01*
X118398700Y-108499507D01*
X118409720Y-108469750D01*
X118369961Y-108456171D01*
X118260968Y-108444817D01*
X118098163Y-108436692D01*
X117896968Y-108432796D01*
X117838220Y-108432600D01*
X117266720Y-108432600D01*
X117266720Y-108093934D01*
X119002387Y-108093934D01*
X119002387Y-108246463D01*
X119002387Y-108246463D01*
G37*
X119002387Y-108246463D02*
X118987986Y-108353415D01*
X118935798Y-108458521D01*
X118832343Y-108588037D01*
X118819886Y-108601978D01*
X118645239Y-108814856D01*
X118465787Y-109065616D01*
X118296718Y-109330279D01*
X118153225Y-109584869D01*
X118050497Y-109805407D01*
X118039844Y-109833252D01*
X117931786Y-110125934D01*
X117684967Y-110125934D01*
X117547615Y-110124277D01*
X117477922Y-110113773D01*
X117458885Y-110086117D01*
X117473497Y-110033005D01*
X117476798Y-110024279D01*
X117547826Y-109860566D01*
X117648340Y-109659547D01*
X117768860Y-109437203D01*
X117899910Y-109209519D01*
X118032008Y-108992479D01*
X118155677Y-108802066D01*
X118261438Y-108654265D01*
X118339812Y-108565059D01*
X118344587Y-108560956D01*
X118398700Y-108499507D01*
X118409720Y-108469750D01*
X118369961Y-108456171D01*
X118260968Y-108444817D01*
X118098163Y-108436692D01*
X117896968Y-108432796D01*
X117838220Y-108432600D01*
X117266720Y-108432600D01*
X117266720Y-108093934D01*
X119002387Y-108093934D01*
X119002387Y-108246463D01*
G36*
X147575776Y-108031315D02*
G01*
X147653869Y-108049170D01*
X147807419Y-108114318D01*
X147961418Y-108217745D01*
X148091771Y-108339338D01*
X148174384Y-108458982D01*
X148186953Y-108494171D01*
X148185711Y-108643046D01*
X148122957Y-108806265D01*
X148031905Y-108931027D01*
X147941730Y-109027287D01*
X148077058Y-109150891D01*
X148166270Y-109249439D01*
X148211056Y-109355676D01*
X148220530Y-109499134D01*
X148214661Y-109596644D01*
X148189149Y-109734277D01*
X148127630Y-109838412D01*
X148012321Y-109933301D01*
X147930802Y-109983766D01*
X147799591Y-110049572D01*
X147664244Y-110087906D01*
X147490754Y-110107120D01*
X147412998Y-110110942D01*
X147239216Y-110112316D01*
X147084367Y-110104026D01*
X146979953Y-110087847D01*
X146974731Y-110086268D01*
X146750380Y-109983960D01*
X146578183Y-109844069D01*
X146469232Y-109678379D01*
X146434387Y-109512100D01*
X146445748Y-109456826D01*
X146984720Y-109456826D01*
X147005728Y-109622724D01*
X147075573Y-109726455D01*
X147204480Y-109777608D01*
X147337198Y-109787267D01*
X147516871Y-109768880D01*
X147626970Y-109717206D01*
X147688653Y-109608585D01*
X147704387Y-109485348D01*
X147681587Y-109352756D01*
X147605387Y-109261143D01*
X147464081Y-109200231D01*
X147351636Y-109175610D01*
X147176982Y-109172318D01*
X147057603Y-109232695D01*
X146994763Y-109355771D01*
X146984720Y-109456826D01*
X146445748Y-109456826D01*
X146466953Y-109353667D01*
X146549871Y-109197883D01*
X146648560Y-109096009D01*
X146736217Y-109034612D01*
X146627635Y-108926030D01*
X146542429Y-108786374D01*
X146517977Y-108646560D01*
X147027616Y-108646560D01*
X147045469Y-108769898D01*
X147060646Y-108800908D01*
X147158093Y-108883983D01*
X147297133Y-108925272D01*
X147443782Y-108921156D01*
X147564060Y-108868015D01*
X147577387Y-108855934D01*
X147644743Y-108736278D01*
X147658085Y-108590748D01*
X147616111Y-108457701D01*
X147591992Y-108425350D01*
X147491670Y-108368209D01*
X147351860Y-108348001D01*
X147209528Y-108365285D01*
X147104470Y-108417995D01*
X147048964Y-108514566D01*
X147027616Y-108646560D01*
X146517977Y-108646560D01*
X146512215Y-108613617D01*
X146537422Y-108439395D01*
X146618479Y-108295350D01*
X146619070Y-108294710D01*
X146806207Y-108150466D01*
X147043282Y-108054868D01*
X147307427Y-108013342D01*
X147575776Y-108031315D01*
X147575776Y-108031315D01*
G37*
X147575776Y-108031315D02*
X147653869Y-108049170D01*
X147807419Y-108114318D01*
X147961418Y-108217745D01*
X148091771Y-108339338D01*
X148174384Y-108458982D01*
X148186953Y-108494171D01*
X148185711Y-108643046D01*
X148122957Y-108806265D01*
X148031905Y-108931027D01*
X147941730Y-109027287D01*
X148077058Y-109150891D01*
X148166270Y-109249439D01*
X148211056Y-109355676D01*
X148220530Y-109499134D01*
X148214661Y-109596644D01*
X148189149Y-109734277D01*
X148127630Y-109838412D01*
X148012321Y-109933301D01*
X147930802Y-109983766D01*
X147799591Y-110049572D01*
X147664244Y-110087906D01*
X147490754Y-110107120D01*
X147412998Y-110110942D01*
X147239216Y-110112316D01*
X147084367Y-110104026D01*
X146979953Y-110087847D01*
X146974731Y-110086268D01*
X146750380Y-109983960D01*
X146578183Y-109844069D01*
X146469232Y-109678379D01*
X146434387Y-109512100D01*
X146445748Y-109456826D01*
X146984720Y-109456826D01*
X147005728Y-109622724D01*
X147075573Y-109726455D01*
X147204480Y-109777608D01*
X147337198Y-109787267D01*
X147516871Y-109768880D01*
X147626970Y-109717206D01*
X147688653Y-109608585D01*
X147704387Y-109485348D01*
X147681587Y-109352756D01*
X147605387Y-109261143D01*
X147464081Y-109200231D01*
X147351636Y-109175610D01*
X147176982Y-109172318D01*
X147057603Y-109232695D01*
X146994763Y-109355771D01*
X146984720Y-109456826D01*
X146445748Y-109456826D01*
X146466953Y-109353667D01*
X146549871Y-109197883D01*
X146648560Y-109096009D01*
X146736217Y-109034612D01*
X146627635Y-108926030D01*
X146542429Y-108786374D01*
X146517977Y-108646560D01*
X147027616Y-108646560D01*
X147045469Y-108769898D01*
X147060646Y-108800908D01*
X147158093Y-108883983D01*
X147297133Y-108925272D01*
X147443782Y-108921156D01*
X147564060Y-108868015D01*
X147577387Y-108855934D01*
X147644743Y-108736278D01*
X147658085Y-108590748D01*
X147616111Y-108457701D01*
X147591992Y-108425350D01*
X147491670Y-108368209D01*
X147351860Y-108348001D01*
X147209528Y-108365285D01*
X147104470Y-108417995D01*
X147048964Y-108514566D01*
X147027616Y-108646560D01*
X146517977Y-108646560D01*
X146512215Y-108613617D01*
X146537422Y-108439395D01*
X146618479Y-108295350D01*
X146619070Y-108294710D01*
X146806207Y-108150466D01*
X147043282Y-108054868D01*
X147307427Y-108013342D01*
X147575776Y-108031315D01*
G36*
X88800626Y-51070934D02*
G01*
X90516005Y-51070935D01*
X92148765Y-51070944D01*
X93700951Y-51070969D01*
X95174610Y-51071015D01*
X96571789Y-51071090D01*
X97894535Y-51071202D01*
X99144895Y-51071356D01*
X100324914Y-51071561D01*
X101436640Y-51071824D01*
X102482119Y-51072151D01*
X103463398Y-51072550D01*
X104382523Y-51073028D01*
X105241542Y-51073592D01*
X106042501Y-51074248D01*
X106787446Y-51075005D01*
X107478424Y-51075869D01*
X108117483Y-51076848D01*
X108706668Y-51077947D01*
X109248026Y-51079175D01*
X109743604Y-51080539D01*
X110195448Y-51082046D01*
X110605606Y-51083702D01*
X110976123Y-51085515D01*
X111309047Y-51087493D01*
X111606424Y-51089641D01*
X111870301Y-51091968D01*
X112102725Y-51094480D01*
X112305741Y-51097184D01*
X112481397Y-51100088D01*
X112631740Y-51103198D01*
X112758816Y-51106522D01*
X112864671Y-51110067D01*
X112951353Y-51113840D01*
X113020909Y-51117848D01*
X113075383Y-51122098D01*
X113116825Y-51126598D01*
X113147279Y-51131353D01*
X113168793Y-51136373D01*
X113183413Y-51141662D01*
X113193187Y-51147229D01*
X113200160Y-51153081D01*
X113202720Y-51155600D01*
X113213071Y-51166862D01*
X113222542Y-51181467D01*
X113231172Y-51203056D01*
X113239001Y-51235268D01*
X113246066Y-51281744D01*
X113252408Y-51346125D01*
X113258066Y-51432050D01*
X113263078Y-51543160D01*
X113267484Y-51683096D01*
X113271322Y-51855498D01*
X113274632Y-52064005D01*
X113277453Y-52312259D01*
X113279825Y-52603900D01*
X113281785Y-52942568D01*
X113283373Y-53331904D01*
X113284629Y-53775548D01*
X113285591Y-54277139D01*
X113286299Y-54840320D01*
X113286791Y-55468729D01*
X113287106Y-56166007D01*
X113287285Y-56935795D01*
X113287365Y-57781733D01*
X113287386Y-58707461D01*
X113287387Y-59040568D01*
X113287386Y-66840870D01*
X113636637Y-66919325D01*
X114394714Y-67122787D01*
X115171970Y-67393787D01*
X115950653Y-67723671D01*
X116713013Y-68103789D01*
X117441297Y-68525489D01*
X118117755Y-68980120D01*
X118554259Y-69316040D01*
X118702675Y-69435487D01*
X118826916Y-69531972D01*
X118912612Y-69594557D01*
X118944398Y-69612934D01*
X118981706Y-69584774D01*
X119069632Y-69506349D01*
X119198409Y-69386740D01*
X119358270Y-69235030D01*
X119539448Y-69060300D01*
X119555060Y-69045123D01*
X119962356Y-68656642D01*
X120327205Y-68326341D01*
X120660038Y-68046280D01*
X120971292Y-67808520D01*
X121271399Y-67605120D01*
X121570793Y-67428140D01*
X121879910Y-67269640D01*
X121902220Y-67259014D01*
X122458071Y-67036532D01*
X123011441Y-66898046D01*
X123564608Y-66843575D01*
X124119850Y-66873137D01*
X124679443Y-66986749D01*
X125245665Y-67184432D01*
X125475753Y-67287636D01*
X125759651Y-67430926D01*
X126035264Y-67588009D01*
X126312301Y-67766089D01*
X126600474Y-67972367D01*
X126909494Y-68214045D01*
X127249070Y-68498325D01*
X127628915Y-68832410D01*
X127944909Y-69118932D01*
X128123703Y-69280541D01*
X128282450Y-69419979D01*
X128410146Y-69527903D01*
X128495789Y-69594971D01*
X128526728Y-69612934D01*
X128575240Y-69588928D01*
X128676592Y-69523457D01*
X128816259Y-69426341D01*
X128979714Y-69307402D01*
X128990275Y-69299552D01*
X129792919Y-68751756D01*
X130651203Y-68259627D01*
X131551323Y-67830397D01*
X132479474Y-67471297D01*
X132480845Y-67470827D01*
X132781328Y-67371896D01*
X133094005Y-67276254D01*
X133407793Y-67186586D01*
X133711612Y-67105576D01*
X133994380Y-67035908D01*
X134245016Y-66980266D01*
X134452438Y-66941334D01*
X134605565Y-66921796D01*
X134693316Y-66924335D01*
X134707172Y-66931601D01*
X134736764Y-66995189D01*
X134763921Y-67099617D01*
X134764565Y-67103026D01*
X134775111Y-67192861D01*
X134747611Y-67236554D01*
X134661321Y-67259428D01*
X134632580Y-67264151D01*
X134427415Y-67303621D01*
X134161376Y-67364601D01*
X133853891Y-67441773D01*
X133524390Y-67529819D01*
X133192301Y-67623422D01*
X132877055Y-67717264D01*
X132598080Y-67806027D01*
X132397879Y-67875766D01*
X131690826Y-68164096D01*
X130977976Y-68504892D01*
X130283502Y-68885142D01*
X129631577Y-69291835D01*
X129191466Y-69601635D01*
X128815521Y-69881551D01*
X128914870Y-69959540D01*
X129729194Y-70545657D01*
X130597097Y-71068941D01*
X131512541Y-71526679D01*
X132469486Y-71916155D01*
X133461895Y-72234655D01*
X134483728Y-72479465D01*
X134549354Y-72492436D01*
X134686594Y-72523052D01*
X134758263Y-72561080D01*
X134775660Y-72627552D01*
X134750085Y-72743503D01*
X134726237Y-72821705D01*
X134711687Y-72844264D01*
X134678579Y-72856252D01*
X134617240Y-72856111D01*
X134517997Y-72842285D01*
X134371178Y-72813217D01*
X134167110Y-72767350D01*
X133896122Y-72703128D01*
X133709221Y-72658005D01*
X132689575Y-72369492D01*
X131708017Y-72007898D01*
X130768100Y-71574878D01*
X129873375Y-71072088D01*
X129027396Y-70501181D01*
X128940399Y-70436495D01*
X128527912Y-70126954D01*
X127859084Y-70727194D01*
X127566642Y-70989064D01*
X127326403Y-71202405D01*
X127128014Y-71375739D01*
X126961118Y-71517587D01*
X126815362Y-71636470D01*
X126680389Y-71740910D01*
X126545845Y-71839428D01*
X126401375Y-71940547D01*
X126302733Y-72007974D01*
X125782559Y-72330654D01*
X125279426Y-72577688D01*
X124781964Y-72753184D01*
X124278801Y-72861251D01*
X123823858Y-72903773D01*
X123439982Y-72908845D01*
X123107987Y-72886945D01*
X122798299Y-72834206D01*
X122481345Y-72746760D01*
X122389053Y-72716140D01*
X122028933Y-72576714D01*
X121673248Y-72404227D01*
X121313688Y-72192835D01*
X120941946Y-71936693D01*
X120549712Y-71629959D01*
X120128679Y-71266789D01*
X119670537Y-70841338D01*
X119527570Y-70703552D01*
X119311138Y-70496254D01*
X119146593Y-70345616D01*
X119027815Y-70246626D01*
X118948683Y-70194271D01*
X118903077Y-70183539D01*
X118896406Y-70186624D01*
X118843764Y-70226114D01*
X118738076Y-70307375D01*
X118592907Y-70419911D01*
X118421822Y-70553227D01*
X118352053Y-70607767D01*
X117602577Y-71144406D01*
X116794532Y-71630094D01*
X115941377Y-72058387D01*
X115056568Y-72422839D01*
X114153562Y-72717006D01*
X113700137Y-72835553D01*
X113287387Y-72934510D01*
X113287387Y-87937122D01*
X113175844Y-88024861D01*
X113064302Y-88112600D01*
X64515538Y-88112600D01*
X64307720Y-87904782D01*
X64307720Y-69890146D01*
X113287387Y-69890146D01*
X113287487Y-70434365D01*
X113287899Y-70899961D01*
X113288790Y-71292978D01*
X113290329Y-71619461D01*
X113292683Y-71885454D01*
X113296019Y-72097000D01*
X113300506Y-72260143D01*
X113306310Y-72380928D01*
X113313600Y-72465399D01*
X113322543Y-72519600D01*
X113333307Y-72549574D01*
X113346059Y-72561365D01*
X113360967Y-72561019D01*
X113361470Y-72560878D01*
X113432732Y-72541303D01*
X113564042Y-72505838D01*
X113733627Y-72460350D01*
X113844203Y-72430817D01*
X114817518Y-72128377D01*
X115753235Y-71750432D01*
X116649620Y-71297856D01*
X117504936Y-70771522D01*
X118297254Y-70188500D01*
X118671622Y-69888913D01*
X118671252Y-69888597D01*
X119202442Y-69888597D01*
X119980831Y-70618809D01*
X120214355Y-70835469D01*
X120446887Y-71046843D01*
X120665319Y-71241340D01*
X120856546Y-71407367D01*
X121007461Y-71533334D01*
X121072521Y-71584347D01*
X121621603Y-71955497D01*
X122168015Y-72242076D01*
X122711860Y-72444135D01*
X122961212Y-72508717D01*
X123231121Y-72548343D01*
X123551666Y-72563121D01*
X123892885Y-72554133D01*
X124224814Y-72522461D01*
X124517491Y-72469184D01*
X124590387Y-72449951D01*
X125039202Y-72289695D01*
X125510906Y-72063536D01*
X125989045Y-71780544D01*
X126457168Y-71449788D01*
X126580053Y-71353194D01*
X126673183Y-71275729D01*
X126807915Y-71160239D01*
X126974143Y-71015709D01*
X127161765Y-70851126D01*
X127360674Y-70675476D01*
X127560767Y-70497746D01*
X127751939Y-70326921D01*
X127924086Y-70171988D01*
X128067103Y-70041934D01*
X128170885Y-69945745D01*
X128225328Y-69892407D01*
X128231053Y-69884893D01*
X128200875Y-69853333D01*
X128117091Y-69775031D01*
X127989824Y-69658985D01*
X127829199Y-69514190D01*
X127645338Y-69349645D01*
X127448367Y-69174347D01*
X127248408Y-68997293D01*
X127055586Y-68827479D01*
X126880025Y-68673905D01*
X126731848Y-68545566D01*
X126621180Y-68451460D01*
X126580053Y-68417622D01*
X126022264Y-68007887D01*
X125472579Y-67682171D01*
X124929674Y-67440351D01*
X124392227Y-67282308D01*
X123858916Y-67207918D01*
X123328417Y-67217060D01*
X122799409Y-67309614D01*
X122270569Y-67485456D01*
X121740574Y-67744465D01*
X121416744Y-67942853D01*
X121163206Y-68123981D01*
X120861093Y-68364417D01*
X120516588Y-68658890D01*
X120135875Y-69002134D01*
X119769164Y-69346695D01*
X119202442Y-69888597D01*
X118671252Y-69888597D01*
X118530087Y-69768259D01*
X117951460Y-69312367D01*
X117310042Y-68873957D01*
X116627589Y-68465971D01*
X115925855Y-68101351D01*
X115226596Y-67793040D01*
X115176830Y-67773322D01*
X114936300Y-67684478D01*
X114642601Y-67584718D01*
X114321197Y-67481924D01*
X113997551Y-67383977D01*
X113697127Y-67298758D01*
X113445390Y-67234150D01*
X113403803Y-67224548D01*
X113287387Y-67198320D01*
X113287387Y-69890146D01*
X64307720Y-69890146D01*
X64307720Y-51294018D01*
X64395459Y-51182476D01*
X64483198Y-51070933D01*
X88800626Y-51070934D01*
X88800626Y-51070934D01*
G37*
X88800626Y-51070934D02*
X90516005Y-51070935D01*
X92148765Y-51070944D01*
X93700951Y-51070969D01*
X95174610Y-51071015D01*
X96571789Y-51071090D01*
X97894535Y-51071202D01*
X99144895Y-51071356D01*
X100324914Y-51071561D01*
X101436640Y-51071824D01*
X102482119Y-51072151D01*
X103463398Y-51072550D01*
X104382523Y-51073028D01*
X105241542Y-51073592D01*
X106042501Y-51074248D01*
X106787446Y-51075005D01*
X107478424Y-51075869D01*
X108117483Y-51076848D01*
X108706668Y-51077947D01*
X109248026Y-51079175D01*
X109743604Y-51080539D01*
X110195448Y-51082046D01*
X110605606Y-51083702D01*
X110976123Y-51085515D01*
X111309047Y-51087493D01*
X111606424Y-51089641D01*
X111870301Y-51091968D01*
X112102725Y-51094480D01*
X112305741Y-51097184D01*
X112481397Y-51100088D01*
X112631740Y-51103198D01*
X112758816Y-51106522D01*
X112864671Y-51110067D01*
X112951353Y-51113840D01*
X113020909Y-51117848D01*
X113075383Y-51122098D01*
X113116825Y-51126598D01*
X113147279Y-51131353D01*
X113168793Y-51136373D01*
X113183413Y-51141662D01*
X113193187Y-51147229D01*
X113200160Y-51153081D01*
X113202720Y-51155600D01*
X113213071Y-51166862D01*
X113222542Y-51181467D01*
X113231172Y-51203056D01*
X113239001Y-51235268D01*
X113246066Y-51281744D01*
X113252408Y-51346125D01*
X113258066Y-51432050D01*
X113263078Y-51543160D01*
X113267484Y-51683096D01*
X113271322Y-51855498D01*
X113274632Y-52064005D01*
X113277453Y-52312259D01*
X113279825Y-52603900D01*
X113281785Y-52942568D01*
X113283373Y-53331904D01*
X113284629Y-53775548D01*
X113285591Y-54277139D01*
X113286299Y-54840320D01*
X113286791Y-55468729D01*
X113287106Y-56166007D01*
X113287285Y-56935795D01*
X113287365Y-57781733D01*
X113287386Y-58707461D01*
X113287387Y-59040568D01*
X113287386Y-66840870D01*
X113636637Y-66919325D01*
X114394714Y-67122787D01*
X115171970Y-67393787D01*
X115950653Y-67723671D01*
X116713013Y-68103789D01*
X117441297Y-68525489D01*
X118117755Y-68980120D01*
X118554259Y-69316040D01*
X118702675Y-69435487D01*
X118826916Y-69531972D01*
X118912612Y-69594557D01*
X118944398Y-69612934D01*
X118981706Y-69584774D01*
X119069632Y-69506349D01*
X119198409Y-69386740D01*
X119358270Y-69235030D01*
X119539448Y-69060300D01*
X119555060Y-69045123D01*
X119962356Y-68656642D01*
X120327205Y-68326341D01*
X120660038Y-68046280D01*
X120971292Y-67808520D01*
X121271399Y-67605120D01*
X121570793Y-67428140D01*
X121879910Y-67269640D01*
X121902220Y-67259014D01*
X122458071Y-67036532D01*
X123011441Y-66898046D01*
X123564608Y-66843575D01*
X124119850Y-66873137D01*
X124679443Y-66986749D01*
X125245665Y-67184432D01*
X125475753Y-67287636D01*
X125759651Y-67430926D01*
X126035264Y-67588009D01*
X126312301Y-67766089D01*
X126600474Y-67972367D01*
X126909494Y-68214045D01*
X127249070Y-68498325D01*
X127628915Y-68832410D01*
X127944909Y-69118932D01*
X128123703Y-69280541D01*
X128282450Y-69419979D01*
X128410146Y-69527903D01*
X128495789Y-69594971D01*
X128526728Y-69612934D01*
X128575240Y-69588928D01*
X128676592Y-69523457D01*
X128816259Y-69426341D01*
X128979714Y-69307402D01*
X128990275Y-69299552D01*
X129792919Y-68751756D01*
X130651203Y-68259627D01*
X131551323Y-67830397D01*
X132479474Y-67471297D01*
X132480845Y-67470827D01*
X132781328Y-67371896D01*
X133094005Y-67276254D01*
X133407793Y-67186586D01*
X133711612Y-67105576D01*
X133994380Y-67035908D01*
X134245016Y-66980266D01*
X134452438Y-66941334D01*
X134605565Y-66921796D01*
X134693316Y-66924335D01*
X134707172Y-66931601D01*
X134736764Y-66995189D01*
X134763921Y-67099617D01*
X134764565Y-67103026D01*
X134775111Y-67192861D01*
X134747611Y-67236554D01*
X134661321Y-67259428D01*
X134632580Y-67264151D01*
X134427415Y-67303621D01*
X134161376Y-67364601D01*
X133853891Y-67441773D01*
X133524390Y-67529819D01*
X133192301Y-67623422D01*
X132877055Y-67717264D01*
X132598080Y-67806027D01*
X132397879Y-67875766D01*
X131690826Y-68164096D01*
X130977976Y-68504892D01*
X130283502Y-68885142D01*
X129631577Y-69291835D01*
X129191466Y-69601635D01*
X128815521Y-69881551D01*
X128914870Y-69959540D01*
X129729194Y-70545657D01*
X130597097Y-71068941D01*
X131512541Y-71526679D01*
X132469486Y-71916155D01*
X133461895Y-72234655D01*
X134483728Y-72479465D01*
X134549354Y-72492436D01*
X134686594Y-72523052D01*
X134758263Y-72561080D01*
X134775660Y-72627552D01*
X134750085Y-72743503D01*
X134726237Y-72821705D01*
X134711687Y-72844264D01*
X134678579Y-72856252D01*
X134617240Y-72856111D01*
X134517997Y-72842285D01*
X134371178Y-72813217D01*
X134167110Y-72767350D01*
X133896122Y-72703128D01*
X133709221Y-72658005D01*
X132689575Y-72369492D01*
X131708017Y-72007898D01*
X130768100Y-71574878D01*
X129873375Y-71072088D01*
X129027396Y-70501181D01*
X128940399Y-70436495D01*
X128527912Y-70126954D01*
X127859084Y-70727194D01*
X127566642Y-70989064D01*
X127326403Y-71202405D01*
X127128014Y-71375739D01*
X126961118Y-71517587D01*
X126815362Y-71636470D01*
X126680389Y-71740910D01*
X126545845Y-71839428D01*
X126401375Y-71940547D01*
X126302733Y-72007974D01*
X125782559Y-72330654D01*
X125279426Y-72577688D01*
X124781964Y-72753184D01*
X124278801Y-72861251D01*
X123823858Y-72903773D01*
X123439982Y-72908845D01*
X123107987Y-72886945D01*
X122798299Y-72834206D01*
X122481345Y-72746760D01*
X122389053Y-72716140D01*
X122028933Y-72576714D01*
X121673248Y-72404227D01*
X121313688Y-72192835D01*
X120941946Y-71936693D01*
X120549712Y-71629959D01*
X120128679Y-71266789D01*
X119670537Y-70841338D01*
X119527570Y-70703552D01*
X119311138Y-70496254D01*
X119146593Y-70345616D01*
X119027815Y-70246626D01*
X118948683Y-70194271D01*
X118903077Y-70183539D01*
X118896406Y-70186624D01*
X118843764Y-70226114D01*
X118738076Y-70307375D01*
X118592907Y-70419911D01*
X118421822Y-70553227D01*
X118352053Y-70607767D01*
X117602577Y-71144406D01*
X116794532Y-71630094D01*
X115941377Y-72058387D01*
X115056568Y-72422839D01*
X114153562Y-72717006D01*
X113700137Y-72835553D01*
X113287387Y-72934510D01*
X113287387Y-87937122D01*
X113175844Y-88024861D01*
X113064302Y-88112600D01*
X64515538Y-88112600D01*
X64307720Y-87904782D01*
X64307720Y-69890146D01*
X113287387Y-69890146D01*
X113287487Y-70434365D01*
X113287899Y-70899961D01*
X113288790Y-71292978D01*
X113290329Y-71619461D01*
X113292683Y-71885454D01*
X113296019Y-72097000D01*
X113300506Y-72260143D01*
X113306310Y-72380928D01*
X113313600Y-72465399D01*
X113322543Y-72519600D01*
X113333307Y-72549574D01*
X113346059Y-72561365D01*
X113360967Y-72561019D01*
X113361470Y-72560878D01*
X113432732Y-72541303D01*
X113564042Y-72505838D01*
X113733627Y-72460350D01*
X113844203Y-72430817D01*
X114817518Y-72128377D01*
X115753235Y-71750432D01*
X116649620Y-71297856D01*
X117504936Y-70771522D01*
X118297254Y-70188500D01*
X118671622Y-69888913D01*
X118671252Y-69888597D01*
X119202442Y-69888597D01*
X119980831Y-70618809D01*
X120214355Y-70835469D01*
X120446887Y-71046843D01*
X120665319Y-71241340D01*
X120856546Y-71407367D01*
X121007461Y-71533334D01*
X121072521Y-71584347D01*
X121621603Y-71955497D01*
X122168015Y-72242076D01*
X122711860Y-72444135D01*
X122961212Y-72508717D01*
X123231121Y-72548343D01*
X123551666Y-72563121D01*
X123892885Y-72554133D01*
X124224814Y-72522461D01*
X124517491Y-72469184D01*
X124590387Y-72449951D01*
X125039202Y-72289695D01*
X125510906Y-72063536D01*
X125989045Y-71780544D01*
X126457168Y-71449788D01*
X126580053Y-71353194D01*
X126673183Y-71275729D01*
X126807915Y-71160239D01*
X126974143Y-71015709D01*
X127161765Y-70851126D01*
X127360674Y-70675476D01*
X127560767Y-70497746D01*
X127751939Y-70326921D01*
X127924086Y-70171988D01*
X128067103Y-70041934D01*
X128170885Y-69945745D01*
X128225328Y-69892407D01*
X128231053Y-69884893D01*
X128200875Y-69853333D01*
X128117091Y-69775031D01*
X127989824Y-69658985D01*
X127829199Y-69514190D01*
X127645338Y-69349645D01*
X127448367Y-69174347D01*
X127248408Y-68997293D01*
X127055586Y-68827479D01*
X126880025Y-68673905D01*
X126731848Y-68545566D01*
X126621180Y-68451460D01*
X126580053Y-68417622D01*
X126022264Y-68007887D01*
X125472579Y-67682171D01*
X124929674Y-67440351D01*
X124392227Y-67282308D01*
X123858916Y-67207918D01*
X123328417Y-67217060D01*
X122799409Y-67309614D01*
X122270569Y-67485456D01*
X121740574Y-67744465D01*
X121416744Y-67942853D01*
X121163206Y-68123981D01*
X120861093Y-68364417D01*
X120516588Y-68658890D01*
X120135875Y-69002134D01*
X119769164Y-69346695D01*
X119202442Y-69888597D01*
X118671252Y-69888597D01*
X118530087Y-69768259D01*
X117951460Y-69312367D01*
X117310042Y-68873957D01*
X116627589Y-68465971D01*
X115925855Y-68101351D01*
X115226596Y-67793040D01*
X115176830Y-67773322D01*
X114936300Y-67684478D01*
X114642601Y-67584718D01*
X114321197Y-67481924D01*
X113997551Y-67383977D01*
X113697127Y-67298758D01*
X113445390Y-67234150D01*
X113403803Y-67224548D01*
X113287387Y-67198320D01*
X113287387Y-69890146D01*
X64307720Y-69890146D01*
X64307720Y-51294018D01*
X64395459Y-51182476D01*
X64483198Y-51070933D01*
X88800626Y-51070934D01*
G36*
X142573020Y-80682291D02*
G01*
X142954618Y-80767755D01*
X143303574Y-80929897D01*
X143615183Y-81167088D01*
X143631976Y-81183079D01*
X143771732Y-81317754D01*
X143746220Y-84706792D01*
X143606529Y-84990422D01*
X143440779Y-85258083D01*
X143231374Y-85470356D01*
X142972307Y-85630036D01*
X142657571Y-85739916D01*
X142281161Y-85802790D01*
X141837071Y-85821451D01*
X141820053Y-85821336D01*
X141605366Y-85816629D01*
X141403663Y-85807019D01*
X141240738Y-85794018D01*
X141157272Y-85782514D01*
X141002479Y-85738968D01*
X140840191Y-85674848D01*
X140806784Y-85658660D01*
X140632245Y-85569617D01*
X140788603Y-85285358D01*
X140882163Y-85115089D01*
X140949381Y-85006821D01*
X141007891Y-84950204D01*
X141075328Y-84934891D01*
X141169326Y-84950530D01*
X141300472Y-84984941D01*
X141613459Y-85043581D01*
X141921346Y-85059116D01*
X142205330Y-85032930D01*
X142446611Y-84966402D01*
X142589044Y-84890289D01*
X142739316Y-84734005D01*
X142834791Y-84516515D01*
X142861018Y-84394221D01*
X142888405Y-84222954D01*
X142661146Y-84283441D01*
X142284696Y-84345165D01*
X141919308Y-84332069D01*
X141574746Y-84249157D01*
X141260773Y-84101432D01*
X140987152Y-83893897D01*
X140763647Y-83631557D01*
X140600020Y-83319416D01*
X140561087Y-83207180D01*
X140511524Y-82970664D01*
X140488240Y-82691341D01*
X140488377Y-82674699D01*
X141398226Y-82674699D01*
X141438092Y-82923334D01*
X141516096Y-83102940D01*
X141639737Y-83282701D01*
X141786383Y-83434510D01*
X141923189Y-83525796D01*
X142070186Y-83562150D01*
X142263217Y-83569396D01*
X142469560Y-83549502D01*
X142656491Y-83504434D01*
X142722893Y-83477740D01*
X142878387Y-83403953D01*
X142878387Y-81645247D01*
X142734405Y-81576924D01*
X142555631Y-81525751D01*
X142336666Y-81511100D01*
X142113441Y-81532424D01*
X141921887Y-81589178D01*
X141921698Y-81589264D01*
X141738964Y-81715998D01*
X141588846Y-81905573D01*
X141477748Y-82140326D01*
X141412073Y-82402589D01*
X141398226Y-82674699D01*
X140488377Y-82674699D01*
X140490661Y-82398309D01*
X140518216Y-82120664D01*
X140570331Y-81887501D01*
X140588072Y-81837140D01*
X140769156Y-81474131D01*
X141003016Y-81177239D01*
X141288466Y-80947338D01*
X141624323Y-80785303D01*
X142009400Y-80692007D01*
X142163488Y-80675133D01*
X142573020Y-80682291D01*
X142573020Y-80682291D01*
G37*
X142573020Y-80682291D02*
X142954618Y-80767755D01*
X143303574Y-80929897D01*
X143615183Y-81167088D01*
X143631976Y-81183079D01*
X143771732Y-81317754D01*
X143746220Y-84706792D01*
X143606529Y-84990422D01*
X143440779Y-85258083D01*
X143231374Y-85470356D01*
X142972307Y-85630036D01*
X142657571Y-85739916D01*
X142281161Y-85802790D01*
X141837071Y-85821451D01*
X141820053Y-85821336D01*
X141605366Y-85816629D01*
X141403663Y-85807019D01*
X141240738Y-85794018D01*
X141157272Y-85782514D01*
X141002479Y-85738968D01*
X140840191Y-85674848D01*
X140806784Y-85658660D01*
X140632245Y-85569617D01*
X140788603Y-85285358D01*
X140882163Y-85115089D01*
X140949381Y-85006821D01*
X141007891Y-84950204D01*
X141075328Y-84934891D01*
X141169326Y-84950530D01*
X141300472Y-84984941D01*
X141613459Y-85043581D01*
X141921346Y-85059116D01*
X142205330Y-85032930D01*
X142446611Y-84966402D01*
X142589044Y-84890289D01*
X142739316Y-84734005D01*
X142834791Y-84516515D01*
X142861018Y-84394221D01*
X142888405Y-84222954D01*
X142661146Y-84283441D01*
X142284696Y-84345165D01*
X141919308Y-84332069D01*
X141574746Y-84249157D01*
X141260773Y-84101432D01*
X140987152Y-83893897D01*
X140763647Y-83631557D01*
X140600020Y-83319416D01*
X140561087Y-83207180D01*
X140511524Y-82970664D01*
X140488240Y-82691341D01*
X140488377Y-82674699D01*
X141398226Y-82674699D01*
X141438092Y-82923334D01*
X141516096Y-83102940D01*
X141639737Y-83282701D01*
X141786383Y-83434510D01*
X141923189Y-83525796D01*
X142070186Y-83562150D01*
X142263217Y-83569396D01*
X142469560Y-83549502D01*
X142656491Y-83504434D01*
X142722893Y-83477740D01*
X142878387Y-83403953D01*
X142878387Y-81645247D01*
X142734405Y-81576924D01*
X142555631Y-81525751D01*
X142336666Y-81511100D01*
X142113441Y-81532424D01*
X141921887Y-81589178D01*
X141921698Y-81589264D01*
X141738964Y-81715998D01*
X141588846Y-81905573D01*
X141477748Y-82140326D01*
X141412073Y-82402589D01*
X141398226Y-82674699D01*
X140488377Y-82674699D01*
X140490661Y-82398309D01*
X140518216Y-82120664D01*
X140570331Y-81887501D01*
X140588072Y-81837140D01*
X140769156Y-81474131D01*
X141003016Y-81177239D01*
X141288466Y-80947338D01*
X141624323Y-80785303D01*
X142009400Y-80692007D01*
X142163488Y-80675133D01*
X142573020Y-80682291D01*
G36*
X132476180Y-80692800D02*
G01*
X132814716Y-80801280D01*
X133114594Y-80963028D01*
X133225588Y-81047202D01*
X133330623Y-81135852D01*
X133140922Y-81302501D01*
X133008684Y-81416642D01*
X132877473Y-81526719D01*
X132814363Y-81578013D01*
X132677506Y-81686874D01*
X132479022Y-81555404D01*
X132243763Y-81446574D01*
X131996805Y-81415969D01*
X131754160Y-81462156D01*
X131531844Y-81583705D01*
X131458867Y-81646601D01*
X131304195Y-81852213D01*
X131203574Y-82119448D01*
X131156363Y-82450305D01*
X131152289Y-82600272D01*
X131169025Y-82929319D01*
X131221949Y-83190772D01*
X131315841Y-83395662D01*
X131455482Y-83555020D01*
X131612460Y-83662222D01*
X131860915Y-83756452D01*
X132110285Y-83766135D01*
X132358486Y-83691340D01*
X132461606Y-83634920D01*
X132684671Y-83496407D01*
X132994999Y-83761920D01*
X133128428Y-83878823D01*
X133233742Y-83976300D01*
X133296692Y-84040880D01*
X133308190Y-84058059D01*
X133275553Y-84106047D01*
X133183901Y-84176954D01*
X133051852Y-84259910D01*
X132898022Y-84344045D01*
X132741029Y-84418490D01*
X132599491Y-84472373D01*
X132597511Y-84472991D01*
X132262500Y-84539951D01*
X131903153Y-84547350D01*
X131555835Y-84494649D01*
X131533053Y-84488733D01*
X131177982Y-84352992D01*
X130874308Y-84151600D01*
X130625275Y-83888545D01*
X130434131Y-83567819D01*
X130304118Y-83193409D01*
X130252875Y-82914898D01*
X130235301Y-82491901D01*
X130288589Y-82094209D01*
X130407720Y-81729244D01*
X130587679Y-81404426D01*
X130823448Y-81127177D01*
X131110009Y-80904918D01*
X131442347Y-80745070D01*
X131776825Y-80660644D01*
X132122409Y-80643838D01*
X132476180Y-80692800D01*
X132476180Y-80692800D01*
G37*
X132476180Y-80692800D02*
X132814716Y-80801280D01*
X133114594Y-80963028D01*
X133225588Y-81047202D01*
X133330623Y-81135852D01*
X133140922Y-81302501D01*
X133008684Y-81416642D01*
X132877473Y-81526719D01*
X132814363Y-81578013D01*
X132677506Y-81686874D01*
X132479022Y-81555404D01*
X132243763Y-81446574D01*
X131996805Y-81415969D01*
X131754160Y-81462156D01*
X131531844Y-81583705D01*
X131458867Y-81646601D01*
X131304195Y-81852213D01*
X131203574Y-82119448D01*
X131156363Y-82450305D01*
X131152289Y-82600272D01*
X131169025Y-82929319D01*
X131221949Y-83190772D01*
X131315841Y-83395662D01*
X131455482Y-83555020D01*
X131612460Y-83662222D01*
X131860915Y-83756452D01*
X132110285Y-83766135D01*
X132358486Y-83691340D01*
X132461606Y-83634920D01*
X132684671Y-83496407D01*
X132994999Y-83761920D01*
X133128428Y-83878823D01*
X133233742Y-83976300D01*
X133296692Y-84040880D01*
X133308190Y-84058059D01*
X133275553Y-84106047D01*
X133183901Y-84176954D01*
X133051852Y-84259910D01*
X132898022Y-84344045D01*
X132741029Y-84418490D01*
X132599491Y-84472373D01*
X132597511Y-84472991D01*
X132262500Y-84539951D01*
X131903153Y-84547350D01*
X131555835Y-84494649D01*
X131533053Y-84488733D01*
X131177982Y-84352992D01*
X130874308Y-84151600D01*
X130625275Y-83888545D01*
X130434131Y-83567819D01*
X130304118Y-83193409D01*
X130252875Y-82914898D01*
X130235301Y-82491901D01*
X130288589Y-82094209D01*
X130407720Y-81729244D01*
X130587679Y-81404426D01*
X130823448Y-81127177D01*
X131110009Y-80904918D01*
X131442347Y-80745070D01*
X131776825Y-80660644D01*
X132122409Y-80643838D01*
X132476180Y-80692800D01*
G36*
X134675078Y-80138649D02*
G01*
X134686887Y-80725434D01*
X135417137Y-80737016D01*
X136147387Y-80748599D01*
X136147387Y-81508600D01*
X134658563Y-81508600D01*
X134672725Y-82436593D01*
X134677576Y-82739651D01*
X134682549Y-82969796D01*
X134688995Y-83138773D01*
X134698266Y-83258328D01*
X134711712Y-83340206D01*
X134730686Y-83396152D01*
X134756538Y-83437912D01*
X134790620Y-83477229D01*
X134792720Y-83479510D01*
X134968044Y-83627765D01*
X135166473Y-83710603D01*
X135397820Y-83729312D01*
X135671902Y-83685180D01*
X135880782Y-83622321D01*
X136008499Y-83580493D01*
X136098427Y-83555039D01*
X136127917Y-83551074D01*
X136140633Y-83594281D01*
X136167102Y-83700906D01*
X136202627Y-83851734D01*
X136220874Y-83931361D01*
X136304859Y-84300955D01*
X136079506Y-84385270D01*
X135689169Y-84497269D01*
X135302673Y-84543310D01*
X134940078Y-84521244D01*
X134891938Y-84512514D01*
X134574818Y-84408803D01*
X134300150Y-84236183D01*
X134076342Y-84003264D01*
X133911804Y-83718657D01*
X133819105Y-83413872D01*
X133809442Y-83320294D01*
X133800637Y-83151689D01*
X133792898Y-82917692D01*
X133786433Y-82627939D01*
X133781449Y-82292067D01*
X133778153Y-81919711D01*
X133776754Y-81520509D01*
X133776720Y-81446647D01*
X133776720Y-79702916D01*
X134104803Y-79651062D01*
X134278842Y-79622861D01*
X134434049Y-79596502D01*
X134539894Y-79577185D01*
X134548078Y-79575536D01*
X134663269Y-79551865D01*
X134675078Y-80138649D01*
X134675078Y-80138649D01*
G37*
X134675078Y-80138649D02*
X134686887Y-80725434D01*
X135417137Y-80737016D01*
X136147387Y-80748599D01*
X136147387Y-81508600D01*
X134658563Y-81508600D01*
X134672725Y-82436593D01*
X134677576Y-82739651D01*
X134682549Y-82969796D01*
X134688995Y-83138773D01*
X134698266Y-83258328D01*
X134711712Y-83340206D01*
X134730686Y-83396152D01*
X134756538Y-83437912D01*
X134790620Y-83477229D01*
X134792720Y-83479510D01*
X134968044Y-83627765D01*
X135166473Y-83710603D01*
X135397820Y-83729312D01*
X135671902Y-83685180D01*
X135880782Y-83622321D01*
X136008499Y-83580493D01*
X136098427Y-83555039D01*
X136127917Y-83551074D01*
X136140633Y-83594281D01*
X136167102Y-83700906D01*
X136202627Y-83851734D01*
X136220874Y-83931361D01*
X136304859Y-84300955D01*
X136079506Y-84385270D01*
X135689169Y-84497269D01*
X135302673Y-84543310D01*
X134940078Y-84521244D01*
X134891938Y-84512514D01*
X134574818Y-84408803D01*
X134300150Y-84236183D01*
X134076342Y-84003264D01*
X133911804Y-83718657D01*
X133819105Y-83413872D01*
X133809442Y-83320294D01*
X133800637Y-83151689D01*
X133792898Y-82917692D01*
X133786433Y-82627939D01*
X133781449Y-82292067D01*
X133778153Y-81919711D01*
X133776754Y-81520509D01*
X133776720Y-81446647D01*
X133776720Y-79702916D01*
X134104803Y-79651062D01*
X134278842Y-79622861D01*
X134434049Y-79596502D01*
X134539894Y-79577185D01*
X134548078Y-79575536D01*
X134663269Y-79551865D01*
X134675078Y-80138649D01*
G36*
X138362307Y-80684642D02*
G01*
X138542297Y-80690662D01*
X138674056Y-80703247D01*
X138775788Y-80724488D01*
X138865692Y-80756472D01*
X138904235Y-80773580D01*
X139168965Y-80935658D01*
X139387572Y-81149370D01*
X139539576Y-81392537D01*
X139568343Y-81458594D01*
X139591009Y-81522029D01*
X139608300Y-81593495D01*
X139620944Y-81683647D01*
X139629666Y-81803138D01*
X139635195Y-81962624D01*
X139638256Y-82172758D01*
X139639576Y-82444194D01*
X139639883Y-82787586D01*
X139639887Y-82863036D01*
X139639887Y-84111639D01*
X139428220Y-84227069D01*
X139046006Y-84394064D01*
X138630434Y-84502486D01*
X138204557Y-84548937D01*
X137791434Y-84530016D01*
X137602322Y-84496235D01*
X137274010Y-84391976D01*
X137014042Y-84242994D01*
X136816557Y-84045331D01*
X136727731Y-83905692D01*
X136674182Y-83752560D01*
X136640710Y-83548835D01*
X136627825Y-83321917D01*
X136629411Y-83278868D01*
X137535333Y-83278868D01*
X137554798Y-83463370D01*
X137629144Y-83598703D01*
X137764342Y-83689088D01*
X137966363Y-83738746D01*
X138204819Y-83752109D01*
X138386505Y-83746351D01*
X138552251Y-83730993D01*
X138670262Y-83709150D01*
X138682596Y-83705260D01*
X138817440Y-83658253D01*
X138805330Y-83271343D01*
X138793220Y-82884434D01*
X138391102Y-82872122D01*
X138082412Y-82876928D01*
X137847776Y-82914232D01*
X137682105Y-82986454D01*
X137580307Y-83096012D01*
X137537294Y-83245325D01*
X137535333Y-83278868D01*
X136629411Y-83278868D01*
X136636035Y-83099208D01*
X136665849Y-82908107D01*
X136707067Y-82793676D01*
X136883729Y-82557524D01*
X137126361Y-82368293D01*
X137428898Y-82228410D01*
X137785279Y-82140303D01*
X138189441Y-82106396D01*
X138413266Y-82110821D01*
X138609429Y-82119845D01*
X138733428Y-82116026D01*
X138797691Y-82090124D01*
X138814643Y-82032896D01*
X138796712Y-81935101D01*
X138771881Y-81844123D01*
X138683147Y-81663157D01*
X138530420Y-81535087D01*
X138359735Y-81468537D01*
X138096793Y-81439687D01*
X137827524Y-81482414D01*
X137581666Y-81591692D01*
X137564202Y-81602958D01*
X137374792Y-81728418D01*
X137131506Y-81517420D01*
X137001927Y-81402665D01*
X136889227Y-81298677D01*
X136816327Y-81226643D01*
X136812945Y-81222944D01*
X136770688Y-81168305D01*
X136773491Y-81125201D01*
X136830487Y-81069444D01*
X136887644Y-81025076D01*
X137011508Y-80942615D01*
X137171130Y-80851790D01*
X137280419Y-80796893D01*
X137383308Y-80751231D01*
X137475963Y-80719721D01*
X137577511Y-80699758D01*
X137707078Y-80688737D01*
X137883792Y-80684053D01*
X138115887Y-80683100D01*
X138362307Y-80684642D01*
X138362307Y-80684642D01*
G37*
X138362307Y-80684642D02*
X138542297Y-80690662D01*
X138674056Y-80703247D01*
X138775788Y-80724488D01*
X138865692Y-80756472D01*
X138904235Y-80773580D01*
X139168965Y-80935658D01*
X139387572Y-81149370D01*
X139539576Y-81392537D01*
X139568343Y-81458594D01*
X139591009Y-81522029D01*
X139608300Y-81593495D01*
X139620944Y-81683647D01*
X139629666Y-81803138D01*
X139635195Y-81962624D01*
X139638256Y-82172758D01*
X139639576Y-82444194D01*
X139639883Y-82787586D01*
X139639887Y-82863036D01*
X139639887Y-84111639D01*
X139428220Y-84227069D01*
X139046006Y-84394064D01*
X138630434Y-84502486D01*
X138204557Y-84548937D01*
X137791434Y-84530016D01*
X137602322Y-84496235D01*
X137274010Y-84391976D01*
X137014042Y-84242994D01*
X136816557Y-84045331D01*
X136727731Y-83905692D01*
X136674182Y-83752560D01*
X136640710Y-83548835D01*
X136627825Y-83321917D01*
X136629411Y-83278868D01*
X137535333Y-83278868D01*
X137554798Y-83463370D01*
X137629144Y-83598703D01*
X137764342Y-83689088D01*
X137966363Y-83738746D01*
X138204819Y-83752109D01*
X138386505Y-83746351D01*
X138552251Y-83730993D01*
X138670262Y-83709150D01*
X138682596Y-83705260D01*
X138817440Y-83658253D01*
X138805330Y-83271343D01*
X138793220Y-82884434D01*
X138391102Y-82872122D01*
X138082412Y-82876928D01*
X137847776Y-82914232D01*
X137682105Y-82986454D01*
X137580307Y-83096012D01*
X137537294Y-83245325D01*
X137535333Y-83278868D01*
X136629411Y-83278868D01*
X136636035Y-83099208D01*
X136665849Y-82908107D01*
X136707067Y-82793676D01*
X136883729Y-82557524D01*
X137126361Y-82368293D01*
X137428898Y-82228410D01*
X137785279Y-82140303D01*
X138189441Y-82106396D01*
X138413266Y-82110821D01*
X138609429Y-82119845D01*
X138733428Y-82116026D01*
X138797691Y-82090124D01*
X138814643Y-82032896D01*
X138796712Y-81935101D01*
X138771881Y-81844123D01*
X138683147Y-81663157D01*
X138530420Y-81535087D01*
X138359735Y-81468537D01*
X138096793Y-81439687D01*
X137827524Y-81482414D01*
X137581666Y-81591692D01*
X137564202Y-81602958D01*
X137374792Y-81728418D01*
X137131506Y-81517420D01*
X137001927Y-81402665D01*
X136889227Y-81298677D01*
X136816327Y-81226643D01*
X136812945Y-81222944D01*
X136770688Y-81168305D01*
X136773491Y-81125201D01*
X136830487Y-81069444D01*
X136887644Y-81025076D01*
X137011508Y-80942615D01*
X137171130Y-80851790D01*
X137280419Y-80796893D01*
X137383308Y-80751231D01*
X137475963Y-80719721D01*
X137577511Y-80699758D01*
X137707078Y-80688737D01*
X137883792Y-80684053D01*
X138115887Y-80683100D01*
X138362307Y-80684642D01*
G36*
X121983887Y-149435707D02*
G01*
X122291114Y-149450340D01*
X122525442Y-149494963D01*
X122694788Y-149574310D01*
X122807065Y-149693118D01*
X122870187Y-149856121D01*
X122887706Y-149976461D01*
X122893826Y-150117271D01*
X122876076Y-150210596D01*
X122824219Y-150292514D01*
X122785383Y-150337083D01*
X122668144Y-150432188D01*
X122487859Y-150535350D01*
X122305263Y-150618528D01*
X122087800Y-150714148D01*
X121939381Y-150796203D01*
X121847616Y-150874294D01*
X121800114Y-150958019D01*
X121787111Y-151019934D01*
X121775220Y-151125767D01*
X122336137Y-151137579D01*
X122897053Y-151149391D01*
X122897053Y-151443267D01*
X121246053Y-151443267D01*
X121246211Y-151199850D01*
X121265026Y-150999809D01*
X121327259Y-150833836D01*
X121442023Y-150692179D01*
X121618431Y-150565085D01*
X121865595Y-150442802D01*
X122008053Y-150384507D01*
X122193575Y-150303593D01*
X122309231Y-150227707D01*
X122367876Y-150143823D01*
X122382363Y-150038916D01*
X122380523Y-150007071D01*
X122347506Y-149880253D01*
X122265106Y-149803661D01*
X122262053Y-149802034D01*
X122137636Y-149767250D01*
X121976127Y-149760601D01*
X121811591Y-149779458D01*
X121678091Y-149821197D01*
X121632822Y-149850546D01*
X121580087Y-149890600D01*
X121526725Y-149897728D01*
X121445152Y-149869659D01*
X121356383Y-149827799D01*
X121248138Y-149766356D01*
X121183495Y-149712262D01*
X121174601Y-149689123D01*
X121217725Y-149646926D01*
X121313117Y-149584801D01*
X121394467Y-149540070D01*
X121510436Y-149487019D01*
X121623058Y-149455225D01*
X121760239Y-149439749D01*
X121949885Y-149435649D01*
X121983887Y-149435707D01*
X121983887Y-149435707D01*
G37*
X121983887Y-149435707D02*
X122291114Y-149450340D01*
X122525442Y-149494963D01*
X122694788Y-149574310D01*
X122807065Y-149693118D01*
X122870187Y-149856121D01*
X122887706Y-149976461D01*
X122893826Y-150117271D01*
X122876076Y-150210596D01*
X122824219Y-150292514D01*
X122785383Y-150337083D01*
X122668144Y-150432188D01*
X122487859Y-150535350D01*
X122305263Y-150618528D01*
X122087800Y-150714148D01*
X121939381Y-150796203D01*
X121847616Y-150874294D01*
X121800114Y-150958019D01*
X121787111Y-151019934D01*
X121775220Y-151125767D01*
X122336137Y-151137579D01*
X122897053Y-151149391D01*
X122897053Y-151443267D01*
X121246053Y-151443267D01*
X121246211Y-151199850D01*
X121265026Y-150999809D01*
X121327259Y-150833836D01*
X121442023Y-150692179D01*
X121618431Y-150565085D01*
X121865595Y-150442802D01*
X122008053Y-150384507D01*
X122193575Y-150303593D01*
X122309231Y-150227707D01*
X122367876Y-150143823D01*
X122382363Y-150038916D01*
X122380523Y-150007071D01*
X122347506Y-149880253D01*
X122265106Y-149803661D01*
X122262053Y-149802034D01*
X122137636Y-149767250D01*
X121976127Y-149760601D01*
X121811591Y-149779458D01*
X121678091Y-149821197D01*
X121632822Y-149850546D01*
X121580087Y-149890600D01*
X121526725Y-149897728D01*
X121445152Y-149869659D01*
X121356383Y-149827799D01*
X121248138Y-149766356D01*
X121183495Y-149712262D01*
X121174601Y-149689123D01*
X121217725Y-149646926D01*
X121313117Y-149584801D01*
X121394467Y-149540070D01*
X121510436Y-149487019D01*
X121623058Y-149455225D01*
X121760239Y-149439749D01*
X121949885Y-149435649D01*
X121983887Y-149435707D01*
G36*
X131533053Y-150596600D02*
G01*
X131681220Y-150596600D01*
X131776086Y-150601727D01*
X131818245Y-150633379D01*
X131829055Y-150715967D01*
X131829387Y-150765934D01*
X131824901Y-150874352D01*
X131797205Y-150922533D01*
X131724940Y-150934888D01*
X131681220Y-150935267D01*
X131533053Y-150935267D01*
X131533053Y-151443267D01*
X131067387Y-151443267D01*
X131067387Y-150935267D01*
X129924387Y-150935267D01*
X129924387Y-150808837D01*
X129955723Y-150700002D01*
X130032485Y-150573472D01*
X130470675Y-150573472D01*
X130476820Y-150616267D01*
X130531918Y-150634649D01*
X130634804Y-150638897D01*
X130707392Y-150638934D01*
X130880835Y-150631666D01*
X130978853Y-150608842D01*
X131007203Y-150582055D01*
X131016279Y-150513817D01*
X131019781Y-150387241D01*
X131017053Y-150228515D01*
X131016458Y-150213024D01*
X131003887Y-149900871D01*
X130757605Y-150195819D01*
X130609903Y-150373527D01*
X130514647Y-150495985D01*
X130470675Y-150573472D01*
X130032485Y-150573472D01*
X130050343Y-150544037D01*
X130209162Y-150339766D01*
X130433094Y-150086011D01*
X130722969Y-149781684D01*
X131044234Y-149453600D01*
X131533053Y-149453600D01*
X131533053Y-150596600D01*
X131533053Y-150596600D01*
G37*
X131533053Y-150596600D02*
X131681220Y-150596600D01*
X131776086Y-150601727D01*
X131818245Y-150633379D01*
X131829055Y-150715967D01*
X131829387Y-150765934D01*
X131824901Y-150874352D01*
X131797205Y-150922533D01*
X131724940Y-150934888D01*
X131681220Y-150935267D01*
X131533053Y-150935267D01*
X131533053Y-151443267D01*
X131067387Y-151443267D01*
X131067387Y-150935267D01*
X129924387Y-150935267D01*
X129924387Y-150808837D01*
X129955723Y-150700002D01*
X130032485Y-150573472D01*
X130470675Y-150573472D01*
X130476820Y-150616267D01*
X130531918Y-150634649D01*
X130634804Y-150638897D01*
X130707392Y-150638934D01*
X130880835Y-150631666D01*
X130978853Y-150608842D01*
X131007203Y-150582055D01*
X131016279Y-150513817D01*
X131019781Y-150387241D01*
X131017053Y-150228515D01*
X131016458Y-150213024D01*
X131003887Y-149900871D01*
X130757605Y-150195819D01*
X130609903Y-150373527D01*
X130514647Y-150495985D01*
X130470675Y-150573472D01*
X130032485Y-150573472D01*
X130050343Y-150544037D01*
X130209162Y-150339766D01*
X130433094Y-150086011D01*
X130722969Y-149781684D01*
X131044234Y-149453600D01*
X131533053Y-149453600D01*
X131533053Y-150596600D01*
G36*
X140254320Y-149467886D02*
G01*
X140422833Y-149477348D01*
X140552618Y-149492197D01*
X140621979Y-149511968D01*
X140625035Y-149514471D01*
X140624828Y-149564901D01*
X140592791Y-149658049D01*
X140582076Y-149681547D01*
X140514257Y-149823763D01*
X140215792Y-149802408D01*
X139966565Y-149800918D01*
X139783576Y-149839539D01*
X139656806Y-149921589D01*
X139595557Y-150007794D01*
X139552807Y-150095048D01*
X139534087Y-150142333D01*
X139534053Y-150142942D01*
X139572876Y-150150828D01*
X139675313Y-150156635D01*
X139820317Y-150159243D01*
X139840970Y-150159288D01*
X140111470Y-150174011D01*
X140319111Y-150221773D01*
X140481197Y-150308370D01*
X140590270Y-150410158D01*
X140669943Y-150515368D01*
X140708347Y-150618746D01*
X140719266Y-150760345D01*
X140719387Y-150785325D01*
X140687782Y-150999485D01*
X140588659Y-151172943D01*
X140415555Y-151315363D01*
X140334748Y-151360456D01*
X140185006Y-151408607D01*
X139984786Y-151436353D01*
X139765969Y-151442919D01*
X139560436Y-151427532D01*
X139400068Y-151389416D01*
X139385887Y-151383507D01*
X139209347Y-151274292D01*
X139087049Y-151122367D01*
X139013881Y-150917491D01*
X138989525Y-150693482D01*
X139492344Y-150693482D01*
X139524912Y-150877792D01*
X139610508Y-151020163D01*
X139733755Y-151111336D01*
X139879274Y-151142056D01*
X140031687Y-151103063D01*
X140099844Y-151059194D01*
X140184892Y-150943065D01*
X140214957Y-150790149D01*
X140185405Y-150631729D01*
X140168539Y-150595639D01*
X140085686Y-150523518D01*
X139947006Y-150486627D01*
X139775327Y-150488864D01*
X139667794Y-150510118D01*
X139556637Y-150546501D01*
X139505840Y-150591370D01*
X139492515Y-150668647D01*
X139492344Y-150693482D01*
X138989525Y-150693482D01*
X138984734Y-150649425D01*
X138983720Y-150577539D01*
X139012481Y-150237990D01*
X139097584Y-149955653D01*
X139237253Y-149733517D01*
X139429717Y-149574573D01*
X139626904Y-149493158D01*
X139733371Y-149476445D01*
X139887893Y-149466970D01*
X140068775Y-149464272D01*
X140254320Y-149467886D01*
X140254320Y-149467886D01*
G37*
X140254320Y-149467886D02*
X140422833Y-149477348D01*
X140552618Y-149492197D01*
X140621979Y-149511968D01*
X140625035Y-149514471D01*
X140624828Y-149564901D01*
X140592791Y-149658049D01*
X140582076Y-149681547D01*
X140514257Y-149823763D01*
X140215792Y-149802408D01*
X139966565Y-149800918D01*
X139783576Y-149839539D01*
X139656806Y-149921589D01*
X139595557Y-150007794D01*
X139552807Y-150095048D01*
X139534087Y-150142333D01*
X139534053Y-150142942D01*
X139572876Y-150150828D01*
X139675313Y-150156635D01*
X139820317Y-150159243D01*
X139840970Y-150159288D01*
X140111470Y-150174011D01*
X140319111Y-150221773D01*
X140481197Y-150308370D01*
X140590270Y-150410158D01*
X140669943Y-150515368D01*
X140708347Y-150618746D01*
X140719266Y-150760345D01*
X140719387Y-150785325D01*
X140687782Y-150999485D01*
X140588659Y-151172943D01*
X140415555Y-151315363D01*
X140334748Y-151360456D01*
X140185006Y-151408607D01*
X139984786Y-151436353D01*
X139765969Y-151442919D01*
X139560436Y-151427532D01*
X139400068Y-151389416D01*
X139385887Y-151383507D01*
X139209347Y-151274292D01*
X139087049Y-151122367D01*
X139013881Y-150917491D01*
X138989525Y-150693482D01*
X139492344Y-150693482D01*
X139524912Y-150877792D01*
X139610508Y-151020163D01*
X139733755Y-151111336D01*
X139879274Y-151142056D01*
X140031687Y-151103063D01*
X140099844Y-151059194D01*
X140184892Y-150943065D01*
X140214957Y-150790149D01*
X140185405Y-150631729D01*
X140168539Y-150595639D01*
X140085686Y-150523518D01*
X139947006Y-150486627D01*
X139775327Y-150488864D01*
X139667794Y-150510118D01*
X139556637Y-150546501D01*
X139505840Y-150591370D01*
X139492515Y-150668647D01*
X139492344Y-150693482D01*
X138989525Y-150693482D01*
X138984734Y-150649425D01*
X138983720Y-150577539D01*
X139012481Y-150237990D01*
X139097584Y-149955653D01*
X139237253Y-149733517D01*
X139429717Y-149574573D01*
X139626904Y-149493158D01*
X139733371Y-149476445D01*
X139887893Y-149466970D01*
X140068775Y-149464272D01*
X140254320Y-149467886D01*
G36*
X149131724Y-149394837D02*
G01*
X149363260Y-149468753D01*
X149539866Y-149584992D01*
X149652977Y-149737864D01*
X149694024Y-149921678D01*
X149694053Y-149926966D01*
X149663407Y-150083464D01*
X149584862Y-150228247D01*
X149495033Y-150313229D01*
X149476159Y-150350166D01*
X149515109Y-150413651D01*
X149587728Y-150487561D01*
X149679819Y-150585540D01*
X149723520Y-150676505D01*
X149736086Y-150801282D01*
X149736387Y-150839306D01*
X149712880Y-151029996D01*
X149634556Y-151176102D01*
X149489705Y-151294422D01*
X149377958Y-151353495D01*
X149178959Y-151415176D01*
X148937113Y-151443664D01*
X148686278Y-151438618D01*
X148460310Y-151399701D01*
X148358802Y-151363694D01*
X148173827Y-151248447D01*
X148038244Y-151100641D01*
X147966256Y-150937915D01*
X147958387Y-150866417D01*
X147959001Y-150862553D01*
X148472049Y-150862553D01*
X148521935Y-150997558D01*
X148626406Y-151095547D01*
X148649071Y-151106471D01*
X148784337Y-151132411D01*
X148943940Y-151120620D01*
X149087019Y-151076708D01*
X149147006Y-151038127D01*
X149213523Y-150927040D01*
X149224622Y-150789116D01*
X149180555Y-150661307D01*
X149144149Y-150618155D01*
X149049913Y-150567347D01*
X148911796Y-150530139D01*
X148852729Y-150522013D01*
X148714247Y-150516479D01*
X148624970Y-150538519D01*
X148555967Y-150591686D01*
X148481733Y-150718079D01*
X148472049Y-150862553D01*
X147959001Y-150862553D01*
X147986050Y-150692481D01*
X148059029Y-150537441D01*
X148162300Y-150431954D01*
X148174784Y-150424735D01*
X148227753Y-150391520D01*
X148232782Y-150356739D01*
X148185442Y-150296534D01*
X148142596Y-150251367D01*
X148040861Y-150090354D01*
X148031125Y-150021384D01*
X148530354Y-150021384D01*
X148590732Y-150134519D01*
X148704675Y-150218540D01*
X148862615Y-150257081D01*
X148892009Y-150257934D01*
X149025489Y-150239739D01*
X149110377Y-150176998D01*
X149120153Y-150163847D01*
X149181733Y-150015920D01*
X149166079Y-149872866D01*
X149075295Y-149753625D01*
X149074511Y-149753006D01*
X148919343Y-149676240D01*
X148762233Y-149679946D01*
X148618681Y-149763451D01*
X148608574Y-149773231D01*
X148533111Y-149895499D01*
X148530354Y-150021384D01*
X148031125Y-150021384D01*
X148015686Y-149912029D01*
X148066887Y-149734841D01*
X148148887Y-149620499D01*
X148297710Y-149492431D01*
X148466987Y-149413391D01*
X148679084Y-149375399D01*
X148853828Y-149368934D01*
X149131724Y-149394837D01*
X149131724Y-149394837D01*
G37*
X149131724Y-149394837D02*
X149363260Y-149468753D01*
X149539866Y-149584992D01*
X149652977Y-149737864D01*
X149694024Y-149921678D01*
X149694053Y-149926966D01*
X149663407Y-150083464D01*
X149584862Y-150228247D01*
X149495033Y-150313229D01*
X149476159Y-150350166D01*
X149515109Y-150413651D01*
X149587728Y-150487561D01*
X149679819Y-150585540D01*
X149723520Y-150676505D01*
X149736086Y-150801282D01*
X149736387Y-150839306D01*
X149712880Y-151029996D01*
X149634556Y-151176102D01*
X149489705Y-151294422D01*
X149377958Y-151353495D01*
X149178959Y-151415176D01*
X148937113Y-151443664D01*
X148686278Y-151438618D01*
X148460310Y-151399701D01*
X148358802Y-151363694D01*
X148173827Y-151248447D01*
X148038244Y-151100641D01*
X147966256Y-150937915D01*
X147958387Y-150866417D01*
X147959001Y-150862553D01*
X148472049Y-150862553D01*
X148521935Y-150997558D01*
X148626406Y-151095547D01*
X148649071Y-151106471D01*
X148784337Y-151132411D01*
X148943940Y-151120620D01*
X149087019Y-151076708D01*
X149147006Y-151038127D01*
X149213523Y-150927040D01*
X149224622Y-150789116D01*
X149180555Y-150661307D01*
X149144149Y-150618155D01*
X149049913Y-150567347D01*
X148911796Y-150530139D01*
X148852729Y-150522013D01*
X148714247Y-150516479D01*
X148624970Y-150538519D01*
X148555967Y-150591686D01*
X148481733Y-150718079D01*
X148472049Y-150862553D01*
X147959001Y-150862553D01*
X147986050Y-150692481D01*
X148059029Y-150537441D01*
X148162300Y-150431954D01*
X148174784Y-150424735D01*
X148227753Y-150391520D01*
X148232782Y-150356739D01*
X148185442Y-150296534D01*
X148142596Y-150251367D01*
X148040861Y-150090354D01*
X148031125Y-150021384D01*
X148530354Y-150021384D01*
X148590732Y-150134519D01*
X148704675Y-150218540D01*
X148862615Y-150257081D01*
X148892009Y-150257934D01*
X149025489Y-150239739D01*
X149110377Y-150176998D01*
X149120153Y-150163847D01*
X149181733Y-150015920D01*
X149166079Y-149872866D01*
X149075295Y-149753625D01*
X149074511Y-149753006D01*
X148919343Y-149676240D01*
X148762233Y-149679946D01*
X148618681Y-149763451D01*
X148608574Y-149773231D01*
X148533111Y-149895499D01*
X148530354Y-150021384D01*
X148031125Y-150021384D01*
X148015686Y-149912029D01*
X148066887Y-149734841D01*
X148148887Y-149620499D01*
X148297710Y-149492431D01*
X148466987Y-149413391D01*
X148679084Y-149375399D01*
X148853828Y-149368934D01*
X149131724Y-149394837D01*
G36*
X122262053Y-137854267D02*
G01*
X121754053Y-137854267D01*
X121754053Y-136205362D01*
X121645464Y-136246648D01*
X121498962Y-136284487D01*
X121400758Y-136262456D01*
X121337515Y-136180108D01*
X121299570Y-136083016D01*
X121304977Y-136021927D01*
X121366348Y-135977239D01*
X121496296Y-135929349D01*
X121499555Y-135928266D01*
X121623609Y-135881544D01*
X121711119Y-135838352D01*
X121734887Y-135819030D01*
X121787037Y-135798127D01*
X121897500Y-135783940D01*
X122010552Y-135779934D01*
X122262053Y-135779934D01*
X122262053Y-137854267D01*
X122262053Y-137854267D01*
G37*
X122262053Y-137854267D02*
X121754053Y-137854267D01*
X121754053Y-136205362D01*
X121645464Y-136246648D01*
X121498962Y-136284487D01*
X121400758Y-136262456D01*
X121337515Y-136180108D01*
X121299570Y-136083016D01*
X121304977Y-136021927D01*
X121366348Y-135977239D01*
X121496296Y-135929349D01*
X121499555Y-135928266D01*
X121623609Y-135881544D01*
X121711119Y-135838352D01*
X121734887Y-135819030D01*
X121787037Y-135798127D01*
X121897500Y-135783940D01*
X122010552Y-135779934D01*
X122262053Y-135779934D01*
X122262053Y-137854267D01*
G36*
X131148644Y-135792493D02*
G01*
X131363679Y-135831546D01*
X131529056Y-135903938D01*
X131660740Y-136015018D01*
X131698385Y-136059628D01*
X131772475Y-136215105D01*
X131787267Y-136395173D01*
X131743257Y-136566565D01*
X131689590Y-136650520D01*
X131592127Y-136763828D01*
X131710757Y-136882457D01*
X131781264Y-136965709D01*
X131816913Y-137054565D01*
X131828792Y-137182581D01*
X131829387Y-137241410D01*
X131823743Y-137387800D01*
X131798126Y-137485277D01*
X131739505Y-137569308D01*
X131689817Y-137621303D01*
X131563294Y-137720298D01*
X131420221Y-137794823D01*
X131382900Y-137807334D01*
X131242870Y-137831649D01*
X131054892Y-137845632D01*
X130849461Y-137849034D01*
X130657072Y-137841609D01*
X130508219Y-137823109D01*
X130474446Y-137814713D01*
X130352116Y-137768571D01*
X130225034Y-137707420D01*
X130122505Y-137646624D01*
X130075980Y-137605811D01*
X130093694Y-137562241D01*
X130164797Y-137493747D01*
X130216559Y-137454984D01*
X130380247Y-137341548D01*
X130522733Y-137428416D01*
X130695583Y-137496188D01*
X130899217Y-137515442D01*
X131103927Y-137497480D01*
X131237888Y-137440482D01*
X131307505Y-137340277D01*
X131321387Y-137240434D01*
X131294888Y-137108692D01*
X131210528Y-137022113D01*
X131061007Y-136976056D01*
X130888634Y-136965267D01*
X130644053Y-136965267D01*
X130644053Y-136584267D01*
X130891492Y-136584267D01*
X131084595Y-136566295D01*
X131207889Y-136508874D01*
X131269018Y-136406750D01*
X131279053Y-136317840D01*
X131255050Y-136220139D01*
X131176500Y-136157654D01*
X131033594Y-136125586D01*
X130871815Y-136118600D01*
X130709600Y-136127287D01*
X130602467Y-136158260D01*
X130534862Y-136206421D01*
X130441381Y-136294243D01*
X130256967Y-136201218D01*
X130146319Y-136144127D01*
X130071669Y-136103223D01*
X130055507Y-136092823D01*
X130073540Y-136059822D01*
X130140573Y-135996857D01*
X130235543Y-135921499D01*
X130337387Y-135851319D01*
X130365361Y-135834350D01*
X130452207Y-135809346D01*
X130604814Y-135791282D01*
X130804422Y-135782135D01*
X130867990Y-135781434D01*
X131148644Y-135792493D01*
X131148644Y-135792493D01*
G37*
X131148644Y-135792493D02*
X131363679Y-135831546D01*
X131529056Y-135903938D01*
X131660740Y-136015018D01*
X131698385Y-136059628D01*
X131772475Y-136215105D01*
X131787267Y-136395173D01*
X131743257Y-136566565D01*
X131689590Y-136650520D01*
X131592127Y-136763828D01*
X131710757Y-136882457D01*
X131781264Y-136965709D01*
X131816913Y-137054565D01*
X131828792Y-137182581D01*
X131829387Y-137241410D01*
X131823743Y-137387800D01*
X131798126Y-137485277D01*
X131739505Y-137569308D01*
X131689817Y-137621303D01*
X131563294Y-137720298D01*
X131420221Y-137794823D01*
X131382900Y-137807334D01*
X131242870Y-137831649D01*
X131054892Y-137845632D01*
X130849461Y-137849034D01*
X130657072Y-137841609D01*
X130508219Y-137823109D01*
X130474446Y-137814713D01*
X130352116Y-137768571D01*
X130225034Y-137707420D01*
X130122505Y-137646624D01*
X130075980Y-137605811D01*
X130093694Y-137562241D01*
X130164797Y-137493747D01*
X130216559Y-137454984D01*
X130380247Y-137341548D01*
X130522733Y-137428416D01*
X130695583Y-137496188D01*
X130899217Y-137515442D01*
X131103927Y-137497480D01*
X131237888Y-137440482D01*
X131307505Y-137340277D01*
X131321387Y-137240434D01*
X131294888Y-137108692D01*
X131210528Y-137022113D01*
X131061007Y-136976056D01*
X130888634Y-136965267D01*
X130644053Y-136965267D01*
X130644053Y-136584267D01*
X130891492Y-136584267D01*
X131084595Y-136566295D01*
X131207889Y-136508874D01*
X131269018Y-136406750D01*
X131279053Y-136317840D01*
X131255050Y-136220139D01*
X131176500Y-136157654D01*
X131033594Y-136125586D01*
X130871815Y-136118600D01*
X130709600Y-136127287D01*
X130602467Y-136158260D01*
X130534862Y-136206421D01*
X130441381Y-136294243D01*
X130256967Y-136201218D01*
X130146319Y-136144127D01*
X130071669Y-136103223D01*
X130055507Y-136092823D01*
X130073540Y-136059822D01*
X130140573Y-135996857D01*
X130235543Y-135921499D01*
X130337387Y-135851319D01*
X130365361Y-135834350D01*
X130452207Y-135809346D01*
X130604814Y-135791282D01*
X130804422Y-135782135D01*
X130867990Y-135781434D01*
X131148644Y-135792493D01*
G36*
X140023739Y-135737600D02*
G01*
X140677053Y-135737600D01*
X140677053Y-136073305D01*
X140243137Y-136085369D01*
X139809220Y-136097434D01*
X139783414Y-136499600D01*
X139998760Y-136499600D01*
X140248353Y-136527871D01*
X140456240Y-136619550D01*
X140631124Y-136768361D01*
X140725505Y-136884770D01*
X140773990Y-137003357D01*
X140793645Y-137143825D01*
X140796990Y-137297603D01*
X140770866Y-137409948D01*
X140712574Y-137512489D01*
X140546328Y-137684251D01*
X140322930Y-137795266D01*
X140041050Y-137846098D01*
X139915053Y-137849732D01*
X139739895Y-137842637D01*
X139581519Y-137826041D01*
X139473223Y-137803479D01*
X139470553Y-137802555D01*
X139356804Y-137751797D01*
X139242361Y-137685008D01*
X139152229Y-137618667D01*
X139111415Y-137569251D01*
X139111009Y-137565634D01*
X139143017Y-137526362D01*
X139223222Y-137461574D01*
X139263989Y-137432762D01*
X139416680Y-137328757D01*
X139579003Y-137422179D01*
X139786269Y-137499743D01*
X139930951Y-137515600D01*
X140105693Y-137483632D01*
X140225967Y-137394145D01*
X140282814Y-137256762D01*
X140280520Y-137139946D01*
X140251419Y-137012144D01*
X140203575Y-136926252D01*
X140122701Y-136875809D01*
X139994515Y-136854353D01*
X139804732Y-136855422D01*
X139668916Y-136863270D01*
X139228317Y-136892784D01*
X139252306Y-136770276D01*
X139266129Y-136672527D01*
X139282193Y-136518090D01*
X139297715Y-136334796D01*
X139302658Y-136266767D01*
X139314718Y-136069581D01*
X139327679Y-135928219D01*
X139354076Y-135833483D01*
X139406443Y-135776174D01*
X139497314Y-135747094D01*
X139639224Y-135737044D01*
X139844707Y-135736826D01*
X140023739Y-135737600D01*
X140023739Y-135737600D01*
G37*
X140023739Y-135737600D02*
X140677053Y-135737600D01*
X140677053Y-136073305D01*
X140243137Y-136085369D01*
X139809220Y-136097434D01*
X139783414Y-136499600D01*
X139998760Y-136499600D01*
X140248353Y-136527871D01*
X140456240Y-136619550D01*
X140631124Y-136768361D01*
X140725505Y-136884770D01*
X140773990Y-137003357D01*
X140793645Y-137143825D01*
X140796990Y-137297603D01*
X140770866Y-137409948D01*
X140712574Y-137512489D01*
X140546328Y-137684251D01*
X140322930Y-137795266D01*
X140041050Y-137846098D01*
X139915053Y-137849732D01*
X139739895Y-137842637D01*
X139581519Y-137826041D01*
X139473223Y-137803479D01*
X139470553Y-137802555D01*
X139356804Y-137751797D01*
X139242361Y-137685008D01*
X139152229Y-137618667D01*
X139111415Y-137569251D01*
X139111009Y-137565634D01*
X139143017Y-137526362D01*
X139223222Y-137461574D01*
X139263989Y-137432762D01*
X139416680Y-137328757D01*
X139579003Y-137422179D01*
X139786269Y-137499743D01*
X139930951Y-137515600D01*
X140105693Y-137483632D01*
X140225967Y-137394145D01*
X140282814Y-137256762D01*
X140280520Y-137139946D01*
X140251419Y-137012144D01*
X140203575Y-136926252D01*
X140122701Y-136875809D01*
X139994515Y-136854353D01*
X139804732Y-136855422D01*
X139668916Y-136863270D01*
X139228317Y-136892784D01*
X139252306Y-136770276D01*
X139266129Y-136672527D01*
X139282193Y-136518090D01*
X139297715Y-136334796D01*
X139302658Y-136266767D01*
X139314718Y-136069581D01*
X139327679Y-135928219D01*
X139354076Y-135833483D01*
X139406443Y-135776174D01*
X139497314Y-135747094D01*
X139639224Y-135737044D01*
X139844707Y-135736826D01*
X140023739Y-135737600D01*
G36*
X149863387Y-135907320D02*
G01*
X149842853Y-136000542D01*
X149777214Y-136127508D01*
X149660415Y-136299012D01*
X149593562Y-136388343D01*
X149304186Y-136795230D01*
X149075671Y-137176292D01*
X148913029Y-137522992D01*
X148888052Y-137589684D01*
X148793709Y-137854267D01*
X148298289Y-137854267D01*
X148382935Y-137639518D01*
X148500732Y-137377929D01*
X148661338Y-137075750D01*
X148851792Y-136756097D01*
X149033975Y-136478434D01*
X149266825Y-136139767D01*
X148697272Y-136127989D01*
X148127720Y-136116211D01*
X148127720Y-135779934D01*
X149863387Y-135779934D01*
X149863387Y-135907320D01*
X149863387Y-135907320D01*
G37*
X149863387Y-135907320D02*
X149842853Y-136000542D01*
X149777214Y-136127508D01*
X149660415Y-136299012D01*
X149593562Y-136388343D01*
X149304186Y-136795230D01*
X149075671Y-137176292D01*
X148913029Y-137522992D01*
X148888052Y-137589684D01*
X148793709Y-137854267D01*
X148298289Y-137854267D01*
X148382935Y-137639518D01*
X148500732Y-137377929D01*
X148661338Y-137075750D01*
X148851792Y-136756097D01*
X149033975Y-136478434D01*
X149266825Y-136139767D01*
X148697272Y-136127989D01*
X148127720Y-136116211D01*
X148127720Y-135779934D01*
X149863387Y-135779934D01*
X149863387Y-135907320D01*
G36*
X142136334Y-120329007D02*
G01*
X142389621Y-120430370D01*
X142518553Y-120519299D01*
X142645553Y-120624772D01*
X142437807Y-120809388D01*
X142230060Y-120994005D01*
X142077973Y-120890476D01*
X141952400Y-120821539D01*
X141835026Y-120804887D01*
X141764156Y-120812584D01*
X141557749Y-120873561D01*
X141407562Y-120986818D01*
X141306665Y-121160465D01*
X141248126Y-121402613D01*
X141245874Y-121419008D01*
X141239659Y-121680894D01*
X141288532Y-121908843D01*
X141383877Y-122094710D01*
X141517077Y-122230345D01*
X141679518Y-122307602D01*
X141862582Y-122318333D01*
X142057655Y-122254390D01*
X142102313Y-122228883D01*
X142246400Y-122139833D01*
X142456073Y-122335957D01*
X142665746Y-122532082D01*
X142471568Y-122655227D01*
X142311910Y-122738587D01*
X142135188Y-122805514D01*
X142067804Y-122823319D01*
X141933254Y-122850588D01*
X141838026Y-122860805D01*
X141743701Y-122854035D01*
X141611859Y-122830349D01*
X141580605Y-122824180D01*
X141284932Y-122728065D01*
X141039332Y-122565077D01*
X140839757Y-122332104D01*
X140757271Y-122190934D01*
X140708274Y-122081630D01*
X140678218Y-121968436D01*
X140662749Y-121825515D01*
X140657512Y-121627031D01*
X140657364Y-121598267D01*
X140659513Y-121397450D01*
X140671145Y-121252927D01*
X140697415Y-121136437D01*
X140743476Y-121019717D01*
X140774883Y-120953774D01*
X140871182Y-120793061D01*
X140991433Y-120639137D01*
X141069368Y-120561237D01*
X141306500Y-120408617D01*
X141575932Y-120318675D01*
X141858824Y-120291957D01*
X142136334Y-120329007D01*
X142136334Y-120329007D01*
G37*
X142136334Y-120329007D02*
X142389621Y-120430370D01*
X142518553Y-120519299D01*
X142645553Y-120624772D01*
X142437807Y-120809388D01*
X142230060Y-120994005D01*
X142077973Y-120890476D01*
X141952400Y-120821539D01*
X141835026Y-120804887D01*
X141764156Y-120812584D01*
X141557749Y-120873561D01*
X141407562Y-120986818D01*
X141306665Y-121160465D01*
X141248126Y-121402613D01*
X141245874Y-121419008D01*
X141239659Y-121680894D01*
X141288532Y-121908843D01*
X141383877Y-122094710D01*
X141517077Y-122230345D01*
X141679518Y-122307602D01*
X141862582Y-122318333D01*
X142057655Y-122254390D01*
X142102313Y-122228883D01*
X142246400Y-122139833D01*
X142456073Y-122335957D01*
X142665746Y-122532082D01*
X142471568Y-122655227D01*
X142311910Y-122738587D01*
X142135188Y-122805514D01*
X142067804Y-122823319D01*
X141933254Y-122850588D01*
X141838026Y-122860805D01*
X141743701Y-122854035D01*
X141611859Y-122830349D01*
X141580605Y-122824180D01*
X141284932Y-122728065D01*
X141039332Y-122565077D01*
X140839757Y-122332104D01*
X140757271Y-122190934D01*
X140708274Y-122081630D01*
X140678218Y-121968436D01*
X140662749Y-121825515D01*
X140657512Y-121627031D01*
X140657364Y-121598267D01*
X140659513Y-121397450D01*
X140671145Y-121252927D01*
X140697415Y-121136437D01*
X140743476Y-121019717D01*
X140774883Y-120953774D01*
X140871182Y-120793061D01*
X140991433Y-120639137D01*
X141069368Y-120561237D01*
X141306500Y-120408617D01*
X141575932Y-120318675D01*
X141858824Y-120291957D01*
X142136334Y-120329007D01*
G36*
X130887016Y-120329007D02*
G01*
X131109797Y-120389767D01*
X131284966Y-120497851D01*
X131427429Y-120659785D01*
X131437756Y-120675105D01*
X131477213Y-120736596D01*
X131506756Y-120794061D01*
X131528039Y-120860652D01*
X131542717Y-120949520D01*
X131552446Y-121073817D01*
X131558880Y-121246696D01*
X131563673Y-121481307D01*
X131567154Y-121703415D01*
X131580087Y-122555893D01*
X131334320Y-122678328D01*
X131208803Y-122735956D01*
X131093345Y-122773550D01*
X130961906Y-122796258D01*
X130788445Y-122809229D01*
X130644053Y-122814774D01*
X130427447Y-122818764D01*
X130273088Y-122813054D01*
X130158872Y-122795251D01*
X130062694Y-122762961D01*
X130030220Y-122748277D01*
X129814627Y-122609919D01*
X129672093Y-122431499D01*
X129598515Y-122206445D01*
X129585720Y-122035825D01*
X129586227Y-122032416D01*
X130185783Y-122032416D01*
X130231167Y-122152978D01*
X130282296Y-122214024D01*
X130362194Y-122277294D01*
X130458293Y-122308657D01*
X130602605Y-122317856D01*
X130623745Y-122317934D01*
X130771443Y-122310312D01*
X130894155Y-122290759D01*
X130943170Y-122274111D01*
X130993424Y-122228621D01*
X131018339Y-122146333D01*
X131025053Y-122003751D01*
X131025053Y-121777214D01*
X130840908Y-121749599D01*
X130622795Y-121738123D01*
X130439071Y-121768279D01*
X130298890Y-121832454D01*
X130211409Y-121923037D01*
X130185783Y-122032416D01*
X129586227Y-122032416D01*
X129622134Y-121791145D01*
X129728169Y-121587414D01*
X129881548Y-121445410D01*
X130043387Y-121353704D01*
X130212352Y-121295149D01*
X130413663Y-121263664D01*
X130672544Y-121253170D01*
X130679330Y-121253128D01*
X131032107Y-121251134D01*
X131005819Y-121138950D01*
X130932456Y-120993401D01*
X130802660Y-120891649D01*
X130635395Y-120838977D01*
X130449625Y-120840665D01*
X130264316Y-120901995D01*
X130228145Y-120922390D01*
X130087404Y-121008196D01*
X129876838Y-120831900D01*
X129666271Y-120655604D01*
X129759374Y-120556501D01*
X129936553Y-120428330D01*
X130183000Y-120346121D01*
X130496450Y-120310537D01*
X130601720Y-120309045D01*
X130887016Y-120329007D01*
X130887016Y-120329007D01*
G37*
X130887016Y-120329007D02*
X131109797Y-120389767D01*
X131284966Y-120497851D01*
X131427429Y-120659785D01*
X131437756Y-120675105D01*
X131477213Y-120736596D01*
X131506756Y-120794061D01*
X131528039Y-120860652D01*
X131542717Y-120949520D01*
X131552446Y-121073817D01*
X131558880Y-121246696D01*
X131563673Y-121481307D01*
X131567154Y-121703415D01*
X131580087Y-122555893D01*
X131334320Y-122678328D01*
X131208803Y-122735956D01*
X131093345Y-122773550D01*
X130961906Y-122796258D01*
X130788445Y-122809229D01*
X130644053Y-122814774D01*
X130427447Y-122818764D01*
X130273088Y-122813054D01*
X130158872Y-122795251D01*
X130062694Y-122762961D01*
X130030220Y-122748277D01*
X129814627Y-122609919D01*
X129672093Y-122431499D01*
X129598515Y-122206445D01*
X129585720Y-122035825D01*
X129586227Y-122032416D01*
X130185783Y-122032416D01*
X130231167Y-122152978D01*
X130282296Y-122214024D01*
X130362194Y-122277294D01*
X130458293Y-122308657D01*
X130602605Y-122317856D01*
X130623745Y-122317934D01*
X130771443Y-122310312D01*
X130894155Y-122290759D01*
X130943170Y-122274111D01*
X130993424Y-122228621D01*
X131018339Y-122146333D01*
X131025053Y-122003751D01*
X131025053Y-121777214D01*
X130840908Y-121749599D01*
X130622795Y-121738123D01*
X130439071Y-121768279D01*
X130298890Y-121832454D01*
X130211409Y-121923037D01*
X130185783Y-122032416D01*
X129586227Y-122032416D01*
X129622134Y-121791145D01*
X129728169Y-121587414D01*
X129881548Y-121445410D01*
X130043387Y-121353704D01*
X130212352Y-121295149D01*
X130413663Y-121263664D01*
X130672544Y-121253170D01*
X130679330Y-121253128D01*
X131032107Y-121251134D01*
X131005819Y-121138950D01*
X130932456Y-120993401D01*
X130802660Y-120891649D01*
X130635395Y-120838977D01*
X130449625Y-120840665D01*
X130264316Y-120901995D01*
X130228145Y-120922390D01*
X130087404Y-121008196D01*
X129876838Y-120831900D01*
X129666271Y-120655604D01*
X129759374Y-120556501D01*
X129936553Y-120428330D01*
X130183000Y-120346121D01*
X130496450Y-120310537D01*
X130601720Y-120309045D01*
X130887016Y-120329007D01*
G36*
X132803053Y-120325402D02*
G01*
X133258137Y-120337418D01*
X133713220Y-120349434D01*
X133725823Y-120614017D01*
X133738427Y-120878600D01*
X132749867Y-120878600D01*
X132768740Y-121469987D01*
X132779187Y-121730062D01*
X132794811Y-121919631D01*
X132820764Y-122052854D01*
X132862198Y-122143891D01*
X132924266Y-122206903D01*
X133012121Y-122256051D01*
X133062721Y-122277948D01*
X133152587Y-122304413D01*
X133251399Y-122303643D01*
X133389878Y-122274231D01*
X133440021Y-122260649D01*
X133574613Y-122224013D01*
X133672767Y-122198763D01*
X133709545Y-122190934D01*
X133728082Y-122228520D01*
X133756662Y-122325776D01*
X133781191Y-122427212D01*
X133808591Y-122566231D01*
X133811638Y-122646342D01*
X133789720Y-122689908D01*
X133773644Y-122702227D01*
X133598634Y-122776315D01*
X133374351Y-122817784D01*
X133129927Y-122825967D01*
X132894495Y-122800198D01*
X132697188Y-122739810D01*
X132672128Y-122727433D01*
X132459647Y-122570698D01*
X132309310Y-122357192D01*
X132220424Y-122085856D01*
X132209232Y-122019575D01*
X132197900Y-121898519D01*
X132187765Y-121708821D01*
X132179325Y-121466505D01*
X132173079Y-121187592D01*
X132169527Y-120888105D01*
X132168904Y-120724379D01*
X132168032Y-120398341D01*
X132168326Y-120146901D01*
X132173238Y-119960018D01*
X132186217Y-119827656D01*
X132210715Y-119739774D01*
X132250181Y-119686335D01*
X132308066Y-119657299D01*
X132387822Y-119642628D01*
X132492898Y-119632283D01*
X132546195Y-119626724D01*
X132803053Y-119597664D01*
X132803053Y-120325402D01*
X132803053Y-120325402D01*
G37*
X132803053Y-120325402D02*
X133258137Y-120337418D01*
X133713220Y-120349434D01*
X133725823Y-120614017D01*
X133738427Y-120878600D01*
X132749867Y-120878600D01*
X132768740Y-121469987D01*
X132779187Y-121730062D01*
X132794811Y-121919631D01*
X132820764Y-122052854D01*
X132862198Y-122143891D01*
X132924266Y-122206903D01*
X133012121Y-122256051D01*
X133062721Y-122277948D01*
X133152587Y-122304413D01*
X133251399Y-122303643D01*
X133389878Y-122274231D01*
X133440021Y-122260649D01*
X133574613Y-122224013D01*
X133672767Y-122198763D01*
X133709545Y-122190934D01*
X133728082Y-122228520D01*
X133756662Y-122325776D01*
X133781191Y-122427212D01*
X133808591Y-122566231D01*
X133811638Y-122646342D01*
X133789720Y-122689908D01*
X133773644Y-122702227D01*
X133598634Y-122776315D01*
X133374351Y-122817784D01*
X133129927Y-122825967D01*
X132894495Y-122800198D01*
X132697188Y-122739810D01*
X132672128Y-122727433D01*
X132459647Y-122570698D01*
X132309310Y-122357192D01*
X132220424Y-122085856D01*
X132209232Y-122019575D01*
X132197900Y-121898519D01*
X132187765Y-121708821D01*
X132179325Y-121466505D01*
X132173079Y-121187592D01*
X132169527Y-120888105D01*
X132168904Y-120724379D01*
X132168032Y-120398341D01*
X132168326Y-120146901D01*
X132173238Y-119960018D01*
X132186217Y-119827656D01*
X132210715Y-119739774D01*
X132250181Y-119686335D01*
X132308066Y-119657299D01*
X132387822Y-119642628D01*
X132492898Y-119632283D01*
X132546195Y-119626724D01*
X132803053Y-119597664D01*
X132803053Y-120325402D01*
G36*
X128406601Y-120322632D02*
G01*
X128643981Y-120388886D01*
X128837450Y-120502631D01*
X128940680Y-120613058D01*
X129001001Y-120708502D01*
X129047669Y-120808606D01*
X129082789Y-120926263D01*
X129108468Y-121074364D01*
X129126811Y-121265801D01*
X129139925Y-121513467D01*
X129149916Y-121830252D01*
X129151777Y-121905184D01*
X129172906Y-122783600D01*
X128581452Y-122783600D01*
X128559787Y-121968684D01*
X128549436Y-121647443D01*
X128536086Y-121400006D01*
X128517440Y-121215514D01*
X128491203Y-121083107D01*
X128455077Y-120991926D01*
X128406766Y-120931111D01*
X128343972Y-120889802D01*
X128330226Y-120883268D01*
X128204109Y-120847692D01*
X128059702Y-120838881D01*
X127917249Y-120853049D01*
X127796995Y-120886409D01*
X127719183Y-120935176D01*
X127704057Y-120995561D01*
X127705841Y-121000062D01*
X127716007Y-121062044D01*
X127726705Y-121194702D01*
X127737181Y-121384056D01*
X127746686Y-121616127D01*
X127754466Y-121876933D01*
X127755637Y-121926350D01*
X127775126Y-122783600D01*
X127172720Y-122783600D01*
X127170196Y-122116850D01*
X127167103Y-121868819D01*
X127160281Y-121633373D01*
X127150610Y-121431420D01*
X127138969Y-121283866D01*
X127133353Y-121240971D01*
X127070827Y-121041592D01*
X126958555Y-120910254D01*
X126794247Y-120844881D01*
X126686988Y-120836267D01*
X126586193Y-120835630D01*
X126509195Y-120840394D01*
X126452801Y-120860571D01*
X126413819Y-120906173D01*
X126389058Y-120987212D01*
X126375325Y-121113699D01*
X126369429Y-121295648D01*
X126368179Y-121543070D01*
X126368387Y-121835629D01*
X126368387Y-122783600D01*
X125775720Y-122783600D01*
X125775720Y-120421703D01*
X126124970Y-120369884D01*
X126435033Y-120336391D01*
X126723454Y-120328946D01*
X126974858Y-120346551D01*
X127173868Y-120388206D01*
X127296184Y-120445959D01*
X127387267Y-120505921D01*
X127449716Y-120515979D01*
X127519076Y-120481451D01*
X127521761Y-120479700D01*
X127614283Y-120435069D01*
X127754419Y-120384501D01*
X127871220Y-120350084D01*
X128143088Y-120308241D01*
X128406601Y-120322632D01*
X128406601Y-120322632D01*
G37*
X128406601Y-120322632D02*
X128643981Y-120388886D01*
X128837450Y-120502631D01*
X128940680Y-120613058D01*
X129001001Y-120708502D01*
X129047669Y-120808606D01*
X129082789Y-120926263D01*
X129108468Y-121074364D01*
X129126811Y-121265801D01*
X129139925Y-121513467D01*
X129149916Y-121830252D01*
X129151777Y-121905184D01*
X129172906Y-122783600D01*
X128581452Y-122783600D01*
X128559787Y-121968684D01*
X128549436Y-121647443D01*
X128536086Y-121400006D01*
X128517440Y-121215514D01*
X128491203Y-121083107D01*
X128455077Y-120991926D01*
X128406766Y-120931111D01*
X128343972Y-120889802D01*
X128330226Y-120883268D01*
X128204109Y-120847692D01*
X128059702Y-120838881D01*
X127917249Y-120853049D01*
X127796995Y-120886409D01*
X127719183Y-120935176D01*
X127704057Y-120995561D01*
X127705841Y-121000062D01*
X127716007Y-121062044D01*
X127726705Y-121194702D01*
X127737181Y-121384056D01*
X127746686Y-121616127D01*
X127754466Y-121876933D01*
X127755637Y-121926350D01*
X127775126Y-122783600D01*
X127172720Y-122783600D01*
X127170196Y-122116850D01*
X127167103Y-121868819D01*
X127160281Y-121633373D01*
X127150610Y-121431420D01*
X127138969Y-121283866D01*
X127133353Y-121240971D01*
X127070827Y-121041592D01*
X126958555Y-120910254D01*
X126794247Y-120844881D01*
X126686988Y-120836267D01*
X126586193Y-120835630D01*
X126509195Y-120840394D01*
X126452801Y-120860571D01*
X126413819Y-120906173D01*
X126389058Y-120987212D01*
X126375325Y-121113699D01*
X126369429Y-121295648D01*
X126368179Y-121543070D01*
X126368387Y-121835629D01*
X126368387Y-122783600D01*
X125775720Y-122783600D01*
X125775720Y-120421703D01*
X126124970Y-120369884D01*
X126435033Y-120336391D01*
X126723454Y-120328946D01*
X126974858Y-120346551D01*
X127173868Y-120388206D01*
X127296184Y-120445959D01*
X127387267Y-120505921D01*
X127449716Y-120515979D01*
X127519076Y-120481451D01*
X127521761Y-120479700D01*
X127614283Y-120435069D01*
X127754419Y-120384501D01*
X127871220Y-120350084D01*
X128143088Y-120308241D01*
X128406601Y-120322632D01*
G36*
X135456363Y-120319828D02*
G01*
X135665320Y-120358482D01*
X135708193Y-120372806D01*
X135757206Y-120397072D01*
X135778173Y-120436323D01*
X135774253Y-120512931D01*
X135748602Y-120649270D01*
X135747779Y-120653296D01*
X135714636Y-120793046D01*
X135681873Y-120866016D01*
X135639769Y-120889489D01*
X135615473Y-120888548D01*
X135361689Y-120857100D01*
X135173265Y-120842211D01*
X135032715Y-120842975D01*
X134945052Y-120853859D01*
X134792720Y-120882437D01*
X134792720Y-122783600D01*
X134200053Y-122783600D01*
X134200053Y-120468669D01*
X134365566Y-120419080D01*
X134628096Y-120357855D01*
X134913544Y-120320349D01*
X135197702Y-120307395D01*
X135456363Y-120319828D01*
X135456363Y-120319828D01*
G37*
X135456363Y-120319828D02*
X135665320Y-120358482D01*
X135708193Y-120372806D01*
X135757206Y-120397072D01*
X135778173Y-120436323D01*
X135774253Y-120512931D01*
X135748602Y-120649270D01*
X135747779Y-120653296D01*
X135714636Y-120793046D01*
X135681873Y-120866016D01*
X135639769Y-120889489D01*
X135615473Y-120888548D01*
X135361689Y-120857100D01*
X135173265Y-120842211D01*
X135032715Y-120842975D01*
X134945052Y-120853859D01*
X134792720Y-120882437D01*
X134792720Y-122783600D01*
X134200053Y-122783600D01*
X134200053Y-120468669D01*
X134365566Y-120419080D01*
X134628096Y-120357855D01*
X134913544Y-120320349D01*
X135197702Y-120307395D01*
X135456363Y-120319828D01*
G36*
X136655387Y-122783600D02*
G01*
X136062720Y-122783600D01*
X136062720Y-120370600D01*
X136655387Y-120370600D01*
X136655387Y-122783600D01*
X136655387Y-122783600D01*
G37*
X136655387Y-122783600D02*
X136062720Y-122783600D01*
X136062720Y-120370600D01*
X136655387Y-120370600D01*
X136655387Y-122783600D01*
G36*
X137880149Y-120729675D02*
G01*
X137976219Y-120883507D01*
X138057320Y-121008149D01*
X138112570Y-121087155D01*
X138129285Y-121106143D01*
X138161941Y-121079790D01*
X138227561Y-120994926D01*
X138315768Y-120865773D01*
X138391053Y-120747505D01*
X138623887Y-120371475D01*
X138933302Y-120371037D01*
X139096359Y-120374232D01*
X139186489Y-120385843D01*
X139215201Y-120408051D01*
X139210303Y-120423517D01*
X139175274Y-120475737D01*
X139101087Y-120583204D01*
X138997417Y-120731998D01*
X138873939Y-120908203D01*
X138824519Y-120978484D01*
X138471148Y-121480534D01*
X138875601Y-122093589D01*
X139007669Y-122295894D01*
X139121672Y-122474570D01*
X139210005Y-122617369D01*
X139265065Y-122712043D01*
X139280053Y-122745122D01*
X139241328Y-122764191D01*
X139139513Y-122777955D01*
X138996149Y-122783583D01*
X138987363Y-122783600D01*
X138694673Y-122783600D01*
X138536165Y-122497850D01*
X138438106Y-122326922D01*
X138335029Y-122156406D01*
X138251545Y-122026695D01*
X138125433Y-121841289D01*
X137979997Y-122069028D01*
X137875125Y-122241887D01*
X137765584Y-122435519D01*
X137710031Y-122540184D01*
X137585501Y-122783600D01*
X137289777Y-122783600D01*
X137143873Y-122781070D01*
X137038223Y-122774414D01*
X136994266Y-122765030D01*
X136994053Y-122764296D01*
X137016553Y-122710434D01*
X137078274Y-122600693D01*
X137170548Y-122449019D01*
X137284710Y-122269357D01*
X137412090Y-122075649D01*
X137529724Y-121902490D01*
X137802144Y-121508213D01*
X137419265Y-120961382D01*
X137288735Y-120773634D01*
X137177321Y-120610860D01*
X137093285Y-120485329D01*
X137044885Y-120409313D01*
X137036387Y-120392576D01*
X137075235Y-120381985D01*
X137177859Y-120374193D01*
X137323378Y-120370669D01*
X137348167Y-120370600D01*
X137659947Y-120370600D01*
X137880149Y-120729675D01*
X137880149Y-120729675D01*
G37*
X137880149Y-120729675D02*
X137976219Y-120883507D01*
X138057320Y-121008149D01*
X138112570Y-121087155D01*
X138129285Y-121106143D01*
X138161941Y-121079790D01*
X138227561Y-120994926D01*
X138315768Y-120865773D01*
X138391053Y-120747505D01*
X138623887Y-120371475D01*
X138933302Y-120371037D01*
X139096359Y-120374232D01*
X139186489Y-120385843D01*
X139215201Y-120408051D01*
X139210303Y-120423517D01*
X139175274Y-120475737D01*
X139101087Y-120583204D01*
X138997417Y-120731998D01*
X138873939Y-120908203D01*
X138824519Y-120978484D01*
X138471148Y-121480534D01*
X138875601Y-122093589D01*
X139007669Y-122295894D01*
X139121672Y-122474570D01*
X139210005Y-122617369D01*
X139265065Y-122712043D01*
X139280053Y-122745122D01*
X139241328Y-122764191D01*
X139139513Y-122777955D01*
X138996149Y-122783583D01*
X138987363Y-122783600D01*
X138694673Y-122783600D01*
X138536165Y-122497850D01*
X138438106Y-122326922D01*
X138335029Y-122156406D01*
X138251545Y-122026695D01*
X138125433Y-121841289D01*
X137979997Y-122069028D01*
X137875125Y-122241887D01*
X137765584Y-122435519D01*
X137710031Y-122540184D01*
X137585501Y-122783600D01*
X137289777Y-122783600D01*
X137143873Y-122781070D01*
X137038223Y-122774414D01*
X136994266Y-122765030D01*
X136994053Y-122764296D01*
X137016553Y-122710434D01*
X137078274Y-122600693D01*
X137170548Y-122449019D01*
X137284710Y-122269357D01*
X137412090Y-122075649D01*
X137529724Y-121902490D01*
X137802144Y-121508213D01*
X137419265Y-120961382D01*
X137288735Y-120773634D01*
X137177321Y-120610860D01*
X137093285Y-120485329D01*
X137044885Y-120409313D01*
X137036387Y-120392576D01*
X137075235Y-120381985D01*
X137177859Y-120374193D01*
X137323378Y-120370669D01*
X137348167Y-120370600D01*
X137659947Y-120370600D01*
X137880149Y-120729675D01*
G36*
X144911149Y-120485194D02*
G01*
X144749228Y-120982694D01*
X144611588Y-121404280D01*
X144496670Y-121754664D01*
X144402915Y-122038559D01*
X144328765Y-122260678D01*
X144272662Y-122425734D01*
X144233047Y-122538439D01*
X144224663Y-122561350D01*
X144142303Y-122783600D01*
X143567810Y-122783600D01*
X143347306Y-122267050D01*
X143204845Y-121918872D01*
X143057749Y-121534019D01*
X142917411Y-121143789D01*
X142795221Y-120779481D01*
X142734250Y-120582631D01*
X142671283Y-120370600D01*
X143293275Y-120370600D01*
X143345922Y-120592850D01*
X143444910Y-120969289D01*
X143564812Y-121360287D01*
X143692310Y-121723340D01*
X143732606Y-121826843D01*
X143778751Y-121943733D01*
X143815240Y-122029491D01*
X143845982Y-122077941D01*
X143874884Y-122082907D01*
X143905855Y-122038213D01*
X143942803Y-121937683D01*
X143989638Y-121775141D01*
X144050266Y-121544412D01*
X144128597Y-121239320D01*
X144145160Y-121174934D01*
X144346863Y-120391767D01*
X144648225Y-120379361D01*
X144949587Y-120366954D01*
X144911149Y-120485194D01*
X144911149Y-120485194D01*
G37*
X144911149Y-120485194D02*
X144749228Y-120982694D01*
X144611588Y-121404280D01*
X144496670Y-121754664D01*
X144402915Y-122038559D01*
X144328765Y-122260678D01*
X144272662Y-122425734D01*
X144233047Y-122538439D01*
X144224663Y-122561350D01*
X144142303Y-122783600D01*
X143567810Y-122783600D01*
X143347306Y-122267050D01*
X143204845Y-121918872D01*
X143057749Y-121534019D01*
X142917411Y-121143789D01*
X142795221Y-120779481D01*
X142734250Y-120582631D01*
X142671283Y-120370600D01*
X143293275Y-120370600D01*
X143345922Y-120592850D01*
X143444910Y-120969289D01*
X143564812Y-121360287D01*
X143692310Y-121723340D01*
X143732606Y-121826843D01*
X143778751Y-121943733D01*
X143815240Y-122029491D01*
X143845982Y-122077941D01*
X143874884Y-122082907D01*
X143905855Y-122038213D01*
X143942803Y-121937683D01*
X143989638Y-121775141D01*
X144050266Y-121544412D01*
X144128597Y-121239320D01*
X144145160Y-121174934D01*
X144346863Y-120391767D01*
X144648225Y-120379361D01*
X144949587Y-120366954D01*
X144911149Y-120485194D01*
G36*
X136655387Y-120031934D02*
G01*
X136387275Y-120031934D01*
X136243569Y-120027781D01*
X136135780Y-120016961D01*
X136090942Y-120003711D01*
X136076745Y-119949987D01*
X136066610Y-119836199D01*
X136062720Y-119686931D01*
X136062720Y-119396934D01*
X136655387Y-119396934D01*
X136655387Y-120031934D01*
X136655387Y-120031934D01*
G37*
X136655387Y-120031934D02*
X136387275Y-120031934D01*
X136243569Y-120027781D01*
X136135780Y-120016961D01*
X136090942Y-120003711D01*
X136076745Y-119949987D01*
X136066610Y-119836199D01*
X136062720Y-119686931D01*
X136062720Y-119396934D01*
X136655387Y-119396934D01*
X136655387Y-120031934D01*
D11*
X151305859Y-49051483D03*
X147358812Y-99897181D03*
D12*
X118005548Y-99908076D03*
X88707364Y-99860736D03*
X59372426Y-99876201D03*
X136872812Y-69896934D03*
X62337790Y-123387324D03*
D13*
X57887726Y-142903940D03*
X66840125Y-142905060D03*
D14*
X76855323Y-142903040D03*
X85838285Y-142894640D03*
X99346780Y-142905070D03*
X108333719Y-142905050D03*
X121842317Y-129897273D03*
X130835077Y-129903705D03*
X139847573Y-129905368D03*
X148840899Y-129909076D03*
X121858758Y-142894460D03*
X130851510Y-142900890D03*
X139864007Y-142902550D03*
X148857339Y-142906260D03*
D15*
X151496719Y-37149600D03*
X55096719Y-159649600D03*
X151496719Y-159649600D03*
X55096719Y-37149600D03*
M02*
