M48
; DRILL file {KiCad (5.1.2)-1} date 15/05/2019 15:41:16
; FORMAT={-:-/ absolute / inch / decimal}
; #@! TF.CreationDate,2019-05-15T15:41:16+02:00
; #@! TF.GenerationSoftware,Kicad,Pcbnew,(5.1.2)-1
FMAT,2
INCH
T1C0.1339
T2C0.2441
T3C0.2441
T4C0.2835
T5C0.2835
%
G90
G05
T1
X5.9644Y-1.4626
X2.1692Y-6.2854
X5.9644Y-6.2854
X2.1692Y-1.4626
T2
X2.279Y-5.6261
X2.6315Y-5.6262
T3
X5.5058Y-5.1144
X4.7976Y-5.6258
X3.0258Y-5.6261
X5.8605Y-5.6262
X5.1516Y-5.626
X5.151Y-5.1143
X3.9113Y-5.6262
X4.2651Y-5.6262
X4.7969Y-5.1141
X5.8599Y-5.1145
X5.5065Y-5.6261
X3.3795Y-5.6258
T4
X5.9569Y-1.9312
X5.8015Y-3.933
T5
X3.4924Y-3.9315
X2.3375Y-3.9321
X4.6459Y-3.9334
X2.4542Y-4.8578
X5.3887Y-2.7518
T0
M30
