G04 #@! TF.GenerationSoftware,KiCad,Pcbnew,(5.1.2)-1*
G04 #@! TF.CreationDate,2019-05-15T15:41:14+02:00*
G04 #@! TF.ProjectId,frontplate-ctag,66726f6e-7470-46c6-9174-652d63746167,rev?*
G04 #@! TF.SameCoordinates,Original*
G04 #@! TF.FileFunction,Copper,L1,Top*
G04 #@! TF.FilePolarity,Positive*
%FSLAX46Y46*%
G04 Gerber Fmt 4.6, Leading zero omitted, Abs format (unit mm)*
G04 Created by KiCad (PCBNEW (5.1.2)-1) date 2019-05-15 15:41:14*
%MOMM*%
%LPD*%
G04 APERTURE LIST*
%ADD10C,0.010000*%
%ADD11C,7.200000*%
%ADD12C,7.200001*%
%ADD13C,6.200000*%
%ADD14C,6.200001*%
%ADD15C,3.400000*%
G04 APERTURE END LIST*
D10*
G36*
X159007386Y-34387752D02*
G01*
X159007386Y-98420767D01*
X159007387Y-162453782D01*
X158903477Y-162557691D01*
X158799568Y-162661600D01*
X47836205Y-162661600D01*
X47628387Y-162453782D01*
X47628387Y-82566713D01*
X130344173Y-82566713D01*
X130367081Y-82968385D01*
X130455174Y-83336949D01*
X130604627Y-83665545D01*
X130811613Y-83947311D01*
X131072308Y-84175386D01*
X131382884Y-84342909D01*
X131667516Y-84429320D01*
X131934041Y-84459496D01*
X132226407Y-84449972D01*
X132509481Y-84404113D01*
X132746677Y-84325951D01*
X132889149Y-84255398D01*
X133008775Y-84186818D01*
X133067892Y-84144625D01*
X133103539Y-84105399D01*
X133107146Y-84065144D01*
X133070526Y-84007130D01*
X132985494Y-83914627D01*
X132925360Y-83853348D01*
X132706193Y-83631424D01*
X132486617Y-83755346D01*
X132229400Y-83856186D01*
X131967224Y-83879951D01*
X131713546Y-83832203D01*
X131481824Y-83718506D01*
X131285518Y-83544422D01*
X131138084Y-83315516D01*
X131084985Y-83175947D01*
X131046894Y-82980359D01*
X131028701Y-82734718D01*
X131030217Y-82471223D01*
X131051254Y-82222072D01*
X131091625Y-82019462D01*
X131091737Y-82019084D01*
X131203019Y-81774280D01*
X131369660Y-81574634D01*
X131577339Y-81425961D01*
X131811735Y-81334076D01*
X132058527Y-81304791D01*
X132303395Y-81343922D01*
X132510953Y-81442877D01*
X132678465Y-81553731D01*
X132910092Y-81353758D01*
X133023108Y-81253755D01*
X133105579Y-81176143D01*
X133141333Y-81136210D01*
X133141720Y-81134776D01*
X133105131Y-81087934D01*
X133003154Y-81014134D01*
X132847475Y-80921462D01*
X132781887Y-80885759D01*
X132556231Y-80801728D01*
X132280711Y-80754814D01*
X131982098Y-80746143D01*
X131687163Y-80776841D01*
X131471448Y-80830636D01*
X131176149Y-80971615D01*
X130910091Y-81181684D01*
X130684555Y-81447196D01*
X130510821Y-81754501D01*
X130400169Y-82089951D01*
X130390277Y-82138795D01*
X130344173Y-82566713D01*
X47628387Y-82566713D01*
X47628387Y-79901547D01*
X133903720Y-79901547D01*
X133903956Y-81646990D01*
X133905060Y-82077606D01*
X133908141Y-82467532D01*
X133913031Y-82809363D01*
X133919564Y-83095695D01*
X133927573Y-83319123D01*
X133936892Y-83472244D01*
X133946681Y-83545397D01*
X134054658Y-83790491D01*
X134229613Y-84019584D01*
X134453892Y-84214306D01*
X134709839Y-84356290D01*
X134736087Y-84366724D01*
X134878906Y-84398673D01*
X135078848Y-84414099D01*
X135310175Y-84413878D01*
X135547151Y-84398884D01*
X135764038Y-84369991D01*
X135935099Y-84328073D01*
X135941658Y-84325769D01*
X136138097Y-84255473D01*
X136075352Y-84014453D01*
X136039792Y-83883400D01*
X136011917Y-83790682D01*
X136000013Y-83760478D01*
X135955951Y-83763681D01*
X135852860Y-83784643D01*
X135718153Y-83817534D01*
X135501212Y-83858264D01*
X135289076Y-83871923D01*
X135224729Y-83869182D01*
X135087013Y-83850422D01*
X134983880Y-83809981D01*
X134880288Y-83730645D01*
X134813451Y-83667172D01*
X134728464Y-83575733D01*
X134662660Y-83480619D01*
X134613869Y-83370047D01*
X134609705Y-83353142D01*
X136740289Y-83353142D01*
X136777490Y-83653574D01*
X136885870Y-83914954D01*
X137059554Y-84129198D01*
X137292664Y-84288218D01*
X137470012Y-84357182D01*
X137663952Y-84395958D01*
X137911551Y-84419235D01*
X138184764Y-84426931D01*
X138455546Y-84418961D01*
X138695853Y-84395242D01*
X138859620Y-84361340D01*
X139029706Y-84302102D01*
X139221354Y-84222728D01*
X139336436Y-84168481D01*
X139583319Y-84043882D01*
X139566554Y-82871491D01*
X139561361Y-82544126D01*
X140605991Y-82544126D01*
X140629228Y-82911624D01*
X140713545Y-83258172D01*
X140855068Y-83567836D01*
X141049372Y-83824119D01*
X141209832Y-83970791D01*
X141371336Y-84073506D01*
X141563283Y-84147542D01*
X141770787Y-84199007D01*
X142066814Y-84247246D01*
X142325595Y-84252995D01*
X142583509Y-84215575D01*
X142720553Y-84181285D01*
X143005387Y-84102303D01*
X143003528Y-84297701D01*
X142969632Y-84580410D01*
X142873175Y-84806742D01*
X142713123Y-84978486D01*
X142556399Y-85070031D01*
X142361080Y-85129755D01*
X142111323Y-85166319D01*
X141834215Y-85179414D01*
X141556841Y-85168735D01*
X141306288Y-85133973D01*
X141136809Y-85086111D01*
X141084276Y-85091033D01*
X141022151Y-85152795D01*
X140939841Y-85282097D01*
X140935726Y-85289267D01*
X140867048Y-85412731D01*
X140819410Y-85504923D01*
X140804053Y-85542601D01*
X140841318Y-85569486D01*
X140936989Y-85607431D01*
X141066885Y-85648863D01*
X141206822Y-85686203D01*
X141332618Y-85711878D01*
X141354387Y-85715003D01*
X141504905Y-85724712D01*
X141712639Y-85725456D01*
X141950755Y-85718465D01*
X142192418Y-85704973D01*
X142410794Y-85686210D01*
X142579048Y-85663409D01*
X142609373Y-85657389D01*
X142904102Y-85557028D01*
X143160637Y-85398297D01*
X143361668Y-85192893D01*
X143415309Y-85112817D01*
X143499187Y-84949080D01*
X143568322Y-84773434D01*
X143595495Y-84677086D01*
X143607463Y-84576973D01*
X143617886Y-84400032D01*
X143626569Y-84154092D01*
X143633311Y-83846982D01*
X143637914Y-83486531D01*
X143640179Y-83080566D01*
X143640387Y-82907114D01*
X143640387Y-81346462D01*
X143448462Y-81177524D01*
X143272515Y-81033131D01*
X143112275Y-80931495D01*
X142946111Y-80865529D01*
X142752395Y-80828147D01*
X142509496Y-80812262D01*
X142327050Y-80810100D01*
X142103852Y-80811091D01*
X141943611Y-80816541D01*
X141824622Y-80830166D01*
X141725177Y-80855683D01*
X141623571Y-80896808D01*
X141514361Y-80949239D01*
X141224076Y-81129756D01*
X140993271Y-81359178D01*
X140816894Y-81644634D01*
X140689889Y-81993253D01*
X140647706Y-82171613D01*
X140605991Y-82544126D01*
X139561361Y-82544126D01*
X139560697Y-82502322D01*
X139553715Y-82206585D01*
X139543917Y-81973044D01*
X139529612Y-81790466D01*
X139509111Y-81647617D01*
X139480723Y-81533263D01*
X139442757Y-81436170D01*
X139393523Y-81345104D01*
X139331330Y-81248831D01*
X139319821Y-81231836D01*
X139145996Y-81048625D01*
X138908092Y-80907646D01*
X138617182Y-80812138D01*
X138284340Y-80765341D01*
X137920640Y-80770492D01*
X137791319Y-80784734D01*
X137570822Y-80827324D01*
X137352629Y-80891852D01*
X137159082Y-80969769D01*
X137012520Y-81052525D01*
X136952159Y-81105904D01*
X136956310Y-81157430D01*
X137028416Y-81244825D01*
X137144627Y-81349470D01*
X137377053Y-81544889D01*
X137554752Y-81443954D01*
X137789608Y-81348138D01*
X138043234Y-81307838D01*
X138294465Y-81321591D01*
X138522136Y-81387935D01*
X138705081Y-81505406D01*
X138724939Y-81524834D01*
X138856414Y-81709132D01*
X138926249Y-81933541D01*
X138941387Y-82137675D01*
X138937610Y-82251423D01*
X138918501Y-82300005D01*
X138872388Y-82302841D01*
X138846137Y-82296181D01*
X138669418Y-82263436D01*
X138441361Y-82244220D01*
X138194349Y-82239434D01*
X137960762Y-82249982D01*
X137819167Y-82267561D01*
X137464425Y-82356970D01*
X137181785Y-82489842D01*
X136969889Y-82667544D01*
X136827379Y-82891441D01*
X136752898Y-83162900D01*
X136740289Y-83353142D01*
X134609705Y-83353142D01*
X134579921Y-83232229D01*
X134558645Y-83055382D01*
X134547871Y-82827720D01*
X134545429Y-82537456D01*
X134548354Y-82227571D01*
X134559887Y-81402767D01*
X135978053Y-81379553D01*
X135978053Y-80875647D01*
X135268970Y-80864040D01*
X134559887Y-80852434D01*
X134573836Y-80356421D01*
X134577412Y-80158240D01*
X134576689Y-79990846D01*
X134571998Y-79872514D01*
X134564217Y-79822274D01*
X134509798Y-79807490D01*
X134387317Y-79813444D01*
X134210429Y-79838728D01*
X133998970Y-79880569D01*
X133903720Y-79901547D01*
X47628387Y-79901547D01*
X47628387Y-34387752D01*
X47836205Y-34179934D01*
X158799568Y-34179934D01*
X159007386Y-34387752D01*
X159007386Y-34387752D01*
G37*
X159007386Y-34387752D02*
X159007386Y-98420767D01*
X159007387Y-162453782D01*
X158903477Y-162557691D01*
X158799568Y-162661600D01*
X47836205Y-162661600D01*
X47628387Y-162453782D01*
X47628387Y-82566713D01*
X130344173Y-82566713D01*
X130367081Y-82968385D01*
X130455174Y-83336949D01*
X130604627Y-83665545D01*
X130811613Y-83947311D01*
X131072308Y-84175386D01*
X131382884Y-84342909D01*
X131667516Y-84429320D01*
X131934041Y-84459496D01*
X132226407Y-84449972D01*
X132509481Y-84404113D01*
X132746677Y-84325951D01*
X132889149Y-84255398D01*
X133008775Y-84186818D01*
X133067892Y-84144625D01*
X133103539Y-84105399D01*
X133107146Y-84065144D01*
X133070526Y-84007130D01*
X132985494Y-83914627D01*
X132925360Y-83853348D01*
X132706193Y-83631424D01*
X132486617Y-83755346D01*
X132229400Y-83856186D01*
X131967224Y-83879951D01*
X131713546Y-83832203D01*
X131481824Y-83718506D01*
X131285518Y-83544422D01*
X131138084Y-83315516D01*
X131084985Y-83175947D01*
X131046894Y-82980359D01*
X131028701Y-82734718D01*
X131030217Y-82471223D01*
X131051254Y-82222072D01*
X131091625Y-82019462D01*
X131091737Y-82019084D01*
X131203019Y-81774280D01*
X131369660Y-81574634D01*
X131577339Y-81425961D01*
X131811735Y-81334076D01*
X132058527Y-81304791D01*
X132303395Y-81343922D01*
X132510953Y-81442877D01*
X132678465Y-81553731D01*
X132910092Y-81353758D01*
X133023108Y-81253755D01*
X133105579Y-81176143D01*
X133141333Y-81136210D01*
X133141720Y-81134776D01*
X133105131Y-81087934D01*
X133003154Y-81014134D01*
X132847475Y-80921462D01*
X132781887Y-80885759D01*
X132556231Y-80801728D01*
X132280711Y-80754814D01*
X131982098Y-80746143D01*
X131687163Y-80776841D01*
X131471448Y-80830636D01*
X131176149Y-80971615D01*
X130910091Y-81181684D01*
X130684555Y-81447196D01*
X130510821Y-81754501D01*
X130400169Y-82089951D01*
X130390277Y-82138795D01*
X130344173Y-82566713D01*
X47628387Y-82566713D01*
X47628387Y-79901547D01*
X133903720Y-79901547D01*
X133903956Y-81646990D01*
X133905060Y-82077606D01*
X133908141Y-82467532D01*
X133913031Y-82809363D01*
X133919564Y-83095695D01*
X133927573Y-83319123D01*
X133936892Y-83472244D01*
X133946681Y-83545397D01*
X134054658Y-83790491D01*
X134229613Y-84019584D01*
X134453892Y-84214306D01*
X134709839Y-84356290D01*
X134736087Y-84366724D01*
X134878906Y-84398673D01*
X135078848Y-84414099D01*
X135310175Y-84413878D01*
X135547151Y-84398884D01*
X135764038Y-84369991D01*
X135935099Y-84328073D01*
X135941658Y-84325769D01*
X136138097Y-84255473D01*
X136075352Y-84014453D01*
X136039792Y-83883400D01*
X136011917Y-83790682D01*
X136000013Y-83760478D01*
X135955951Y-83763681D01*
X135852860Y-83784643D01*
X135718153Y-83817534D01*
X135501212Y-83858264D01*
X135289076Y-83871923D01*
X135224729Y-83869182D01*
X135087013Y-83850422D01*
X134983880Y-83809981D01*
X134880288Y-83730645D01*
X134813451Y-83667172D01*
X134728464Y-83575733D01*
X134662660Y-83480619D01*
X134613869Y-83370047D01*
X134609705Y-83353142D01*
X136740289Y-83353142D01*
X136777490Y-83653574D01*
X136885870Y-83914954D01*
X137059554Y-84129198D01*
X137292664Y-84288218D01*
X137470012Y-84357182D01*
X137663952Y-84395958D01*
X137911551Y-84419235D01*
X138184764Y-84426931D01*
X138455546Y-84418961D01*
X138695853Y-84395242D01*
X138859620Y-84361340D01*
X139029706Y-84302102D01*
X139221354Y-84222728D01*
X139336436Y-84168481D01*
X139583319Y-84043882D01*
X139566554Y-82871491D01*
X139561361Y-82544126D01*
X140605991Y-82544126D01*
X140629228Y-82911624D01*
X140713545Y-83258172D01*
X140855068Y-83567836D01*
X141049372Y-83824119D01*
X141209832Y-83970791D01*
X141371336Y-84073506D01*
X141563283Y-84147542D01*
X141770787Y-84199007D01*
X142066814Y-84247246D01*
X142325595Y-84252995D01*
X142583509Y-84215575D01*
X142720553Y-84181285D01*
X143005387Y-84102303D01*
X143003528Y-84297701D01*
X142969632Y-84580410D01*
X142873175Y-84806742D01*
X142713123Y-84978486D01*
X142556399Y-85070031D01*
X142361080Y-85129755D01*
X142111323Y-85166319D01*
X141834215Y-85179414D01*
X141556841Y-85168735D01*
X141306288Y-85133973D01*
X141136809Y-85086111D01*
X141084276Y-85091033D01*
X141022151Y-85152795D01*
X140939841Y-85282097D01*
X140935726Y-85289267D01*
X140867048Y-85412731D01*
X140819410Y-85504923D01*
X140804053Y-85542601D01*
X140841318Y-85569486D01*
X140936989Y-85607431D01*
X141066885Y-85648863D01*
X141206822Y-85686203D01*
X141332618Y-85711878D01*
X141354387Y-85715003D01*
X141504905Y-85724712D01*
X141712639Y-85725456D01*
X141950755Y-85718465D01*
X142192418Y-85704973D01*
X142410794Y-85686210D01*
X142579048Y-85663409D01*
X142609373Y-85657389D01*
X142904102Y-85557028D01*
X143160637Y-85398297D01*
X143361668Y-85192893D01*
X143415309Y-85112817D01*
X143499187Y-84949080D01*
X143568322Y-84773434D01*
X143595495Y-84677086D01*
X143607463Y-84576973D01*
X143617886Y-84400032D01*
X143626569Y-84154092D01*
X143633311Y-83846982D01*
X143637914Y-83486531D01*
X143640179Y-83080566D01*
X143640387Y-82907114D01*
X143640387Y-81346462D01*
X143448462Y-81177524D01*
X143272515Y-81033131D01*
X143112275Y-80931495D01*
X142946111Y-80865529D01*
X142752395Y-80828147D01*
X142509496Y-80812262D01*
X142327050Y-80810100D01*
X142103852Y-80811091D01*
X141943611Y-80816541D01*
X141824622Y-80830166D01*
X141725177Y-80855683D01*
X141623571Y-80896808D01*
X141514361Y-80949239D01*
X141224076Y-81129756D01*
X140993271Y-81359178D01*
X140816894Y-81644634D01*
X140689889Y-81993253D01*
X140647706Y-82171613D01*
X140605991Y-82544126D01*
X139561361Y-82544126D01*
X139560697Y-82502322D01*
X139553715Y-82206585D01*
X139543917Y-81973044D01*
X139529612Y-81790466D01*
X139509111Y-81647617D01*
X139480723Y-81533263D01*
X139442757Y-81436170D01*
X139393523Y-81345104D01*
X139331330Y-81248831D01*
X139319821Y-81231836D01*
X139145996Y-81048625D01*
X138908092Y-80907646D01*
X138617182Y-80812138D01*
X138284340Y-80765341D01*
X137920640Y-80770492D01*
X137791319Y-80784734D01*
X137570822Y-80827324D01*
X137352629Y-80891852D01*
X137159082Y-80969769D01*
X137012520Y-81052525D01*
X136952159Y-81105904D01*
X136956310Y-81157430D01*
X137028416Y-81244825D01*
X137144627Y-81349470D01*
X137377053Y-81544889D01*
X137554752Y-81443954D01*
X137789608Y-81348138D01*
X138043234Y-81307838D01*
X138294465Y-81321591D01*
X138522136Y-81387935D01*
X138705081Y-81505406D01*
X138724939Y-81524834D01*
X138856414Y-81709132D01*
X138926249Y-81933541D01*
X138941387Y-82137675D01*
X138937610Y-82251423D01*
X138918501Y-82300005D01*
X138872388Y-82302841D01*
X138846137Y-82296181D01*
X138669418Y-82263436D01*
X138441361Y-82244220D01*
X138194349Y-82239434D01*
X137960762Y-82249982D01*
X137819167Y-82267561D01*
X137464425Y-82356970D01*
X137181785Y-82489842D01*
X136969889Y-82667544D01*
X136827379Y-82891441D01*
X136752898Y-83162900D01*
X136740289Y-83353142D01*
X134609705Y-83353142D01*
X134579921Y-83232229D01*
X134558645Y-83055382D01*
X134547871Y-82827720D01*
X134545429Y-82537456D01*
X134548354Y-82227571D01*
X134559887Y-81402767D01*
X135978053Y-81379553D01*
X135978053Y-80875647D01*
X135268970Y-80864040D01*
X134559887Y-80852434D01*
X134573836Y-80356421D01*
X134577412Y-80158240D01*
X134576689Y-79990846D01*
X134571998Y-79872514D01*
X134564217Y-79822274D01*
X134509798Y-79807490D01*
X134387317Y-79813444D01*
X134210429Y-79838728D01*
X133998970Y-79880569D01*
X133903720Y-79901547D01*
X47628387Y-79901547D01*
X47628387Y-34387752D01*
X47836205Y-34179934D01*
X158799568Y-34179934D01*
X159007386Y-34387752D01*
G36*
X142633484Y-81408966D02*
G01*
X142823969Y-81464448D01*
X142826240Y-81465472D01*
X143006927Y-81547484D01*
X142995573Y-82554625D01*
X142984220Y-83561767D01*
X142814887Y-83645839D01*
X142638335Y-83705681D01*
X142421496Y-83739172D01*
X142193829Y-83745595D01*
X141984795Y-83724231D01*
X141823852Y-83674365D01*
X141815834Y-83670162D01*
X141589335Y-83501153D01*
X141422678Y-83274699D01*
X141317808Y-82995131D01*
X141276672Y-82666782D01*
X141281045Y-82479200D01*
X141305307Y-82276806D01*
X141345902Y-82086943D01*
X141386592Y-81966135D01*
X141507871Y-81763622D01*
X141671255Y-81589362D01*
X141853721Y-81465595D01*
X141940795Y-81430810D01*
X142156613Y-81390766D01*
X142399271Y-81383944D01*
X142633484Y-81408966D01*
X142633484Y-81408966D01*
G37*
X142633484Y-81408966D02*
X142823969Y-81464448D01*
X142826240Y-81465472D01*
X143006927Y-81547484D01*
X142995573Y-82554625D01*
X142984220Y-83561767D01*
X142814887Y-83645839D01*
X142638335Y-83705681D01*
X142421496Y-83739172D01*
X142193829Y-83745595D01*
X141984795Y-83724231D01*
X141823852Y-83674365D01*
X141815834Y-83670162D01*
X141589335Y-83501153D01*
X141422678Y-83274699D01*
X141317808Y-82995131D01*
X141276672Y-82666782D01*
X141281045Y-82479200D01*
X141305307Y-82276806D01*
X141345902Y-82086943D01*
X141386592Y-81966135D01*
X141507871Y-81763622D01*
X141671255Y-81589362D01*
X141853721Y-81465595D01*
X141940795Y-81430810D01*
X142156613Y-81390766D01*
X142399271Y-81383944D01*
X142633484Y-81408966D01*
G36*
X138551084Y-82744772D02*
G01*
X138712962Y-82765599D01*
X138782637Y-82780826D01*
X138941387Y-82824913D01*
X138941387Y-83750093D01*
X138806475Y-83819858D01*
X138697396Y-83854508D01*
X138532309Y-83882892D01*
X138339780Y-83902661D01*
X138148378Y-83911467D01*
X137986669Y-83906960D01*
X137904220Y-83894033D01*
X137679697Y-83807112D01*
X137528381Y-83684598D01*
X137443281Y-83518040D01*
X137417387Y-83305636D01*
X137454820Y-83110580D01*
X137565693Y-82954941D01*
X137747860Y-82839986D01*
X137999176Y-82766977D01*
X138317498Y-82737179D01*
X138382554Y-82736503D01*
X138551084Y-82744772D01*
X138551084Y-82744772D01*
G37*
X138551084Y-82744772D02*
X138712962Y-82765599D01*
X138782637Y-82780826D01*
X138941387Y-82824913D01*
X138941387Y-83750093D01*
X138806475Y-83819858D01*
X138697396Y-83854508D01*
X138532309Y-83882892D01*
X138339780Y-83902661D01*
X138148378Y-83911467D01*
X137986669Y-83906960D01*
X137904220Y-83894033D01*
X137679697Y-83807112D01*
X137528381Y-83684598D01*
X137443281Y-83518040D01*
X137417387Y-83305636D01*
X137454820Y-83110580D01*
X137565693Y-82954941D01*
X137747860Y-82839986D01*
X137999176Y-82766977D01*
X138317498Y-82737179D01*
X138382554Y-82736503D01*
X138551084Y-82744772D01*
D11*
X151305859Y-49051483D03*
X147358812Y-99897181D03*
D12*
X118005548Y-99908076D03*
X88707364Y-99860736D03*
X59372426Y-99876201D03*
X136872812Y-69896934D03*
X62337790Y-123387324D03*
D13*
X57887726Y-142903940D03*
X66840125Y-142905060D03*
D14*
X76855323Y-142903040D03*
X85838285Y-142894640D03*
X99346780Y-142905070D03*
X108333719Y-142905050D03*
X121842317Y-129897273D03*
X130835077Y-129903705D03*
X139847573Y-129905368D03*
X148840899Y-129909076D03*
X121858758Y-142894460D03*
X130851510Y-142900890D03*
X139864007Y-142902550D03*
X148857339Y-142906260D03*
D15*
X151496719Y-37149600D03*
X55096719Y-159649600D03*
X151496719Y-159649600D03*
X55096719Y-37149600D03*
M02*
