<?xml version="1.0" encoding="UTF-8" standalone="no"?>
<!-- Generator: Adobe Illustrator 22.0.1, SVG Export Plug-In . SVG Version: 6.00 Build 0)  -->

<svg
   xmlns:dc="http://purl.org/dc/elements/1.1/"
   xmlns:cc="http://creativecommons.org/ns#"
   xmlns:rdf="http://www.w3.org/1999/02/22-rdf-syntax-ns#"
   xmlns:svg="http://www.w3.org/2000/svg"
   xmlns="http://www.w3.org/2000/svg"
   xmlns:sodipodi="http://sodipodi.sourceforge.net/DTD/sodipodi-0.dtd"
   xmlns:inkscape="http://www.inkscape.org/namespaces/inkscape"
   version="1.1"
   id="Ebene_1"
   x="0px"
   y="0px"
   viewBox="0 0 340.2 396.9"
   xml:space="preserve"
   sodipodi:docname="frontplate-ctag-export-paths.svg"
   inkscape:version="0.92.1 r15371"
   width="90.011253mm"
   height="105.01312mm"><metadata
     id="metadata5728"><rdf:RDF><cc:Work
         rdf:about=""><dc:format>image/svg+xml</dc:format><dc:type
           rdf:resource="http://purl.org/dc/dcmitype/StillImage" /><dc:title></dc:title></cc:Work></rdf:RDF></metadata><defs
     id="defs5726"><inkscape:path-effect
       effect="spiro"
       id="path-effect4859"
       is_visible="true" /><inkscape:path-effect
       effect="spiro"
       id="path-effect4769"
       is_visible="true" /><inkscape:path-effect
       effect="bspline"
       id="path-effect4711"
       is_visible="true"
       weight="33.333333"
       steps="2"
       helper_size="0"
       apply_no_weight="true"
       apply_with_weight="true"
       only_selected="false" /><inkscape:path-effect
       effect="spiro"
       id="path-effect5750"
       is_visible="true" /><inkscape:path-effect
       effect="spiro"
       id="path-effect5746"
       is_visible="true" /><inkscape:path-effect
       effect="bspline"
       id="path-effect5508"
       is_visible="true"
       weight="33.333333"
       steps="2"
       helper_size="0"
       apply_no_weight="true"
       apply_with_weight="true"
       only_selected="false" /><inkscape:path-effect
       effect="spiro"
       id="path-effect5200"
       is_visible="true" /><inkscape:path-effect
       effect="spiro"
       id="path-effect5174"
       is_visible="true" /><inkscape:path-effect
       is_visible="true"
       id="path-effect6400"
       effect="spiro" /><inkscape:path-effect
       effect="spiro"
       id="path-effect6386"
       is_visible="true" /><inkscape:path-effect
       effect="spiro"
       id="path-effect5174-9"
       is_visible="true" /><inkscape:path-effect
       effect="spiro"
       id="path-effect5200-0"
       is_visible="true" /><inkscape:path-effect
       effect="spiro"
       id="path-effect5200-0-2"
       is_visible="true" /><inkscape:path-effect
       effect="spiro"
       id="path-effect6386-4"
       is_visible="true" /><inkscape:path-effect
       is_visible="true"
       id="path-effect6400-7"
       effect="spiro" /><inkscape:path-effect
       effect="spiro"
       id="path-effect6386-4-2"
       is_visible="true" /><inkscape:path-effect
       is_visible="true"
       id="path-effect6400-7-9"
       effect="spiro" /><inkscape:path-effect
       effect="spiro"
       id="path-effect6386-4-2-1"
       is_visible="true" /><inkscape:path-effect
       is_visible="true"
       id="path-effect6400-7-9-8"
       effect="spiro" /><inkscape:path-effect
       effect="spiro"
       id="path-effect6386-9"
       is_visible="true" /><inkscape:path-effect
       is_visible="true"
       id="path-effect6400-5"
       effect="spiro" /><inkscape:path-effect
       effect="spiro"
       id="path-effect6386-9-4"
       is_visible="true" /><inkscape:path-effect
       is_visible="true"
       id="path-effect6400-5-0"
       effect="spiro" /></defs><sodipodi:namedview
     pagecolor="#ffffff"
     bordercolor="#666666"
     borderopacity="1"
     objecttolerance="10"
     gridtolerance="10"
     guidetolerance="10"
     inkscape:pageopacity="0"
     inkscape:pageshadow="2"
     inkscape:window-width="1920"
     inkscape:window-height="1017"
     id="namedview5724"
     showgrid="false"
     inkscape:zoom="1.0523222"
     inkscape:cx="-156.88482"
     inkscape:cy="80.75437"
     inkscape:window-x="1912"
     inkscape:window-y="-8"
     inkscape:window-maximized="1"
     inkscape:current-layer="layer3"
     showguides="true"
     inkscape:guide-bbox="true"
     inkscape:document-units="mm"
     units="mm"><sodipodi:guide
       position="279.14456,48.226677"
       orientation="0,1"
       id="guide5488"
       inkscape:locked="false" /><sodipodi:guide
       position="237.09469,86.475423"
       orientation="0,1"
       id="guide5490"
       inkscape:locked="false" /><sodipodi:guide
       position="211.19958,165.58618"
       orientation="0,1"
       id="guide5498"
       inkscape:locked="false" /></sodipodi:namedview><style
     type="text/css"
     id="style4485">
	.st0{fill:#020203;fill-opacity:0;stroke:#020203;stroke-width:0.7087;stroke-linecap:round;stroke-linejoin:round;}
	.st1{fill:#020203;}
</style><g
     inkscape:groupmode="layer"
     id="layer1"
     inkscape:label="Mask"
     style="display:inline"
     transform="translate(0,3.1238465e-6)"><path
       style="opacity:1;fill:#000000;fill-opacity:1;fill-rule:evenodd;stroke:#000000;stroke-width:1.00157475;stroke-linecap:round;stroke-linejoin:round;stroke-miterlimit:4;stroke-dasharray:none;stroke-dashoffset:0;stroke-opacity:1;paint-order:normal"
       d="M 58.936642,63.751129 H 197.94127 V 168.91259 H 58.936642 Z"
       id="rect6382" /><g
       id="g6404"
       transform="matrix(1.1078384,0,0,0.99863249,-22.425525,7.8203168)"><path
         style="fill:none;fill-rule:evenodd;stroke:#000000;stroke-width:1px;stroke-linecap:butt;stroke-linejoin:miter;stroke-opacity:1"
         d="m 198.76672,118.23038 c 5.31918,-1.23372 10.28674,-3.94855 14.19762,-7.75917 1.8316,-1.78464 3.43504,-3.80204 5.36646,-5.47815 1.93142,-1.6761 4.2941,-3.02537 6.8501,-3.10645 1.31229,-0.0416 2.62306,0.25535 3.83226,0.76689 1.20921,0.51154 2.32103,1.23373 3.34727,2.05268 2.05248,1.6379 3.76599,3.65578 5.69738,5.43486 4.40182,4.05469 9.96367,6.83561 15.84851,7.92425"
         id="path6384" /><path
         style="fill:none;fill-rule:evenodd;stroke:#000000;stroke-width:1px;stroke-linecap:butt;stroke-linejoin:miter;stroke-opacity:1"
         d="m 198.76672,101.8698 c 5.31918,1.23372 10.28674,3.94855 14.19762,7.75917 1.8316,1.78464 3.43504,3.80204 5.36646,5.47815 1.93142,1.6761 4.2941,3.02537 6.8501,3.10645 1.31229,0.0416 2.62306,-0.25535 3.83226,-0.76689 1.20921,-0.51154 2.32103,-1.23373 3.34727,-2.05268 2.05248,-1.6379 3.76599,-3.65578 5.69738,-5.43486 4.40182,-4.05469 9.96367,-6.83561 15.84851,-7.92425"
         id="path6398" /></g><text
       xml:space="preserve"
       style="font-style:normal;font-variant:normal;font-weight:normal;font-stretch:normal;font-size:16px;line-height:125%;font-family:Earthbound;-inkscape-font-specification:Earthbound;letter-spacing:0px;word-spacing:0px;writing-mode:lr-tb;fill:#000000;fill-opacity:1;stroke:none;stroke-width:1px;stroke-linecap:butt;stroke-linejoin:miter;stroke-opacity:1"
       x="26.744358"
       y="339.11896"
       id="text5190"><tspan
         sodipodi:role="line"
         id="tspan5188"
         x="26.744358"
         y="354.03882" /></text>
<g
       aria-label="ctag"
       style="font-style:normal;font-variant:normal;font-weight:normal;font-stretch:normal;font-size:22.24851608px;line-height:125%;font-family:Earthbound;-inkscape-font-specification:Earthbound;letter-spacing:0px;word-spacing:0px;writing-mode:lr-tb;display:inline;fill:#000000;fill-opacity:1;stroke:none;stroke-width:1.39053226px;stroke-linecap:butt;stroke-linejoin:miter;stroke-opacity:1"
       id="text7236-3-7-5"><path
         d="m 254.8187,157.31195 -1.87629,-1.65195 -0.22434,0.18355 c -0.28552,0.24474 -0.57105,0.40789 -0.85657,0.53026 -0.28552,0.12237 -0.57105,0.16315 -0.87696,0.12237 -0.79539,-0.0816 -1.38683,-0.40789 -1.77432,-0.93815 -0.3875,-0.53026 -0.57105,-1.30525 -0.57105,-2.32497 0,-1.1217 0.22434,-1.97826 0.71381,-2.54931 0.42828,-0.50986 1.01972,-0.77499 1.77432,-0.81578 0.28552,-0.0204 0.53026,0.0204 0.77499,0.12237 0.26513,0.12236 0.53026,0.30592 0.81578,0.53025 l 0.22434,0.18355 1.87629,-1.63155 -0.28552,-0.24474 c -0.50987,-0.40789 -1.04012,-0.7138 -1.61117,-0.91775 -0.57104,-0.20394 -1.18288,-0.30592 -1.85589,-0.28552 -1.44801,0.0408 -2.65129,0.57104 -3.58943,1.59077 -0.97894,1.06051 -1.4684,2.38615 -1.4684,4.01771 0,1.67235 0.46907,3.01838 1.42761,3.99732 0.83617,0.89735 1.93747,1.38682 3.28351,1.50919 0.10197,0.0204 0.20394,0.0204 0.32631,0.0204 h 0.3875 0.0204 c 0.57105,-0.0204 1.1217,-0.14276 1.63156,-0.3467 0.48947,-0.16316 0.97893,-0.46908 1.4684,-0.87697 z"
         style="font-style:normal;font-variant:normal;font-weight:bold;font-stretch:condensed;font-size:20.39447403px;font-family:Earthbound;-inkscape-font-specification:'Earthbound Bold Condensed';stroke-width:1.39053226px"
         id="path5019" /><path
         d="m 263.21517,158.00537 -0.53026,-2.223 c -0.63223,0.28552 -1.28485,0.48947 -1.93747,0.59144 -0.20395,0.0408 -0.42829,0.0408 -0.63223,0 -0.22434,-0.0408 -0.42829,-0.12237 -0.63223,-0.24474 -0.20395,-0.10197 -0.3671,-0.22433 -0.50986,-0.38749 -0.14276,-0.14276 -0.22434,-0.28552 -0.26513,-0.44868 -0.0816,-0.3671 -0.10197,-0.69341 -0.10197,-1.01972 v -4.11969 h 4.11968 v -2.26378 h -4.09929 v -3.3243 l -2.5901,0.44868 v 9.25909 c 0,0.77499 0.0612,1.36643 0.20395,1.77432 0.0816,0.28552 0.22434,0.59144 0.42828,0.89735 0.20395,0.32632 0.46907,0.61184 0.79539,0.87697 0.32631,0.26512 0.69341,0.48946 1.14209,0.65262 0.44868,0.16316 0.95854,0.24473 1.54998,0.24473 1.01972,0 1.95787,-0.20394 2.81443,-0.61183 z"
         style="font-style:normal;font-variant:normal;font-weight:bold;font-stretch:condensed;font-size:20.39447403px;font-family:Earthbound;-inkscape-font-specification:'Earthbound Bold Condensed';stroke-width:1.39053226px"
         id="path5021" /><path
         d="m 270.18753,154.04884 v 2.12102 c -0.16316,0.0816 -0.34671,0.16316 -0.55065,0.20395 -0.28552,0.0816 -0.65262,0.10197 -1.06051,0.10197 -0.69342,0 -1.20328,-0.10197 -1.4888,-0.30592 -0.30592,-0.20394 -0.44868,-0.55065 -0.44868,-0.99933 0,-0.40788 0.16316,-0.7138 0.50986,-0.91775 0.32631,-0.20394 0.89736,-0.30591 1.69274,-0.30591 0.61184,0 1.06052,0.0408 1.34604,0.10197 z m 2.52891,3.3243 v -5.58809 c 0,-1.34603 -0.38749,-2.36576 -1.12169,-3.07956 -0.7546,-0.69342 -1.81511,-1.06052 -3.16114,-1.06052 -0.77499,0 -1.46841,0.0816 -2.05985,0.24474 -0.61183,0.18355 -1.20327,0.50986 -1.75392,0.99933 l -0.28552,0.26512 1.89668,1.67235 0.22434,-0.20394 c 0.28552,-0.24474 0.55065,-0.42829 0.83617,-0.53026 0.28553,-0.0816 0.61184,-0.12237 0.99933,-0.14276 h 0.10198 c 0.61183,0.0204 1.0809,0.18355 1.36643,0.46907 0.28552,0.28552 0.44867,0.7546 0.44867,1.38683 v 0.10197 c -0.46907,-0.10197 -0.97893,-0.16316 -1.50919,-0.16316 -1.30524,0 -2.38615,0.26513 -3.28351,0.79539 -0.95854,0.57104 -1.42761,1.4684 -1.42761,2.65128 0,1.18288 0.3671,2.05984 1.14209,2.65128 0.77499,0.61183 1.8355,0.89736 3.22233,0.89736 0.24473,0 0.50986,0 0.79538,-0.0204 0.28552,0 0.61184,-0.0612 0.95854,-0.14276 0.3671,-0.0816 0.7546,-0.22434 1.16249,-0.38749 0.40789,-0.16316 0.83617,-0.3875 1.30524,-0.71381 z"
         style="font-style:normal;font-variant:normal;font-weight:bold;font-stretch:condensed;font-size:20.39447403px;font-family:Earthbound;-inkscape-font-specification:'Earthbound Bold Condensed';stroke-width:1.39053226px"
         id="path5023" /><path
         d="m 281.69894,150.60217 0.0204,4.7927 c -0.48947,0.3671 -1.1013,0.55065 -1.8559,0.55065 -0.65262,0 -1.20327,-0.24473 -1.63156,-0.77499 -0.44867,-0.53025 -0.67301,-1.16248 -0.67301,-1.89668 0,-0.91775 0.22434,-1.67235 0.69341,-2.28418 0.42828,-0.57105 1.06051,-0.85657 1.87629,-0.85657 0.32631,0 0.65262,0.0408 0.95854,0.10197 0.20395,0.0612 0.40789,0.18355 0.61184,0.3671 z m 2.59009,6.97491 v -7.91305 l -0.0816,-0.0816 c -0.3875,-0.44868 -0.77499,-0.79539 -1.1421,-1.04012 -0.3671,-0.24473 -0.7342,-0.44868 -1.1013,-0.57104 -0.3671,-0.10198 -0.69341,-0.18356 -0.97893,-0.22434 -0.30592,-0.0204 -0.59144,-0.0204 -0.87696,-0.0408 -1.52959,0 -2.77365,0.50986 -3.75259,1.48879 -0.97893,0.99933 -1.4684,2.28418 -1.4684,3.83416 0,1.67235 0.46907,2.9572 1.40722,3.83417 0.93815,0.89735 2.08024,1.32564 3.40588,1.32564 0.50986,0 0.99933,-0.0612 1.48879,-0.22434 0.18355,-0.0408 0.34671,-0.10197 0.50987,-0.16316 -0.0408,0.3671 -0.0816,0.67302 -0.14277,0.87696 -0.10197,0.32632 -0.24473,0.59144 -0.42828,0.77499 -0.28552,0.28553 -0.65262,0.46908 -1.1013,0.55065 -0.44868,0.10198 -0.89736,0.14277 -1.34604,0.12237 -0.46907,-0.0204 -0.89735,-0.0816 -1.30524,-0.18355 -0.40789,-0.0816 -0.7342,-0.20394 -0.93815,-0.32631 l -1.1013,1.97826 c 0.7342,0.44868 1.42761,0.67302 2.08024,0.69342 0.53025,0.0408 1.1013,0.0612 1.67234,0.0612 1.63156,0 2.91641,-0.3875 3.83416,-1.18288 0.89736,-0.7546 1.36643,-1.95787 1.36643,-3.58943 z"
         style="font-style:normal;font-variant:normal;font-weight:bold;font-stretch:condensed;font-size:20.39447403px;font-family:Earthbound;-inkscape-font-specification:'Earthbound Bold Condensed';stroke-width:1.39053226px"
         id="path5025" /></g><path
       style="opacity:1;fill:none;fill-opacity:1;fill-rule:evenodd;stroke:#000000;stroke-width:3.76127648;stroke-linecap:square;stroke-linejoin:round;stroke-miterlimit:4;stroke-dasharray:none;stroke-dashoffset:9.97319221;stroke-opacity:1;paint-order:normal"
       d="m 208.94225,248.5334 h 104.62266 c 2.36904,0 4.27625,1.90721 4.27625,4.27625 v 100.01931 c 0,2.36904 -1.90721,4.27625 -4.27625,4.27625 H 208.94225 c -2.36904,0 -4.27625,-1.90721 -4.27625,-4.27625 V 252.80965 c 0,-2.36904 1.90721,-4.27625 4.27625,-4.27625 z"
       id="rect5230" /><path
       style="opacity:1;fill:#000000;fill-opacity:1;fill-rule:evenodd;stroke:none;stroke-width:3.29824781;stroke-linecap:square;stroke-linejoin:round;stroke-miterlimit:4;stroke-dasharray:none;stroke-dashoffset:10.47458267;stroke-opacity:0.29951692;paint-order:normal"
       d="M 96.912174,246.76004 H 141.0001 c 1.8299,0 3.30307,1.47317 3.30307,3.30307 v 44.21043 c 0,1.8299 -1.47317,3.30307 -3.30307,3.30307 H 96.912174 c -1.829903,0 -3.303074,-1.47317 -3.303074,-3.30307 v -44.21043 c 0,-1.8299 1.473171,-3.30307 3.303074,-3.30307 z"
       id="rect5181" /><path
       style="display:inline;opacity:1;fill:#000000;fill-opacity:1;fill-rule:evenodd;stroke:none;stroke-width:3.29824781;stroke-linecap:square;stroke-linejoin:round;stroke-miterlimit:4;stroke-dasharray:none;stroke-dashoffset:10.47458267;stroke-opacity:0.29951692;paint-order:normal"
       d="m 149.3572,246.76004 h 44.08792 c 1.8299,0 3.30307,1.47317 3.30307,3.30307 v 44.21043 c 0,1.8299 -1.47317,3.30307 -3.30307,3.30307 H 149.3572 c -1.82991,0 -3.30308,-1.47317 -3.30308,-3.30307 v -44.21043 c 0,-1.8299 1.47317,-3.30307 3.30308,-3.30307 z"
       id="rect5181-5" /><text
       xml:space="preserve"
       style="font-style:normal;font-variant:normal;font-weight:normal;font-stretch:normal;font-size:16px;line-height:125%;font-family:Earthbound;-inkscape-font-specification:Earthbound;letter-spacing:0px;word-spacing:0px;writing-mode:tb-rl;fill:#000000;fill-opacity:1;stroke:none;stroke-width:1px;stroke-linecap:butt;stroke-linejoin:miter;stroke-opacity:1"
       x="216.92647"
       y="305.44089"
       id="text5290"><tspan
         sodipodi:role="line"
         id="tspan5288"
         x="305.44089"
         y="206.92647" /></text>
<path
       style="fill:none;fill-rule:evenodd;stroke:#000000;stroke-width:3.65836096;stroke-linecap:butt;stroke-linejoin:miter;stroke-miterlimit:4;stroke-dasharray:none;stroke-opacity:1"
       d="m 119.96744,296.64552 v 10.69064 h 38.72921 v 8.79009"
       id="path5494"
       inkscape:connector-curvature="0" /><path
       style="fill:none;fill-rule:evenodd;stroke:#000000;stroke-width:3.77952743;stroke-linecap:butt;stroke-linejoin:miter;stroke-miterlimit:4;stroke-dasharray:none;stroke-opacity:1"
       d="m 172.00056,296.88309 v 10.2155 h 12.11607 v 8.79009"
       id="path5496"
       inkscape:connector-curvature="0" /><path
       style="fill:none;fill-rule:evenodd;stroke:#000000;stroke-width:3.77952743;stroke-linecap:butt;stroke-linejoin:miter;stroke-miterlimit:4;stroke-dasharray:none;stroke-opacity:1"
       d="M 54.641062,205.4187 H 284.60866"
       id="path4792"
       inkscape:connector-curvature="0" /><path
       style="fill:none;fill-rule:evenodd;stroke:#000000;stroke-width:3.77952743;stroke-linecap:butt;stroke-linejoin:miter;stroke-miterlimit:4;stroke-dasharray:none;stroke-opacity:1"
       d="M 257.5257,247.70613 V 204.46842"
       id="path4794"
       inkscape:connector-curvature="0" /></g><g
     inkscape:groupmode="layer"
     id="layer3"
     inkscape:label="Silk"
     style="display:inline"><path
       transform="translate(0,3.1238465e-6)"
       style="display:inline;fill:#020203"
       class="st1"
       d="m 106.66395,27.464472 c -0.2,-1.9 -2,-2.1 -3.6,-2.1 -1.6,0 -2.6,0.7 -2.6,1.7 0,0.8 0.6,1.2 1.6,1.3 l 4.9,0.8 c 2.6,0.4 4.6,1.4 4.6,4 0,2.7 -1.8,4.8 -7.4,4.8 -3.5,0 -7.999988,-0.4 -7.999988,-4.9 h 4.399988 c 0,2 2,2.3 3.7,2.3 1.8,0 3.1,-0.5 3.1,-1.8 0,-1.1 -0.9,-1.4 -2.4,-1.6 l -3.5,-0.5 c -2.49999,-0.4 -4.899988,-1.1 -4.899988,-4 0,-3.2 2.599998,-4.5 7.099988,-4.5 2.9,0 7.3,0.5 7.6,4.5 z"
       id="path4631-8"
       inkscape:connector-curvature="0" /><path
       transform="translate(-35.136038,-15.335527)"
       style="display:inline;fill:#020203"
       d="m 147,41.4 v -2.7 h 14.5 v 2.7 h -5.3 V 53 h -3.9 V 41.4 Z"
       id="polygon4633-8" /><path
       transform="translate(0,3.1238465e-6)"
       style="display:inline;fill:#020203"
       class="st1"
       d="m 127.56395,23.364472 h 10.4 c 4,0 4.6,2.4 4.6,3.9 0,1.7 -0.7,2.9 -2.3,3.4 v 0 c 1.7,0.3 2,2.4 2,3.8 0,0.7 0.1,2.4 0.7,3.1 h -4.2 c -0.4,-0.7 -0.4,-1.2 -0.4,-2.7 0,-2 -0.9,-2.5 -2.1,-2.5 h -4.8 v 5.3 h -3.9 z m 3.9,6.3 h 5.1 c 0.9,0 1.9,-0.5 1.9,-1.8 0,-1.4 -1.1,-1.8 -2.1,-1.8 h -4.9 z"
       id="path4635-7"
       inkscape:connector-curvature="0" /><path
       transform="translate(0,3.1238465e-6)"
       style="display:inline;fill:#020203"
       class="st1"
       d="m 155.36395,34.664472 h -6.6 l -1.2,2.9 h -4.2 l 6.3,-14.3 h 4.7 l 6.3,14.3 h -4.2 z m -7.9,-14.6 h 3.5 v 2.4 h -3.5 z m 4.6,6.4 -2.2,5.7 h 4.5 z m 1.1,-6.4 h 3.5 v 2.4 h -3.5 z"
       id="path4637-8"
       inkscape:connector-curvature="0" /><path
       transform="translate(-35.136038,-15.335527)"
       style="display:inline;fill:#020203"
       d="M 216.8,53 H 213 V 41.5 L 208.4,53 h -3.2 l -4.5,-11.5 h -0.1 V 53 h -3.7 V 38.7 h 5.7 l 4.2,10.3 4.3,-10.3 h 5.7 z"
       id="polygon4639-6" /><path
       transform="translate(0,3.1238465e-6)"
       style="display:inline;fill:#020203"
       class="st1"
       d="m 184.26395,23.364472 h 9.6 c 4.1,0 5,2.4 5,4.3 0,3 -1.6,4.8 -4.7,4.8 h -6 v 5.2 h -3.9 z m 3.9,6.6 h 4.2 c 1.2,0 2.6,0 2.6,-2 0,-1.9 -1.1,-2 -2.2,-2 h -4.5 v 4 z"
       id="path4641-4"
       inkscape:connector-curvature="0" /><path
       transform="translate(-35.136038,-15.335527)"
       style="display:inline;fill:#020203"
       d="m 239.4,38.7 v 11.4 h 8.7 V 53 H 235.5 V 38.7 Z"
       id="polygon4643-1" /><path
       transform="translate(-35.136038,-15.335527)"
       style="display:inline;fill:#020203"
       d="m 262.9,38.7 v 2.7 h -9.5 v 3 h 9 V 47 h -9 v 3.2 H 263 V 53 H 249.6 V 38.7 Z"
       id="polygon4645-8" /><path
       transform="translate(0,3.1238465e-6)"
       style="display:inline;fill:#020203"
       class="st1"
       d="m 229.96396,23.364472 h 10.4 c 4,0 4.6,2.4 4.6,3.9 0,1.7 -0.7,2.9 -2.3,3.4 v 0 c 1.7,0.3 2,2.4 2,3.8 0,0.7 0.1,2.4 0.7,3.1 h -4.2 c -0.4,-0.7 -0.4,-1.2 -0.4,-2.7 0,-2 -0.9,-2.5 -2.1,-2.5 h -4.8 v 5.3 h -3.9 z m 3.9,6.3 h 5.1 c 0.9,0 1.9,-0.5 1.9,-1.8 0,-1.4 -1.1,-1.8 -2.1,-1.8 h -4.9 z"
       id="path4647-3"
       inkscape:connector-curvature="0" /><g
       aria-label="matrix cv"
       transform="translate(0,3.1238465e-6)"
       style="font-style:normal;font-variant:normal;font-weight:bold;font-stretch:condensed;font-size:16px;line-height:125%;font-family:Earthbound;-inkscape-font-specification:'Earthbound Bold Condensed';letter-spacing:0px;word-spacing:0px;writing-mode:lr-tb;display:inline;fill:#000000;fill-opacity:1;stroke:none;stroke-width:1px;stroke-linecap:butt;stroke-linejoin:miter;stroke-opacity:1"
       id="text7232"><path
         d="m 242.9389,267.34818 v -3.86667 c 0,-0.50667 -0.0533,-0.96 -0.13334,-1.36 -0.0933,-0.4 -0.24,-0.73333 -0.45333,-1 -0.21333,-0.26667 -0.50667,-0.48 -0.85333,-0.62667 -0.34667,-0.14666 -0.78667,-0.22666 -1.30667,-0.22666 -0.24,0 -0.46667,0.0267 -0.69333,0.08 -0.22667,0.0533 -0.44,0.12 -0.62667,0.18666 -0.2,0.08 -0.37333,0.14667 -0.50667,0.22667 -0.14666,0.08 -0.25333,0.13333 -0.30666,0.17333 -0.48,-0.42666 -1.09334,-0.64 -1.84,-0.64 -0.45334,0 -0.90667,0.0267 -1.36,0.08 -0.45334,0.0533 -0.92,0.14667 -1.37334,0.25334 l -0.16,0.04 v 6.68 h 1.68 v -5.46667 c 0.29334,-0.0533 0.65334,-0.08 1.08,-0.08 0.24,0 0.45334,0.04 0.61334,0.12 0.14666,0.08 0.28,0.2 0.37333,0.36 0.08,0.16 0.14667,0.37333 0.17333,0.61333 0.0267,0.25334 0.0533,0.54667 0.0533,0.88 v 3.56 h 1.68 v -3.81333 c 0,-0.52 -0.0667,-1 -0.18667,-1.42667 0.30667,-0.2 0.73333,-0.30666 1.28,-0.30666 0.24,0 0.44,0.04 0.6,0.12 0.14667,0.08 0.26667,0.18666 0.36,0.34666 0.08,0.16 0.14667,0.37334 0.17333,0.62667 0.0267,0.25333 0.04,0.56 0.0533,0.90667 v 3.56 z"
         style="font-size:13.33333302px"
         id="path4995" /><path
         d="m 248.2264,264.42818 v 1.38666 c -0.10667,0.0533 -0.22667,0.10667 -0.36,0.13334 -0.18667,0.0533 -0.42667,0.0667 -0.69334,0.0667 -0.45333,0 -0.78666,-0.0667 -0.97333,-0.2 -0.2,-0.13333 -0.29333,-0.36 -0.29333,-0.65333 0,-0.26667 0.10666,-0.46667 0.33333,-0.6 0.21333,-0.13333 0.58667,-0.2 1.10667,-0.2 0.4,0 0.69333,0.0267 0.88,0.0667 z m 1.65333,2.17333 v -3.65333 c 0,-0.88 -0.25333,-1.54667 -0.73333,-2.01334 -0.49334,-0.45333 -1.18667,-0.69333 -2.06667,-0.69333 -0.50667,0 -0.96,0.0533 -1.34667,0.16 -0.4,0.12 -0.78666,0.33333 -1.14666,0.65333 l -0.18667,0.17334 1.24,1.09333 0.14667,-0.13333 c 0.18666,-0.16 0.36,-0.28 0.54666,-0.34667 0.18667,-0.0533 0.4,-0.08 0.65334,-0.0933 h 0.0667 c 0.4,0.0133 0.70667,0.12 0.89334,0.30666 0.18666,0.18667 0.29333,0.49334 0.29333,0.90667 v 0.0667 c -0.30667,-0.0667 -0.64,-0.10667 -0.98667,-0.10667 -0.85333,0 -1.56,0.17333 -2.14666,0.52 -0.62667,0.37333 -0.93334,0.96 -0.93334,1.73333 0,0.77334 0.24,1.34667 0.74667,1.73334 0.50667,0.4 1.2,0.58666 2.10667,0.58666 0.16,0 0.33333,0 0.52,-0.0133 0.18666,0 0.4,-0.04 0.62666,-0.0933 0.24,-0.0533 0.49334,-0.14667 0.76,-0.25334 0.26667,-0.10666 0.54667,-0.25333 0.85334,-0.46666 z"
         style="font-size:13.33333302px"
         id="path4997" /><path
         d="m 256.27223,267.01484 -0.34667,-1.45333 c -0.41333,0.18667 -0.84,0.32 -1.26666,0.38667 -0.13334,0.0267 -0.28,0.0267 -0.41334,0 -0.14666,-0.0267 -0.28,-0.08 -0.41333,-0.16 -0.13333,-0.0667 -0.24,-0.14667 -0.33333,-0.25334 -0.0933,-0.0933 -0.14667,-0.18666 -0.17334,-0.29333 -0.0533,-0.24 -0.0667,-0.45333 -0.0667,-0.66667 v -2.69333 h 2.69333 v -1.48 h -2.68 v -2.17333 l -1.69333,0.29333 v 6.05333 c 0,0.50667 0.04,0.89334 0.13333,1.16 0.0533,0.18667 0.14667,0.38667 0.28,0.58667 0.13333,0.21333 0.30667,0.4 0.52,0.57333 0.21333,0.17334 0.45333,0.32 0.74667,0.42667 0.29333,0.10667 0.62666,0.16 1.01333,0.16 0.66667,0 1.28,-0.13333 1.84,-0.4 z"
         style="font-size:13.33333302px"
         id="path4999" /><path
         d="m 258.99056,267.34818 v -5.44 c 0.34667,-0.08 0.68,-0.12 0.98667,-0.12 0.49333,0 0.93333,0.0667 1.32,0.18666 l 0.22667,0.08 0.30666,-1.52 -0.18666,-0.0533 c -0.45334,-0.13333 -0.94667,-0.21333 -1.45334,-0.21333 -1.01333,0 -1.93333,0.14666 -2.76,0.42666 l -0.14666,0.0533 v 6.6 z"
         style="font-size:13.33333302px"
         id="path5001" /><path
         d="m 264.31327,259.45484 v -1.77333 h -1.70667 v 1.77333 z m -0.0133,7.89334 v -6.93334 h -1.68 v 6.93334 z"
         style="font-size:13.33333302px"
         id="path5003" /><path
         d="m 271.80785,267.34818 -0.16,-0.29334 c -0.21333,-0.4 -0.53333,-0.90666 -0.93333,-1.49333 -0.37333,-0.54667 -0.81333,-1.18667 -1.32,-1.92 l 2.26667,-3.22667 h -1.77334 l -1.41333,2.25334 -1.41333,-2.25334 h -1.85334 l 2.32,3.29334 c -1,1.34666 -1.73333,2.45333 -2.21333,3.33333 l -0.16,0.30667 h 1.74667 l 0.04,-0.12 c 0.38666,-0.82667 0.89333,-1.68 1.50666,-2.58667 0.72,1.06667 1.21334,1.92 1.50667,2.57333 l 0.0533,0.12 z"
         style="font-size:13.33333302px"
         id="path5005" /><path
         d="m 281.30369,266.56151 -1.22667,-1.08 -0.14667,0.12 c -0.18666,0.16 -0.37333,0.26667 -0.56,0.34667 -0.18666,0.08 -0.37333,0.10666 -0.57333,0.08 -0.52,-0.0533 -0.90667,-0.26667 -1.16,-0.61334 -0.25333,-0.34666 -0.37333,-0.85333 -0.37333,-1.52 0,-0.73333 0.14666,-1.29333 0.46666,-1.66666 0.28,-0.33334 0.66667,-0.50667 1.16,-0.53334 0.18667,-0.0133 0.34667,0.0133 0.50667,0.08 0.17333,0.08 0.34667,0.2 0.53333,0.34667 l 0.14667,0.12 1.22667,-1.06667 -0.18667,-0.16 c -0.33333,-0.26666 -0.68,-0.46666 -1.05333,-0.6 -0.37334,-0.13333 -0.77334,-0.2 -1.21334,-0.18666 -0.94666,0.0267 -1.73333,0.37333 -2.34666,1.04 -0.64,0.69333 -0.96,1.56 -0.96,2.62666 0,1.09334 0.30667,1.97334 0.93333,2.61334 0.54667,0.58666 1.26667,0.90666 2.14667,0.98666 0.0667,0.0133 0.13333,0.0133 0.21333,0.0133 h 0.25333 0.0133 c 0.37333,-0.0133 0.73333,-0.0933 1.06666,-0.22667 0.32,-0.10667 0.64,-0.30667 0.96,-0.57333 z"
         style="font-size:13.33333302px"
         id="path5007" /><path
         d="m 285.49973,267.34818 0.0533,-0.13334 c 0.42667,-1.17333 0.81333,-2.29333 1.17333,-3.38666 0.36,-1.08 0.69334,-2.13334 0.98667,-3.14667 l 0.0667,-0.26667 h -1.69334 l -0.0267,0.17334 c -0.2,0.86666 -0.41334,1.70666 -0.62667,2.53333 -0.21333,0.82667 -0.44,1.62667 -0.68,2.42667 -0.37333,-0.8 -0.69333,-1.6 -0.94667,-2.42667 -0.26666,-0.82667 -0.49333,-1.66667 -0.69333,-2.53333 l -0.04,-0.17334 h -1.76 l 0.08,0.26667 c 0.29333,1.01333 0.64,2.05333 1.04,3.14667 0.4,1.09333 0.86667,2.22666 1.42667,3.38666 l 0.0533,0.13334 z"
         style="font-size:13.33333302px"
         id="path5009" /></g><g
       aria-label="0-trig-1"
       transform="translate(0,3.1238465e-6)"
       style="font-style:normal;font-variant:normal;font-weight:normal;font-stretch:normal;font-size:16px;line-height:125%;font-family:Earthbound;-inkscape-font-specification:Earthbound;letter-spacing:0px;word-spacing:0px;writing-mode:lr-tb;display:inline;fill:#000000;fill-opacity:1;stroke:none;stroke-width:1px;stroke-linecap:butt;stroke-linejoin:miter;stroke-opacity:1"
       id="text7236"><path
         d="m 157.03418,347.67419 c -0.36266,0 -0.65066,-0.192 -0.85333,-0.59733 -0.224,-0.42667 -0.33067,-1.088 -0.33067,-2.00533 0,-0.90667 0.10667,-1.57867 0.33067,-2.00534 0.20267,-0.39466 0.49067,-0.58666 0.85333,-0.59733 0.36267,0 0.65067,0.20267 0.864,0.59733 0.21334,0.42667 0.33067,1.09867 0.33067,2.00534 0,0.91733 -0.11733,1.57866 -0.33067,2.00533 -0.21333,0.40533 -0.50133,0.59733 -0.864,0.59733 z m 0.0107,-6.432 c -0.37333,0 -0.71467,0.096 -1.01333,0.26667 -0.34134,0.192 -0.62934,0.448 -0.864,0.77867 -0.23467,0.34133 -0.416,0.736 -0.544,1.20533 -0.128,0.46933 -0.192,1.00267 -0.192,1.57867 0,0.576 0.0747,1.09866 0.20266,1.568 0.128,0.46933 0.30934,0.87466 0.544,1.19466 0.23467,0.34134 0.512,0.59734 0.85334,0.77867 0.29866,0.18133 0.64,0.26667 1.024,0.26667 0.36266,0 0.704,-0.0853 1.024,-0.26667 0.34133,-0.18133 0.62933,-0.43733 0.864,-0.77867 0.224,-0.32 0.40533,-0.72533 0.53333,-1.19466 0.128,-0.46934 0.192,-0.992 0.192,-1.57867 0,-0.576 -0.064,-1.10933 -0.192,-1.57867 -0.13867,-0.46933 -0.32,-0.864 -0.55467,-1.19466 -0.23466,-0.33067 -0.52266,-0.58667 -0.864,-0.77867 -0.29866,-0.17067 -0.64,-0.26667 -1.01333,-0.26667 z"
         style="font-style:normal;font-variant:normal;font-weight:bold;font-stretch:condensed;font-size:10.66666698px;font-family:Earthbound;-inkscape-font-specification:'Earthbound Bold Condensed'"
         id="path4978" /><path
         d="m 163.07935,346.19153 v -1.28 h -2.98667 v 1.28 z"
         style="font-style:normal;font-variant:normal;font-weight:bold;font-stretch:condensed;font-size:10.66666698px;font-family:Earthbound;-inkscape-font-specification:'Earthbound Bold Condensed'"
         id="path4980" /><path
         d="m 167.67185,348.48486 -0.27733,-1.16267 c -0.33067,0.14934 -0.672,0.256 -1.01334,0.30934 -0.10666,0.0213 -0.224,0.0213 -0.33066,0 -0.11734,-0.0213 -0.224,-0.064 -0.33067,-0.128 -0.10667,-0.0533 -0.192,-0.11734 -0.26667,-0.20267 -0.0747,-0.0747 -0.11733,-0.14933 -0.13866,-0.23467 -0.0427,-0.192 -0.0533,-0.36266 -0.0533,-0.53333 v -2.15467 h 2.15467 v -1.184 h -2.144 v -1.73866 l -1.35467,0.23466 v 4.84267 c 0,0.40533 0.032,0.71467 0.10667,0.928 0.0427,0.14933 0.11733,0.30933 0.224,0.46933 0.10667,0.17067 0.24533,0.32 0.416,0.45867 0.17067,0.13867 0.36267,0.256 0.59733,0.34133 0.23467,0.0853 0.50134,0.128 0.81067,0.128 0.53333,0 1.024,-0.10666 1.472,-0.32 z"
         style="font-style:normal;font-variant:normal;font-weight:bold;font-stretch:condensed;font-size:10.66666698px;font-family:Earthbound;-inkscape-font-specification:'Earthbound Bold Condensed'"
         id="path4982" /><path
         d="m 169.84652,348.75153 v -4.352 c 0.27733,-0.064 0.544,-0.096 0.78933,-0.096 0.39467,0 0.74667,0.0533 1.056,0.14933 l 0.18133,0.064 0.24534,-1.216 -0.14934,-0.0427 c -0.36266,-0.10666 -0.75733,-0.17066 -1.16266,-0.17066 -0.81067,0 -1.54667,0.11733 -2.208,0.34133 l -0.11734,0.0427 v 5.28 z"
         style="font-style:normal;font-variant:normal;font-weight:bold;font-stretch:condensed;font-size:10.66666698px;font-family:Earthbound;-inkscape-font-specification:'Earthbound Bold Condensed'"
         id="path4984" /><path
         d="m 174.10468,342.43686 v -1.41867 h -1.36533 v 1.41867 z m -0.0107,6.31467 v -5.54667 h -1.344 v 5.54667 z"
         style="font-style:normal;font-variant:normal;font-weight:bold;font-stretch:condensed;font-size:10.66666698px;font-family:Earthbound;-inkscape-font-specification:'Earthbound Bold Condensed'"
         id="path4986" /><path
         d="m 178.92252,344.61286 0.0107,2.50667 c -0.256,0.192 -0.576,0.288 -0.97066,0.288 -0.34134,0 -0.62934,-0.128 -0.85334,-0.40534 -0.23466,-0.27733 -0.352,-0.608 -0.352,-0.992 0,-0.48 0.11734,-0.87466 0.36267,-1.19466 0.224,-0.29867 0.55467,-0.448 0.98133,-0.448 0.17067,0 0.34134,0.0213 0.50134,0.0533 0.10666,0.032 0.21333,0.096 0.32,0.192 z m 1.35466,3.648 v -4.13867 l -0.0427,-0.0427 c -0.20267,-0.23467 -0.40534,-0.416 -0.59734,-0.544 -0.192,-0.128 -0.384,-0.23467 -0.576,-0.29867 -0.192,-0.0533 -0.36266,-0.096 -0.512,-0.11733 -0.16,-0.0107 -0.30933,-0.0107 -0.45866,-0.0213 -0.8,0 -1.45067,0.26667 -1.96267,0.77867 -0.512,0.52267 -0.768,1.19467 -0.768,2.00533 0,0.87467 0.24533,1.54667 0.736,2.00534 0.49067,0.46933 1.088,0.69333 1.78133,0.69333 0.26667,0 0.52267,-0.032 0.77867,-0.11733 0.096,-0.0213 0.18133,-0.0533 0.26667,-0.0853 -0.0213,0.192 -0.0427,0.352 -0.0747,0.45867 -0.0533,0.17067 -0.128,0.30933 -0.224,0.40533 -0.14933,0.14934 -0.34133,0.24534 -0.576,0.288 -0.23467,0.0533 -0.46933,0.0747 -0.704,0.064 -0.24533,-0.0107 -0.46933,-0.0427 -0.68267,-0.096 -0.21333,-0.0427 -0.384,-0.10666 -0.49066,-0.17066 l -0.576,1.03466 c 0.384,0.23467 0.74666,0.352 1.088,0.36267 0.27733,0.0213 0.576,0.032 0.87466,0.032 0.85334,0 1.52534,-0.20267 2.00534,-0.61867 0.46933,-0.39466 0.71466,-1.024 0.71466,-1.87733 z"
         style="font-style:normal;font-variant:normal;font-weight:bold;font-stretch:condensed;font-size:10.66666698px;font-family:Earthbound;-inkscape-font-specification:'Earthbound Bold Condensed'"
         id="path4988" /><path
         d="m 184.14185,346.19153 v -1.28 h -2.98667 v 1.28 z"
         style="font-style:normal;font-variant:normal;font-weight:bold;font-stretch:condensed;font-size:10.66666698px;font-family:Earthbound;-inkscape-font-specification:'Earthbound Bold Condensed'"
         id="path4990" /><path
         d="m 188.08368,348.76219 v -7.392 h -1.44 l -0.0213,0.0747 c -0.0213,0.0533 -0.0427,0.096 -0.0853,0.11733 -0.0853,0.064 -0.192,0.128 -0.32,0.192 -0.128,0.0747 -0.26667,0.13867 -0.416,0.20267 -0.14934,0.064 -0.288,0.11733 -0.40534,0.14933 l -0.192,0.0427 0.42667,1.10933 0.14933,-0.032 c 0.17067,-0.0427 0.36267,-0.11733 0.55467,-0.21333 0.0853,-0.032 0.18133,-0.0853 0.288,-0.14933 v 5.89866 z"
         style="font-style:normal;font-variant:normal;font-weight:bold;font-stretch:condensed;font-size:10.66666698px;font-family:Earthbound;-inkscape-font-specification:'Earthbound Bold Condensed'"
         id="path4992" /></g><g
       aria-label="l-out-r"
       transform="translate(0,3.1238465e-6)"
       style="font-style:normal;font-variant:normal;font-weight:normal;font-stretch:normal;font-size:16px;line-height:125%;font-family:Earthbound;-inkscape-font-specification:Earthbound;letter-spacing:0px;word-spacing:0px;writing-mode:lr-tb;display:inline;fill:#000000;fill-opacity:1;stroke:none;stroke-width:1px;stroke-linecap:butt;stroke-linejoin:miter;stroke-opacity:1"
       id="text7236-8"><path
         d="m 95.009778,348.72144 0.224,-1.10933 -0.181333,-0.0213 c -0.149333,-0.0107 -0.266667,-0.032 -0.352,-0.0533 -0.08533,-0.0213 -0.16,-0.0533 -0.213333,-0.10666 -0.05333,-0.0427 -0.08533,-0.10667 -0.106667,-0.192 -0.02133,-0.0853 -0.02133,-0.192 -0.02133,-0.33067 v -6.60267 l -1.344001,0.23467 v 6.51733 c 0,0.56534 0.138667,0.98134 0.426667,1.25867 0.288,0.27733 0.757334,0.40533 1.418667,0.40533 z"
         style="font-style:normal;font-variant:normal;font-weight:bold;font-stretch:condensed;font-size:10.66666698px;font-family:Earthbound;-inkscape-font-specification:'Earthbound Bold Condensed'"
         id="path4963" /><path
         d="m 98.520278,346.05478 v -1.28 h -2.986667 v 1.28 z"
         style="font-style:normal;font-variant:normal;font-weight:bold;font-stretch:condensed;font-size:10.66666698px;font-family:Earthbound;-inkscape-font-specification:'Earthbound Bold Condensed'"
         id="path4965" /><path
         d="m 103.00611,345.74544 v 0.23467 c 0,0.52267 -0.096,0.91733 -0.26667,1.184 -0.18133,0.26667 -0.50133,0.39467 -0.96,0.39467 -0.24533,0 -0.448,-0.032 -0.608,-0.096 -0.16,-0.064 -0.288,-0.16 -0.384,-0.29867 -0.096,-0.128 -0.16,-0.30933 -0.20266,-0.52267 -0.0427,-0.21333 -0.0533,-0.48 -0.0533,-0.77866 -0.0107,-0.17067 0,-0.36267 0.0213,-0.56534 0.0107,-0.192 0.0533,-0.384 0.13866,-0.55466 0.0853,-0.17067 0.20267,-0.30934 0.37334,-0.42667 0.17066,-0.10667 0.40533,-0.16 0.71466,-0.17067 0.448,0 0.75734,0.14934 0.94934,0.42667 0.18133,0.288 0.27733,0.68267 0.27733,1.17333 z m 0.90667,2.048 c 0.20266,-0.29866 0.34133,-0.61866 0.40533,-0.96 0.064,-0.34133 0.096,-0.71466 0.10667,-1.09866 0,-0.29867 -0.0533,-0.61867 -0.14934,-0.94934 -0.10666,-0.33066 -0.256,-0.62933 -0.46933,-0.90666 -0.21333,-0.27734 -0.49067,-0.50134 -0.832,-0.672 -0.34133,-0.17067 -0.74667,-0.256 -1.216,-0.26667 -0.512,0 -0.93867,0.0747 -1.28,0.224 -0.34133,0.14933 -0.607999,0.36267 -0.810665,0.61867 -0.202667,0.26666 -0.341334,0.576 -0.426667,0.928 -0.08533,0.36266 -0.128,0.736 -0.128,1.14133 0,0.53333 0.04267,0.97067 0.128,1.29067 0.04267,0.21333 0.138667,0.40533 0.277333,0.59733 0.138667,0.192 0.32,0.36267 0.533329,0.512 0.21334,0.14933 0.45867,0.27733 0.74667,0.36267 0.288,0.0853 0.608,0.128 0.96,0.128 0.53333,0 0.97067,-0.0853 1.33333,-0.27734 0.36267,-0.18133 0.62934,-0.40533 0.82134,-0.672 z"
         style="font-style:normal;font-variant:normal;font-weight:bold;font-stretch:condensed;font-size:10.66666698px;font-family:Earthbound;-inkscape-font-specification:'Earthbound Bold Condensed'"
         id="path4967" /><path
         d="m 110.17595,347.97478 v -4.90667 h -1.344 l -0.0107,4.256 c -0.192,0.128 -0.46933,0.18133 -0.84267,0.18133 -0.21333,0 -0.39466,-0.0213 -0.544,-0.0853 -0.14933,-0.0533 -0.26666,-0.13867 -0.352,-0.26667 -0.0853,-0.128 -0.14933,-0.288 -0.18133,-0.49066 -0.0427,-0.192 -0.0533,-0.43734 -0.0533,-0.736 l 0.0107,-2.848 h -1.35466 v 3.09333 c 0,0.84267 0.20266,1.48267 0.61866,1.92 0.416,0.43733 1.00267,0.65067 1.76,0.65067 0.17067,0 0.352,0 0.544,-0.0213 0.18134,-0.0107 0.36267,-0.0427 0.55467,-0.096 0.192,-0.0427 0.384,-0.11733 0.576,-0.21333 0.192,-0.096 0.384,-0.224 0.576,-0.39467 z"
         style="font-style:normal;font-variant:normal;font-weight:bold;font-stretch:condensed;font-size:10.66666698px;font-family:Earthbound;-inkscape-font-specification:'Earthbound Bold Condensed'"
         id="path4969" /><path
         d="m 115.34195,348.34811 -0.27734,-1.16267 c -0.33066,0.14934 -0.672,0.256 -1.01333,0.30934 -0.10667,0.0213 -0.224,0.0213 -0.33067,0 -0.11733,-0.0213 -0.224,-0.064 -0.33066,-0.128 -0.10667,-0.0533 -0.192,-0.11734 -0.26667,-0.20267 -0.0747,-0.0747 -0.11733,-0.14933 -0.13867,-0.23467 -0.0427,-0.192 -0.0533,-0.36266 -0.0533,-0.53333 v -2.15467 h 2.15467 v -1.184 h -2.144 v -1.73866 l -1.35467,0.23466 v 4.84267 c 0,0.40533 0.032,0.71467 0.10667,0.928 0.0427,0.14933 0.11733,0.30933 0.224,0.46933 0.10666,0.17067 0.24533,0.32 0.416,0.45867 0.17066,0.13867 0.36266,0.256 0.59733,0.34133 0.23467,0.0853 0.50133,0.128 0.81067,0.128 0.53333,0 1.024,-0.10666 1.472,-0.32 z"
         style="font-style:normal;font-variant:normal;font-weight:bold;font-stretch:condensed;font-size:10.66666698px;font-family:Earthbound;-inkscape-font-specification:'Earthbound Bold Condensed'"
         id="path4971" /><path
         d="m 118.56195,346.05478 v -1.28 h -2.98667 v 1.28 z"
         style="font-style:normal;font-variant:normal;font-weight:bold;font-stretch:condensed;font-size:10.66666698px;font-family:Earthbound;-inkscape-font-specification:'Earthbound Bold Condensed'"
         id="path4973" /><path
         d="m 120.82911,348.61478 v -4.352 c 0.27734,-0.064 0.544,-0.096 0.78934,-0.096 0.39466,0 0.74666,0.0533 1.056,0.14933 l 0.18133,0.064 0.24533,-1.216 -0.14933,-0.0427 c -0.36267,-0.10666 -0.75733,-0.17066 -1.16267,-0.17066 -0.81066,0 -1.54666,0.11733 -2.208,0.34133 l -0.11733,0.0427 v 5.28 z"
         style="font-style:normal;font-variant:normal;font-weight:bold;font-stretch:condensed;font-size:10.66666698px;font-family:Earthbound;-inkscape-font-specification:'Earthbound Bold Condensed'"
         id="path4975" /></g><g
       aria-label="l-in-r"
       transform="translate(0,3.1238465e-6)"
       style="font-style:normal;font-variant:normal;font-weight:normal;font-stretch:normal;font-size:16px;line-height:125%;font-family:Earthbound;-inkscape-font-specification:Earthbound;letter-spacing:0px;word-spacing:0px;writing-mode:lr-tb;display:inline;fill:#000000;fill-opacity:1;stroke:none;stroke-width:1px;stroke-linecap:butt;stroke-linejoin:miter;stroke-opacity:1"
       id="text7236-3"><path
         d="m 44.605943,348.72144 0.224,-1.10933 -0.181333,-0.0213 c -0.149334,-0.0107 -0.266667,-0.032 -0.352,-0.0533 -0.08533,-0.0213 -0.16,-0.0533 -0.213334,-0.10666 -0.05333,-0.0427 -0.08533,-0.10667 -0.106666,-0.192 -0.02133,-0.0853 -0.02133,-0.192 -0.02133,-0.33067 v -6.60267 l -1.344,0.23467 v 6.51733 c 0,0.56534 0.138667,0.98134 0.426667,1.25867 0.288,0.27733 0.757333,0.40533 1.418667,0.40533 z"
         style="font-style:normal;font-variant:normal;font-weight:bold;font-stretch:condensed;font-size:10.66666698px;font-family:Earthbound;-inkscape-font-specification:'Earthbound Bold Condensed'"
         id="path4950" /><path
         d="m 48.116443,346.05478 v -1.28 h -2.986667 v 1.28 z"
         style="font-style:normal;font-variant:normal;font-weight:bold;font-stretch:condensed;font-size:10.66666698px;font-family:Earthbound;-inkscape-font-specification:'Earthbound Bold Condensed'"
         id="path4952" /><path
         d="m 50.28761,342.30011 v -1.41867 h -1.365334 v 1.41867 z m -0.01067,6.31467 v -5.54667 h -1.344 v 5.54667 z"
         style="font-style:normal;font-variant:normal;font-weight:bold;font-stretch:condensed;font-size:10.66666698px;font-family:Earthbound;-inkscape-font-specification:'Earthbound Bold Condensed'"
         id="path4954" /><path
         d="m 56.513443,348.60411 v -3.09333 c 0,-0.40534 -0.05333,-0.75734 -0.138667,-1.07734 -0.08533,-0.32 -0.224,-0.58666 -0.416,-0.81066 -0.192,-0.21334 -0.448,-0.384 -0.746666,-0.50134 -0.298667,-0.11733 -0.661334,-0.18133 -1.077334,-0.18133 -0.682666,0 -1.408,0.096 -2.176,0.27733 l -0.128,0.032 v 5.36534 h 1.344 v -4.36267 c 0.245334,-0.0427 0.533334,-0.064 0.864,-0.0747 0.213334,0 0.394667,0.032 0.544,0.0747 0.149334,0.0533 0.266667,0.13867 0.352,0.256 0.08533,0.128 0.138667,0.288 0.181334,0.49067 0.032,0.20266 0.05333,0.45866 0.05333,0.75733 v 2.848 z"
         style="font-style:normal;font-variant:normal;font-weight:bold;font-stretch:condensed;font-size:10.66666698px;font-family:Earthbound;-inkscape-font-specification:'Earthbound Bold Condensed'"
         id="path4956" /><path
         d="m 60.324777,346.05478 v -1.28 H 57.33811 v 1.28 z"
         style="font-style:normal;font-variant:normal;font-weight:bold;font-stretch:condensed;font-size:10.66666698px;font-family:Earthbound;-inkscape-font-specification:'Earthbound Bold Condensed'"
         id="path4958" /><path
         d="m 62.591944,348.61478 v -4.352 c 0.277333,-0.064 0.544,-0.096 0.789333,-0.096 0.394667,0 0.746667,0.0533 1.056,0.14933 l 0.181333,0.064 0.245334,-1.216 -0.149334,-0.0427 c -0.362666,-0.10666 -0.757333,-0.17066 -1.162666,-0.17066 -0.810667,0 -1.546667,0.11733 -2.208001,0.34133 l -0.117333,0.0427 v 5.28 z"
         style="font-style:normal;font-variant:normal;font-weight:bold;font-stretch:condensed;font-size:10.66666698px;font-family:Earthbound;-inkscape-font-specification:'Earthbound Bold Condensed'"
         id="path4960" /></g><g
       aria-label="gain"
       transform="translate(0,3.1238465e-6)"
       style="font-style:normal;font-variant:normal;font-weight:normal;font-stretch:normal;font-size:16px;line-height:125%;font-family:Earthbound;-inkscape-font-specification:Earthbound;letter-spacing:0px;word-spacing:0px;writing-mode:lr-tb;display:inline;fill:#000000;fill-opacity:1;stroke:none;stroke-width:1px;stroke-linecap:butt;stroke-linejoin:miter;stroke-opacity:1"
       id="text7236-3-7"><path
         d="m 47.767556,293.0412 0.01067,2.50667 c -0.256,0.192 -0.576,0.288 -0.970667,0.288 -0.341333,0 -0.629333,-0.128 -0.853333,-0.40533 -0.234667,-0.27734 -0.352,-0.608 -0.352,-0.992 0,-0.48 0.117333,-0.87467 0.362666,-1.19467 0.224,-0.29867 0.554667,-0.448 0.981334,-0.448 0.170666,0 0.341333,0.0213 0.501333,0.0533 0.106667,0.032 0.213333,0.096 0.32,0.192 z m 1.354667,3.648 v -4.13866 l -0.04267,-0.0427 c -0.202667,-0.23467 -0.405333,-0.416 -0.597333,-0.544 -0.192,-0.128 -0.384,-0.23467 -0.576,-0.29867 -0.192,-0.0533 -0.362667,-0.096 -0.512,-0.11733 -0.16,-0.0107 -0.309334,-0.0107 -0.458667,-0.0213 -0.8,0 -1.450667,0.26666 -1.962667,0.77866 -0.512,0.52267 -0.768,1.19467 -0.768,2.00534 0,0.87466 0.245334,1.54666 0.736,2.00533 0.490667,0.46933 1.088,0.69333 1.781334,0.69333 0.266666,0 0.522666,-0.032 0.778666,-0.11733 0.096,-0.0213 0.181334,-0.0533 0.266667,-0.0853 -0.02133,0.192 -0.04267,0.352 -0.07467,0.45866 -0.05333,0.17067 -0.128,0.30934 -0.224,0.40534 -0.149333,0.14933 -0.341333,0.24533 -0.576,0.288 -0.234666,0.0533 -0.469333,0.0747 -0.704,0.064 -0.245333,-0.0107 -0.469333,-0.0427 -0.682666,-0.096 -0.213334,-0.0427 -0.384,-0.10667 -0.490667,-0.17067 l -0.576,1.03467 c 0.384,0.23466 0.746667,0.352 1.088,0.36266 0.277333,0.0213 0.576,0.032 0.874667,0.032 0.853333,0 1.525333,-0.20266 2.005333,-0.61866 0.469333,-0.39467 0.714667,-1.024 0.714667,-1.87734 z"
         style="font-style:normal;font-variant:normal;font-weight:bold;font-stretch:condensed;font-size:10.66666698px;font-family:Earthbound;-inkscape-font-specification:'Earthbound Bold Condensed'"
         id="path4941" /><path
         d="m 53.413556,294.84387 v 1.10933 c -0.08533,0.0427 -0.181333,0.0853 -0.288,0.10667 -0.149333,0.0427 -0.341333,0.0533 -0.554666,0.0533 -0.362667,0 -0.629334,-0.0533 -0.778667,-0.16 -0.16,-0.10666 -0.234667,-0.288 -0.234667,-0.52266 0,-0.21334 0.08533,-0.37334 0.266667,-0.48 0.170667,-0.10667 0.469333,-0.16 0.885333,-0.16 0.32,0 0.554667,0.0213 0.704,0.0533 z m 1.322667,1.73867 v -2.92267 c 0,-0.704 -0.202667,-1.23733 -0.586667,-1.61067 -0.394666,-0.36266 -0.949333,-0.55466 -1.653333,-0.55466 -0.405333,0 -0.768,0.0427 -1.077333,0.128 -0.32,0.096 -0.629334,0.26666 -0.917334,0.52266 l -0.149333,0.13867 0.992,0.87467 0.117333,-0.10667 c 0.149334,-0.128 0.288,-0.224 0.437334,-0.27733 0.149333,-0.0427 0.32,-0.064 0.522666,-0.0747 h 0.05333 c 0.32,0.0107 0.565333,0.096 0.714666,0.24533 0.149334,0.14934 0.234667,0.39467 0.234667,0.72534 v 0.0533 c -0.245333,-0.0533 -0.512,-0.0853 -0.789333,-0.0853 -0.682667,0 -1.248,0.13866 -1.717334,0.416 -0.501333,0.29866 -0.746666,0.768 -0.746666,1.38666 0,0.61867 0.192,1.07734 0.597333,1.38667 0.405333,0.32 0.96,0.46933 1.685333,0.46933 0.128,0 0.266667,0 0.416,-0.0107 0.149334,0 0.32,-0.032 0.501334,-0.0747 0.192,-0.0427 0.394666,-0.11733 0.608,-0.20267 0.213333,-0.0853 0.437333,-0.20266 0.682666,-0.37333 z"
         style="font-style:normal;font-variant:normal;font-weight:bold;font-stretch:condensed;font-size:10.66666698px;font-family:Earthbound;-inkscape-font-specification:'Earthbound Bold Condensed'"
         id="path4943" /><path
         d="m 57.42889,290.8652 v -1.41866 h -1.365334 v 1.41866 z m -0.01067,6.31467 v -5.54667 h -1.344 v 5.54667 z"
         style="font-style:normal;font-variant:normal;font-weight:bold;font-stretch:condensed;font-size:10.66666698px;font-family:Earthbound;-inkscape-font-specification:'Earthbound Bold Condensed'"
         id="path4945" /><path
         d="m 63.654723,297.1692 v -3.09333 c 0,-0.40533 -0.05333,-0.75733 -0.138667,-1.07733 -0.08533,-0.32 -0.224,-0.58667 -0.416,-0.81067 -0.192,-0.21333 -0.448,-0.384 -0.746666,-0.50133 -0.298667,-0.11734 -0.661334,-0.18134 -1.077334,-0.18134 -0.682666,0 -1.408,0.096 -2.176,0.27734 l -0.128,0.032 v 5.36533 h 1.344 v -4.36267 c 0.245334,-0.0427 0.533334,-0.064 0.864,-0.0747 0.213334,0 0.394667,0.032 0.544,0.0747 0.149334,0.0533 0.266667,0.13867 0.352,0.256 0.08533,0.128 0.138667,0.288 0.181334,0.49067 0.032,0.20267 0.05333,0.45867 0.05333,0.75733 v 2.848 z"
         style="font-style:normal;font-variant:normal;font-weight:bold;font-stretch:condensed;font-size:10.66666698px;font-family:Earthbound;-inkscape-font-specification:'Earthbound Bold Condensed'"
         id="path4947" /></g><g
       aria-label="1"
       transform="matrix(1.11714,0,0,0.895143,0,3.1238465e-6)"
       style="font-style:normal;font-variant:normal;font-weight:normal;font-stretch:normal;font-size:14.32228756px;line-height:125%;font-family:Earthbound;-inkscape-font-specification:Earthbound;letter-spacing:0px;word-spacing:0px;writing-mode:lr-tb;display:inline;fill:#000000;fill-opacity:1;stroke:none;stroke-width:0.89514297px;stroke-linecap:butt;stroke-linejoin:miter;stroke-opacity:1"
       id="text7236-5"><path
         d="m 200.00834,346.43783 v -6.6169 h -1.28901 l -0.0191,0.0668 c -0.0191,0.0477 -0.0382,0.0859 -0.0764,0.10503 -0.0764,0.0573 -0.17186,0.11458 -0.28644,0.17187 -0.11458,0.0668 -0.23871,0.12413 -0.37238,0.18142 -0.13368,0.0573 -0.2578,0.10503 -0.36283,0.13367 l -0.17187,0.0382 0.38193,0.99301 0.13367,-0.0286 c 0.15277,-0.0382 0.32464,-0.10503 0.49651,-0.19096 0.0764,-0.0286 0.16232,-0.0764 0.2578,-0.13368 v 5.28015 z"
         style="font-style:normal;font-variant:normal;font-weight:bold;font-stretch:condensed;font-size:9.54819202px;font-family:Earthbound;-inkscape-font-specification:'Earthbound Bold Condensed';stroke-width:0.89514297px"
         id="path4938" /></g><g
       aria-label="2"
       transform="matrix(1.1376389,0,0,0.87901355,0,3.1238465e-6)"
       style="font-style:normal;font-variant:normal;font-weight:normal;font-stretch:normal;font-size:14.06421661px;line-height:125%;font-family:Earthbound;-inkscape-font-specification:Earthbound;letter-spacing:0px;word-spacing:0px;writing-mode:lr-tb;display:inline;fill:#000000;fill-opacity:1;stroke:none;stroke-width:0.87901354px;stroke-linecap:butt;stroke-linejoin:miter;stroke-opacity:1"
       id="text7236-5-5"><path
         d="m 197.99718,396.71071 v -1.07826 h -2.85972 c 0.009,-0.22503 0.0281,-0.42193 0.0656,-0.5907 0.0469,-0.16877 0.13127,-0.30941 0.24378,-0.44067 0.11252,-0.11252 0.23441,-0.21566 0.37505,-0.29067 0.15002,-0.075 0.30003,-0.15001 0.45005,-0.22502 0.20628,-0.0938 0.40318,-0.1969 0.5907,-0.29066 0.21565,-0.10314 0.40317,-0.23441 0.57194,-0.38442 0.16878,-0.15002 0.30004,-0.33755 0.40318,-0.56257 0.0938,-0.21565 0.15002,-0.48756 0.15002,-0.81573 0,-0.60945 -0.17815,-1.07825 -0.52507,-1.40642 -0.34691,-0.31879 -0.87198,-0.48756 -1.57519,-0.48756 h -0.32816 c -0.37505,0 -0.71259,0.0563 -1.01263,0.16877 -0.32816,0.11251 -0.61882,0.32817 -0.87198,0.6282 l -0.11251,0.13127 1.01262,0.65633 0.0938,-0.10314 c 0.11252,-0.15002 0.24378,-0.26253 0.3938,-0.31879 0.14064,-0.0563 0.30941,-0.0844 0.49694,-0.0844 h 0.32816 c 0.30004,0 0.50631,0.075 0.63758,0.20627 0.12189,0.15002 0.18752,0.36567 0.18752,0.66571 0,0.17815 -0.0281,0.32816 -0.075,0.44068 -0.0563,0.11251 -0.12189,0.20627 -0.1969,0.28128 -0.0938,0.0938 -0.1969,0.16877 -0.30941,0.22503 -0.12189,0.0656 -0.24378,0.12189 -0.36567,0.17815 -0.22503,0.11251 -0.45005,0.22502 -0.66571,0.34691 -0.2344,0.13127 -0.44067,0.29066 -0.6282,0.47819 -0.20627,0.1969 -0.36567,0.44068 -0.48756,0.72196 -0.12189,0.28128 -0.17814,0.63758 -0.17814,1.05013 v 0.90011 z"
         style="font-style:normal;font-variant:normal;font-weight:bold;font-stretch:condensed;font-size:9.37614441px;font-family:Earthbound;-inkscape-font-specification:'Earthbound Bold Condensed';stroke-width:0.87901354px"
         id="path4935" /></g><g
       aria-label="3"
       transform="matrix(1.11714,0,0,0.895143,0,3.1238465e-6)"
       style="font-style:normal;font-variant:normal;font-weight:normal;font-stretch:normal;font-size:14.32228756px;line-height:125%;font-family:Earthbound;-inkscape-font-specification:Earthbound;letter-spacing:0px;word-spacing:0px;writing-mode:lr-tb;display:inline;fill:#000000;fill-opacity:1;stroke:none;stroke-width:0.89514297px;stroke-linecap:butt;stroke-linejoin:miter;stroke-opacity:1"
       id="text7236-5-9"><path
         d="m 224.31891,344.73827 v -0.46786 c 0,-0.28644 -0.0668,-0.5347 -0.18141,-0.74476 -0.12413,-0.21006 -0.296,-0.40102 -0.51561,-0.57289 0.17187,-0.14322 0.30555,-0.31509 0.41058,-0.50605 0.0955,-0.19097 0.14322,-0.39148 0.14322,-0.60154 v -0.49651 c 0,-0.20051 -0.0573,-0.39147 -0.16232,-0.59198 -0.11458,-0.18142 -0.2578,-0.35329 -0.42967,-0.50606 -0.18142,-0.14322 -0.38193,-0.2578 -0.61108,-0.34373 -0.22916,-0.0859 -0.46787,-0.13368 -0.70657,-0.13368 h -0.58244 c -0.17187,0 -0.32464,0.01 -0.45831,0.0191 -0.14323,0.01 -0.2769,0.0286 -0.40103,0.0668 -0.12412,0.0382 -0.24825,0.10503 -0.36283,0.18141 -0.11458,0.0859 -0.22915,0.20051 -0.34373,0.33419 l -0.38193,0.42012 1.05985,0.67792 c 0.0764,-0.13367 0.17187,-0.26735 0.28644,-0.38193 0.11458,-0.11457 0.21006,-0.18141 0.296,-0.20051 0.0764,-0.01 0.18141,-0.0191 0.30554,-0.0191 h 0.58244 c 0.14322,0 0.2769,0.0478 0.41057,0.14323 0.12413,0.0955 0.19097,0.21961 0.19097,0.35328 v 0.47741 c 0,0.15277 -0.0859,0.29599 -0.23871,0.42012 -0.16232,0.12413 -0.37238,0.18142 -0.63973,0.18142 h -0.73521 v 1.08849 h 0.77341 c 0.26734,0.0191 0.48695,0.0859 0.67792,0.21006 0.19096,0.12413 0.27689,0.29599 0.28644,0.5156 v 0.44877 c 0,0.21961 -0.0764,0.38193 -0.21961,0.47741 -0.15277,0.10503 -0.33418,0.15277 -0.54424,0.15277 h -0.48696 c -0.0955,0 -0.20051,0 -0.31509,-0.01 -0.11458,-0.01 -0.21006,-0.0477 -0.2769,-0.10503 l -0.55379,-0.46786 -0.84979,0.82114 0.12412,0.11458 c 0.0668,0.0764 0.14323,0.13368 0.22916,0.19097 0.0859,0.0573 0.17187,0.12412 0.2578,0.19096 l 0.01,0.01 c 0.0955,0.0668 0.21006,0.12412 0.33419,0.16232 0.12412,0.0477 0.24825,0.0859 0.37238,0.11458 0.12412,0.0286 0.24825,0.0477 0.36283,0.0573 0.11458,0.0191 0.21006,0.0191 0.30554,0.0191 h 0.48696 c 0.30554,0 0.58244,-0.0382 0.84024,-0.13367 0.2578,-0.0859 0.47741,-0.21006 0.66837,-0.36284 0.18142,-0.15277 0.32464,-0.32463 0.42967,-0.53469 0.0955,-0.21006 0.15277,-0.42967 0.15277,-0.66838 z"
         style="font-style:normal;font-variant:normal;font-weight:bold;font-stretch:condensed;font-size:9.54819202px;font-family:Earthbound;-inkscape-font-specification:'Earthbound Bold Condensed';stroke-width:0.89514297px"
         id="path4932" /></g><g
       aria-label="4"
       transform="matrix(1.1376389,0,0,0.87901355,0,3.1238465e-6)"
       style="font-style:normal;font-variant:normal;font-weight:normal;font-stretch:normal;font-size:14.06421661px;line-height:125%;font-family:Earthbound;-inkscape-font-specification:Earthbound;letter-spacing:0px;word-spacing:0px;writing-mode:lr-tb;display:inline;fill:#000000;fill-opacity:1;stroke:none;stroke-width:0.87901354px;stroke-linecap:butt;stroke-linejoin:miter;stroke-opacity:1"
       id="text7236-5-5-1"><path
         d="m 218.21859,393.99161 h -1.48143 c 0.0938,-0.16877 0.20628,-0.34692 0.32817,-0.55319 0.12189,-0.20628 0.24377,-0.41255 0.37504,-0.61883 0.13127,-0.20627 0.26253,-0.40317 0.3938,-0.60945 0.13127,-0.19689 0.25315,-0.37504 0.38442,-0.54381 z m 1.2564,2.71908 v -1.70645 h 0.76885 v -1.03138 h -0.76885 v -3.75983 h -1.13451 l -0.0469,0.0469 c -0.30941,0.28128 -0.7876,0.90948 -1.44393,1.86585 -0.65633,0.96574 -1.022,1.51893 -1.10638,1.65958 -0.0938,0.14064 -0.16877,0.29066 -0.2344,0.44068 v 0.77822 h 2.81284 v 1.70645 z"
         style="font-style:normal;font-variant:normal;font-weight:bold;font-stretch:condensed;font-size:9.37614441px;font-family:Earthbound;-inkscape-font-specification:'Earthbound Bold Condensed';stroke-width:0.87901354px"
         id="path4929" /></g><g
       aria-label="5"
       transform="matrix(1.1376394,0,0,0.87901313,0,3.1238465e-6)"
       style="font-style:normal;font-variant:normal;font-weight:normal;font-stretch:normal;font-size:14.06420994px;line-height:125%;font-family:Earthbound;-inkscape-font-specification:Earthbound;letter-spacing:0px;word-spacing:0px;writing-mode:lr-tb;display:inline;fill:#000000;fill-opacity:1;stroke:none;stroke-width:0.87901312px;stroke-linecap:butt;stroke-linejoin:miter;stroke-opacity:1"
       id="text7236-5-9-9"><path
         d="m 41.216056,261.47234 v -0.57194 c 0,-0.1969 -0.05626,-0.41255 -0.150018,-0.64695 -0.103137,-0.22503 -0.243779,-0.44068 -0.41255,-0.63758 -0.178147,-0.18752 -0.384422,-0.34692 -0.628201,-0.47818 -0.24378,-0.13127 -0.506312,-0.18753 -0.787596,-0.1969 H 38.65637 c 0,-0.13127 0.0094,-0.24378 0.01875,-0.3563 0,-0.10313 0.0094,-0.1969 0.01875,-0.29066 0,-0.0938 0.0094,-0.17814 0.0094,-0.2719 0,-0.0844 0.0094,-0.17815 0.02813,-0.28129 h 2.156512 v -1.07826 h -3.291025 l -0.262532,3.53481 h 1.162642 l 0.04688,-0.0656 c 0.03751,-0.075 0.187523,-0.11252 0.450055,-0.12189 h 0.24378 c 0.09376,0 0.178146,0.0281 0.262532,0.0844 0.07501,0.0563 0.150018,0.13127 0.215651,0.21565 0.05626,0.0938 0.103137,0.18753 0.140642,0.29066 0.03751,0.11252 0.04688,0.21566 0.05626,0.30942 v 0.55319 c 0,0.0844 -0.02813,0.16877 -0.06563,0.25315 -0.03751,0.0844 -0.09376,0.1594 -0.150018,0.22503 -0.05626,0.0656 -0.131266,0.12189 -0.206275,0.1594 -0.07501,0.0469 -0.150019,0.0656 -0.225028,0.0656 h -0.496935 c -0.07501,0 -0.168771,-0.0188 -0.262532,-0.0563 -0.09376,-0.0375 -0.178147,-0.0844 -0.24378,-0.14064 l -0.487559,-0.41255 -0.862605,0.7876 0.543816,0.45943 c 0.168771,0.15002 0.36567,0.25315 0.609449,0.32816 0.234404,0.075 0.468807,0.11252 0.703211,0.11252 h 0.496935 c 0.24378,0 0.478183,-0.0469 0.712587,-0.1594 0.234403,-0.10314 0.440678,-0.24378 0.628201,-0.41255 0.187523,-0.16877 0.328165,-0.36567 0.440679,-0.57194 0.112514,-0.20628 0.159394,-0.42193 0.16877,-0.62821 z"
         style="font-style:normal;font-variant:normal;font-weight:bold;font-stretch:condensed;font-size:9.37614059px;font-family:Earthbound;-inkscape-font-specification:'Earthbound Bold Condensed';stroke-width:0.87901312px"
         id="path4926" /></g><g
       aria-label="6"
       transform="matrix(1.1376389,0,0,0.87901355,0,3.1238465e-6)"
       style="font-style:normal;font-variant:normal;font-weight:normal;font-stretch:normal;font-size:14.06421661px;line-height:125%;font-family:Earthbound;-inkscape-font-specification:Earthbound;letter-spacing:0px;word-spacing:0px;writing-mode:lr-tb;display:inline;fill:#000000;fill-opacity:1;stroke:none;stroke-width:0.87901354px;stroke-linecap:butt;stroke-linejoin:miter;stroke-opacity:1"
       id="text7236-5-9-8"><path
         d="m 240.56326,395.63245 h -0.42193 c -0.24378,0 -0.4313,-0.11252 -0.56257,-0.3563 -0.14064,-0.24378 -0.20627,-0.6657 -0.20627,-1.26577 v -0.17815 c 0.075,-0.0469 0.15939,-0.10314 0.2719,-0.16877 0.11252,-0.0656 0.23441,-0.10314 0.38443,-0.10314 h 0.4688 c 0.13127,0 0.23441,0.0281 0.32817,0.0844 0.0844,0.0563 0.15002,0.12189 0.20627,0.19689 0.0563,0.0844 0.0844,0.17815 0.11252,0.27191 0.0188,0.0938 0.0281,0.18753 0.0281,0.26253 v 0.43131 c 0,0.0938 -0.0281,0.1969 -0.0656,0.29066 -0.0375,0.0938 -0.0938,0.18752 -0.15002,0.26253 -0.0563,0.0844 -0.12189,0.15002 -0.1969,0.1969 -0.075,0.0563 -0.14064,0.075 -0.19689,0.075 z m 1.91273,-0.79697 v -0.46881 c 0,-0.20628 -0.0469,-0.42193 -0.12189,-0.64696 -0.075,-0.22502 -0.1969,-0.42192 -0.35629,-0.60944 -0.1594,-0.18753 -0.36567,-0.33755 -0.60945,-0.45944 -0.25316,-0.11251 -0.5532,-0.16877 -0.89074,-0.17814 h -0.4688 c -0.22503,0 -0.41255,0.0375 -0.57195,0.0938 0.0375,-0.16877 0.075,-0.32817 0.13127,-0.48756 0.0562,-0.15002 0.13126,-0.29066 0.22502,-0.41255 0.0938,-0.12189 0.21566,-0.22503 0.36567,-0.30004 0.15002,-0.075 0.32817,-0.11251 0.5532,-0.11251 0.13126,0 0.28128,0.0188 0.45943,0.0375 0.17814,0.0188 0.36567,0.0656 0.55319,0.13127 l 0.13127,0.0469 0.40317,-1.022 -0.16877,-0.0469 c -0.28128,-0.0656 -0.53444,-0.13127 -0.75947,-0.16877 -0.22503,-0.0375 -0.4313,-0.0563 -0.61882,-0.0563 -0.44068,0 -0.80635,0.0656 -1.10639,0.18753 -0.30004,0.12188 -0.54382,0.28128 -0.73134,0.48755 -0.1969,0.20628 -0.34692,0.45006 -0.45005,0.71259 -0.11252,0.26253 -0.18753,0.53444 -0.24378,0.81573 -0.0563,0.28128 -0.0844,0.57194 -0.10314,0.85323 -0.0188,0.28128 -0.0281,0.54381 -0.0281,0.77822 0,0.90948 0.17815,1.58456 0.53444,2.03462 0.35629,0.45005 0.87198,0.6657 1.53769,0.6657 h 0.42193 c 0.22502,0 0.45943,-0.0562 0.69383,-0.17814 0.22503,-0.11252 0.4313,-0.26253 0.60945,-0.45006 0.17815,-0.18752 0.32816,-0.38442 0.44068,-0.60945 0.11251,-0.21565 0.16877,-0.4313 0.16877,-0.63757 z"
         style="font-style:normal;font-variant:normal;font-weight:bold;font-stretch:condensed;font-size:9.37614441px;font-family:Earthbound;-inkscape-font-specification:'Earthbound Bold Condensed';stroke-width:0.87901354px"
         id="path4923" /></g><g
       aria-label="7"
       transform="matrix(1.11714,0,0,0.895143,0,3.1238465e-6)"
       style="font-style:normal;font-variant:normal;font-weight:normal;font-stretch:normal;font-size:14.32228756px;line-height:125%;font-family:Earthbound;-inkscape-font-specification:Earthbound;letter-spacing:0px;word-spacing:0px;writing-mode:lr-tb;display:inline;fill:#000000;fill-opacity:1;stroke:none;stroke-width:0.89514297px;stroke-linecap:butt;stroke-linejoin:miter;stroke-opacity:1"
       id="text7236-5-9-8-3"><path
         d="m 267.40607,346.43787 0.0191,-0.12413 c 0.0573,-0.26735 0.13367,-0.56334 0.2387,-0.88798 0.10503,-0.32464 0.21006,-0.64928 0.32464,-0.99301 0.17187,-0.35329 0.34374,-0.70657 0.52515,-1.05985 0.17187,-0.34374 0.35329,-0.67793 0.5347,-0.99302 0.17187,-0.31509 0.35328,-0.61108 0.52515,-0.88798 0.17187,-0.26735 0.34374,-0.5156 0.50606,-0.72566 l 0.0382,-0.0477 v -0.89753 h -4.44946 v 1.08849 h 2.99813 c -0.15277,0.21961 -0.31509,0.46786 -0.47741,0.75431 -0.16232,0.28645 -0.32463,0.58244 -0.48695,0.89753 -0.16232,0.31509 -0.32464,0.63973 -0.47741,0.97392 -0.15277,0.33418 -0.296,0.65882 -0.42967,0.98346 -0.13368,0.32464 -0.2578,0.63018 -0.36283,0.92617 -0.10503,0.30555 -0.19097,0.5729 -0.24826,0.8116 l -0.0477,0.18142 z"
         style="font-style:normal;font-variant:normal;font-weight:bold;font-stretch:condensed;font-size:9.54819202px;font-family:Earthbound;-inkscape-font-specification:'Earthbound Bold Condensed';stroke-width:0.89514297px"
         id="path4920" /></g><g
       aria-label="8"
       transform="matrix(1.1376389,0,0,0.87901355,0,3.1238465e-6)"
       style="font-style:normal;font-variant:normal;font-weight:normal;font-stretch:normal;font-size:14.06421661px;line-height:125%;font-family:Earthbound;-inkscape-font-specification:Earthbound;letter-spacing:0px;word-spacing:0px;writing-mode:lr-tb;display:inline;fill:#000000;fill-opacity:1;stroke:none;stroke-width:0.87901354px;stroke-linecap:butt;stroke-linejoin:miter;stroke-opacity:1"
       id="text7236-5-9-8-31"><path
         d="m 263.5607,391.6851 v 0.22503 c 0,0.0375 -0.009,0.11251 -0.0281,0.21565 -0.0188,0.10314 -0.0563,0.20628 -0.10314,0.31879 -0.0469,0.11251 -0.11251,0.20628 -0.18752,0.29066 -0.075,0.0844 -0.17815,0.12189 -0.30004,0.12189 -0.30941,0 -0.56257,-0.0656 -0.75009,-0.21565 -0.18752,-0.14064 -0.28129,-0.35629 -0.28129,-0.65633 v -0.33754 c 0,-0.0844 0.009,-0.16877 0.0469,-0.25316 0.0375,-0.075 0.0844,-0.15002 0.14065,-0.21565 0.0562,-0.0656 0.12189,-0.12189 0.1969,-0.15939 0.075,-0.0375 0.15001,-0.0563 0.22502,-0.0563 h 0.42193 c 0.075,0 0.15002,0.0281 0.2344,0.075 0.075,0.0563 0.14065,0.11251 0.1969,0.18752 0.0469,0.075 0.0938,0.15002 0.13127,0.23441 0.0375,0.0844 0.0563,0.15939 0.0563,0.22502 z m -0.5532,3.94736 h -0.53444 c -0.0375,0 -0.0562,0 -0.075,-0.009 h -0.0188 c -0.075,0 -0.15002,-0.0188 -0.21565,-0.0656 -0.075,-0.0469 -0.13127,-0.10314 -0.18752,-0.17815 -0.0563,-0.075 -0.0938,-0.15001 -0.13127,-0.24378 -0.0375,-0.0844 -0.0656,-0.16877 -0.0656,-0.25315 v -0.44068 c 0,-0.0938 0.0188,-0.1969 0.0563,-0.30004 0.0375,-0.10313 0.0844,-0.1969 0.15001,-0.27191 0.0563,-0.075 0.13127,-0.14064 0.21565,-0.19689 0.0844,-0.0469 0.17815,-0.075 0.27191,-0.075 h 0.0469 c 0.37505,0.0562 0.65633,0.14064 0.84386,0.26253 0.18752,0.12189 0.29066,0.30941 0.29066,0.57194 v 0.15002 c 0,0.0469 -0.009,0.0938 -0.009,0.14064 v 0.17815 c 0,0.20628 -0.075,0.37505 -0.20627,0.50631 -0.13127,0.13127 -0.28129,0.20628 -0.43131,0.22503 z m -0.53444,1.07826 h 0.52507 c 0.1969,0 0.41255,-0.0375 0.63757,-0.13127 0.22503,-0.0938 0.44068,-0.21565 0.62821,-0.36567 0.18752,-0.15002 0.34691,-0.31879 0.47818,-0.51569 0.13127,-0.1969 0.18752,-0.40317 0.1969,-0.6282 v -0.24378 c 0,-0.0375 0.009,-0.0844 0.009,-0.12189 v -0.13126 c 0,-0.33755 -0.075,-0.61883 -0.21566,-0.82511 -0.14064,-0.20627 -0.32816,-0.38442 -0.55319,-0.53444 0.1969,-0.19689 0.35629,-0.42192 0.47818,-0.67508 0.12189,-0.24378 0.18753,-0.48756 0.18753,-0.71258 v -0.21566 c 0,-0.17814 -0.0563,-0.36567 -0.1594,-0.57194 -0.10313,-0.20628 -0.24378,-0.3938 -0.41255,-0.56257 -0.17814,-0.16877 -0.38442,-0.30941 -0.60945,-0.42193 -0.2344,-0.11251 -0.47818,-0.16877 -0.72196,-0.16877 h -0.42193 c -0.24378,0 -0.47818,0.0563 -0.70321,0.15002 -0.22502,0.0938 -0.4313,0.22503 -0.60007,0.38442 -0.17815,0.1594 -0.31879,0.33754 -0.42193,0.54382 -0.11251,0.20627 -0.15939,0.41255 -0.15939,0.61883 v 0.31878 c 0,0.30942 0.0469,0.56257 0.15939,0.7501 0.11252,0.19689 0.26254,0.36567 0.45943,0.50631 -0.2344,0.16877 -0.42192,0.37504 -0.56256,0.61882 -0.14065,0.24378 -0.20628,0.50631 -0.20628,0.76885 v 0.4313 c 0,0.22503 0.0656,0.4313 0.18752,0.63758 0.11252,0.20627 0.27191,0.3938 0.45943,0.55319 0.18753,0.16877 0.3938,0.30004 0.62821,0.3938 0.2344,0.10314 0.4688,0.15002 0.71258,0.15002 z"
         style="font-style:normal;font-variant:normal;font-weight:bold;font-stretch:condensed;font-size:9.37614441px;font-family:Earthbound;-inkscape-font-specification:'Earthbound Bold Condensed';stroke-width:0.87901354px"
         id="path4917" /></g><g
       aria-label="5"
       transform="matrix(1.11714,0,0,0.895143,0,3.1238465e-6)"
       style="font-style:normal;font-variant:normal;font-weight:normal;font-stretch:normal;font-size:14.32228756px;line-height:125%;font-family:Earthbound;-inkscape-font-specification:Earthbound;letter-spacing:0px;word-spacing:0px;writing-mode:lr-tb;display:inline;fill:#000000;fill-opacity:1;stroke:none;stroke-width:0.89514297px;stroke-linecap:butt;stroke-linejoin:miter;stroke-opacity:1"
       id="text7236-5-9-9-8"><path
         d="m 247.08544,344.63323 v -0.58244 c 0,-0.20051 -0.0573,-0.42012 -0.15277,-0.65882 -0.10503,-0.22916 -0.24825,-0.44877 -0.42012,-0.64928 -0.18141,-0.19096 -0.39147,-0.35328 -0.63973,-0.48696 -0.24825,-0.13367 -0.5156,-0.19096 -0.80204,-0.20051 h -0.59199 c 0,-0.13368 0.01,-0.24825 0.0191,-0.36283 0,-0.10503 0.01,-0.20051 0.0191,-0.296 0,-0.0955 0.01,-0.18141 0.01,-0.27689 0,-0.0859 0.01,-0.18142 0.0286,-0.28645 h 2.19609 v -1.09804 h -3.35142 l -0.26735,3.59967 h 1.18398 l 0.0477,-0.0668 c 0.0382,-0.0764 0.19096,-0.11458 0.45831,-0.12413 h 0.24826 c 0.0955,0 0.18141,0.0287 0.26734,0.0859 0.0764,0.0573 0.15278,0.13367 0.21961,0.21961 0.0573,0.0955 0.10503,0.19096 0.14323,0.29599 0.0382,0.11458 0.0477,0.21961 0.0573,0.31509 v 0.56334 c 0,0.0859 -0.0286,0.17187 -0.0668,0.2578 -0.0382,0.0859 -0.0955,0.16232 -0.15277,0.22916 -0.0573,0.0668 -0.13368,0.12413 -0.21006,0.16232 -0.0764,0.0477 -0.15277,0.0668 -0.22916,0.0668 h -0.50605 c -0.0764,0 -0.17187,-0.0191 -0.26735,-0.0573 -0.0955,-0.0382 -0.18142,-0.0859 -0.24826,-0.14322 l -0.4965,-0.42013 -0.87844,0.80205 0.5538,0.46786 c 0.17187,0.15278 0.37238,0.25781 0.62063,0.33419 0.23871,0.0764 0.47741,0.11458 0.71612,0.11458 h 0.50605 c 0.24825,0 0.48696,-0.0477 0.72566,-0.16232 0.23871,-0.10503 0.44877,-0.24825 0.63973,-0.42012 0.19097,-0.17187 0.33419,-0.37238 0.44877,-0.58244 0.11457,-0.21006 0.16232,-0.42967 0.17186,-0.63973 z"
         style="font-style:normal;font-variant:normal;font-weight:bold;font-stretch:condensed;font-size:9.54819202px;font-family:Earthbound;-inkscape-font-specification:'Earthbound Bold Condensed';stroke-width:0.89514297px"
         id="path4914" /></g><g
       aria-label="6"
       transform="matrix(1.1376394,0,0,0.87901313,0,3.1238465e-6)"
       style="font-style:normal;font-variant:normal;font-weight:normal;font-stretch:normal;font-size:14.06420994px;line-height:125%;font-family:Earthbound;-inkscape-font-specification:Earthbound;letter-spacing:0px;word-spacing:0px;writing-mode:lr-tb;display:inline;fill:#000000;fill-opacity:1;stroke:none;stroke-width:0.87901312px;stroke-linecap:butt;stroke-linejoin:miter;stroke-opacity:1"
       id="text7236-5-9-8-0"><path
         d="m 112.6396,262.16617 h -0.42192 c -0.24378,0 -0.43131,-0.11251 -0.56257,-0.35629 -0.14065,-0.24378 -0.20628,-0.66571 -0.20628,-1.26578 v -0.17815 c 0.075,-0.0469 0.1594,-0.10314 0.27191,-0.16877 0.11251,-0.0656 0.2344,-0.10314 0.38442,-0.10314 h 0.46881 c 0.13126,0 0.2344,0.0281 0.32816,0.0844 0.0844,0.0563 0.15002,0.12189 0.20628,0.1969 0.0563,0.0844 0.0844,0.17814 0.11251,0.27191 0.0187,0.0938 0.0281,0.18752 0.0281,0.26253 v 0.4313 c 0,0.0938 -0.0281,0.1969 -0.0656,0.29066 -0.0375,0.0938 -0.0938,0.18752 -0.15002,0.26253 -0.0563,0.0844 -0.12189,0.15002 -0.1969,0.1969 -0.075,0.0563 -0.14064,0.075 -0.1969,0.075 z m 1.91273,-0.79697 v -0.46881 c 0,-0.20627 -0.0469,-0.42192 -0.12189,-0.64695 -0.075,-0.22503 -0.19689,-0.42193 -0.35629,-0.60945 -0.15939,-0.18752 -0.36567,-0.33754 -0.60945,-0.45943 -0.25315,-0.11252 -0.55319,-0.16877 -0.89073,-0.17815 h -0.46881 c -0.22503,0 -0.41255,0.0375 -0.57194,0.0938 0.0375,-0.16877 0.075,-0.32816 0.13126,-0.48756 0.0563,-0.15002 0.13127,-0.29066 0.22503,-0.41255 0.0938,-0.12189 0.21565,-0.22502 0.36567,-0.30003 0.15002,-0.075 0.32816,-0.11252 0.55319,-0.11252 0.13127,0 0.28129,0.0188 0.45943,0.0375 0.17815,0.0188 0.36567,0.0656 0.5532,0.13126 l 0.13126,0.0469 0.40318,-1.022 -0.16877,-0.0469 c -0.28129,-0.0656 -0.53444,-0.13126 -0.75947,-0.16877 -0.22503,-0.0375 -0.4313,-0.0563 -0.61883,-0.0563 -0.44068,0 -0.80635,0.0656 -1.10638,0.18752 -0.30004,0.12189 -0.54382,0.28128 -0.73134,0.48756 -0.1969,0.20627 -0.34692,0.45005 -0.45006,0.71259 -0.11251,0.26253 -0.18752,0.53444 -0.24378,0.81572 -0.0562,0.28128 -0.0844,0.57194 -0.10313,0.85323 -0.0188,0.28128 -0.0281,0.54381 -0.0281,0.77822 0,0.90948 0.17815,1.58457 0.53444,2.03462 0.35629,0.45006 0.87198,0.66571 1.53769,0.66571 h 0.42192 c 0.22503,0 0.45943,-0.0563 0.69384,-0.17815 0.22502,-0.11251 0.4313,-0.26253 0.60945,-0.45005 0.17814,-0.18753 0.32816,-0.38443 0.44067,-0.60945 0.11252,-0.21566 0.16877,-0.43131 0.16877,-0.63758 z"
         style="font-style:normal;font-variant:normal;font-weight:bold;font-stretch:condensed;font-size:9.37614059px;font-family:Earthbound;-inkscape-font-specification:'Earthbound Bold Condensed';stroke-width:0.87901312px"
         id="path4911" /></g><g
       aria-label="7"
       transform="matrix(1.1376394,0,0,0.87901313,0,3.1238465e-6)"
       style="font-style:normal;font-variant:normal;font-weight:normal;font-stretch:normal;font-size:14.06420994px;line-height:125%;font-family:Earthbound;-inkscape-font-specification:Earthbound;letter-spacing:0px;word-spacing:0px;writing-mode:lr-tb;display:inline;fill:#000000;fill-opacity:1;stroke:none;stroke-width:0.87901312px;stroke-linecap:butt;stroke-linejoin:miter;stroke-opacity:1"
       id="text7236-5-9-8-3-1"><path
         d="m 185.5867,263.24445 0.0187,-0.12189 c 0.0563,-0.26254 0.13126,-0.5532 0.2344,-0.87199 0.10314,-0.31878 0.20628,-0.63757 0.31879,-0.97511 0.16877,-0.34692 0.33754,-0.69384 0.51569,-1.04076 0.16877,-0.33754 0.34691,-0.6657 0.52506,-0.97511 0.16877,-0.30942 0.34692,-0.60008 0.51569,-0.87199 0.16877,-0.26253 0.33754,-0.50631 0.49693,-0.71258 l 0.0375,-0.0469 v -0.88136 h -4.36928 v 1.06888 h 2.94411 c -0.15002,0.21565 -0.30942,0.45943 -0.46881,0.74072 -0.1594,0.28128 -0.31879,0.57194 -0.47818,0.88135 -0.1594,0.30942 -0.31879,0.6282 -0.46881,0.95637 -0.15002,0.32816 -0.29066,0.64695 -0.42193,0.96574 -0.13126,0.31879 -0.25315,0.61883 -0.35629,0.90949 -0.10314,0.30003 -0.18752,0.56257 -0.24378,0.79697 l -0.0469,0.17815 z"
         style="font-style:normal;font-variant:normal;font-weight:bold;font-stretch:condensed;font-size:9.37614059px;font-family:Earthbound;-inkscape-font-specification:'Earthbound Bold Condensed';stroke-width:0.87901312px"
         id="path4908" /></g><g
       aria-label="8"
       transform="matrix(1.1376394,0,0,0.87901313,0,3.1238465e-6)"
       style="font-style:normal;font-variant:normal;font-weight:normal;font-stretch:normal;font-size:14.06420994px;line-height:125%;font-family:Earthbound;-inkscape-font-specification:Earthbound;letter-spacing:0px;word-spacing:0px;writing-mode:lr-tb;display:inline;fill:#000000;fill-opacity:1;stroke:none;stroke-width:0.87901312px;stroke-linecap:butt;stroke-linejoin:miter;stroke-opacity:1"
       id="text7236-5-9-8-31-3"><path
         d="m 259.78936,258.21883 v 0.22502 c 0,0.0375 -0.009,0.11252 -0.0281,0.21566 -0.0188,0.10313 -0.0563,0.20627 -0.10313,0.31878 -0.0469,0.11252 -0.11252,0.20628 -0.18753,0.29066 -0.075,0.0844 -0.17814,0.12189 -0.30003,0.12189 -0.30942,0 -0.56257,-0.0656 -0.75009,-0.21565 -0.18753,-0.14064 -0.28129,-0.35629 -0.28129,-0.65633 v -0.33754 c 0,-0.0844 0.009,-0.16877 0.0469,-0.25315 0.0375,-0.075 0.0844,-0.15002 0.14064,-0.21565 0.0563,-0.0656 0.12189,-0.12189 0.1969,-0.1594 0.075,-0.0375 0.15002,-0.0563 0.22503,-0.0563 h 0.42193 c 0.075,0 0.15002,0.0281 0.2344,0.075 0.075,0.0563 0.14064,0.11252 0.1969,0.18753 0.0469,0.075 0.0938,0.15001 0.13127,0.2344 0.0375,0.0844 0.0562,0.15939 0.0562,0.22503 z m -0.55319,3.94735 h -0.53444 c -0.0375,0 -0.0563,0 -0.075,-0.009 h -0.0187 c -0.075,0 -0.15002,-0.0188 -0.21565,-0.0656 -0.075,-0.0469 -0.13127,-0.10313 -0.18753,-0.17814 -0.0562,-0.075 -0.0938,-0.15002 -0.13126,-0.24378 -0.0375,-0.0844 -0.0656,-0.16877 -0.0656,-0.25316 v -0.44068 c 0,-0.0938 0.0188,-0.1969 0.0562,-0.30003 0.0375,-0.10314 0.0844,-0.1969 0.15002,-0.27191 0.0563,-0.075 0.13127,-0.14064 0.21565,-0.1969 0.0844,-0.0469 0.17815,-0.075 0.27191,-0.075 h 0.0469 c 0.37505,0.0563 0.65633,0.14064 0.84385,0.26253 0.18753,0.12189 0.29066,0.30941 0.29066,0.57195 v 0.15001 c 0,0.0469 -0.009,0.0938 -0.009,0.14065 v 0.17814 c 0,0.20628 -0.075,0.37505 -0.20628,0.50631 -0.13126,0.13127 -0.28128,0.20628 -0.4313,0.22503 z m -0.53444,1.07826 h 0.52506 c 0.1969,0 0.41255,-0.0375 0.63758,-0.13127 0.22503,-0.0938 0.44068,-0.21565 0.6282,-0.36567 0.18753,-0.15002 0.34692,-0.31879 0.47819,-0.51569 0.13126,-0.19689 0.18752,-0.40317 0.1969,-0.6282 v -0.24378 c 0,-0.0375 0.009,-0.0844 0.009,-0.12189 v -0.13126 c 0,-0.33754 -0.075,-0.61883 -0.21565,-0.8251 -0.14064,-0.20628 -0.32816,-0.38442 -0.55319,-0.53444 0.1969,-0.1969 0.35629,-0.42193 0.47818,-0.67508 0.12189,-0.24378 0.18752,-0.48756 0.18752,-0.71259 v -0.21565 c 0,-0.17815 -0.0563,-0.36567 -0.15939,-0.57195 -0.10314,-0.20627 -0.24378,-0.39379 -0.41255,-0.56257 -0.17815,-0.16877 -0.38442,-0.30941 -0.60945,-0.42192 -0.2344,-0.11252 -0.47818,-0.16877 -0.72196,-0.16877 h -0.42193 c -0.24378,0 -0.47818,0.0562 -0.70321,0.15002 -0.22503,0.0938 -0.4313,0.22502 -0.60007,0.38442 -0.17815,0.15939 -0.31879,0.33754 -0.42193,0.54381 -0.11251,0.20628 -0.15939,0.41255 -0.15939,0.61883 v 0.31879 c 0,0.30941 0.0469,0.56257 0.15939,0.75009 0.11251,0.1969 0.26253,0.36567 0.45943,0.50631 -0.2344,0.16877 -0.42192,0.37505 -0.56257,0.61883 -0.14064,0.24378 -0.20627,0.50631 -0.20627,0.76884 v 0.4313 c 0,0.22503 0.0656,0.4313 0.18752,0.63758 0.11251,0.20627 0.27191,0.3938 0.45943,0.55319 0.18752,0.16877 0.3938,0.30004 0.6282,0.3938 0.23441,0.10314 0.46881,0.15002 0.71259,0.15002 z"
         style="font-style:normal;font-variant:normal;font-weight:bold;font-stretch:condensed;font-size:9.37614059px;font-family:Earthbound;-inkscape-font-specification:'Earthbound Bold Condensed';stroke-width:0.87901312px"
         id="path4905" /></g></g></svg>